<?xml version="1.0" standalone="no"?>
<!DOCTYPE svg PUBLIC "-//W3C//DTD SVG 1.1//EN" "http://www.w3.org/Graphics/SVG/1.1/DTD/svg11.dtd" >
<svg xmlns="http://www.w3.org/2000/svg">
<metadata></metadata>
<defs>
<font id="damien_weighill_dot_combold" horiz-adv-x="1200" >
<font-face units-per-em="2048" ascent="1638" descent="-410" />
<missing-glyph horiz-adv-x="500" />
<glyph horiz-adv-x="2048" />
<glyph horiz-adv-x="2048" />
<glyph unicode="&#xd;" horiz-adv-x="508" />
<glyph unicode="!" horiz-adv-x="600" d="M70 1311q-9 74 8 140q23 17 55 20q34 3 68 9q24 6 52 4q30 -2 58 -3l2 -5q49 -2 102 3q52 4 92 -17q11 -61 -4 -129q-12 -56 -25 -131q-4 -21 -14 -47q-9 -25 -15 -55q-1 -10 0 -22q2 -12 0 -20q0 -8 -6 -16q-7 -9 -8 -13q-6 -41 -6 -78q0 -35 -8 -75q-1 -11 -11 -24 t-11 -26q-13 -80 -12 -162q2 -83 -61 -135q-39 6 -73 -3q-35 -9 -66 4q-31 66 -46 147q-15 79 -27 171q-2 42 -2 61q0 33 -4 64q-1 9 -8 24t-8 26q-4 36 -4 76q0 41 -4 84q-3 40 -14 128zM111 138q-1 41 5 62v1q10 25 42 45q33 20 69 29q12 3 36 7q16 3 36 1q7 -1 27 -11 t23 -13q8 -6 29 -41q22 -35 23 -53q2 -29 -12 -62q-14 -34 -33 -53q-19 -22 -42 -38q-24 -17 -74 -15q-35 2 -68 21q-33 20 -48 51q-11 26 -13 69z" />
<glyph unicode="&#x22;" horiz-adv-x="706" d="M54 1559q33 5 63 13q37 10 63 11q8 0 17 -3l7.5 -2.5t5.5 -1.5q4 0 15 3q10 3 24 -2l-3 -2q12 -4 25 -11q10 -6 21 -23q-5 -84 -19 -153q-15 -74 -8 -163q-13 -15 -32 -18q-23 -4 -44 -10q-19 -5 -36 0t-36 12q-24 83 -45 169q-22 90 -18 181zM348 1565q5 10 21 17 q18 8 36 11l2 1q42 8 99 3q56 -4 76 -24q2 -25 3 -70q1 -46 -6 -94q-1 -11 -6 -21q-5 -12 -5 -18q-4 -33 -4 -62q0 -26 -10 -47q-11 -23 -28 -36q-18 -13 -57 -15h-29q-14 0 -27 11q-13 23 -13 52q0 31 -4 54q-6 20 -10 29q-6 14 -9 27l-3 33q-2 16 -3 30q-5 30 -12 60 q-8 33 -11 59z" />
<glyph unicode="#" horiz-adv-x="1492" />
<glyph unicode="$" horiz-adv-x="1413" />
<glyph unicode="%" horiz-adv-x="1900" />
<glyph unicode="&#x26;" horiz-adv-x="1555" d="M54 427q-1 30 3 52q9 49 39 90q30 40 25 96q17 21 49 63q7 9 25 32.5t28 36.5q7 7 12 18t15 18q7 7 15 11q6 3 16 11q7 7 12 18t12 18q10 13 17 15t8 15q2 21 -15 51q-18 33 -27 52q-20 45 -27 121q-7 77 12 144q10 34 38 63q18 19 56 57q26 23 38 32q9 7 50 28 q16 9 34 23q14 11 37 16q27 4 70 4q44 0 73 -4q17 -1 43 -11q32 -12 48 -17q23 -9 46 -15q20 -5 40 -14q8 -5 14 -14q5 -7 17 -16q27 -17 34 -24q5 -5 22 -36q14 -24 20 -41q7 -20 11 -56q1 -3 5 -9l3 -5q0 -17 -9 -41q-7 -20 -16 -49q-11 -47 -16 -66q-8 -28 -22 -57 q-16 -31 -41 -62q-24 -30 -54 -57l5 -4q-21 -20 -45 -36q-24 -17 -35 -44q1 -26 21 -42q19 -17 35 -32q20 -25 45 -52q32 -34 48 -52q22 -22 44 -47q23 -26 53 -41q41 42 63 103t63 105q57 0 101 -21t74 -53q16 -18 28 -36q10 -15 13 -33q0 -21 -10 -35q-9 -13 -22 -39 q-22 -35 -60 -101q-33 -58 -54 -104q0 -17 11 -26q14 -12 21 -19q37 -29 65 -66q27 -35 62 -72q27 -27 69 -64q37 -33 45 -83q-36 -35 -90 -26q-58 10 -102 11q-25 1 -49 -3q-23 -4 -46 2q-19 6 -33 24q-14 19 -31 30q-10 2 -14 2q-6 0 -11 5q-20 18 -33 42q-13 23 -36 31 q-41 -5 -62 -33t-59 -48q-15 -11 -39 -20q-3 -1 -21 -7.5t-27 -9.5q-7 -1 -16 0q-9 2 -15 0q-8 -1 -24 -14q-14 -11 -30 -16q-62 -16 -130 -17q-70 -1 -126 3q-32 5 -56 13q-32 11 -56 17q-39 12 -68 23q-24 9 -61 37q-2 2 -4.5 4t-3.5 3t-3.5 3t-4.5 4q-5 2 -20 12 q-6 4 -22 17q-7 7 -11 20t-12 24q-8 7 -18 15q-10 7 -15 14q-34 44 -41 74q-8 32 -8 108q0 19 -2 59zM334 452q1 -41 14 -61q14 -23 23 -42q9 -15 12 -27t14 -26q45 -26 96 -54q51 -29 116 -18q25 1 63 26q44 28 48 31q18 12 33 24t24 27l-1 4q-19 26 -40 45t-40 45 q-22 23 -38 47q-11 16 -35 48q-2 6 -11 8q-10 2 -11 6q-8 9 -9 16t-6 13q-10 14 -21 24q-7 7 -19 21q-16 18 -37 50q-18 27 -50 38q-3 5 -6 6q-4 2 -10 2q-36 -22 -54 -53q-18 -30 -33 -66q-15 -37 -20 -63q-6 -30 -2 -71zM526 1095q18 -65 65 -63q16 0 31 18q5 6 33 41 q30 35 45 72t-12 82q-20 7 -33 15q-14 8 -32 8q-22 0 -53 -22q-33 -23 -44 -46q-18 -40 0 -105z" />
<glyph unicode="'" horiz-adv-x="402" d="M60 1557q6 13 39 21q18 4 49 3q28 -1 58 -3l2 5h51q25 0 37 -14q8 -18 8 -35q0 -21 -4 -38q0 -4 -2 -18q-2 -10 -3 -18q-1 -9 -6 -15q-5 -7 -5 -14q-4 -43 -3 -87q1 -43 -14 -83q-34 -10 -55 -24t-65 -3l-20 12q-17 11 -20 21q-3 7 -2 24q2 24 2 29q-2 13 -6 29 q-5 17 -6 33q-4 15 -6 29q-1 13 -6 27q-3 12 -11 38q-7 24 -11 42q-7 25 -1 39z" />
<glyph unicode="(" horiz-adv-x="827" d="M110 701q0 91 27 195q32 122 50 202q8 28 11 51q3 28 10 48q0 7 6 16t9 25q3 13 5 17q0 1 2 4t3 5q9 15 24 44q12 25 24 53q7 24 11 41q5 22 15 41q14 24 30 41q17 19 30 40t24 47q11 24 29 41q23 21 56 15q26 -5 70 -17q28 -7 51 -8q25 -1 25 -24q14 -44 -9 -78t-39 -75 q-38 -87 -68 -183q-32 -100 -51 -204q-17 -71 -18 -157q-2 -116 -2 -185q3 -60 -2 -131q-5 -73 -5 -124q4 -149 36 -285q31 -136 78 -235q16 -38 39 -70q23 -31 39 -75q3 -14 10 -25q7 -12 -3 -25q-23 -39 -83 -33q-59 6 -97 12q-33 0 -54 28q-28 38 -42 58q-1 1 -11 9 q-7 5 -15 17q-3 8 -2 9t-5 9q-3 5 -8 15t-15 28t-14 27q-6 13 -15 30q-10 12 -19 28q-1 2 -8 14t-11 18q-7 15 -10 31q-4 20 -10 38q-6 16 -21 39t-18 45q-4 17 -5 36q-1 18 -5 39q0 39 -6 74q-6 34 -9 71q-4 14 -7 20q-4 8 -4 12q-7 30 -8 80q-2 70 -2 95l-6 15q-3 8 -3 21 q3 7 8 14q5 6 0 20q0 13 -6 28t-6 28z" />
<glyph unicode=")" horiz-adv-x="835" d="M92 -283q-11 59 24 89q34 30 54 74q5 10 5 22q0 11 5 28q0 2 9 8t9 8q19 55 29 120q11 68 30 129q4 9 11 18q6 7 6 15q10 51 12 104q1 33 5 108q8 91 5 168q-3 82 -12 161q-3 17 0 33q3 15 1 33q-3 11 -11 24t-8 26q-3 27 3 56q6 27 4 53q0 22 -6 43q-8 28 -11 42 q-2 30 0 60q1 20 1 59q0 17 -4 29t-4 30q0 14 6 26t3 26q-1 15 -11 36q-10 22 -14 39q-7 28 -9 57t-9 54q-12 35 -33 70t-20 72l3 8q28 37 76 30q48 -8 107 -3q37 -22 57 -65q19 -42 39 -87q6 -16 8 -25t8 -27q0 -4 8 -9q5 -3 11 -6q0 -5 -2 -13q-1 -5 2 -13q7 -19 18 -42 t15 -45q8 -36 11 -72t14 -81q2 -2 5 -12l6 -21q2 -17 15 -44q14 -27 18 -49q1 -19 3 -48q2 -32 3 -53q7 -54 11 -92q5 -48 0 -101q-3 -1 -8 -4q-8 -5 -3 -6q33 -24 9 -122q-24 -97 -27 -123q0 -14 5 -29t5 -30q-1 -7 -3 -22q-3 -23 -6 -36q0 -11 -8 -24q-8 -12 -9 -27 q-3 -16 0 -30q3 -15 -1 -30q0 -5 -6 -14q-6 -8 -12 -26q-5 -23 -14.5 -68.5t-11.5 -52.5q-14 -64 -33 -116q-17 -38 -33 -82q-16 -47 -36 -87q-16 -30 -32 -56q-16 -25 -48 -47q-12 -10 -19 -16q-11 -9 -15 -9q-27 -9 -53 -5q-30 5 -53 5q-26 0 -50 -6q-25 -6 -44 13z" />
<glyph unicode="*" horiz-adv-x="900" />
<glyph unicode="+" horiz-adv-x="1142" d="M75 796q48 44 146 39t170 15q14 53 0 137t15 137q16 22 50 27q33 5 72 12l6 -1q30 7 75 4q43 -3 69 -27q14 -60 8 -132q-6 -73 -9 -135q42 -44 143 -30t149 -24q9 -44 9 -108t-9 -105q-48 -33 -129 -30q-83 3 -147 -10q-11 -57 0 -126q10 -66 10 -135q-41 -41 -103 -35 t-122 -11q-19 16 -39 26q-21 11 -38 29q-1 40 -5 129q-3 67 -18 116q-65 27 -132 8t-124 8q-28 37 -31 102q-3 67 -16 120z" />
<glyph unicode="," horiz-adv-x="519" d="M54 -186q-10 39 6 78t30 81l3 15l2 10q2 9 8 27q5 13 9 30q2 8 -1 15q-3 8 0 15q1 6 11 21q8 12 13 27q5 26 3 53q-1 25 8 49q2 5 12 12q11 8 11 24l5 2q59 -8 131 0q71 7 111 -20q10 -46 -17 -81q-26 -33 -50 -62q-11 -41 -38 -82q-25 -39 -45 -78q-26 -52 -39 -79 q-19 -39 -50 -70q-16 -1 -69 -5q-38 -3 -54 18z" />
<glyph unicode="." horiz-adv-x="567" d="M69 166q7 43 43 61q34 17 66 41q38 18 96 0t78 -47q10 -16 21 -47q10 -29 10 -39q2 -86 -84 -119q-85 -33 -174 11q-17 37 -39 68t-16 72z" />
<glyph unicode="/" horiz-adv-x="823" />
<glyph unicode="0" d="M68 809q0 46 4 83q5 47 9 80q3 26 7 82q3 41 13 68q3 7 14 29q6 12 20 38q19 37 42 71q24 36 51 69q22 24 37 35q18 14 45 33q26 17 42 30t48 24q8 2 19 3q12 2 21 3q12 6 26 14q12 7 35 12l-11 -1q4 2 9 0q3 -1 6 -1q7 1 36 6t51 3q13 -2 23 -6q11 -4 24 -6q12 -4 28 -4 t27 -4q2 0 7 -6l6 -8q9 -3 29 -7q16 -3 33 -13q5 -4 12 -14q6 -9 14 -14q4 -4 10 -4t10 -4q3 -1 7 -5q1 -1 3 -3.5t4 -4.5q6 -4 18 -10q10 -5 14 -9q8 -7 14 -18q7 -13 15 -23q14 -17 24 -24q11 -8 23 -30q3 -6 3 -8t3 -5q16 -16 31 -49t24 -60q4 -9 12 -29q2 -5 5 -13.5 t5 -12.5q5 -24 6 -52q2 -32 7 -57q1 -9 6 -18t9 -27q9 -60 7 -145q-1 -83 -6 -165q-1 -41 -11 -86q-7 -33 -16 -90q-6 -34 -17 -76q-10 -37 -25 -72q-9 -25 -23 -51q-16 -30 -25 -44q-13 -24 -38 -51q-26 -28 -49 -48q-23 -21 -45 -39q-23 -19 -41 -29q-47 -21 -127 -36 q-83 -15 -156 -5q-18 1 -42 11q-30 12 -45 17q-20 7 -44 12q-23 5 -36 15q-20 14 -45 52q-29 45 -48 76q-30 50 -45 74q-24 38 -35 69q-7 13 -10 38q-3 21 -11 44q-6 18 -15 32q-8 13 -13 35q-15 67 -18 155q-3 77 -1 174zM269 692q-1 -21 5 -45q8 -25 9 -57t6 -57 q7 -31 24 -63t24 -51q6 -15 6 -27t6 -20q6 -10 18 -18q13 -8 23 -21q3 -4 7 -14q3 -8 7 -12q12 -14 23 -20t24 -12l15 -9q8 -5 13 -6q44 -21 90 -17q47 5 78 24q3 3 7 9q3 5 7 6q6 3 14 3q7 0 14 5q13 13 23 28q2 3 23 33q9 11 29 35q16 19 20 32q7 19 11 44q3 18 9 56 q4 40 7 57q4 30 6 59q-1 2 -4 6q-5 6 -3 12q2 44 6 108q5 67 -1 107q-5 33 -18 75q-4 12 -8 25t-8.5 26t-6.5 18q-6 14 -10 20t-10 20q-12 30 -17 45q-6 19 -17 42q-15 24 -28 41q-19 25 -27 32q-5 5 -20 10q-13 5 -27 12q-16 8 -24 16q-10 9 -23 11q-9 1 -39 1 q-23 -1 -21 -8l3 -8q-30 -7 -57 -23q-25 -15 -39 -36q-2 -4 -4.5 -7.5t-5.5 -7.5t-4 -6t-5.5 -9t-7.5 -11q-8 -10 -11 -14q-6 -8 -9 -13q-31 -46 -48 -90t-27 -105q-6 -24 -14 -90q-9 -71 1 -78q5 -2 -2 -5q-6 -3 -6 -1q-5 -35 -6 -57z" />
<glyph unicode="1" horiz-adv-x="811" d="M82 1048q-2 62 10 102q12 42 49 73q4 4 13 7q10 3 15 7q7 4 12 11q3 4 11 10q7 7 17 9t17 9q16 9 33 29q17 19 33 36q18 16 26 23l24 21q11 9 26 18q12 7 24 18q34 26 38 30q19 15 42 29q17 11 23 16q13 10 27 12l2 -5q49 10 86 -11q35 -21 54 -44q-12 -74 -6 -147 q6 -74 6 -146q-2 -25 -9 -54q-7 -27 -7 -54q0 -43 1 -63q2 -30 0 -68q-5 -68 6 -141q10 -70 10 -144q0 -114 -15 -225q-15 -108 -10 -218q5 -41 13 -76q9 -38 -5 -78q4 -16 -20 -21q-31 -6 -35 -7q-16 -6 -56 -12t-62 4q-8 5 -12 13q-4 9 -17 23q-5 11 -15 20q-9 8 -13 17 q-6 14 -5 27q2 14 -3 32q-3 15 -8 29q-4 12 -6 23q0 20 3 41q4 27 5 45q2 32 0 65q-1 22 -1 66q0 14 3 29t3 32q0 10 -3 24t-3 24q1 24 9 42q8 19 5 47q-2 26 -2 31t2 35q4 102 6 224q1 121 -6 228q-21 11 -36 -9q-15 -19 -31 -28q-5 -4 -11 -4q-5 0 -9 -4q-31 -20 -56 -40 q-40 -32 -59 -49q-24 -17 -35 -32t-39 -11q-27 4 -42 38q-16 34 -17 72z" />
<glyph unicode="2" horiz-adv-x="1138" d="M65 61q1 34 8 72q6 35 6 75q4 28 29 36q24 8 14 51q29 12 47 39t39 54q26 34 59 71q21 24 63 74q21 23 39 45q13 16 41 48q14 16 22 23t22 21q38 44 78 98q38 51 75 105q5 9 17 29q9 14 20 29q10 20 14 30q5 14 14 29q27 50 51 78q24 29 14 96q-5 28 -24 60 q-20 32 -35 41q-5 4 -21 7q-20 4 -29 7q-27 6 -60 12q-32 6 -70 -5q-32 -6 -81 -42q-49 -35 -72 -65q-22 -29 -35 -62q-14 -33 -45 -45q-43 10 -75 33l-63 45q-11 8 -29 8t-23 15q-5 23 12 45q10 13 32 40q13 21 32 41t26 41q25 15 48 35q21 18 54 39q8 5 30 17t35 20 q39 23 73 35q65 26 159 11q33 -5 87 -13.5t74 -11.5q46 -9 77 -20q28 -10 62 -38q4 -4 6 -12q1 -7 8 -12q2 -2 9 -3t12 -3q37 -35 51 -62q14 -26 30 -78q13 -42 20 -97q7 -57 -14 -112q-5 -15 -13 -27q-2 -3 -17 -24q-6 -10 -18 -19t-18 -19q-6 -9 -9 -21q-4 -16 -7 -23 q-10 -22 -30 -51q-19 -28 -21 -65q-32 -18 -51 -49q-18 -30 -42 -58q-12 -15 -26 -26q-15 -11 -26 -27q-5 -5 -3 -11t-3 -11q-2 -2 -6 -3t-6 -6q-10 -14 -14 -21q-1 -2 -6 -10.5t-8 -13.5q-2 -3 -32 -39q-22 -26 -35 -47q-17 -24 -48 -57t-39 -71l3 2q-19 -19 -43 -34 t-30 -48q19 -18 49 -16q40 2 53 2q12 0 42 -2q22 -2 45 3q59 8 155 8h173q0 -4 4 -45.5t6 -65.5q6 -63 -4 -106q-73 -35 -165 -29q-93 6 -198 6q-52 0 -108 -6q-37 -4 -111 -10q-25 -1 -54 -3q-19 -1 -55 -3q-32 -1 -60 -6q-29 -5 -47 -3q-41 6 -65 33t-45 48z" />
<glyph unicode="3" horiz-adv-x="1243" d="M64 272q12 28 39 43q25 14 61 42q31 23 53 43q29 26 60 21q27 -5 36 -25q8 -20 29 -45q6 -10 16 -19q11 -10 18 -19q10 -11 23 -24q2 -2 9 -8.5t11 -10.5q2 0 27 -13q22 -11 33 -16q34 -6 71 5q31 9 65 18q11 2 24 3t19 3q14 7 28 24q14 16 30 33q25 29 38 50 q15 23 26 64q13 52 12 118q-2 67 -34 108q-18 24 -51 45q-34 22 -70 26q-23 2 -50 0t-56 0q-11 0 -15 7t-21 7l-14 -6q-16 -6 -29 -2q-12 16 -30 33q-20 18 -32 33q-11 12 -33 38q-17 20 -15 38q0 21 23 41q20 17 45 44q17 20 41 42q27 25 38 37q3 4 7 14t7 14q5 8 12 15 l15 15l53 53q33 33 45 59q-73 4 -173 9q-93 4 -180 -2q-20 -2 -44 -9q-24 -8 -41 -3q-60 13 -60 93t18 147q68 30 150 20q82 -11 168 -6q30 1 67 11q35 9 69 9q60 2 131 -6q68 -7 123 -1q14 2 29 9t27 6h2q25 -5 41 -22q13 -14 30 -35q2 -48 -7 -82t-7 -80q-19 -20 -33 -42 q-13 -21 -32 -42q-6 -8 -10 -11q-5 -4 -10 -12q-4 -4 -4 -10t-4 -10q-2 -5 -6 -6t-6 -3q-6 -6 -8 -13q-3 -8 -8 -15q-4 -6 -13 -10q-10 -5 -15 -10q-4 -5 -7 -15q-3 -11 -7 -14q-19 -22 -47 -39q-27 -16 -39 -48q32 -11 74 -9q40 1 77 -5q25 -25 62 -45q36 -20 65 -53 q10 -16 17 -30l5.5 -11t6.5 -12.5t5 -10.5q14 -20 21 -29q9 -12 16 -27q2 -9 -1 -26q-3 -19 1 -32q1 -12 6 -18t6 -16q7 -82 -9 -168t-33 -165q-19 -17 -33 -41q-13 -22 -32 -44q-4 -6 -10 -10q-5 -4 -10 -12q-4 -4 -4 -10t-4 -10q-3 -4 -15 -16q-11 -10 -18 -21 q-9 -9 -21 -26q-11 -16 -21 -23q-5 -4 -12 -4t-11 -4q-10 -10 -28 -19q-10 -5 -42 -23q-28 -15 -51 -27q-20 -11 -68 -22q-6 -1 -19 -3.5t-24.5 -5t-21.5 -4.5q-34 -7 -77 -9q-9 0 -18 4t-19 4q1 0 -0.5 -0.5t-8.5 -3.5q-11 -4 -24 -4q-31 5 -69 21t-72 30q-21 9 -48 23 q-15 8 -45 26q-47 30 -89 76q-44 49 -62 109z" />
<glyph unicode="4" horiz-adv-x="1280" d="M65 451q1 2 3 7q4 10 5 15q0 28 20 59q16 25 38 54q2 6 2 10q0 7 4 12q1 2 6 3t6 3q10 13 18 32q7 17 18 34q1 5 9 13q8 7 12 15q4 5 4 18t4 17q1 4 9 7t9 7q4 5 4 11t4 11q6 7 14 12t14 15q10 17 13 42q3 23 14 42q12 20 28 35q17 16 28 36q13 19 17 39q4 21 12 39 l11 11q9 10 11 17q4 10 3 22t3 22q5 9 17 21q11 11 18 22q19 30 39 69q26 52 38 78q12 24 29 50q15 24 27 48l27 48q14 24 37 36q14 0 36 -2q16 -1 36 3l7 3q37 7 79 11q49 5 84 -25q12 -95 7 -174q-5 -80 1 -159q0 -8 3 -21t3 -22q0 -15 -7 -29t-7 -27q0 -21 7 -41t7 -44 q-1 -1 -4 -2q-4 -2 -3 -6v-20q0 -5 4 -10q5 -6 3 -14t0 -27q1 -13 1 -42q0 -69 -3 -142q-3 -71 11 -148q43 -5 129 -17q66 -9 117 -31q6 -47 0 -113q-6 -67 -28 -101q-43 -25 -106 -18q-62 7 -114 -17q-5 -14 -6 -33q-2 -26 -2 -44q2 -66 2 -87q0 -38 -36 -60q-57 4 -120 3 q-63 -2 -101 24q-4 36 3 93t-9 111q-42 7 -87 6t-90 -6q-18 -1 -38 -8q-18 -6 -39 -6q-29 -2 -65 1q-52 4 -77 5l-21 3q-11 2 -24 3q-19 5 -52 10q-29 5 -54 18q0 15 -7 21t-7 22q-1 10 3 21t3 21q-1 18 -8 43q-6 23 -6 42zM380 516q29 -23 68 -15q39 7 74 9q28 0 63 -5 q32 -5 56 12q8 39 11 70q3 36 3 73q0 32 -5 74q-4 38 -3 75q1 22 8 49t8 48q0 17 -4 29t-4 27q0 26 7 47q7 22 1 47l-21 1q-10 -24 -21 -42q-7 -12 -21 -38q-27 -53 -47 -98q-14 -32 -44 -98q-15 -35 -30 -65q-14 -28 -35 -63q-24 -44 -37 -66q-19 -33 -27 -71z" />
<glyph unicode="5" horiz-adv-x="1158" d="M44 246q4 16 15 27q10 10 27 16q16 13 39 24q24 11 46 18q6 2 51 14q27 8 53 0q18 -6 21 -13q3 -8 15 -24q6 -10 12 -18q8 -10 16 -18q27 -31 48 -47q23 -17 70 -30q12 -1 29 -8q14 -6 27 -4q30 1 39 18q9 16 53 22q20 15 46 39q16 15 46 45q7 9 26 51q19 44 21 60 q4 14 3 30q-2 22 -2 33q1 13 5 30q3 13 3 27q-1 16 -9 31q-6 13 -13 31q-4 17 -4 35q0 16 -10 29q-18 32 -75 57q-57 26 -128 12q-46 -10 -91 -54t-91 -60q-72 0 -138 6q-65 6 -94 50q-6 22 2 42t12 43q2 16 0 36t0 39q1 12 8 27q6 14 6 27q0 17 -4 29t-4 27q1 16 11 37 t11 39q5 41 7 93q2 51 7 90q2 25 6 44l9 39q7 32 8 56q1 26 12 43q12 21 33 46t36 38q78 20 184 21q117 2 208 7l2 6q56 5 106 6q47 1 97 -5q20 -39 32 -83q12 -45 18 -99q-12 -12 -27 -24q-14 -11 -29 -18q-9 -4 -21 -4q-7 0 -21 -2q-10 -1 -18 -8q-7 -6 -18 -6 q-19 -5 -45 -3q-34 2 -54 2h-77q-46 0 -82 4q-40 4 -64 -12q-40 -24 -37 -78q3 -52 -5 -110q-5 -30 -15 -54q-11 -24 -12 -52q38 -11 68 9t64 27q30 7 83 12q54 5 86 -7q6 0 12 -6l8 -8q17 -5 31 -6q13 -1 25 -8q11 -4 22 -12l21 -15q9 -4 27 -10q15 -5 21 -10 q14 -10 27 -30t30 -42q22 -31 26 -36q13 -20 21 -36q9 -20 14 -37t14 -39q7 -18 20 -36q11 -16 16 -28q4 -18 6 -48q1 -20 1 -50q0 -2 2 -24q2 -17 -3 -32q0 -2 -7 -6t-7 -6q-6 -32 -6 -74q0 -40 -8 -72q0 -2 -6 -6q-1 -1 -3 -2.5t-3 -2.5l-2 -1q-2 -7 1 -14q3 -8 -1 -14 q-2 -7 -9 -14q-6 -6 -12 -14q-21 -36 -24 -41q-13 -23 -18 -48q-11 -9 -31 -27q-15 -13 -19 -37q-13 -5 -25 -13q-3 -2 -24 -17q-10 -7 -18 -18q-7 -10 -19 -16q-17 -11 -39 -18q-25 -8 -45 -19q-18 -8 -35 -21q-19 -14 -42 -20q-36 -8 -73 -5q-44 3 -95 13q-14 1 -27 6 l-27 9q-28 4 -48 9t-42 12q-19 6 -32 14q-12 7 -33 21q-8 5 -21 13.5t-15 9.5q-5 3 -11 7t-14.5 10t-13.5 9q-10 6 -24 12t-18 10q-5 4 -10 15q-4 10 -12 18q-6 10 -15 16q-8 5 -13 12q-13 21 -17 39t-17 31z" />
<glyph unicode="6" horiz-adv-x="1174" d="M86 448q-3 23 1 62q8 33 10 42q4 15 12 47q4 27 5 45q1 21 8 46q5 16 13 26q9 12 15 30q10 22 12 47t15 47q0 4 6 6q7 2 8 3q3 6 13 30q8 20 15 32q1 2 6 10.5t8 13.5q1 2 6.5 11t7.5 14q5 14 6 31t8 30q1 5 9 9q7 4 9 11q3 4 7 14t7 14q24 40 45 98q22 61 46 108 q2 3 7 9.5t7 9.5q10 14 14 22q6 14 9 27t9 27q6 10 14 20q9 11 14 21q1 1 8 3q6 2 6 3q1 4 0 10q-2 6 0 12q2 2 7 3q6 2 6 3q4 10 9 29t18 26q57 10 132 15t89 -41q5 -23 -19 -55q-23 -31 -37 -55q-15 -23 -31 -57q-15 -31 -30 -66q-21 -38 -45 -89q-20 -43 -47 -95l2 2 q-10 -27 -24 -52q-14 -24 -15 -45q91 -14 164 -8q75 6 139 -28q13 -4 24 -17q10 -12 24 -24q8 -5 18 -6t17 -8q7 -3 11 -9q1 -2 4 -5t4 -5q18 -15 33 -32q14 -16 29 -38q14 -19 23 -40q11 -25 18 -49q13 -49 17 -131q5 -84 -3 -152q-5 -21 -12 -48q-10 -36 -15 -53 q-26 -77 -78 -152q-53 -76 -114 -110q-17 -8 -61 -33q-41 -23 -63 -28q-48 -9 -105 -2q-59 8 -102 15q-24 4 -47 6q-21 1 -36 8q-8 1 -19 12q-10 10 -22 13q-27 16 -60 32q-38 18 -56 36q-19 20 -36 54q-15 31 -33 64q-14 22 -27 54q-12 29 -22 69q-1 9 -3 26q-1 10 -3 28 q-6 25 -9 47zM352 522q-14 -72 9 -135q5 -12 15 -27q14 -20 21 -29q14 -24 27 -38q15 -17 27 -26q15 -9 34 -19q18 -9 36 -15q17 -6 30 -3t25 3q10 0 18 -4t15 -4q10 4 30 17q18 12 24 18q12 12 18 20q7 9 15 22l12 9q4 3 10 9q17 25 23 38q5 12 10 39q4 4 8 9q6 8 6 9 q11 42 9 93q-2 52 -15 86q0 2 -6 6q-1 1 -3 2.5t-4 2.5l-1 1q-5 8 -3 15q1 7 -5 13q-5 12 -27 27l-19.5 13t-12.5 8q-31 19 -69 23q-39 4 -88 -3l2 8q-17 -1 -31 -6q-14 -4 -24 -9q-4 -1 -14 -3t-14 -3q-12 -6 -18 -18q-7 -14 -10 -18q-3 -3 -9 -7q-5 -3 -6 -7 q-31 -45 -45 -117z" />
<glyph unicode="7" horiz-adv-x="1095" d="M62 1309q0 11 7 24q8 14 -6 20q-16 64 11 102q27 37 104 39q56 0 131 -5q65 -4 144 5q20 2 41 6t44 6q44 2 87 0t84 0q26 0 53 6q30 7 47 8q12 0 23 -4t26 -4l2 1q44 0 67 -1q34 -1 55 -28q0 -44 10 -97q10 -55 -9 -87q-4 -4 -13 -7q-10 -3 -11 -7q-5 -9 -7 -26 q-2 -16 -7 -23q0 -1 -6 -3q-7 -2 -8 -3q-5 -9 -13 -36q-8 -26 -15 -41q0 -2 -6 -3t-9 -3q-14 -33 -30 -81q-16 -47 -45 -73q0 -30 -10 -54t-18 -53q-1 -3 -8 -12q-6 -7 -6 -9q-1 -8 0 -18t0 -19q-4 -11 -12 -22q-7 -11 -12 -21q-17 -52 -36 -98q-19 -48 -42 -93 q-15 -32 -36 -67q-20 -34 -36 -70q-10 -21 -18 -47q-9 -27 -18 -53q-5 -10 -12 -21t-12 -21q-9 -28 -14 -49q-6 -28 -16 -49q-7 -22 -23 -44q-12 -17 -25 -41q-14 -25 -20 -46q-7 -23 -32 -34q-20 0 -60 -5q-36 -4 -75 -9q-50 -2 -78 -2q-40 0 -63 24q-12 18 -4 30 q7 12 9 26q4 12 6 26q2 13 3 30q26 27 43 65q20 43 34 68q14 22 21 32q14 20 21 31q5 7 7 17q2 11 7 20q3 4 12 13q8 7 12 15q28 53 50 104q16 36 50 110q4 10 6 18t9 18q6 10 9 14t11 14q20 75 49 136q34 71 59 128q48 115 53 128q28 69 44 139q-61 1 -185 5q-88 3 -204 -5 q-43 -1 -90 -3t-87 18q-8 20 -10 24q-4 8 -4 27z" />
<glyph unicode="8" horiz-adv-x="1166" d="M41 433q0 55 12 113q4 31 14 45q5 8 25 42q4 11 6 24q1 13 8 23q8 10 21 18t24 21q24 27 48 65q22 36 58 61q-17 23 -36 48q-20 26 -30 58q-6 15 -9 35q-4 26 -7 39q-5 19 -9 36t-6 30q0 45 17 93t14 93q37 37 63 82q27 47 72 78q13 10 33 17q22 8 41 18q16 8 33 18 t33 15q18 3 42 3q27 0 47 4q29 6 75 6q44 0 90 -11q32 -9 73 -30q33 -17 76 -44q8 -5 14 -12q6 -8 17 -14q8 -6 48 -34q29 -20 40 -38q11 -21 17 -48q5 -23 14 -54q7 -21 20 -48q11 -24 11 -46q0 -18 -5 -36q-1 -2 -11 -36q-10 -35 -21 -60q-10 -25 -32 -53q-5 -5 -15 -17 t-15 -17q-7 -6 -15 -26q-8 -21 -16 -33l6 -3q-8 -12 -18 -21q-10 -8 -13 -26q5 -25 25 -38q17 -11 37 -29q10 -10 14 -16t14 -16q13 -15 27 -33q13 -17 24 -41q16 -34 30 -93t6 -120q-3 -22 -12 -46q-12 -32 -17 -47t-5 -27q0 -15 -4 -27q0 -2 -7 -6t-7 -6q-3 -8 0 -15 q3 -8 0 -14q-8 -12 -24 -24q-18 -13 -30 -28q-7 -8 -8 -18t-6 -16q-11 -16 -33 -35q-23 -20 -43 -30q-24 -12 -47 -31q-27 -22 -42 -29q-7 -3 -24 -6q-18 -3 -29 -6q-5 -1 -13 -3q-4 -1 -10 -3q-18 -6 -75 -9t-90 -3q-47 2 -83 12t-81 21q-18 4 -36 14q-23 12 -39 20 q-9 4 -26 9q-14 4 -26 11q-10 4 -19 15q-10 12 -19 17q-13 10 -26 15q-11 4 -19 12q-15 13 -26 30q-16 24 -25 36q-29 37 -41 57q-14 24 -26 69q-13 43 -13 99zM313 395q3 -32 27 -76q24 -43 47 -57q17 -11 41 -14t42 -6q15 -4 43 -14q21 -8 39 -6q26 1 53 14q17 8 53 26 q2 1 20 9.5t29 13.5q27 12 41 29q0 2 6 12l9 15q21 37 27 81q6 42 -5 91q-9 42 -23 66q-14 23 -36 48q-12 11 -23 23q-14 16 -15 17q-15 8 -60 17q-47 9 -61 9q-23 -2 -47 -15q-25 -14 -51 -11l2 4q-11 -19 -33 -30q-23 -11 -35 -24q-4 -4 -7 -15q-3 -9 -8 -18 q-10 -14 -24 -27t-21 -27q-2 -5 0 -11q1 -6 0 -10q0 -2 -7 -6t-7 -8q-8 -20 -13 -53q-5 -30 -3 -47zM385 1102q-9 -62 30 -116q38 -53 75 -70q45 -23 89 -12q42 10 75 32q43 26 53 48q12 25 23 72q6 24 10 36q6 18 6 38q-1 32 -21 79q-19 45 -47 61q-27 13 -60 14t-75 -8v-6 q-50 -11 -74 -33q-23 -21 -46 -57q-7 -10 -22 -39q-13 -24 -16 -39z" />
<glyph unicode="9" horiz-adv-x="1119" d="M69 861q-7 77 0 150q8 56 21 92q14 36 33 75q13 25 41 75q21 37 51 72q24 25 42 39q15 11 48 31q24 13 80 33q54 20 102 24q53 2 134 -15q82 -17 131 -36q40 -17 63 -30t54 -45q9 -8 27 -26q14 -14 21 -24q5 -7 10 -24q6 -22 10 -33q7 -12 15 -21t12 -21q4 -9 4 -25 t4 -31q1 -7 5 -19q4 -13 8 -29q10 -51 10 -89q0 -37 -10 -84q-7 -34 -12 -69t-15 -71q-2 -8 -6 -14q-5 -6 -6 -13q-11 -37 -27 -74q-18 -40 -36 -74q-3 -6 -13 -28q-7 -15 -15 -28q-1 -5 -9 -9t-9 -9q-4 -7 -4 -15t-4 -13q-7 -16 -16 -26q-11 -12 -18 -24q-25 -41 -44 -74 q-15 -26 -47 -80l-48 -75q-23 -36 -56 -72q-20 -20 -28 -27q-11 -9 -28 -33q-8 -12 -18 -30q-7 -12 -23 -34q-22 -28 -39 -47q-19 -20 -51 -37q-1 0 -9 -3t-6 -3l1 2q-54 -11 -120 -5q-67 6 -102 32q1 30 23 53q21 22 39 45q7 9 18 19q10 9 18 23q1 1 3 9l3 12q6 6 15 9 q8 3 13 11q4 4 4 10t4 10q5 6 12 12q8 7 15 16q4 8 15 18q9 9 19 24q4 4 4 10t4 10q2 4 6 6l6 3q8 13 12 27t15 27q1 1 3 6l3 9q17 25 44 57q23 28 34 66q-5 18 -31 14q-27 -5 -47 0q-17 17 -33 12q-16 -4 -36 2q-10 1 -22 12q-10 9 -26 16q-11 5 -30 10q-18 5 -27 10 q-1 1 -3 8q-2 6 -3 6q-6 5 -12 6q-4 1 -16 8q-4 4 -7 12t-7 12t-10 3t-10 3q-20 18 -33 34q-15 18 -21 30q-10 18 -18 47q-7 28 -18 51q-23 49 -30 126zM308 930q-2 -44 7 -71q9 -29 15 -63l-3 -3q56 -53 166 -81q111 -28 175 39q4 4 4 10q0 7 4 12q2 5 9 6t12 8 q25 36 38 75q14 41 18 85q6 74 -19 117q-26 44 -72 66q-2 0 -3 6q-2 7 -3 8q-18 12 -26 18q-14 10 -22 15q-25 16 -74 21t-74 -7q-44 -18 -71 -45t-45 -65q-16 -29 -25 -72q-10 -45 -11 -79z" />
<glyph unicode=":" horiz-adv-x="517" d="M69 940q2 34 25 60q25 28 75 38q57 14 89 2q33 -12 70 -43q8 -7 21 -12t21 -15q18 -28 14 -54q-4 -27 -24 -63q-16 -35 -32 -50q-14 -14 -59 -25q-56 -14 -86 0q-29 13 -64 57q-17 21 -32 42q-18 26 -17 57zM84 308q19 50 81 82q61 32 120 9q17 -7 64 -57q46 -49 52 -75 v-3q5 -17 -3 -35q-8 -19 4 -39q-33 -40 -77 -70q-42 -29 -98 -21q-61 7 -114 74q-53 66 -29 135z" />
<glyph unicode="&#x3c;" horiz-adv-x="1148" />
<glyph unicode="=" />
<glyph unicode="&#x3e;" horiz-adv-x="1154" />
<glyph unicode="?" horiz-adv-x="1115" d="M87 1391q2 4 17 24q11 16 23 24q14 8 37 15q24 8 42 15q21 11 33 22q13 11 27 16q31 8 90 16q52 7 95 12q36 5 72 -3q35 -7 74 -12q11 -1 22 -2.5t22.5 -3t15.5 -2.5q21 -3 48 -14q33 -10 56 -29q20 -16 51 -47q23 -25 38 -45q18 -24 26 -42q21 -48 15 -129 q-6 -82 -36 -128q-7 -9 -18 -17q-14 -11 -23 -22q-17 -15 -42 -41q-21 -23 -51 -43q-2 -3 -15 -13q-11 -8 -21 -10q-29 -8 -67 -13q-36 -5 -66 -18q-8 -1 -18 -9q-12 -8 -21 -11q-27 -5 -48 -5q-23 0 -42 -8l-8 6q-35 -16 -52 -47q-17 -30 -12 -98q17 -18 28 -18q16 0 41 -4 q11 0 15 -4q5 -5 12 -3q18 2 39 15q11 7 37 26q19 17 23 33q5 17 39 17q19 0 27 -6q10 -8 21 -14q25 -22 47 -45q23 -24 37 -54q-18 -64 -83 -111t-117 -56q-27 -1 -63 3q-36 5 -67 6q-42 0 -81 12q-37 11 -72 32q-27 13 -42 25q-18 14 -35 39q-45 55 -44 130q2 78 34 150 q19 40 66 75q48 36 96 59q31 15 57 24q31 11 66 20q8 2 15 6t18 6q7 2 18 0t18 0q12 5 23 12q16 10 25 15q18 8 27 11q14 4 21 9q17 16 37 44q18 25 18 44q-1 23 -14 36q-10 10 -33 28q-18 12 -39 24t-38 12q-25 1 -40 -3t-36 -12q-22 -6 -33 -10q-17 -6 -30 -12 q-30 -14 -54 -33q-32 -26 -47 -39q-8 -6 -105 81q-98 87 -96 92zM242 178q4 46 45 69q49 27 85 44q0 6 40 9t61 0q3 0 9 -6q5 -5 11 -9q12 -2 17 -3q8 -2 15 -6q5 -2 8 -9q3 -8 7 -9q10 -7 17 -8q8 -2 14 -14q10 -18 17 -48q8 -34 8 -45q-4 -45 -48 -81q-44 -37 -87 -41 q-75 -11 -150 36t-65 123z" />
<glyph unicode="@" horiz-adv-x="2064" d="M86 585v28q-2 7 3 9q4 1 4 3q0 25 -4 41q-5 18 -3 38q2 22 9 45q7 22 12 44q5 28 5 48q0 22 8 44q13 42 41 90q28 47 29 105q25 16 40 43l30 54q6 12 14 26q1 2 6 10.5t8 13.5q14 23 39 48t45 56q7 15 24 37q16 21 33 33q22 19 57 32t68 32q4 1 12 9t18 12q5 4 11 4 q5 0 9 4q2 1 12 10.5t18 15.5q20 17 35 23q19 7 42 6q22 -1 43 3q28 5 56 15q28 11 63 18q10 1 18 8q7 5 18 7q42 8 89 6q46 -2 84 15q44 -23 89 -12q47 11 87 11q20 -2 42 -6t42 -9q44 -9 72 -21t66 -30q24 -12 61 -32q23 -13 60 -38q36 -26 75 -60t72 -72q11 -13 31 -41 q4 -5 14.5 -20.5t16.5 -23.5q22 -22 36 -59q13 -34 35 -72q4 -9 11 -16q6 -6 9 -12q3 -10 7 -32t7 -33q14 -43 21 -85q8 -46 8 -111q0 -23 -1 -36q-1 -19 0 -27q5 -32 -13 -64q-18 -33 -2 -70q-20 -22 -20 -52t-8 -60q-2 -6 -10 -16q-9 -10 -12 -18q-7 -17 -17 -38 q-3 -6 -9 -19t-10 -20q-14 -27 -33 -51t-45 -45q-6 -7 -14 -9t-12 -6q-9 -7 -60 -44q-28 -21 -66 -24q-51 -6 -117 -2q-68 4 -115 21q-1 1 -3 4q-2 2 -3 4q-4 6 -6 6q-3 1 -9 0q-6 -2 -11 0l-5 9q-25 14 -39 33q-15 22 -31 35q-31 -4 -60 -27q-28 -22 -65 -33q-11 -5 -25 -6 q-17 -2 -26 -3q-79 -19 -172 -18q-92 1 -178 30q-40 13 -70 46t-65 53q-26 56 -51 104q-26 50 -34 111q-2 28 1 55q1 10 8 66q8 65 19 105q12 45 36 92q6 10 10 15q5 6 10 18q3 6 9 20l6 15q10 14 32 30t39 34q7 7 20.5 19.5t19.5 18.5q19 17 44 32q5 2 8 6q4 6 5 8 q17 8 34 11q19 3 37 9q20 8 34 18q13 9 24 9q18 2 38 -4q23 -7 46 -12q53 -9 105 -26q51 -17 92 -42q22 -4 31 18t26 30q15 7 60 14q47 8 72 6q31 0 56 -3t42 -23q11 -50 6 -102q-5 -60 -13 -107q-2 -11 -3 -18t-3 -12q-2 -10 -3 -14q-2 -8 -2 -14q-5 -41 -7 -91 q-1 -44 -6 -91q-6 -43 -15 -87t6 -87q15 -31 57 -42t77 12q0 3 12 15l14 14q0 6 -1 9q-2 5 0 6q0 1 6 4q2 1 5 3t4 2q5 10 9 27q3 11 11 35q1 2 4 6.5t4 6.5q5 8 5 10q4 12 4 36q0 25 4 45q4 36 12 87t3 101q-8 62 -36 140t-62 119q-12 14 -17 20q-8 9 -12 15q-8 8 -20 11 t-21 9q-8 5 -14 14q-7 10 -15 14q-36 22 -77 38q-49 19 -86 32q-19 9 -42 18q-24 10 -41 11q-34 6 -76 3t-85 -3q-33 0 -99 2q-50 2 -89 -9q-17 -3 -35 -12q-20 -10 -35 -14q-9 -4 -22 -4t-20 -4q-7 -2 -15 -9q-6 -6 -14 -12q-44 -20 -65 -30q-29 -14 -60 -35 q-23 -14 -48 -36q-27 -24 -44 -48q-4 -6 -6 -14t-6 -14q-10 -15 -22 -23q-13 -9 -21 -20q-3 -7 -12 -27q-8 -18 -17 -30q-19 -34 -42 -78q-23 -45 -35 -92q-1 -10 0 -22q2 -12 0 -20q-1 -12 -11 -43t-11 -55q-2 -26 0 -54q1 -19 1 -52q1 -12 8 -30t8 -33q4 -18 1 -39 q-3 -18 -1 -38q8 -24 10 -29q4 -10 12 -28q7 -17 27 -42q25 -33 43 -53q7 -9 20 -21q8 -7 22 -21q11 -13 19 -28q7 -14 15 -22q7 -4 15 -3t15 -3q4 -3 7 -12q3 -10 7 -11q9 -5 26 -7q15 -2 30 -6q7 -3 21 -11q12 -7 21 -8q28 -12 51 -17q32 -8 54 -11q50 -9 125 -16 q67 -6 126 2q21 1 39 9t39 12q15 3 38 6q26 4 38 7q31 10 52 19q24 10 60 18q10 0 14 1q6 2 14 0q12 1 17.5 -3.5t4.5 -14.5q-1 -19 15 -24q1 -12 11 -22q8 -8 15 -20q9 -16 24 -47q14 -28 9 -45q-2 -31 -33 -47q-35 -18 -63 -29q-20 -13 -29 -19q-16 -12 -33 -18 q-11 -2 -24 -3l-27 -3l-60 -20q-40 -13 -69 -17q-23 -1 -54 0t-63 0q-32 0 -57 -4q-29 -5 -56 -3q-19 0 -38 6q-22 7 -39 8q-22 3 -45 0q-24 -3 -38 1q-12 3 -24 9q-8 4 -26 10q-25 9 -51 12q-23 3 -51 11q-33 10 -59 23t-53 33q-9 3 -15 9q-5 5 -15 10q-4 4 -15 7 q-12 3 -18 7q-17 12 -29 24q-9 9 -29 27q-10 7 -32 21q-16 10 -24 21q-5 9 -8 21q-2 11 -11 28l-15 18q-10 12 -14 18l-9 21q-6 14 -10 21q-9 10 -18 18t-11 17q-14 33 -16 78q-1 43 -33 76q10 24 3 43q-8 20 -9 42q-1 10 0 24q1 13 0 25q-5 13 -12 24q-8 11 -3 32zM772 675 q4 -35 21 -81t36 -60q8 -7 22 -8t28 -6q2 0 5 -6t7 -6q14 -4 33 -1q16 3 39 1q17 -2 33 -6t27 -3q20 5 59 27q35 20 46 29q4 3 12 7q4 2 12 8q32 29 38 55q5 22 10 71q3 27 6 51q3 27 2 49v-5q-37 69 -115 107q-80 39 -165 20q-16 -4 -27 -12q-7 -5 -21 -17 q-6 -4 -16.5 -10.5t-12.5 -7.5q-12 -7 -21 -15q-23 -21 -26 -26q-4 -6 -11 -30q-2 -5 -8 -17q-5 -10 -5 -18q-7 -25 -8 -48q-2 -25 0 -42z" />
<glyph unicode="A" horiz-adv-x="1548" d="M65 4q-2 9 -2 17q0 12 4 21q6 15 12 33q4 15 14 30q9 14 15 28q3 7 0 18t0 18q2 3 8 8q1 1 3 2.5t3 2.5l2 1q3 14 2 29q-1 16 5 29q4 15 14 29q6 9 16 29q2 5 5.5 14t5.5 13q4 10 10 30q18 50 36 108q20 64 37 108q8 22 25 70q12 35 27 73l21 63q17 51 20 61q13 44 14 48 q6 23 15 45q3 6 3 14t3 15q1 3 8 3t8 3q5 11 6 24q1 12 8 27q11 28 21 54q11 27 21 61q3 10 7 32q3 18 9 33q5 16 15 32q14 22 20 33q26 56 44 103q21 56 64 90l-7 3q66 12 125 12q13 0 25 -1q25 -1 54 -1q48 0 104 3q23 -22 38 -43q17 -24 36 -51q10 -17 14 -27 q7 -18 15 -38q7 -21 13 -35q10 -23 14 -44q3 -9 3 -18q0 -7 5 -19q13 -41 27 -98q12 -46 29 -102q4 -9 4 -17q0 -6 4 -13q2 -6 7 -12q7 -8 8 -11q10 -29 11 -54q2 -28 12 -53q8 -26 23 -59q16 -36 26 -63q3 -6 7 -20q2 -7 8 -21q7 -18 18 -36q10 -17 19 -43q11 -29 14 -62 q3 -32 14 -66q18 -51 20 -57q10 -32 24 -60q-1 -31 20 -57q22 -26 29 -51q4 -9 4 -21q0 -11 6 -20q20 -45 51 -89q20 -28 20 -63q0 -20 -7 -42q-22 -16 -57 -16h-11q-23 2 -48 2q-17 0 -35 -1q-26 0 -56 -5q-27 -5 -51 -3q-21 36 -43 86q-16 36 -37 93q-18 48 -29 95 q-13 52 -37 92q-139 -16 -273 -18q-129 -1 -284 -3q-26 -18 -35 -51q-8 -29 -23 -66q-6 -9 -12 -17q-8 -9 -12 -18q-16 -44 -26 -84q-10 -43 -39 -75q-17 -1 -36 -17q-17 -14 -41 -19q-8 -1 -15 -1q-13 0 -27 3q-23 5 -45 5h-8q-26 0 -56 -5q-33 -6 -50 20zM561 624 q36 -24 88 -24q11 0 22 1q67 6 134 9h18q28 0 61 -2h11q33 0 54 16l2 -1q-3 58 -22 107q-8 20 -21 55.5t-15 39.5q-1 7 -6 15l-9 15q-4 11 -4 23q0 10 -3 21q-4 11 -14 28q-10 16 -14 29q-2 14 -3 20q-2 12 -3 17q-12 35 -32 78q-19 41 -33 79q-7 0 -10 5q-2 3 -6 3 q-3 0 -7 -1q-2 -8 -7 -11q-6 -3 -8 -11q-8 -19 -21 -39q-14 -20 -20 -41q-6 -11 -6 -27q0 -18 -4 -29q-1 -7 -6 -15l-9 -15q-10 -25 -21 -54q-10 -28 -6 -61q-14 -14 -23 -33t-21 -33v-13q0 -43 -12 -76q-13 -37 -24 -75z" />
<glyph unicode="B" horiz-adv-x="1335" d="M130 140q-1 6 -1 12q0 15 4 29q4 19 6 41q0 38 -5 98q-4 39 -4 80q0 16 1 33v196q0 39 8 84t8 85q0 159 -3 329v31q0 153 27 305q21 17 47 15t60 6q8 1 16 8q8 6 15 6q11 2 27 -3q17 -5 32 -3q13 0 27 8t24 8q23 0 45 -6q21 -6 43 -4q11 1 25 9q12 6 24 7q2 0 3 -1 q27 -4 55 -4q11 0 22 1t22 1q27 0 53 -4q37 -5 75 -21q11 -5 35.5 -16t36.5 -16q12 -4 27 -6q13 -1 25 -8q29 -16 50 -37q22 -22 50 -28q17 -24 39 -41q23 -18 42 -48q11 -20 33 -42t27 -45q1 -8 2.5 -27.5t2.5 -26.5q2 -27 2 -44v-10q0 -13 -6 -22q-5 -8 -10 -22 q-8 -36 -18 -62q-11 -28 -39 -50l-8 6q-16 -64 -65 -99q-45 -32 -88 -77q20 -38 60 -53t72 -42q20 -16 31 -36t27 -51q14 -25 21 -45q7 -17 16 -58q8 -30 8 -62q0 -15 -2 -30q-5 -48 -12 -105q-11 -6 -17 -17l-12 -21q-2 -3 -10.5 -17.5t-12.5 -22.5q-10 -18 -30 -40 q-21 -27 -42 -45q-19 -16 -52 -43q-22 -20 -32 -30q-15 -15 -32 -23q-18 -7 -39 -8q-22 -2 -48 -6q-17 -1 -40 -6q-22 -4 -42 -9q-28 -4 -86 -14q-46 -8 -81 -8h-15q-31 0 -62 6q-39 8 -79 9q-29 1 -56 1q-41 0 -79 -2h-10q-64 0 -109 36q0 29 -14 60q-13 30 -15 57z M385 422q3 -76 14 -174l-1 -1q30 -5 64 -5q37 0 79 6q85 13 135 14t72 14q8 4 26.5 15t28.5 16q13 9 32 15q18 6 26 14q0 5 -1 8q-2 4 0 6q0 2 6 3q7 2 8 3q4 15 6 33q1 12 1 34q0 59 -15 84t-57 54q-6 6 -21 12t-24 12q-12 7 -20 15q-11 11 -15 14q-42 16 -122 21 q-25 2 -46 2q-47 0 -76 -8q-23 -6 -48 -12t-45 -12q-8 -75 -8 -143q0 -20 1 -40zM390 908v-5q0 -24 8 -49h1q31 -6 63 -6q26 0 53 4q49 7 104 17q15 3 40 7q21 3 33 9q7 2 11 9q5 8 12 14q7 5 55 41q24 18 39 48q27 53 30 99v13q0 40 -15 83q-9 22 -18 32t-18 18q-4 4 -7 4 t-7 4q-12 8 -25 21t-20 14q-9 4 -27 4q-19 0 -32 4q-22 6 -32 9q-15 4 -27 6q-7 1 -14 1q-17 0 -34 -4q-23 -5 -48 -6q-32 -3 -62 0q-29 3 -55 -14q-8 -50 -8 -98v-11q1 -38 1 -109v-103q0 -38 -1 -56z" />
<glyph unicode="C" horiz-adv-x="1328" d="M103 595q1 42 1 123v90q0 41 5 86q1 2 11 36t11 36q6 23 9 46t11 41q27 51 41 82q20 42 44 73q2 8 2 9q0 3 3 5q7 9 21 21q9 8 27 26q11 13 21 30t24 30q10 13 29 24q17 10 31 24q15 15 26 29t26 23q4 3 23 10q5 2 10 3.5t11 3.5l9 3q34 15 84 32q56 19 92 20h5 q8 0 22 -2q16 -3 36 -3q60 -1 95 -11q29 -8 89 -29q48 -19 82 -37q35 -19 76 -54q34 -32 47 -57q5 -8 5 -19q0 -22 -20 -55q-2 -7 -9 -11t-9 -11q-7 -10 -23 -30q-15 -19 -31 -36q-12 -12 -18 -19q-9 -11 -22 -12q-20 -2 -45 19t-41 27q-14 7 -30 12t-30 9q-16 6 -30 12 t-21 6q-32 6 -63 6q-47 0 -89 -14q-70 -23 -110 -57q-11 -10 -30 -29q-13 -14 -27 -36q-7 -8 -8 -14t-5 -11q-11 -13 -22 -21q-13 -9 -18 -19q-2 -2 -7 -12q-4 -8 -6 -14q-10 -21 -11 -31q-1 -12 -9 -42q-9 -33 -14 -53q-10 -41 -14 -66q-2 -17 0 -38t0 -41q0 -16 -3 -33 q-3 -18 -2 -32q0 -21 13 -59q12 -33 19 -65q7 -34 18 -58q10 -22 29 -48l6 -2q8 -12 21 -23t24 -29q34 -10 56 -22t62 -22q37 -11 76 -11q44 0 92 14q87 25 152 56q39 17 74 38q33 20 57 39q47 -32 86 -74q40 -43 71 -89q-23 -56 -69 -89q-50 -36 -94 -63q-24 -13 -59 -30 q-31 -15 -60 -36q-33 0 -59 -16q-27 -17 -55 -24q-13 -4 -33 -4q-12 0 -38 -2q-34 -3 -64 -3h-15q-36 1 -84 9q-36 6 -55 10q-28 6 -45 12q-38 11 -73 31q-24 14 -72 40q-10 5 -24 9t-21 9t-15 17q-9 13 -18 23q-10 9 -27 26q-12 12 -27 33q-20 32 -36 57t-33 75q-1 4 0 12 q2 8 0 14q-2 8 -12 20t-15 26q-2 10 -3 22q-1 14 -6 24q-6 37 -6 90v15z" />
<glyph unicode="D" horiz-adv-x="1335" d="M84 761q6 168 6 334v48v36q0 163 8 315q46 26 102 26q16 0 34 -2q69 -9 146 -9h16h108q53 0 117 -8q17 -1 36 -6q30 -7 36 -8q41 -7 63 -12t54 -18q17 -6 46 -18q21 -9 48 -23q14 -10 20 -15q12 -10 19 -14q45 -25 90 -48q44 -22 72 -50q23 -24 41 -61t36 -80 q3 -6 8.5 -19.5t7.5 -18.5q8 -20 15 -41q4 -9 4 -24q0 -13 3 -25q3 -10 9 -18q7 -8 8 -15q5 -32 5 -61v-10v-16q0 -25 2 -55q3 -23 14 -60q11 -36 11 -69q0 -20 -12 -48t-12 -56q0 -12 5 -20q4 -8 3 -15q-2 -11 -12 -29q-11 -18 -18 -36q-18 -48 -44 -93q-26 -46 -57 -92 q-22 -28 -43 -51q-25 -28 -51 -54q-4 -4 -12 -7t-12 -7q-2 -4 -17 -24q-13 -17 -22 -24q-6 -2 -14 -6q-2 -1 -17 -7q-18 -11 -40 -21q-23 -10 -37 -30q-41 -3 -83 -21q-39 -17 -95 -28q-48 -8 -111 -8q-62 0 -129 -8q-17 -2 -29 -7q-14 -6 -27 -6q-6 0 -36 2q-15 1 -43 5 q-19 2 -32 6q-14 5 -30 6q-32 5 -57 5q-9 0 -17 -1q-29 -2 -50 25q-17 21 -17 69v5q0 26 0.5 51.5t-0.5 50.5q-2 126 -10 264q-6 106 -6 185q0 35 1 65zM371 341q0 -31 18 -57q11 -3 23 -3q20 0 40 9q32 14 46 15q25 5 59 7t59 7q25 4 52 20q4 2 22 13t27 16q11 4 24 9 q15 5 23 9q26 16 39 33t30 36q41 55 65 113t27 135q1 14 1 31q0 45 -6 110q-8 86 -24 132q-21 55 -43 96q-24 44 -58 72q-5 3 -12 3q-8 0 -12 4q-15 11 -31 27q-15 15 -32 21q-14 5 -29 8q-22 4 -32 6q-60 11 -118 12q-62 2 -124 3l-2 10q-9 -3 -14 -8q-4 -4 -9 -14 q-8 -37 -8 -81q0 -13 1 -27q2 -29 1.5 -53t-1.5 -43v-35q1 -53 9 -117q6 -49 14 -103q0 -4 -5 -7q-4 -3 -3 -7q1 -23 1 -46q0 -68 -7 -133q-9 -87 -9 -159z" />
<glyph unicode="E" horiz-adv-x="1187" d="M95 1209q0 12 -0.5 23.5t0.5 24.5q1 25 0 46q-1 6 -1 11q0 17 5 34q6 22 4 58q0 12 -3 26q-3 13 2 24q8 17 24 35t36 24q16 7 52 7h17q14 -1 27 -1q32 0 59 4q8 0 12 4t8 4q2 0 4 -1q8 0 17 -6q10 -7 19 -8q42 -6 96 -6h104q24 -1 48 -1q60 0 117 4q31 2 62 2 q50 0 100 -5l-12 -4q34 -2 52 -3q28 -2 44 -21q1 -47 14 -105q6 -27 6 -52q0 -27 -7 -52q-72 -26 -172 -26h-7h-42q-83 0 -162 -3h-27q-55 0 -110 6q-14 1 -28 1q-54 0 -107 -21q-8 -34 -8 -77q0 -23 2 -50q4 -38 4 -68t-4 -53q33 -20 77 -20q12 0 26 2q38 5 77 5 q24 0 49 -2q35 -1 66 -6q16 -2 34.5 -2.5t39.5 2.5q15 0 32 5q15 4 27 0q15 -2 39 -21t30 -36q0 -1 -2 -15q-1 -10 3 -15q12 -13 4 -34t-12 -46q-4 -21 -1 -44q3 -21 -14 -36q-14 -5 -29 -5q-18 0 -39 7q-36 12 -71 12q-19 1 -40 -3q-23 -5 -43 -5q-59 -5 -120 -6 q-62 -2 -116 -15q-5 -37 -5 -77q0 -31 3 -64q8 -78 9 -157q0 -34 -3 -68t3 -63q11 -14 32 -9q19 4 42 4q61 0 130 3t136 3q41 0 74 -4q27 -4 53 -4q10 0 21 1q59 1 114 8q5 1 10 1q41 0 59 -45q4 -12 4 -27q0 -9 -1 -18q-4 -26 -9 -57q-4 -22 -6 -50q-1 -26 -17 -43 q-23 -15 -50 -8q-29 8 -54 8q-24 -1 -54 -8q-27 -6 -54 -6q-28 0 -63 5q-34 5 -63 2q-32 0 -57 -4q-21 -4 -42 -4q-9 0 -18 1q-23 0 -47 6q-27 7 -48 8q-18 0 -41 -3t-42 -6h-29q-44 0 -91 2q-41 2 -113 8q-20 13 -27 39q-7 25 -12 53q-7 49 -7 99q0 39 4 78q11 94 11 185 q0 82 -4 149t-4 149q0 46 5 103q4 36 4 72q0 14 -1 29q-1 49 -8 107q-6 52 -6 105z" />
<glyph unicode="F" horiz-adv-x="1024" d="M96 285q2 84 3 125q5 89 5 193q0 93 -4 198q-5 112 -5 217q0 94 4 183q2 30 2.5 59.5t-2.5 60.5q-1 10 -1 20q0 50 22 90l30 10q11 4 32 4q17 0 32 -6q16 -7 32 -8q20 0 47 3q37 4 51 5q24 1 57 8q30 6 54 6q20 0 37 -4t39 -4l5 7q89 0 203 6q11 1 22 1q98 0 157 -49 q5 -34 5 -69v-12q-1 -43 -6 -79q-27 -22 -63 -24q-22 -1 -75 -5q-32 -1 -75 -8q-39 -6 -79 -6q-83 0 -126 1h-7q-60 0 -111 -15q-7 -32 -8 -57q-1 -28 3 -57q2 -17 6 -33q5 -17 6 -31q0 -24 -7 -45t-7 -48v-11q0 -30 9 -60q10 -36 12 -74q26 -12 59 -7q32 4 66 6q29 2 59 0 q20 -1 59 -1q25 -1 48 -1q34 0 63 2h11q48 0 87 -23q9 -55 9 -126v-27q-1 -88 -56 -106q-31 0 -62 7t-64 7q-25 0 -49 -7t-48 -7q-34 0 -108 2h-6q-51 0 -90 -30q0 -117 5 -219q2 -46 2 -101.5t-2 -120.5q-44 -35 -127 -44q-21 -2 -41 -2q-57 0 -102 19q-16 27 -9 57 q8 32 8 60q0 5 -3 24q-5 31 -5 33q-4 36 -4 78q0 17 1 35z" />
<glyph unicode="G" horiz-adv-x="1471" d="M60 799q-1 22 -1 43q0 32 2 62q3 58 13 96q4 18 17 42q12 22 21 45q8 23 21 62q9 27 28 52q6 8 10 11q7 5 11 12q10 12 18 27q8 16 18 29q4 8 15 12q11 5 15 10q3 5 7 17q3 9 7 13q28 37 60 55q34 19 83 41q2 1 10.5 4.5t13.5 5.5q9 4 27 10q39 19 107 31q66 12 123 21 q23 3 48 3q69 0 150 -24q107 -32 183 -74q29 -16 53 -33q27 -19 48 -40q30 -27 51 -52q22 -27 21 -49l8 3q-3 -25 -11 -27q-7 -1 -24 -23q-41 -24 -68 -59q-26 -33 -82 -33h-3q-44 0 -59 21q-16 22 -42 44q-4 4 -10 4q-5 0 -11 2q-34 33 -92 60q-47 22 -109 22q-13 0 -28 -1 q-13 -1 -35 -3q-20 -1 -30 -6q-16 -1 -29 -11t-29 -17q-54 -21 -59 -23q-25 -9 -50 -36q-8 -8 -14 -20q-7 -14 -16 -23q-22 -23 -53 -54q-19 -19 -33 -68q-3 -14 -7 -42q-3 -24 -9 -50q-5 -25 -5 -54q0 -26 4 -54q7 -45 16 -123q5 -34 14 -87q7 -41 23 -80q32 -73 91 -126 q69 -62 118 -101q64 -4 120 -20q22 -6 46 -6q32 0 66 12q2 0 6 6l6 9q2 0 10 -2q5 -1 13 2q78 35 128 122q49 87 66 177q-18 21 -44 21q-18 0 -50 2q-17 2 -35 2q-30 0 -63 -5q-22 -3 -42 -3q-30 0 -55 7q-40 31 -40 88q0 7 1 14q4 67 32 114q45 10 91 10q22 0 44 -2 q75 -8 137 -8q72 0 150 8q18 2 35 2q54 0 104 -17q26 -45 30 -112q2 -32 2 -64q0 -38 -3 -75q0 -14 -5 -32q-3 -11 -9 -35q-2 -20 -2 -33q0 -20 -4 -32q-5 -14 -12 -26q-7 -14 -12 -27q-4 -13 -6 -29q-1 -15 -8 -26q-2 -7 -9 -11q-8 -5 -12 -12q-5 -7 -5 -18q0 -13 -4 -17 q-7 -16 -29 -33q-21 -17 -36 -33q-17 -18 -36 -47q-17 -26 -45 -46q-4 -4 -7 -4t-7 -4q-10 -10 -42 -22q-10 -4 -29.5 -11t-29.5 -11q-60 -23 -143 -38q-53 -9 -107 -9q-33 0 -66 3q-16 1 -33 6t-33 6q-17 4 -38 4q-20 0 -35 4q-10 1 -26 11q-20 12 -31 17q-45 18 -59 25 q-25 12 -57 33q-4 3 -14 7t-14 7q-2 0 -3 6q-2 7 -4 8q-41 17 -84 69t-75 96q-22 32 -33 51q-10 18 -25 64q-22 77 -45 186t-27 204z" />
<glyph unicode="H" horiz-adv-x="1453" d="M87 115q0 12 8 30t8 33q0 19 -3 40t-3 42q0 17 3 35t3 39q0 14 -5 36q-4 20 -3 39q0 19 6 40q7 24 8 40q1 26 5 87q2 38 2 74v24q0 17 -5 42q-5 22 -3 42q0 19 6 37q7 20 8 37q0 19 -4 36t-4 39q0 21 4 40t4 40q-1 18 -8 40q-6 19 -6 42q-1 15 3 34q5 22 5 40q0 4 -5 12 q-5 7 -3 18q0 2 3 11t3 20q-3 62 -6 105v13q0 37 14 73l8 -6q19 52 110 52q85 0 162 -8q8 -7 13 -21q3 -9 9 -29q1 -3 10 -27q6 -16 6 -24q2 -26 -6 -51t-9 -51q-1 -19 -1 -38.5t1 -38.5q0 -20 0.5 -39.5t-0.5 -39.5q-5 -84 -15 -171q-3 -25 -3 -48q0 -59 18 -111 q26 -14 56 -14q14 0 28 3q50 10 93 11q87 4 198 4q99 0 180 26v33v34q-1 18 -1 35.5t1 36.5q1 34 1 71.5t-1 78.5q-1 54 -1 159q-1 27 0 57q2 31 6 56q6 30 8 44q3 21 22 36q23 7 48 3t54 -3q33 1 80 3h7q38 0 67 -19q15 -46 15 -94q0 -25 -4 -50q-13 -80 -17 -151 q-1 -26 0 -51q1 -17 1 -54v-65q-2 -134 -2 -198q0 -102 -7 -171q0 -21 -3 -37t-3 -37q0 -10 5 -18t2 -27q0 -23 -3 -47t-3 -47q-1 -13 -5 -48q-3 -26 -3 -48q1 -27 11 -67t11 -72v-30q2 -22 -4 -53q-6 -34 -12 -44q-5 -7 -24 -11t-21 -20q-50 6 -104 6h-16h-11q-56 0 -96 18 q-6 114 -9 235q-3 122 -15 237q-29 17 -59 5q-31 -13 -59 -14q-45 -3 -91 -3h-23h-23q-46 0 -92 -3q-47 -5 -84 -13q-45 -10 -80 -11q-16 -33 -16 -70q0 -12 2 -25q6 -41 6 -89v-24v-198q-13 -6 -21 -15t-24 -15q-15 -7 -31 -6q-17 2 -36 -3q-5 0 -9 -6t-14 -9q-9 -2 -17 1 q-9 3 -18 0q-16 -1 -35 -5q-8 -2 -17 -2q-6 0 -13 1q-37 4 -62 26q-16 14 -43 41q7 22 0 48q-8 27 -8 49z" />
<glyph unicode="I" horiz-adv-x="512" d="M82 218q9 87 9 171q0 43 -4 75q-4 26 -4 51q0 10 1 21q0 24 6 49q7 29 8 49q0 19 -4 36t-4 36v132q0 11 4 18t4 18q-8 85 -8 195q0 46 1 96q5 167 6 286q19 17 46 17q10 0 20 -2q43 -8 81 -8q12 0 24 3q15 4 26 5l7 2q25 2 54 3h3q26 0 45 -17q2 -28 2.5 -59t-2.5 -66 q-6 -92 -9 -137q0 -23 2 -67q1 -9 1 -19q0 -23 -4 -46q-1 -30 -9 -63q-2 -10 -2 -21q0 -23 12 -44q-18 -57 -18 -132q0 -42 6 -90q13 -100 13 -180q0 -28 -2 -54q-1 -60 -3 -137q-2 -96 -2 -144q0 -20 5 -42q5 -19 0 -42q-2 -17 -12 -29q-9 -11 -16 -29q-35 -19 -73 -19 q-8 0 -17 1q-47 5 -99 9q0 1 -7 -3t-13 -3q-3 0 -10 2t-11 3q-13 3 -30 9q-25 62 -25 129q0 18 2 37z" />
<glyph unicode="J" horiz-adv-x="882" d="M82 344q49 19 86 38q15 6 26 14t26 14q18 4 21 -12t14 -29q7 -11 21 -18t21 -18q7 -8 8 -15q2 -8 6 -14q13 -12 38 -30q22 -16 56 -18q13 -2 36 -6t42 -3q21 5 36 18t35 18q12 28 12 57v8v18q0 28 4 57q1 7 8 17q6 9 6 17q0 14 -4 26t-4 26q1 21 8 65q6 39 6 76 q0 18 -3 37t-3 39q0 41 5 89q3 21 3 43t-3 44q0 26 -6 51q-7 28 -8 48q0 5 4 9t4 12l-3 18l-5 30q-2 15 -2 40q0 18 1 42q2 29 2 60q0 20 -1 42q0 24 -2 72v14q0 29 3 56l8 2q40 21 93 35q28 8 57 8l53 -7q23 -49 29 -102q7 -60 8 -110q0 -53 -8 -115t-8 -120q0 -72 9 -146 q6 -53 6 -104q0 -23 -1 -45q-4 -56 -14 -122q-9 -60 -9 -117q0 -27 5 -57q4 -27 3 -55q-7 -81 -45 -147q-32 -57 -64 -122q-12 -10 -27 -15q-15 -4 -29 -14q-8 -5 -12 -12t-9 -9q-8 -6 -17 -5q-9 2 -20 -3q-38 -14 -66 -23q-36 -11 -72 -11q2 0 -1 5q-3 4 -7 0q-3 -6 -16 -6 q-17 0 -49 10q-59 17 -77 24q-24 8 -44 18q-23 12 -42 25q-7 4 -19 14t-19 14q-24 16 -46 25t-33 25q-10 10 -19 33q-12 30 -19 45q-7 16 -20 41q-10 19 -10 31q0 39 57 60z" />
<glyph unicode="K" horiz-adv-x="1215" d="M68 681q0 55 7 101t7 99q0 42 -5 92q-1 9 -1 18q0 36 16 74q-10 21 -12 50q-1 8 -1 17q0 22 4 49q1 14 8 31q6 15 6 27v8q0 38 -8 82q-2 12 -2 24q0 32 18 58q13 13 38 16q32 4 47 5q40 8 87 12q7 1 14 1q38 0 70 -19q4 -76 4 -151v-50q-1 -25 -1 -52q0 -81 5 -176 q25 -12 37 11q13 24 27 41q5 5 12 6t12 8q9 12 14 24q6 13 15 24q10 13 21 21t21 18q0 14 6 24q7 12 8 24q11 11 29 24t29 28q2 6 3 10q2 8 3 11q7 10 20 18q12 7 18 18q5 9 10 22t10 22q27 29 60 51q32 22 49 60l-12 -5q36 -2 67.5 -2.5t58.5 2.5h12q48 0 83 -29 q1 -7 1 -14q0 -48 -37 -81q-40 -36 -70 -75q-4 -5 -4 -9t-4 -5q-2 -4 -9 -12t-12 -15q-7 -13 -12 -24q-6 -14 -10 -21q0 -2 -6 -3q-6 -2 -8 -5q0 -3 1 -6q2 -4 0 -6q0 -2 -6 -3l-8 -2q0 -6 1 -9q1 -4 0 -6q-2 -7 -9 -8q-8 -2 -9 -6q-4 -4 -4 -10q0 -7 -4 -12 q-15 -19 -32 -38q-19 -20 -32 -39q-4 -5 -4 -8q0 -2 -4 -6t-7 -12t-7 -12t-16 -19q-3 -4 -7.5 -9t-7.5 -9t-5 -7q-30 -36 -61 -76q-30 -39 -54 -81q19 -36 47 -72q29 -36 53 -71q7 -13 23 -24q15 -11 27 -24q7 -7 8 -15q2 -9 6 -15q12 -13 25 -24q15 -12 27 -24q4 -6 3 -12 t3 -10q1 -1 8 -3t8 -3q7 -10 8 -17q2 -8 6 -12q24 -26 36 -38q20 -20 35 -43q5 -6 9 -15q5 -10 6 -13q12 -13 32 -25q16 -9 34 -24q8 -10 24 -32q8 -11 26 -33q27 -32 52 -57q28 -28 48 -63q6 -9 35 -36q24 -23 24 -45q0 -3 -1 -6q-9 -49 -88 -49q-14 0 -29 1q-76 7 -132 7 q-22 0 -42 -1q-39 32 -75 63q-38 33 -68 72q-16 22 -23 33q-11 16 -27 33l-7 7q-1 1 -7 9q-16 26 -50 66q-37 44 -56 69l-15 27q-7 13 -21 24t-26 32q-14 25 -23 45q-29 20 -47 51t-39 57q-21 -20 -21 -47q0 -6 1 -13q6 -36 6 -68q0 -17 -3 -35q-4 -24 -5 -37q0 -34 4 -65 t4 -72q0 -32 -4 -59t-4 -56q0 -22 0.5 -42t-0.5 -36q-1 -32 -36 -58q-27 0 -54 -7t-52 -7q-20 0 -38 6q-20 7 -35 8q-19 2 -36 -4q-18 -6 -30 10q-4 24 -4 47q0 26 5 50q7 38 7 79v18q-2 26 -6 50t-3 57v22q1 16 8 32q6 15 6 32q1 10 1 21q0 26 -4 56q-4 37 -4 89v69 q-1 12 -5 36q-3 18 -3 35z" />
<glyph unicode="L" horiz-adv-x="1089" d="M101 66v71v30q0 104 6 207q7 118 9 240q1 135 8 312q6 159 6 310q0 64 -6 138q-1 18 -1 35q0 54 14 97l-3 -6q6 10 10 14q5 5 15 10q50 -10 99 -11q52 -1 99 -12q14 -9 16 -23q1 -14 6 -27q5 -9 13 -27t11 -27q6 -29 9 -61q4 -44 6 -65v-15q0 -66 -8 -145q-3 -29 -3 -56 q0 -51 11 -96q8 -30 8 -82q0 -24 -2 -52q-5 -100 -5 -149q0 -88 6 -174q2 -29 2 -59q0 -60 -8 -124q19 -17 48 -15t57 0q50 -3 107 -3h28q96 2 146 2q25 1 82 5q7 1 14 1q33 0 60 -12q17 -39 23 -105q2 -20 2 -38q0 -43 -10 -79q-1 -34 -33 -37t-41 -29q-37 -8 -79.5 -7.5 t-90.5 7.5q-61 10 -125 10q-34 0 -69 -3q-13 -2 -37 -8q-18 -5 -37 -6q-17 0 -30 4t-30 4q-23 0 -47 -8t-42 -8q-7 -1 -15 -1q-18 0 -35 4q-27 5 -45 5q-22 0 -45 -6t-44 7q-30 25 -30 63z" />
<glyph unicode="M" horiz-adv-x="1704" d="M75 1084q0 9 4 17t4 17q0 11 -4 15t-4 15q0 9 4 17t4 19q-4 39 -4 95q0 28 1 61q3 98 9 168q33 27 83 27q23 0 51 -6q51 -10 90 -10q28 0 50 5q19 -16 39 -31q18 -13 32 -34q14 -22 20 -45q7 -27 16 -47q5 -12 14 -24q8 -11 14 -26q4 -9 10 -27q8 -24 10 -29l27 -51 q13 -26 30 -48q5 -46 24 -90q21 -46 32 -87q4 -12 4 -26q0 -13 4 -24q1 -11 6 -21l9 -21q2 -11 6 -21q6 -14 9 -22q6 -22 23 -60q13 -30 25 -66q10 -30 15 -44t13 -42q5 -16 7 -32q2 -18 7 -39q1 -4 8 -9q6 -4 6 -6l7 -21q1 -3 3 -10t4 -12q3 -7 7 -21q3 -10 15 -15 q14 14 20 41q5 22 14 53l15 45q6 17 13 48q15 58 30 123q14 60 35 123q7 25 12 49q7 29 16 51q0 4 6 9l8 6q2 7 0 15q-1 7 0 13q10 39 18 72q8 34 15 79q7 32 12 53q7 29 16 54q5 12 12 24q7 11 12 26q5 18 3 39t3 39q1 7 6 12t6 15q5 10 3 15q-1 4 5 12q29 48 67 48 q4 0 9 -1q32 -4 91 -4h42q53 0 92 6q20 3 35.5 3t27.5 -3q10 -1 34 -18q22 -15 30 -23q2 -6 0 -29q-1 -22 5 -29q8 -11 3 -24q-4 -12 -4 -34q1 -56 11 -107q5 -29 5 -67q0 -25 -2 -54q0 -6 -3 -15l-3 -9q0 -15 7 -26t7 -22q0 -17 -3 -36l-5 -35q0 -32 3 -60q4 -36 5 -62 q0 -15 -4 -27t-4 -30q0 -24 4 -45t4 -47q0 -27 -4 -48t-4 -44q1 -25 11 -51t11 -48q0 -13 -4 -24t-4 -26q0 -13 4 -22t4 -21q0 -17 -4 -29t-4 -27l4 9q1 -77 11 -163q5 -47 5 -90q0 -34 -3 -66q-11 -16 -33 -17q-23 -2 -45 -6q-38 -6 -87 -12q-16 -2 -32 -2q-32 0 -64 8 q-6 2 -14 0t-14 0q-8 5 -14 18q-6 14 -22 18q3 40 3 79.5t-3 77.5q-6 77 -6 150q0 111 9 222q2 28 2 56q0 81 -19 161q-23 -8 -24 -36l-3 -57q-26 -31 -33 -87t-21 -111q0 -7 -6 -14q-7 -8 -8 -15q-7 -55 -23 -117q-15 -59 -33 -111q-12 -32 -21 -72t-21 -78q-5 -6 -3 -14 q2 -10 2 -14q-7 -28 -47 -43q-39 -15 -87 -15q-34 0 -63 7t-63 7q-19 0 -39 -6t-36 6q-22 6 -28 32q-5 23 -14 47q-14 31 -30 63q-14 27 -28 65q-3 8 -7 22t-7 21q-28 71 -52 126q-28 64 -54 129q-6 19 -17 42t-17 42q-8 19 -12 45q-5 26 -25 39q-18 -18 -12 -47t6 -53 q-1 -25 -8 -57q-6 -28 -6 -57q0 -17 3 -32t3 -31q1 -27 -3 -54q-4 -24 -4 -55q-2 -42 -2 -65t2 -63q1 -13 5 -39q3 -18 1 -38q-1 0 -3 -1q-3 -1 -3 -7v-29q0 -28 -14 -44q-23 -12 -51 -5q-29 8 -54 6q-58 0 -99 -4q-5 -1 -11 -1q-39 0 -60 34q-12 235 -15 489q-4 325 -7 492 z" />
<glyph unicode="N" horiz-adv-x="1563" d="M95 182q2 80 2 121q0 38 0.5 76.5t-0.5 77.5v24q0 66 9 131q2 20 0 63v43v42q0 32 6 65q7 37 8 67q2 56 3 114t3 111q0 19 -4 36q-4 19 -3 36q0 71 3 144q3 74 45 116q35 8 70 8l38 -2q55 -8 95 -21q34 -11 54 -23q19 -11 38 -39q4 -7 11 -20.5t8 -14.5q9 -16 23 -35 q32 -44 66 -96q33 -50 74 -96q34 -40 69 -93q33 -50 72 -97q0 -2 6 -3q7 -2 8 -3q1 -7 8 -15q6 -7 12 -18q5 -6 3 -14q-2 -7 5 -14q6 -10 17 -18t17 -18q10 -14 14 -21t14 -21q13 -13 19 -18q10 -9 17 -18q11 -17 15 -33t15 -30q6 -14 20 -26q13 -12 24 -24q24 -38 35 -56 q15 -25 41 -49q18 7 16 29q-2 28 -2 33q0 27 -1 40q-2 19 0 39q1 21 8 48q6 24 6 50v16q0 32 -3 66q-5 42 -6 84q-1 118 -6 250q-2 66 -2 128.5t2 121.5q13 11 35 13q24 2 41 7q17 4 37 12t42 12q18 2 38 2q31 0 66 -5q56 -7 72 -45q5 -10 5 -22q0 -9 -3 -20q-7 -29 -8 -49 q-2 -18 -3 -26l-3 -24q-10 -63 -10 -137q0 -46 4 -97q8 -90 8 -178q0 -40 -2 -79q0 -38 -6 -75q-7 -42 -8 -75q0 -36 4 -65t4 -63q0 -35 -4 -60t-4 -59q2 -61 6 -123q2 -31 2 -60t-2 -56l2 -8q-4 -32 -12 -66q-8 -36 -25 -60q-37 -13 -86 -18q-24 -2 -50 -2t-54 2 q-39 1 -63 11q-23 9 -42 37q-8 14 -24 30t-30 33q-2 6 -2 10q0 6 -4 10q-9 9 -16 15q-10 9 -21 21q-7 7 -7 18q0 10 -6 16q-6 7 -15 12q-9 4 -13 10q-27 32 -44 57l-39 57q-8 9 -22 27l-21 27l-45 51q-33 38 -47 54q-5 7 -17 21t-17 22q-7 11 -26 30q-17 17 -30 35 q-5 5 -5 10q0 6 -4 10q-5 7 -26 28q-18 18 -30 36q-3 5 -29 40q-16 22 -33 42l-39 60q-19 29 -54 46q-21 -54 -21 -112v-5q1 -31 1 -64.5t-1 -69.5q0 -18 -1 -26q-2 -12 0 -30q2 -11 2 -24q0 -19 -4 -43q-6 -39 -6 -79q1 -13 5 -30q3 -13 3 -27t-6 -29q-7 -17 -8 -27 q-2 -16 3 -36t3 -36q0 -50 -6 -101q-6 -53 -28 -95q-45 -15 -103 -15q-13 0 -26 1q-76 5 -111 34q-3 46 -3 94v24z" />
<glyph unicode="O" horiz-adv-x="1564" d="M55 567q-3 20 -3 40.5t3 42.5q2 16 10 81q0 22 3 43t3 40q0 7 -8 15t-8 12q0 5 3 15q1 3 2.5 9t2.5 8q1 18 11 42q2 5 17 41q18 47 23 60q13 35 27 62q3 5 7.5 14.5t9 17.5t8.5 15l27 48q15 25 26 47t26 42q6 11 17 17t20 17q20 21 30 36q11 15 38 32q4 4 8 4q3 0 7 4 q23 20 68 38q36 15 81 35q4 1 10 9q4 5 11 12q13 6 29 9q13 3 38 11q20 6 38 12q22 7 50 9q22 0 45 0.5t46 -0.5q47 -1 87 -9q28 -6 50 -14q33 -13 54 -20q15 -7 28 -11q14 -4 30 -11q14 -4 27 -15q16 -13 25 -17q18 -8 33 -11q17 -3 27 -9q5 -2 8 -9t8 -9q4 -4 11 -4t11 -4 q34 -26 66 -66q14 -18 62 -78q18 -27 26 -44q9 -18 24 -51q4 -11 12 -18q7 -7 12 -17q8 -18 13 -47q5 -30 9 -50q12 -45 22 -102q9 -52 9 -101q0 -16 -2 -54q-1 -21 -5 -54q-4 -52 -12 -99t-18 -93q-9 -39 -23 -78q-13 -38 -31 -68q-1 -3 -6 -13t-9 -14q0 -1 -6 -3 q-7 -2 -8 -3q-5 -11 -9 -18q-2 -3 -6 -9.5t-6 -9.5l-1 2q-16 -16 -26 -31q-14 -22 -27 -38q-25 -4 -39 -23q-14 -18 -35 -32q-11 -6 -33 -13q-13 -4 -39 -14q-15 -5 -33 -17t-33 -17q-36 -13 -75 -21q-38 -7 -73 -24q-16 2 -30 2q-24 0 -45 -6q-33 -10 -66 -10h-9 q-19 0 -41 6q-27 8 -54 9q-57 1 -96 3t-81 21q-6 3 -16 12q-9 7 -15 12q-28 17 -68 44q-34 23 -66 53q-9 8 -21 23q-11 15 -24 23q-13 11 -28 22q-17 12 -24 19q-6 7 -8 17t-6 18q-7 9 -32 34q-21 21 -27 35q-16 27 -23 68q-7 40 -23 75q-7 15 -14 23t-8 18zM343 747 q0 -26 4 -47q5 -25 18 -44q5 -26 0 -50t0 -47q1 -11 14 -23q11 -11 16 -24q8 -16 13 -36q5 -19 10 -28q7 -7 19 -16q11 -8 18 -17q36 -38 57 -59q30 -31 62 -44q58 -8 92 -24q36 -17 93 -17q25 0 36 6q11 7 23 8q15 4 35 4q19 0 31 4q16 6 39 24q28 22 43 32q46 33 66 51 q20 19 44 63q21 40 27 74q7 36 8 89q4 40 4 76q0 15 -1 29q-1 33 -3 101q0 34 3 63q1 10 1 20q0 16 -3 31q-6 50 -36 96t-45 90l-3 5q-57 41 -111 78q-46 32 -122 32q-12 0 -25 -1q-20 -2 -47 -9q-26 -7 -50 -12q-48 -12 -78 -27t-60 -33q-42 -25 -60 -42q-17 -15 -43 -54 q-14 -18 -26 -35q-12 -18 -18 -33q-8 -22 -10 -47q-2 -23 -6 -44q-1 -4 -8 -13q-6 -7 -6 -15q-6 -32 -12 -69q-4 -25 -4 -46q0 -10 1 -20z" />
<glyph unicode="P" horiz-adv-x="1282" d="M81 467q0 17 5 37t5 37q0 44 -6 89q-5 32 -5 66q0 11 1 23q1 16 8 40t8 40q5 43 5 88q0 15 -1 30t-1 30q0 45 5 88q2 3 6 8q6 7 0 12q-9 8 -5 12q5 5 5 18q2 22 -4 43t-4 54q0 29 6 59q7 33 8 60q2 22 2 45q0 35 -4 74q-1 13 -1 25q0 48 18 92q33 16 74 16h9h11 q39 0 74 6q19 4 53 4q14 0 30 -1q74 -2 93 -2q5 0 10 4t12 4q14 -1 27 -11t26 -11q35 -6 92 -6t99 -9q11 -2 20 -9t23 -12q14 -6 30 -4t29 -4q4 -1 13 -9q9 -7 18 -12q25 -15 60 -30q33 -14 59 -29q13 -10 38 -35q19 -19 41 -39q46 -44 68 -69q25 -29 42 -78q2 -18 2 -30 q0 -18 4 -30q3 -13 9 -25t6 -20q0 -17 0.5 -34.5t-0.5 -35.5q-2 -36 -6 -72q-1 -12 -8 -27t-8 -27q-8 -32 -12 -51q-4 -17 -17 -45q-12 -20 -21 -38q-8 -15 -24 -36q-28 -32 -58 -60q-33 -32 -69 -57q-4 -3 -16 -11.5t-19 -13.5q-17 -13 -46 -25q-41 -19 -64 -26 q-24 -7 -78 -19q-20 -4 -40 -12q-23 -9 -33 -11q-21 -2 -39 4q-20 6 -41 6l-12 -5q-15 -5 -26 -5q-10 3 -14 6q-5 3 -15 3l4 -7q-27 -1 -59 -11q-18 -5 -38 -5q-13 0 -27 2q-11 -14 -8 -29q3 -17 2 -30q-6 -16 -9 -23q-5 -12 -5 -21q-4 -37 -4 -81t-4 -81q-3 -19 0 -55 t-6 -63q-5 -17 -25 -26q-23 -10 -34 -11q-34 -10 -70 -10q-25 0 -52 5q-62 12 -107 26q-10 27 -10 53q0 12 2 24q8 42 8 77v14q0 50 -6 101q-8 59 -9 114zM388 925q0 -10 6 -14q7 -5 8 -15q1 -11 -5 -24t-5 -20q5 -22 13 -40q8 -17 18 -34l6 -3q43 0 87 3q61 4 89 7 q25 1 84 5q45 3 78 16q7 4 24 18l33 27q12 11 34 33q16 16 24 33l6 3q6 3 8 5q2 7 6 17t9 18l9 27q5 13 6 19q4 24 4 45q0 44 -16 77q-22 48 -39 84q-5 14 -21 21t-24 9q-6 5 -14 17q-7 12 -17 12q-63 10 -134 15q-36 2 -70.5 2t-67.5 -2q-20 0 -62 2h-6q-28 0 -51 -18 q-9 -31 -9 -61q0 -8 1 -17q3 -40 3 -83q-1 -46 -9 -94q-6 -38 -7 -73q1 -9 1 -17z" />
<glyph unicode="Q" horiz-adv-x="1496" d="M90 664v24q0 34 4 66q6 45 12 93q7 59 17 108q9 44 33 92q7 15 19 45q8 20 20 39q4 9 14 15q10 7 17 15q1 3 3 11t3 11q6 11 18 24q13 14 20 29q5 9 8 20t8 16q7 12 32 25q21 11 43 29q17 15 29 32q12 16 29 27q21 15 49 23q27 8 55 23q25 11 52 29q24 17 43 21 q32 8 80 10q22 1 43 1t40 -1q12 -1 25 -8t27 -8q15 -4 32 -4q16 0 28 -4q32 -9 71 -29q25 -13 71 -36q9 -5 24 -14.5t18 -11.5q16 -10 40 -27q41 -25 75 -66t66 -90q12 -19 19 -36q8 -20 17 -47q8 -19 19 -38q12 -20 19 -44q6 -25 8 -43q2 -16 8 -46l9 -45q3 -15 7 -45 q0 -15 -5 -32t-5 -32t5 -33t5 -33q-1 -10 -8 -50q-4 -27 -6 -53q-12 -83 -13 -88q-5 -31 -17 -81l-6 -12q-8 -24 -28 -90q-15 -48 -41 -87q7 -10 23 -32q11 -15 29 -33q16 -19 33 -28q16 -9 18 -32q1 -25 -18 -43q-26 -24 -42 -40q-23 -23 -35 -39q-14 -19 -39 -20h-2 q-42 0 -65 34q-24 36 -58 49q-17 -9 -36 -23q-17 -12 -33 -21q-6 -4 -19 -12.5t-19 -12.5q-21 -14 -42 -19q-13 -5 -30 -5q-20 0 -37 -4q-13 -1 -30 -8t-30 -8t-30 0t-33 0q-54 -2 -75 -2q-32 0 -81 11q-10 1 -20 8t-18 8q-3 1 -38 7q-15 3 -36 14q-5 2 -11 11q-4 6 -11 13 q-16 9 -36 12t-33 9q-4 1 -6 8t-9 8q-15 9 -39 33l-41 41q-13 10 -24 26q-10 15 -21 27q-14 14 -26 23q-11 9 -18 20q-7 7 -9 20q-1 11 -6 25q-1 1 -3 11q-1 7 -5 13q0 1 -6 3q-7 2 -8 3q-4 11 -6 24q-1 13 -8 21l-18 42q-10 23 -17 56q-12 45 -20 99q-10 63 -11 109z M366 799q-2 -24 -2 -47q0 -63 13 -111q16 -63 24 -137q31 -25 45 -74q13 -48 38 -74q28 -30 52 -51q27 -24 57 -45h12q34 0 60 -10q33 -13 77 -14q50 0 108 18t63 50q4 22 -17 42q-22 21 -42 46q-34 46 -51 92q-3 9 -3 18q0 33 47 61q15 27 33 36t41 9h5q43 0 70 -34 q28 -35 66 -40l-2 -7q-2 25 12 42t18 39q10 40 10 82q0 18 -2 37q-3 26 -3 54q0 38 5 80q-19 22 -24 50q-4 26 -15 55q-1 10 -9 21t-12 24q-5 12 -7 30t-7 27q-1 4 -8 9q-1 1 -3 2.5t-3 2.5l-2 1q-29 37 -61 63q-35 28 -59 57q-30 5 -54 19t-57 19q-14 2 -28 2 q-37 0 -73 -12t-90 -28q-40 -30 -81 -75q-39 -44 -69 -89q-6 -9 -9 -15q-4 -8 -5 -12q-1 -1 -8 -3q-6 -1 -6 -3q-7 -11 -8 -26q-1 -14 -6 -25q-14 -37 -21 -72t-9 -84z" />
<glyph unicode="R" horiz-adv-x="1298" d="M81 32q4 40 10 114q4 53 4 131q0 23 3 51q1 7 2 17t2 17.5t1 12.5q0 10 -4 15l-4 6q0 73 4 132t4 130q0 33 -5 75q-3 30 -3 62v16q2 20 6 44q5 24 6 46q8 99 8 203q0 31 -1 63v29q0 117 21 232q5 20 21 27t30 21q63 8 137 8q22 0 45 -1t45 -1q73 0 135 8q15 1 30 1 q26 0 54 -4q44 -7 78 -9q22 -4 46 -1q20 3 39 1q7 -2 18 -9q10 -7 23 -12l87 -33q43 -16 81 -45q36 -30 72 -74t59 -94q20 -47 26 -71q7 -28 8 -92q2 -14 6 -32q3 -14 3 -26v-5q-2 -12 -9 -27q-1 -2 -13 -29q-4 -13 -6 -30q-1 -15 -8 -27q-10 -21 -30 -43q-20 -21 -18 -56 q-35 -24 -54 -58q-20 -35 -52 -60q-12 -11 -27 -15q-16 -5 -29 -15q-11 -7 -22 -18q-12 -12 -21 -17l9 9q-27 -14 -58 -22q-29 -7 -55 -27q5 -42 34 -69q28 -26 52 -57q12 -18 18 -39q6 -23 16 -39q12 -18 30 -36q17 -18 34 -40q3 -5 9 -17q4 -7 12 -19q22 -22 45 -62 q24 -42 45 -71q16 -18 36 -36t15 -48q-26 -22 -65 -22q-6 0 -13 1q-38 3 -77 3h-20q-36 -1 -78 -8q-38 -6 -72 -6q-20 13 -27 33t-21 42q-6 8 -9 11q-4 4 -6 11q-10 10 -14 15q-11 13 -14 18q-8 8 -14 27q-5 17 -14 33q-4 8 -12 13t-12 10q-11 16 -21 36q-14 26 -22 39 q-15 28 -30 50q-16 24 -18 56q-30 23 -45 57t-39 60q-22 -10 -48 -15q-27 -5 -50 -12q-20 -26 -20 -59q0 -11 2 -22q9 -46 9 -95q0 -13 -3 -30t-3 -33q1 -18 8 -41t8 -51q3 -62 3 -66q0 -30 -32 -52q-67 -5 -152 -15q-19 -2 -36 -2q-60 0 -93 29zM394 861q-2 -20 -2 -39 q0 -43 10 -77l1 -1q15 -3 30 -3l36 4q23 5 69 13q50 9 107 23q48 12 90 35q13 7 24 16l24 21q33 23 60 48q27 26 39 49q2 7 6 11t6 11q16 35 16 65q0 22 -9 41q-25 53 -41 91q-45 24 -117 49q-67 23 -145 28q-34 3 -78 3h-22q-57 -1 -75 -18q-18 -32 -18 -93v-7q0 -13 1 -26 q0 -53 -4 -106q-1 -61 -8 -138z" />
<glyph unicode="S" horiz-adv-x="1146" d="M74 278q4 10 12 18t15 18q5 7 13.5 22t11.5 20q13 22 37 28q40 -30 59 -46q32 -27 53 -52l21 -3q10 -1 21 -9q17 -10 28 -24t36 -24l12 -3q7 -2 8 -3q18 -8 93 -9h13q65 0 98 9q17 6 33 17q17 12 29 24q33 33 56 72q12 20 12 45.5t-12 56.5q-1 1 -3 8t-6 11q-4 12 -12 18 t-18 18q-14 18 -36 51q-23 34 -39 47q-15 11 -39 22q-22 10 -45 27q-13 9 -34 27q-24 20 -36 29q-24 18 -37 27l-39 27q-9 5 -22 10t-20 12q-7 2 -8 9q-1 8 -6 9q-5 4 -12 4q-6 0 -10 4q-13 11 -27 32q-15 22 -30 38q-14 17 -30 33t-24 30q-5 10 -13 34q-7 22 -15 42 q-15 45 -29 105q-9 40 -9 80q0 27 4 55q0 11 4 16q3 4 10 20q8 27 14 51q7 30 20 48q11 11 31 21q23 12 47 27q22 15 38 27q20 16 38 23q14 5 30 6q15 1 33 8q40 12 61 18q17 4 47 4q17 0 38 -1q66 -4 132 -30q67 -26 112 -55q6 -5 8 -3q1 2 6 -3q19 -19 67 -60 q51 -44 53 -74q0 -21 -23 -46q-25 -27 -41 -44l2 -3q-12 -16 -34 -46q-17 -22 -36 -39q-20 7 -34 13q-16 7 -28 21q-1 5 -3 12t-6 9q-6 6 -17 9q-9 2 -24 11q-7 6 -15 15q-7 8 -18 13q-22 8 -78 17q-42 6 -69 6q-12 0 -21 -1q-30 -4 -54 -21t-30 -36q-3 -11 -3 -22 q0 -30 21 -57q26 -35 51 -61q9 -9 16 -21q5 -9 12 -16q5 -5 13 -6t15 -8q11 -8 18 -15t24 -18q24 -13 51 -36q28 -24 47 -48q20 -7 45 -20q23 -12 40 -28q12 -14 46 -30q33 -16 52 -33q10 -8 18 -21q8 -15 18 -26l30 -35q12 -13 27 -35q7 -13 24 -33t24 -37q1 -7 3 -24 t3 -27q4 -16 12 -50q4 -16 4 -37q0 -14 -2 -29q0 -8 -2 -24q-1 -8 -3 -26q-1 -8 -3 -26q-1 -14 -6 -21q-2 -8 -15 -29q-11 -17 -19 -35q-7 -12 -8 -18q-1 -7 -6 -15q-4 -6 -10 -10t-12 -12q-5 -7 -7 -17t-7 -17q-6 -8 -10 -11t-10 -9q-23 -28 -42 -45q-16 -13 -50 -39 q-18 -16 -57 -36t-69 -30q-9 -4 -24 -4q-9 0 -25 -2q-18 -6 -40 -17q-19 -10 -36 -11q-17 -2 -33 -2q-42 0 -75 12q-46 16 -111 18q-13 12 -28 21q-22 14 -34 21q-20 10 -47 21q-21 9 -45 27q-37 30 -80 84q-24 31 -24 67q0 28 15 59z" />
<glyph unicode="T" horiz-adv-x="1282" d="M56 1366v15q0 46 16 81q71 24 152 24h13q118 -2 176 -2h10q47 0 99 8t108 8h13q19 -2 39 -6t36 -3q12 1 24 8q10 6 21 6q28 2 57.5 2t60.5 -2q61 -5 114 -6l2 -2q51 -5 98 -12q49 -8 80 -42q0 -48 1 -81q1 -25 1 -45.5t-1 -35.5q-76 -37 -189 -39t-221 -6 q-15 -15 -14 -34t0 -40q0 -15 -3 -36t-3 -40t8 -41t8 -41q0 -27 -8 -59t-8 -60q0 -27 3 -58t3 -61q1 -23 5 -62q3 -30 3 -58q0 -20 -2 -66v-16q0 -25 2 -56q2 -62 3 -141v-32q0 -64 -3 -133q0 -6 -5 -13t-5 -8q0 -7 5 -10t5 -5q-2 -36 -8 -96q-4 -46 -15 -90 q-19 -16 -51 -12q-28 4 -59 4q-14 0 -47 -5q-9 -2 -18 -2q-20 0 -39 8q-26 11 -38 30q-13 20 -17 59q-4 63 -6 134q-1 35 -1 66.5t1 59.5q2 102 3 154q1 22 1 45q0 58 -4 122q0 5 -4 12t-3 18v21q0 49 -7 113q-9 81 -9 146v19q0 65 6 122q2 17 2 33q0 47 -17 89q-36 8 -78 8 q-19 0 -38 -2q-32 -2 -64 -2t-65 2q-58 4 -82 12q-23 7 -37 57q-7 19 -10 75z" />
<glyph unicode="U" horiz-adv-x="1268" d="M79 994q1 18 8 50q6 28 6 57q1 23 -3 48q-4 23 -4 53q-1 16 -1 36q0 50 4 123q5 103 28 126q11 13 35 19q18 5 53 10l4 4q28 2 75 2q54 0 79 -16q16 -70 16 -140q0 -23 -2 -46q-10 -131 -14 -186v-43q0 -18 -5 -35q-4 -15 0 -37q0 -4 3 -10l3 -6q1 -12 -3 -22 q-4 -9 -4 -21q0 -11 7 -21t7 -24q0 -13 -4 -22t-4 -21q1 -21 8 -44q6 -21 6 -41q5 -62 5 -108q0 -50 11 -108q2 -9 6 -20q4 -12 6 -23q6 -24 9 -44q3 -18 15 -42q7 -21 21 -45t36 -42q7 -6 20 -9q12 -3 24 -12q43 -28 74 -39q8 -3 18 -3q27 0 70 20q33 17 48 31q16 15 33 50 q31 64 48 182q12 80 12 149q0 33 -3 63q0 10 5 15t5 22q-2 86 -2 150q0 66 2 144q0 14 3 29t3 27q0 21 -2 53q-2 24 3 62q0 7 4 12q4 6 3 16v72q0 56 14 78q4 6 18 15q11 7 26 13q10 5 20 2q12 -3 18 -2q3 1 12 8q8 6 9 6q23 4 48 4q10 0 20 -1q36 -1 59 -17q25 -35 25 -76 q0 -12 -2 -24q-9 -55 -9 -106q0 -37 8 -77t8 -75q0 -15 -5 -35t-5 -36q0 -18 5 -36t5 -33q-1 -29 -12 -58q-10 -29 -12 -57q0 -32 4 -57t4 -57q0 -34 -6 -65q-7 -35 -8 -65q-1 -19 -1 -37.5t1 -36.5t1 -35t-1 -34q-5 -52 -21 -98q-17 -47 -33 -87q-6 -16 -10 -33 q-2 -10 -11 -33q-2 -3 -11 -17t-16 -24q-18 -28 -27 -52q-44 -31 -68 -55q-27 -27 -85 -45q-54 -18 -144 -21q-19 -1 -36 -1q-65 0 -120 9q-14 2 -24 6t-21 6q-35 4 -59 6q-23 2 -53 18q-3 3 -5 6q-3 5 -10 9q-6 5 -15 9q-6 3 -20 11q-2 1 -11 6t-16 8q-18 9 -27 15 q-13 12 -41 56t-48 72q-12 22 -18 36q-9 20 -17 42q-4 9 -10 29q-5 17 -12 35q-1 10 -8 17t-8 12q-4 31 -4 65q0 19 1 40q4 40 4 82q0 17 -1 34q0 85 -7 165t-7 171z" />
<glyph unicode="V" horiz-adv-x="1470" d="M65 1461l6 -1q30 29 81 29q11 0 24 -1q34 -4 68.5 -4t69.5 4q27 -25 41 -55q15 -31 24 -69q8 -24 12 -40q4 -17 14 -38q3 -9 9 -24t7 -18q7 -20 18 -48q1 -8 8 -14t8 -14t0 -18t0 -18q4 -13 17 -24q12 -11 17 -23q5 -18 3 -39t3 -39q5 -13 13 -21t13 -20t3 -27t3 -29 q5 -10 12 -21q8 -11 12 -22q6 -13 20 -41t20 -43q15 -32 23 -66q9 -35 35 -66q-5 -17 -5 -32q0 -22 10 -40q16 -30 27 -60q12 -40 12 -85t37 -69q28 6 27 36q-2 32 7 53q0 4 7 10t9 12q10 24 15 35q2 4 18 41q25 73 42 164t63 158v13q0 62 27 103q24 37 24 94q0 13 -1 27 q11 6 14 18q3 11 11 24q14 30 20 45q11 26 21 57q6 22 8 33t8 33q7 24 16 61q8 32 24 57q33 23 87 23q15 0 32 -2q30 -3 78.5 -8t56.5 -6q6 -17 6 -34q0 -25 -13 -47q-23 -42 -35 -79q-13 -45 -17 -87t-17 -87q-4 -18 -17 -35t-17 -35q-4 -20 -3 -39t-3 -39q-5 -13 -13 -24 t-13 -24q-10 -26 -15 -54t-18 -57q-5 -12 -13 -22q-10 -11 -11 -21q-5 -15 -2 -29q3 -17 2 -27q0 -1 -8 -6t-8 -6q-6 -15 -8 -27q-3 -12 -8 -29l-9 -18t-6 -15q-1 -7 -3 -19q-2 -10 -6 -17q-1 -2 -4 -6.5t-4 -6.5q-5 -8 -9 -21q-5 -19 -13 -34q-10 -18 -11 -36 q-5 -31 -9 -47q-4 -13 -17 -45q-10 -30 -21 -74t-24 -80q-1 -2 -2.5 -6t-2.5 -6q-4 -10 -5 -15q-3 -7 -9 -11q-6 -5 -9 -9q-13 -32 -27 -66q-14 -35 -53 -53q-68 -8 -143 -18q-35 -5 -69 -5q-43 0 -83 8q-26 2 -33 21t-18 33q-5 8 -12 14t-12 14q-12 23 -21 52q-9 30 -21 60 q-1 10 -6 18t-9 18q-7 19 -21 55q-13 33 -20 57q-5 12 -5 21q0 12 -4 21q-13 37 -18 50q-4 11 -12.5 32.5t-10.5 27.5l-9 18t-6 18q-21 66 -38 137q-16 68 -38 143q-19 72 -34 116q-18 54 -39 114q-7 20 -12 39q-4 17 -14 39q-4 16 -15 31q-11 16 -18 31q-4 18 -3 36t-3 34 q-9 38 -33 81t-24 92z" />
<glyph unicode="W" horiz-adv-x="1997" d="M39 1385q0 10 -0.5 20.5t0.5 21.5q1 21 0 45l7 -5q44 42 134 42t157 -21q29 -38 30 -84t12 -91q4 -18 14 -54l15 -54q2 -15 6 -27q3 -8 9 -26q4 -13 4 -30q0 -10 2 -30q10 -36 15 -53q7 -23 15 -56q4 -11 4 -27q0 -17 4 -30q1 -9 11 -22t11 -22q2 -14 0 -29q-1 -15 0 -30 q1 -12 8 -23q6 -10 6 -21q1 -11 -3 -21t-3 -21q5 -25 15 -48t15 -45q1 -15 0 -30t0 -30q1 -20 9 -42q7 -22 12 -44q5 -19 7 -42q2 -22 16 -38q21 4 21 27q0 21 8 48q0 5 6 9l8 6q4 15 3 30q-2 15 3 29q4 11 12 18q7 7 12 20q4 12 3 28q-1 17 3 30t12 22t12 22q21 77 35 147 q15 76 45 151q8 21 21 42q13 20 21 44q14 27 18 51q4 23 20 37q8 8 26 17q19 10 32 11q18 1 34 -6t36 -9q27 -3 52 -3h12q30 1 61 -6q23 -17 27 -39t15 -54q1 -10 6 -16q4 -6 6 -14q2 -14 3 -22t3 -22q1 -3 5 -11.5t7.5 -16.5t7.5 -16q12 -28 18 -52q5 -20 6 -40 q1 -18 8 -40q1 -9 8 -16q7 -6 8 -14q6 -21 9 -51t12 -57q6 -16 15 -30q10 -15 14 -27t4 -29t4 -30q6 -33 15 -72t30 -72q28 6 29 34t6 45q6 14 9 22q4 12 6 23q4 12 4 26t4 26q0 2 6 6l9 6q4 13 4 38q0 16 2 42l3 27q2 18 3 26q6 44 24 89q19 47 26 92q6 28 15 63t15 69 q5 26 6 48t9 45q6 21 15 42q10 24 14 39q4 12 4 27t4 24q1 11 6 18t9 18q16 54 24 80q12 40 39 71q25 6 58 6q15 0 31 -1q60 -5 106 -5q20 0 38 6t29 -11q6 -13 6 -24q0 -13 -8 -26q-15 -23 -21 -45q-2 -16 -2 -27q0 -17 -4 -30q-9 -36 -29 -90q-19 -53 -29 -99 q-4 -15 -10 -47q-4 -23 -12 -46q-4 -20 -12 -43q-8 -22 -9 -45q-2 -12 0 -26q1 -13 0 -27q-5 -16 -15 -36t-15 -42q-6 -32 -12 -72q-6 -37 -17 -80q-12 -51 -32 -113q-17 -54 -33 -113l-15 -57q-9 -35 -14 -60q-8 -27 -18 -54t-18 -54q-6 -20 -8 -29q-1 -4 -8 -30 q-10 -38 -24 -82q-12 -39 -35 -79q-9 -1 -28 -8q-17 -6 -30 -12q-15 -8 -47 -8q-22 0 -53 4q-75 9 -118 9q-21 32 -35 57q-12 21 -12 45q0 11 2 22q-21 16 -21 40q0 23 -8 47q-3 7 -17 34q-12 23 -18 39q-6 14 -8 22q-3 14 -7 22q-2 7 -14 43l-15 45q-6 14 -9 20q-4 9 -6 17 q-1 10 0 25q2 15 0 26q-1 8 -6 15q-4 7 -6 14q-1 12 -3 21q-2 10 -6 23q-4 16 -15 46q-17 48 -20 55q-6 16 -9 36q-3 19 -20 30q-27 -19 -25 -48q2 -30 -4 -54q-4 -17 -14 -37q-9 -19 -15 -37q-3 -10 -17 -55t-17 -55q-8 -17 -12 -34q-3 -12 -11 -38q-1 -7 -8 -15t-8 -15 q-5 -16 -7 -39q-2 -22 -7 -40q-1 -5 -11 -13t-11 -16q-4 -7 -4 -18t-4 -18q-16 -40 -26 -69q-12 -36 -24 -69q-6 -28 -10 -42q-6 -20 -20 -31q-27 2 -55 2.5t-58 -2.5q-28 -2 -52 -2q-30 0 -55 3q-18 2 -42 9q-23 7 -39 20q-27 25 -36 90q-10 68 -22 114q0 5 -6 9 q-7 5 -8 12q0 10 1 15q1 7 0 15q-4 23 -14 51q-9 26 -15 52q-4 15 -9.5 43t-6.5 31q-8 35 -21 72q-12 37 -24 81t-27 87q-4 15 -9 33q-4 15 -11 33q-13 28 -15 80t-30 71v13q0 46 -13 83q-16 46 -23 87q-5 15 -5 26q0 13 -4 24q-4 17 -9 36t-12 45l-9 18q-5 8 -5 15 q-4 13 -1 26q3 11 1 26q-5 20 -13 35q-10 19 -11 39z" />
<glyph unicode="X" horiz-adv-x="1253" d="M79 99q4 4 10 14q6 15 17 31q6 10 19 33q13 26 33 56q22 33 35 62q2 10 2 18q0 11 4 16q1 4 6 7t6 7q5 7 12 18q5 7 15 23q5 9 7 19t7 17q6 10 10 14q6 6 11 14q17 32 30 63q13 30 32 62q6 10 10 14t10 14q7 7 8 16q1 11 6 18q22 39 48 92q32 66 48 98q1 23 -16 40 q-19 19 -26 36q-5 14 -7 31q-2 18 -7 33l-9 24q-3 8 -11 24q-14 34 -21 52q-10 27 -21 51q-11 27 -24 50q-18 32 -26 48q-13 32 -32 63q-18 28 -30 71q-2 6 0 14t0 14q0 2 -7 6t-7 6q-5 22 -3 42t12 42l4 -5q46 12 93 21q23 4 47 4q28 0 58 -5q32 -42 47 -93q16 -55 37 -102 q2 -4 6 -9q4 -4 6 -11q15 -36 33 -84q18 -47 50 -78q73 76 114 188q41 111 123 180q49 -19 113 -20q65 -2 89 -42q0 -23 -10 -40q-10 -18 -18 -36q-11 -25 -24 -44q-9 -13 -25 -39q-1 -2 -6 -10.5t-8 -13.5q-10 -18 -14 -26q-6 -10 -16 -26.5t-13 -21.5q-15 -25 -26 -54 q-10 -24 -15 -35q-7 -16 -20 -35q-2 -6 -3 -10t-3 -10q-1 -1 -8 -3q-6 -2 -6 -3q-10 -18 -12 -38t-9 -38q-7 -17 -26 -36q-18 -19 -20 -41q-4 -26 9 -57q5 -12 13.5 -32.5t11.5 -27.5q8 -21 22.5 -58.5t17.5 -46.5q20 -51 51 -99q11 -17 24 -30t24 -32q5 -6 3 -8q-1 -1 5 -6 q6 -7 9 -30q3 -21 11 -47q11 -32 36 -72q29 -46 48 -79q4 -7 4 -15q0 -5 2 -13q4 -7 17 -22q11 -13 18 -28q3 -6 7 -20q3 -14 7 -22q2 -6 6 -14.5t5 -10.5q3 -8 3 -13q0 -23 -37 -42q-33 -17 -61 -18h-4q-41 0 -77 18q-20 10 -37 10q-14 0 -26 -7q-19 16 -24 41 q-4 22 -17 48q-12 19 -29 38t-27 40q-6 8 -5 20t-3 22q-6 17 -21 42q-17 28 -27 49l-33 60q-17 31 -45 50q-5 15 -15 43q-7 21 -26 33q-22 6 -28 -12q-5 -16 -14 -30q-4 -6 -15 -22t-17 -24q-17 -26 -29 -52q-5 -10 -10 -27q-5 -16 -12 -29q0 -2 -6 -3q-7 -2 -8 -3l-3 -15 q-2 -7 -9 -18q0 -1 -6 -3q-7 -2 -8 -3q-14 -29 -26 -62q-13 -36 -44 -54q-6 -36 -21 -66q-14 -29 -41 -46q-40 7 -76 7q-28 0 -53 -4q-12 -2 -24 -2q-44 0 -75 33q-7 4 -7 9q0 2 3 5z" />
<glyph unicode="Y" horiz-adv-x="1265" d="M64 1426q19 27 43 27q11 0 24 -6q39 -20 82 -21q10 -1 21 -1q24 0 51 6q22 5 44 5l34 -3q56 -49 80 -121t63 -142q10 -18 26 -36t26 -39q10 -19 15 -41q4 -19 14 -44q5 -9 12 -18q7 -8 12 -20q1 -10 0 -24t15 -15q24 0 26 21t9 33q5 18 15 30q12 14 24 23q28 122 81 219 t117 183q18 -6 30 3q11 8 30 13q18 2 37 2q23 0 47 -3q23 -3 43.5 -3t37.5 3l12 4q17 1 42 12q8 3 16 3q17 0 31 -16q-7 -45 -29 -95q-20 -46 -47 -87q-9 -14 -18 -30q-12 -23 -20 -39q-16 -30 -36 -63q-19 -32 -48 -58q4 -9 0 -19q-4 -11 -6 -18q-2 -4 -4 -15 q-1 -10 -6 -16q-5 -11 -15 -17t-16 -15q-2 -6 -2 -11t-5 -12q-1 -1 -8 -3t-8 -3q-10 -19 -15 -42t-15 -41q-1 -4 -8 -6q-6 -2 -6 -3q-10 -19 -25 -39q-17 -22 -27 -42q-28 -48 -60 -105q-29 -53 -63 -106q3 -48 3 -92q0 -26 -1 -50q-3 -70 -3 -145q0 -25 5 -57q5 -29 3 -57 q0 -13 -5 -33q-5 -18 -3 -35q0 -37 11 -81q4 -14 4 -26q0 -27 -16 -51q-43 -7 -96 -7q-22 0 -45 1q-81 5 -124 28q-15 15 -1 27q13 12 15 27q7 20 1 51q-6 30 -6 62q0 11 3 26t3 26q1 12 1 28q0 26 -3 62q-5 60 -5 115v112q-1 25 -3 52q-1 24 -6 39q-6 27 -23 49 q-19 24 -29 43q-9 15 -12 28q-3 12 -11 27q-5 7 -15 19t-15 17v46q-24 28 -39 60q-16 34 -37 66q-1 1 -5 7.5t-6 10.5q-8 14 -11 21q-24 43 -42 90q-17 43 -41 90q-29 56 -71 120q-39 60 -48 135z" />
<glyph unicode="Z" horiz-adv-x="1306" d="M88 168q6 33 30 54t20 54q24 24 48 41q27 19 47 45q5 6 6 16q1 9 8 19q5 11 17 24q11 13 18 28q13 25 36 46t44 47q2 6 2 8q0 4 4 8q8 8 20 26q11 17 23 32q4 5 26 36q12 16 24 36l18 27q11 16 17 30q22 39 51 84q38 60 57 89q4 7 10 21t10 21q10 10 16 14q8 5 13 14 q17 26 27 54q11 30 31 54q12 15 30 32q19 18 27 41q-30 17 -65 17q-11 0 -23 -2q-46 -7 -99 -7q-17 0 -35 3t-36 3h-20q-59 0 -114 -10q-39 -7 -73 -7q-23 0 -43 3q-8 1 -18 6t-24 9q-30 11 -35 16q-9 9 -23 28q-6 8 -12 12q-6 5 -11 11l12 66q2 11 2 23q0 22 -7 45 q15 12 33 21q19 10 32 21q34 -5 69 -5q43 0 87 8q65 12 126 12q16 0 33 -1q18 0 36 -6q20 -7 37 -8q22 -1 49 3q24 4 51 4q50 2 98 6q34 4 68 4q14 0 27 -1q23 0 49 -8t46 -8h-3h13q28 0 53 7q12 3 24 3q20 0 40 -9q28 -29 28 -63q0 -5 -1 -11q-5 -40 -12 -84q-7 -33 -9 -51 q-2 -19 -18 -41q-3 -3 -9 -7q-5 -3 -6 -7q-5 -5 -11 -14t-12 -15q-2 -5 -3 -12t-3 -12q-5 -5 -15 -10t-14 -10q-8 -18 -11 -38t-11 -33q-6 -11 -20 -24q-12 -11 -24 -26q-1 -2 -3 -9t-3 -12q-14 -18 -33 -29t-33 -29q-5 -9 -10 -25q-5 -15 -12 -27q-5 -7 -15 -15t-15 -15 q-1 -1 0 -6t0 -9q-7 -10 -18 -18t-18 -18q-7 -12 -11 -23q-4 -12 -11 -20q-4 -7 -14 -21t-14 -21q-8 -13 -12 -25q-6 -18 -10 -27q-6 -7 -18 -15q-13 -8 -20 -18q-4 -4 -4 -7q0 -1 -2 -7q-2 0 -5 -3t-3 -5q-1 -2 -3 -9t-3 -12q-11 -9 -22 -14q-13 -6 -21 -14 q-23 -21 -35 -43q-11 -19 -32 -51q-5 -8 -17 -26t-17 -26q-7 -7 -8 -15q-1 -9 -6 -15q-8 -7 -31 -32q-18 -19 -21 -47q31 -7 64 -7q25 0 52 4q61 9 123 9q41 0 73 -4q29 -3 56 -3h13q10 0 15 3q4 3 14 3q6 0 13 -4q8 -5 15 -3q15 0 29 8t29 8q13 0 29 -3q18 -3 29 -6 q12 0 32 2q14 1 26 -2q14 -1 26 -14q13 -13 24 -20q6 -6 23 -13q15 -6 21 -24q-7 -39 -9 -87t-12 -87q-51 -32 -114 -32q-14 0 -29 2q-48 5 -95 5q-32 0 -63 -2q-19 0 -40 -6q-23 -7 -39 -8q-10 0 -27 5t-29 5t-27 -5t-24 -5q-19 1 -55 5q-27 3 -53 3q-113 -1 -228 -12 q-32 -3 -63 -3q-82 0 -159 21q-13 23 -9 51t3 57q0 16 -4 33q-4 14 -4 24q0 5 1 8z" />
<glyph unicode="[" horiz-adv-x="758" />
<glyph unicode="\" horiz-adv-x="823" />
<glyph unicode="]" horiz-adv-x="800" />
<glyph unicode="^" horiz-adv-x="1000" />
<glyph unicode="_" horiz-adv-x="1300" />
<glyph unicode="a" horiz-adv-x="1099" d="M48 321q0 139 95 249t306 110q49 0 105 -15t117 -45v30q-1 55 -42 85q-41 31 -120 35q-89 0 -160 -15t-120 -45l-107 171q94 60 204 90t234 30q181 0 285 -100q105 -101 105 -300v-600h-280v80q-62 -41 -117 -60q-57 -20 -105 -20q-200 0 -300 85t-100 235zM291 352 q5 -59 53 -92q49 -34 138 -38v1q74 0 123 20q48 20 68 59v113q-19 38 -68 58q-47 19 -123 19q-90 -10 -138 -45t-53 -95z" />
<glyph unicode="b" horiz-adv-x="1191" d="M92 0v1499l280 2v-581q35 37 90 56q56 20 130 24q230 0 365 -150t135 -350t-135 -350t-365 -150q-52 0 -109 20q-55 20 -111 60v-80h-280zM371 410h1q10 -75 63 -120t147 -60q130 4 198 77q67 72 72 212q-15 114 -83 178q-67 63 -188 72q-95 -13 -147 -63 q-52 -49 -63 -134v-162z" />
<glyph unicode="c" horiz-adv-x="1049" d="M48 447v100q0 199 150 324q151 125 351 125q119 0 220 -42q100 -42 180 -128l-200 -150q-45 46 -95 68q-51 23 -105 23q-100 0 -175 -80q-75 -79 -75 -189t70 -189q71 -80 180 -80q54 0 105 23q50 23 95 68l200 -150q-80 -86 -180 -128q-101 -42 -220 -42l-1 -2 q-199 0 -350 125q-150 125 -150 324z" />
<glyph unicode="d" horiz-adv-x="1195" d="M49 499q0 200 135 350t365 150q74 -4 130 -24q55 -19 90 -56v581l280 -2v-1499h-280v80q-55 -41 -111 -60q-57 -20 -109 -20q-230 0 -365 150t-135 350zM289 518q5 -140 72 -212q68 -73 198 -77h1q94 15 147 60t63 120v162q-11 85 -63 134q-53 49 -147 63 q-121 -9 -188 -72q-68 -64 -83 -178z" />
<glyph unicode="e" horiz-adv-x="1147" d="M45 501q0 220 140 360t360 140t351 -140q130 -139 130 -360v-100h-690q11 -80 70 -125q60 -45 140 -45q68 0 133 20q62 19 118 60l160 -160q-56 -75 -158 -113q-103 -38 -252 -38l-2 1q-220 0 -360 140t-140 360zM345 601h400q0 80 -60 125t-140 45t-140 -45t-60 -125z " />
<glyph unicode="f" horiz-adv-x="772" d="M-4 800v226h150v134q0 151 100 245q101 95 270 95q91 0 160 -25q70 -25 120 -75l-149 -166q-13 16 -39 24q-27 8 -61 8q-53 0 -86 -33t-33 -113v-94h150v-226h-150v-800h-282v800h-150z" />
<glyph unicode="g" horiz-adv-x="1144" d="M45 499q0 220 125 360t354 140q85 -4 145 -27q61 -23 95 -63v91l277 -31v-890q0 -209 -125 -351t-315 -149l-60 -6q-145 3 -258 45q-112 42 -192 122l130 150q55 -40 123 -63t145 -27q160 0 217 75t57 165v50q-57 -46 -120 -68q-66 -23 -138 -23q-229 0 -345 135 q-115 134 -115 365zM284 519q5 -140 72 -212q68 -73 198 -77q94 15 147 60t63 120v162q-11 85 -63 134q-53 50 -147 63q-125 -5 -192 -67q-68 -63 -78 -183z" />
<glyph unicode="h" horiz-adv-x="1100" d="M98 -2v1500h280v-590q52 46 111 68q61 23 129 23q191 0 291 -115t100 -265v-620h-280v550q0 100 -50 156q-49 55 -150 58l-1 -3q-44 -3 -81 -24t-69 -62v-676h-280z" />
<glyph unicode="i" horiz-adv-x="524" d="M90 1240h2q0 61 40 101q41 41 108 41q71 0 112 -41q40 -40 40 -101q0 -60 -40 -100t-111 -40t-111 40t-40 100zM102 0v1001h280v-1001h-280z" />
<glyph unicode="j" horiz-adv-x="595" d="M-138 -200l101 -2q101 4 150 60q50 56 50 160v981h281l-1 -1031q0 -179 -100 -288q-101 -110 -279 -110h-202v230zM149 1240h2q0 61 40 101q41 41 108 41q71 0 112 -41q40 -40 40 -101q0 -60 -40 -100t-111 -40t-111 40t-40 100z" />
<glyph unicode="k" d="M126 0v1500h300v-849l287 349h337l-374 -449l474 -551h-390l-334 399v-399h-300z" />
<glyph unicode="l" horiz-adv-x="573" d="M100 0v1500h280v-1500h-280z" />
<glyph unicode="m" horiz-adv-x="1773" d="M96 -1v971l280 30v-89q46 43 107 66q59 22 133 22q94 0 167 -29t122 -87q55 59 138 87q84 29 192 29q191 0 291 -115t100 -265v-620h-280v550q0 101 -45 156t-146 58q-41 -3 -77 -30q-35 -26 -67 -80q-2 -20 -3 -31q-2 -22 -2 -33v-590h-280v550q0 101 -45 156t-146 58 l1 -2q-47 -3 -86 -33t-74 -89v-640h-280z" />
<glyph unicode="n" horiz-adv-x="1145" d="M98 -2v971l280 30v-91q52 46 111 68q61 23 129 23q191 0 291 -115t100 -265v-620h-280v550q0 100 -50 156q-49 55 -150 58l-1 -1q-43 -3 -81 -35q-37 -31 -69 -93v-636h-280z" />
<glyph unicode="o" horiz-adv-x="1152" d="M43 499q0 217 146 363t363 146t363 -146t146 -363t-146 -363t-363 -146v-2q-218 0 -363 147q-146 148 -146 364zM294 497q0 -114 71 -191t185 -77t185 77t71 191t-71 191t-186 77q-112 0 -183 -77t-71 -191h-1z" />
<glyph unicode="p" horiz-adv-x="1196" d="M95 -420v1391l280 30v-80q55 41 111 60q57 20 109 20q230 0 365 -150t135 -350t-135 -350t-365 -150q-73 4 -130 26q-55 21 -90 56v-503h-280zM375 430q10 -83 63 -133q52 -49 147 -64q121 11 188 72q68 62 83 177q-5 140 -72 212q-68 73 -198 77l-1 1q-95 -15 -147 -60 t-63 -120v-162z" />
<glyph unicode="q" horiz-adv-x="1172" d="M44 501q0 200 135 350t365 150q52 0 109 -20q55 -19 111 -60v80l280 -30v-1391h-280v503q-35 -35 -90 -56q-57 -22 -130 -26q-230 0 -365 150t-135 350zM283 482q15 -115 83 -177q67 -61 188 -72q95 15 147 64q53 50 63 133v162l-1 -1q-11 75 -63 120t-147 60 q-130 -4 -198 -77q-67 -72 -72 -212z" />
<glyph unicode="r" horiz-adv-x="796" d="M78 0v971l280 30l1 -111q54 56 119 83q64 27 141 27q18 0 48 -2q23 -2 45 -6l-44 -276q-23 21 -59 34q-33 11 -81 13q-52 -3 -93 -40q-43 -38 -77 -108v-615h-280z" />
<glyph unicode="s" horiz-adv-x="928" d="M52 140l155 175q34 -40 87 -64q51 -23 123 -31q116 0 149 38q20 23 20 45q0 15 -9 30q-12 17 -51 31q-37 13 -107 19q-122 14 -224 75q-102 62 -102 231q0 155 116 236q115 81 237 81l1 3q142 0 219 -34q79 -35 146 -102l-156 -176q-34 40 -77 60t-93 20q-100 0 -135 -38 q-18 -19 -18 -36t18 -32q17 -17 51 -29q38 -13 84 -23q148 -13 243 -84t95 -246q0 -142 -112 -220t-261 -78q-141 0 -237 41q-94 40 -162 108z" />
<glyph unicode="t" horiz-adv-x="787" d="M33 775v226h150v271l281 30v-301h150v-226h-150v-393q0 -80 33 -113t86 -33q7 0 27 3t48 9l59 -201v2q-37 -23 -77 -35t-87 -12q-169 0 -270 95q-100 94 -100 245v433h-150z" />
<glyph unicode="u" horiz-adv-x="1125" d="M74 382v620h280v-550q0 -100 50 -156q49 -55 150 -58l1 1q43 3 81 33t69 85v646h280v-1001h-280v91q-50 -46 -110 -68q-61 -23 -130 -23q-191 0 -291 115t-100 265z" />
<glyph unicode="v" horiz-adv-x="1142" d="M17 1000h284l235 -625l240 625h284l-401 -1000h-240z" />
<glyph unicode="w" horiz-adv-x="1460" d="M25 1001h263l155 -591l150 591h207l143 -601l154 601h263l-267 -1001h-250l-150 501l-150 -501h-250z" />
<glyph unicode="x" horiz-adv-x="1096" d="M13 0l356 521l-324 477h284l183 -268l183 268h284l-324 -477l356 -521h-287l-212 312l-212 -312h-287z" />
<glyph unicode="y" horiz-adv-x="1128" d="M86 381v620h280v-550q0 -100 50 -156q49 -55 150 -58l1 1q44 3 83 30t72 78v654h280v-920q0 -211 -130 -351q-131 -142 -310 -149l-60 -6q-106 3 -200 45q-93 42 -180 122l130 150q58 -44 117 -70q57 -25 110 -30q130 0 187 65t57 185v51q-54 -46 -114 -68 q-63 -23 -132 -23q-191 0 -291 115t-100 265z" />
<glyph unicode="z" horiz-adv-x="1013" d="M85 0v67l416 695h-416v236h799v-73l-417 -689h417v-236h-799z" />
<glyph unicode="|" horiz-adv-x="774" />
<glyph unicode="&#xa3;" horiz-adv-x="1365" />
<glyph unicode="&#xa9;" horiz-adv-x="1674" />
<glyph unicode="&#xab;" horiz-adv-x="987" />
<glyph unicode="&#xad;" horiz-adv-x="757" d="M41 568q29 26 67 20q36 -6 78 -4q12 0 29 5q15 5 33 6q36 5 75 0q43 -5 77 -5q25 -1 77 -3q39 -1 67 3q8 0 15 6t15 6h-4q26 -2 45 -12t33 -24q0 -31 1 -45q1 -21 12 -33q-5 -16 -12 -33q-7 -15 -18 -28q-133 -18 -277 -6q-142 12 -258 -11q-38 14 -44 62q-8 64 -11 96z " />
<glyph unicode="&#xae;" horiz-adv-x="1674" />
<glyph unicode="&#xb0;" horiz-adv-x="772" />
<glyph unicode="&#xbb;" horiz-adv-x="987" />
<glyph unicode="&#xf7;" horiz-adv-x="1108" />
<glyph unicode="&#x2000;" horiz-adv-x="838" />
<glyph unicode="&#x2001;" horiz-adv-x="1676" />
<glyph unicode="&#x2002;" horiz-adv-x="838" />
<glyph unicode="&#x2003;" horiz-adv-x="1676" />
<glyph unicode="&#x2004;" horiz-adv-x="558" />
<glyph unicode="&#x2005;" horiz-adv-x="419" />
<glyph unicode="&#x2006;" horiz-adv-x="279" />
<glyph unicode="&#x2007;" horiz-adv-x="279" />
<glyph unicode="&#x2008;" horiz-adv-x="209" />
<glyph unicode="&#x2009;" horiz-adv-x="335" />
<glyph unicode="&#x200a;" horiz-adv-x="93" />
<glyph unicode="&#x2013;" horiz-adv-x="887" d="M115 543q26 26 65 20q36 -6 79 -4q16 1 31 6t31 6q36 5 75 0q39 -4 77 -6l78 -3q39 -2 68 3q7 1 15 6t15 5l-1 2q24 -1 45 -11q19 -9 34 -24q-1 -15 -1 -45q0 -23 14 -35q-10 -22 -15 -32q-7 -15 -18 -27q-131 -19 -279 -7q-146 12 -260 -12q-38 15 -44 62t-9 96z" />
<glyph unicode="&#x2014;" horiz-adv-x="2048" />
<glyph unicode="&#x2018;" horiz-adv-x="383" d="M95 1548q5 10 21 17q18 8 36 11l2 1q42 7 99 3q56 -4 76 -24q2 -25 3 -70q1 -46 -6 -94q-2 -10 -6 -21q-5 -12 -5 -18q-4 -33 -4 -62q0 -26 -10 -47q-11 -23 -28 -36q-18 -14 -57 -15h-29q-14 0 -27 11q-13 23 -13 52q0 31 -4 54q-6 20 -10 29q-6 13 -9 27l-3 33 q-1 17 -3 30q-4 30 -12 60q-8 33 -11 59z" />
<glyph unicode="&#x2019;" horiz-adv-x="427" d="M46 1554q8 11 24 20q18 10 36 11v2q44 6 102 -6q59 -12 77 -38q0 -29 -3 -86q-3 -60 -16 -114q-1 -11 -8 -24t-8 -24q-5 -48 -5 -74q0 -30 -14 -56q-12 -26 -32 -41t-59 -14q-17 0 -32 3q-16 3 -26 16q-12 31 -9 66q3 37 -1 69q-2 16 -6 33t-6 36q-2 17 0 36q1 13 1 39 q-6 48 -9 73q-5 38 -6 73z" />
<glyph unicode="&#x201a;" horiz-adv-x="625" />
<glyph unicode="&#x201c;" horiz-adv-x="685" d="M64 1564q33 5 63 13q37 10 63 11q8 0 17 -3l7.5 -2.5t5.5 -1.5q4 0 15 3q10 3 24 -2l-3 -2q12 -4 25 -11q10 -6 21 -23q-5 -84 -19 -153q-15 -74 -8 -163q-13 -15 -32 -18q-23 -4 -44 -10q-19 -4 -36 0t-36 12q-24 83 -45 169q-22 90 -18 181zM358 1570q5 10 21 17 q18 8 36 11l2 1q42 7 99 3q56 -4 76 -24q2 -25 3 -70q1 -46 -6 -94q-1 -10 -6 -21q-5 -12 -5 -18q-4 -33 -4 -62q0 -26 -10 -47q-11 -23 -28 -36q-18 -14 -57 -15h-29q-14 0 -27 11q-13 23 -13 52q0 31 -4 54q-6 20 -10 29q-6 13 -9 27l-3 33q-2 17 -3 30q-5 30 -12 60 q-8 33 -11 59z" />
<glyph unicode="&#x201d;" horiz-adv-x="744" d="M56 1563q34 13 68 16q32 3 62 3q10 0 18 -3q2 -1 6 -2.5t6 -2.5q6 -2 17 1q12 3 24 -3l-3 -1q18 -9 26 -16q11 -9 20 -26q-9 -93 -21 -175q-12 -81 -30 -177q-13 -19 -29 -30q-15 -11 -40 -18q-22 -3 -39 3q-6 2 -19 7t-17 7q-17 89 -31 222q-14 128 -18 195zM378 1554 q8 11 24 20q18 10 36 11v2q44 6 102 -6q59 -12 77 -38q0 -29 -3 -86q-3 -60 -16 -114q-1 -11 -8 -24t-8 -24q-5 -48 -5 -74q0 -30 -14 -56q-12 -26 -32 -41t-59 -14q-17 0 -32 3q-16 3 -26 16q-12 31 -9 66q3 37 -1 69q-2 16 -6 33t-6 36q-2 17 0 36q1 13 1 39q-6 48 -9 73 q-5 38 -6 73z" />
<glyph unicode="&#x201e;" horiz-adv-x="985" />
<glyph unicode="&#x2026;" horiz-adv-x="2048" />
<glyph unicode="&#x202f;" horiz-adv-x="335" />
<glyph unicode="&#x2039;" horiz-adv-x="676" />
<glyph unicode="&#x203a;" horiz-adv-x="676" />
<glyph unicode="&#x205f;" horiz-adv-x="419" />
<glyph unicode="&#x20ac;" horiz-adv-x="1500" />
<glyph unicode="&#x25fc;" horiz-adv-x="1000" d="M0 0v1000h1000v-1000h-1000z" />
</font>
</defs>
</svg>
