<?xml version="1.0" encoding="utf-8"?>
<!-- Generator: Adobe Illustrator 17.1.0, SVG Export Plug-In . SVG Version: 6.00 Build 0)  -->
<!DOCTYPE svg PUBLIC "-//W3C//DTD SVG 1.1//EN" "http://www.w3.org/Graphics/SVG/1.1/DTD/svg11.dtd">
<svg version="1.1" id="Layer_1" xmlns="http://www.w3.org/2000/svg" xmlns:xlink="http://www.w3.org/1999/xlink" x="0px" y="0px"
	 viewBox="0 0 612 792" enable-background="new 0 0 612 792" xml:space="preserve">
<path fill="#FFFFFF" d="M493.2,668.7c-4.6-2.6-8.3-6.8-13.5-8.4c-4.4-1.3-9.3-3.2-13.1-5.8c-4.5-3.1-9.2-5.3-13.9-8.1
	c-2.1-1.3-3.9-2.7-5.8-4.2c-2.4-1.9-5.5-2.2-7.4-4.6c-2.2-2.6-7.1-4.6-10.1-6.4c-4-2.5-8.2-4.8-12-7.6c-3.9-2.9-7.5-6.2-10.6-9.9
	c-3-3.7-3.8-10.2-7.4-13.1c-2-1.6-4.1-4.4-1.5-6.6c1.9-1.6,5.4,0.2,7.5,0.5c4.8,0.7,7.6-3.8,12.1-3.7c4.3,0,8.5,4.1,13.1,4.7
	c4.1,0.6,10.4,0.5,13.3-3c2.1-2.5,5.8-8.1,9.6-6.9c10.7,3.3,19.3,4.1,24.8-6.6c2.5-4.8,16.1-1.6,21.4-4.4c10.5-5.7,0-14.7-0.6-22.3
	c-0.4-5.2,2.6-10,2.2-15.3c-0.5-5.5-1.8-11-2.6-16.5c-1.9-12.9-4.7-25.9-5.6-38.9c-0.7-9,6.4-16.8,13.7-21.6c2.9-1.9,6-4.1,9.1-6
	c4.2-2.7,6.9-6.9,10.7-10.5c5-4.7,7.9-16.2,9-23c1.9-11.7,3.3-24.6,3-36.5c-0.3-12.5-2.9-24.7-5.6-36.9c-2.6-11.7-4.5-23-8.8-34.2
	c-4-10.5-9.1-16-18.1-22.4c-3.2-2.3-4.4-2.4-4-6.2c0.3-2.5-0.3-5-1-7.3c-1.7-4.9-3.2-10.4-5.6-15c-5.3-10.4-14.5-17.8-21.5-26.9
	c-6.8-8.8-14.3-17.1-20.9-26c-2.8-3.8-5.3-7.9-8.6-11.2c-3.5-3.5-7.6-6.7-9.6-11.4c-9.9-5.5-18.2-14.4-27.6-20.8
	c-4.5-3-10.1-4.1-15.1-6c-4.7-1.8-8.9-4.6-13.8-6.2c-9.7-3.1-19.3-2.1-29-2.5c-12.4-0.5-24.6,1.1-37,1.7c-5.6,0.3-11.2,0.2-16.7,1.3
	c-5.9,1.3-11.5,3.9-17.4,5.3c-10.2,2.4-20,5.4-29.9,9.4c-5.6,2.3-11.2,4.7-17,6.5c-6.3,2-12.7,2.5-18.4,5.9
	c-4.3,2.6-8.9,3.3-13.4,5.4c-4.7,2.2-8.7,5.9-13.4,8.4c-9.3,4.8-13.7,13-20.7,20.4c-6,6.3-12,14.6-16.7,21.9
	c-5.8,9.1-10.7,18.8-15.4,28.7c-2,4.2-1.9,10.2-3.5,14.9c-1.4,4.4-2,9.6-3,13.9c-2.8,13.1-4.5,26.6-5.2,39.9
	c-0.7,12.4-1.2,24.9-1,37.4c0.1,13.2,3.4,24.5,5.8,37.2c1.1,5.9-1.2,3.8-5.2,5.9c-5.4,2.9-8,5.4-7.1,11.7
	c1.6,11.1,5.7,21.9,7.9,32.8c3.5,17.4,9.8,38.3,21.1,52.2c13.4,16.6,30.2,33.3,38.6,53.2c2.3,5.6,8.2,9.2,12.4,12.6
	c3.2,2.6,6.4,5.1,9.5,8.3c3.1,3.2,9.5,4.4,13.5,6.3c22,10.3,42.2,24.3,64.8,33.1c9.7,3.8,19.5,7.6,29,12.3
	c5.2,2.6,10.4,5.1,15.9,7.2c5.6,2.1,10.9,7.8,15.6,11.7c7.3,6.1,11.1,14.3,16.9,21.5c7.8,9.6,14,20.8,22.4,29.9
	c6.6,7.1,13,15.9,18.3,24.1c3,4.6,6.2,9,9.3,13.4c4.6,6.6,0.8,6.7-3.5,11.1c-3.8,3.8-8.2,6.8-12.3,10.3c-1.8,1.5-3.3,2.2-5.4,2.9
	c-2.3,0.8-1.6,2-3.2,3.1c-3.1,2.1-8.5,4.7-12.1,6c-2,0.8-4.2,0.8-6.3,1.1c-2.4,0.4-3,1.8-5.3,2.4c-21.9,5.7-44.4,4.7-66.2-1.3
	c-5.3-1.4-10.6-2.8-15.8-4.5c-2.5-0.8-4.9-1.8-7.2-3.1c-2.1-1.2-2.1-2.6-3.7-3.7c-3.7-2.5-8.6-2.7-12.1-6c-3.4-3.2-8.1-6.6-12.1-9.1
	c-6.8-4.2-12.7-9.5-19.5-14c-7.6-5-15.8-9.5-23.7-14.6c-9.7-6.2-19.4-12.3-28.7-19c-6.9-5-14.4-8.9-21.2-13.6
	C124,674,95.7,656.4,68.8,636.2c-7.3-5.5-14.7-11.1-21.6-17c-8.1-6.8-13.1-13.2-18.9-21.6c-2.9-4.2-4.6-9.1-7.1-13.6
	c-2.4-4.3-5.5-7.7-6.9-12.5c-1.5-4.9-2.5-9.8-5-14.3c-3.1-5.7-2.2-12.3-2.5-18.5c-1-24.4,0.4-48.9-0.8-73.4
	c-0.5-10.4,0.7-22.1-1.8-32.1c-1.4-5.6-0.9-11.8-0.9-17.6c0-6.9-1.7-13.2-2.1-20c-1.4-23.3-0.1-47.2,0.8-71
	c0.5-12.3,1.9-24.3,2.9-36.6c1-11.9,1.2-24.4,4-36.1c2.3-9.4,7.6-21.5,13.6-29.5c0.6-0.8,1.6-2.3,2.3-3c1.3-1.3,1.8-3.1,3-4.5
	c0.7-0.3,1.5-0.6,2.3-0.8c0-0.5,0-1,0-1.5c1.4-1.4,4.9-3.3,6.8-5.3c5.2-5.4,10.9-10.4,16.6-15.1c6.4-5.2,12-11.8,18.7-16.6
	c5.2-3.7,10-9.7,15.7-12.5c2.7-1.3,4.2-3.9,6.8-5.4c1.3-0.7,2.6-1.4,3.9-2.1c4.1-2.4,0.2-1.1,1.8-2.8c2-2,10.9-5.8,11.7-9.5
	c0.4-1.8,7-6.6,8.7-7.9c3.1-2.3,7.2-5.5,10.7-7.4c3.8-2.1,6.3-5.3,10.5-7.3c4.4-2,8.3-6.5,12.1-9.6c6.9-5.5,13.6-10.5,20.4-15.8
	c13.8-10.6,26.6-20.5,40.1-31c3.3-2.6,7.3-3.9,10.6-6.8c3.7-3.2,7-6.6,10.6-9.8c3.7-3.4,8.2-5.9,12.2-9.1c1.9-1.6,3.8-3.2,6-4.5
	c3-1.8,4.2-5,7.4-6.6c8.4-4.3,15.4-8.8,24.9-11.7c10-3.1,20.7-5.4,31.1-6.7c11.6-1.4,20.6-3.8,32.3-1.4c5.1,1.1,9.8,2.9,14.7,4.4
	c5.7,1.7,11,2.2,16.1,5.8c7.3,5.1,14.4,11.4,20.9,17.6c6.8,6.5,14.1,12,21.4,18.1C440,68,457.7,83.1,472.5,99.4
	c15.6,17.1,34.2,31.2,51.6,46.5c16.3,14.4,31.5,29.8,46.3,45.8c5.7,6.1,10.5,13.7,15.8,19.5c3.5,3.9,6.1,7.2,9.1,11.3
	c3,4.1,8,8.6,8.7,13.9c0.6,4.4,2.6,8.3,3.1,13c0.5,5.8,0.9,11.6,1.9,17.3c2.3,12.7,2.3,24.6,2.2,37.4c-0.2,12.9,1.1,25.6,0.1,38.5
	c-0.8,10.7-0.7,20.8-0.7,31.5c-0.1,22.3,2.8,45,0.9,67.3c-0.9,10.4-2.8,20.9-2.7,31.4c0.1,9,1,18.2,1.2,27.4
	c0.2,9.3-0.6,19-2.2,28.2c-0.9,5.2-1.1,9.2-3.4,13.7c-1.1,2.1-1.3,4.2-1.7,6.5c-0.6,3-2.6,2.8-3.7,5.2c-4.5,9.8-13.4,17.7-20.8,25.9
	c-9.7,10.6-18.9,21.6-28.4,32.4C532.3,632.2,511.3,649.1,493.2,668.7C489.3,666.5,502.1,659.1,493.2,668.7z"/>
<path fill="#FFFFFF" d="M478.8,488.7c1,2.3,2.9,1.6,4.8,1.7c3.5,0.2,2.2,4.3,2.4,6.7c0.6,5.9,1.7,11.8,2.9,17.6
	c1.2,5.6,2.3,11.3,3,17c0.3,2.8,0.5,5.7,0.5,8.6c0,4.1-3.5,4-7.3,4.4c-4.8,0.5-7.2-1.5-11.5,2.4c-1.6,1.5-3,3.1-4.8,4.4
	c-2.4-1.1-5-1.6-7.6-2.3c-4.3-1.1-8.3-2.5-12.5-0.1c-5.2,3-5.2,7.1-11.7,6.8c-4.7-0.2-9.5-0.6-14.2,0.1c-2.1,0.3-4.2,0.9-6,1.9
	c-2.7,1.5-4.2,0.6-7.3,0.3c-5.2-0.6-8.8,1.4-12.8,4.5c-4.8,3.8-9.5-0.3-15.3-0.1c-5,0.2-8.4,2.8-12.9,4.3c-3.2,1.1-5-6.4-5.4-9.1
	c-0.8-5.6-3.4-10.2-4.6-15.7c-1.5-6.4,3-6.7,8.1-7.6c3.1-0.5,7.1-1.1,8.7-4.2c2.3-4.6-4.3-5.1-7-4.1c-9.6,3.4-18.8,5.3-29.2,6.2
	c-12.8,1.1-25.4,1.9-38.1,3.8c-6.4,1-12.8,1.8-19.2,1.6c-4.8-0.2-14.3-2.2-18.7,0c-4.6,2.3-4.5,2.2-10-0.3c-5.4-2.4-11-4.5-16.5-6.5
	c-4.5-1.7-9-2.8-12.1-6.8c-2.2-2.9-3.4-6.8-5.3-9.8c-6.1-9.7-13.3-18.1-18.1-28.7c-4.7-10.3-7.7-20.8-9.5-32
	c-1.6-10.3-3.6-20.4-5.7-30.7c-1.5-7.3-5.2-23.7-14.4-25c-10.6-1.5-18.2,12.9-18.3,21.9c-0.1,12.3,1.6,24.8,2.4,37.1
	c-5,1.9-9.9-19.7-11.3-22.6c-1.2-2.4-2.4-4.6-3.8-6.9c0-2.9,0.2-4.8-1.1-7.4c-2.9-5.7-5-11.5-5.9-17.8c-1.7-11.3-4.8-21.8-4-33.5
	c0.2-2.6,0.3-5.5-1-7.9c0.8-2,1.3-4,1.5-6c0.8-7.1,0.6-14.2,0.7-21.3c0.2-11.7,3.8-22.7,4.7-34.3c0.7-9.3,4.9-18.2,5.4-27.7
	c0.3-5.6,3.3-8.8,5.8-13.5c1.9-3.6,3.3-9.1,6.1-12.1c3.1-3.3,6.7-6.1,8.4-10.4c1.8-4.5,6.8-8.4,10.2-12.2c6.5-7.2,10-15.1,18.5-20.5
	c4.4-2.8,8.8-5.7,13.4-8.2c5.3-2.9,11.1-3.9,16.4-6.7c9.2-4.9,19.8-6.7,29.6-10c11.4-3.8,22.7-7.8,34.2-11.3
	c9.4-2.9,18.6-3.5,28.4-4.4c13.3-1.3,26.8-1.7,40.1-2c11.7-0.3,22.6,2,33.4,6.7c4.1,1.8,6.8,4.3,11.2,5.2c3.7,0.7,9.3,3.3,12.6,5.1
	c6.1,3.3,11.1,9.5,17.3,13.1c5.6,3.2,7.6,10.2,11.8,14.9c5,5.6,8.1,13,12.8,18.9c5,6.3,10.8,11.8,15.7,18.1c3.7,4.9,8,8.9,11.4,13.8
	c2.5,3.7,6.1,6.6,8.5,10.3c2.5,3.7,2.6,8.3,4.6,12.2c3.8,7.6,2.1,13.8,9.9,19c3.2,2.1,6.4,4.7,9,7.5c2.5,2.6,2.6,6.4,4.5,9.4
	c3.6,5.8,3.4,12.8,6.3,19c3.4,7,3.2,16.5,4.5,24.3c1.6,9.1,3.1,18.2,3.7,27.5c0.7,9.9-1.2,19.1-1.4,28.8c-0.2,7.5-2.1,18.2-7.1,24.3
	c-5.5,6.7-11.3,10.8-18.2,15.6C490.2,462.3,480.5,473.1,478.8,488.7C480.2,492,479.3,484.2,478.8,488.7z M471.2,282.2
	c-6.3-3.6-14.2-3.7-21.3-3.8c-3,0-6.5-0.9-8.4,2.1c-1.9,3-0.1,6,3,6.9c6.2,1.7,14.3,1.6,20.7,2.4c3.1,0.4,5.8-2,8.5-3.2
	C477.1,285,472,282.7,471.2,282.2C468.1,280.4,472.4,282.9,471.2,282.2z M331.3,292c-2,0.6-4,1.4-6.1,1.5c-2.3,0.1-3.7-1.4-5.9-0.1
	c-2.3,1.4-8.3,3.4-11,3.1c-4.4-0.5-9.6,4-13.7,5.5c-6.1,2.2-10.7,4.6-15.5,9.1c-6.6,6.2-13.4,9.7-16.7,18.6
	c-4.3,11.9-6.5,22.9-6.8,35.6c-0.2,11.4-1,22.7-0.3,34.1c0.7,11.9,2,23.9,1.4,35.9c-0.3,4.9-1.1,8.5-3.8,12.6
	c-3.1,4.8-6.7,6.4-12.2,8.5c-4.1,1.6-9,4-13.4,4.5c-3.8,0.4-9.3-0.4-11.8,3.3c-5,7.3,15.9,3.7,18.1,3.2c7.7-1.6,16.7-4.2,22.6-9.4
	c15.3-13.7,8-44.9,7.4-62.4c-0.3-10.8,0.3-21.8,0.8-32.6c0.4-8.6,1.3-19.3,4.7-27.2c3.1-7.1,11.6-18,19.2-20.4
	c3.6-1.1,9.3-3.6,12.3-5.7c3.3-2.3,7.5-2.1,10.9-3.4c2.1-0.8,2.9-2.4,5.3-3c2.9-0.7,5.8-1,8.5-2.2
	C327.4,300.5,336.8,293.3,331.3,292C329.6,292.5,331.9,292.2,331.3,292z M363.1,294.3c-2.7-0.2-9.9-4.5-10.6,1.1
	c-0.6,5.4,9.3,6.4,13.4,6.8c4.5,0.5,10.6,1.4,10.1-4.7C375.5,292.1,366.8,294.6,363.1,294.3C361.9,294.2,367.2,294.7,363.1,294.3z
	 M482.6,439.5c11.8-0.8,23.6-6.5,31.4-16c5-6.1,4.5-13.6,5.8-21.1c1.6-9.2-0.8-19.1-1.7-28.2c-0.7-7.5-3.8-14-5.3-20.9
	c0-1.5,0-3,0-4.5c-0.5-1.8-1.7-2.2-1.9-4.3c-0.4-3.2-3.2-5.2-4.2-8.2c-2.3-6.3-9.6-11.8-15-15.5c-6-4.1-12.6-5.5-19.9-4.9
	c-11.5,0.9-22.8,7.1-28.5,14.7c-8.4,11-10.7,26.5-11.6,40.1c-1.1,16.6,4.5,34.8,13,49c3.4,5.8,7.7,11.4,13.7,14.1
	C466.1,437.5,473.9,440.1,482.6,439.5C485.1,439.4,470.4,440.4,482.6,439.5z M330.6,331.4c-4.1,1.3-8.4,2.5-12.2,4.5
	c-5,2.5-5.4,6.7-9.2,10.2c-5.8,5.4-10.9,14.3-12.3,22.3c-1.8,10.1-6.1,19.3-6.4,30c-0.3,9.9,2.4,22,5.2,31.4
	c1.1,3.7,1.9,7.1,3.1,10.6c1.3,3.9,3.7,7,5.4,10.7c2.6,5.9,9.9,10.4,15.4,13.5c7.4,4.1,17.2,10,26.2,9c4-0.5,7.9-2.1,12-2.2
	c2.9,0,4.3,1,7.2,0.2c2.7-0.8,5.3-1.7,8.1-2.1c2.7-0.4,7.4-2.9,9.6-2.6c3.3,0.5,7.7-5.1,10.4-6.7c7.4-4.4,9.4-10.8,12.9-18.5
	c7.6-16.7,2.3-39-0.4-56.3c-2.6-16.5-8.3-39.3-23.1-49.1C368,326.5,346.7,326.4,330.6,331.4C323.6,333.5,334.5,330.2,330.6,331.4z
	 M462.9,519.7c14-14.1,5.8-38-6-50.5c-5.4-5.8-12.8-13.6-21.3-14.5c-10.9-1.2-15.7,3.6-17.6,13.4c-3.2,17.1-9.1,38.3-0.3,54.5
	c5,9.1,13.1,5.4,19.2-0.8c1.5-1.5,3.1-3.1,4.9-4.1c2.7-1.5,3.2,0,5.7,1.1C452.4,520.7,458,521.4,462.9,519.7
	C467.1,515.5,456.2,522,462.9,519.7z M487.1,529.5c-0.2-4.6-8.9-4.9-8.3-0.2C479.3,534.5,487.5,535.6,487.1,529.5
	C486.9,525.7,487.2,531.6,487.1,529.5z M416.8,535.6c-0.2,5,0.7,8.9,4.5,9.8C429.8,544.4,423.7,529.4,416.8,535.6z M391.1,537.1
	c0.8,3.7,3.5,17.8,9.6,10.7c3.1-3.7,0.3-7.1-1.5-10.8C397.1,533,393.8,534.9,391.1,537.1C392.2,542.3,392.7,535.8,391.1,537.1z"/>
<path fill="#FFFFFF" d="M487.9,329.1c5.6-0.8,13.1,13.2,14.4,17.3c3.1,9.7,6.5,18.7,7.6,28.9c1.1,9.9,7.8,43-6.9,46
	c3.8-15.5,2.5-31.9-1.5-47.1c-2-7.6-5-15.9-5.7-23.7C495.3,343.4,490,335.9,487.9,329.1C490.5,328.7,489.1,332.9,487.9,329.1z"/>
<path fill="#FFFFFF" d="M369.9,338.9c11.2,0,16,12.5,19.7,20.4c4.9,10.4,6.3,22,9,33.2c2.9,11.9,3.1,23.4,2.3,35.6
	c-0.5,8-3.7,23.4-13.6,25c2-10.6,4.4-21.1,4.4-31.9c0-5.1-0.4-9.9-2.2-14.8c-1.7-4.9-1.4-10.4-2.6-15.4c-1-4.2-0.2-8.4-0.2-12.6
	c-0.1-5.2-2.4-10.6-4.4-15.3c-1.8-4.4-4-8.7-6.4-12.9C374,346.8,370.4,342.8,369.9,338.9C370.4,338.9,370,339.8,369.9,338.9z"/>
<path fill="#FFFFFF" d="M169.4,406.2c8,3.3,8.3,18.8,9.8,25.7c2.5,11.3,4,22.9,6.7,34.1c5.3,22.6,17.7,41,30.2,60.1
	c2.8,4.3,6,8.4,10,11.6c5.6,0.5,11,2.2,16.2,4.3c11,4.4,22.5,7.3,33.5,11.6c9.7,3.8,20.7,6.2,29.8,11.4c1.9,1,19.9,15.3,17.6,5
	c-1.1-4.7-5.9-6.8-10-7.8c-4.6-1.2-5.9-5.5-10.9-6.5c-4.8-0.9-9.2-4.1-13.5-6.3c-5.9-3,3.4-3.3,5.4-4.1c4.1-1.6,9.1-0.8,13.4-1.2
	c4.2-0.4,8.2-2,12.5-2.4c5.4-0.5,10.8-0.7,16.1-1c2.8-0.1,5.5-0.3,8.3-0.5c3.8-0.3,4.2,1.9,5.6,5.2c3.5,8.2,4.6,17.3,8.1,25.5
	c1.7,3.9,4.8,6.9,6.2,10.8c2.1,5.8,6.4,9.5,11.7,12.2c3.8,1.9,12.4-0.8,12.9,3.6c0.5,5.1,2.4,7.9,4.5,12.4
	c4.4,9.6,15.2,19.3,24.2,24.8c16.7,10.3,32.3,22.6,49.7,31.3c4.4,2.2,9,3.7,13.3,6.1c5.4,2.9,4.5,5.3,0.4,9.4
	c-8.8,8.5-17.4,16.9-25.7,25.8c-8.7,9.3-17.2,18.6-25.8,27.9c-2.8,2-7.1,9.3-11,6.8c-3.2-2.1-5.8-7.9-8.1-11
	c-2.5-3.5-4.2-7.5-6.6-11c-2.4-3.3-5.6-5.8-8-9.2c-6.6-9.3-14-18-20.7-27.2c-5.4-7.3-10.4-14.8-15.9-21.9
	c-7.1-9.3-16.1-15.5-25.5-22.4c-3.9-2.9-6.3-4.9-11-6.3c-2.2-0.7-3.8-2.3-5.8-3c-2.5-0.8-4.6-0.6-7-1.9
	c-10.7-5.4-22.1-9.3-32.7-14.8c-4.9-2.5-9.5-5.3-14.5-7.6c-2.6-1.3-5.1-3.6-7.5-4.4c-3.5-1.1-7.3-4.6-10.8-6.4
	c-2.6-1.3-9.3-6-11.9-5.7c-3.6,0.5-10.2-4.2-13.5-5.6c-4.3-1.9-8.6-3.5-12.3-6.4c-4.2-3.4-7.6-7.1-12.4-10c-4.3-2.6-6.6-10.1-9-14.6
	c-12-23.1-19.6-49.3-20.3-75.3c-0.4-12.8-1.4-25.8-2.5-38.5c-0.5-6.1-1.4-12.1-1-18.2C161.9,416.9,164.6,406.2,169.4,406.2
	C173.8,408.1,169.2,406.2,169.4,406.2z"/>
<path fill="#FFFFFF" d="M128.6,421.4c5.6,3.4,7.6,15.4,9.1,21.2c2.4,9.8,8.4,18.6,12.1,28c1.3,3.2,3.2,4.2,5.6,6.6
	c2.9,2.8,1.4,10.7,2,14.6c1.1,8.6,5.5,17.8,4.5,26.5c-4.4-2-6.3-6.9-9.1-10.6c-2.6-3.4-6.3-7-8.3-10.6c-1.2-2.1-1.2-4.6-2.3-6.8
	c-1-2-2.7-3.4-3.8-5.3c0.3-5-2.6-8.1-3.3-12.6c-0.8-5.5-3.3-10.6-5-15.9c-1.8-5.5-1.8-10.8-3-16.2
	C126.1,436.3,118.3,418.9,128.6,421.4C132.5,423.8,126.3,420.8,128.6,421.4z"/>
<path fill="#FFFFFF" d="M457.6,512.1c-4.6-0.3-12.4-2.4-10.4-8.3c1.8-5.3-2.6-12.2-5.2-16.7c-2.7-4.7-2.5-10.3-4.9-15
	c-0.9-1.9-8.3-10-1.5-9.8c4.9,0.3,6.4,6.2,10.7,7.6c3,0.9,9,9.1,10.6,11.9C461.9,490.4,464.4,503.7,457.6,512.1
	C452.9,511.8,465.3,502.6,457.6,512.1z"/>
<path fill="#FFFFFF" d="M496.2,566.6c-2.7,4.3-8.9,4.4-13.4,4.5c-4.5,0.1-2.9-2-4-5.3c-0.8-2.4-3.2-4.8-2.5-7.5
	c1.4-6,6.4-8.3,12.2-6.2C493.4,553.9,494.9,562.2,496.2,566.6C493.6,570.8,495.6,564.6,496.2,566.6z"/>
<path fill="#FFFFFF" d="M469,580.2c-3.8,1.8-8.5,1.2-12.5,0.4c-5.3-1-5.9-2.1-6.1-7.4c-0.2-3.2-3-6.1-2.5-9.2
	c0.3-2.1,2.1-4.7,3.2-6.4c2.9-4.5,10.2-2.4,13.2,0.9C470.1,564.9,473.6,571.8,469,580.2C464.3,582.5,471.1,576.4,469,580.2z"/>
<path fill="#FFFFFF" d="M436.4,562.8c9.6,2.8,9.2,25.3-1.7,26.2C419.6,590.4,414.3,555.7,436.4,562.8
	C443.6,564.9,429.2,560.5,436.4,562.8z"/>
<path fill="#FFFFFF" d="M410.7,565.9c3.7,5,3.5,12.3,3.8,18.2c-3.9,1-7.7,6.2-11.6,2.3C394.9,578.5,399.7,565.7,410.7,565.9
	C413.8,570.1,406.6,565.8,410.7,565.9z"/>
<path fill="#FFFFFF" d="M391.1,573.4c0,6.1,2,13.4-5.9,14.4c-3.9,0.5-7.9-1.6-10.2-4.7C367.1,573,384.5,565.4,391.1,573.4
	C391.1,577.2,388.2,570,391.1,573.4z"/>
</svg>
