<?xml version="1.0" encoding="utf-8"?>
<!-- Generator: Adobe Illustrator 17.1.0, SVG Export Plug-In . SVG Version: 6.00 Build 0)  -->
<!DOCTYPE svg PUBLIC "-//W3C//DTD SVG 1.1//EN" "http://www.w3.org/Graphics/SVG/1.1/DTD/svg11.dtd">
<svg version="1.1" xmlns="http://www.w3.org/2000/svg" xmlns:xlink="http://www.w3.org/1999/xlink" x="0px" y="0px"
	 viewBox="0 0 612 792" enable-background="new 0 0 612 792" xml:space="preserve">
<g id="Layer_2">
</g>
<g id="Layer_1">
	<g>
		<path fill="#FFFFFF" d="M493.171,668.715c-4.61-2.623-8.343-6.804-13.523-8.384c-4.374-1.335-9.284-3.187-13.082-5.791
			c-4.503-3.087-9.206-5.288-13.855-8.106c-2.072-1.256-3.904-2.668-5.804-4.166c-2.377-1.873-5.471-2.217-7.419-4.553
			c-2.152-2.581-7.138-4.57-10.104-6.399c-4.023-2.481-8.185-4.831-11.996-7.636c-3.875-2.852-7.511-6.183-10.572-9.9
			c-3.012-3.658-3.792-10.242-7.436-13.143c-2.037-1.585-4.123-4.399-1.469-6.572c1.919-1.571,5.432,0.158,7.486,0.462
			c4.812,0.71,7.645-3.762,12.137-3.735c4.298,0.033,8.548,4.09,13.064,4.73c4.135,0.586,10.42,0.537,13.345-3.019
			c2.051-2.493,5.833-8.072,9.641-6.901c10.716,3.296,19.315,4.091,24.815-6.639c2.47-4.818,16.079-1.559,21.364-4.426
			c10.455-5.672-0.025-14.726-0.552-22.321c-0.354-5.189,2.621-9.987,2.164-15.335c-0.472-5.522-1.81-10.99-2.601-16.475
			c-1.858-12.88-4.686-25.91-5.642-38.887c-0.662-8.985,6.385-16.847,13.651-21.592c2.92-1.911,5.982-4.133,9.081-6.049
			c4.245-2.701,6.909-6.899,10.732-10.543c4.951-4.718,7.917-16.238,9.029-22.978c1.939-11.747,3.278-24.569,2.957-36.47
			c-0.336-12.482-2.911-24.73-5.57-36.884c-2.551-11.66-4.546-23.023-8.802-34.229c-3.988-10.503-9.088-15.981-18.13-22.444
			c-3.189-2.279-4.437-2.353-4.022-6.193c0.27-2.5-0.259-4.983-1.05-7.34c-1.652-4.926-3.221-10.411-5.58-15.041
			c-5.29-10.421-14.45-17.808-21.502-26.904c-6.849-8.835-14.273-17.052-20.85-26.037c-2.758-3.785-5.26-7.943-8.605-11.245
			c-3.527-3.482-7.612-6.738-9.557-11.45c-9.905-5.476-18.153-14.428-27.595-20.791c-4.503-3.035-10.072-4.09-15.068-6.036
			c-4.721-1.838-8.928-4.644-13.776-6.206c-9.656-3.11-19.255-2.135-29.021-2.518c-12.442-0.473-24.624,1.106-37.017,1.688
			c-5.561,0.261-11.218,0.171-16.689,1.344c-5.941,1.272-11.482,3.913-17.397,5.298c-10.247,2.375-20,5.389-29.9,9.397
			c-5.62,2.275-11.207,4.676-16.999,6.491c-6.271,1.963-12.685,2.461-18.41,5.923c-4.313,2.608-8.904,3.308-13.359,5.424
			c-4.717,2.222-8.692,5.947-13.362,8.369c-9.337,4.842-13.664,13.036-20.68,20.376c-6,6.341-12.016,14.555-16.72,21.927
			c-5.794,9.079-10.735,18.849-15.408,28.66c-1.983,4.164-1.948,10.154-3.471,14.909c-1.398,4.364-2.027,9.552-2.976,13.929
			c-2.788,13.08-4.473,26.564-5.19,39.911c-0.667,12.412-1.155,24.939-1.015,37.37c0.148,13.17,3.439,24.463,5.81,37.196
			c1.097,5.892-1.181,3.8-5.159,5.91c-5.414,2.872-7.974,5.44-7.061,11.745c1.606,11.096,5.692,21.869,7.868,32.762
			c3.477,17.402,9.827,38.256,21.112,52.195c13.43,16.588,30.209,33.264,38.56,53.247c2.347,5.615,8.23,9.228,12.402,12.566
			c3.23,2.577,6.374,5.107,9.467,8.283c3.115,3.198,9.518,4.414,13.519,6.292c21.977,10.315,42.171,24.288,64.755,33.089
			c9.673,3.779,19.48,7.568,29.011,12.277c5.208,2.573,10.448,5.105,15.888,7.156c5.614,2.117,10.919,7.814,15.565,11.735
			c7.255,6.124,11.075,14.297,16.907,21.514c7.767,9.611,13.993,20.828,22.369,29.886c6.578,7.113,12.978,15.94,18.342,24.099
			c2.999,4.562,6.171,8.951,9.282,13.431c4.602,6.627,0.814,6.703-3.532,11.114c-3.784,3.84-8.214,6.819-12.296,10.3
			c-1.771,1.51-3.286,2.153-5.436,2.926c-2.257,0.812-1.596,1.989-3.236,3.064c-3.096,2.087-8.497,4.673-12.105,6.049
			c-1.983,0.762-4.193,0.76-6.265,1.073c-2.426,0.366-2.984,1.842-5.255,2.427c-21.942,5.656-44.393,4.653-66.161-1.328
			c-5.266-1.447-10.609-2.755-15.798-4.459c-2.475-0.812-4.903-1.789-7.166-3.089c-2.053-1.18-2.12-2.613-3.736-3.69
			c-3.665-2.471-8.583-2.673-12.098-6.049c-3.409-3.234-8.078-6.574-12.066-9.059c-6.759-4.212-12.685-9.539-19.488-14.032
			c-7.627-5.037-15.754-9.543-23.678-14.624c-9.652-6.189-19.434-12.316-28.733-19.009c-6.945-5.006-14.375-8.897-21.179-13.621
			c-27.305-18.929-55.576-36.547-82.443-56.737c-7.313-5.493-14.65-11.052-21.645-16.97c-8.071-6.827-13.066-13.17-18.906-21.649
			c-2.901-4.211-4.619-9.128-7.098-13.579c-2.389-4.281-5.454-7.749-6.918-12.543c-1.504-4.922-2.48-9.789-4.967-14.349
			c-3.085-5.657-2.231-12.258-2.481-18.485c-1.03-24.445,0.412-48.93-0.758-73.369c-0.501-10.35,0.746-22.071-1.766-32.115
			c-1.411-5.64-0.904-11.794-0.923-17.554c-0.022-6.876-1.651-13.231-2.064-20.007c-1.419-23.328-0.116-47.243,0.822-70.978
			c0.488-12.338,1.935-24.306,2.917-36.557C6,276.137,6.216,263.622,9.081,251.945c2.26-9.362,7.622-21.536,13.614-29.495
			c0.559-0.751,1.616-2.327,2.267-3.025c1.284-1.347,1.782-3.128,3.025-4.533c0.734-0.321,1.492-0.572,2.274-0.751
			c0.014-0.505,0.014-1.011,0-1.516c1.357-1.394,4.931-3.314,6.801-5.281c5.151-5.417,10.85-10.431,16.645-15.148
			c6.426-5.221,12.035-11.793,18.744-16.585c5.231-3.736,9.99-9.662,15.673-12.5c2.656-1.326,4.159-3.896,6.76-5.352
			c1.311-0.686,2.612-1.393,3.9-2.12c4.066-2.449,0.153-1.115,1.815-2.777c2.021-1.959,10.876-5.8,11.698-9.468
			c0.404-1.802,6.955-6.568,8.724-7.922c3.106-2.329,7.207-5.479,10.73-7.382c3.804-2.055,6.33-5.34,10.497-7.299
			c4.353-2.046,8.29-6.534,12.062-9.56c6.857-5.502,13.566-10.536,20.418-15.837c13.789-10.633,26.593-20.512,40.092-31.011
			c3.339-2.62,7.251-3.915,10.59-6.8c3.661-3.193,7.017-6.567,10.59-9.846c3.709-3.399,8.25-5.925,12.158-9.115
			c1.949-1.591,3.837-3.159,6.003-4.454c3.041-1.818,4.22-5.008,7.391-6.623c8.447-4.304,15.436-8.775,24.89-11.714
			c10.033-3.118,20.656-5.424,31.083-6.678c11.575-1.392,20.59-3.774,32.323-1.351c5.082,1.05,9.785,2.937,14.736,4.397
			c5.743,1.684,11.021,2.232,16.068,5.782c7.318,5.147,14.443,11.395,20.91,17.588c6.788,6.5,14.086,12.022,21.372,18.127
			c17.074,14.306,34.724,29.43,49.568,45.681c15.604,17.083,34.22,31.24,51.58,46.515c16.332,14.37,31.495,29.818,46.301,45.751
			c5.671,6.103,10.523,13.707,15.845,19.484c3.508,3.865,6.051,7.213,9.074,11.348c3.027,4.13,8.017,8.607,8.714,13.917
			c0.578,4.402,2.645,8.342,3.085,12.999c0.548,5.797,0.912,11.568,1.94,17.31c2.265,12.653,2.341,24.611,2.171,37.439
			c-0.172,12.898,1.056,25.57,0.132,38.48c-0.765,10.695-0.695,20.821-0.74,31.524c-0.094,22.285,2.844,45.015,0.856,67.286
			c-0.924,10.351-2.793,20.937-2.672,31.35c0.104,9.005,1.02,18.178,1.217,27.368c0.2,9.315-0.625,18.982-2.226,28.173
			c-0.899,5.158-1.104,9.175-3.356,13.713c-1.054,2.125-1.259,4.232-1.686,6.529c-0.563,3.023-2.605,2.833-3.665,5.214
			c-4.493,9.85-13.365,17.708-20.782,25.859c-9.661,10.617-18.944,21.592-28.398,32.394
			C532.303,632.157,511.317,649.127,493.171,668.715C489.284,666.504,502.092,659.085,493.171,668.715z"/>
		<path fill="#FFFFFF" d="M478.806,488.706c0.986,2.332,2.856,1.552,4.789,1.653c3.465,0.182,2.158,4.264,2.402,6.742
			c0.582,5.916,1.724,11.755,2.912,17.573c1.152,5.643,2.347,11.289,3.019,17.015c0.334,2.846,0.538,5.71,0.545,8.576
			c0.011,4.146-3.454,3.96-7.263,4.39c-4.796,0.54-7.211-1.505-11.473,2.445c-1.589,1.472-2.999,3.114-4.771,4.385
			c-2.388-1.147-5.015-1.634-7.565-2.267c-4.343-1.083-8.305-2.542-12.529-0.115c-5.171,2.971-5.249,7.084-11.741,6.804
			c-4.716-0.204-9.512-0.586-14.205,0.126c-2.079,0.315-4.156,0.871-6.005,1.9c-2.672,1.488-4.231,0.621-7.251,0.253
			c-5.243-0.639-8.804,1.423-12.769,4.544c-4.765,3.752-9.478-0.334-15.341-0.122c-4.984,0.18-8.365,2.79-12.881,4.335
			c-3.228,1.104-5.014-6.364-5.41-9.099c-0.814-5.615-3.381-10.241-4.641-15.677c-1.493-6.438,2.996-6.694,8.119-7.561
			c3.052-0.517,7.1-1.092,8.658-4.202c2.31-4.612-4.27-5.052-6.984-4.092c-9.596,3.395-18.766,5.256-29.21,6.154
			c-12.762,1.098-25.408,1.876-38.082,3.843c-6.388,0.991-12.76,1.833-19.239,1.578c-4.785-0.188-14.285-2.209-18.667-0.018
			c-4.554,2.277-4.499,2.151-9.968-0.285c-5.406-2.408-10.951-4.479-16.503-6.522c-4.515-1.673-9.027-2.788-12.105-6.807
			c-2.236-2.932-3.38-6.808-5.298-9.832c-6.106-9.744-13.344-18.128-18.148-28.744c-4.669-10.337-7.71-20.84-9.455-32.032
			c-1.601-10.266-3.551-20.357-5.675-30.748c-1.499-7.261-5.192-23.677-14.372-24.962c-10.638-1.492-18.192,12.865-18.286,21.931
			c-0.127,12.251,1.598,24.833,2.405,37.066c-4.972,1.904-9.873-19.663-11.323-22.626c-1.152-2.353-2.447-4.632-3.807-6.87
			c0-2.937,0.232-4.771-1.1-7.411c-2.869-5.685-5.014-11.455-5.946-17.764c-1.677-11.349-4.803-21.821-4.003-33.465
			c0.181-2.637,0.28-5.519-1.049-7.923c0.78-1.959,1.268-3.956,1.516-6.049c0.813-7.069,0.56-14.199,0.681-21.299
			c0.199-11.735,3.77-22.696,4.692-34.333c0.735-9.281,4.913-18.171,5.439-27.652c0.312-5.612,3.291-8.752,5.82-13.538
			c1.902-3.588,3.254-9.133,6.056-12.105c3.085-3.262,6.661-6.128,8.367-10.432c1.782-4.493,6.796-8.444,10.188-12.172
			c6.529-7.177,10.048-15.12,18.512-20.512c4.427-2.817,8.817-5.7,13.426-8.216c5.293-2.89,11.1-3.897,16.388-6.743
			c9.192-4.947,19.796-6.748,29.583-10.031c11.397-3.823,22.659-7.76,34.16-11.295c9.357-2.876,18.612-3.492,28.441-4.448
			c13.276-1.291,26.771-1.682,40.102-1.997c11.695-0.277,22.644,1.987,33.378,6.681c4.077,1.783,6.77,4.318,11.215,5.201
			c3.738,0.742,9.294,3.311,12.65,5.136c6.076,3.272,11.109,9.518,17.27,13.083c5.617,3.25,7.63,10.228,11.79,14.924
			c4.983,5.625,8.097,13.004,12.76,18.914c4.957,6.283,10.785,11.777,15.668,18.125c3.742,4.901,8.006,8.904,11.356,13.831
			c2.523,3.712,6.066,6.58,8.541,10.319c2.458,3.715,2.626,8.293,4.598,12.236c3.792,7.581,2.084,13.761,9.888,18.956
			c3.191,2.124,6.428,4.681,9.05,7.483c2.459,2.627,2.633,6.398,4.513,9.403c3.631,5.802,3.368,12.795,6.35,18.974
			c3.391,7.024,3.157,16.524,4.511,24.253c1.594,9.101,3.06,18.246,3.731,27.468c0.718,9.866-1.191,19.058-1.435,28.823
			c-0.189,7.538-2.089,18.203-7.083,24.252c-5.532,6.702-11.275,10.784-18.198,15.585
			C490.182,462.259,480.536,473.062,478.806,488.706C480.197,491.995,479.307,484.18,478.806,488.706z M471.241,282.205
			c-6.327-3.632-14.228-3.691-21.342-3.809c-2.991-0.049-6.489-0.869-8.357,2.099c-1.889,3-0.092,6.015,2.971,6.873
			c6.211,1.739,14.299,1.645,20.746,2.414c3.058,0.365,5.846-1.998,8.523-3.241C477.138,284.985,472.029,282.66,471.241,282.205
			C468.14,280.425,472.423,282.887,471.241,282.205z M331.309,292.037c-1.961,0.588-3.984,1.426-6.056,1.516
			c-2.306,0.108-3.7-1.406-5.903-0.062c-2.332,1.422-8.277,3.421-10.955,3.101c-4.396-0.526-9.643,4.041-13.729,5.538
			c-6.094,2.232-10.743,4.586-15.517,9.078c-6.586,6.197-13.437,9.739-16.668,18.647c-4.317,11.907-6.503,22.871-6.755,35.558
			c-0.228,11.436-1.001,22.674-0.306,34.118c0.725,11.925,2.035,23.916,1.411,35.875c-0.256,4.912-1.132,8.49-3.788,12.634
			c-3.099,4.835-6.736,6.373-12.223,8.469c-4.139,1.581-8.956,4.007-13.39,4.493c-3.779,0.415-9.291-0.355-11.784,3.281
			c-5.033,7.34,15.86,3.725,18.09,3.244c7.653-1.647,16.689-4.159,22.571-9.449c15.265-13.727,7.98-44.87,7.431-62.382
			c-0.339-10.805,0.284-21.777,0.817-32.578c0.423-8.569,1.294-19.27,4.725-27.193c3.058-7.098,11.57-18.048,19.163-20.4
			c3.609-1.117,9.253-3.572,12.304-5.736c3.291-2.335,7.509-2.114,10.892-3.366c2.081-0.758,2.943-2.414,5.302-3.01
			c2.878-0.728,5.777-1.042,8.547-2.177C327.384,300.459,336.789,293.282,331.309,292.037
			C329.641,292.538,331.921,292.176,331.309,292.037z M363.071,294.304c-2.684-0.234-9.91-4.478-10.573,1.147
			c-0.635,5.387,9.314,6.438,13.435,6.848c4.528,0.45,10.571,1.39,10.064-4.669C375.537,292.122,366.828,294.649,363.071,294.304
			C361.875,294.199,367.229,294.686,363.071,294.304z M482.582,439.533c11.776-0.774,23.603-6.523,31.44-15.988
			c5.034-6.08,4.519-13.617,5.807-21.066c1.587-9.172-0.785-19.062-1.669-28.246c-0.718-7.458-3.817-14.022-5.326-20.919
			c0.007-1.513,0.007-3.027,0-4.54c-0.487-1.764-1.678-2.203-1.914-4.328c-0.353-3.174-3.151-5.24-4.227-8.176
			c-2.326-6.346-9.563-11.75-15.038-15.475c-6.01-4.1-12.558-5.454-19.887-4.87c-11.493,0.916-22.791,7.134-28.521,14.709
			c-8.396,10.989-10.696,26.543-11.594,40.14c-1.096,16.613,4.539,34.833,12.959,49.048c3.424,5.78,7.669,11.438,13.68,14.136
			C466.113,437.467,473.873,440.127,482.582,439.533C485.119,439.367,470.448,440.361,482.582,439.533z M330.552,331.364
			c-4.135,1.277-8.358,2.509-12.224,4.495c-4.962,2.55-5.436,6.703-9.186,10.184c-5.823,5.405-10.883,14.294-12.28,22.333
			c-1.751,10.075-6.099,19.328-6.391,29.958c-0.271,9.852,2.361,22.008,5.215,31.397c1.134,3.729,1.916,7.109,3.112,10.554
			c1.34,3.923,3.723,6.975,5.374,10.69c2.608,5.869,9.865,10.423,15.418,13.508c7.399,4.11,17.208,10.046,26.207,9.001
			c4.01-0.465,7.937-2.149,11.992-2.182c2.858-0.025,4.252,1.041,7.235,0.16c2.716-0.801,5.293-1.689,8.109-2.097
			c2.745-0.397,7.422-2.889,9.64-2.555c3.337,0.504,7.696-5.059,10.448-6.675c7.425-4.36,9.39-10.838,12.889-18.49
			c7.649-16.727,2.28-38.989-0.39-56.283c-2.553-16.533-8.323-39.286-23.073-49.134C368.05,326.486,346.676,326.429,330.552,331.364
			C323.64,333.498,334.459,330.168,330.552,331.364z M462.918,519.71c13.95-14.09,5.751-37.973-5.973-50.53
			c-5.422-5.808-12.787-13.554-21.263-14.531c-10.883-1.201-15.737,3.59-17.56,13.382c-3.175,17.06-9.073,38.333-0.295,54.495
			c4.96,9.132,13.096,5.353,19.183-0.791c1.514-1.528,3.054-3.072,4.944-4.143c2.714-1.538,3.176,0.049,5.735,1.118
			C452.389,520.676,458.024,521.38,462.918,519.71C467.09,515.496,456.215,521.997,462.918,519.71z M487.115,529.549
			c-0.24-4.594-8.877-4.9-8.347-0.216C479.348,534.457,487.451,535.64,487.115,529.549
			C486.913,525.697,487.226,531.565,487.115,529.549z M416.777,535.598c-0.229,5.013,0.702,8.879,4.54,9.825
			C429.849,544.449,423.668,529.423,416.777,535.598z M391.065,537.114c0.827,3.687,3.549,17.816,9.553,10.69
			c3.094-3.673,0.339-7.144-1.495-10.811C397.116,532.979,393.782,534.906,391.065,537.114
			C392.219,542.259,392.733,535.758,391.065,537.114z"/>
		<path fill="#FFFFFF" d="M487.873,329.104c5.588-0.79,13.106,13.175,14.442,17.33c3.121,9.703,6.468,18.697,7.627,28.904
			c1.123,9.895,7.842,42.972-6.939,46.041c3.78-15.51,2.47-31.858-1.542-47.143c-1.996-7.603-5.042-15.894-5.652-23.734
			C495.258,343.443,490.017,335.909,487.873,329.104C490.48,328.735,489.076,332.921,487.873,329.104z"/>
		<path fill="#FFFFFF" d="M369.878,338.936c11.161,0,16.009,12.463,19.663,20.428c4.888,10.447,6.301,21.978,9.017,33.213
			c2.872,11.88,3.059,23.44,2.338,35.609c-0.477,8.019-3.714,23.431-13.614,24.962c2.033-10.554,4.371-21.076,4.406-31.882
			c0.017-5.148-0.436-9.922-2.162-14.776c-1.728-4.86-1.378-10.387-2.594-15.435c-1.002-4.16-0.178-8.387-0.233-12.598
			c-0.068-5.172-2.438-10.561-4.395-15.275c-1.839-4.433-4.03-8.715-6.36-12.907C374.041,346.848,370.385,342.752,369.878,338.936
			C370.379,338.936,369.997,339.826,369.878,338.936z"/>
		<path fill="#FFFFFF" d="M169.434,406.249c7.983,3.32,8.31,18.811,9.832,25.72c2.495,11.329,4.048,22.872,6.692,34.149
			c5.292,22.575,17.683,41.013,30.196,60.113c2.809,4.289,5.99,8.407,10.011,11.635c5.611,0.5,10.991,2.157,16.193,4.254
			c11.006,4.437,22.504,7.256,33.457,11.59c9.668,3.826,20.742,6.178,29.768,11.385c1.864,1.036,19.929,15.28,17.595,4.964
			c-1.065-4.709-5.881-6.774-9.98-7.828c-4.613-1.187-5.865-5.543-10.903-6.453c-4.781-0.863-9.198-4.073-13.458-6.252
			c-5.94-3.038,3.38-3.307,5.398-4.094c4.066-1.571,9.136-0.846,13.402-1.217c4.235-0.368,8.179-1.959,12.47-2.362
			c5.365-0.504,10.755-0.7,16.135-0.974c2.759-0.141,5.519-0.295,8.274-0.509c3.815-0.297,4.201,1.887,5.628,5.199
			c3.54,8.212,4.569,17.263,8.116,25.472c1.702,3.939,4.82,6.884,6.237,10.769c2.104,5.77,6.403,9.464,11.709,12.195
			c3.781,1.946,12.433-0.758,12.857,3.592c0.502,5.147,2.445,7.9,4.489,12.4c4.369,9.616,15.221,19.251,24.203,24.823
			c16.683,10.349,32.318,22.602,49.685,31.317c4.371,2.193,9.035,3.747,13.348,6.067c5.432,2.922,4.53,5.334,0.367,9.359
			c-8.771,8.481-17.373,16.878-25.719,25.806c-8.654,9.258-17.236,18.582-25.795,27.927c-2.79,1.998-7.065,9.318-10.985,6.82
			c-3.25-2.07-5.823-7.86-8.087-10.995c-2.51-3.475-4.201-7.521-6.647-10.963c-2.37-3.26-5.636-5.797-8.01-9.161
			c-6.561-9.297-13.981-17.986-20.734-27.155c-5.357-7.263-10.41-14.758-15.881-21.937c-7.052-9.286-16.14-15.502-25.477-22.436
			c-3.884-2.884-6.323-4.853-11.044-6.337c-2.165-0.68-3.761-2.299-5.838-2.996c-2.507-0.836-4.574-0.631-7.043-1.892
			c-10.661-5.445-22.079-9.335-32.668-14.843c-4.85-2.523-9.548-5.262-14.47-7.649c-2.578-1.251-5.058-3.619-7.482-4.377
			c-3.529-1.104-7.276-4.622-10.824-6.393c-2.616-1.306-9.32-6.041-11.855-5.671c-3.643,0.532-10.182-4.179-13.491-5.639
			c-4.257-1.879-8.63-3.476-12.296-6.429c-4.243-3.418-7.642-7.091-12.365-9.974c-4.278-2.611-6.633-10.135-8.977-14.638
			c-12.008-23.071-19.557-49.331-20.348-75.333c-0.389-12.792-1.407-25.81-2.485-38.532c-0.509-6.056-1.429-12.133-0.991-18.226
			C161.903,416.905,164.591,406.249,169.434,406.249C173.814,408.071,169.183,406.249,169.434,406.249z"/>
		<path fill="#FFFFFF" d="M128.591,421.379c5.614,3.42,7.645,15.421,9.074,21.179c2.441,9.801,8.414,18.621,12.098,27.979
			c1.297,3.242,3.185,4.203,5.618,6.609c2.861,2.829,1.444,10.695,1.953,14.577c1.132,8.576,5.485,17.756,4.54,26.471
			c-4.407-2.032-6.325-6.924-9.081-10.576c-2.558-3.401-6.261-6.987-8.323-10.597c-1.206-2.113-1.173-4.649-2.267-6.807
			c-0.999-1.965-2.749-3.363-3.783-5.298c0.288-4.957-2.61-8.096-3.285-12.603c-0.828-5.527-3.281-10.604-5.023-15.865
			c-1.819-5.493-1.774-10.788-3.04-16.157C126.135,436.349,118.302,418.938,128.591,421.379
			C132.506,423.764,126.276,420.83,128.591,421.379z"/>
		<path fill="#FFFFFF" d="M457.62,512.145c-4.603-0.312-12.378-2.434-10.368-8.329c1.811-5.309-2.62-12.236-5.187-16.716
			c-2.672-4.665-2.509-10.263-4.866-15.04c-0.936-1.911-8.281-10.012-1.509-9.832c4.859,0.299,6.423,6.228,10.691,7.581
			c2.958,0.937,8.952,9.111,10.56,11.914C461.92,490.4,464.414,503.74,457.62,512.145
			C452.899,511.825,465.303,502.64,457.62,512.145z"/>
		<path fill="#FFFFFF" d="M496.203,566.609c-2.673,4.257-8.933,4.407-13.365,4.506c-4.496,0.101-2.905-2.018-4.032-5.271
			c-0.836-2.367-3.171-4.808-2.528-7.497c1.431-5.988,6.4-8.265,12.192-6.195C493.412,553.919,494.926,562.245,496.203,566.609
			C493.574,570.795,495.605,564.565,496.203,566.609z"/>
		<path fill="#FFFFFF" d="M468.967,580.223c-3.79,1.819-8.522,1.202-12.486,0.429c-5.268-1.027-5.885-2.124-6.139-7.366
			c-0.155-3.185-2.951-6.08-2.517-9.214c0.297-2.144,2.109-4.652,3.226-6.428c2.857-4.541,10.187-2.363,13.186,0.914
			C470.055,564.917,473.568,571.826,468.967,580.223C464.288,582.469,471.074,576.378,468.967,580.223z"/>
		<path fill="#FFFFFF" d="M436.441,562.826c9.614,2.847,9.192,25.258-1.746,26.216C419.608,590.363,414.346,555.744,436.441,562.826
			C443.602,564.947,429.195,560.504,436.441,562.826z"/>
		<path fill="#FFFFFF" d="M410.728,565.851c3.66,4.976,3.464,12.29,3.776,18.155c-3.892,1.043-7.659,6.221-11.609,2.343
			C394.922,578.519,399.672,565.74,410.728,565.851C413.822,570.058,406.584,565.809,410.728,565.851z"/>
		<path fill="#FFFFFF" d="M391.065,573.409c0,6.1,1.952,13.38-5.934,14.436c-3.94,0.527-7.852-1.578-10.212-4.652
			C367.068,572.967,384.513,565.434,391.065,573.409C391.065,577.191,388.249,569.981,391.065,573.409z"/>
	</g>
</g>
</svg>
