<?xml version="1.0" encoding="utf-8"?>
<!-- Generator: Adobe Illustrator 18.0.0, SVG Export Plug-In . SVG Version: 6.00 Build 0)  -->
<!DOCTYPE svg PUBLIC "-//W3C//DTD SVG 1.1//EN" "http://www.w3.org/Graphics/SVG/1.1/DTD/svg11.dtd">
<svg version="1.1" id="Layer_1" xmlns="http://www.w3.org/2000/svg" xmlns:xlink="http://www.w3.org/1999/xlink" x="0px" y="0px"
	 viewBox="0 0 20.6 29.7" enable-background="new 0 0 20.6 29.7" xml:space="preserve">
<g>
	<path fill="#F26859" d="M10.6,5.1c2.4-1.4,4.7-2.8,7.1-4.2c0.5-0.3,1.1-0.5,1.7-0.8c0.2-0.1,0.8,0.2,1,0.5c0.2,0.3,0.3,0.7,0.1,1.1
		c0,0.1-0.1,0.3-0.2,0.3c-1.3,1-1.9,2.6-3,3.8c-1.4,1.4-2.6,3.1-3.6,4.8c-0.3,0.4-0.1,1,0.3,1.3c1.2,0.7,2.3,1.5,3.3,2.5
		c0.8,0.8,0.9,2.7,0.1,3.4c-0.9,0.9-1.8,1.7-2.8,2.5c-1.1,0.9-2.2,1.6-3.2,2.6c-0.9,0.9-2,1.5-2.8,2.5c-1.5,1-2.8,2.1-4.1,3.3
		c-0.9,0.7-2,1.1-3.1,1.1c-0.1,0-0.2,0-0.4,0c-0.6,0-1.2-0.8-1-1.3c0.8-2,1.8-3.8,3.1-5.6c1.2-1.8,2.3-3.6,3.2-5.5
		c0.1-0.1,0.1-0.2,0.2-0.3c0.2-0.5,0.2-1-0.1-1.4C6,15,5.5,14.4,4.9,13.9C4,13,3,12.2,2.1,11.4c-0.3-0.3-0.2-1.1,0.1-1.3
		C2.3,10,2.4,9.9,2.5,9.8C5.2,8.3,7.9,6.7,10.6,5.1C10.7,5.1,10.6,5.1,10.6,5.1z"/>
</g>
<g>
</g>
<g>
</g>
<g>
</g>
<g>
</g>
<g>
</g>
<g>
</g>
</svg>
