<?xml version="1.0" encoding="utf-8"?>
<!-- Generator: Adobe Illustrator 18.1.1, SVG Export Plug-In . SVG Version: 6.00 Build 0)  -->
<!DOCTYPE svg PUBLIC "-//W3C//DTD SVG 1.0//EN" "http://www.w3.org/TR/2001/REC-SVG-20010904/DTD/svg10.dtd">
<svg version="1.0" id="Front" xmlns="http://www.w3.org/2000/svg" xmlns:xlink="http://www.w3.org/1999/xlink" x="0px" y="0px"
	 viewBox="0 0 197.3 269.3" enable-background="new 0 0 197.3 269.3" xml:space="preserve">
	<rect x="0" y="0" fill="#FFFFFF" width="197.3" height="269.3"/>
	<g>
		<path fill-rule="evenodd" clip-rule="evenodd" d="M131.8,51.7c-0.5,0.7-1.4,1.3-2.3,2c-0.2,0.1-0.4,0.3-0.6,0.5
			c-0.2,0.1-0.5,0.2-0.7,0.3c-0.4,0.3-0.7,0.7-1.2,0.9c-0.1,0.1-0.5,0-0.7,0.1c-0.2,0.1-0.3,0.2-0.5,0.2c-0.9,0.1-1.9-0.1-2.9-0.2
			c-0.9-0.1-1.8-0.1-2.7-0.3c-0.3-0.1-0.5-0.3-0.7-0.3c-0.5-0.2-1.1-0.2-1.6-0.3c-1-0.2-2.2-0.3-3.1-0.7c-0.1,0-0.2-0.2-0.2-0.2
			c-0.1,0-0.3,0-0.5,0c-1.5-0.4-3-0.9-4.5-1.4c-1-0.3-1.9-0.5-3.4-0.6c-1.6-0.1-4-0.2-5.7,0c-0.5,0.1-1,0.3-1.5,0.3
			c-0.5,0.1-1.1,0.1-1.5,0.2c-0.4,0.1-0.8,0.3-1.2,0.5c-0.6,0.3-0.9,0.5-1.7,0.7c-0.5,0.1-1.2,0.1-1.9,0.2c-0.3,0.1-0.6,0.2-0.9,0.3
			c-0.6,0.2-1.2,0.2-1.7,0.6c-0.6,0.4-1.6,0.9-2.2,1.6c-0.1,0.1-0.1,0.3-0.1,0.3c-0.1,0.1-0.6,0.4-0.7,0.6c-0.1,0.1-0.1,0.4-0.2,0.6
			c-0.2,0.4-0.5,0.8-0.7,1.4c-1.5,0.5-2.7,1.5-3.7,2.7c-0.2,0.3-0.4,0.6-0.6,0.8c-0.9,1-1.9,1.7-2.7,2.8c-0.4,0.1-0.2,0.8-0.5,1
			c-0.5,0.2-1,0.4-1.3,0.8c-0.5,0.3-0.9,0.5-0.9,1c-0.1,0.8,0.7,1.3,1.3,1.7c0.2,0.1,0.4,0.1,0.6,0.2c0.1,0.1,0.2,0.3,0.3,0.3
			c1,0.5,1.8,0.3,3.1-0.1c1-0.3,1.8-0.9,2.7-1.2c0.9-0.3,2.2-0.5,3-0.8c0.5,0.2-0.1,0.6-0.2,0.7c-0.2,0.2-0.5,0.5-0.7,0.7
			c-0.4,0.4-1,1-1.4,1.3c-0.2,0.1-0.5,0.1-0.8,0.2c-0.3,0.1-0.8,0.2-1,0.5c-0.1,0.1-0.2,0.2-0.2,0.2c-0.2,0.1-0.5,0.1-0.7,0.2
			c-0.2,0.1-0.4,0.3-0.6,0.5c-0.5,0.4-1.2,0.6-1.9,1c-0.1,0.1-0.1,0.3-0.2,0.3c-0.1,0.1-0.2,0-0.3,0.1c-0.2,0.1-0.4,0.3-0.6,0.3
			c-0.8,0.1-1.8-0.4-2.8-0.3c-0.4,0-0.9,0.1-1.4,0.2c-0.5,0.1-1,0.1-1.4,0.2c-0.9,0.2-1.7,0.8-2.4,1.2c-0.4,0.2-0.8,0.4-1.2,0.6
			c-0.7,0.3-1.2,0.7-2.2,0.7c-1.1,0-2.4-0.3-3.7-0.3c-0.8,0-1.6,0-2.3,0c-0.9,0-1.9,0-2.6,0.2c-0.1,0-0.3,0.2-0.3,0.2
			c-0.3,0.1-0.6,0-0.9,0.1c-1,0.3-1.6,0.4-1.9,1.3c-0.1,0.3-0.1,0.6-0.1,0.9c-0.1,0.6-0.4,1-0.1,1.7c0.4,1.1,1.7,1.5,3.1,1.5
			c0.8,0,1.7-0.3,2.4,0c0.9,0.3,0.9,1.4,1.3,2.3c0,0.1,0.2,0.2,0.2,0.3c0.1,0.2,0,0.3,0.1,0.5c0.4,0.7,1.1,0.9,1.4,1.6
			c0.4,0.2,0.9,0.4,1.4,0.7c0.4,0.2,0.7,0.6,1.3,0.7c1.1,0.2,2.2-0.3,3.4,0c0.1,0.7-0.3,1.6-0.5,2.4c-0.2,0.7-0.5,2.4-0.5,3.5
			c0,0.9,0.5,1.6,0.3,2.3c-1.3,0.1-1.8-0.4-3.3-0.2c-0.5,0.1-1.1,0.3-1.6,0.5c-0.4,0.1-0.7,0.2-1,0.3c-0.7,0.3-1.4,0.6-2.1,0.6
			c-0.9,0-1.4-0.3-2.2-0.6c-0.1,0-0.3,0-0.5,0c-0.1,0-0.2-0.2-0.2-0.2c-0.2-0.1-0.6,0-0.8,0c-0.4-0.1-1.4-0.3-2.1-0.3
			c-1.3,0-3.1,0.3-4.1,0.8c-1,0.5-1.7,1.4-2.4,2.3c-0.1,0.1-0.1,0.1-0.2,0.2c-0.2,0.2-0.4,0.4-0.7,0.7c-0.1,0.1-0.6,0.9-0.6,1
			c0,0.4,0.2,0.9,0.2,1.2c0.1,0.4,0.5,1,0.9,1.3c0.1,0.1,0.3,0,0.3,0c0.1,0,0.1,0.2,0.1,0.2c0.4,0.2,1,0.5,1.5,0.7
			c0.8,0.3,2.5,0.4,3.7,0.5c1.6,0.1,2.8,0.4,3.6,1.4c0.1,0.1,0,0.2,0.1,0.3c0,0.1,0.2,0.1,0.2,0.1c0.1,0.1,0,0.3,0.1,0.3
			c0.8,0.8,1.8,1.9,2.9,2.6c0.8,0.5,1.9,0.9,3.4,0.9c0.5,0,1-0.1,1.4-0.1c1.3-0.1,2.2-0.4,3.1-1c0.5-0.4,1.6-1.3,2.8-0.8
			c0.7,0.3,1.2,1.9,1.7,2.8c0,0.1,0.2,0.2,0.2,0.2c0.2,0.4,0.6,1.1,0.8,1.4c1.3,1.8,3.1,3,4.3,4.4c-0.1,0.8,0.1,1.2,0.2,1.5
			c0.1,0.4,0.4,0.8,0.3,1.3c0,0.4-0.5,1.2-0.7,1.6c-0.5,1.1-1.1,1.9-1.6,3c-0.2,0.4-0.4,0.8-0.6,1.2c-0.4,0.7-1.2,1.2-1.9,1.7
			c-0.6,0.5-1.2,1-1.5,1.6c-0.1,0.2-0.1,0.5-0.1,0.8c-0.2,0.8-0.1,1.4,0.3,2.3c0.1,0.2,0.4,0.4,0.5,0.6c0.2,0.3,0.2,0.5,0.3,0.7
			c0.5,0.7,1.6,1.4,2.3,2.2c0.2,0.3,0.5,0.7,0.8,0.9c0.1,0.1,0.3,0,0.3,0.1c0,0,0.1,0.2,0.1,0.2c0.2,0.1,0.5,0.2,0.8,0.3
			c0.5,0.3,1.2,0.7,1.9,1c0.1,0.1,0.1,0,0.2,0.1c0.1,0.1,0.9,0.6,1.3,0.7c0.2,0.1,0.3,0,0.5,0.1c0.5,0.3,1,0.6,1.5,0.8
			c0.5,0.2,1,0.2,1.5,0.3c0.8,0.3,1.7,0.9,2.6,1.2c0.9,0.3,1.8,0.3,2.8,0.5c0.2,0,0.4,0.2,0.6,0.2c0.3,0,0.5,0,0.8,0
			c0.4,0.1,0.9,0.2,1.3,0.2c0.6,0,1.3-0.1,2,0c0.9,0.1,1.6,0.4,2.6,0.3c0.5,0,1-0.2,1.5-0.2c0.9-0.1,1.9-0.1,2.8-0.2
			c0.4-0.1,0.8-0.2,1.3-0.2c1.3-0.2,2.4-0.5,3.7-0.7c0.4-0.1,0.9-0.2,1.3-0.2c0.4-0.1,0.9,0,1.3-0.1c0.5-0.1,1.2-0.4,1.9-0.6
			c0.5-0.1,0.8-0.2,1.4-0.3c0.8-0.2,1.6-0.6,2.4-1c0.7-0.3,1.4-0.6,2-0.9c0.4-0.2,0.8-0.5,1.2-0.8c0.2-0.1,0.4-0.4,0.6-0.5
			c0.2-0.1,0.5-0.1,0.7-0.2c0.5-0.3,0.9-1,1.5-1.5c0.1-0.1,0.3,0,0.3-0.1c0.9-0.9,2.1-2.1,2.9-3.3c0.1-0.1,0.3-0.2,0.3-0.3
			c0.1-0.2,0.1-0.3,0.2-0.5c0.1-0.1,0.3-0.2,0.3-0.3c0.2-0.3,0.2-0.7,0.3-1c0.1-0.4,0.4-0.7,0.5-0.9c0.2-0.8,0.1-2-0.1-2.7
			c-0.5-1.2-1.7-1.5-3.1-1.9c-0.4-0.1-0.9-0.4-1.4-0.2c-0.5-1.2-1.5-1.9-2.3-2.8c-0.4-0.5-0.7-1-1.2-1.4c-0.4-0.4-1-0.7-1.3-1.3
			c0.2-0.4,0.4-1,0.3-1.6c0-0.7-0.2-1.2-0.5-1.6c0.3-0.8,1.1-1.2,1.6-1.9c0.5-0.6,1-1.3,1.4-2.1c0.6-0.9,1.1-1.9,1.6-3
			c0.3-0.5,0.6-1,0.8-1.5c0.2-0.5,0.3-1.2,0.6-1.7c0.2-0.5,0.6-0.9,0.8-1.4c0.1-0.3,0-0.6,0.1-0.9c0.2-0.6,0.6-1.4,0.8-2.2
			c0.1-0.2,0.1-0.4,0.1-0.5c0.2-0.7,0.5-1.8,0.7-2.8c0.6-0.3,1.3-0.3,1.9-0.5c0.5-0.2,1-0.8,1.5-0.5c0.5,0.1,0.4,0.7,0.5,0.9
			c0.3,0.7,0.6,1.1,1.4,1.6c0.1,0.1,0.4,0.1,0.6,0.2c0.6,0.3,1.5,0.7,2.4,0.9c0.2,0.1,0.4,0.2,0.6,0.2c0.6,0.1,1.2,0.1,1.9,0.1
			c0.6,0,1.2,0.1,1.7,0.1c0.3,0,0.5-0.2,0.8-0.2c0.6-0.1,1.1-0.1,1.5-0.3c0.3-0.2,0.5-0.4,0.8-0.7c0.1-0.1,0.2-0.3,0.3-0.3
			c0.1-0.1,0.4,0,0.6-0.1c0.2-0.1,0.4-0.3,0.7-0.5c0.2-0.1,0.1,0,0.2-0.1c0.3-0.3,1.3-0.7,1.7-0.9c0.6-0.4,1.5-1.2,2-2.1
			c0.2-0.3,0.4-0.7,0.5-0.8c0.2-1.1,0-2.3-0.5-2.8c0,0-0.2-0.1-0.2-0.1c0,0,0-0.2,0-0.2c-0.1-0.1-0.3,0-0.3-0.1
			c-0.4-0.4-0.7-0.8-1.2-0.9c-0.6-0.2-2.2-0.3-3-0.1c-0.9,0.2-1.6,0.6-2.6,0.8c-0.5,0.1-0.8,0.3-1.4,0.1c-0.3-0.1-0.6-0.3-0.9-0.5
			c-0.6-0.3-1.6-0.6-2.3-0.8c-1.3-0.5-2.8-0.9-4.2-1c-1.3-0.1-2.5,0-3.4,0.6c-0.3,0.2-0.5,0.6-1,0.5c-0.3-0.3-0.3-0.8-0.3-1.3
			c-0.2-1.2-0.3-2.8-0.7-4c0.8,0,1.6-0.1,2.3-0.2c0.8-0.1,1.5-0.2,2.1-0.6c0.4-0.3,0.6-0.6,0.8-1c0.5-1,0.8-2.3,1-3.7
			c0.9-0.3,2-0.5,3-0.8c0.5-0.1,1.1-0.2,1.5-0.5c0.3-0.2,0.6-0.7,0.8-1c-0.4-1.2-1.3-2-2.2-2.4c-0.5-0.2-2.1-0.5-3-0.6
			c-0.9,0-2,0-3,0.1c-1,0.1-2,0.4-2.9,0.2c-0.7-0.1-1.4-0.7-2.1-1c-0.2-0.1-0.4-0.1-0.6-0.2c-0.4-0.3-0.5-0.6-0.9-0.8
			c-0.4-0.2-0.8-0.2-1.2-0.6c0.1-0.7,0.4-1.2,0.7-1.7c0.3-0.5,0.5-1.2,0.8-1.6c0.8-1.1,2.2-1.5,3.4-2.2c0.8-0.5,1.4-1.2,2.1-1.7
			c1.6,0,3.3-0.3,4.8-0.7c0.2-0.1,0.4-0.2,0.6-0.2c0.3,0,0.5,0.1,0.8,0c0.4-0.1,0.8-0.3,1.3-0.3c1.6-0.3,3.6-0.6,5.6-0.9
			c0.6-0.1,1.3-0.2,1.5-0.1c0.4,0.1,0.3,0.3,0.6,0.8c0.1,0.2,0.4,0.5,0.6,0.8c0.4,0.7,0.7,1.4,0.9,1.9c0.8,1.4,1.6,2.4,2.2,3.4
			c0.2,0.3,0.3,0.6,0.5,0.9c0.5,0.8,1.1,1.7,1.5,2.7c0.1,0.3,0.2,0.7,0.3,1c0.3,0.7,0.6,1.3,0.8,2c0.1,0.2,0.1,0.4,0.1,0.6
			c0.1,0.2,0.2,0.3,0.2,0.5c0.1,0.5,0.1,1.2,0.2,1.9c0.1,0.3,0.2,0.5,0.2,0.8c0.2,1.3,0.3,2.9,0.6,4.4c0.1,0.3,0,0.6,0.1,0.9
			c0.1,0.5,0.3,0.9,0.5,1.6c0.2,1.3,0.6,3,0.7,4.3c0.1,1,0,2-0.1,3c-0.1,1,0,2.1-0.1,3c-0.1,0.9-0.3,1.7-0.3,2.6
			c-0.1,1.2-0.2,2.4-0.5,3.4c-0.4,1.4-0.7,3.6-1,5.2c-0.1,0.5-0.2,1-0.3,1.5c-0.2,1-0.3,2-0.6,3c-0.1,0.2-0.2,0.5-0.2,0.7
			c-0.2,0.7-0.4,1.2-0.7,2c-0.2,0.4-0.4,0.8-0.6,1.2c-0.4,0.9-0.6,1.8-0.9,2.6c-0.2,0.4-0.4,0.9-0.6,1.3c-0.2,0.4-0.4,0.8-0.6,1.2
			c-0.2,0.4-0.3,0.9-0.5,1.3c-0.3,0.6-0.7,1-1,1.6c-0.1,0.1,0,0.2-0.1,0.3c-0.1,0.2-0.4,0.5-0.6,0.8c-0.1,0.1,0,0.3-0.1,0.3
			c-0.1,0.1-0.4,0.4-0.6,0.7c-0.2,0.3-0.3,0.5-0.5,0.8c-0.1,0.2-0.2,0.4-0.3,0.6c-0.2,0.3-0.7,0.8-0.9,1.2c-0.2,0.3-0.4,0.7-0.7,1
			c-0.5,0.7-1,1.3-1.5,2c-0.1,0.2-0.2,0.4-0.3,0.6c-0.4,0.4-0.9,0.9-1.3,1.4c-0.5,0.6-1,1.3-1.6,1.9c-0.3,0.3-0.7,0.5-1,0.8
			c-0.5,0.5-0.8,0.9-1.4,1.3c-0.2,0.1-0.3,0.2-0.5,0.3c-0.7,0.5-1.5,1.1-2.3,1.7c-0.2,0.1-0.4,0.2-0.6,0.3c-0.1,0.1-0.3,0.2-0.5,0.3
			c-0.2,0.1-0.5,0.3-0.8,0.5c-0.1,0.1-0.1,0.2-0.2,0.2c-0.2,0.1-0.4,0.2-0.6,0.3c-1,0.7-2.3,1.3-3.7,1.9c-0.4,0.1-0.6,0.4-1.3,0.5
			c-1.2,0.6-2.4,1.4-3.6,2.1c-0.6,0.4-1.2,0.7-2,0.9c-0.8,0.2-1.8,0.3-3,0.5c-0.7,0.1-1.4,0.3-2.1,0.5c-3,0.5-6.2,0.5-9.5,0.3
			c-1.6-0.1-3.3,0.1-4.9,0.1c-0.9,0-1.7-0.2-2.6-0.3c-0.4-0.1-0.9,0-1.3-0.1c-0.3-0.1-0.7-0.3-1-0.3c-0.7-0.1-1.4,0-2.1-0.1
			c-1.2-0.1-2.4-0.3-3.6-0.6c-0.2-0.1-0.5-0.3-0.7-0.3c-0.3-0.1-0.6,0-0.9-0.1c-2.4-0.6-4.6-1.1-6.3-2.2c-1-0.3-1.9-0.9-2.9-1.4
			c-1-0.5-2-0.8-2.9-1.3c-0.2-0.1-0.4-0.4-0.7-0.5c-0.2-0.1-0.6-0.1-0.8-0.2c-0.5-0.2-0.9-0.5-1.4-0.7c-0.5-0.2-0.9-0.4-1.4-0.7
			c-0.1-0.1-0.2-0.2-0.3-0.2c-0.6-0.3-1.2-0.6-1.7-1c-0.2-0.2-0.5-0.4-0.7-0.6c-0.3-0.2-0.6-0.3-0.8-0.5c-0.2-0.2-0.4-0.4-0.6-0.6
			c-0.9-0.8-1.6-1.6-2.4-2.4c-0.8-0.8-1.6-1.6-2.4-2.4c-0.8-0.8-1.7-1.6-2.6-2.3c-0.4-0.4-0.9-0.8-1.3-1.3c-0.4-0.4-0.8-0.8-1.2-1.3
			c-0.2-0.2-0.3-0.5-0.5-0.8c-0.2-0.2-0.4-0.4-0.6-0.6c-0.2-0.2-0.3-0.5-0.5-0.8c-0.3-0.4-0.7-0.8-1-1.4c-0.1-0.1,0-0.1-0.1-0.2
			c-0.2-0.2-0.6-0.9-0.8-1.3c-0.4-0.7-0.8-1.5-1.2-2.4c-0.1-0.3-0.2-0.7-0.3-0.9c-0.1-0.3-0.4-0.5-0.5-0.7c-0.1-0.2,0-0.5,0-0.7
			c-0.1-0.4-0.4-1-0.6-1.5c-0.2-0.7-0.3-1.5-0.6-2.2c-0.2-0.5-0.5-0.9-0.7-1.4c-0.1-0.2-0.1-0.5-0.2-0.8c-0.1-0.2-0.3-0.5-0.3-0.7
			c-0.2-0.5-0.3-1.1-0.5-1.6c-0.2-0.5-0.5-0.9-0.6-1.4c-0.1-0.2-0.1-0.5-0.1-0.8c-0.2-1.3-0.3-3.1-0.6-4.5c-0.2-0.9-0.2-2.5-0.2-3.7
			c-0.1-1.5-0.1-2.6,0-4.2c0-0.2,0.1-0.6,0.1-0.7c0-0.2-0.1-0.5-0.1-0.7c0-1,0.1-2,0.1-2.9c0.1-2.1,0-4.2,0.3-6.2
			c0.1-0.9,0.5-1.8,0.7-2.7c0.1-0.7,0.2-1.3,0.3-2.1c0.2-0.9,0.7-2.2,0.9-3.3c0.1-0.5,0.2-0.9,0.3-1.3c0.6-1.9,1.5-4,2.4-5.8
			c0.4-0.8,0.7-1.6,1-2.3c0.4-0.8,0.8-1.6,1.3-2.4c0.1-0.1,0.2-0.2,0.2-0.2c0.1-0.2,0.1-0.4,0.2-0.6c0.1-0.1,0.2-0.3,0.3-0.5
			c0.3-0.4,0.6-1,0.9-1.5c0.2-0.3,0.2-0.5,0.5-0.8c0.2-0.3,0.6-0.8,0.9-1.2c0.2-0.3,0.5-0.6,0.7-0.9c0.5-0.6,1.1-1.1,1.6-1.6
			c1.1-1.1,2.1-2.3,3.3-3.4c0.1-0.1,0.3,0,0.3-0.1c0.4-0.3,1-1,1.5-1.4c0.3-0.2,0.6-0.5,0.9-0.7c0.1-0.1,0.3,0,0.3-0.1
			c0.3-0.3,0.7-0.7,1.3-0.9c0.5-0.2,0.9-0.3,1.3-0.6c0.3-0.2,0.7-0.7,1.2-0.9c0.6-0.3,1.3-0.5,1.9-0.8c0.6-0.3,1.1-0.8,1.6-1
			c0.3-0.1,0.8-0.1,1.2-0.2c0.1,0,0.3-0.2,0.5-0.2c0.7-0.2,1.7-0.5,2.4-0.8c0.3-0.1,0.6-0.3,0.9-0.5c0.6-0.3,1.2-0.5,1.9-0.8
			c0.3-0.1,0.5-0.4,0.8-0.5c0.5-0.2,1.1-0.2,1.6-0.3c0.4-0.1,0.9-0.5,1.3-0.6c0.2-0.1,0.6,0,0.8,0c0.2,0,0.4-0.2,0.6-0.2
			c1.1-0.2,2-0.4,3.1-0.7c0.2,0,0.3-0.2,0.5-0.2c0.3,0,0.8,0.1,1.2,0c0.6-0.1,1.1-0.4,1.6-0.6c0.7,0.2,1.5-0.2,2.2-0.2
			c0.9-0.1,1.8-0.1,2.7-0.1c0.8,0,1.8-0.1,2.9,0c0.3,0,1.4,0.1,1.9,0.2c0.3,0.1,0.5,0.2,0.8,0.2c0.7,0.2,1.9,0.3,2.8,0.3
			c0.4,0,0.8-0.1,1.2-0.1c0.6,0,1.3,0.2,1.9,0.2c0.7,0.1,1.3,0,1.9,0.1c0.3,0.1,0.7,0.2,1,0.3c0.4,0.1,0.8,0.1,1.2,0.2
			c0.7,0.2,1.4,0.5,2.1,0.7c0.7,0.2,1.4,0.4,2.1,0.7c0.5,0.2,0.9,0.3,1.5,0.6c1.1,0.4,3,0.6,4.4,0.9c0.2,0,0.4,0.2,0.6,0.2
			c0.6,0.1,1,0.1,1.6,0.3c0.3,0.1,0.6,0.2,0.9,0.3c1.5,0.5,2.8,1.4,4.3,2.1c0.3,0.2,0.7,0.2,0.9,0.3c0.2,0.1,0.4,0.4,0.7,0.6
			C130.7,50.3,131.6,50.6,131.8,51.7z"/>
		<path fill-rule="evenodd" clip-rule="evenodd" d="M141.9,61.8c-0.9,0-1.8,0.1-2.6,0.3c-0.5,0.1-1.5,0.3-2.1,0.5
			c-1.2,0.2-2.5,0.4-3.8,0.7c-0.9,0.2-1.7,0.3-2.6,0.5c-0.4,0.1-0.8,0.3-1.2,0.3c-0.5,0.1-1,0-1.4,0.1c-0.5,0.1-0.9,0.6-1.4,0.5
			c-0.3,0.3-0.5,0.5-0.8,0.7c-0.2,0.2-0.4,0.5-0.7,0.7c-0.2,0.1-0.5,0.1-0.7,0.2c-0.2,0.1-0.3,0.3-0.5,0.3c-0.4,0.2-0.8,0.3-1.2,0.6
			c-0.2,0.2-0.4,0.5-0.7,0.7c-0.3,0.2-0.6,0.4-0.8,0.6c-0.1,0.1-0.1,0.3-0.1,0.3c-0.1,0.1-0.2,0.2-0.2,0.2c-0.2,0.3-0.2,0.7-0.3,1
			c-0.2,0.5-0.6,1.1-0.9,1.7c-0.1,0.3-0.2,0.7-0.3,0.9c0,0-0.2,0.1-0.2,0.1c0,0.1,0,0.2,0,0.2c0,0-0.2,0.1-0.2,0.1
			c-0.1,0.2-0.4,0.5-0.6,0.8c-0.3,0.5-0.5,1.1-1,1.3c-0.2,1.4-1.4,2-2.2,3c-0.2,0.2-0.3,0.5-0.5,0.7c-0.2,0.2-0.5,0.3-0.8,0.6
			c-0.5,0.4-0.8,0.8-1.4,1.2c-0.3,0.2-0.5,0.3-0.8,0.5c-0.5,0.3-1,0.7-1.5,0.9c-0.1,0.1-0.4,0-0.6,0.1c-0.3,0.1-0.7,0.4-1.2,0.6
			c-0.3,0.1-0.6,0.2-0.9,0.3c-0.7,0.3-1.7,0.7-2.8,0.3c-0.1-0.5,0.2-1,0.5-1.4c0.2-0.3,0.4-0.6,0.6-0.9c0.4-0.7,1.4-1.4,2-2.1
			c0.8,0,1.2-0.6,1.7-1c0.6-0.5,1-0.8,1.5-1.4c0.2-0.2,0.6-0.5,0.7-0.7c0.2-0.3,0.3-0.8,0.5-1.2c0.4-0.9,1.1-2.4,1-3.8
			c0-0.3-0.4-0.3-0.6-0.3c-1.4-0.5-3.8-0.3-5.6-0.7c-0.2,0-0.4-0.2-0.7-0.2c-1.4-0.3-2.9-0.5-4.4-0.9c-0.2-0.1-0.4-0.2-0.6-0.2
			c-1.5-0.2-3.2,0.2-4.4,0.5c-0.7,0.2-1.4,0.3-2.1,0.6c-1.1,0.4-1.8,0.7-2.7,1.4c-0.4,0.3-1,0.5-1.5,0.8c-0.6,0.4-1.1,1-1.6,1.4
			c-0.2,0.1-0.3,0.2-0.5,0.3c-0.1,0.1-0.2,0.3-0.3,0.3c-0.1,0.1-0.4,0.1-0.6,0.2c-0.2,0.2-0.4,0.4-0.7,0.5c-0.8,0.2-2,0.1-3.1-0.1
			c0.4-0.8,1.1-1.3,1.7-2c0.6-0.6,1.1-1.3,1.7-1.9c0.3-0.3,0.7-0.5,1-0.8c0.7-0.7,1.4-1.5,2.3-2.2c0.1-0.1,0.2,0,0.3-0.1
			c0,0,0.1-0.2,0.1-0.2c0.2-0.1,0.6-0.1,0.8-0.2c0.2-0.1,0.4-0.3,0.6-0.3c0.2-0.1,0.4-0.1,0.7-0.2c0.8-0.3,1.8-0.8,2.8-1
			c0.3-0.1,0.6,0,0.8-0.1c0.8-0.2,1.9-0.7,2.8-1c0.4-0.1,1.1-0.1,1.4-0.5c0.3-0.4,0.3-0.7,0.2-1.4c-0.5-0.1-1,0.3-1.5,0.5
			c-1.5,0.5-3.4,0.9-5,1.5c-0.7,0.3-1.4,0.7-2.2,0.7c-0.6,0.4-1.5,0.8-2.3,1.2c-0.6,0.3-1.7,0.5-2.4,0.8c-0.2,0.1-0.5,0.3-0.8,0.3
			c-0.9,0.3-2.4,0.3-3.3,0.7c-0.1,0-0.2,0.2-0.2,0.2c-0.1,0-0.2,0-0.3,0c-0.7,0.3-1.4,0.6-2.2,0.8c-0.2,0.1-0.5,0-0.7,0.1
			c-0.3,0.1-0.2,0.2-0.5,0.2c-0.7,0-1.3-0.6-1.7-0.9c0-0.7,0.7-0.9,1.2-1.2c0.4-0.3,1-0.6,1.4-0.8c0.9-0.5,1.9-1,2.9-1.5
			c0.5-0.3,1-0.6,1.5-0.8c0.1,0,0.3-0.2,0.3-0.2c0.4-0.1,0.6,0,0.9-0.2c0.1,0,0.2-0.2,0.2-0.2c1-0.5,2.3-0.5,3.1-1.3
			c0.7,0,1.3-0.4,1.9-0.6c1-0.4,3-0.5,4.2-0.8c1.1-0.2,2.2-0.6,3.3-0.9c0.4,0,0.9,0,1.3,0c0.1-0.4,0.3-0.8,0.3-1.3
			c-1.6-0.3-3,0.4-4.4,0.7c-1.2,0.3-2.3,0.3-3.5,0.6c-0.1,0-0.3,0.2-0.5,0.2c-0.2,0-0.4,0-0.6,0c-0.4,0.1-0.8,0.3-1.3,0.5
			c-0.7,0.3-1.5,0.7-2.4,1c-0.2,0.1-0.5,0-0.7,0.1c-0.1,0-0.2,0.2-0.2,0.2c-0.1,0-0.2,0-0.3,0c-0.4,0.2-0.8,0.4-1.2,0.6
			c-0.4,0.2-0.9,0.3-1.3,0.5c-0.8,0.4-1.5,0.9-2.3,1c0.1-0.5,0.7-0.8,1-1.2c0.4-0.5,1-1.4,1.6-1.9c0.1-0.1,0.3-0.1,0.5-0.2
			c0.4-0.3,0.7-0.4,1.3-0.7c1-0.4,2.4-1,3.7-1.4c0.5-0.2,1-0.2,1.5-0.3c0.1,0,0.2-0.2,0.2-0.2c0.1,0,0.3,0,0.5,0
			c0.2-0.1,0.4-0.3,0.6-0.3c0.4-0.1,0.6-0.1,1.2-0.2c0.1,0,0.2-0.2,0.2-0.2c0.5-0.2,0.9-0.3,1.4-0.5c0.9-0.3,2-0.4,2.6-1.2
			c-0.2-0.6-0.7-0.4-1.2-0.3c-1.4,0.1-2.6,0.7-3.8,1c-0.2,0.1-0.4,0.1-0.7,0.2c-0.5,0.2-1.2,0.4-1.9,0.6c-0.8,0.3-1.6,0.7-2.4,0.8
			c-0.3-0.5,0.4-0.9,0.7-1.3c0.7-0.7,1.4-1.3,2.4-1.7c0.2-0.1,0.5-0.1,0.8-0.2c0.2-0.1,0.5-0.3,0.7-0.3c0.5-0.1,1,0,1.5-0.1
			c0.2,0,0.4-0.2,0.6-0.2c0.6-0.1,1.2-0.2,1.9-0.5c0.4-0.1,0.7-0.4,1-0.5c0.5-0.1,1-0.2,1.5-0.2c1.3-0.2,2.8-0.3,4.7-0.2
			c0,0,0.2,0.1,0.3,0.1c0.1,0,0.2-0.1,0.3-0.1c0.3,0,0.6,0.2,0.9,0.2c1.4,0.1,2.5,0,3.5,0.3c0.1,0,0.3,0,0.5,0.1
			c0.2,0.1,0.4,0.4,0.7,0.5c0.2,0.1,0.4,0,0.6,0c0.3,0.1,0.8,0.3,1.3,0.5c0.3,0.1,0.6,0.1,0.9,0.2c0.9,0.3,1.8,0.4,2.8,0.7
			c0.3,0.1,0.6,0.1,0.9,0.2c0.3,0.1,0.5,0.3,0.8,0.3c1.2,0.3,2.6,0.4,4,0.7c2.4,0.5,4.2,0.9,6.2,0c0.5-0.2,1-0.8,1.6-1.2
			c0.1-0.1,0.3-0.1,0.5-0.2c0.2-0.1,0.4-0.3,0.7-0.5c0,0,0.1-0.2,0.1-0.2c0.3-0.1,0.6-0.3,0.9-0.6c0.2-0.2,0.4-0.4,0.6-0.6
			c0.5-0.4,0.9-0.7,1.4-0.9c0.1-0.1,0.1-0.3,0.3-0.1c0.1,0,0.2,0,0.2,0c1.4,1.4,2.9,2.8,4.1,4.5c0.1,0.1,0,0.3,0.1,0.5
			c0.1,0.2,0.6,0.6,0.8,0.8c0.1,0.1,0,0.2,0.1,0.2c0.2,0.2,0.4,0.7,0.7,1C140.6,60.3,141.5,60.8,141.9,61.8z"/>
		<path fill-rule="evenodd" clip-rule="evenodd" d="M112,72c0,1-0.6,1.9-1,2.7c-0.3,0.5-0.4,0.8-0.7,1.2c0,0-0.2,0.1-0.2,0.1
			c-0.4,0.8-1.3,1.4-2.1,2c-0.1,0.1-0.3,0.1-0.5,0.2c-0.2,0.2-0.4,0.4-0.7,0.6c-0.5,0.3-1,1.1-1.7,1.4c-0.6-0.2-1.2-0.6-1.7-0.9
			c-0.2-0.1-0.3-0.3-0.5-0.3c-0.3-0.1-0.7-0.1-1.2-0.2c-0.3-0.1-0.7-0.3-1-0.3c-0.7-0.1-1.6,0-2.4,0c-1.8,0-4.1,0.3-5.7,1
			c-0.4,0.2-0.7,0.5-1,0.7c-0.1,0.1-0.3,0-0.3,0.1c-0.1,0-0.1,0.2-0.1,0.2c-0.2,0.1-0.5,0.1-0.6,0.2c-0.3,0.2-0.7,0.8-1.2,1.4
			c-0.3,0.4-0.5,0.7-0.8,1.2c-0.3,0.5-0.5,1.5-0.7,2.3c-0.1,0.5-0.1,0.9,0.1,1.4c0.2,0.4,0.5,0.8,0.9,1.2c0.8,0.7,2.3,1,3.7,0.6
			c0.4-0.1,1-0.3,1.3-0.5c0.4-0.2,0.6-0.6,0.9-1c0.6-0.7,1.2-1.3,2.2-1.9c0.8-0.5,1.8-1,3-0.7c0.9,0.2,2.2,1,2.6,1.5
			c0.2,0.4,0.6,1.6,0.7,2.3c0.1,0.7,0,1.4-0.1,2.1c-0.1,0.9-0.3,1.1-0.7,1.7c0,0.1-0.1,0.3-0.1,0.3c-0.3,0.4-0.9,0.7-1.4,1
			c-0.3,0.2-0.4,0.4-0.7,0.6c-0.2,0.2-0.5,0.3-0.7,0.5c-1.4,0.8-2.7,1.3-3.8,2.2c-0.6,0.5-0.8,0.8-1.2,1.6c-0.2,0.4-0.2,0.7-0.3,1
			c-0.5,1.7-0.9,3.3-0.2,5.4c0.1,0.4,0.4,1,0.7,1.4c0.1,0.2,0.3,0.3,0.5,0.5c0.4,0.5,0.3,0.5,0.8,0.8c0.8,0.5,1.2,0.8,3,0.7
			c0.5,0,1.1-0.1,1.5-0.2c0.8-0.3,1.3-1.1,1.7-1.9c0.3-0.6,0.5-0.9,0.7-1.7c0.2-0.7,0.1-1.4,0.2-2.3c0-0.4,0.2-0.9,0.3-1.4
			c0.1-0.4,0.3-0.9,0.5-1.3c0.1-0.3,0.7-0.8,1-1c0,0,0.1-0.2,0.1-0.2c0.1,0,0.2,0,0.2,0c0.2-0.2,0.4-0.4,0.6-0.6
			c0.2-0.1,0.5-0.2,0.7-0.3c0.5-0.4,0.9-1,1.3-1.5c0.4-0.5,0.8-1,1.3-1.5c0.1-0.4,0.2-0.8,0.3-1.3c0-0.1,0.1-0.2,0.2-0.6
			c0.4-1.3,0.8-4.2,0.2-5.9c-0.3-0.9-1-1.4-1-2.2c1.2-0.6,2.4-0.9,3.5-1.5c0.1-0.1,0.2-0.2,0.2-0.2c0.4-0.2,0.8-0.3,1.2-0.6
			c0.8-0.6,1.5-1.5,2.2-2.2c0.8-0.8,1.5-1.4,2.2-2.2c0.6,0.1,0.8,0.8,1.3,1.2c0.1,0.1,0.3,0.1,0.5,0.2c0.2,0.2,0.4,0.5,0.7,0.8
			c0.5,0.5,0.7,0.7,1.2,1.4c0.1,0.2,0.2,0.5,0.3,0.7c0.1,0.1,0.1,0.1,0.2,0.3c0.1,0.2,0.2,0.5,0.3,0.7c0.1,0.2,0.4,0.5,0.6,0.9
			c0.2,0.5,0.4,1,0.6,1.5c0.1,0.2,0.3,0.5,0.3,0.7c0.1,0.4,0,0.9,0.1,1.4c0.1,0.3,0.3,0.6,0.3,1c0.2,0.8,0.3,1.6,0.2,2.4
			c0.1,0.5-0.8,0.2-0.9,0.5c-0.4,0-0.7,0.2-0.9,0.3c-1.2-0.6-2.9-0.9-4.5-0.7c-0.4,0.1-1,0.4-1.5,0.6c-0.9,0.4-1.7,0.7-2.1,1.5
			c-1.1,0.3-0.5,2.3,0.2,2.8c0.1,0.1,0.3,0.1,0.6,0.1c0.1,0,0.4,0.2,0.5,0.2c0.6,0.1,1.6,0.1,2.4,0c1-0.1,1.8-0.3,2.6-0.1
			c1,0.2,1.5,0.8,1.9,1.2c0.7,0.6,0.7,0.8,1.7,1.3c-0.3,0.8-0.4,1.7-0.7,2.6c-0.2,0.5-0.3,0.9-0.5,1.6c-0.2,0.8-0.5,1.5-0.8,2.3
			c-0.1,0.3-0.1,0.5-0.2,0.8c-0.2,0.6-0.8,1.3-0.8,2.2c-0.3,0.3-0.5,0.6-0.7,1c-0.2,0.4-0.3,1-0.7,1.4c-0.1,0.1-0.1,0.3-0.2,0.3
			c-0.1,0.1-0.3,0.7-0.5,0.9c-0.4,0.6-1,1.3-1.3,2.2c-0.8,0.6-1.5,1.4-2.2,2.1c-0.3,0.4-0.6,0.8-0.9,1.2c-0.3,0.3-0.8,0.6-1.2,0.9
			c-0.3,0.2-0.5,0.6-0.8,0.8c-0.1,0.1-0.3,0-0.3,0.1c-0.3,0.2-0.5,0.6-0.8,0.8c-0.1,0.1-0.2,0-0.3,0.1c-0.4,0.3-0.8,0.6-1.2,0.9
			c-0.2,0.2-0.5,0.2-0.7,0.3c-0.2,0.2-0.4,0.4-0.6,0.5c-0.4,0.2-1,0.3-1.5,0.5c-0.8,0.3-1.3,0.6-2.4,0.8c-1.9,0.4-4.6,0.6-6.9,0.8
			c-1,0.1-1.5,0-2.6-0.1c-1.4-0.2-2.9-0.3-4.3-0.6c-0.5-0.1-1-0.1-1.4-0.2c-0.4-0.1-0.8-0.3-1.2-0.5c-0.4-0.1-0.9-0.2-1.3-0.3
			c-0.4-0.1-0.9-0.2-1.3-0.3c-0.4-0.1-0.7-0.4-1-0.6c-0.1-0.1-0.3-0.1-0.3-0.1c-0.5-0.2-1.3-0.6-1.9-0.9c-0.1-0.1-0.3-0.2-0.5-0.3
			c-0.3-0.2-0.6-0.2-0.8-0.5c-0.1,0-0.1-0.2-0.1-0.2c-0.1-0.1-0.3,0-0.3-0.1c0,0-0.1-0.2-0.1-0.2c-0.1-0.1-0.3,0-0.3-0.1
			c-0.4-0.3-1.1-0.8-1.6-1.2c-0.1-0.1-0.1-0.2-0.2-0.2c-1.2-0.8-2.3-2.2-3.3-3.5c-0.8-1.1-1.6-2.3-1.9-3.6c1.4-0.8,3.2-0.8,4.4-1.6
			c0.1-0.1,0.3-0.1,0.3-0.2c0.1-0.1,0-0.3,0.1-0.3c0.2-0.2,0.4-0.3,0.6-0.5c0.3-0.4,0.6-0.8,0.9-1.2c0.1-1,0.3-2,0.9-2.4
			c0.6-0.4,2.1-0.6,3.1-0.7c0.3,0,0.7,0,1,0c0.2,0,0.5-0.2,0.7-0.2c0.9-0.1,1.9,0.1,2.4-0.5c0.1-0.1,0.4-0.2,0.6-0.3
			c0,0,0.1-0.2,0.1-0.2c0.3-0.1,0.6-0.3,0.8-0.7c0.1-0.1,0-0.4,0.1-0.6c0-0.1,0.2-0.2,0.2-0.3c-0.1-1.1-1.8-1.7-3.1-2.1
			c-0.7-0.2-1.4-0.4-2.1-0.6c-0.7-0.2-1.3-0.5-2-0.6c-0.4-0.1-0.9,0.1-1.4,0c-0.4,0-0.7-0.2-1-0.2c-1-0.1-2.3,0-3.3,0.1
			c-0.5,0-0.9,0.3-1.4,0.6c-0.3,0.2-0.7,0.2-0.9,0.3c-0.3,0.1-0.4,0.4-0.7,0.6c-0.1,0.1-0.4,0-0.6,0.1c-0.1,0.1-0.1,0.2-0.3,0.2
			c-0.5,0-1-0.2-1.4-0.3c-0.1-0.1-0.1-0.2-0.2-0.2c-0.2-0.1-0.6-0.2-0.8-0.5c-0.4-1-0.6-2.6-0.5-4.3c0-0.6,0.2-1.2,0.3-1.7
			c0.1-0.6,0-1.2,0.5-1.5c1.4,0.5,3.1,1,5.2,0.8c0.8-0.1,1.5-0.4,2.2-0.6c0.1,0,0.3,0,0.5,0c0.1,0,0.2-0.2,0.2-0.2
			c1.2-0.5,2.7-0.8,2.1-2.6c-0.4-1-1.4-1-2.6-1.4c-0.2-0.1-0.3-0.1-0.5-0.1c0,0-0.1,0.2-0.2,0.1c0,0-0.3-0.2-0.5-0.2
			c-0.8-0.1-1.5,0.1-2.2-0.1c0.1-0.9,0.8-1.4,0.7-2.6c-0.1-1.1-1.1-1.7-1.7-2.3c-0.1-0.6,0.5-0.4,0.5-0.9c0.4-0.8,1.1-1.6,1.9-2.3
			c0.7-0.7,1.2-1.3,2-1.7c0.1-0.1,0.3,0,0.3-0.1c0.1-0.1,0.3-0.4,0.6-0.6c0.1-0.1,0.2,0,0.3-0.1c0.1,0,0.1-0.2,0.1-0.2
			c0.1-0.1,0.3,0,0.3-0.1c0.2-0.1,0.4-0.3,0.7-0.5c0.3-0.2,0.6-0.6,1-0.6c-0.3,0.6-0.3,1.2,0,1.6c0.4,0.7,1.4,0.7,2.4,0.8
			c0.6,0.1,1,0.1,1.6,0c0.3-0.1,0.6-0.1,0.7-0.1c0.7-0.2,1.3-0.8,1.9-1.3c0.4-0.3,0.8-0.7,1.3-1c0.4-0.3,0.9-0.5,1.5-0.8
			c0.5-0.3,0.8-0.7,1.3-0.9c0.7-0.4,1.3-0.6,2.2-0.9c0.1,0,0.3-0.2,0.3-0.2c0.1,0,0.3,0,0.5,0c0.5-0.2,1-0.5,1.5-0.6
			c0.7-0.1,1.8-0.2,2.4-0.2c0.9,0,2.2,0.4,3.1,0.6c0.4,0.1,0.7,0,1,0.1c0.9,0.2,1.7,0.6,2.6,0.7c0.8,0.1,1.5,0,2.2,0.1
			C110.2,71.6,111.1,71.6,112,72z M101.3,109.9c-0.2-0.1-0.5,0-0.8-0.1c-0.3-0.1-0.5-0.2-0.7-0.2c-2-0.2-3.3,1-3.8,2
			c-0.2,0.4-0.2,0.6-0.3,1c-0.1,0.2-0.1,0.5-0.1,0.6c0,0.4,1,1.5,1.3,1.9c0.5,0.5,0.8,0.6,1.5,0.8c0.9,0.3,1.3,0.3,2.1,0
			c0.8-0.3,1-0.5,1.4-1c0.7-1.1,0.7-2.3,0.5-4.1C101.8,110.5,101.7,110.1,101.3,109.9z"/>
		<path fill-rule="evenodd" clip-rule="evenodd" d="M135.8,78.2c-1.6,1-4.6,0.6-5.7,2.1c0.3,0.8-0.1,1.6-0.2,2.3
			c-0.1,0.3,0,0.5-0.1,0.7c-0.3,0.8-0.6,1-1.6,1.3c-0.8,0.2-1.8,0.4-2.9,0.5c-0.4-1-0.9-2-1.5-3c-0.1-0.2-0.4-0.5-0.6-0.8
			c-0.4-0.6-0.5-1.3-0.9-1.9c-0.2-0.3-0.5-0.5-0.8-0.8c-0.3-0.3-0.5-0.6-0.8-0.8c-0.1-0.1-0.3,0-0.3-0.1c-0.1,0-0.1-0.2-0.1-0.2
			c-0.1-0.1-0.3,0-0.3-0.1c-0.3-0.2-0.5-0.6-0.8-1c0.2-0.7,0.8-1.1,1-1.7c0.5-0.1,1.2-0.4,1.5-0.2c0.4,0.1,0.7,0.4,0.9,0.6
			c0.4,0.3,0.6,0.6,1.2,0.9c0.1,0.1,0.3,0.1,0.5,0.2c0.6,0.3,1.5,0.6,2.6,0.7c0.7,0,1.4-0.2,2.2-0.2c0.5,0,1,0,1.4,0
			c0.3,0,0.7-0.2,1-0.2c0.4,0,1,0.1,1.4,0.1c0.6,0.1,1.4,0.3,2,0.6C135.1,77.2,135.8,77.6,135.8,78.2z"/>
		<path fill-rule="evenodd" clip-rule="evenodd" d="M77.2,75.7c-0.3,0.8-1.1,1.3-1.7,2c0,0,0,0.2,0,0.2c0,0-0.2,0-0.2,0
			c-0.1,0.1,0,0.2-0.1,0.2c0,0-0.1,0.1-0.1,0.1c-0.1,0.1,0,0.3-0.1,0.3c-0.2,0.2-0.4,0.3-0.6,0.5c-0.3,0.4-0.3,1-0.8,1.2
			c-0.6,0.1-1.1-0.5-1.9-0.6c-0.7-0.1-1.5,0.1-2.2,0.2c-0.7,0.1-1.6,0.1-1.4,1c0.3,0.5,1,0.2,1.4,0.1c0.8-0.1,1.3-0.3,2.1-0.1
			c0.7,0.2,1,0.4,1.6,0.7c0.6,0.3,1.2,0.5,1.7,1c0.2,0.3,0.4,0.5,0.5,0.8c0.1,0.9-1,1.3-0.8,2.3c0,0.3,0.2,0.6,0.5,0.8
			c0.8,0.7,2,0.2,3.7,0.5c0.4,0.1,0.8,0.2,1.2,0.3c0.3,0.1,0.7,0.1,0.9,0.5c0.1,0.8-0.9,1.1-1.5,1.3c-0.2,0.1-0.3,0.2-0.5,0.2
			c-0.2,0-0.4-0.1-0.7,0c-0.4,0.1-0.7,0.3-1,0.3c-1.3,0.2-2.8-0.1-4.1-0.5c-0.3-0.1-0.6-0.1-0.8-0.2c-0.4-0.2-0.6-0.5-0.9-0.7
			c-0.4-0.2-0.8-0.3-1-0.6c-1.8-0.1-4.3,0.4-4.9-0.9c-0.8-0.2-1.1-0.7-1.5-1.2c-0.2-0.3-0.4-0.8-0.6-1.3c-0.3-0.7-0.4-1.2-0.8-1.7
			c-0.3-0.4-0.6-0.7-1.3-0.9c-0.3-0.1-0.7-0.2-0.9-0.2c-0.4,0-0.9,0.2-1.4,0.2c-0.7,0-1.4-0.1-2.1-0.3c-0.4-0.7-0.1-1.9,0.2-2.6
			c0.5-0.3,1.1-0.2,1.6-0.3c0.3-0.1,0.6-0.3,0.9-0.3c1.1-0.2,2.1,0,3.1,0c0.6,0,1.3,0,2,0c1.2,0.1,2.4,0.4,3.6,0.2
			c0.8-0.1,1.8-0.6,2.6-1c0.4-0.2,0.7-0.5,1-0.7c0.2-0.1,0.5-0.1,0.7-0.2c0.4-0.2,0.6-0.3,1.2-0.5C74.6,75.7,76,75.2,77.2,75.7z
			 M72.2,83.1c-0.5,1.1-1.1,2.1-1.3,3.5c0.4,0.2,0.6,0.5,1.3,0.3C72.3,85.8,74.1,83.3,72.2,83.1z"/>
		<path fill-rule="evenodd" clip-rule="evenodd" d="M146.4,94.2c0.3,2.2-1,2.8-2,3.8c-0.5,0-0.8,0.3-1.2,0.5
			c-0.3,0.2-0.8,0.2-1.2,0.5c-0.7,0.4-1,1.3-1.9,1.7c-1.5,0.7-4.8,0.4-6.2-0.1c-0.2-0.1-0.5-0.3-0.7-0.3c-0.8-0.3-1.1-0.4-1.6-0.9
			c-0.3-0.3-0.6-0.5-0.7-0.7c-0.2-0.4-0.2-0.9-0.3-1.3c-0.2-0.3-0.4-0.7-0.8-0.8c-1.1-0.2-1.9,0.8-2.9,0.9c-0.8,0.1-1.3-0.2-1.9-0.3
			c-0.2-0.1-0.5,0-0.6-0.1c-0.4-0.2-0.8-0.7-1.2-1c-0.2-0.2-0.5-0.3-0.7-0.5c-0.4-0.3-0.6-0.4-1.3-0.6c-0.2-0.1-0.4-0.2-0.6-0.2
			c-0.6,0-1.1,0.2-1.5,0.2c-0.4,0-0.7,0-1,0c0,0-0.1-0.1-0.2-0.1c-0.5,0.1-1.5,0.4-2.3-0.2c-0.2-0.7,0.4-1.1,0.7-1.4
			c0.4-0.4,0.8-0.8,1.2-0.9c0.3-0.1,0.7-0.1,1-0.1c0.7-0.1,1.2-0.2,2.1-0.1c0.6,0.1,1.2,0.2,2,0.3c0.1,0,0.8,0,0.9,0.1
			c0.1,0.1,0.8,0,1.2,0c0.4,0,0.9,0.2,1.3,0.2c0.2,0,0.4,0.1,0.6,0.1c0,0,0.1,0.2,0.1,0.1c0.2-0.2,0.2,0,0.2,0
			c0.9-0.2,1.3-1.1,1.9-1.3c0.4-0.1,1.2-0.1,1.5-0.1c1.4,0,3.1,0.6,4.4,1c0.9,0.3,1.9,0.7,2.9,1c0.5,0.2,0.7,0.4,1.4,0.3
			c0,0,0-0.1,0.1-0.1c0,0,0.5,0.1,0.8,0c0.1,0,0.2-0.2,0.2-0.2c0.3-0.1,0.7-0.1,1-0.2c0.9-0.3,1.8-0.5,2.6-0.8
			C145,92.8,145.9,93.3,146.4,94.2z M125.4,94.4c-0.1,0.3-0.4,1-0.1,1.4c0.3,0.3,0.9,0.1,1.2-0.1c0-0.4,0-0.8,0-1.2
			C126.1,94.4,125.8,94.4,125.4,94.4z"/>
		<path fill-rule="evenodd" clip-rule="evenodd" d="M89.3,100.3c-0.3,0.5-0.8,1.1-1.4,1.3c-0.3,0.1-0.8,0-1.3,0.1
			c-0.3,0.1-0.6,0.3-0.9,0.3c-0.6,0.1-1.2,0-1.7,0c-0.9,0.1-2,0.2-2.7,0.5c-0.6,0.2-0.9,0.7-1.4,0.9c-0.2,0.8-0.6,1.5-0.7,2.4
			c-0.6,0.5-0.8,1.3-1.4,1.6c-0.4,0.3-1.1,0.4-1.6,0.6c-0.2,0.1-0.5,0.2-0.8,0.3c-0.7,0.2-1.5,0.3-2.6,0.3c-0.8,0-2.5-0.2-3.1,0.1
			c0,0-0.1,0.2-0.1,0.2c-0.1,0-0.2,0-0.2,0c-0.1,0.1-0.1,0.3-0.2,0.3c-0.1,0.1-0.3,0-0.5,0.1c-0.2,0.1-0.5,0.3-0.7,0.5
			c-0.5,0.3-0.7,0.5-1.5,0.6c-1.2,0.2-3.1,0.2-4.1-0.3c-0.1-0.1-0.1-0.2-0.2-0.2c-0.1-0.1-0.3,0-0.3-0.1c-0.1,0-0.1-0.2-0.1-0.2
			c-0.3-0.2-0.7-0.3-1-0.6c-0.6-0.5-0.9-1.2-1.3-1.7c-0.3-0.5-0.6-0.8-1-1.2c-0.5-0.4-1-0.6-2-0.8c-0.5-0.1-0.9-0.3-1.4-0.3
			c-1.1-0.1-2.4,0-3.4-0.2c-1.3-0.3-2.5-1-2.6-1.9c0-1.2,1.9-2.2,2.6-2.7c0.2-0.2,0-0.9,0.2-1c1.3-0.4,2.5-0.8,3.7-0.8
			c0.4,0,0.9,0.2,1.4,0.2c0.7,0.1,1.4,0.2,2,0.3c1,0.3,1.7,0.9,3.3,0.7c0.9-0.1,1.9-0.6,2.8-0.9c0.6-0.2,1.6-0.5,2.7-0.5
			c0.6,0,1.2,0.2,1.7,0.3c0.6,0.1,1.1,0.3,1.6,0.5c1,0.4,1.9,0.8,3,1c0.8-0.4,1.6-0.9,2.4-1.4c0.6-0.3,1.2-0.5,2.3-0.7
			c0.5-0.1,1-0.2,1.4-0.2c0.7,0,1.7,0.2,2.6,0.3c0.8,0.1,1.7,0.3,2.4,0.5C86.7,99.1,88.3,99.5,89.3,100.3z"/>
		<path fill-rule="evenodd" clip-rule="evenodd" d="M80.8,120.5c0.4-0.3,0.6,0.2,0.9,0.3c0.3,0.1,0.5,0.2,0.7,0.3
			c0.4,0.2,0.9,0.4,1.4,0.7c0.2,0.1,0.3,0.3,0.6,0.5c0.4,0.2,1,0.3,1.5,0.5c0.2,0.1,0.4,0.3,0.7,0.3c0.9,0.3,2,0.6,3,0.9
			c0.6,0.2,1.4,0.2,2.3,0.3c0.2,0,0.5,0.2,0.7,0.2c0.2,0,0.4,0,0.6,0c1,0.1,2.1,0.3,3,0.3c1.7,0.1,3.7-0.2,5.6-0.3
			c1-0.1,1.9-0.1,2.8-0.2c0.4-0.1,0.9-0.2,1.3-0.2c0.4-0.1,0.9-0.1,1.3-0.2c0.4-0.1,0.7-0.4,1-0.6c0.4-0.2,0.9-0.2,1.3-0.3
			c0.3-0.1,0.6-0.4,0.9-0.6c0.8-0.5,1.8-1,2.6-1.6c0.2-0.2,0.5-0.5,0.7-0.7c0.2-0.1,0.3-0.1,0.5-0.2c0.3-0.2,0.7-0.7,1-1
			c0.4-0.3,0.8-0.5,1-0.9c0.2,0,0.2,0.2,0.3,0.2c-0.2,0.4-0.2,1-0.3,1.5c-0.1,0.2-0.3,0.4-0.3,0.6c-0.1,0.3,0,0.5-0.1,0.7
			c0,0.1-0.2,0.1-0.2,0.2c-0.5,0.8-0.9,1.4-2,1.9c-0.6,0.3-1.4,0.7-2.2,1c-0.2,0.1-0.3,0-0.5,0.1c-0.5,0.2-1.1,0.6-1.7,0.9
			c-0.7,0.3-1.5,0.5-2.4,0.8c-0.6,0.2-1.2,0.4-1.6,0.5c-0.9,0.1-1.9,0.1-2.8,0.1c-0.6,0-1.2-0.1-1.9-0.1c-0.5,0-0.9,0.2-1.4,0.2
			c-2.2,0.2-4.3-0.5-6.3-0.6c-0.6,0-1.2,0-1.7,0c-0.4,0-0.9-0.2-1.4-0.2c-0.4-0.1-1,0-1.4-0.1c-0.3-0.1-0.5-0.3-0.8-0.5
			c-0.3-0.1-0.7-0.1-1-0.2c-0.3-0.1-0.6-0.3-0.8-0.5c-0.3-0.2-0.7-0.2-0.9-0.3c0,0-0.1-0.2-0.1-0.2c-0.2-0.1-0.7-0.4-1-0.6
			c-0.3-0.2-0.4-0.5-0.7-0.7C82.1,122.2,80.8,121.5,80.8,120.5z"/>
		<path fill-rule="evenodd" clip-rule="evenodd" d="M77,130.6c0.7-1.3,1.1-2.7,1.7-4c0.6-1.3,1.2-2.6,2.1-3.6
			c0.3,0.1,0.5,0.2,0.7,0.3c0.4,0.3,0.7,0.6,1.2,0.9c0.4,0.3,0.8,0.5,1.3,0.8c0.4,0.3,0.8,0.4,1.4,0.7c0.2,0.1,0.4,0.3,0.6,0.3
			c0.5,0.1,1,0.1,1.5,0.2c0.1,0,0.2,0.2,0.2,0.2c0.1,0,0.2,0,0.3,0c0.8,0.2,2.3,0.6,3.4,0.7c1.3,0.1,2.4,0,3.6,0.2
			c0.5,0.1,0.9,0.3,1.4,0.3c0.7,0.1,1.6,0.1,2.3,0c0.4,0,0.8-0.2,1.2-0.2c0.9-0.1,1.6,0.1,2.4,0.1c1.7,0,3.2-0.2,4.8-0.6
			c0.7-0.2,1.4-0.4,2-0.6c0.5-0.2,0.9-0.6,1.4-0.8c0.3-0.1,0.5-0.1,0.8-0.2c0.6-0.3,1.4-0.7,2.1-1c0.5-0.2,1.1-0.3,1.5-0.6
			c0.2-0.1,0.3-0.3,0.5-0.5c0.2-0.2,0.5-0.2,0.6-0.3c0.2-0.2,0.2-0.5,0.3-0.7c0.2-0.3,0.4-0.5,0.6-0.9c0.1,0,0.2,0,0.3,0
			c0.5,0.7,1,1.4,1.6,2c0.3,0.3,0.7,0.5,0.9,0.8c0.1,0.1,0.2,0.4,0.3,0.6c0.3,0.3,0.6,0.6,0.9,1.2c0.1,0.3,0.2,0.6,0.3,0.8
			c0.3,0.6,0.7,1.1,0.7,1.6c-0.1,0.7-1.6,2-2.2,2.7c-0.3,0.3-0.6,0.6-0.8,0.8c-0.1,0.1-0.4,0.1-0.6,0.2c-0.1,0.1-0.2,0.3-0.3,0.3
			c-0.1,0.1-0.3,0-0.3,0.1c-0.6,0.5-1.6,1.1-2.4,1.6c-0.6,0.4-1.3,0.7-2,1c-0.3,0.2-0.7,0.3-1,0.5c-0.3,0.2-0.6,0.5-0.9,0.6
			c-0.2,0.1-0.4,0-0.6,0c-0.1,0-0.2,0.2-0.3,0.2c-0.2,0.1-0.6,0.1-0.8,0.2c-0.2,0.1-0.5,0.3-0.7,0.3c-0.3,0.1-0.6,0-0.9,0.1
			c-0.6,0.1-1.2,0.3-1.7,0.5c-0.2,0-0.4-0.1-0.6,0c-0.2,0.1-0.6,0.4-1,0.5c-0.3,0.1-0.6,0.1-1,0.1c-0.1,0-0.2,0.1-0.2,0.1
			c-0.2,0-0.5-0.1-0.7-0.1c-0.4,0-0.8,0.2-1.2,0.2c-0.5,0-1.2-0.1-1.7-0.1c-0.5,0-1.1,0-1.6,0c-1.8,0-3.5,0.1-5-0.2
			c-0.2,0-0.5-0.1-0.7-0.1c-0.5-0.1-1.2-0.3-2-0.5c-0.4-0.1-0.9-0.3-1.3-0.1c-0.4-0.5-1.1-0.6-1.7-0.8c-0.1,0-0.3-0.2-0.5-0.2
			c-0.2,0-0.4,0.1-0.6,0c-0.3-0.1-0.5-0.4-0.8-0.5c-0.4-0.1-0.8-0.1-1.2-0.2c-0.3-0.1-0.5-0.3-0.8-0.5c-0.1-0.1-0.5-0.3-0.7-0.5
			c-0.7-0.4-1.7-1-2.4-1.5c-0.2-0.1-0.3-0.2-0.5-0.3c-0.2-0.1-0.3-0.2-0.5-0.3C78.7,132.1,77.6,131.5,77,130.6z"/>
		<path fill-rule="evenodd" clip-rule="evenodd" d="M122.9,127c1.2,0.2,2.3,0.3,2.7,1.2c0.5,1.2-0.3,3.1-0.9,4.1
			c-0.1,0.2-0.4,0.3-0.5,0.5c-0.1,0.2-0.1,0.5-0.2,0.6c-0.4,0.5-0.9,0.9-1.4,1.4c-0.4,0.5-0.9,1-1.4,1.4c-0.5,0.4-1.1,0.8-1.6,1.2
			c-0.1,0.1-0.2,0.3-0.3,0.3c-0.2,0.1-0.3,0.1-0.5,0.2c-0.3,0.2-0.5,0.4-0.8,0.6c-0.4,0.3-0.9,0.4-1.4,0.7c-0.1,0-0.1,0.2-0.1,0.2
			c-0.1,0-0.3,0-0.3,0c-1.2,0.6-2.4,1.2-4,1.6c-0.4,0.1-0.8,0.1-1.2,0.2c-0.3,0.1-0.6,0.3-0.9,0.3c-0.6,0.1-1.3,0.1-1.9,0.2
			c-1.1,0.2-2.3,0.4-3.5,0.7c-0.1,0-0.3,0.2-0.3,0.2c-0.1,0-0.3,0-0.5,0c-1,0.3-2.7,0.4-4.1,0.6c-1.3,0.2-2.8,0-4.3-0.1
			c-1.1-0.1-2.2-0.1-3.1-0.2c-0.6-0.1-1.2-0.3-1.9-0.5c-0.2,0-0.4,0-0.6,0c-0.3-0.1-0.8-0.3-1.3-0.5c-0.6-0.2-1.2-0.3-1.7-0.6
			c-0.1,0-0.1-0.2-0.1-0.2c-0.2-0.1-0.4,0-0.7-0.1c-0.1,0-0.3-0.2-0.3-0.2c-0.5-0.1-0.8-0.2-1.3-0.3c-1.3-0.5-2.6-1.3-3.8-2
			c-0.1-0.1-0.3,0-0.5-0.1c-0.2-0.1-0.5-0.6-1-0.6c-0.4-0.4-0.9-1-1.6-1.6c-0.6-0.5-1.3-0.8-1.7-1.4c-0.1-0.1-0.1-0.3-0.1-0.3
			c-0.1-0.2-0.3-0.6-0.5-0.9c-0.1-0.2-0.4-0.3-0.5-0.5c-0.3-0.8,0-1.9,0.6-2.4c0.3-0.1,0.4,0.3,0.6,0.5c0.4,0.4,0.8,1.1,1.3,1.5
			c0.1,0.1,0.3,0.1,0.5,0.2c0.7,0.6,1.8,1.2,2.7,1.9c0.3,0.2,0.5,0.4,0.7,0.6c0.2,0.1,0.3,0.1,0.5,0.2c0,0,0.1,0.2,0.1,0.2
			c0.1,0,0.2,0,0.2,0c0.4,0.3,0.7,0.5,1.2,0.8c0.4,0.2,1,0.3,1.6,0.5c0.6,0.2,1.2,0.5,2,0.8c0.7,0.2,1.4,0.6,2.1,0.8
			c0.7,0.2,1.5,0.3,2.3,0.5c0.4,0.1,0.7,0.3,1,0.3c0.6,0.1,1.2,0,1.9,0.1c1.3,0.1,3,0.4,4.8,0.2c0.1,0,0.2-0.1,0.2-0.1
			c0.1,0,0.8,0.1,1.3,0.1c1.5,0,3.1,0,4.3-0.2c0.3-0.1,0.7-0.2,1-0.3c1-0.3,2.4-0.4,3.5-0.7c0.4-0.1,0.8-0.3,1.2-0.5
			c0.4-0.1,0.8-0.2,1.2-0.3c0.8-0.3,1.4-0.6,2.1-0.9c1.4-0.7,2.9-1.2,4-2.2c1.1-0.2,1.4-1.3,2.6-1.5c0.4-0.6,1.3-1.2,2-2
			c0.2-0.2,0.3-0.4,0.5-0.6c0.3-0.3,0.6-0.6,0.8-1C123.5,128.7,123.3,128,122.9,127z"/>
	</g>
	<text x="50%"
	      font-family="'GodHatesCharades'"
	      font-size="13">
		<tspan x="50%"
		       y="65%"
		       style="text-anchor: middle"
		       ng-bind="suggestion.textLines['0']">
		</tspan>
		<tspan x="50%"
		       y="71%"
		       style="text-anchor: middle"
		       ng-bind="suggestion.textLines['1']">
		</tspan>
		<tspan x="50%"
		       y="77%"
		       style="text-anchor: middle"
		       ng-bind="suggestion.textLines['2']">
		</tspan>
		<tspan x="50%"
		       y="83%"
		       style="text-anchor: middle"
		       ng-bind="suggestion.textLines['3']">
		</tspan>
		<tspan x="50%"
		       y="89%"
		       style="text-anchor: middle"
		       ng-bind="suggestion.textLines['4']">
		</tspan>
	</text>
	<text x="50%"
	      y="95%"
	      font-family="'Helvetica'"
	      font-size="8"
	      style="text-anchor: middle; fill: #999"
	      ng-bind="suggestion.owner.name">God Hates Charades
	</text>
</svg>
