<?xml version="1.0" encoding="utf-8"?>
<!-- Generator: Adobe Illustrator 18.1.1, SVG Export Plug-In . SVG Version: 6.00 Build 0)  -->
<!DOCTYPE svg PUBLIC "-//W3C//DTD SVG 1.0//EN" "http://www.w3.org/TR/2001/REC-SVG-20010904/DTD/svg10.dtd">
<svg version="1.0" id="Front" xmlns="http://www.w3.org/2000/svg" xmlns:xlink="http://www.w3.org/1999/xlink" x="0px" y="0px"
	 viewBox="0 0 197.3 269.3" enable-background="new 0 0 197.3 269.3" xml:space="preserve">
	<rect x="0" y="0" fill="#FFFFFF" width="197.3" height="269.3"/>
	<g>
		<path fill-rule="evenodd" clip-rule="evenodd" d="M125.8,133.2c-0.6-0.3-1-0.8-1.6-1.1c-0.3-0.1-0.7-0.2-1-0.3
			c-0.3-0.1-0.5-0.4-0.9-0.4c-0.4-0.1-0.6-0.5-1-0.7c-0.4-0.2-0.7-0.3-1.1-0.5c-0.2-0.1-0.4-0.2-0.5-0.3c-0.3-0.2-0.5-0.5-0.9-0.7
			c-0.2-0.1-0.4-0.1-0.5-0.2c-0.2-0.1-0.3-0.3-0.4-0.4c-0.2-0.1-0.4-0.1-0.5-0.2c-0.1-0.1-0.2-0.2-0.4-0.3c-0.5-0.3-1.2-0.7-1.7-1.1
			c-0.6-0.4-1.5-1.2-2-1.8c-0.2-0.3-0.3-0.7-0.5-1.1c-0.1-0.2-0.1-0.4-0.3-0.5c0,0-0.6-0.5-0.3-0.8c0.1-0.4,0.6-0.2,0.8-0.2
			c0,0,0.4,0.2,0.8,0.1c0.6-0.1,0.9-0.5,1.4-0.5c0.4,0,0.7,0.3,1,0.4c0.7,0.3,1.8,0.5,2.6,0c0.2-0.1,0.2-0.3,0.4-0.4
			c0.2-0.2,0.5-0.7,0.9-0.8c0.2,0,0.4,0.1,0.5,0.1c0.5,0.2,1.2,0.4,2,0.2c0.5-0.1,0.8-0.3,1.1-0.7c0.2-0.2,0.2-0.8,0.7-1
			c1.3,0.2,3.2,0.1,3.4-1.2c0.1-0.8-0.7-1.4-0.8-2.3c0-0.5,0.3-1.2,0.3-1.8c0-0.7-0.2-1.5-0.3-2.3c-0.2-1.5-0.4-2.9-0.7-4.5
			c-0.1-1.1-0.4-2.2,0-2.9c0.1-0.2,0.3-0.2,0.4-0.4c0.4-0.5,0.7-0.9,1.3-1.3c0.1-0.1,0.2,0,0.3-0.1c0.1-0.1,0.1-0.1,0.2-0.2
			c0.2-0.2,0.5-0.4,0.8-0.5c0.1,0,0.3-0.1,0.3-0.1c0.3-0.2,0.4-0.6,0.7-0.9c0.3-0.3,0.6-0.5,0.8-0.8c0.2-0.3,0.3-0.8,0.5-1.3
			c0.4-0.9,0.5-1.2,0.7-2.5c0-0.4,0.1-0.8,0.1-1.2c0.1-0.8,0.2-1.6,0.2-2.4c0.1-2.5-0.5-4.9-1-7.1c-0.2-0.8-0.2-1.5-0.4-2.2
			c-0.1-0.3-0.2-0.7-0.3-1c-0.3-0.8-0.7-2.1-1.2-2.7c-0.6-0.8-1.5-1.2-2.4-2c0.3-0.9-0.2-1.7-0.4-2.4c-0.1-0.4-0.2-0.8-0.4-1.2
			c-0.3-0.6-0.7-1.2-1.2-1.7c-0.4-0.5-0.9-1-1.4-1.5c-0.6-0.7-1.1-1.4-1.7-2.2c-0.4-0.4-0.7-0.8-1.1-1.2c-0.2-0.2-0.4-0.7-0.7-1
			c-0.1-0.2-0.3-0.3-0.4-0.5c-0.1-0.2-0.2-0.4-0.3-0.5c-0.6-0.7-1.5-1.3-1.8-2.2c-0.9-0.5-1.7-1.4-2.6-2.1c-0.2-0.1-0.3-0.2-0.5-0.3
			c-0.4-0.2-0.7-0.6-1.1-0.8c-0.7-0.3-1.5-0.5-2.3-0.9c-0.4-0.2-0.7-0.4-1.1-0.5c-0.8-0.3-1.4-0.4-2.6-0.5c-0.5,0-1-0.1-1.4-0.1
			c-0.2,0-0.4,0.1-0.7,0.1c-0.6,0-1.3,0-2.1,0c-0.9,0-1.9,0.2-2.8,0.2c-1,0.1-2,0-2.8,0.2c-0.8,0.2-1.6,0.5-2.5,0.8
			c-0.3,0.1-0.7,0-1,0.1c-0.7,0.2-1.3,0.5-2,0.8c-0.4,0.1-0.6,0.2-1,0.3c-0.9,0.3-1.9,0.8-2.8,1.1c-0.7,0.2-1.4,0.3-2.1,0.5
			c-0.4,0.1-0.8,0.5-1.2,0.7c-0.4,0.2-0.9,0.2-1.3,0.4c-0.4,0.2-0.9,0.6-1.3,0.9c-0.9,0.5-1.3,0.6-2,1.3c-0.2,0.2-0.4,0.4-0.5,0.5
			c-0.2,0.2-0.3,0.5-0.4,0.7c-0.2,0.3-0.4,0.5-0.7,0.8c-0.1,0.1-0.1,0.2-0.2,0.3c-0.1,0.1-0.3,0.5-0.5,0.8c-0.3,0.4-0.7,0.7-1,1.1
			c-0.3,0.4-0.6,0.9-0.9,1.3c-0.1,0.2-0.2,0.5-0.3,0.8c-0.1,0.2-0.3,0.3-0.4,0.5c-0.6,0.9-1,1.9-1.4,2.8c0.2,0.8-0.3,1.4-0.4,2.2
			c-0.1,0.4,0,0.8-0.1,1.2c0,0.2-0.2,0.2-0.2,0.4c-0.2,0.8-0.3,1.7-0.4,2.6c-0.4,2.2-0.4,4.4-0.4,6.7c-0.1,1.6,0,3.3,0.2,4.8
			c0.2,0.9,0.6,1.8,0.7,2.7c0.1,0.4-0.4,0.2-0.5,0.3c-0.4,0.2-1,0.5-1.3,1c-0.1,0.9,0.2,1.6,0.4,2.4c0.1,0.5,0.2,1.2,0.3,2
			c0.1,0.3,0.2,0.5,0.3,0.9c0.1,0.3,0.1,0.7,0.2,1c0,0.1,0.2,0.3,0.2,0.4c0.1,0.2,0.1,0.3,0.1,0.4c0.2,0.8,0.5,1.8,0.9,2.7
			c0.1,0.2,0,0.4,0.1,0.5c0,0.1,0.2,0.2,0.2,0.3c0.1,0.3,0.2,0.6,0.3,0.9c0.4,0.9,1.1,1.6,1.7,2.4c0.3,0.4,0.5,0.8,0.9,1.2
			c0.3,0.3,0.7,0.6,1,1c0.3,0.4,0.6,0.8,0.9,1.2c0.8,1.1,1.8,2.3,2.3,3.8c0.3,0.2,0.5,0.5,0.8,0.8c0.1,0.1,0.2,0,0.3,0.1
			c0.1,0,0.1,0.2,0.1,0.2c0.1,0.1,0.2,0,0.3,0.1c0,0,0.1,0.2,0.1,0.2c0.1,0.1,0.2,0,0.3,0.1c0.1,0.1,0.3,0.4,0.5,0.5
			c0.3,0.3,0.5,0.6,0.8,0.8c0.1,0.1,0.5,0.1,0.7,0.2c1.2,0.5,2.7,1.3,3.9,1.8c1.4,0.7,2.7,1.7,4.1,2.4c0.7,0.4,1.5,0.7,2.3,1
			c0.2,0.1,0.3,0.3,0.5,0.3c0.2,0.1,0.4,0,0.7,0.1c1.9,0.6,3.7,1.8,5.7,2.5c0.9,0.9,1.9,1.5,2.7,2.4c0.2,0.3,0.4,0.6,0.5,0.9
			c0.1,0.1,0.2,0.2,0.3,0.3c0.1,0.1,0.1,0.3,0.2,0.4c0.4,0.5,0.8,1,1.2,1.5c0.8,1,1.5,2.1,2.3,3.2c0.2,0.2,0.4,0.4,0.7,0.8
			c0.1,0.1,0.1,0.3,0.2,0.4c0.4,0.5,1.1,1.2,1.5,1.8c0.4,0.5,0.7,1.1,1.1,1.6c0.4,0.6,0.8,1,1.1,1.6c0,0.4-0.4,0.5-0.7,0.7
			c-0.5,0.5-1.1,1.1-1.7,1.5c-0.2,0.2-0.3,0.3-0.5,0.4c-0.2,0.1-0.5,0.2-0.8,0.3c-0.1,0.1-0.1,0.3-0.2,0.3c-0.1,0.1-0.3,0-0.4,0.1
			c-0.4,0.2-0.9,0.6-1.3,0.8c-0.3,0.1-0.8,0.1-1.2,0.2c-0.1,0-0.2,0.2-0.2,0.2c-0.7,0.2-2,0.4-2.8,0.5c-1.5,0.2-2.8,0.1-4.2-0.1
			c-1.4-0.2-2.5-0.5-3.8-0.9c-0.9-0.3-1.8-0.5-2.5-1c-0.1-0.1-0.1-0.3-0.2-0.3c-0.1-0.1-0.3,0-0.4-0.1c-0.4-0.2-0.9-0.4-1.3-0.8
			c-0.1-0.1-0.5-0.3-0.7-0.4c-0.2-0.1-0.3-0.3-0.4-0.4c-0.3-0.2-0.7-0.4-1-0.7c-0.2-0.1-0.3-0.3-0.4-0.4c-0.1-0.1-0.2,0-0.3-0.1
			c-0.1-0.1-0.3-0.3-0.4-0.4c-0.1-0.1-0.3-0.2-0.5-0.3c-0.2-0.1-0.7-0.5-1-0.7c-0.1-0.1-0.2,0-0.3-0.1c-0.2-0.1-0.3-0.3-0.4-0.4
			c-0.2-0.1-0.4-0.1-0.5-0.2c-0.5-0.3-0.9-0.6-1.5-1c-0.7-0.4-1.6-1.1-2.5-1.6c-0.2-0.1-0.3-0.2-0.5-0.3c-0.5-0.3-0.9-0.6-1.4-1
			c-0.2-0.1-0.4-0.2-0.5-0.3c-0.3-0.2-0.4-0.3-0.8-0.5c-0.1-0.1-0.1-0.2-0.2-0.2c-0.1-0.1-0.4-0.1-0.5-0.2c-0.2-0.1-0.3-0.3-0.4-0.4
			c-0.2-0.1-0.4-0.1-0.5-0.2c-0.2-0.1-0.3-0.3-0.4-0.4c-0.2-0.1-0.4-0.1-0.5-0.2c-0.2-0.1-0.3-0.3-0.4-0.4c-0.3-0.2-0.6-0.3-0.9-0.4
			c-0.2-0.1-0.3-0.2-0.5-0.3c-0.1-0.1-0.2-0.2-0.4-0.3c-0.1,0-0.2,0-0.3-0.1c-0.2-0.1-0.3-0.3-0.4-0.4c-0.1-0.1-0.2,0-0.3-0.1
			c-0.2-0.1-0.4-0.4-0.7-0.5c-0.2-0.1-0.4-0.2-0.5-0.3c-0.3-0.2-0.6-0.5-1-0.8c-0.1-0.1-0.2,0-0.3-0.1c-0.1-0.1-0.4-0.4-0.7-0.5
			c-0.1-0.1-0.2,0-0.3-0.1c-0.2-0.2-0.8-0.5-1.2-0.8c-0.2-0.1-0.3-0.3-0.4-0.4c-0.1-0.1-0.2,0-0.3-0.1c-0.6-0.4-1.4-1.1-2.1-1.6
			c-0.2-0.2-0.5-0.4-0.8-0.5c-0.2-0.2-0.5-0.6-0.9-0.8c-0.6-0.4-1.4-1.1-2.1-1.6c-0.3-0.3-0.6-0.5-0.9-0.8c-0.1-0.1-0.1-0.3-0.2-0.4
			c-0.1-0.1-0.2-0.2-0.3-0.2c-0.2-0.4-0.2-0.7-0.5-1c-0.4-0.4-0.8-1.5-1.2-2.2c-0.2-0.4-0.5-0.7-0.8-1.2c-0.3-0.6-0.4-1.2-0.7-2.1
			c-0.1-0.4-0.5-0.8-0.5-1.2c-0.1-0.6-0.1-1.4-0.1-2.1c-0.1-3.5,0-7.4-0.1-10.6c-0.1-1.1-0.1-2.1-0.1-2.9c0-0.3,0-0.7,0-1
			c0-0.4-0.2-0.7-0.2-1.1c-0.1-1.1,0-2.3-0.1-3.5c0-0.4-0.2-0.7-0.2-1.1c0-0.6-0.1-1.2-0.1-1.7c0-0.2,0.1-0.4,0.1-0.4
			c0-0.4-0.2-0.6-0.2-1c0-0.8,0.2-1.7,0.2-2.6c0.1-1.8,0-3.6,0.1-5.3c0-0.9,0-1.8,0.1-2.7c0-0.4,0.2-0.9,0.2-1.3
			c0.1-0.9,0.1-1.8,0.2-2.8c0.1-0.9,0.2-1.5,0.3-2.3c0.1-0.3,0-0.6,0.1-0.9c0-0.1,0.2-0.3,0.2-0.3c0-0.1,0-0.3,0-0.4
			c0-0.1,0.2-0.3,0.2-0.3c0.1-0.5,0.2-0.8,0.5-1.4c0.3-0.5,0.6-0.9,0.9-1.4c0-0.1,0-0.2,0.1-0.3c0-0.1,0.2-0.1,0.2-0.1
			c0.1-0.1,0-0.2,0.1-0.3c0,0,0.2-0.1,0.2-0.1c0.1-0.2,0.1-0.4,0.2-0.5c0.1-0.1,0.2,0,0.3-0.1c0,0,0-0.2,0-0.2c0,0,0.2,0,0.2,0
			c0.4-0.3,0.8-0.9,1.3-1.3c0.6-0.6,1.2-1.1,1.8-1.6c0.7-0.5,1.3-1,1.8-1.6c0.4-0.4,0.7-0.7,1.2-1c0.5-0.3,1.1-1,1.6-1.4
			c0.2-0.1,0.4-0.2,0.5-0.3c0.2-0.1,0.3-0.3,0.4-0.4c0.3-0.2,0.8-0.4,1.1-0.7c0,0,0-0.2,0-0.2c0,0,0.2,0,0.2,0c0.1-0.1,0-0.3,0.1-0.3
			c0.1-0.1,0.2-0.1,0.3-0.1c0.1-0.1,0.3-0.3,0.4-0.4c0.1-0.1,0.4-0.1,0.5-0.3c0-0.1,0.1-0.3,0.1-0.3c0.1-0.1,0.4-0.2,0.5-0.3
			c0.2-0.2,0.4-0.5,0.7-0.7c0.1-0.1,0.2,0,0.3-0.1c0.4-0.3,0.9-0.9,1.5-1.1c0.2-0.2,0.4-0.5,0.7-0.7c0.2-0.1,0.5-0.2,0.9-0.4
			c0.2-0.1,0.3-0.3,0.4-0.4c0.7-0.5,1.3-1,2-1.5c0.1-0.1,0.2,0,0.3-0.1c0.2-0.1,0.4-0.5,0.7-0.7c0.1-0.1,0.2,0,0.3-0.1
			c0.2-0.1,0.4-0.5,0.7-0.7c0.6-0.5,1.5-0.9,2-1.5c0.6-0.1,0.7-0.7,1.1-1c0.1-0.1,0.3,0,0.4-0.1c0.2-0.1,0.5-0.5,0.8-0.8
			c0.2-0.2,0.4-0.3,0.7-0.4c0.2-0.1,0.5-0.2,0.7-0.3c0.1-0.1,0.1-0.3,0.2-0.3c0.2-0.1,0.3-0.2,0.7-0.3c0.3-0.1,0.6-0.4,0.9-0.7
			c0.2-0.2,0.4-0.3,0.5-0.4c0.4-0.3,0.6-0.7,1-1c0.4-0.3,0.8-0.6,1.2-0.9c0.4-0.3,0.7-0.6,1.1-0.9c0.2-0.2,0.5-0.3,0.7-0.4
			c0.2-0.1,0.3-0.4,0.4-0.5c0.4-0.3,0.9-0.4,1.3-0.7c0.1-0.1,0.1-0.3,0.2-0.3c0.3-0.2,0.7-0.3,1.1-0.4c1.1-0.5,2.4-0.8,3.9-1.1
			c0.2,0,0.3-0.1,0.4-0.1c0.5-0.1,1.4-0.2,2.2-0.3c0.6-0.1,1.1-0.3,1.6-0.3c0.8,0,2,0.1,3,0.4c0.4,0.1,0.9,0.3,1.3,0.4
			c0.6,0.2,1.1,0.2,1.6,0.4c0.8,0.4,1.5,1.1,2.3,1.7c0.1,0.1,0.1,0,0.2,0.1c0.4,0.3,1,0.9,1.4,1.3c0.3,0.3,0.4,0.5,0.8,0.8
			c0.1,0.1,0.1,0,0.2,0.1c0.1,0,0.3,0.2,0.4,0.3c1,0.8,2.4,2,3.5,2.9c1.6,1.4,3,2.8,4.5,4.1c0,0,0.2,0.1,0.2,0.1
			c0.3,0.6,1,1.1,1.5,1.6c0.3,0.3,0.6,0.8,1,1.1c0.3,0.3,0.7,0.6,1.1,0.9c0.9,0.8,1.8,1.6,2.7,2.4c0.2,0.2,0.4,0.3,0.5,0.4
			c0.6,0.5,1,0.9,1.6,1.4c0.3,0.3,0.6,0.6,1,1c0.3,0.3,0.7,0.6,1.1,1c0.2,0.1,0.4,0.3,0.5,0.4c0.3,0.3,0.6,0.7,0.9,1.1
			c0.2,0.2,0.4,0.3,0.5,0.5c0.5,0.6,1.2,1.1,1.7,1.7c0.3,0.3,0.7,0.7,1,1.1c0.3,0.4,0.7,1,1.1,1.4c0.1,0.1,0.3,0.1,0.3,0.2
			c0.1,0.1,0,0.2,0.1,0.3c0.3,0.3,0.7,0.6,1,1c0.1,0.2,0.2,0.4,0.3,0.7c0.3,0.5,1,1.2,1.2,1.7c0.1,0.1,0.1,0.4,0.1,0.5
			c0,0.1,0.2,0.3,0.2,0.4c0.2,0.8,0.2,1.8,0.3,2.8c0.1,0.9,0.4,1.9,0.4,2.7c0.1,1.2,0,2.6,0,3.9c0,1.3,0.2,2.5,0.1,3.7
			c-0.1,1.3-0.2,2.5-0.2,3.7c0,0.1,0.1,0.1,0.1,0.2c-0.1,1.1-0.1,2.9-0.1,4.1c0,0.3,0.1,0.5,0.1,0.7c0,0.3,0,1.2,0,1.8
			c0,1.2,0.1,2.5,0.1,3.7c0,1.4-0.3,2.7-0.3,4c0,0.5-0.1,1.1-0.1,1.5c0,0.1,0,0.4,0,0.4c0.1,0.1,0,0.6,0,1c0,0.1,0.1,0.2,0.1,0.4
			c0,0.3,0,0.8,0,1.3c0,0.7,0.1,1.8,0,2.8c0,0.4-0.2,1.4-0.2,2c-0.1,0.6-0.3,1.2-0.2,1.8c-0.2,0.2-0.3,0.5-0.4,0.8
			c-0.1,0.3-0.1,0.7-0.2,1c-0.1,0.2-0.4,0.3-0.4,0.4c0,0.1,0,0.2,0,0.2c-0.8,1.3-2.2,2.6-3.3,3.8c-1.3,1.5-2.6,3-3.8,4.4
			c-0.6,0.7-1.4,1.4-2.1,2.1c-0.7,0.7-1.3,1.4-2,2.1C128.5,130.5,127.1,131.8,125.8,133.2z"/>
		<path fill-rule="evenodd" clip-rule="evenodd" d="M123.7,107.3c0.2,0.5,0.6,0.1,1,0.3c0.1,2.7,1.1,5,1,7.5
			c-0.5,0.1-0.9,0.3-1.4,0.2c-0.1,0-0.2-0.2-0.4-0.1c-0.7,0.2-1,0.7-1.5,1.1c-0.3-0.2-0.7-0.2-1.1-0.3c-0.3-0.1-0.8-0.3-1.2-0.2
			c-0.8,0.1-1.2,0.7-1.6,1.2c-1.3,0-2.9-0.3-3.8,0.4c-0.6-0.1-1-0.2-1.5-0.1c-0.7,0.1-1.1,0.7-1.6,1c-0.6-0.3-1.3-0.4-2.1-0.3
			c-0.7,0.1-1.2,0.6-1.7,0.7c-0.2-0.1-0.1-0.3-0.2-0.5c0-0.1-0.2-0.3-0.2-0.4c-0.1-0.4-0.1-0.8-0.2-1.2c-0.2-0.7-0.7-1.4-0.5-2.2
			c0.7-0.5,2.3-0.2,2.5-1.2c-0.4-0.9-1.3-0.2-1.7-0.1c-0.1,0-0.3,0-0.4,0c-0.2,0.1-0.4,0.3-0.5,0.3c-0.5,0.1-1.1,0.2-1.6,0.2
			c-1.7,0.2-3.3,0.2-5,0.4c-1.1,0.1-2.2,0.4-3.3,0.4c-1,0.1-2.1-0.1-3.2,0c-0.1,0-0.3-0.1-0.4,0c-0.1,0-0.2,0.4-0.7,0.3
			c-1.1-0.5-2-0.9-3.2-1.3c-0.7-0.3-1.3-0.4-1.7-1c-0.2-0.2-0.3-0.6-0.4-0.9c0-0.1-0.2-0.2-0.2-0.2c-0.1-0.1,0-0.2-0.1-0.3
			c-0.5-0.7-1-1.3-1.4-2c-0.4-0.7-0.9-1.4-1.2-2.2c-0.3-0.7-0.5-1.5-0.9-2.2c-0.1-0.2-0.1-0.6-0.2-1.1c-0.1-0.5-0.2-1.1-0.3-1.7
			c0-0.2,0-0.5,0-0.7c0-0.1-0.2-0.3-0.2-0.3c-0.1-0.4,0-0.7-0.1-1.1c-0.1-0.3-0.2-0.5-0.3-0.9c-0.1-0.4,0-0.7-0.1-1.1
			c-0.1-0.3-0.2-0.6-0.3-0.9c-0.1-0.3-0.1-0.7-0.2-1c-0.1-0.3-0.3-0.5-0.3-0.8c-0.3-0.4-0.6-0.9-1.2-1c-0.6-0.1-1.1,0.3-1.6,0.5
			c-0.2,0.7-0.9,1.3-1,2.3c-0.1,0.6,0.1,1.4,0.1,2.2c0,0.9,0.1,2.4,0.2,3.5c-0.3,0.1-0.4-0.3-0.5-0.4c-0.1-0.2-0.2-0.5-0.3-0.7
			c-0.2-0.5-0.3-1-0.4-1.4c-0.2-0.7-0.6-1.2-0.9-1.7c0-0.3,0-0.5,0-0.8c-0.3-0.6-0.6-1.3-0.9-2.1c-0.1-0.4-0.1-0.8-0.2-1.2
			c-0.2-0.9-0.5-2.3-0.5-3.6c0-0.7,0.2-1.4-0.1-2c0.1-0.3,0.2-0.5,0.2-0.9c0.2-1.6,0-3.2,0.2-4.8c0.1-0.6,0.3-1.3,0.4-2
			c0.1-0.7,0.1-1.4,0.2-2.1c0-0.1,0.2-0.3,0.2-0.4c0-0.2,0-0.4,0-0.5c0.1-0.3,0.2-0.6,0.2-0.9c0.1-0.3,0.2-0.6,0.2-1
			c0.1-0.3,0-0.7,0.1-1c0.1-0.4,0.5-0.9,0.8-1.3c0.2-0.5,0.4-0.9,0.7-1.3c0.1-0.2,0.1-0.3,0.2-0.4c0.4-0.4,1.1-1,1.3-1.8
			c0.3-0.2,0.6-0.5,0.9-0.9c0.4-0.5,0.8-0.9,1.2-1.4c0.1-0.2,0.2-0.4,0.3-0.5c0.5-0.7,0.8-1,1.6-1.5c0.7-0.5,1.7-1.1,2.6-1.5
			c0.3-0.1,0.7-0.2,1.1-0.3c0.3-0.1,0.6-0.3,0.9-0.4c1.2-0.5,2.2-0.8,3.6-1.2c0.5-0.1,1-0.4,1.5-0.5c0.9-0.3,2-0.7,3-1
			c0.4-0.1,0.7-0.2,1.1-0.3c0.3-0.1,0.7-0.3,1-0.3c0.3,0,0.6,0.1,1,0.1c0.3,0,0.7-0.2,1-0.2c1.6-0.2,3.3-0.2,5.2-0.3
			c1.6-0.1,2.9-0.1,4.1,0.2c0.8,0.2,1.6,0.5,2.4,0.9c0.2,0.1,0.4,0.3,0.7,0.4c0.3,0.1,0.6,0.1,0.9,0.2c0.1,0,0.2,0.2,0.3,0.2
			c0.3,0.1,0.8,0.2,1.2,0.4c0.1,0.1,0.2,0.2,0.3,0.3c0.7,0.5,1.6,1.3,2.5,1.7c0.1,0.5,0.6,0.7,0.9,1.1c0.1,0.1,0,0.3,0.1,0.4
			c0.2,0.2,0.4,0.4,0.5,0.7c0.2,0.3,0.3,0.5,0.4,0.8c0.2,0.2,0.4,0.4,0.5,0.7c0.2,0.2,0.3,0.5,0.4,0.8c0.3,0.4,0.7,0.9,1.1,1.3
			c0.3,0.3,0.6,0.5,0.9,1c0.1,0.2,0.3,0.4,0.5,0.7c0.3,0.4,0.7,0.9,1.1,1.3c0,0,0.2,0.1,0.2,0.1c0.1,0.3,0.3,0.6,0.5,0.9
			c0.4,0.5,0.9,0.9,1.2,1.5c0.1,0.3,0.2,0.7,0.3,1.1c0.1,0.3,0.4,0.7,0.4,1c0.1,0.4,0.1,0.8,0.2,1.2c0.3,0.6,0.7,0.7,1.2,1.1
			c0.4,0.3,1,0.8,1.2,1.1c0.1,0.2,0.2,0.6,0.3,0.9c0.1,0.3,0.4,0.6,0.4,0.8c0.2,0.4,0.2,1.1,0.3,1.5c0.2,0.5,0.5,1,0.5,1.3
			c0.1,0.4,0,0.8,0.1,1.2c0.3,2.1,1,5.1,0.9,7.6c0,0.6-0.2,1.1-0.2,1.7c-0.1,0.6,0,1.2-0.1,1.7c-0.1,0.4-0.3,0.6-0.4,1
			c-0.1,0.3-0.2,0.7-0.3,1c-0.2,0.3-0.6,0.7-1,1.1c-0.3,0.3-0.6,0.7-0.9,0.9c-0.2,0.1-0.4,0.2-0.7,0.3c-0.3,0.2-0.6,0.4-0.9,0.7
			c-0.2,0.1-0.6,0.3-0.9,0.5c-0.2,0.2-0.4,0.6-0.7,1c-0.3,0.4-0.6,0.7-0.9,1.2C124,105.8,123.8,106.6,123.7,107.3z M122.6,77.6
			c-0.4-0.3-0.7-0.3-1.4-0.4c-0.8-0.1-1.6-0.1-2.5-0.1c-0.3,0.2-0.5,0.4-0.4,0.9c0.2,0.7,1.5,0.5,2.4,0.5c0.6,0.1,1,0.3,1.4,0.2
			c0.2,0,0.4-0.2,0.5-0.3c0.2-0.1,0.6-0.1,0.4-0.4C123.2,77.6,122.8,77.7,122.6,77.6z M102.5,79c-0.2,0.1-0.6,0.2-0.9,0.2
			c-0.2,0-0.4-0.1-0.7-0.1c-0.1,0-0.3,0.2-0.4,0.2c-0.2,0.1-0.4,0.1-0.5,0.1c-0.1,0-0.3,0.2-0.4,0.2c-0.2,0.1-0.5-0.1-0.7,0
			c-0.2,0.1-0.4,0.2-0.7,0.3c-0.2,0.1-0.4,0.2-0.7,0.3c-0.5,0.2-1,0.4-1.4,0.5c-0.6,0.3-1.2,0.9-1.7,1.4c-0.1,0.1-0.3,0.1-0.4,0.2
			c-0.2,0.1-0.2,0.3-0.3,0.4c-0.3,0.3-0.6,0.4-0.8,0.7c-0.1,0.2-0.2,0.6-0.3,0.9c-0.2,0.7-0.5,1.3-0.7,2c-0.3,1.1-0.3,2.3-0.3,3.6
			c0,0.8-0.1,1.7-0.1,2.5c0,2.5,0.5,5.6,0.2,7.8c-0.1,0.7-0.5,1.1-0.8,1.6c-0.7,0.4-1.5,0.7-2.3,1c-0.3,0.1-0.6,0.3-0.9,0.3
			c-0.7,0.2-1.8-0.1-2.1,0.8c0.5,0.9,1.9,0.4,2.7,0.2c0.4-0.1,0.8-0.1,1.1-0.2c0.3-0.1,0.6-0.4,1-0.5c0.1,0,0.2,0,0.3,0
			c0,0,0.2-0.2,0.2-0.2c0.7-0.3,0.8-0.5,1.2-1.2c0.5-0.8,0.6-1.3,0.7-2.4c0.2-2.6-0.3-5.3-0.1-8.1c0.1-1,0-2.7,0.2-3.6
			c0.1-0.2,0.1-0.4,0.1-0.7c0.1-1,0.2-1.5,0.4-2.1c0.1-0.3,0.4-0.8,0.5-1c0.4-0.4,0.7-0.7,1.1-1.1c0.3-0.3,0.6-0.6,0.9-0.8
			c0.1-0.1,0.3-0.1,0.5-0.2c0.2-0.1,0.4-0.2,0.5-0.3c0.2-0.1,0.4-0.1,0.7-0.2c0.2-0.1,0.4-0.3,0.5-0.3c0.2-0.1,0.4,0,0.7-0.1
			c0,0,0.2-0.2,0.2-0.2c0.1,0,0.3,0,0.4,0c0.2-0.1,0.3-0.3,0.4-0.3c0.4-0.2,0.9-0.2,1.3-0.3c0.6-0.2,1.3-0.5,1.3-1.3
			C102.6,79.1,102.6,79,102.5,79z M107.1,79.3c-0.2,0-0.3-0.2-0.5-0.2c-0.3-0.1-0.6,0-0.9,0.1c-0.1,0.1-0.1,0.4-0.1,0.7
			c0.8,0.5,2.3,0.8,3.3,0.5c0.2-0.2,0.2-0.8,0-1C108.3,79.2,107.7,79.4,107.1,79.3z M124.3,100.2c0.4,0,0.8,0,1.1-0.1
			c0,0,0.2-0.2,0.2-0.2c0.4-0.1,0.5,0,0.8-0.1c0.4-0.1,0.7-0.4,1-0.7c0.2-0.1,0.3-0.1,0.4-0.2c0.6-0.5,1.3-1.3,1.5-1.7
			c0.2-0.4,0.1-1,0.2-1.5c0.1-0.5,0.2-1,0.2-1.5c0-0.6-0.1-1.3-0.2-2.1c-0.1-0.7-0.1-1.4-0.2-2.1c-0.1-0.6-0.3-1.3-0.4-1.9
			c0,0-0.2-0.3-0.2-0.3c0-0.2,0.1-0.5,0-0.7c0-0.1-0.2-0.2-0.2-0.3c-0.1-0.2,0-0.4-0.1-0.5c-0.1-0.2-0.3-0.4-0.4-0.7
			c-0.1-0.3-0.2-0.6-0.3-0.8c-0.3-0.4-0.9-0.8-1.3-1.2c-0.2-0.2-0.4-0.4-0.7-0.5c-0.7-0.5-0.7-0.5-1.6-0.7c-1.7-0.3-3.3,0.4-4.4,1.1
			c-0.2,0.1-0.6,0.4-0.7,0.4c0,0,0,0.2,0,0.2c0,0-0.2,0-0.2,0c-0.1,0.1,0,0.2-0.1,0.3c-0.1,0.1-0.2,0.1-0.2,0.2
			c-0.1,0.2-0.1,0.4-0.2,0.7c-0.2,0.4-0.5,0.8-0.7,1.2c-0.1,0.3,0,0.6-0.1,1c-0.1,0.3-0.3,0.6-0.3,0.9c-0.1,0.4-0.1,1-0.1,1.4
			c-0.1,1.5,0,2.4,0.3,3.7c0.3,1.1,0.7,2.3,1.1,3c0.3,0.7,0.7,1.3,1.1,1.7c0.2,0.3,0.6,0.4,0.7,0.8
			C121.5,99.7,122.5,100.3,124.3,100.2z M102.4,84.6c-1,0.3-2,0.6-2.5,1.2c-0.2,0.2-0.2,0.5-0.3,0.7c-0.3,0.4-0.8,0.6-1,1
			c-0.1,0.2-0.2,0.5-0.3,0.8c-0.2,0.4-0.4,0.8-0.5,1.2c-0.1,0.3-0.2,0.5-0.2,0.9c0,0.2-0.2,0.2-0.2,0.4c-0.3,1.2-0.7,2.7-0.7,3.9
			c0,0.9,0.3,1.9,0.4,2.5c0.1,0.3,0.1,0.6,0.1,0.9c0.1,0.5,0.3,1,0.4,1.5c0,0.1,0,0.3,0,0.4c0,0.1,0.2,0.2,0.2,0.3
			c0.2,0.7,0.4,0.9,0.7,1.3c0.1,0.2,0.2,0.5,0.3,0.7c0.4,0.4,1,0.9,1.4,1.1c0.1,0.1,0.4,0.3,0.4,0.3c0.1,0.1,0.2,0.1,0.3,0.2
			c0.4,0.4,1.1,0.6,1.6,0.8c0.6,0.2,1.2,0.4,1.7,0.4c0.5,0,1.5-0.3,2-0.3c0.2,0,0.4,0.1,0.7,0.1c0.4,0,0.8-0.2,1.2-0.3
			c0.5-0.1,0.9-0.1,1.3-0.2c0,0,0.2-0.2,0.2-0.2c0.1,0,0.3,0.1,0.4,0c0.3-0.1,0.6-0.5,1-0.8c0.6-0.4,0.9-0.4,1.1-0.9
			c0,0,0.2-0.1,0.2-0.1c0.2-0.3,0.4-0.8,0.5-1.2c0.2-0.5,0.6-1.2,0.7-1.6c0.1-0.6,0.1-1.5,0.1-2.3c0-0.2,0-0.4,0-0.5
			c0-0.2,0-0.4,0-0.4c0-1.5-0.2-2.3-0.4-3.5c-0.1-0.4-0.1-0.8-0.2-1.2c-0.2-0.9-0.6-1.8-0.8-2.6c-0.1-0.3-0.2-0.4-0.2-0.5
			c-0.1-0.2,0-0.4-0.1-0.5c-0.1-0.3-0.4-0.6-0.5-0.9c-0.5-0.9-1.1-1.5-2.2-2.1c-0.4-0.2-1.1-0.4-1.4-0.5c-0.8-0.3-1.6-0.1-2.5-0.1
			c-0.2,0-0.5-0.1-0.7-0.1c-0.1,0-0.1,0.1-0.1,0.1C103.7,84.4,103,84.5,102.4,84.6z M121.4,111.7c0.6-0.6,0.9-1.3,1-2.3
			c0.1-0.9,0-1.7-0.2-2.3c-0.4-1.3-1.1-2.1-1.8-2.9c-0.3-0.3-0.7-0.7-1-1c-0.2-0.2-0.6-0.3-0.9-0.4c-0.4-0.2-0.7-0.4-1-0.4
			c-0.9-0.1-1.9,0.2-2.2,0.7c-0.2,0.3-0.4,1.4-0.5,2.3c-0.3,1.4-0.4,2.4-0.4,3.8c-0.1,1.3,0,1.8,0.4,2.7c0.5,0.9,0.8,1.4,1.8,1
			c0.9-0.4,1.2-1.2,2.1-1.5C119.3,111.7,120.5,112.1,121.4,111.7z M124.9,113.2c0-0.6-0.7-0.6-1.2-0.3c-0.1,0.7,0.3,0.9,0.8,1
			C124.8,113.6,124.9,113.4,124.9,113.2z M114.8,114c0,0.7,0.1,1.3,0.7,1.4C116.7,115.3,115.8,113.1,114.8,114z M111.1,114.2
			c0.2,0.7,0.3,1.5,0.9,1.8c0.4-0.1,0.7-0.4,0.8-0.9c-0.2-0.4-0.4-0.9-0.7-1.3C111.6,113.8,111.4,114,111.1,114.2z"/>
		<path fill-rule="evenodd" clip-rule="evenodd" d="M125,84.3c0.4-0.1,0.6,0.4,0.9,0.7c0.5,0.5,0.7,0.8,1.1,1.5
			c0.1,0.3,0.2,0.6,0.3,1c0.2,0.6,0.5,1.3,0.7,2c0.2,1.1,0.3,2.4,0.4,3.5c0.1,0.9,0.1,1.5,0,2.5c-0.1,1.1-0.2,2-1.2,2.2
			c0.3-1.4,0.4-3.1,0.2-4.7c-0.1-1-0.4-2-0.7-2.9c-0.2-0.7-0.4-1.5-0.5-2.2c-0.1-0.3,0-0.5-0.1-0.8c-0.1-0.4-0.4-0.8-0.5-1.2
			C125.4,85.3,125.2,84.9,125,84.3z"/>
		<path fill-rule="evenodd" clip-rule="evenodd" d="M108.1,85.7c0.1,0,0.1,0,0.2,0c0.6,0.1,1.2,0.6,1.6,1.1c0.3,0.3,0.6,0.7,0.9,1.3
			c0.1,0.2,0,0.4,0.1,0.5c0.1,0.1,0.2,0.2,0.2,0.3c0.4,1.2,0.7,2.6,1,4c0.2,0.7,0.4,1.4,0.4,2.1c0.1,1.1,0.1,2.5,0,3.5
			c0,0.8-0.2,1.3-0.4,2c-0.3,0.6-0.7,1.5-1.5,1.6c0.3-1.7,0.8-3.8,0.5-6c-0.1-0.4-0.3-0.7-0.3-1.1c-0.1-0.4,0-0.8-0.1-1.2
			c-0.1-0.3-0.2-0.7-0.2-1c-0.1-0.6,0.1-1.3,0-1.8c0-0.3-0.2-0.7-0.3-1.1c-0.4-1.4-1.3-2.8-2-3.9C108.1,86,108.1,85.9,108.1,85.7z"/>
		<path fill-rule="evenodd" clip-rule="evenodd" d="M79.2,95.4c0.6,0.3,0.8,1,1,1.6c0.2,0.7,0.3,1.4,0.4,2.1c0.2,1,0.5,2,0.7,3.3
			c0.4,3,1.6,6,3.3,8.1c0.9,1.3,1.6,2.9,2.8,3.9c1.9,0.2,3.2,1.1,4.9,1.6c0.6,0.2,1.3,0.3,2,0.5c0.3,0.1,0.6,0.2,0.9,0.3
			c0.8,0.2,1.4,0.5,2.1,0.8c0.6,0.2,1.1,0.4,1.6,0.7c0,0,0.1,0.2,0.1,0.2c0.4,0.2,0.9,0.3,1.3,0.7c0.2,0.2,0.5,0.6,1,0.4
			c0.5-0.6-0.2-1.2-0.7-1.5c-0.2-0.2-0.7-0.1-1-0.3c-0.3-0.2-0.4-0.5-0.7-0.7c-0.2-0.1-0.6-0.1-0.9-0.2c-0.6-0.2-1.4-0.7-2-1
			c0.1-0.4,0.7-0.3,1.1-0.4c0.5-0.2,1.5-0.1,2.3-0.2c0.2,0,0.4-0.2,0.8-0.2c1.3-0.2,3.1-0.2,4.6-0.3c1.1,1.6,1,4.4,2.4,5.7
			c0.2,0.8,0.8,1.6,1.5,2c0.1,0.1,0.4,0.2,0.4,0.2c0.5,0.1,1.1,0.1,1.6,0.1c0.1,0.4,0,0.8,0.2,1.3c0.1,0.4,0.5,0.7,0.5,1.1
			c0.9,1,1.6,2,2.7,2.8c0.5,0.4,1.2,0.7,1.7,1.1c0.6,0.3,1.1,0.7,1.6,1.1c0.4,0.3,0.8,0.5,1.3,0.9c0.1,0.1,0.2,0.3,0.3,0.3
			c0.3,0.2,0.7,0.3,1,0.4c0.3,0.2,0.5,0.4,0.8,0.5c0.1,0.1,0.2,0,0.3,0.1c0.8,0.7,2.3,1,3.3,1.7c0.1,0.4-0.4,0.8-0.8,1.2
			c-0.3,0.3-0.8,0.7-1.1,1c-0.7,0.7-1.4,1.4-2.1,2.2c-1.4,1.5-2.7,2.9-4,4.4c-0.5,0.3-0.7,0.9-1.3,1.1c-0.4-0.1-0.6-0.4-0.8-0.8
			c-0.1-0.2-0.2-0.3-0.3-0.4c-0.2-0.3-0.3-0.5-0.5-0.8c-0.2-0.2-0.3-0.6-0.5-0.9c-0.1-0.1-0.1-0.3-0.2-0.4c-0.2-0.2-0.5-0.4-0.7-0.7
			c-0.1-0.1-0.2-0.3-0.3-0.4c-0.2-0.2-0.3-0.4-0.5-0.8c-0.2-0.3-0.6-0.7-0.9-1.1c-0.5-0.7-1.1-1.5-1.7-2.3c-0.1-0.1-0.2-0.3-0.3-0.4
			c-0.2-0.2-0.3-0.4-0.5-0.8c-0.4-0.5-0.9-1.3-1.4-2c-0.4-0.5-0.7-1-1.2-1.4c-0.2-0.2-0.6-0.3-0.9-0.5c-0.7-0.5-1.2-1-2-1.5
			c-0.1-0.1-0.2-0.3-0.3-0.3c-0.4-0.2-0.8-0.3-1.2-0.4c-0.2-0.1-0.4-0.3-0.5-0.3c-0.2-0.1-0.5,0-0.7-0.1c-0.4-0.1-0.7-0.4-1.1-0.5
			c-0.7-0.3-1.4-0.6-2.2-1c-0.3-0.2-0.7-0.3-1.1-0.4c-0.7-0.3-1.4-0.7-2.1-1.1c-0.4-0.2-0.7-0.3-1.1-0.5c-0.1,0-0.2,0-0.3-0.1
			c0,0-0.1-0.2-0.1-0.2c-0.2-0.1-0.4-0.1-0.5-0.2c-0.2-0.1-0.3-0.3-0.4-0.4c-0.2-0.1-0.4-0.1-0.5-0.2c-0.5-0.3-1-0.5-1.6-0.8
			c-0.1,0-0.2-0.2-0.2-0.2c-0.1,0-0.2,0-0.3,0c-0.7-0.3-1.4-0.6-2.2-1c-0.7-0.3-1.1-0.5-1.6-1c-0.2-0.2-0.4-0.4-0.5-0.5
			c-0.4-0.4-0.9-0.6-1.3-0.9c-0.3-0.8-0.9-1.6-1.3-2.6c-0.2-0.4-0.3-0.9-0.5-1.4c-0.3-0.6-0.6-1.1-0.8-1.7c-0.2-0.5-0.4-1.2-0.5-1.8
			c-0.1-0.3,0-0.6-0.1-0.9c0-0.2-0.1-0.4-0.2-0.8c0-0.2-0.1-0.3-0.1-0.4c-0.3-1-0.3-2.5-0.3-3.9c-0.1-1.2-0.3-2.6-0.3-3.8
			c0-0.4,0-0.3,0-0.9c-0.1-0.7-0.2-2-0.1-2.9c0.1-0.5,0.3-1,0.7-1.4c0.1-0.1,0.1-0.2,0.3-0.3C79.2,95.4,79.2,95.4,79.2,95.4z"/>
		<path fill-rule="evenodd" clip-rule="evenodd" d="M73.4,97.6c0.6,0.3,0.6,1.1,0.9,1.7c0.1,0.1,0.3,0.3,0.3,0.4
			c0.1,0.3,0,0.6,0.1,0.9c0.3,1.2,1.1,2.4,1.6,3.7c0,0.1,0.1,0.2,0.1,0.3c0,0,0.1,0.3,0.1,0.3c0.2,0.4,0.7,0.5,0.9,0.9
			c0,0.7,0,1.3,0.1,1.8c0,0.4,0.2,0.6,0.2,0.9c0,0.1,0,0.3,0,0.4c0.2,0.8,0.5,1.6,0.4,2.5c-0.6-0.3-0.9-1-1.3-1.5
			c-0.3-0.4-0.6-0.7-0.9-1.2c-0.1-0.2-0.3-0.2-0.3-0.3c-0.2-0.3-0.2-0.7-0.3-1c-0.2-0.3-0.4-0.5-0.5-0.8c0-0.7-0.2-1.1-0.4-1.4
			c0-1.1-0.6-2.1-0.9-3c-0.1-0.4-0.3-0.8-0.3-1.2c0-0.2,0.1-0.5,0-0.8c0-0.2-0.1-0.3-0.2-0.4c-0.2-0.4-0.4-1.4-0.2-2.2
			C73,97.8,73,97.5,73.4,97.6z"/>
		<path fill-rule="evenodd" clip-rule="evenodd" d="M120.7,110.6c-0.7,0-1.2-0.3-1.5-0.7c-0.2-0.2,0.1-0.5,0.1-0.9
			c-0.2-0.4-0.2-0.8-0.3-1.2c-0.1-0.4-0.5-0.8-0.7-1.2c-0.2-0.5-0.3-1.3-0.5-1.8c-0.2-0.3-0.5-0.6-0.7-1c0-0.2,0.1-0.2,0.1-0.3
			c0.1-0.1,0.2-0.1,0.3-0.1c0.5,0,0.9,0.7,1.3,1c0.2,0.1,0.3,0.1,0.4,0.2c0.2,0.2,0.3,0.5,0.5,0.8c0.2,0.2,0.5,0.4,0.7,0.7
			C121.1,107,121.8,109.3,120.7,110.6z"/>
		<path fill-rule="evenodd" clip-rule="evenodd" d="M126.2,118.5c-0.4,0.6-1.3,0.7-2.3,0.7c-0.2-0.2-0.1-0.5-0.2-0.8
			c-0.2-0.6-0.6-0.8-0.2-1.4c0.1-0.2,0.2-0.4,0.2-0.4c0.4-0.3,1.2-0.3,1.6,0c0.2,0.1,0.5,0.8,0.7,1.2
			C126.1,117.9,126.2,118.2,126.2,118.5z"/>
		<path fill-rule="evenodd" clip-rule="evenodd" d="M122.3,120.4c-0.7,0.3-1.8,0.1-2.5-0.1c-0.3-0.4-0.1-0.8-0.2-1.2
			c-0.1-0.5-0.5-0.8-0.2-1.3c0-0.1,0.4-0.8,0.5-0.9c0.3-0.1,1-0.1,1.3,0c0.2,0.1,1.2,1.2,1.3,1.6
			C122.8,119.2,122.6,119.9,122.3,120.4z"/>
		<path fill-rule="evenodd" clip-rule="evenodd" d="M117.6,117.9c1,0.3,1.4,3.3,0.1,3.7c-1.1,0.3-1.8-0.5-2.1-1.4
			c-0.1-0.2-0.1-0.6-0.1-0.8c-0.1-0.4-0.2-0.6-0.1-0.8C115.6,118.1,116.6,117.6,117.6,117.9z"/>
		<path fill-rule="evenodd" clip-rule="evenodd" d="M113.9,118.4c0.4,0.6,0.5,1.6,0.5,2.6c-0.5,0.1-0.8,0.6-1.3,0.5
			c-0.7-0.1-1.2-1.8-0.7-2.6C112.8,118.5,113.3,118.4,113.9,118.4z"/>
		<path fill-rule="evenodd" clip-rule="evenodd" d="M111.1,119.5c0,0.5,0,1.1,0,1.6c-1.6,1.5-3.8-1.3-1.8-2
			C109.9,118.9,110.7,119,111.1,119.5z"/>
	</g>
	<text x="50%"
	      font-family="'GodHatesCharades'"
	      font-size="13">
		<tspan x="50%"
		       y="65%"
		       style="text-anchor: middle"
		       ng-bind="suggestion.textLines['0']">
		</tspan>
		<tspan x="50%"
		       y="71%"
		       style="text-anchor: middle"
		       ng-bind="suggestion.textLines['1']">
		</tspan>
		<tspan x="50%"
		       y="77%"
		       style="text-anchor: middle"
		       ng-bind="suggestion.textLines['2']">
		</tspan>
		<tspan x="50%"
		       y="83%"
		       style="text-anchor: middle"
		       ng-bind="suggestion.textLines['3']">
		</tspan>
		<tspan x="50%"
		       y="89%"
		       style="text-anchor: middle"
		       ng-bind="suggestion.textLines['4']">
		</tspan>
	</text>
	<text x="50%"
	      y="95%"
	      font-family="'Helvetica'"
	      font-size="8"
	      style="text-anchor: middle; fill: #999"
	      ng-bind="suggestion.owner.name">God Hates Charades
	</text>

</svg>
