<?xml version="1.0" encoding="utf-8"?>
<!-- Generator: Adobe Illustrator 18.1.1, SVG Export Plug-In . SVG Version: 6.00 Build 0)  -->
<!DOCTYPE svg PUBLIC "-//W3C//DTD SVG 1.0//EN" "http://www.w3.org/TR/2001/REC-SVG-20010904/DTD/svg10.dtd">
<svg version="1.0" id="Front" xmlns="http://www.w3.org/2000/svg" xmlns:xlink="http://www.w3.org/1999/xlink" x="0px" y="0px"
	 viewBox="0 0 197.3 269.3" enable-background="new 0 0 197.3 269.3" xml:space="preserve">
	<rect x="0" y="0" fill="#FFFFFF" width="197.3" height="269.3"/>
	<g id="Layer_2">
		<g>
			<path d="M126.1,97c-0.3-0.7-0.6-1.3-0.8-1.9c-0.4-1.2-1.1-2.1-1.9-3c-0.5-0.5-1.1-0.9-1.8-1.2c-1.6-0.6-3.1-0.6-4.7-0.1
				c-0.6,0.2-1.2,0.4-1.8,0.7c-0.3,0.1-0.6,0.1-0.7-0.1c-0.1-0.2-0.1-0.5,0.1-0.8c0.1-0.1,0.3-0.2,0.5-0.4c0-0.5,0-1,0-1.5
				c0-0.1,0-0.3-0.1-0.4c-0.2-0.5-0.4-0.9-0.6-1.3c0-0.1-0.1-0.2-0.2-0.3c-0.9-1-2-1.4-3.3-1.2c-0.6,0.1-1.2,0.4-1.8,0.5
				c-0.3,0.1-0.6,0.2-0.9,0.1c-0.2-0.1-0.5-0.1-0.7-0.1c-0.3,0-0.6-0.1-0.9-0.1c-0.5,0-0.6,0.1-0.6,0.7c0,0.2,0.1,0.4,0.1,0.6
				c-0.1,0.1-0.2,0.2-0.3,0.2c-0.7,0.6-1.3,1.3-1.4,2.3c-0.1,0.8,0.1,1.6,0.5,2.3c0.3,0.6,0.1,1-0.5,1.2c-0.1,0-0.3,0-0.4,0.1
				c-0.8,0.2-1.5,0.4-2.3,0.8c-0.7,0.3-1.4,0.6-2,1c-0.8,0.5-1.7,0.5-2.6,0.5c-0.6,0-1.2,0-1.8,0c-1,0.1-2,0.2-3,0.3
				c-1.1,0.1-2.2,0.3-3.4,0.4c-0.1,0-0.3,0-0.4,0.1c-0.5,0.1-1,0.3-1.5,0.4c-0.8,0.2-1.6,0.4-2.4,0.6c-1.5,0.5-3,0.9-4.4,1.6
				c-0.4,0.2-0.8,0.5-1.1,0.7c-0.3,0.2-0.3,0.5-0.4,0.8c-0.1,0.5,0.3,1,0.9,0.9c0.7-0.1,1.4-0.3,2-0.5c0.8-0.2,1.6-0.5,2.4-0.7
				c1.1-0.4,2.2-0.7,3.4-0.8c0.3,0,0.7,0,1,0c1.6-0.2,3.2-0.3,4.8-0.5c1.5-0.2,1.1,0,2.1-1.1c0.2-0.2,0.3-0.4,0.5-0.6
				c0.2-0.2,0.5-0.2,0.7,0c0.2,0.2,0.2,0.4,0.1,0.7c-0.1,0.1-0.2,0.3-0.3,0.4c-0.5,0.6-1.1,1.2-1.6,1.7c-0.5,0.5-1,1-1.4,1.6
				c-0.6,0.8-1.1,1.6-1.6,2.4c-1,1.3-1.9,2.6-2.5,4.2c-0.2,0.4-0.4,0.7-0.6,1.1c-0.1,0.2-0.3,0.3-0.4,0.5c-0.3,0-0.4-0.1-0.6-0.1
				c-1.4-0.3-2.7-0.4-4.1-0.2c-0.8,0.1-1.6,0.4-2.3,0.6c-1.2,0.3-2.4,0.8-3.3,1.6c-0.6,0.5-1.2,1.1-1.6,1.8c-0.6,1.1-1.2,2.2-1.7,3.3
				c-0.4,0.8-0.7,1.7-0.9,2.6c-0.4,2.1-0.9,4.1-1,6.2c0,0.9-0.1,1.8,0.1,2.7c0.2,1,0.3,1.9,0.5,2.9c0.1,0.5,0.2,1,0.3,1.4
				c0.1,0.3,0.2,0.5,0.4,0.7c0.5,0.6,0.9,0.7,1.6,0.4c0.3-0.1,0.5-0.3,0.7-0.6c0.5-0.6,0.8-1.3,0.9-2c0.2-1.5,0.4-3,0.4-4.5
				c0-0.4-0.1-0.8,0-1.1c0.2-1.5,0.5-3,1-4.5c0.2-0.6,0.5-1.2,0.8-1.9c0.6-1.4,1.5-2.7,2.6-3.7c0.8-0.8,1.8-1.2,2.9-1.1
				c0.6,0,1.1,0,1.7,0.1c0.5,0,1,0.1,1.4,0.2c0.4,0.1,0.8,0.3,1.2,0.6c0.1,0.1,0.2,0.3,0.2,0.5c-0.2,1.1-0.5,2.1-0.7,3.2
				c-0.4,1.4-0.8,2.9-1.1,4.3c-0.3,1.5-0.6,3-0.8,4.5c-0.1,0.8-0.1,1.7,0,2.5c0.1,0.9,0.3,1.8,0.7,2.6c0.2,0.4,0.3,0.8,0.5,1.1
				c0.5,0.6,1.1,1.3,1.7,1.8c1.2,1,2.6,1.6,4.1,2c0.8,0.2,1.7,0.3,2.5,0c0.1-0.1,0.3-0.1,0.4-0.2c1.2-0.3,1.8-1.7,1.6-2.8
				c0-0.2-0.2-0.4-0.4-0.5c-0.4-0.2-0.7-0.4-1.1-0.5c-0.9-0.3-1.9-0.5-2.7-1c-1-0.6-1.9-1.3-2.3-2.5c-0.1-0.3-0.1-0.6-0.2-0.9
				c-0.4-1.1-0.3-2.2-0.2-3.3c0.1-1.1,0.5-2.2,0.8-3.3c0.4-1.6,1-3.1,1.7-4.5c0.3-0.6,0.5-1.1,0.8-1.7c0.4-0.8,0.9-1.6,1.4-2.4
				c0.5-0.9,1-1.9,1.6-2.8c0.8-1.4,1.7-2.8,2.6-4.3c0.3-0.6,0.7-1.1,1.2-1.5c0.3-0.2,0.5-0.5,0.8-0.8c0.5-0.5,1-1.1,1.5-1.5
				c1.4-1.2,2.8-2.4,4.2-3.6c0.5-0.4,0.9-0.9,1.4-1.2c1-0.8,2-1.5,3-2.2c0.7-0.5,1.5-0.9,2.3-1.3c0.8-0.4,1.7-0.5,2.6-0.6
				c1-0.1,1.9,0,2.8,0.2c1.1,0.3,1.9,0.9,2.3,2c0.2,0.5,0.4,0.9,0.5,1.4c0.2,0.5,0.4,1,0.3,1.5c-0.1,0.7,0.1,1.4,0.2,2
				c0.1,0.5,0.4,0.9,0.9,1c0.4,0.1,0.8,0.1,1.3,0.1c0.5,0,0.7-0.3,0.8-0.7c0.1-0.3,0.2-0.6,0.1-0.9c-0.1-0.9-0.3-1.7-0.5-2.6
				C126.3,97.7,126.2,97.3,126.1,97z"/>
			<path d="M152,93.2c0-0.1-0.1-0.1-0.2-0.3c0-0.7,0.2-1.8,0.2-2.3c0-0.1-0.1-0.1-0.1-0.1c-0.1-1-0.1-1.9-0.1-2.8
				c-0.1-0.7-0.3-1.9-0.3-2.2c0-0.1-0.1-0.1-0.1-0.1c0-0.3,0.1-0.6,0-0.9c-0.1-0.5-0.6-1.2-0.6-1.5c-0.1-0.2,0-0.5-0.1-0.7
				c-0.2-0.7-0.5-1.4-0.7-2.1c-0.5-1.5-0.9-3-1.4-4.4c-0.2-0.6-0.4-1.2-0.6-1.6c-0.1-0.1-0.2-0.3-0.3-0.4c-0.1-0.4-0.1-0.8-0.3-1.2
				c-0.1-0.2-0.2-0.3-0.3-0.4c-0.1-0.2,0-0.5-0.1-0.7c-0.1-0.2-0.2-0.2-0.3-0.4c-0.1-0.2-0.1-0.4-0.2-0.5c-0.4-0.9-0.8-1.6-1.2-2.3
				c-0.4-0.8-1-1.5-1.5-2c-0.1-0.1-0.1-0.2-0.2-0.3c-0.1-0.1-0.3-0.1-0.4-0.2c-0.1-0.2-0.2-0.4-0.3-0.6c-0.1-0.2-0.4-0.3-0.5-0.5
				c-0.3-0.4-0.5-0.8-0.8-1.1c-1.1-1.4-2.4-2.8-3.3-4.5c-0.7-0.5-1.2-1.1-1.8-1.7c-0.3-0.3-0.6-0.5-0.9-0.8c-0.2-0.2-0.6-0.4-0.7-0.6
				c-0.1-0.1-0.1-0.2-0.2-0.3c-0.9-0.9-1.8-1.7-2.6-2.6c-0.1-0.1-0.2-0.1-0.3-0.2c-0.1-0.1-0.1-0.2-0.2-0.3c-0.6-0.8-1.4-1-2.1-1.6
				c-0.1-0.1-0.2-0.3-0.3-0.4c-0.2-0.1-0.3-0.2-0.5-0.3c-0.5-0.3-1.1-0.7-1.5-0.9c-0.1-0.1-0.2-0.1-0.3-0.2c-0.3-0.2-0.7-0.3-1-0.4
				c-0.3-0.2-0.6-0.4-0.9-0.6c-0.3-0.2-0.6-0.5-1-0.5c-0.9-0.2-1.7-0.4-2.5-0.8c-0.1,0-0.1-0.2-0.1-0.2c-0.1-0.1-0.3,0-0.3-0.1
				c-0.6-0.3-1.3-0.3-1.8-0.8c-0.7,0.1-1.3-0.3-2-0.4c-0.7-0.1-1.4-0.1-2.1-0.2c-0.7-0.1-1.4-0.2-2.1-0.3c-0.3-0.1-0.7-0.2-1-0.2
				c-0.4,0-0.8,0.1-1.2,0.1c-0.6-0.1-1.3-0.3-2-0.4c-0.3-0.1-0.7,0-1-0.1c-0.3-0.1-0.6-0.2-0.9-0.3c-0.6-0.2-1.3-0.3-2-0.4
				c-0.4-0.1-0.8,0-1.1-0.1c-0.3-0.1-0.6-0.3-0.9-0.3c-0.4,0-0.8,0.1-1.2,0.1c-0.4,0-0.8-0.1-1.2-0.1c-1.4,0.1-2.8,0.5-4.3,0.6
				c-0.5,0-0.9-0.1-1.4-0.2c-0.4,0-0.9,0.1-1.3,0.1c-1.1,0-2.6-0.2-3.3,0.1c-1.3,0.5-2.8,0.3-4.2,0.7c-0.7,0.2-1.4,0.6-2.1,0.8
				c-0.8,0.3-1.6,0.4-2.4,0.7c-0.3,0.1-0.6,0.2-0.9,0.3c0.1,0.1,0.2,0.2,0.2,0.3c0.2,0.2,0.3,0.5,0.4,0.7c0.3,0.4,0.6,0.9,0.9,1.3
				c0.1,0.2,0.2,0.4,0.3,0.6c0.2,0.2,0.3,0.6,0.5,0.9c0.1,0.2,0.3,0.5,0.4,0.7c0.1,0.3,0.3,0.5,0.4,0.8c0.2,0.3,0.3,0.5,0.5,0.8
				c0.3,0.5,0.6,0.9,0.9,1.4c0,0,0.2,0.1,0.2,0.1c0,0.1,0,0.2,0.1,0.2c0.1,0.1,0.2,0.1,0.2,0.2c0.1,0.2,0.2,0.4,0.3,0.5
				c0.1,0.2,0.2,0.3,0.3,0.5c0,0.1,0.1,0.2,0.1,0.2c0.1,0.1,0.1,0.1,0.2,0.2c0.1,0.2,0.2,0.4,0.3,0.5c0.2,0.2,0.4,0.4,0.5,0.7
				c0.1,0.1,0.1,0.4,0.2,0.6c0.1,0.2,0.3,0.3,0.4,0.5c0.1,0.2,0.2,0.4,0.3,0.6c0.5,0.8,0.9,1.4,1.4,2.4c0.3,0.5,0.5,0.9,0.5,1.3
				c0,0.2-0.2,0.3-0.5,0.5c-0.1,0.1-0.3,0.1-0.4,0.2c-0.1,0.1-0.2,0.2-0.3,0.2c-0.4,0.2-0.8,0.4-1.2,0.6c-0.1,0.1-0.3,0.1-0.4,0.1
				c0,0-0.1,0.1-0.2,0.2c-0.7,0.4-2.3,0.6-3.2,1.3c0.1,0.3,0.3,0.6,0.5,0.8c0.6,1,1.2,2.1,1.9,3.1c0.2,0.2,0.3,0.5,0.5,0.8
				c0.2,0.4,0.6,0.8,0.8,1.2c0.1,0.2,0.2,0.4,0.4,0.6c0.3,0.4,0.6,1,1,1.5c0,0.1,0.1,0.2,0.1,0.2c0,0.1,0.1,0.1,0.2,0.1
				c0.1,0.1,0.1,0.2,0.1,0.2c0.1,0.1,0.1,0.1,0.2,0.2c0.1,0.1,0.1,0.1,0.2,0.2c0.1,0.1,0,0.2,0.1,0.3c0.2,0.3,0.4,0.5,0.6,0.8
				c0.2,0.3,0.3,0.6,0.5,0.9c0,0.1,0.1,0.1,0.2,0.2c0.1,0.2,0.2,0.5,0.4,0.7c0.2,0.3,0.4,0.5,0.5,0.8c0.2,0.3,0.3,0.6,0.5,0.9
				c0.1,0.2,0.4,0.3,0.5,0.6c0.1,0.2,0.2,0.4,0.3,0.6c0,0.1,0.1,0.1,0.2,0.2c0.1,0.1,0.1,0.2,0.1,0.3c0.1,0.2,0.2,0.3,0.3,0.4
				c0.1,0.2,0.2,0.3,0.3,0.5c0.3,0.5,0.6,0.9,0.9,1.4c0.2,0.3,0.3,0.6,0.5,0.8c0.2,0.3,0.4,0.6,0.6,1c0.4,0.8,1,1.7,1.4,2.4
				c0,0.1,0.1,0.1,0.1,0.1c0.1,0.1,0.1,0.3,0.2,0.6c0.1,0.1,0.1,0.2,0.2,0.3c0.1,0.2,0.3,0.4,0.5,0.6c0.1,0.1,0,0.1,0,0.2
				c0.1,0.4,0.7,0.8,0.6,1.4c-0.1,0-0.1,0.1-0.2,0.2c-0.3,0-0.5-0.1-0.8-0.1c-0.1-0.2-0.3-0.3-0.4-0.4c-0.1-0.1-0.2-0.3-0.3-0.4
				c-0.1-0.1-0.3-0.2-0.4-0.4c-0.1-0.2-0.2-0.4-0.3-0.5c-0.1-0.2-0.3-0.3-0.4-0.4c-0.1-0.1-0.1-0.2-0.2-0.3c-0.1-0.1-0.2-0.1-0.2-0.1
				c-0.1-0.1-0.2-0.3-0.3-0.5c-0.2-0.2-0.5-0.4-0.7-0.7c-0.1-0.1-0.2-0.3-0.3-0.4c-0.1-0.1-0.3-0.3-0.4-0.4c-0.1-0.1-0.1,0-0.2-0.1
				c-0.2-0.2-0.4-0.4-0.5-0.6c-0.1-0.1-0.2-0.3-0.3-0.4c-0.1-0.1-0.2-0.1-0.2-0.1c-0.1-0.1-0.1-0.2-0.1-0.2c-0.2-0.2-0.4-0.3-0.5-0.5
				c-0.1-0.1-0.1-0.2-0.1-0.2c-0.1-0.1-0.2-0.2-0.4-0.3c-0.1-0.1-0.2-0.3-0.3-0.4c-0.2-0.2-0.4-0.5-0.7-0.8c-0.3-0.3-0.6-0.7-0.8-1
				c-0.1-0.1-0.1-0.1-0.2-0.2c-0.1-0.2-0.2-0.4-0.3-0.5c-0.1-0.1-0.2-0.1-0.4-0.3c-0.1-0.3-0.4-0.4-0.5-0.7c-0.1-0.1-0.3-0.1-0.4-0.2
				c-0.1-0.2-0.3-0.4-0.5-0.5c-0.2-0.2-0.3-0.3-0.5-0.4c-0.1-0.4-0.4-0.5-0.6-0.7c-0.1-0.1-0.2-0.3-0.3-0.4c-0.1-0.1-0.2-0.2-0.3-0.3
				c-0.2-0.5-0.5-0.8-0.8-1.2c0,0-0.1-0.1-0.1-0.2c-0.1-0.1-0.3-0.3-0.5-0.6c-0.2-0.3-0.3-0.6-0.6-0.9C85,74,84.8,74,84.8,73.8
				c-0.1-0.2-0.3-0.1-0.4-0.3c-0.1-0.4-0.4-0.6-0.6-0.8c-0.1-0.1-0.1-0.3-0.3-0.5c-0.1-0.1-0.2-0.2-0.4-0.3c-0.1-0.1-0.1-0.2-0.2-0.3
				c0,0-0.1,0-0.1-0.1c0-0.1,0-0.2-0.1-0.2c-0.2-0.2-0.5-0.4-0.7-0.6c0-0.2-0.2-0.4-0.3-0.6c-0.2-0.3-0.6-0.5-0.9-0.9
				c-0.1-0.2-0.3-0.4-0.5-0.6c-0.1-0.2-0.3-0.3-0.4-0.6c0-0.1,0-0.2-0.1-0.3c0,0-0.1,0-0.1-0.1c-0.1-0.1,0-0.2-0.1-0.3
				c0,0-0.1,0-0.1-0.1c-0.1-0.1-0.2-0.1-0.3-0.2c-0.1-0.1-0.1-0.3-0.2-0.4c-0.1-0.1-0.2-0.2-0.3-0.2c-0.3-0.4-0.6-0.8-1-1.2
				c-0.1-0.1-0.2-0.2-0.3-0.2c-0.2-0.3-0.5-0.6-0.7-0.9c-0.2-0.3-0.4-0.6-0.6-0.9c0-0.1-0.1-0.2-0.1-0.2c-0.1-0.2-0.3-0.2-0.4-0.4
				c0,0,0-0.3,0-0.3c0-0.1,0.1-0.2,0.1-0.3c0-0.2,0.1-0.4,0.1-0.5c0.4-0.1,0.6-0.4,1-0.6c0.3-0.1,0.6-0.2,0.9-0.3
				c0.5-0.2,1-0.5,1.5-0.7c0.3-0.1,0.6-0.2,0.9-0.3c0.2-0.1,0.3-0.4,0.5-0.6c-0.2-0.4-0.4-0.8-0.7-1.1c-0.2-0.4-0.4-0.8-0.7-1
				c-0.1-0.3-0.2-0.5-0.4-0.8c-0.1-0.2-0.3-0.3-0.4-0.5c-0.1-0.1-0.1-0.2-0.2-0.3c-0.1-0.2-0.4-0.6-0.6-0.9c-0.1-0.2-0.3-0.3-0.4-0.5
				c-0.1-0.1-0.1-0.3-0.3-0.4c0-0.2-0.1-0.3,0-0.4c-0.1-0.2-0.2-0.1-0.2-0.2c-0.1-0.2,0-0.3-0.2-0.5c-0.1,0-0.2-0.1-0.3-0.2
				c0-0.3-0.4-0.6-0.3-0.9c-0.1-0.1-0.3-0.2-0.4-0.4c0,0-0.1-0.1,0-0.1c-0.3-0.3-0.7-0.5-0.6-1.1c-0.2-0.1-0.3-0.4-0.5-0.6
				c0,0-0.1-0.1-0.1-0.1c0,0,0,0-0.1,0c-0.1,0.1-0.3,0.3-0.4,0.4c-0.2,0.1-0.4,0.1-0.5,0.2c-0.1,0.1-0.3,0.2-0.4,0.3
				c-0.5,0.3-1.2,0.6-1.7,0.9c-0.4,0.3-0.7,0.6-1.1,0.8c-0.4,0.2-0.9,0.3-1.3,0.5c-1.2,0.5-2,1.1-2.9,1.8c-0.7,0.5-1.6,1.1-2,1.6
				c-0.5,0.5-1.2,1-1.6,1.3c-0.4,0.4-0.8,0.7-1.2,1.1c-0.5,0.6-1.3,1-1.7,1.6c-0.1,0.1-0.2,0.4-0.3,0.5c-0.1,0.1-0.1,0.1-0.2,0.1
				c-0.8,0.9-1.8,2-2.4,2.9c-0.2,0.2-0.2,0.5-0.4,0.7c0,0-0.2,0-0.2,0c-0.2,0.1-0.3,0.6-0.4,0.7c0,0-0.2,0.1-0.2,0.1
				c-0.2,0.4-0.5,0.6-0.7,0.9c-0.1,0.2-0.2,0.5-0.4,0.7c-0.1,0.2-0.4,0.4-0.5,0.6c-0.1,0.2-0.2,0.5-0.4,0.7c-0.9,1.7-1.9,3.7-2.6,5.7
				c-0.5,1.5-1.1,3.1-1.5,4.6c-0.2,0.5-0.5,1.1-0.6,1.5c-0.1,0.3,0,0.6,0,0.9c0,0.3-0.2,0.5-0.2,0.7c-0.1,0.3-0.1,0.5-0.1,0.8
				c0,0.2-0.2,0.5-0.2,0.7C48.2,82.8,48,83,48,83.3c0,0.3,0.1,0.6,0,0.9c0,0.2-0.2,0.5-0.2,0.7c-0.1,0.3,0.1,0.7,0,1
				c-0.1,0.5-0.2,1.1-0.2,1.6c0,0-0.2,0.2-0.2,0.3c-0.1,0.5,0.1,1,0.1,1.4c-0.1,1.1-0.3,2.3-0.3,3.4c0,0.8,0.1,1.7,0.2,2.5
				c0.1,0.5,0.2,0.9,0.3,1.3c0,0.4-0.1,0.9,0,1.3c0,0.9,0.2,1.8,0.3,2.8c0,0.7,0.1,1.9,0.2,2.2c0,0-0.1,0-0.1,0.1
				c0.1,0.8,0.3,1.8,0.5,2.7c0.2,1.1,0.5,2.4,0.5,3.3c0,0.3,0.2,0.6,0.2,0.6c0.3,1.4,0.6,2.7,1,3.9c0.2,0.8,0.4,1.6,0.8,2.4
				c0.1,0.3,0.4,0.6,0.6,0.9c0.2,0.4,0.3,0.8,0.5,1.2c0.2,0.3,0.4,0.6,0.6,0.9c0.2,0.3,0.3,0.7,0.5,1.1c0.1,0.2,0.3,0.2,0.4,0.3
				c0.1,0.2,0.1,0.5,0.2,0.6c0.3,0.6,0.6,1.2,0.8,1.6c0.1,0.2,0.1,0.4,0.2,0.6c0.2,0.4,0.4,0.7,0.6,0.9c0.4,0.7,0.6,1.5,1.1,2.1
				c0.1,0.2,0.2,0.2,0.4,0.3c0.1,0.1,0.2,0.4,0.3,0.5c0.4,0.5,0.7,1.3,1,1.7c0.3,0.4,0.5,0.9,0.8,1.2c0.1,0.1,0.4,0.3,0.5,0.4
				c0.1,0.1,0.1,0.2,0.2,0.3c0.4,0.4,0.8,0.7,1.1,1.1c0.7,0.6,1.2,1.3,1.8,1.9c0.9,0.9,1.9,1.8,2.9,2.4c0.1,0.1,0.3,0,0.3,0.1
				c0.3,0.2,0.5,0.5,0.8,0.7c0.1,0.1,0.3,0,0.3,0.1c0.1,0,0.2,0.1,0.2,0.2c1.3,0.9,2.3,1.9,3.5,2.8c0.7,0.5,1.3,1.1,2,1.5
				c0.7,0.5,1.6,0.8,2.2,1.4c0.7,0.1,1.3,0.3,2,0.4c0.9,0.9,2.6,0.7,3.6,1.5c0.9,0,1.6,0.5,2.4,0.7c0.4,0.1,0.9,0.2,1.3,0.3
				c1,0.3,2,0.7,2.9,1c0.2,0.1,0.5,0.1,0.7,0.1c0.8,0.2,1.5,0.7,2.2,0.9c0.2,0.1,0.6-0.1,0.9,0c0.1,0,0.3,0.1,0.4,0.2
				c0.2,0,0.2,0,0.5,0.1c1.3,0.2,2.5,0.2,3.6,0.4c0.1,0,0.3,0.2,0.4,0.2c0.5,0.1,0.9,0,1.5,0c1.3,0.1,2.5,0.1,3.8,0.1
				c0.3,0,0.6,0.1,0.9,0.1c0.4,0,0.7-0.2,1.1-0.1c0.6,0,1.2,0.2,1.8,0.2c0.6,0,1.2-0.2,1.8-0.2c0.6-0.1,1.1-0.2,1.6-0.2
				c2.6-0.3,5-0.6,7-0.9c1.3-0.2,2.6-0.3,3.6-0.6c0.6-0.2,1.2-0.6,1.8-0.8c0.9-0.3,1.8-0.5,2.5-0.8c0.2-0.1,0.2-0.2,0.4-0.3
				c0.3-0.1,0.5-0.3,0.8-0.4c0.7-0.3,1.4-0.4,1.9-0.7c0.3-0.2,0.5-0.4,0.8-0.7c0.4-0.3,1-0.7,1.3-1c0.2-0.1,0.3-0.3,0.4-0.4
				c0.5-0.4,1-0.6,1.5-0.9c0.3-0.2,0.5-0.3,0.7-0.4c0.1,0,0.2-0.1,0.3-0.2c0.6-0.3,0.9-0.6,1.4-1c0.6-0.4,1-0.6,1.3-1
				c0.3-0.3,0.6-0.5,0.9-0.7c0.3-0.2,0.6-0.5,0.8-0.7c0.1-0.1,0.3-0.3,0.4-0.4c0.5-0.5,1.1-1,1.6-1.4c0,0,0-0.2,0.1-0.2
				c0.1-0.1,0.2-0.1,0.3-0.2c0.3-0.3,0.4-0.7,0.7-0.9c0.1-0.1,0.4-0.2,0.5-0.3c0.2-0.2,0.4-0.6,0.7-0.9c0.1-0.1,0.3-0.1,0.4-0.3
				c0.1-0.1,0.2-0.4,0.3-0.5c0.7-0.8,1.4-1.7,2-2.5c0.1-0.1,0.1-0.3,0.2-0.5c0.2-0.3,0.4-0.4,0.5-0.6c0.1-0.1,0.1-0.2,0.2-0.3
				c0.5-0.8,0.9-1.6,1.4-2.4c0.5-1,1.1-2,1.5-2.9c0.3-0.5,0.5-1,0.7-1.4c0.2-0.4,0.4-0.6,0.5-1c0.1-0.2,0.1-0.4,0.1-0.6
				c0.3-0.7,0.6-1.4,0.8-2.1c0.2-0.4,0.6-0.7,0.5-1.4c0.5-0.7,0.5-1.7,0.8-2.6c0.1-0.2,0.2-0.3,0.3-0.5c0.4-1.1,0.5-2.2,0.8-3.3
				c0.1-0.3,0.2-0.7,0.3-1c0.1-0.4,0.3-0.8,0.3-1.2c0-0.5-0.1-0.9-0.1-1.3c0-0.4,0.2-0.8,0.2-1.1c0-0.4-0.1-0.7,0-1.1
				c0-0.4,0.1-0.7,0.2-1.1c0-0.4,0-0.8,0.1-1.2c0-0.4,0.1-0.8,0.2-1.1c0-0.2-0.1-0.4-0.1-0.7c0-0.2,0.1-0.4,0.2-0.6
				c0-0.2,0-0.5,0-0.7c0-0.3,0.1-0.5,0.2-0.6c0.1-0.8,0-1.7,0-2.6C151.9,94.8,152,93.7,152,93.2z M125.7,71.5
				c0.2-0.3,0.7-0.7,0.9-0.9c0.4-0.2,0.8,0.1,1.1,0.2c0.3,0.1,0.6,0.1,0.9,0.2c0.2,0.1,1,0.8,1,1.1c0,0.4-0.3,0.7-0.7,0.9
				c-0.2,0.3-0.6,0.5-0.9,0.8c-0.6,0.5-1.1,1.7-2,1.3c0,0-0.1-0.1-0.1-0.2c0,0-0.1,0-0.2,0c-0.2-0.2-0.3-0.6-0.5-0.9
				c-0.2-0.4-0.7-0.7-0.7-1C124.5,72.7,125.3,72,125.7,71.5z M115.8,77.3c0.1-0.3,0.4-0.7,0.6-1c0.1-0.1,0.2-0.1,0.3-0.2
				c0.4-0.5,0.7-1.1,1.4-1.3c0.6,0.3,1,0.4,1.6,0.9c0.5,0.4,0.6,0.6,0.3,1.2c-0.1,0.2-0.2,0.4-0.3,0.5c-0.3,0.4-0.7,0.6-0.9,1.1
				c0,0.1,0,0.1-0.1,0.2c-0.2,0.3-0.6,1.2-1.1,1.3c-0.4,0.1-1.2-0.7-1.6-1c-0.2-0.2-0.7-0.5-0.8-0.8
				C115.3,77.7,115.6,77.5,115.8,77.3z M127.3,102.8c-0.3,0.4-0.7,0.5-1.2,0.6c-0.7,0.1-1.5,0-2.2-0.3c-0.8-0.3-1.2-1-1.4-1.9
				c-0.2-1-0.3-1.9-0.4-2.9c-0.1-0.8-0.4-1.4-0.7-2.1c-0.2-0.5-0.6-0.7-1.1-0.9c-0.6-0.2-1.2-0.3-1.9-0.3c-1,0-2,0.1-2.8,0.5
				c-1.1,0.5-2.2,1-3.2,1.8c-0.8,0.6-1.6,1.1-2.4,1.8c-0.5,0.4-1,0.9-1.5,1.3c-1.1,0.9-2.2,1.8-3.3,2.7c-0.9,0.7-1.6,1.6-2.4,2.4
				c-0.1,0.1-0.2,0.2-0.4,0.4c-0.5,0.5-0.9,0.9-1.2,1.5c-0.8,1.3-1.6,2.6-2.4,3.9c-0.4,0.7-0.7,1.3-1.1,2c-0.4,0.7-0.8,1.5-1.3,2.2
				c-0.5,0.7-0.9,1.6-1.2,2.4c-0.8,1.6-1.4,3.2-1.8,4.9c-0.2,0.9-0.5,1.7-0.7,2.6c-0.2,0.7-0.2,1.4-0.1,2.1c0,0.6,0.2,1.2,0.4,1.7
				c0.2,0.5,0.3,0.9,0.7,1.3c0.5,0.6,1.3,1,2,1.3c0.5,0.2,1.1,0.3,1.6,0.5c0.4,0.1,0.7,0.2,1.1,0.4c0.9,0.4,1.3,1.2,1.2,2.2
				c-0.1,1.6-0.9,2.8-2.4,3.4c-1,0.4-2,0.5-3.1,0.3c-1.3-0.3-2.6-0.8-3.7-1.4c-1.1-0.6-2-1.4-2.9-2.2c-0.5-0.5-0.8-1.1-1-1.8
				c-0.3-0.8-0.5-1.7-0.7-2.5c-0.1-0.3-0.1-0.6-0.1-0.9c0-1.3,0.1-2.7,0.3-4c0.2-1.1,0.4-2.3,0.6-3.4c0.3-1.4,0.7-2.9,1.1-4.3
				c0.2-0.8,0.4-1.7,0.6-2.6c-0.5-0.3-1.1-0.3-1.6-0.3c-0.5-0.1-1.1-0.1-1.6-0.1c-0.8,0-1.5,0.2-2.1,0.8c-1.2,1.1-1.9,2.5-2.6,3.9
				c-0.6,1.4-1,2.9-1.3,4.4c-0.2,0.6-0.2,1.3-0.1,2c0,0.9-0.1,1.7-0.2,2.5c0,0.5,0,1.1-0.1,1.6c-0.2,1.4-0.6,2.7-1.6,3.7
				c-0.8,0.7-1.7,0.9-2.7,0.7c-0.5-0.1-0.9-0.5-1.2-0.9c-0.3-0.5-0.5-1-0.6-1.6c-0.3-1.4-0.6-2.7-0.8-4.1c-0.1-0.9-0.1-1.8-0.1-2.7
				c0.1-2.1,0.5-4.2,0.9-6.3c0.2-1.2,0.6-2.3,1.1-3.4c0.5-1,0.9-2,1.5-2.9c0.4-0.7,0.9-1.2,1.4-1.8c1-1.1,2.3-1.7,3.7-2.2
				c0.8-0.3,1.7-0.5,2.6-0.7c1.4-0.3,2.9-0.2,4.4,0c0.1,0,0.3,0,0.5,0.1c0.2-0.3,0.3-0.6,0.5-1c0.4-1,1-2,1.6-2.9c1-1.4,2-2.9,3-4.3
				c-0.1,0-0.2,0-0.3,0c-1.4,0.1-2.8,0.3-4.1,0.4c-0.3,0-0.6,0-1,0c-1.3,0.1-2.5,0.5-3.7,0.9c-0.9,0.3-1.8,0.6-2.7,0.8
				c-0.4,0.1-0.8,0.2-1.2,0.3c-0.7,0.3-1.3,0-1.9-0.4c-0.5-0.4-0.7-1-0.6-1.6c0-1.1,0.7-1.7,1.6-2.2c0.9-0.5,1.9-0.9,2.9-1.2
				c0.4-0.1,0.8-0.3,1.2-0.4c0.8-0.2,1.6-0.5,2.4-0.7c0.4-0.1,0.8-0.3,1.3-0.4c0.1,0,0.1,0,0.2-0.1c1.7-0.4,3.4-0.6,5.2-0.8
				c0.8-0.1,1.6-0.1,2.3-0.2c0.8-0.1,1.6-0.1,2.4-0.1c0.8,0,1.7,0,2.4-0.5c0.4-0.3,0.9-0.5,1.3-0.7c0.7-0.4,1.5-0.6,2.2-0.8
				c0.2-0.1,0.4-0.1,0.6-0.2c-0.1-0.2-0.1-0.4-0.2-0.6c-0.4-1.4-0.3-2.7,0.6-3.9c0.2-0.3,0.4-0.5,0.6-0.8c-0.1-0.2-0.1-0.3-0.2-0.5
				c-0.3-0.8,0.1-1.4,0.9-1.5c0.6-0.1,1.2,0.1,1.8,0.1c0.2,0,0.5,0,0.7,0.1c0.4,0.1,0.7,0,1.1-0.1c0.6-0.2,1.2-0.4,1.8-0.5
				c0.3-0.1,0.7,0,1,0c1.8,0,3.1,0.9,4,2.4c0.1,0.1,0.1,0.2,0.1,0.3c0.2,0.8,0.6,1.5,0.5,2.3c0,0.1,0,0.3,0.1,0.5
				c0.2-0.1,0.4-0.1,0.5-0.2c1.1-0.2,2.1-0.4,3.2-0.2c0.3,0,0.6,0.1,0.9,0.2c0.5,0.2,1.1,0.4,1.6,0.6c0.3,0.1,0.6,0.3,0.9,0.5
				c1.1,1,2.1,2.1,2.7,3.4c0.5,1.2,1.1,2.5,1.4,3.8c0.3,1,0.5,2,0.5,3C128.1,101.5,127.9,102.2,127.3,102.8z M129.8,88.9
				c-0.2,0.1-0.4,0-0.7,0c-0.2,0-0.3-0.1-0.5-0.2c-0.4-0.1-0.8,0-1,0c-0.2,0-0.4-0.2-0.5-0.3c-0.2-0.1-0.4,0-0.6-0.1
				c-0.4-0.1-0.8-0.3-1-0.5c-0.1-0.5,0.2-0.9,0.3-1.3c0.1-0.4,0.2-0.8,0.4-1.2c0.9-0.7,1.6-0.1,2.4,0.1c0.4,0.1,0.9,0,1.3,0.2
				C130.8,86.1,130.7,88.6,129.8,88.9z M129.5,81.3c-0.2,0.1-0.4,0.4-0.6,0.5c-0.1,0.1-0.3,0.1-0.5,0.1c-0.8,0.4-1.1,1-1.7,0.4
				c-0.1-0.1,0-0.1-0.1-0.2c-0.3-0.2-0.6-0.8-0.9-1.1c-0.5,0.1-0.8,0.4-1.1,0.6c-0.4,0.2-0.9,0.5-1.3,0.5c-0.6,0-1.1-1-1.4-1.6
				c-0.1-0.2-0.2-0.5-0.3-0.7c0.1-0.2,0.3-0.4,0.6-0.7c0.1-0.1,0.2-0.2,0.3-0.3c0.3-0.3,0.7-0.3,1.2-0.7c0.5-0.3,0.7-0.9,1.3-0.8
				c0.1,0,0.9,0.6,1.1,0.8c0.1,0.1,0.1,0.2,0.1,0.3c0.1,0.1,0.4,0.3,0.5,0.5c1-0.2,1.4-0.9,2.5-1.1c0.4,0.3,0.4,0.8,0.7,1.2
				c0.1,0.2,0.3,0.4,0.4,0.6c0.1,0.2,0.2,0.5,0.3,0.7C130.5,80.9,130,81,129.5,81.3z M134.3,93.8c-0.4,0-0.9,0.2-1.4,0.2
				c-0.4,0-0.8,0.2-1.1-0.1c0.1-1,0.2-2,0.3-3c0.2-0.2,0.8-0.3,1.3-0.3c0.4,0,0.8,0.2,0.9-0.1c0.3,0.3,0.8,0,1.1,0.1
				c0.4,0.1,0.8,0.4,0.9,0.7c0.1,0.4-0.1,0.7-0.1,1.2c0,0.5,0.3,0.7,0.2,1.1C136.1,94.1,135.1,93.7,134.3,93.8z M137.1,86.3
				c-0.2,0.1-0.4,0.2-0.5,0.2c-0.4,0.2-1,0.5-1.6,0.5c-0.3-0.3-0.6-0.8-0.8-1.2c-0.2-0.4-0.4-0.9-0.5-1.5c1-0.8,2.8-1,3.9-1.8
				c0.1,0,0.1,0,0.2,0c0.1,0.2,0.2,0.1,0.3,0.1c0.1,0.1,0.2,0.2,0.3,0.4c0.2,0.3,0.3,0.5,0.4,1.1c0,0,0.1,0.1,0.1,0.2
				c0,0.1-0.1,0.2-0.1,0.3c0.1,0.3,0.4,0.6,0.4,0.8C139,86.1,138.1,86,137.1,86.3z M139,77.3c0,0.1-0.2,0.3-0.3,0.4
				c-0.1,0.1-0.3,0.1-0.4,0.2c-0.2,0.2-0.2,0.3-0.4,0.5c-0.1,0.1-0.3,0.1-0.3,0.2c-0.3,0.4-0.3,1-0.8,1.1c-0.5,0.1-0.9-0.5-1.3-0.8
				c-0.5-0.4-1-0.5-1.1-1c0-0.2,0.2-0.2,0.4-0.3c0.2-0.2,0.4-0.4,0.7-0.7c0.4-0.4,0.8-0.9,1.2-1.4c0.2-0.2,0.3-0.4,0.7-0.5
				c0.5-0.1,0.8,0.2,1.1,0.7c0.5,0,0.8,0.3,1.1,0.6C139.5,76.7,139.1,77,139,77.3z M144.7,83.6c-0.3,0.3-0.6-0.2-0.9-0.2
				c-0.5,0.1-1-0.2-1.5-0.1c-0.7,0.1-1.4,0.6-2,0.2c-0.1-0.3,0.1-0.6,0.1-0.9c0-0.5-0.1-1,0-1.5c0.2-0.2,0.5-0.1,0.8-0.2
				c0.1,0,0.2-0.2,0.3-0.2c0.5-0.1,0.9,0,1.4,0c0.6,0,1.2-0.2,1.6,0c0.3,0.3,0.3,1,0.3,1.6C144.9,82.8,145.1,83.4,144.7,83.6z"/>
		</g>
	</g>
	<text x="50%"
	      font-family="'GodHatesCharades'"
	      font-size="13">
		<tspan x="50%"
		       y="65%"
		       style="text-anchor: middle"
		       ng-bind="suggestion.textLines['0']">
		</tspan>
		<tspan x="50%"
		       y="71%"
		       style="text-anchor: middle"
		       ng-bind="suggestion.textLines['1']">
		</tspan>
		<tspan x="50%"
		       y="77%"
		       style="text-anchor: middle"
		       ng-bind="suggestion.textLines['2']">
		</tspan>
		<tspan x="50%"
		       y="83%"
		       style="text-anchor: middle"
		       ng-bind="suggestion.textLines['3']">
		</tspan>
		<tspan x="50%"
		       y="89%"
		       style="text-anchor: middle"
		       ng-bind="suggestion.textLines['4']">
		</tspan>
	</text>
	<text x="50%"
	      y="95%"
	      font-family="'Helvetica'"
	      font-size="8"
	      style="text-anchor: middle; fill: #999"
	      ng-bind="suggestion.owner.name">God Hates Charades
	</text>
</svg>
