<?xml version="1.0" encoding="utf-8"?>
<!-- Generator: Adobe Illustrator 18.1.1, SVG Export Plug-In . SVG Version: 6.00 Build 0)  -->
<!DOCTYPE svg PUBLIC "-//W3C//DTD SVG 1.0//EN" "http://www.w3.org/TR/2001/REC-SVG-20010904/DTD/svg10.dtd">
<svg version="1.0" id="Layer_1" xmlns="http://www.w3.org/2000/svg" xmlns:xlink="http://www.w3.org/1999/xlink" x="0px" y="0px"
	 viewBox="0 0 612 792" enable-background="new 0 0 612 792" xml:space="preserve">
<g id="Back">
	<path fill="#78433F" d="M312.5,106.5c11.5-5.7,24-8.6,37.3-9c5.7-2.9,11.8-6.1,17.6-9c10.8-6.1,21.2-12.2,31.9-17.6
		c0-0.7-0.4-1.4-0.4-2.2c-0.7-6.5-2.9-12.2-5.4-17.9c-1.1-2.9-2.5-5.7-3.9-8.6c-1.4-2.5-3.6-4.3-5.4-6.8c-1.1-1.4-1.8-3.2-3.6-4.3
		c-3.2-1.8-5.7-4.7-9.7-5.4c-0.7,0-1.1,0-1.8-0.4c-3.6-2.2-7.2-4.7-10.8-6.8c-1.8-1.1-3.9-2.5-5.7-3.9c-2.2-1.8-4.7-3.2-7.5-3.9
		c-2.5-0.7-4.7-2.2-7.5-2.2c-5.4-2.5-11.1-1.4-16.9-1.4c-1.1,0-2.2,0.7-3.2,0.7c-0.7,0-1.1,0.4-1.8,0.4c-3.2-1.8-6.8-0.4-10-2.2
		c-2.9-0.7-5.7-1.8-9-2.5s-6.8-0.4-10.4,0c-1.8,0-3.6,0.4-5.7,0c-2.9,0-5.7,0-8.2-1.4c-2.2-1.1-5-0.7-7.5-1.8
		C263.3,0,261.9,0,260.5,0c-2.2,0-4.7,0-6.8,0.4c-1.8,0-3.2,0.4-5,1.1c-2.2,0.7-4.7,0.4-6.8,1.1c-2.9,1.1-5.4,0.7-8.2,0.7
		c-1.1,0-2.2-0.4-3.2-0.7c-3.2-0.7-6.8-1.1-10,0c-2.9,1.1-6.1,0.7-8.6,2.5c-1.1,0.4-2.2,0.4-3.2,0.4c-1.4,0-2.9,0.4-3.9,1.1
		c-1.8,0.7-3.2,1.4-5,2.5c-2.5,1.8-5.4,1.8-8.2,1.4c-0.4,0-0.7,0-0.7,0c-3.2-1.8-6.1-0.7-9,0.4c-1.4,0.4-2.5,1.1-3.6,2.2
		c-1.4,0.4-2.2,1.4-3.6,2.2c-2.5,1.4-5,2.5-7.9,1.4c-3.9-1.4-7.9-1.1-11.8,0c-2.5,0.7-5,1.8-7.2,2.5c-3.6,0.7-6.5,2.5-8.6,5
		c-0.7,0.7-1.8,1.4-2.5,2.5c-1.8,2.5-3.9,3.2-6.8,2.5c-1.1-0.4-2.2,0-3.6,0c-1.4,0-2.9,0.4-3.9,1.1c-1.1,0.7-2.2,1.1-3.2,1.4
		c-5,2.5-7.9,6.1-9.3,11.5c-0.7,2.5-1.8,5-2.5,7.2c-0.7,2.2-1.1,4.3-1.8,6.5c-0.7,1.8-0.4,3.9-1.1,6.1c5.7,4.7,11.5,9,16.9,14
		c0.4,0.4,1.1,0.7,1.4,1.4c0.4,0.4,1.1,0.7,2.2,1.4c0.4,0,0.4,0,0.7,0s1.1,0.4,3.6,0.7c21.5,5,41.6,12.9,62,22.2
		c14,6.5,20.1,8.2,34.8,7.9c17.6-0.4,34.8-3.9,52.3-3.9C289.1,106.8,301,106.5,312.5,106.5z"/>
	<path fill="#EC685B" d="M312.5,106.5c11.5-5.7,24-8.6,37.3-9c5.7-2.9,11.8-6.1,17.6-9c9.3-5.4,18.6-10.4,28-15.4
		c-0.7-2.5-1.1-4.7-2.2-7.2c-0.7,0.4-1.4,0.7-2.2,1.4c-3.6,4.3-8.2,6.8-12.9,9.7c-5,2.9-9.7,5.7-15.1,8.2c-2.5,1.1-5.4,2.2-7.9,3.2
		c-2.5,1.1-5,2.5-7.9,3.2c-2.5,0.7-4.7,1.8-7.2,2.9c-2.5,1.1-5.4,2.2-7.9,2.9c-4.3,1.4-8.6,2.9-13.3,2.5c-1.4,0-2.9-0.4-4.3,0.4
		c-2.9,1.4-6.1,1.1-9.3,1.4c-1.1,0-2.5,0-3.2,0.4c-2.5,1.1-5,1.4-7.5,1.4c-2.2,0-3.9,0-6.1,0.7c-1.4,0.4-3.2-0.7-5,0
		c-1.1,0.7-2.9,0.7-4.3,0.7c-1.8,0-3.6,0-5,0c-7.2,0-14.3,0.4-21.5,0c-2.5,0-5,0-7.5-1.1c-1.4-0.4-2.9-0.4-4.3-0.4
		c-4.3,0-8.6-0.4-12.9-0.4c-3.2,0-6.5,0-9.3-1.4c-2.2,0-3.9-0.4-6.1-0.4c-1.8,0-2.9,0.7-2.9,2.2c0,1.8-0.4,3.6,0,5
		c0,0.4,0,0.7,0,1.1c4.7,0.7,9.3,1.1,15.8,1.1c17.6-0.4,34.8-3.9,52.3-3.9C289.1,106.8,301,106.5,312.5,106.5z"/>
	<path fill="#A35652" d="M108.4,66.3c4.3,3.6,8.6,7.2,12.5,10.8c0.4,0.4,1.1,0.7,1.4,1.4c0.4,0.4,1.1,0.7,2.2,1.4c0.4,0,0.4,0,0.7,0
		s1.1,0.4,3.6,0.7c21.5,5,41.6,12.9,62,22.2c5.7,2.5,10,4.3,14,5.7c0-0.4,0-1.1,0-1.4c0-1.4,1.4-2.5,1.1-4.3
		c-1.1-1.8-2.2-3.6-3.6-5.7c-0.7-1.1-1.8-2.2-2.9-2.9c-0.7-0.4-1.4-0.7-2.2-1.1c-1.8-0.4-3.6-0.4-5-0.4c-2.2,0-3.9,0-5.7,1.4
		c-0.4,0.4-1.1,0.4-1.4,0.7c-2.9,2.2-5.4,1.1-7.9-0.4c-0.7-0.4-1.4-1.1-2.2-1.4c-1.8-1.8-3.9-3.2-5.7-5c-2.2,0-3.9-0.4-6.1-0.4
		s-3.9,0.4-6.1,0.4c-1.4,0-2.9-0.4-3.9-1.1c-0.4-0.4-0.4-0.4-0.7-0.7c-2.2-2.2-4.7-3.6-7.2-4.7c-2.5-1.1-5.7-0.4-8.6-0.4
		c-1.4,0-2.9,0-4.3,0c-1.1,0-2.2-1.1-2.9-1.8c-0.4-0.4-0.4-1.1-0.7-1.4c-1.4-4.7-4.3-7.9-8.6-10.4c-1.4-0.7-1.8-2.2-1.8-3.6
		c0-1.1,0-2.5,0.4-3.2c1.4-3.2,1.4-6.8,1.4-10c0-0.7,0-1.8,0-2.9c5-3.2,9.7-6.8,15.8-8.2c4.3-2.5,9.7-3.6,14-6.1
		c3.9-2.2,8.6-3.2,12.9-4.7c2.5-0.7,5-0.7,7.2-2.2c2.2,0,4.7-0.7,6.8-1.4c1.1-0.4,2.2,0,3.2-0.4c1.1,0,2.5-0.4,3.2-0.7
		c1.4-0.7,3.2-1.1,5-1.1c1.4,0,2.9-0.4,4.3-0.7c0.7-0.4,1.8-0.7,2.5-0.7c2.5-0.4,5-0.4,7.5-1.4c2.5-1.1,5.7,0,8.2-1.8
		c2.5,0,5-0.4,7.9-0.4c2.2,0,3.9,0,5.7-1.1c0.4,0,0.7-0.4,0.7-0.4c3.9-0.7,7.9,0,11.8-1.1c3.6-1.1,7.5-0.7,11.1-0.7
		c11.8,0,23.7,0,35.1,0.4c1.4,0,2.9,0.4,4.3,0.7c1.4,0.4,2.9,0.4,4.3,0.7c2.2,0.4,3.9,0.4,5.7,1.1c1.4,0.4,2.9,0.4,4.3,0.7
		c2.9,0.4,5.7,0,8.6,1.4c1.1,0.7,2.9,0.4,4.3,0.4c2.2,0,3.9,0.4,5.7,1.1c0.4,0.4,1.1,0.4,1.8,0.4c2.2,0,4.7,0,6.8,0.4
		c2.2,0.4,4.3,1.1,6.8,1.4c2.5,0.4,5,0.4,7.5,1.4c2.2,0.7,4.3,0.7,6.5,1.8c1.4,0.7,3.6,0.4,5,1.1c4.3,1.8,8.6,2.9,12.5,5
		c2.9,1.4,5.4,2.9,8.2,4.3c0.4,0.4,1.1,0,1.4,0c0.7,0,0.4-1.1-0.7-1.8c-1.1-1.1-2.2-1.8-3.2-2.5c-2.2-1.1-3.9-2.2-6.1-2.9
		c-4.3-1.4-7.5-3.6-11.1-6.5c-4.3-5.7-9.7-8.2-15.4-10c-1.8-0.7-3.6-1.4-5.7-1.8c-2.9-1.8-6.1-1.8-9.3-0.7c-4.7,1.1-9,1.1-13.6,0.7
		c-2.2,0-4.7-0.7-6.5-1.8c-1.8-0.7-3.6-1.4-5.7-1.4c-1.4,0-2.9-0.4-4.3-1.1c-2.5-1.1-5-1.1-7.5-0.4s-5,1.1-7.5,1.1
		c-0.7,0-1.8,0-2.5-0.4c-2.2-0.7-4.7-0.4-6.8-1.4c-2.2-1.1-4.3-1.1-6.8-1.4c-0.7-0.4-1.4-0.7-2.5-1.1c-0.4,0-1.4-0.4-2.2,0
		c-3.2,1.4-6.8,1.1-10,1.4c-1.4,0-2.9,0.4-3.9,1.1c-1.4,0.7-3.2,1.1-4.7,1.8C240,8.6,239,9,237.9,9c-3.2-0.4-6.8,0.4-10-1.1
		c-2.2,0-4.7-0.4-6.8,0.4C219.6,9,218.2,9,216.7,9c-1.8,0-3.2,0.4-5,1.1c-2.5,0.4-5,0.7-6.8,1.8c-1.4,1.1-3.2,1.4-4.7,2.5
		c-2.5,1.8-5.4,1.8-8.2,0.7c-0.7,0-1.4-0.7-2.5-0.7c-2.2-0.4-3.9-0.4-5.7,0.4c-2.9,1.4-5.7,2.5-7.9,5c-0.7,0.7-1.8,1.1-2.9,1.4
		c-1.1,0.4-1.8,0.7-2.5,0.4c-4.7-1.4-9.7-1.1-14.3-0.7c-6.1,1.8-12.2,3.2-16.1,9c-1.1,1.4-1.8,2.9-3.2,3.9c-0.4,0.4-1.1,0.4-1.4,0.7
		c-1.8,0.4-3.2-0.4-5-1.1c-1.4-0.7-2.9-0.4-4.3,0c-2.2,1.1-4.7,2.2-6.8,3.2c-1.8,1.1-3.6,2.9-3.9,5.4c0,1.1-0.4,2.2-1.1,3.2
		c-1.8,2.5-2.2,5.7-3.6,8.6c-0.4,0.7-0.4,1.8-0.7,2.5c-0.4,2.2,0.4,4.7-0.7,6.8C108.8,64.2,108.8,65.3,108.4,66.3z"/>
	<path fill="#ED7B70" d="M176.9,88.2c-0.7-0.7-1.8-1.4-2.5-2.2c-2.9-2.2-5.7-3.6-9.3-3.2c-0.7,0-1.8,0-2.5,0c-3.9,0.7-7.5,0-10-3.2
		c-2.5-1.4-5-2.5-8.2-2.5c-2.2,0-3.9,0.4-6.1,0s-4.3-1.1-5.4-3.6c-1.4-3.2-3.6-5.7-6.1-8.2c-0.7-0.7-1.4-1.1-1.8-1.8
		c-0.4-0.4-0.7-1.1-0.7-1.4c-0.4-3.9,1.1-7.2,1.8-10.8c0-0.4,0.7-1.1,1.1-1.4c1.4-1.4,2.9-2.9,5-3.2c1.8-0.4,3.2-1.1,4.7-1.8
		c2.9-1.4,5.7-2.5,8.6-3.6c3.2-1.1,6.1-2.9,9.3-4.3c0.4-0.4,1.1-0.4,1.8-0.4c2.9-1.1,5.4-2.2,8.2-2.9c2.9-0.7,6.1-1.4,9-2.5
		c2.5-0.7,5-1.8,7.5-1.8c1.4,0,2.9-0.7,3.9-1.1c2.5-0.7,5-1.8,7.5-2.2c4.7-0.7,9-2.5,13.6-2.2c0.7,0,1.1,0,1.8-0.4
		c2.9-1.8,6.1-0.7,9.3-1.8c3.2-1.1,6.1-0.7,9.3-1.1c1.8-0.4,3.6,0,5-0.4c0.7,0,1.8,0,2.5-0.4c1.8-1.1,3.9-0.7,5.7-0.7
		c7.2,0,14.3-0.4,21.5-0.4c6.5,0,12.5,0,19,0.4c3.6,0,7.5-0.4,11.1,1.4c1.1,0.7,2.9,0.4,4.3,0.4c1.8,0,3.6,0,5,0.4
		c2.5,1.1,5,1.1,7.5,1.1c2.2,0,4.7,0,6.8,1.4c0.7,0.4,1.8,0.4,2.5,0.4c2.5,0,4.3,0.7,6.8,1.4c2.5,0.7,5,0.4,7.5,0.7
		c0.7,0,1.1,0,1.8,0.4c2.5,1.1,5,1.4,7.5,1.4c2.5,0,5,1.8,7.5,1.8c1.1,0,2.2,0.4,3.2,0.7c2.2,1.1,5,0.7,7.5,2.2
		c5.4,2.9,10.8,5,16.1,7.9c4.3,2.2,8.2,5.4,11.1,9.3c0.7,1.1,1.1,1.8,1.4,3.2c0.4,1.1,0.7,2.2,1.1,3.2c1.4,3.9,0.7,7.2-2.2,10.4
		c-3.9,4.3-4.3,4.7-10,7.9c-1.1,0.7-2.2,1.1-2.9,1.8c-2.9,2.2-6.5,3.9-9.7,5.4c-3.9,1.8-7.9,3.6-11.8,5c-5,2.2-10,3.9-15.1,5.7
		c-2.5,0.7-4.7,1.8-7.2,2.5c-1.8,0.4-3.2,0.4-5,0.7c-0.7,0-1.1,0-1.8,0.4c-2.2,1.1-4.3,1.4-6.8,1.4s-4.3,1.4-6.8,1.4
		c-3.6,0.4-6.8,0.4-10,1.4c-0.7,0.4-1.8,0.4-2.5,0.4c-3.2,0-6.5,0.4-9.3,0.4c-1.1,0-2.5-0.4-3.6,0c-3.6,1.4-7.5,0.7-11.1,1.1
		c-6.1,0-12.2,0-17.9,0c-1.4,0-2.9,0-4.3-0.4c-2.5-1.1-5-0.7-7.5-1.1c-0.4,0-0.7,0-0.7,0c-2.9,0-5.7,0-8.6,0c-3.2,0-6.5,0.4-9.3-0.7
		s-5.7-0.4-8.6-1.1c-2.5-0.7-5-1.4-7.5-1.8c-0.7,0-1.4-0.7-2.2-1.4c-2.5-2.5-4.7-5-7.9-6.8c-2.9,0-5.7-0.4-8.6,0
		c-1.8,0.4-3.9,1.1-5.7,1.8c-0.7,0.4-1.4,0.7-2.5,0.7C179.8,90,178,89.3,176.9,88.2z M247.9,25.8c-1.4,0-2.9,0-4.3-0.7
		c-0.7-0.4-1.8-0.4-2.5,0c-1.4,0.7-2.9,0.7-4.3,0.7c-1.1,0-2.2,0-3.6,0c-3.2,0-6.5,0-9.3,0.4c-3.2,0.4-6.1,1.4-9,2.2
		c-0.7,0-1.4,0.7-2.5,0.7c-2.5,0.4-5,0-7.5,1.4c-1.8,1.1-4.3,0.4-6.5,1.8c-0.4,0.4-1.1,0.4-1.8,0.4c-2.2,0.4-4.7,0-6.8,1.4
		c-2.2,1.1-4.7,0.4-6.8,1.4c-1.1,0.4-2.2,0.7-3.2,0.7c-3.6,0-6.5,1.8-10,2.2c-1.4,0-2.9,1.1-3.9,1.4c-1.8,0.7-3.6,1.8-5.4,2.9
		c-1.8,0.7-3.9,0.7-5.7,2.2c-3.6,0.7-6.8,2.5-10,4.3c-2.9,1.4-5.4,3.2-8.2,4.7c-2.5,1.4-3.6,3.6-3.2,6.5c0,1.8,0.7,3.2,1.8,4.7
		c3.2,3.6,7.5,5.4,11.5,7.2c3.6,0.7,6.5,2.5,9.7,3.9c6.5,2.9,13.3,5,20.1,6.8c2.2,0.7,4.3,1.1,6.5,1.8c2.2,0.4,4.7,0.4,6.8,1.4
		c1.1,0.7,2.9,0.4,4.3,0.4c3.2,0,6.1,0.7,9.3,1.8c2.9,1.1,6.1,1.8,9.3,1.8c2.2,0,3.9,0,5.7,1.1c0.7,0.4,1.8,0.4,2.5,0.4
		c4.3,0.4,8.6,0.4,12.9,0.7c2.2,0,3.9,0,5.7,1.1c1.1-0.4,2.2-0.4,3.2-0.7c2.9,1.4,6.1,0.7,9.3,0.7c4.3-1.8,8.6-1.1,12.9-1.1
		c7.9-0.4,16.1-0.4,24-0.4c1.1,0,2.5,0,3.2-0.4c3.2-1.4,6.8-1.1,10-1.4c1.1,0,2.2,0,3.2-0.7c1.4-0.7,2.9-1.1,4.3-1.1
		c3.6,0.4,6.8-1.4,10-1.8c2.2-1.4,4.3-1.4,6.5-1.8c0.7,0,1.8-0.4,2.5-0.7c3.2-1.8,6.8-2.5,10.4-3.6c2.9-0.7,5.4-1.8,7.9-2.9
		c5.7-3.2,11.8-5.4,17.9-8.2c3.6-1.8,6.8-3.9,9.7-6.8c1.8-1.8,3.2-3.9,4.3-6.5c0.4-0.4,0-1.1,0-1.8c-0.7-1.1-1.4-1.8-2.2-2.5
		c-5-5-11.5-8.6-17.6-11.8c-2.2-1.1-4.7-2.2-6.8-3.2c-1.4-0.7-2.5-1.4-3.9-1.8c-2.5-0.4-4.7-2.2-7.5-2.2c-3.6-1.1-7.2-1.8-10.8-1.8
		c-0.7,0-1.8,0-2.5-0.4c-2.5-1.4-6.1-1.1-9.3-1.1c-2.5-0.4-5-0.4-7.5-1.1c-2.9-0.7-5.7-0.4-8.6-0.7c-2.2,0-4.7,0-6.8-1.1
		c-1.1-0.4-2.2-0.4-3.2-0.4c-7.5,0-15.1,0-22.2-0.4l0,0C262.3,25.8,255.1,25.8,247.9,25.8z"/>
	<path fill="#F19488" d="M374.5,55.9c-0.4-0.4-0.7-1.1-0.7-1.4c-1.1-1.4-1.8-2.9-3.2-3.9c-1.8-1.4-3.6-2.5-5.7-3.6
		c-7.9-4.3-12.2-6.1-21.2-9.7c-1.1-0.4-2.2-0.7-3.2-0.7c-2.2-0.4-3.9-0.4-5.7-1.1c-1.1-0.4-2.2-0.4-3.2-0.4c-4.3-0.4-8.6,0-12.5-1.4
		c-2.9,0-5.7-0.4-8.6-0.4c-2.9,0-5.7,0-8.6-1.1c-1.1-0.7-2.9-0.4-4.3-0.4c-4.3,0-8.6-0.4-12.9-0.4c-1.8,0-3.2-1.4-5-0.4
		c-6.1,0.7-12.2,0.4-17.9,0c-3.6-1.8-7.2-1.1-11.1-1.1c-3.6,0-6.8,0-10.4,0c-3.2,0-6.5,0.4-9.3,0.4c-3.2,1.4-6.8,1.1-10,1.4
		c-1.8,0.4-3.2,1.1-5,1.4c-2.9,0.4-5.7,0.4-8.2,1.4c-2.2,1.1-5,0.4-7.5,1.8c-3.9,0-7.5,2.5-11.8,2.2c-2.2,0.7-4.3,1.1-6.5,2.2
		c-1.4,0.7-3.2,1.1-5,1.4c-1.1,0-2.2,0.4-3.2,0.7c-3.6,1.4-7.5,2.2-11.1,3.9c-3.9,0.4-6.8,2.9-10.4,3.6c-0.7,0-1.1,0.4-1.4,0.7
		c-3.6,2.9-8.2,3.9-11.8,6.8c-0.4,0.4-0.7,1.8-0.4,2.5c1.8,2.5,4.3,4.7,7.2,6.1c3.9,2.2,8.2,3.9,12.5,5.4c3.2,1.1,6.5,2.2,9.7,3.6
		c2.9,1.4,6.1,1.8,9,2.9c1.4,0.4,2.5,1.1,3.9,1.1c3.2,0,6.1,2.2,9.3,1.8c2.5-0.4,4.3,0.7,6.8,1.4c1.8,0.4,3.9,0.4,5.7,0.7
		c2.2,0.7,4.3,1.1,6.8,1.1c0.7,0,1.8,0,2.5,0.4c3.9,1.8,7.9,1.4,11.8,1.4c0.7,0,1.8,0,2.5,0.4c3.2,1.4,6.8,1.1,10,1.1
		c6.5,0,13.3,0,19.7,0c7.9,0,15.4,0,23.3,0c2.5,0,5,0,7.5-1.1c0.4-0.4,1.1-0.4,1.8-0.4c3.2-0.4,6.5,0,9.3-0.7
		c2.9-0.7,5.7-1.1,8.2-1.4c1.4,0,2.9-0.4,4.3-1.1c0.7-0.4,1.8-0.4,2.5-0.7c1.4,0,2.9,0,4.3-0.4c1.8-0.4,3.2-1.1,5-1.4
		c1.4-0.4,2.9-0.7,3.9-1.1c1.4-0.4,2.9-0.4,4.3-0.7c1.1-0.4,2.2-1.1,3.2-1.4c2.2-0.7,3.9-2.2,6.5-2.2c1.1,0,2.2-0.7,3.2-1.1
		c2.2-0.7,3.9-2.2,6.5-2.5c1.4-0.4,2.9-0.7,3.9-1.8c3.2-2.9,7.2-3.6,10.8-4.7c0.7,0,1.1-0.4,1.4-0.7c3.2-2.5,6.5-4.7,8.6-8.2
		C374.1,56.3,374.1,56.3,374.5,55.9z"/>
	<path fill="#78433F" d="M269.4,25.8c7.5,0,15.1,0,22.2,0.4c1.1,0,2.5,0,3.2,0.4c2.2,1.1,4.3,0.7,6.8,1.1c2.9,0,5.7,0,8.6,0.7
		c2.5,0.7,5,0.7,7.5,1.1c3.6,0,7.2-0.4,10.4,1.4c0.7,0.4,1.8,0.4,2.5,0.4c3.6,0,7.5,0.7,10.8,1.8c2.5,0,4.7,1.8,7.5,2.2
		c1.4,0.4,2.5,1.1,3.9,1.8c2.5,1.1,4.7,2.2,6.8,3.2c6.5,3.2,12.5,6.8,17.6,11.8c0.7,0.7,1.4,1.8,2.2,2.5c0.4,0.4,0.4,1.1,0,1.8
		c-1.1,2.2-2.2,4.7-4.3,6.5c-2.9,2.9-6.1,5-9.7,6.8c-5.7,2.9-12.2,5-17.9,8.2c-2.5,1.4-5.4,2.2-7.9,2.9c-3.6,0.7-7.2,1.8-10.4,3.6
		c-0.7,0.4-1.8,0.4-2.5,0.7c-2.2,0-4.7,0.4-6.5,1.8c-3.2,0.4-6.5,2.2-10,1.8c-1.4,0-2.9,0.4-4.3,1.1c-1.1,0.7-2.2,0.7-3.2,0.7
		c-3.6,0-6.8,0-10,1.4c-1.1,0.4-2.2,0.4-3.2,0.4c-7.9,0-16.1,0-24,0.4c-4.3,0-8.6-0.7-12.9,1.1c-3.2,0-6.5,0.7-9.3-0.7
		c-1.1,0.4-2.2,0.4-3.2,0.7c-1.8-1.1-3.9-1.1-5.7-1.1c-4.3,0-8.6-0.4-12.9-0.7c-0.7,0-1.8,0-2.5-0.4c-2.2-1.8-3.9-1.8-6.1-1.8
		c-3.2,0-6.1-0.7-9.3-1.8c-2.9-1.1-6.1-1.8-9.3-1.8c-1.4,0-2.9,0-4.3-0.4c-2.2-1.1-4.3-1.1-6.8-1.4c-2.2-0.4-4.3-1.1-6.5-1.8
		c-6.8-1.8-13.6-3.9-20.1-6.8c-3.2-1.4-6.1-3.2-9.7-3.9c-3.9-2.2-8.2-3.6-11.5-7.2c-1.1-1.4-1.8-2.9-1.8-4.7c-0.4-2.9,0.7-5,3.2-6.5
		c2.9-1.4,5.4-3.2,8.2-4.7c3.2-1.8,6.5-3.6,10-4.3c1.8-1.1,3.9-1.1,5.7-2.2c1.8-0.7,3.6-1.8,5.4-2.9c1.4-0.7,2.5-1.4,3.9-1.4
		c3.6,0,6.5-2.2,10-2.2c1.1,0,2.5-0.4,3.2-0.7c2.2-1.1,4.7-0.7,6.8-1.4c2.2-1.1,4.3-1.1,6.8-1.4c0.7,0,1.1,0,1.8-0.4
		c2.2-1.4,4.7-0.7,6.5-1.8c2.5-1.4,5-1.1,7.5-1.4c0.7,0,1.4-0.7,2.5-0.7c3.2-0.7,6.1-1.8,9-2.2c3.2-0.4,6.5-0.4,9.3-0.4
		c1.1,0,2.2,0,3.6,0s2.9-0.4,4.3-0.7c0.7-0.4,1.8-0.4,2.5,0c1.4,0.7,2.9,0.7,4.3,0.7C255.1,25.8,262.3,25.8,269.4,25.8
		C269.4,26.2,269.4,26.2,269.4,25.8z M373.4,54.5c-1.1-1.4-1.8-2.9-3.2-3.9c-1.8-1.4-3.6-2.5-5.7-3.6c-7.9-4.3-12.2-6.1-21.2-9.7
		c-1.1-0.4-2.2-0.7-3.2-0.7c-2.2-0.4-3.9-0.4-5.7-1.1c-1.1-0.4-2.2-0.4-3.2-0.4c-4.3-0.4-8.6,0-12.5-1.4c-2.9,0-5.7-0.4-8.6-0.4
		c-2.9,0-5.7,0-8.6-1.1c-1.1-0.7-2.9-0.4-4.3-0.4c-4.3,0-8.6-0.4-12.9-0.4c-1.8,0-3.2-1.4-5-0.4c-6.1,0.7-12.2,0.4-17.9,0
		c-3.6-1.8-7.2-1.1-11.1-1.1c-3.6,0-6.8,0-10.4,0c-3.2,0-6.5,0.4-9.3,0.4c-3.2,1.4-6.8,1.1-10,1.4c-1.8,0.4-3.2,1.1-5,1.4
		c-2.9,0.4-5.7,0.4-8.2,1.4c-2.2,1.1-5,0.4-7.5,1.8c-3.9,0-7.5,2.5-11.8,2.2c-2.2,0.7-4.3,1.1-6.5,2.2c-1.4,0.7-3.2,1.1-5,1.4
		c-1.1,0-2.2,0.4-3.2,0.7c-3.6,1.4-7.5,2.2-11.1,3.9c-3.9,0.4-6.8,2.9-10.4,3.6c-0.7,0-1.1,0.4-1.4,0.7c-3.6,2.9-8.2,3.9-11.8,6.8
		c-0.4,0.4-0.7,1.8-0.4,2.5c1.8,2.5,4.3,4.7,7.2,6.1c3.9,2.2,8.2,3.9,12.5,5.4c3.2,1.1,6.5,2.2,9.7,3.6c2.9,1.4,6.1,1.8,9,2.9
		c1.4,0.4,2.5,1.1,3.9,1.1c3.2,0,6.1,2.2,9.3,1.8c2.5-0.4,4.3,0.7,6.8,1.4c1.8,0.4,3.9,0.4,5.7,0.7c2.2,0.7,4.3,1.1,6.8,1.1
		c0.7,0,1.8,0,2.5,0.4c3.9,1.8,7.9,1.4,11.8,1.4c0.7,0,1.8,0,2.5,0.4c3.2,1.4,6.8,1.1,10,1.1c6.5,0,13.3,0,19.7,0
		c7.9,0,15.4,0,23.3,0c2.5,0,5,0,7.5-1.1c0.4-0.4,1.1-0.4,1.8-0.4c3.2-0.4,6.5,0,9.3-0.7c2.9-0.7,5.7-1.1,8.2-1.4
		c1.4,0,2.9-0.4,4.3-1.1c0.7-0.4,1.8-0.4,2.5-0.7c1.4,0,2.9,0,4.3-0.4c1.8-0.4,3.2-1.1,5-1.4c1.4-0.4,2.9-0.7,3.9-1.1
		c1.4-0.4,2.9-0.4,4.3-0.7c1.1-0.4,2.2-1.1,3.2-1.4c2.2-0.7,3.9-2.2,6.5-2.2c1.1,0,2.2-0.7,3.2-1.1c2.2-0.7,3.9-2.2,6.5-2.5
		c1.4-0.4,2.9-0.7,3.9-1.8c3.2-2.9,7.2-3.6,10.8-4.7c0.7,0,1.1-0.4,1.4-0.7c3.2-2.5,6.5-4.7,8.6-8.2c0-0.4,0-0.4,0.4-0.7
		C374.1,55.2,373.8,54.9,373.4,54.5z"/>
</g>
</svg>
