<?xml version="1.0" encoding="utf-8"?>
<!-- Generator: Adobe Illustrator 18.1.1, SVG Export Plug-In . SVG Version: 6.00 Build 0)  -->
<!DOCTYPE svg PUBLIC "-//W3C//DTD SVG 1.0//EN" "http://www.w3.org/TR/2001/REC-SVG-20010904/DTD/svg10.dtd">
<svg version="1.0" id="Layer_1" xmlns="http://www.w3.org/2000/svg" xmlns:xlink="http://www.w3.org/1999/xlink" x="0px" y="0px"
	 viewBox="0 0 181.7 133.9" enable-background="new 0 0 181.7 133.9" xml:space="preserve">
<g>
	<path fill-rule="evenodd" clip-rule="evenodd" d="M95.9,57.4c0,1.1-0.2,2-0.1,3.2c0,0.3,0,0.6,0.1,0.9c0,1.3,0,2.5,0.1,3.8
		c-0.1,1.2-0.2,2.3-0.1,3.3c-0.1,1.1-0.2,2.2,0,3.1c0.2,0.7,0.5,0.4,0.7,0.4c0.4,0,0.8,0,1.2,0c0.1,0,0.1,0.2,0.2,0.2
		c0.2,0,0.4-0.3,0.6-0.3c0.1,0,0.2,0.1,0.4,0c0.1,0,0.1-0.1,0.2-0.1c0.1,0,0.3,0,0.5-0.1c0.5-0.1,1.1,0.2,1.7-0.2
		c0.2-0.2,0.3,0.1,0.5,0.1c0.3,0,0.5-0.3,0.9-0.3c0.1,0,0.5-0.5,0.6,0.3c0,1.2-0.3,1.7-0.5,3c-0.2,1.1-0.8,4.2-1,5.3
		c-0.1,0.4-0.3,1.8-0.4,2.2c-0.2,1.7-0.6,3.5-0.9,4.8c-0.1,0.3-0.2,0.6-0.3,0.9c-0.1,0.5-0.1,1.2-0.2,1.6C99.7,91,99.3,92.5,99,94
		c-0.4,1.9-0.8,3.9-1.2,5.8c-0.3,1.7-0.8,2.9-1.1,4.8c-0.2,1.1-0.3,2.3-0.6,3.4c-0.1,0.5-0.3,0.8-0.4,1.3c-0.4,1.6-0.6,3.2-1,4.9
		c-0.3,1.2-0.7,2.7-1,4.3c-0.2,0.9-0.3,2.1-0.5,3c-0.1,0.7-0.3,1.2-0.5,1.8c-0.3,1.4-0.5,3-0.8,4.4c-0.1,0.4-0.2,0.8-0.3,1.2
		c-0.3,1.7-0.6,3.8-1.1,4.8c-0.5-1.1-1-2.8-1.5-4.4c-0.2-0.5-0.3-1.1-0.4-1.6c-0.1-0.6-0.2-1.2-0.4-1.7c-0.2-0.6-0.4-1-0.5-1.6
		c-0.1-0.5-0.3-1.1-0.4-1.6c-0.2-0.5-0.4-1-0.5-1.6c-0.1-0.5-0.2-1.1-0.3-1.6c-0.3-1-0.6-1.8-0.9-2.9c-0.3-1-0.8-2.8-1.1-4.2
		c-0.1-0.5-0.3-1-0.4-1.5c-0.1-0.4-0.2-1.1-0.3-1.4c-0.2-0.8-0.5-1.3-0.7-2c-0.2-0.7-0.4-1.5-0.6-2.2c-0.1-0.4-0.3-0.6-0.4-1
		c-0.1-0.3-0.1-0.8-0.2-1.1c-0.4-1.4-0.8-2.9-1.2-4.3c-0.2-0.7-0.4-1.3-0.6-2.1c-0.3-1-0.5-2.1-0.7-3.4c-0.3-1.4-0.9-3.3-1.4-5
		c-0.3-1.3-0.7-2.7-1-3.9c-0.7-2.6-1.6-4.7-2.1-8c-0.4-3.2,2.2-3.6,3.4-4.2c0.2-0.1,0.3-0.3,0.5-0.4c0.1,0,0.1,0.2,0.2,0.2
		c0.2-0.1,0.5-0.4,0.7-0.4c0.2-0.1,0.5,0.2,0.7-0.2c1.4,0.5,0.9-2.9,0.8-5.4c0-1.4,0-2.7,0-4.2c0-0.2,0-0.9,0-1.3
		c0-0.3,0.1-0.7,0.1-1c0-0.3,0-0.5,0-0.8L95.9,57.4z"/>
	<g>
		<path d="M0,64.3c0.1-0.3,0.1-0.6,0.1-0.9c0-1.5,0-3-0.1-4.5c0,0,0,0,0.1,0c0-1,0-2,0-3.1c0-1-0.1-2,0.2-3c0.1-0.2,0-0.5-0.1-0.7
			c-0.1-0.3-0.2-0.6-0.1-0.9c0.3-0.8,0.2-1.6,0.2-2.3c0.1-1.6,0-3.1,0.3-4.7c0.1-0.5,0-0.9,0-1.4c0.1-1.4,0.1-2.8,0.4-4.2
			c0.2-1,0.2-2,0.2-3c0-1.7,0-3.5,0-5.2c0-1-0.1-2,0.2-3c0.1-0.3,0.1-0.6,0.1-0.9c0-3.1,0-6.1,0.1-9.2c0-0.2,0-0.5,0-0.7
			c0.4-1.7,0.2-3.4,0.3-5.2c0-1,0.2-2,0.5-3c0.2-0.7,0.5-1.5,0.7-2.3c0.3-1.1,0.9-2,1.8-2.8c0.3-0.3,0.6-0.5,1-0.7
			C7,1.8,8.5,1.5,9.8,0.9c0.3-0.1,0.6-0.1,1-0.2c1.6-0.2,5.7,0,7.3,0c0.8,0,1.6,0.1,2.5-0.2c0.5-0.2,1.2-0.1,1.7-0.1
			c1.1,0,2.2,0,3.2,0c0.5,0,1,0,1.5-0.1c2.4-0.5,4.8-0.3,7.2-0.3c2.1,0,4.2,0.1,6.2,0.1c0.4,0,0.9,0,1.2,0.1
			c1.5,0.4,3.1,0.3,4.7,0.5c0.4,0,0.8,0.1,1.2,0.2c0.9,0.2,1.8,0.2,2.7,0.1c0.8-0.1,1.7-0.1,2.5-0.1c3.2,0,6.3,0,9.5,0.1
			c1,0,2,0,3,0.3c0.9-0.1,1.8-0.2,2.7-0.2c2.9,0,5.8,0.1,8.7,0c3.3,0,6.7,0,10,0.1c1.2,0,2.5,0.1,3.7-0.3c0.2,0,0.3-0.1,0.5,0
			c1.4,0.4,2.8-0.1,4.2,0c1.4,0.1,2.8,0,4.2,0c1.4,0,2.8,0,4.2,0c6.3,0,3.2-0.1,9.5,0c0.7,0,1.5,0,2.2-0.2c0.8-0.1,1.7-0.1,2.5-0.2
			c1.4,0,2.8-0.1,4.2-0.1c1.1-0.3,2.1-0.2,3.2-0.2c0.7,0,1.3,0,2,0.2c0.2,0.1,0.5,0.1,0.7,0.1c0.6,0.1,1.1-0.2,1.7-0.1
			c0.7,0.2,1.3,0.1,2,0c0.6-0.1,1.1,0.1,1.7,0c0.3-0.1,0.7-0.1,1-0.1c2.8,0,5.1,0.6,7.9,0.6c1,0,2,0,3,0c1.7,0,3.3,0,5,0.1
			c2.6,0,5.2,0,7.7,0c0.7,0,1.5,0,2.2-0.2c0.6-0.1,1.2-0.1,1.7-0.1c0.7,0,1.3,0.2,2,0.3c0.7,0.1,1.3-0.2,2,0
			c0.8,0.2,1.6,0.1,2.5-0.1c0.6-0.2,1.3-0.2,2-0.1c1.1,0,2.2,0,3.2,0.2c1.1,0.2,2.3,0.3,3.4,0.5c1.1,0.2,2.1,0.8,3,1.6
			c0.4,0.3,0.7,0.7,0.9,1.1c0.4,0.6,0.6,1.3,0.5,2c-0.1,0.6,0,1.3-0.2,1.9c-0.2,0.6-0.4,1.2-0.1,1.8c0.3,0.6,0.1,1.2,0.1,1.9
			c0,0.2,0,0.5-0.1,0.7c-0.6,1.8,0.2,2.9,0,4.7c-0.1,0.8,0,1.6-0.3,2.3c-0.1,1-0.1,2-0.2,3.1c0,2.2,0,4.4-0.1,6.6
			c0,2.4-0.1,4.9-0.1,7.3c0,2-0.1,4.1-0.1,6.1c0,1.5,0.1,3-0.4,4.4c0,1.2-0.1,2.4-0.1,3.5c0,5.5-0.1,11-0.3,16.5
			c0,0.6,0,1.2-0.3,1.9c-0.1,0.3-0.1,0.6,0,0.9c0.2,0.8,0.2,1.6,0,2.3c-0.2,0.5-0.2,1.1-0.2,1.6c-0.1,1.1-0.2,2.2-0.2,3.3
			c0,0.7-0.4,1.3-0.4,2.1c0,0.9,0,1.9-0.1,2.8c-0.1,2.9-0.1,5.8-0.2,8.7c0,1.6-0.4,3.1-0.5,4.7c0,0.3-0.2,0.6-0.4,0.8
			c-1.5,2.1-3.5,3.5-6.2,4c-1.3,0.2-2.6,0.4-4,0.3c-1.7-0.1-3.3,0.1-4.9,0.6c-0.6,0.1-1.1,0.2-1.7,0.2c-2.7,0-5.3-0.1-8-0.1
			c-0.4,0-0.8,0-1.2-0.2c-1.4-0.4-2.8-0.3-4.2-0.1c-0.6,0.1-1.1,0.1-1.7-0.1c-0.2-0.1-0.5-0.1-0.7-0.1c-1.5,0-3-0.1-4.5-0.1
			c-0.9,0-1.8,0-2.7-0.3c-0.3-0.1-0.7-0.1-1-0.1c-1.7,0-3.5,0-5.2,0c-0.2,0-0.5-0.1-0.7,0c-1.1,0.4-2.1,0.2-3.2,0.2
			c-1.4,0-2.8,0-4.2,0.3c-1.1,0.2-2.2,0.2-3.2,0c-0.5-0.1-1,0-1.5,0c-1.4,0.1-2.8,0.1-4.2,0.1c-1,0-2,0-3,0c-4.7,0-9.5-0.1-14.2-0.1
			c-1.7,0-3.3,0-5,0c-1.2,0-2.3,0-3.5,0c-0.7,0-1.3,0-2,0.2c-1,0.2-2,0.1-3,0c-1.1-0.4-2.3-0.4-3.5-0.4c-5.2,0-0.9,0.1-6-0.1
			c-0.4,0-0.8,0-1.2,0c-1,0-2-0.1-3-0.3c-1.4-0.3-2.8-0.3-4.2,0c-1.5,0.3-3,0.2-4.5,0.1c-0.1,0-0.2,0-0.2-0.1
			c-0.6-0.3-1.3-0.2-1.9-0.1c-1.3,0.3-2.7,0.2-4,0.1c-0.3,0-0.6-0.1-1-0.2c-0.4-0.1-0.8-0.2-1.2,0c-1.6,0.5-3.3,0.3-4.9,0.1
			c-0.7-0.1-1.3-0.2-2-0.2c-2.4-0.1-4.8-0.1-7.2-0.2c-1,0-2-0.1-3-0.3c-1.2-0.2-2.5-0.2-3.7-0.2c-2.2,0-4.3,0-6.5,0
			c-2.4,0-4.8-0.2-7.2,0c-1,0.1-2-0.2-3,0.1c-0.6,0.2-1.1-0.3-1.7-0.1c-0.6,0.2-1.1,0.2-1.7,0.2c-0.6,0-1.2,0-1.7,0
			c-0.3,0-0.7,0-1-0.1c-0.6-0.2-1.3-0.2-2-0.3c-1.4,0-2.6-0.6-3.6-1.4c-0.1,0-0.1-0.1-0.2-0.2c-1.8-1.3-2.5-3.3-3.1-5.2
			c-0.1-0.4-0.1-0.9-0.1-1.4c0-2,0-4.1,0-6.1c0-0.4,0.1-0.8,0.1-1.2c0-0.2,0.1-0.5,0.1-0.7c-0.4-1.2-0.2-2.5-0.3-3.7
			c-0.1-1.3-0.1-2.5-0.1-3.8c0,0,0-3.4-0.1-4.9C0.1,68.5,0,64.5,0,64.3z"/>
	</g>
	<path fill="#F2EADF" d="M138.4,46.3c-0.3,0-0.6,0-1,0c-0.6,0-1.1,0-1.6-0.2c-0.4,0-0.7-0.3-0.9-0.6c-0.2-0.3-0.3-0.6-0.5-0.8
		c-0.2-0.4-0.4-0.7-0.6-1c-0.2-0.2-0.4-0.4-0.7-0.4c-0.3,0-0.6,0-1,0c-0.2,0-0.5,0-0.7,0c-0.7-0.2-1.4-0.1-2-0.2c-2.1,0-4.1,0-6.2,0
		c-0.7,0-1.4,0-2.1,0c-0.2,0-0.5,0-0.7,0c-0.1,0-0.2,0.1-0.2,0.1c-0.1,0.2-0.3,0.5-0.4,0.7c-0.3,0.7-0.8,1.2-1.4,1.7
		c-0.1,0.1-0.3,0.2-0.5,0.2c-0.3,0-0.6,0-0.8-0.1c-0.8-0.2-1.6-0.2-2.4-0.3c-0.2,0-0.3-0.1-0.5-0.3c-0.1-0.1-0.1-0.3-0.1-0.4
		c0.3-0.5,0.6-1,0.9-1.5c0.5-0.9,1-1.7,1.6-2.5c0.3-0.5,0.6-1,0.9-1.5c0.4-0.7,0.7-1.4,1.2-2c0.4-0.6,0.7-1.3,1.1-1.9
		c0.5-0.8,1-1.6,1.4-2.5c0.2-0.4,0.5-0.8,0.7-1.2c0.4-0.7,0.9-1.3,1.2-2c0.2-0.4,0.5-0.8,0.8-1.1c0.3-0.5,0.7-1,1-1.5
		c0.2-0.4,0.5-0.5,0.9-0.5c0.3,0,0.6,0,1,0c0.7,0,1.4,0,2.1,0c0.3,0,0.6,0.1,0.9,0.2c0.4,0.1,0.6,0.3,0.8,0.7c0.3,0.6,0.7,1.2,1,1.8
		c0.5,1.1,1.2,2.2,1.8,3.2c0.6,1,1.1,2,1.6,3c0.2,0.5,0.5,0.9,0.7,1.3c0.2,0.3,0.3,0.6,0.5,0.8c0.3,0.5,0.4,1.1,0.8,1.6
		c0.3,0.5,0.6,1,0.9,1.5c0.2,0.3,0.3,0.6,0.4,0.9c0.5,1,1,2.1,1.6,3c0.2,0.3,0.3,0.6,0.5,0.8c0.3,0.6,0.1,0.9-0.5,0.9
		C139.4,46.3,138.9,46.3,138.4,46.3C138.4,46.3,138.4,46.3,138.4,46.3z M129.2,38.8C129.2,38.8,129.2,38.8,129.2,38.8
		c0.5,0,1,0,1.5,0c0.1,0,0.2,0,0.3,0c0.1,0,0.2-0.2,0.2-0.3c-0.4-0.7-0.8-1.4-1.2-2.2c-0.7-1.4-1.5-2.7-2.2-4.1c0,0-0.1-0.1-0.1-0.1
		c-0.1-0.1-0.2-0.1-0.2,0c-0.3,0.3-0.6,0.6-0.8,1c-0.6,1.1-1.5,2.1-2.1,3.2c-0.4,0.7-0.8,1.3-1.2,2c-0.1,0.1,0,0.2,0.1,0.2
		c0.5,0.1,1,0.1,1.5,0.2c0.4,0.1,0.7,0.1,1.1,0c0.3-0.1,0.5-0.1,0.8,0c0.4,0.1,0.8,0.1,1.2,0.1C128.4,38.8,128.8,38.8,129.2,38.8z"
		/>
	<path fill="#F2EADF" d="M109.1,77c-0.5,0-1.2,0-1.9,0c-0.2,0-0.3-0.1-0.5-0.1c-0.2-0.1-0.5-0.4-0.5-0.6c0-1.2,0-2.5,0-3.7
		c0.3-1.1,0.2-2.2,0.3-3.3c0-1.1,0-2.2,0-3.4c0-0.6,0-1.1,0.2-1.7c0-0.1,0-0.2-0.2-0.2c-0.1,0-0.1,0-0.2,0c-0.2,0.2-0.5,0.5-0.7,0.7
		c-0.7,0.8-1.4,1.6-2.1,2.4c-0.1,0.1-0.2,0.2-0.3,0.4c-0.5,0.6-1,0.8-1.8,0.8c-0.4,0-0.8,0-1.2,0c-0.6,0-1.1-0.2-1.6-0.4
		c-0.4-0.2-0.8-0.5-1-0.9c-0.4-0.7-1-1.2-1.5-1.8c-0.3-0.4-0.6-0.8-0.9-1.2c-0.2-0.3-0.4-0.5-0.7-0.7c0,0-0.1,0-0.2,0
		c0,0-0.1,0.1-0.1,0.1c0,0,0,0.1,0,0.2c0.2,0.7,0.2,1.4,0.2,2.2c0,1.3,0,2.7,0,4c0,0.4,0,0.9-0.2,1.3c-0.1,0.3-0.1,0.5-0.1,0.8
		c0,1.1-0.1,2.1-0.1,3.2c0,0.4-0.1,0.8-0.3,1.1c-0.1,0.2-0.3,0.4-0.5,0.4c-1.3,0-2.6,0-3.9,0c-0.3,0-0.5-0.2-0.8-0.3
		c-0.2-0.1-0.2-0.2-0.2-0.4c0-0.1,0.1-0.2,0.1-0.3c-0.2-1.8-0.1-3.6-0.1-5.3c-0.1-3.1-0.1-6.3,0-9.4c0-1.3,0-2.7,0-4
		c0-0.8,0-1.6,0-2.3c0-0.2,0-0.3,0.1-0.5c0.1-0.2,0.1-0.3,0.3-0.4c0.5-0.1,1-0.2,1.5-0.3c0.2,0,0.4,0.1,0.6,0.1c0.7-0.2,1.3,0,2,0.1
		c1.5,0.2,1.2-0.2,1.9,1.2c0.2,0.3,0.4,0.7,0.6,1c0.8,1,1.4,2.1,2.2,3.2c0.2,0.2,0.3,0.5,0.5,0.7c0.5,0.6,1,1.2,1.5,1.8
		c0.2,0.2,0.4,0.4,0.6,0.6c0.1,0.1,0.5,0.1,0.6-0.1c0.4-0.6,0.9-1,1.3-1.5c0.8-0.9,1.6-1.8,2.5-2.7c0.1-0.1,0.2-0.3,0.3-0.4
		c0.7-1.1,1.7-2,2.5-2.9c0.2-0.3,0.6-0.4,0.9-0.3c0.4,0,0.9,0,1.3,0.1c0.3,0.1,0.5,0.1,0.8,0c0.7-0.2,1.4,0,2.1,0.2
		c0.2,0.1,0.3,0.3,0.4,0.5c0.1,0.2,0.1,0.3,0.1,0.5c0.1,1.4-0.1,2.8-0.1,4.2c-0.4,2-0.2,4-0.3,6c0,0.9,0,1.9,0,2.8
		c0,0.2,0,0.5,0,0.7c-0.3,1-0.2,2-0.2,3c0,1.1-0.1,2.2-0.1,3.4c0,0.3,0,0.5-0.1,0.8c-0.2,0.6-0.5,0.8-1.1,0.8
		C110.6,77,109.9,77,109.1,77z"/>
	<path fill="#F2EADF" d="M22.8,54.4c1.9,0.1,4.4-0.1,6.9,0.1c0.2,0,0.3,0,0.5,0c0.7-0.1,1.4,0.2,2.1,0.3c0.2,0,0.4,0.2,0.5,0.3
		c0.1,0.1,0.2,0.2,0.2,0.4c0,0,0,0.1,0,0.1c0,0.9,0,1.7,0,2.6c0,0.2,0,0.4-0.1,0.6c0,0.2-0.3,0.5-0.5,0.5c-0.6,0.1-1.1,0.1-1.7,0.2
		c-0.4-0.2-0.9,0-1.3-0.1c-1.2-0.1-2.3-0.2-3.5-0.1c-0.2,0-0.5,0.3-0.5,0.5c0,0.5,0,0.9-0.1,1.4c0,0.5-0.1,0.9-0.2,1.4
		c-0.1,0.5-0.1,0.9-0.1,1.4c0,0.9,0,1.7,0,2.6c0,0.6,0,1.1,0.1,1.7c0.1,0.6,0.1,1.3,0.1,2c0,0.2,0,0.4,0.1,0.6
		c0,0.2,0.2,0.3,0.3,0.3c0.1,0.1,0.3,0.1,0.4,0.1c0.7,0,1.4,0,2.1,0c0.2,0,0.4,0,0.6-0.1c0.8-0.2,1.7-0.2,2.6-0.2
		c0.4,0,0.7,0.1,1,0.3c0.1,0,0.1,0.1,0.2,0.2c0,0,0,0.1,0,0.1c0,0.9,0,1.7,0,2.6c0,0.3,0,0.5-0.1,0.7c-0.1,0.2-0.2,0.4-0.5,0.6
		c-0.3,0.1-0.7,0.3-1,0.3c-1.6,0-3.3,0-4.9,0c-0.4,0-0.8,0-1.2-0.1c-0.2,0-0.4,0-0.6,0c-0.2,0-0.5,0.1-0.8,0
		c-1.1-0.3-2.1-0.2-3.2-0.2c-0.7,0-1.3,0-2,0.2c-0.2,0.1-0.4,0.1-0.6,0c-0.7-0.2-1.4-0.2-2.1-0.2c-0.6,0-1.2,0-1.8,0
		c-0.6,0-1.2-0.5-1.3-1.1c-0.1-1-0.1-1.9,0-2.9c0-0.1,0.1-0.3,0.2-0.4c0.1-0.2,0.3-0.2,0.5-0.3c0.3,0,0.5,0,0.8,0
		c1.7,0.1,3.5,0,5.2,0.1c0.2,0,0.3,0,0.5,0c0.2,0,0.4-0.2,0.4-0.4c0-0.5,0-0.9,0-1.4c0-2.6,0-5.2,0-7.8c0-0.7,0-1.3,0-2
		c0-0.2-0.2-0.4-0.4-0.4C18.5,59,17.3,59,16.1,59c-0.5,0-0.9,0-1.4,0c-0.4,0-0.7-0.1-1-0.3c-0.3-0.1-0.5-0.3-0.6-0.7
		c-0.2-0.8-0.4-1.6,0-2.4c0.1-0.1,0.1-0.3,0.1-0.5c0-0.7,0.3-0.8,1-0.8c0.9,0,1.7,0.1,2.6,0.1C18.5,54.5,20.4,54.5,22.8,54.4z"/>
	<path fill="#F2EADF" d="M77.9,58c-1.6,0-3.1,0.1-4.7,0.1c-0.6,0-1.2,0-1.9,0.2c-0.4,0.1-0.9,0-1.4,0.1c-0.2,0-0.4,0-0.6,0.1
		c-0.1,0-0.2,0.1-0.2,0.2c0,0,0,0.1,0,0.2c-0.1,1.1,0,2.3,0,3.4c0,0.2,0.2,0.4,0.4,0.4c0.1,0,0.2,0,0.3,0c1.2,0,2.4,0,3.6,0
		c0.3,0,0.5-0.1,0.8-0.1c0.2,0,0.3,0,0.5,0c0.4,0.1,0.7,0.1,1.1,0.1c1.1,0,2.3,0,3.4,0c0.2,0,0.3,0,0.5-0.1c0.2,0,0.4-0.1,0.6-0.1
		c1.1,0,2.3,0,3.4-0.1c0.3,0,0.6,0.3,0.7,0.5c0,0.1,0,0.2,0.1,0.3c0.1,0.7,0.1,1.4,0.2,2.2c0.1,0.5,0,0.9-0.2,1.4
		c-0.2,0.3-0.4,0.5-0.7,0.6c-0.6,0.1-1.2,0.3-1.8,0.3c-0.9,0-1.9,0-2.8,0c-0.4,0-0.7,0-1.1-0.1c-0.7-0.2-1.4-0.2-2.1,0
		c-0.3,0.1-0.5,0-0.8,0c-0.8-0.2-1.5-0.1-2.3,0c-0.3,0-0.5,0.1-0.8,0.1c-0.8,0-1.6,0-2.3,0c-0.5,0-0.6,0.2-0.6,0.7
		c0,0.1,0,0.1,0,0.2c0,0.4,0,0.8-0.1,1.2c-0.2,0.4-0.1,0.9-0.1,1.4c0,0.4,0.3,0.7,0.7,0.7c1.8,0,3.5,0,5.3,0c0.1,0,0.2,0,0.3,0
		c0.7-0.3,1.4-0.2,2.2-0.2c0.7,0,1.3,0,2,0c0.8,0,1.7,0,2.5,0c0.6,0,1.1,0.1,1.7,0.2c0.4,0.1,0.6,0.4,0.7,0.7c0,0.1,0.1,0.2,0.1,0.3
		c0.1,1.1,0.1,2.3-0.2,3.4c-0.1,0.3-0.3,0.4-0.6,0.5c-0.1,0.1-0.3,0.1-0.5,0.1c-1.1,0-2.3,0.1-3.4,0.1c-0.6,0-1.1,0-1.7,0.2
		c-1.2,0-2.5,0.2-3.7-0.1c-0.2-0.1-0.5-0.1-0.8-0.1c-2.5,0-5.1-0.1-7.6,0c-0.6,0-1.1,0-1.7-0.1c-0.2,0-0.5-0.3-0.5-0.5
		c0.1-0.7-0.1-1.4,0-2.2c0-0.3,0-0.5,0.1-0.8c0-0.1,0.1-0.3,0-0.5c-0.2-0.5-0.2-0.9,0-1.4c0.1-0.2,0.1-0.4,0.1-0.6
		c-0.2-0.5,0-1,0-1.5c0.1-1.5,0.1-3,0-4.5c-0.1-1.7,0-3.4,0.1-5.1c0-0.3,0.1-0.5,0.1-0.8c0-0.2,0-0.4,0-0.6c0-0.1-0.1-0.2-0.1-0.3
		c0.2-1.1,0.1-2.3,0.1-3.4c0-0.2,0-0.3,0.1-0.5c0-0.2,0.2-0.4,0.4-0.4c0.2,0,0.4,0,0.6,0c0.8,0,1.6,0,2.3-0.2c0.3-0.1,0.6,0,0.9,0
		c0.9,0,1.8,0,2.6,0c0.2,0,0.4,0,0.6,0.1c0.2,0,0.4,0.2,0.6,0.1c0.4-0.2,0.7,0.1,1.1,0c0.5-0.1,0.9-0.1,1.4,0c0.2,0.1,0.4,0,0.6,0
		c0.1,0,0.2,0,0.3,0c1.5,0.2,2.6,0.2,3.6,0.2c0.2,0,0.3,0,0.5,0c1.5-0.4,3.1-0.2,4.6-0.2c0.3,0,0.6,0.2,0.7,0.5
		c0.1,0.2,0.2,0.5,0.2,0.7c0,0.4,0,0.7-0.1,1.1C85,56.1,85,56.6,85,57.1c0,0.2,0,0.4-0.2,0.6c-0.2,0.1-0.4,0.3-0.7,0.3
		c-0.2,0.1-0.4,0-0.6,0.1c-1.6,0.1-3.1,0-4.7,0C78.5,58,78.2,58,77.9,58C77.9,58,77.9,58,77.9,58z"/>
	<path fill="#F2EADF" d="M141.9,40.2c0-1.6,0-3.3,0.1-4.9c0-0.4,0-0.8,0.1-1.2c0-0.1,0-0.3,0-0.4c0-0.3-0.1-0.6-0.1-0.9
		c0-0.3,0.1-0.6,0-0.9c0,0,0-0.1,0-0.1c0-0.5,0.2-1,0.2-1.5c0-0.5,0-1.1,0-1.6c0-0.5,0-1,0-1.5c0-0.7,0.2-1,1-1c1.5,0,3.1,0,4.6,0
		c0.7,0,1.4,0,2.1,0.1c0.1,0,0.3,0.1,0.4,0.1c0.9,0.3,1.7,0.7,2.5,1.3c0.1,0.1,0.3,0.3,0.5,0.4c0.8,0.6,1.3,1.4,1.5,2.4
		c0.1,0.4,0.2,0.9,0.4,1.3c0.1,0.3,0.1,0.6,0.1,0.9c0,0.9,0,0.9-0.3,1.9c-0.3,0.8-0.6,1.7-1.2,2.4c-0.3,0.3-0.5,0.6-0.8,0.9
		c-0.2,0.2-0.4,0.3-0.5,0.5c-0.1,0.1-0.2,0.3-0.2,0.4c0,0.3,0,0.7,0,1c0,0.2,0.1,0.4,0.1,0.6c0,0.1,0.1,0.2,0.1,0.3
		c0.5,1.6,0.3,1.5,2,2c0.5,0.1,0.7,0.5,0.7,1c0,0.7,0,1.5,0,2.2c0,0.3-0.2,0.5-0.5,0.7c-0.7,0.4-1.5,0.5-2.3,0.4
		c-0.8-0.1-1.6-0.4-2.3-0.9c-0.1-0.1-0.2-0.2-0.3-0.3c-0.4-0.5-0.8-1-1-1.6c-0.2-0.5-0.4-1-0.5-1.5c0-0.1-0.1-0.3-0.1-0.4
		c0-0.7-0.3-1.4-0.4-2.2c0-0.1-0.1-0.3-0.3-0.3c-0.2-0.1-0.4,0-0.5,0.1c-0.1,0.1-0.2,0.2-0.2,0.4c0,0.2,0,0.4,0,0.6
		c0,1.6,0,3.2-0.1,4.7c0,0.4-0.2,0.8-0.5,1c-0.1,0.1-0.3,0.2-0.4,0.2c-1.1,0-2.2,0-3.3,0.1c-0.2,0-0.5-0.3-0.5-0.5
		c0-0.1-0.1-0.3-0.1-0.4C141.9,44,141.9,42.1,141.9,40.2C141.9,40.2,141.9,40.2,141.9,40.2z M146.7,33.7
		C146.7,33.7,146.7,33.7,146.7,33.7c0,0.4,0,0.9,0,1.3c0,0.2,0.2,0.4,0.4,0.4c0.1,0,0.2,0,0.3,0c0.5-0.1,1.1-0.2,1.6-0.4
		c0.7-0.3,1.3-0.7,1.4-1.6c0-0.1,0.1-0.2,0.1-0.3c0-0.2,0-0.4,0-0.6c0-0.1-0.1-0.3-0.1-0.4c-0.3-0.8-0.8-1.3-1.7-1.5
		c-0.3-0.1-0.7-0.1-1-0.2c-0.3-0.1-0.6,0.2-0.7,0.5C146.8,31.9,146.8,32.8,146.7,33.7z"/>
	<path fill="#F2EADF" d="M116,67.3c0-1.2,0-3.2,0-5.1c0-1.1,0-2.1,0.2-3.2c0.1-0.3,0-0.7,0.1-1c0-1.1,0.1-2.1,0.1-3.2
		c0-0.3,0-0.6,0.2-0.8c0.1-0.1,0.2-0.3,0.3-0.3c0.9-0.1,1.9-0.4,2.8-0.3c0.4,0,0.8,0,1.2,0.1c0.3,0.1,0.5,0.1,0.8,0
		c0.8-0.2,1.6-0.2,2.5,0.1c0.6,0.2,1.3,0.4,1.9,0.7c0.7,0.3,1.3,0.7,1.8,1.2c0.5,0.5,0.8,1,1.2,1.6c0.4,0.6,0.5,1.4,0.7,2.1
		c0.2,0.8,0.2,1.6-0.1,2.5c-0.2,0.7-0.5,1.4-0.8,2c-0.3,0.6-0.6,1.2-0.9,1.8c-0.1,0.2-0.3,0.5-0.5,0.7c-0.8,0.7-1.6,1.3-2.6,1.5
		c-0.2,0.1-0.4,0.1-0.6,0.2c-0.8,0.3-1.7,0.5-2.6,0.5c-0.1,0-0.1,0-0.2,0c-0.1,0-0.3,0.2-0.3,0.3c0,0.7-0.1,1.3-0.1,2
		c0,0.7,0.1,1.5-0.2,2.2c0,0.7-0.1,1.4-0.1,2.2c0,0.3,0,0.6,0,0.8c0,0.6-0.7,1.1-1.2,1.2c-0.4,0-0.8,0-1.2-0.1
		c-0.4-0.2-0.9-0.2-1.3,0c-0.2,0.1-0.4,0-0.6-0.1c-0.2-0.1-0.4-0.3-0.4-0.5c0-0.9-0.1-1.8-0.1-2.7C115.9,71.7,115.9,69.8,116,67.3z
		 M122.3,58.2c-0.1,0-0.1,0-0.2,0c-0.7-0.2-0.8-0.2-0.8,0.7c0,0.6,0,1.1-0.1,1.7c-0.1,0.6-0.2,1.2,0,1.8c0,0.1-0.1,0.3-0.1,0.5
		c0,0.1,0,0.2,0,0.3c0,0.2,0.3,0.4,0.5,0.4c1-0.2,1.8-0.6,2.5-1.2c0.3-0.3,0.6-0.7,0.6-1.1c0-0.3,0-0.6,0-0.8c0-0.8-0.4-1.3-1.1-1.7
		C123.2,58.4,122.8,58.2,122.3,58.2z"/>
	<path fill="#F2EADF" d="M106.6,25.9c0.2,0,0.5,0,0.7,0c0.7,0,1.4,0.2,2.1,0.6c0.8,0.4,1.5,0.9,2.1,1.5c0.1,0.1,0.3,0.3,0.4,0.4
		c0.2,0.2,0.2,0.5,0.1,0.8c-0.1,0.2-0.3,0.4-0.4,0.6c-0.4,0.6-0.8,1.1-1.1,1.7c-0.2,0.3-0.5,0.4-0.8,0.2c-0.5-0.3-0.9-0.6-1.4-0.8
		c-0.2-0.1-0.3-0.1-0.5-0.2c-0.2,0-0.5,0-0.7,0c-1.1-0.1-1.3,0.1-2,1.1c-0.4,0.6-0.7,1.3-0.8,2c-0.2,0.8-0.3,1.5-0.3,2.3
		c0,0.5,0,0.9-0.1,1.4c-0.1,0.5-0.1,1.1,0.1,1.6c0.1,0.6,0.4,1.2,0.7,1.8c0.1,0.3,0.4,0.5,0.6,0.7c0.3,0.3,0.7,0.4,1.1,0.4
		c0.7,0,1.4-0.2,2.1-0.6c0.4-0.2,0.9-0.5,1.2-0.9c0.2-0.2,0.7-0.2,0.9-0.1c0.2,0.1,0.4,0.2,0.6,0.4c0.6,0.4,1.3,0.8,2,1.2
		c0.2,0.1,0.2,0.3,0.2,0.5c0,0.2,0,0.4-0.1,0.5c-0.2,0.3-0.5,0.7-0.7,1c-0.2,0.3-0.4,0.6-0.7,0.9c-0.4,0.5-0.9,0.9-1.5,1.2
		c-0.7,0.3-1.3,0.6-2.1,0.7c-1,0.2-2,0.2-3-0.1c-0.5-0.1-1.1-0.2-1.6-0.4c-1.2-0.4-2.2-1.1-3-2.1c0,0-0.1-0.1-0.1-0.1
		c0-0.1-0.1-0.1-0.1-0.2c-0.2-0.7-0.7-1.2-0.9-1.8c-0.1-0.4-0.3-0.9-0.4-1.3c-0.1-0.2-0.1-0.4-0.1-0.5c0-1,0-2,0-3
		c0-0.6,0-1.2,0.2-1.8c0.1-0.2,0.1-0.5,0.1-0.7c0-0.7,0.2-1.3,0.3-1.9c0.1-0.6,0.4-1.2,0.6-1.8c0.2-0.5,0.4-1,0.8-1.5
		c0.4-0.6,0.8-1.2,1.3-1.8c0.2-0.2,0.5-0.4,0.7-0.6c0.2-0.2,0.5-0.4,0.8-0.6c0.5-0.4,1-0.6,1.6-0.6
		C105.7,25.9,106.2,25.9,106.6,25.9C106.6,25.9,106.6,25.9,106.6,25.9z"/>
	<path fill="#F2EADF" d="M135.3,58.6c-0.9,0-1.8,0-2.6,0c-0.4,0-0.7-0.1-1-0.3c-0.2-0.1-0.3-0.2-0.3-0.4c0-0.1,0-0.1,0-0.2
		c0-1.1,0-2.2,0.1-3.3c0-0.1,0-0.2,0.1-0.3c0.1-0.1,0.2-0.3,0.4-0.3c0.6-0.1,1.2-0.1,1.7,0.1c0.8,0.3,1.6,0.2,2.4,0.1
		c0.8-0.2,1.5-0.1,2.3,0c0.4,0.1,0.8,0.1,1.2,0.1c3.1,0,6.1,0.1,9.2,0.1c1,0,2,0,3,0.2c0.6,0.1,1.2,0.1,1.8,0.1
		c0.3,0,0.7,0.4,0.7,0.7c0,0.1,0,0.1,0,0.2c0,0.8,0,1.6,0,2.5c0,0.4-0.2,0.7-0.3,1c-0.1,0.2-0.2,0.3-0.4,0.3c-0.5,0-1.1,0-1.6,0.1
		c-0.6,0-1.2,0-1.7,0.2c-0.3,0.1-0.6,0-0.9,0c-0.9,0-1.9,0-2.8,0c-0.2,0-0.5,0.1-0.7,0.1c-0.1,0-0.3,0.2-0.3,0.4
		c0,1.1,0,2.1-0.1,3.2c0,0.5,0,0.9-0.2,1.4c-0.1,0.3-0.1,0.6-0.1,0.9c0,0.8,0,1.5,0,2.3c0,1.3-0.1,2.6-0.1,3.9c0,0.8,0,1.5-0.2,2.3
		c-0.1,0.5-0.1,1-0.1,1.6c0,0.5,0,0.9,0,1.4c0,0.4-0.1,0.7-0.3,1c-0.1,0.2-0.3,0.4-0.5,0.4c-0.4,0-0.7,0-1.1,0c-0.9,0-1.9,0-2.8,0
		c-0.4,0-0.8-0.1-1.2-0.3c-0.2-0.1-0.4-0.3-0.5-0.5c-0.1-0.3-0.3-0.6-0.2-0.8c0.2-0.6-0.1-1.3,0-1.9c0.1-0.6,0-1.3,0-1.9
		c0-0.5,0-0.9,0.2-1.4c0.1-0.3,0.1-0.7,0.1-1c0.1-0.9,0-1.8,0.2-2.6c0.1-0.3,0-0.6,0-0.9c0-1.1,0.1-2.2,0.1-3.3c0-0.3,0-0.6,0.1-0.9
		c0.3-1,0.2-2.1,0.1-3.1c0-0.2-0.3-0.5-0.5-0.5c-0.3,0-0.7-0.1-1-0.1C136.7,58.6,136,58.6,135.3,58.6
		C135.3,58.6,135.3,58.6,135.3,58.6z"/>
	<path fill="#F2EADF" d="M159.3,72.7c0-1.1,0-2.2,0.2-3.3c0.1-0.5,0.1-1.1,0.1-1.7c0-0.2,0-0.3-0.1-0.5c-0.6-1.4-1-2.9-1.5-4.4
		c-0.1-0.4-0.2-0.9-0.4-1.3c-0.3-0.7-0.5-1.3-0.6-2.1c-0.1-0.5-0.3-1-0.4-1.4c-0.2-0.6-0.2-1.2-0.4-1.8c-0.1-0.4-0.1-0.8-0.1-1.2
		c0-0.2,0.1-0.4,0.3-0.6c0.1-0.1,0.3-0.2,0.4-0.2c0.2,0,0.5,0,0.7,0c0.9,0.3,1.8,0.3,2.6,0.3c0.2,0,0.4,0.1,0.5,0.3
		c0.2,0.3,0.3,0.7,0.5,1.1c0.2,0.7,0.7,1.4,0.7,2.2c0.3,0.7,0.5,1.5,0.7,2.2c0,0.2,0.2,0.3,0.3,0.3c0,0,0.1,0,0.1,0
		c0.4-1,0.9-2,1.2-3.1c0.2-0.8,0.5-1.6,0.7-2.4c0.1-0.2,0.3-0.4,0.5-0.4c0.3-0.1,0.5-0.2,0.8-0.2c0.7,0,1.4,0,2.2,0
		c0.4,0,0.7,0.2,1.1,0.4c0.1,0,0.2,0.4,0.2,0.5c-0.1,0.7-0.4,1.3-0.6,1.9c-0.2,0.5-0.4,0.9-0.6,1.4c-0.2,0.6-0.6,1.2-0.6,1.9
		c-0.2,0.5-0.3,0.9-0.5,1.4c-0.5,1.2-1.1,2.4-1.5,3.7c0,0.2-0.1,0.3-0.2,0.5c-0.4,0.6-0.4,1.2-0.4,1.9c0,0.6,0,1.2-0.2,1.8
		c-0.1,0.2,0,0.4,0,0.7c0,1.1-0.1,2.2-0.1,3.3c0,0.7-0.2,1.4-0.3,2.1c0,0.1-0.1,0.2-0.2,0.2c-0.3,0.1-0.6,0.3-1,0.3
		c-0.4,0-0.9,0-1.3-0.1c-0.5-0.1-1-0.2-1.5-0.2c-0.5,0-0.7-0.3-0.9-0.6c-0.1-0.2-0.2-0.4-0.2-0.6c0-0.6,0-1.1,0-1.7
		C159.3,73.2,159.3,72.9,159.3,72.7z"/>
	<path fill="#F2EADF" d="M41.5,53.5c1.2,0.1,2.5,0.4,3.6,1c0.3,0.2,0.7,0.4,1,0.6c0.8,0.4,1.3,1,1.9,1.6c0.1,0.2,0.2,0.4,0.2,0.6
		c0,0.3,0,0.7-0.1,1c-0.5,1.1-1.1,2.2-1.8,3.2c-0.1,0.1-0.3,0.1-0.4,0.1c-0.3-0.1-0.6-0.3-0.8-0.6c-0.4-0.4-0.9-0.8-1.5-1.1
		c-0.5-0.3-1.1-0.5-1.7-0.7c-0.2-0.1-0.3,0-0.5,0c-0.3,0-0.5,0.2-0.7,0.4c-0.1,0.1-0.1,0.4-0.1,0.5c0.5,0.7,1,1.5,1.8,1.9
		c0.7,0.7,1.5,1.3,2.3,1.9c1.3,1,2.4,2.3,3.4,3.7c0.3,0.4,0.4,0.8,0.6,1.2c0.1,0.3,0.2,0.5,0.2,0.8c0.1,1.3-0.1,2.6-0.8,3.7
		c-0.2,0.2-0.3,0.5-0.4,0.7c-0.7,1.2-1.7,1.9-3,2.3c-0.6,0.2-1.2,0.4-1.8,0.5c-0.3,0.1-0.7,0.1-1,0c-0.6-0.1-1.2-0.2-1.8-0.2
		c-0.2,0-0.4-0.1-0.6-0.1c-0.2-0.1-0.4-0.2-0.6-0.2c-1.5-0.4-2.6-1.2-3.7-2.2c-0.2-0.1-0.3-0.3-0.4-0.6c-0.1-0.3,0-0.7,0.2-0.9
		c0.2-0.2,0.4-0.4,0.6-0.6c0.3-0.3,0.7-0.6,0.9-1c0.2-0.4,0.6-0.5,0.9-0.7c0.3-0.1,0.6-0.1,0.8,0c0.4,0.2,0.8,0.4,1.2,0.6
		c0.5,0.3,1,0.5,1.5,0.7c0.5,0.2,1,0.1,1.4,0c0.4-0.1,0.5-0.4,0.7-0.7c0.2-0.3,0.1-0.6,0-0.9c-0.2-0.3-0.4-0.6-0.6-0.8
		c-1-0.6-1.9-1.3-2.8-2.2c-0.3-0.3-0.7-0.5-1.1-0.8c-1-0.6-1.9-1.4-2.6-2.3c-0.1-0.2-0.3-0.4-0.4-0.6c-0.3-0.6-0.5-1.2-0.6-1.9
		c-0.3-1.7,0.1-3.3,0.8-4.9c0-0.1,0.1-0.2,0.2-0.3c0.6-0.8,1.3-1.5,2.2-2.1c0.4-0.2,0.8-0.4,1.2-0.5c0.5-0.1,1.1-0.1,1.6-0.3
		C41,53.4,41.2,53.5,41.5,53.5z"/>
	<path fill="#F2EADF" d="M164.2,26.6c1.5,0,3.1,0,4.6,0c0.4,0,0.8,0,1.2,0.2c0.5,0.2,0.8,0.6,0.9,1.1c0.1,0.8,0.1,1.6,0.1,2.4
		c0,0.3-0.2,0.6-0.5,0.7c-0.5,0.2-1,0.4-1.6,0.4c-0.2,0-0.4,0-0.6,0c-1.2,0.1-1.2-0.1-1.3,1.2c0,0.2,0,0.5,0,0.7
		c-0.2,0.8-0.2,1.6-0.2,2.4c0,1.9-0.1,3.7-0.1,5.6c0,0.1,0,0.2,0,0.3c-0.3,1.4-0.2,2.7-0.3,4.1c0,0.2-0.1,0.4-0.2,0.6
		c0,0.1-0.1,0.2-0.2,0.2c-0.5,0.1-1,0.3-1.6,0.3c-0.7,0-1.4,0-2.1-0.1c-0.2,0-0.4-0.1-0.6-0.2c-0.3-0.1-0.4-0.3-0.4-0.5
		c0-0.3,0-0.6,0-0.9c0-0.5,0-1,0-1.5c0-0.3,0-0.7-0.1-1c-0.1-0.5-0.1-1,0-1.5c0-0.2,0.1-0.4,0.1-0.6c0-1.3,0.1-2.7,0.1-4
		c0-1.6-0.1-3.2,0-4.7c0-0.1,0-0.2,0-0.3c0-0.2-0.2-0.4-0.4-0.4c-0.6,0-1.3,0-1.9-0.1c-0.2,0-0.5,0-0.7-0.1c-0.1,0-0.2-0.1-0.2-0.2
		c-0.1-0.2-0.2-0.3-0.3-0.5c-0.2-1.1-0.1-2.2,0.3-3.2c0-0.1,0.1-0.1,0.2-0.2c0.3-0.2,0.7-0.3,1.1-0.3
		C161.1,26.6,162.6,26.6,164.2,26.6L164.2,26.6z"/>
	<path fill="#F2EADF" d="M65.5,43.7c0-0.7,0-1.3,0.1-2c0.2-0.9,0.1-1.9,0.1-2.8c0-1,0-1.9,0.1-2.9c0-0.8,0-1.6,0-2.4
		c0-2.3,0-4.7-0.1-7c0-0.1,0-0.3,0-0.4c0-0.1,0.1-0.2,0.2-0.2c0.1,0,0.2-0.1,0.3-0.1c0.4,0,0.9,0,1.3-0.1c0.4,0,0.8,0,1.1-0.1
		c0.1,0,0.3-0.1,0.4,0c1.1,0.2,2.3,0.1,3.4,0.1c0.7,0,1.4,0,2.1,0c0.7,0,1.3,0,2,0.1c0.6,0,1.2,0.3,1.8,0.3c0.7,0.3,1.4,0.2,2.1,0.5
		c1.6,0.6,2.9,1.4,3.8,2.8c0.2,0.3,0.4,0.6,0.6,1c0.2,0.5,0.3,1.1,0.3,1.7c0,0.7-0.1,1.3-0.4,1.9c-0.3,0.8-0.8,1.4-1.3,2
		c-0.2,0.3-0.5,0.5-0.9,0.7c-1,0.5-2.1,0.9-3.2,1c-0.2,0-0.5,0.1-0.7,0.1c-0.1,0-0.4,0.3-0.4,0.4c0,0.4,0,0.8,0,1.1
		c0,0.9,0.5,1.5,1.2,2c0.4,0.2,0.9,0.4,1.4,0.4c0.8,0,1.6,0,2.4-0.1c0.3,0,0.5,0.1,0.6,0.3c0.2,0.3,0.4,0.5,0.4,0.9
		c0,0.8,0,1.5,0,2.3c0,0.5-0.5,1-1,1.1c-0.1,0-0.3,0-0.4,0c-0.3,0-0.7,0-1,0.1c-0.4,0-0.8,0.1-1.1,0.2c-0.6-0.2-1.1-0.1-1.7-0.2
		c-0.6,0-1.2-0.2-1.8-0.4c-0.7-0.3-1.3-0.6-1.9-1c-0.3-0.2-0.6-0.5-0.8-0.8c-0.3-0.4-0.5-0.9-0.6-1.4c-0.2-0.8-0.5-1.7-0.5-2.5
		c0-0.5-0.2-1-0.3-1.5c0-0.1-0.2-0.2-0.4-0.2c-0.7,0.1-1.3,0.2-2,0.3c-0.3,0-0.5,0.3-0.5,0.6c0,0.5-0.2,0.9,0,1.4c0,0.1,0,0.3,0,0.4
		c-0.3,1.1-0.2,2.2-0.2,3.3c0,0.3,0,0.7-0.1,1c0,0.1-0.1,0.3-0.1,0.4c-0.1,0.2-0.2,0.3-0.4,0.3c-0.5,0-1,0.1-1.6,0.2
		c-0.8,0.1-1.5-0.1-2.2-0.3c-0.1,0-0.1-0.1-0.2-0.2c0-0.2-0.1-0.4-0.1-0.6C65.5,44.7,65.5,44.2,65.5,43.7
		C65.5,43.7,65.5,43.7,65.5,43.7z M70.6,33.2c0,0.1,0,0.4,0,0.6c0,0.1,0,0.3,0,0.4c0,0.2,0.2,0.4,0.4,0.4c0.3,0,0.6,0,0.9,0
		c0.4-0.1,0.7-0.1,1.1-0.1c0.8,0,1.5-0.1,2.3-0.1c0.7,0,1.4-0.2,2.1-0.3c0.1,0,0.3-0.1,0.4-0.1c0.5-0.2,1-0.5,1.4-0.9
		c0.2-0.2,0.3-0.5,0.2-0.8c-0.3-0.7-0.7-1.3-1.5-1.5c-0.2-0.1-0.5-0.1-0.7-0.1c-0.3,0-0.7,0-1-0.1c-0.5-0.3-1-0.2-1.5-0.2
		c-0.5,0-1,0-1.6-0.1c-0.1,0-0.3,0-0.4,0c-0.3,0-0.6,0.1-0.8,0.1c-1.2,0.1-0.9,0.1-1.1,1.1C70.7,32,70.7,32.5,70.6,33.2z"/>
	<path fill="#F2EADF" d="M35.5,46.9c-0.4,0-0.9,0-1.3,0c-1,0-2-0.2-3-0.5c-0.5-0.2-1-0.4-1.5-0.5c-1-0.3-1.9-0.8-2.7-1.4
		c-0.7-0.5-1.2-1.1-1.7-1.8c-0.2-0.3-0.4-0.6-0.6-1c-0.1-0.2-0.2-0.4-0.3-0.7c-0.1-0.4-0.2-0.8-0.4-1.2c-0.2-0.4-0.2-0.8-0.3-1.3
		c0-0.4-0.1-0.8-0.2-1.1c-0.2-0.9-0.1-1.7,0-2.6c0-0.2,0.1-0.5,0.2-0.7c0.2-1.1,0.6-2.1,1.2-3.1c0.2-0.2,0.4-0.5,0.5-0.7
		c0.2-0.3,0.4-0.5,0.7-0.8c0.4-0.4,0.9-0.8,1.3-1.1c0.8-0.6,1.6-1.1,2.5-1.5c1.2-0.5,2.4-1,3.7-1.3c0.5-0.1,0.9-0.2,1.4-0.3
		c0.1,0,0.3,0,0.4,0c0.3,0,0.6,0.1,0.9,0.1c1.9,0.1,1.9,0.2,3.9,0.5c1.1,0.2,2.1,0.5,3.1,0.7c0.2,0.1,0.5,0.1,0.7,0.2
		c1,0.5,1.9,1.1,2.5,2.2c0.5,0.8,1,1.6,1.3,2.4c0.2,0.6,0.4,1.3,0.5,2c0.1,0.6,0.2,1.1,0.2,1.7c0,0.4,0,0.8-0.1,1.2
		c-0.1,0.2-0.1,0.4-0.1,0.6c0,1-0.4,1.9-0.7,2.8c-0.4,0.9-0.9,1.7-1.3,2.6c-0.2,0.4-0.4,0.7-0.8,0.9c-0.4,0.2-0.7,0.5-1,0.8
		c-0.1,0.1-0.3,0.3-0.5,0.4c-0.5,0.3-1.1,0.6-1.6,1c-0.8,0.5-1.6,0.7-2.6,0.9c-0.4,0.1-0.8,0.2-1.3,0.3c-0.5,0.2-1,0.3-1.6,0.2
		C36.4,46.9,36,46.9,35.5,46.9C35.5,46.9,35.5,46.9,35.5,46.9z M35.1,42.8c1,0.1,2-0.2,3.1-0.3c0.1,0,0.2,0,0.3-0.1
		c1.2-0.5,2.4-1.2,3.2-2.2c0.3-0.4,0.6-0.9,0.8-1.4c0.8-1.6,0.9-2,0.8-3.8c0,0,0-0.1,0-0.1c0-0.4-0.1-0.8-0.3-1.1
		c-0.3-0.5-0.5-0.9-0.8-1.4c-0.2-0.3-0.4-0.6-0.7-0.9c-0.5-0.5-1.1-0.9-1.8-1.3c-0.3-0.2-0.6-0.3-1-0.3c-0.6-0.1-1.2-0.3-1.9-0.3
		c-0.7-0.3-1.4-0.2-2.2-0.2c-0.5,0-1.1,0.1-1.6,0.3c-0.4,0.2-0.8,0.4-1.2,0.5c-0.5,0.1-0.8,0.3-1.1,0.6c-0.2,0.2-0.4,0.3-0.5,0.5
		c-0.8,0.9-1.4,1.9-1.7,3c-0.2,0.8-0.2,1.5-0.5,2.3c0,0.1,0,0.3,0,0.4c0,0.2,0.2,0.5,0.2,0.7c0,0.6,0.3,1.2,0.5,1.8
		c0.1,0.4,0.4,0.8,0.7,1.1c0.8,0.8,1.8,1.3,2.8,1.8c0.1,0.1,0.3,0.1,0.4,0.1C33.4,42.8,34.2,42.8,35.1,42.8z"/>
	<path fill="#F2EADF" d="M50.4,33.9c0-2.1,0.1-4.1,0.1-6.2c0-0.5,0.1-1,0.2-1.5c0-0.1,0.2-0.2,0.3-0.2c0.3,0,0.7,0,1,0
		c0.3,0,0.7,0.1,1,0c0.1,0,0.2,0,0.3,0c0.4,0.1,0.8,0.1,1.2,0.2c0.2,0,0.3,0.1,0.3,0.3c0.2,0.7,0.3,1.4,0.3,2.2
		c-0.1,3.1,0.1,6.1,0,9.2c0,0.4,0,0.8,0,1.2c0,0.5,0.1,1,0.3,1.4c0.2,0.5,0.6,0.8,1.1,0.8c0.3,0,0.6-0.1,0.8-0.4
		c0.1-0.2,0.2-0.3,0.3-0.5c0.2-0.7,0.5-1.4,0.5-2.2c0-0.9,0-1.9,0.1-2.8c0-0.1,0-0.3,0-0.4c0.2-0.6,0.2-1.3,0.2-1.9
		c0.1-0.5,0-1.1,0.2-1.6c0.1-0.3,0.1-0.6,0.1-0.9c0-0.8,0-1.6,0.2-2.4c0.1-0.3,0-0.7,0.1-1c0-0.2,0-0.5,0-0.7c0-0.2,0.3-0.5,0.5-0.5
		c0.2,0,0.4,0,0.6,0c1,0,2,0.2,2.9,0.3c0.2,0,0.4,0.2,0.4,0.4c0.1,0.5,0.2,1.1,0.3,1.6c0,0.6,0,1.3,0,1.9c0,0.1,0,0.3,0,0.4
		c-0.2,0.8-0.1,1.7-0.2,2.5c0,0.2,0,0.4,0,0.6c-0.3,1.1-0.2,2.3-0.2,3.4c0,0.4,0,0.8,0,1.2c0,0.3,0,0.7-0.2,1
		c-0.1,0.1-0.1,0.3-0.1,0.4c0,0.8-0.4,1.4-0.4,2.2c0,0.3-0.2,0.6-0.3,0.8c-0.5,1.1-1.4,2-2.3,2.6c-0.6,0.4-1.3,0.8-2,0.8
		c-0.4,0.1-0.8,0.2-1.1,0c-0.2-0.1-0.4-0.1-0.6-0.1c-0.7,0-1.2-0.3-1.9-0.4c-0.6-0.3-1.3-0.5-1.8-1c-0.5-0.5-1.1-1-1.4-1.7
		c-0.1-0.3-0.3-0.5-0.3-0.8c-0.1-0.5-0.4-1-0.3-1.6c0-0.5,0-1,0-1.5C50.3,37.3,50.3,35.6,50.4,33.9C50.3,33.9,50.4,33.9,50.4,33.9z"
		/>
	<path fill="#F2EADF" d="M14.7,42.7c0-1,0-2,0.2-3c0.1-0.5,0-1,0-1.5c0-0.1,0-0.3-0.1-0.4c-0.6-1.3-0.9-2.7-1.4-4
		c-0.1-0.4-0.2-0.8-0.4-1.2c-0.3-0.6-0.5-1.2-0.6-1.9c-0.1-0.4-0.2-0.9-0.4-1.3c-0.2-0.5-0.2-1.1-0.4-1.6c-0.1-0.3-0.1-0.7-0.1-1.1
		c0-0.2,0.1-0.4,0.3-0.5c0.1-0.1,0.3-0.2,0.4-0.2c0.2,0,0.4,0,0.6,0c0.8,0.2,1.6,0.3,2.4,0.3c0.2,0,0.4,0.1,0.5,0.3
		c0.2,0.3,0.3,0.6,0.4,1c0.2,0.7,0.6,1.3,0.7,2c0.3,0.7,0.5,1.3,0.6,2c0,0.2,0.2,0.3,0.3,0.3c0,0,0.1,0,0.1,0
		c0.4-0.9,0.8-1.9,1.1-2.8c0.2-0.7,0.4-1.5,0.7-2.2c0.1-0.2,0.2-0.3,0.4-0.4c0.2-0.1,0.5-0.2,0.7-0.2c0.7,0,1.3,0,2,0
		c0.4,0,0.7,0.2,1,0.4c0.1,0,0.2,0.3,0.2,0.4c-0.1,0.6-0.4,1.2-0.6,1.7c-0.2,0.4-0.4,0.8-0.5,1.3c-0.2,0.6-0.6,1.1-0.5,1.7
		c-0.2,0.4-0.3,0.9-0.5,1.3c-0.5,1.1-1,2.2-1.4,3.4c0,0.1-0.1,0.3-0.2,0.4c-0.4,0.5-0.4,1.1-0.4,1.8c0,0.6,0,1.1-0.2,1.7
		c-0.1,0.2,0,0.4,0,0.6c0,1,0,2-0.1,3.1c0,0.7-0.2,1.3-0.3,2c0,0.1-0.1,0.2-0.2,0.2c-0.3,0.1-0.6,0.2-0.9,0.3c-0.4,0-0.8,0-1.2-0.1
		c-0.5-0.1-0.9-0.2-1.4-0.1c-0.4,0-0.6-0.2-0.8-0.6c-0.1-0.2-0.2-0.4-0.2-0.6c0-0.5,0-1,0-1.5C14.7,43.2,14.7,42.9,14.7,42.7z"/>
</g>
</svg>
