<?xml version="1.0" encoding="utf-8"?>
<!-- Generator: Adobe Illustrator 18.1.1, SVG Export Plug-In . SVG Version: 6.00 Build 0)  -->
<!DOCTYPE svg PUBLIC "-//W3C//DTD SVG 1.0//EN" "http://www.w3.org/TR/2001/REC-SVG-20010904/DTD/svg10.dtd">
<svg version="1.0" id="Layer_1" xmlns="http://www.w3.org/2000/svg" xmlns:xlink="http://www.w3.org/1999/xlink" x="0px" y="0px"
	 viewBox="0 0 612 792" enable-background="new 0 0 612 792" xml:space="preserve">
<g id="Empty">
	<path fill="#78433F" d="M585.7,779.4c-1.4-3.2-0.7-6.8-1.1-10.1c-0.4-2.2-0.4-4.7-1.8-6.5c-1.1-2.2-1.8-4.3-1.8-6.5
		c0-2.2-0.4-4.7-1.1-6.8c-0.7-2.2-0.4-4.7-1.4-6.5c-1.4-2.2-0.4-5-1.8-7.6c-0.4-0.7-0.4-2.2-0.4-3.2c0.4-4.3-1.8-8.3-2.2-12.6
		c-1.4-2.5-1.1-5.8-2.2-8.3c-0.7-1.8-1.1-3.2-1.1-5c0.4-2.9-1.8-5-1.8-7.6c0-2.2-0.4-4.7-0.4-6.8c-1.4-2.5-0.7-5.8-2.2-8.3
		c-1.4-2.5-0.4-5.8-2.2-8.3c-0.7-2.9-1.4-5.4-1.8-8.3c-0.4-2.9-1.8-5.4-2.5-8.3c-0.4-1.8-1.4-3.6-1.4-5.8c0-1.1-0.7-2.2-1.1-3.2
		c-0.7-3.2-2.5-6.5-2.5-10.1c0-1.1-0.4-2.2-1.1-3.2c-0.4-0.4-0.4-1.1-0.7-1.4c-3.2-7.6-3.2-7.6-5-16.2c0-0.7,0-1.1-0.4-1.8
		c-1.4-2.9-2.9-5.8-3.2-9c-0.4-3.6-2.5-6.1-3.6-9.7c-0.7-2.9-2.5-5.8-4-8.6c-2.9-6.5-5.4-13.3-7.9-19.8c-0.4-0.4-0.4-1.1-0.4-1.8
		c-1.4-2.9-3.2-5.4-4.3-8.3s-2.5-5.8-4.3-8.3c-1.1-1.8-2.2-3.6-2.9-5.4c-3.2-6.8-7.6-13-11.5-19.1c-0.7-1.1-1.8-2.2-2.5-3.6
		c-2.2-4-4.3-7.2-6.8-10.8c-4.3-5.8-8.3-11.9-12.2-17.6c-4-5.4-7.6-11.5-11.5-17.3c-3.2-4.7-6.8-9-10.1-14c-1.4-2.5-3.6-4.7-5.8-6.5
		c-5.4-5-9.7-10.4-14.4-15.8c-5.4-5.8-11.2-10.8-17.3-15.5c-2.2-1.8-4.3-3.6-6.8-5.4c-0.7-0.7-1.8-1.4-2.9-2.2
		c-3.6-1.4-5-4.3-6.5-7.6c-1.4-2.9-2.5-5.8-4.7-8.3c-0.4-0.4-0.4-0.4-0.4-0.7c-1.8-5.8-6.1-9.7-10.4-13.7c-1.1-0.7-1.8-1.8-2.9-2.9
		c-1.1-0.4-2.2-0.7-2.9-1.1c-1.4,0.4-2.9,0.4-4.3,0.4c-1.1,1.1-2.5,2.2-4,2.9c-1.8,2.9-4,5.4-6.8,7.6c-3.2,6.1-8.3,11.5-14,15.5
		c-1.4,1.4-2.9,2.9-4.3,4c-1.8,1.8-4,2.9-6.5,4c-14,18-43.6,14.4-63,9.7c-13.3-3.2-25.9-7.9-38.9-13c-6.1-2.5-12.2-5-18.4-7.6
		c-1.8-0.7-13.3-5.4-6.8-2.9c-1.8-0.7-4-1.8-5.4-2.9h-0.4c-2.2-0.7-4-1.8-6.1-2.5c-2.2-1.1-4.3-2.9-5.8-4.7
		c-1.4-1.4-2.5-2.9-3.6-4.3c-0.7-0.4-1.8-0.7-2.5-1.4c-0.7,0-1.8,0-2.5,0c-0.7,0.7-1.4,1.8-2.2,2.5c-0.7,1.4-1.4,2.9-2.5,4.3
		c-3.6,4-5.4,8.6-8.6,13c-1.4,3.6-4,7.2-4.3,11.2c0,0.7-0.4,1.1-0.4,1.8c-1.4,3.2-1.1,6.1,0,9.4c0.4,0.4,0.4,1.1,0.7,1.4
		c0.4,1.4,0.4,2.9-1.1,4c-3.6,2.2-6.8,5.4-9.7,8.3c-3.2,3.2-6.5,6.5-10.1,9.7c-1.8,1.8-4,3.2-6.1,4.7c-2.2,1.8-3.6,3.6-6.1,4.7
		c-0.4,0.4-1.1,0.7-1.4,1.1c-4,4-8.6,6.8-12.2,10.8c-4,4-7.9,7.6-11.5,11.5c-2.2,2.2-4.3,4.3-6.8,6.8c-7.9,7.9-15.8,15.8-23.8,23.8
		c-0.7,0.7-1.1,1.1-1.8,1.8c-0.4,0.4-0.7,0.7-1.1,1.4c-1.4,3.2-4.3,5.4-6.1,8.3s-4,5.8-5.8,8.6c-1.4,2.5-3.2,4.7-5,6.8
		c-1.1,1.1-2.2,2.9-2.9,4.3c-2.9,4.7-6.1,9-9,13.7c-1.8,3.2-5,5.8-6.1,9.4c-0.7,3.2-2.5,6.5-4.3,9.4c-1.4,3.2-2.9,6.1-4.7,9.4
		c-1.8,3.2-2.9,7.9-4.3,13c-0.7,2.9-1.1,5.4-1.4,8.3c-0.4,1.8-1.1,3.2-1.1,5c-0.4,1.8-0.4,3.6-0.4,5c0.4,2.9-1.4,5-1.8,7.6
		c0,2.5-0.4,5-0.7,7.6c-1.4,2.2-1.1,4.3-1.1,6.8c-0.4,4,0,7.9-1.4,11.9c0,2.5-0.4,5-0.4,7.9c0,5-0.4,9.7-0.4,14.8
		c0,0.7,0,1.8-0.4,2.5c-1.1,2.2-1.1,4.3-1.1,6.8c0,11.9,0,23.8,0,35.3c0,4.3,0,8.6,0,13c0,0.7,0,1.8,0.4,2.5
		c1.8,3.6,1.1,7.2,1.4,11.2c0.4,3.6-0.4,7.6,1.4,11.2c0,2.2,0.4,4.7,0.4,6.8c0,2.2,0,4.7,1.1,6.8c0.7,1.1,0.4,2.9,0.4,4.3
		c0,1.8,0,3.6,0.4,5c0.4,1.4,1.1,2.9,2.5,3.2c3.2,0.7,5.8,2.5,9.4,2.2c0.7,0,1.1,0,1.8,0c3.6,1.8,7.9,1.4,11.9,1.8
		c2.9,0,5.8,0,8.6,1.1c0.7,0.4,1.8,0,2.5,0c3.6,0.4,7.6,0,11.2,1.4c0.7,0.4,1.8,0,2.5,0.4c8.3,0,16.6,0.7,25.2,0
		c2.2,0,4.7,0.4,6.8-1.1c0.4-0.4,1.1-0.4,1.8-0.4c6.5,0.4,12.6-0.7,19.1-0.4c12.2,0,24.1,0.4,36.4,0c4,0,7.9,0.4,12.2,0.4
		c0.7,0,1.1,0,1.8,0.4c3.2,1.8,6.8,1.1,10.1,1.1c13.3,0,26.6,0,39.6,0c5.4,0,10.8,0,16.6-0.4c1.1,0,2.2-0.4,3.2-0.7
		c2.2-0.7,4-0.7,5.8,0c3.2,1.1,6.8,1.1,10.1,0c3.2-1.1,6.1-1.1,9.4,0c1.8,0.7,3.2,0.7,5,0.4c6.5-1.4,9-1.4,16.2,0
		c2.2,0.4,4,0.4,5.8-0.4c1.8-0.7,3.2-0.7,5,0c0.7,0.4,1.8,0.7,2.5,0.7c4.7,0,9.4,0,13.7,0c0.7,0,1.1,0,1.8,0c4-1.8,8.6-1.1,12.6-1.4
		c5.8-0.4,11.5,0,17.3,0c0.7,0,1.1,0,1.8,0c2.5,0.4,5-1.8,7.6-1.1c2.2,0.7,4.3,1.1,6.8,1.1c2.5,0,5,0,7.9,0.4c2.2,0,4.7,0,6.8,0.4
		c0.7,0,1.8,0,2.5,0c5.8,2.2,11.9,0.7,18,1.1c1.1,0,2.2-0.4,3.2-0.7c0.7-0.4,1.8-0.4,2.5-0.4c1.4,0,2.9,0.7,4.3,1.1
		c1.1,0,2.2-0.7,3.2-0.4c1.1,0.4,2.2,0.4,3.2,0.7c2.2,0,4,0,6.1,0s4.7-0.4,6.8-0.4c1.8-1.1,4,0.7,5.8-0.7c1.4,0,2.9-0.4,4.3-0.4
		c6.5,0,13.3,0,19.8,0c3.6,0,6.8,0,10.1,1.1c3.2,1.1,6.8,0.7,10.1,0c5.4-1.1,10.8-1.1,16.2-1.1c1.1,0,2.2,0.4,3.2,0.7
		c1.4,0.7,2.9,0.7,4,0c0.4,0,0.4-0.4,0.7-0.4c4.3,0,8.6,0,13,0c3.6,1.8,7.2,1.1,11.2,1.1c2.5,0,5,0,7.9,0c2.2,0,4,0,5.8-1.1
		c0.7-0.4,1.8,0,2.5,0.4c0.7,0,1.8,0.7,2.5,0.4c2.5-1.1,5-1.1,7.6-1.1c5,0,9.7-0.4,14.8-0.4c0.7,0,1.8-0.4,2.5-0.4
		c1.1-0.4,2.2-1.4,2.2-2.5c0.4-2.5,0.4-5,1.4-7.6C586.1,780.8,586.1,779.8,585.7,779.4z"/>
	<path fill="#F8C7BC" d="M185.4,442.4c2.2,1.8,4.3,3.6,7.2,4.3c5.8,4,13,6.5,18.7,10.8c0.4,0.4,1.1,0.7,1.4,0.7
		c1.8,0.4,3.2,1.4,4.7,2.5c0.7,0.7,1.8,1.4,3.2,1.4c1.1,0,2.2,0.7,2.9,1.4c1.1,1.1,2.2,2.2,3.2,2.9c5,2.5,9.7,6.1,15.1,8.6
		c8.3,3.6,15.8,8.3,23.4,13c2.9,1.8,5.4,3.2,8.3,4.7c1.1,0.7,2.5,1.1,4,1.8c1.4,0.7,3.2,1.1,5,1.8c2.5,1.1,5,0.4,7.6,1.8
		c3.2,0.4,6.8,1.1,10.1-0.7c0.7-0.4,1.8-0.4,2.5-0.7c0.7-0.4,1.8-0.7,2.2-1.1c3.2-2.5,6.1-5,6.8-9.4c1.8-3.2,3.2-6.8,3.6-10.4
		c0.4-1.8,1.4-3.6,2.2-5.8c0-0.4,0.4-0.4,0.7-0.4c0.7-0.4,1.1-0.4,1.4,0.4c2.2,3.6,3.2,7.2,4.7,11.2c1.4,4.3,3.2,8.6,4.3,13
		c1.4,4.7,3.2,9,4,14c1.4,2.2,1.4,5,1.4,7.6c0,0.7,0,1.8,0.4,2.5c2.2,3.6,0.7,7.9,2.9,11.5c0,3.6,1.4,7.2,2.2,11.2
		c0.4,1.8,1.1,4,1.4,5.8c0.4,2.5,1.1,5,1.4,7.6c0.7,2.9,0.4,5.8,0.7,8.6c0,0.7,0.4,1.1,0.4,1.8c0.7,1.4,0.7,3.2,0.7,5
		c0,2.2,0.4,4,0,6.1c-0.4,2.5,1.1,4.3,1.4,6.8c0.4,2.5,0.4,5,0.4,7.9c0,1.1,0,2.5,0.4,3.2c1.1,2.2,1.1,4.3,1.1,6.8
		c0,1.8,0,3.6,0.4,5c1.1,2.5,1.1,5,1.1,7.6c0,2.2,0.4,4,0.4,6.1c1.4,2.5,1.1,5,1.1,7.6c0.4,2.9,0,5.8,0.4,8.6c0,1.1,0,2.5,0.4,3.2
		c0.7,2.2,0.7,4.7,1.1,6.8c0,4,0.4,7.9,0.4,12.2c0,1.4,0,2.9,0.7,4.3c0.4,1.1,0.4,2.2,0.4,3.2c0.4,6.5,0.4,12.6,0.4,19.1
		c0.4,8.3-1.1,16.6,1.1,24.8c0.4,0.7,0,1.8,0,2.5c0,1.8,0,3.6,0,5c0,2.2,0,4-0.7,5.8c-0.4,0.7-0.4,1.8-0.4,2.5
		c0,4.7-0.4,9.4-0.4,13.7c0,8.6,0,17.3,0,25.9c0,0.7,0,1.8,0,2.5c-1.4,2.9-1.1,6.1-1.4,9.4c0,3.2-1.1,6.1-1.8,9.4
		c0,0.7-1.1,1.4-1.8,1.4c-2.2,0-4.7,0.4-6.8,0.4c-2.5,0-4.3,1.8-6.8,1.4c-0.7,0-1.8,0-2.5,0c-2.2,0-4.7,0-6.8,0
		c-8.6,0-17.3,0-25.9,0c-1.8,0-3.6,0-5,0.7c-0.7,0.4-1.8,0.4-2.5,0c-1.4-0.7-2.9-0.7-4.3-0.7c-13,0-25.9,0-38.9,0
		c-20.5,0-41,0-61.2-0.4c-1.1,0-2.5,0-3.6-0.4c-3.2-1.4-6.8-1.1-10.1-1.1c-3.6,0-7.6,0-11.2,0c-1.1,0-2.2,0-3.6,0
		c-1.4,0-2.2-0.7-2.2-2.2c0-4-0.4-7.9-0.4-12.2c0-1.1,0.4-2.5-0.4-3.6c-1.4-3.2-1.1-6.8-1.4-10.1c0-1.4,0-2.9-0.7-4.3
		c-0.7-2.2-1.1-4.3-1.1-6.8c0-1.8-0.4-3.6-1.1-5c-0.4-0.4-0.4-1.1-0.4-1.8c0-2.2-0.4-4.7-0.4-6.8c0-2.5-1.4-5-1.4-7.6
		c0-0.4,0-0.7,0-0.7c-0.4-4,0-7.9-1.8-11.9c0-3.6-1.4-6.8-1.8-10.1c-0.4-2.2-1.8-3.6-1.8-5.8c0-2.5-1.4-5-1.8-7.6
		c0-2.9-1.4-5.4-2.2-8.3c-0.4-1.8-1.4-3.6-1.4-5.8c0-4.3-1.4-8.3-2.5-12.6c-1.4-5-3.2-10.4-5-15.5c-1.8-5.4-3.6-10.8-5.8-16.2
		c-0.7-2.5-1.4-5-2.5-7.2c-4-7.9-7.9-15.8-11.9-23.8c-1.8-3.6-4.3-6.8-6.5-10.1c-0.4-0.4-0.7-0.7-1.4-1.1c-0.4-0.4-1.1-0.4-1.4,0
		c-0.7,0-0.7,0.7-0.7,1.4c0,1.4,1.4,2.5,1.8,4c2.9,2.9,4.3,6.8,6.1,10.4c1.8,4,4,7.6,5.4,11.5c1.4,4.3,4.3,8.3,5.8,12.6
		c0.4,0.4,0.7,1.1,0.7,1.4c0.4,0.7,0.7,1.8,0.7,2.5c0,2.5,1.1,4.3,2.2,6.5c2.5,5,3.6,10.8,6.1,15.8c0.4,2.5,0.4,5,1.8,7.6
		c0,2.5,1.4,5,1.8,7.6c0.4,2.9,1.8,5.4,1.8,8.3c0,2.5,1.8,4.7,2.2,7.6c0,1.8,1.4,4,1.4,5.8c0.4,2.2,1.1,4,1.4,5.8
		c0.7,3.2,2.2,6.5,2.2,10.1c0,1.4,0.4,2.9,1.1,4.3c0.4,0.7,0.4,1.8,0.7,2.5c0.4,3.6,0,7.6,1.8,11.2c0,2.5,0.4,5,0.4,7.9
		c0,1.8,0,3.6,0.7,5c0.7,1.8,0.7,3.2,1.1,5c0.4,3.2,0.7,6.1,1.4,9.4c0.7,3.2,0.7,6.8,0.7,10.4c0,0.4,0,0.7,0,0.7
		c1.1,2.2,1.1,4.3,1.1,6.8c0,3.6,0,6.8,1.4,10.1c0,0.4,0,0.7,0,0.7c0,0.7-0.4,1.8-1.1,2.2c-1.8,1.1-3.6,1.8-5.8,1.8
		c-6.1,0-12.2,0-18,0c-5.4,0.4-10.8-0.7-16.2,1.4c-0.7,0.4-1.8,0.4-2.5,0.4c-7.6,0-15.1,0.4-22.3,0c-2.2,0-4.7,0-6.8-0.7
		c-2.5-0.7-5-0.7-7.6-1.1c-1.4,0-2.9-0.4-4.3-0.4c-2.5,0-5-1.4-7.6-1.4c-2.5,0.4-5,0-7.9-0.4c-2.5,0-5,0-7.6-1.4
		c-1.1-0.4-2.2-0.4-3.2-0.4c-1.1,0-2.2-0.4-3.2-0.4c-1.1-0.4-2.2-1.1-2.5-2.2c-0.7-2.9-1.4-5.8-2.2-8.3c-0.7-1.8-1.1-4-1.4-5.8
		c0-2.2,0-4.7-0.7-6.8c-0.4-1.8-0.7-3.2-0.7-5c0-3.6-0.4-7.6-0.4-11.2c0-1.4,0-2.9-0.4-4.3c-0.7-1.8-0.7-4-0.7-5.8
		c0-3.6,0-7.6,0-11.2c0-12.6,0-25.2,0-38.2c0-1.1,0-2.5,0.4-3.2c1.1-2.9,1.1-5.8,1.1-8.6c0-3.6,0-7.6,0.4-11.2c0-1.1,0-2.5,0.4-3.2
		c1.1-2.2,1.1-4.3,1.1-6.8c0-2.2,0-4,0.4-6.1c1.8-3.6,1.4-7.2,1.4-11.2c0-1.1,0-2.5,0.4-3.2c1.1-2.2,1.1-4.3,1.1-6.8
		c0-1.4,0-2.9,0.4-4.3c0.7-2.2,1.4-4.3,1.4-6.8c0-2.5,1.4-4.3,1.8-6.5c0.4-3.2,2.5-9.4,3.6-11.5c2.2-4,4.7-7.9,5.8-12.6
		c2.5-2.5,2.9-6.1,4.7-9.4c1.1-2.2,2.2-4,3.2-6.1c4.3-6.8,8.6-13.3,14-19.4c2.2-4,5.4-7.2,7.9-11.2c7.6-11.5,7.6-11.5,17.3-21.2
		c1.8-1.8,3.2-3.2,5-5c8.3-8.3,16.2-16.2,24.5-24.5c6.5-6.8,14-12.6,21.2-19.1c0.4-0.4,1.1-0.7,1.4-1.1c2.2-0.7,4-2.5,5.4-4.3
		c1.4-1.4,2.9-2.9,4.3-4c2.5-1.4,4.3-3.6,6.5-5.8c4.3-4.7,9-8.6,14.8-11.9C181.8,439.9,183.6,441,185.4,442.4z M76.7,567.4
		c0.4,0.4,0.4,1.1,0.7,1.4c3.6,2.2,6.8,5,9.7,8.3c0.7,0.7,2.2,0.7,3.2,0.7c0.4,0,0.4-0.4,0.7-0.4c0,0,0-0.4,0-0.7
		c0-0.4-0.4-0.4-0.4-0.7c-3.6-3.6-7.9-6.5-11.9-9.7c-0.4-0.4-2.2,0-2.2,0.7C76.7,566.6,76.7,567,76.7,567.4z"/>
	<path fill="#F8C7BC" d="M441.4,788.4c-12.2,0-24.8,0-37.1,0c-4.7,0-9.4,0-13.7-0.4c-0.7,0-1.8-0.4-2.5-0.4c-0.7,0-2.2-1.8-2.2-2.5
		c0-0.7,0-1.1,0-1.8c0-15.1,0-29.9-0.4-45c0-2.9,0.4-5.8-1.1-8.6c-0.4-0.7,0-1.8,0.4-2.5c0.4-1.1,0.7-2.2,0-3.2
		c-0.7-1.4-0.7-3.2-0.4-5c1.1-3.6,1.4-7.2,0-11.2c-0.7-2.2-0.7-4.7,0-6.8c1.4-3.6,0.7-7.2,0.4-11.2c-1.1-2.2-1.1-4.3-1.1-6.8
		c0-7.6,0-15.1-0.4-22.3c0-1.8,0-3.6-0.4-5c-1.1-2.9-0.7-5.8-1.1-8.6c-0.4-3.6-0.4-6.8-0.4-10.4c-1.8-3.2-1.1-6.8-1.4-10.1
		c0-2.2-0.4-4.7-0.4-6.8c0-2.2-0.4-4.7-1.1-6.8c-0.7-2.2,0-4.7-0.7-6.8c-1.1-3.2-1.1-6.8-1.4-10.1c0-0.7,0-1.8-0.4-2.5
		c-1.4-2.9-1.1-6.1-1.4-9.4c0-1.4-0.4-2.9-0.7-4.3c-0.4-1.4-0.7-2.9-1.1-4.3c0-1.8-1.8-3.2-0.7-5c-1.1-2.5-0.7-5.8-1.4-8.3
		c-1.1-3.2-1.1-6.1-1.4-9.4c0-0.7,0-1.1-0.4-1.8c-1.1-2.2-1.1-4.3-1.1-6.8c0-2.5,0-5-1.4-7.6c0-2.9-1.4-5.4-1.8-8.3
		c-0.4-2.2-0.4-4.7-1.4-6.8c-1.1-2.2-0.4-4.7-1.8-6.5c-0.7-5.4-3.2-10.4-4.3-15.5c-1.8-2.5-1.1-6.1-2.5-9c-1.4-2.5-1.4-5.4-2.9-7.9
		c-1.1-2.5-1.4-5-2.5-7.2c-1.4-2.5-2.2-5.4-2.9-7.9c-1.1-4-2.9-7.6-4.7-11.2c-2.5-4.7-4.7-9.7-7.9-14.4c-0.7-1.1-0.4-2.9,0.7-4
		c0.7-0.7,1.8-1.1,2.2-0.7c4.7,3.6,9,8.3,12.2,13c3.6,5,6.5,10.1,10.1,14.8c1.4,2.9,4,4.7,6.5,6.5c1.4,1.1,3.2,1.8,4.7,1.8
		s3.2-0.4,5-1.1c3.2-1.4,6.1-2.9,7.9-6.1c0.7-1.1,1.4-1.8,2.2-2.5c1.1-0.7,2.2-1.8,2.9-2.9c1.8-2.5,3.6-5,5-7.9
		c0.7-1.8,1.8-3.6,2.9-5.4c4.7-6.8,8.3-14.4,11.5-22c0.7-1.4,1.4-2.5,1.8-4c0.4-0.4,1.8-0.7,2.2-0.4c0.4,0.4,1.1,0.7,1.4,1.1
		c4,2.5,7.2,5.8,10.8,8.6c2.5,1.8,4.7,3.6,6.5,5.4c6.5,6.5,13.3,13,19.8,19.4c2.5,2.5,5,5.4,6.8,8.6c1.8,2.9,3.6,5.8,6.1,8.3
		c0.7,0.7,1.4,1.1,1.8,1.8c2.9,4.7,6.5,9,9.4,13.3c1.8,2.5,3.2,5.4,5.4,7.9c2.9,3.2,4.7,7.2,7.6,10.4c2.9,3.2,5,7.2,7.2,10.8
		c1.4,2.5,3.2,4.7,4.7,7.2c0.7,1.1,1.1,2.2,1.8,2.9c3.2,3.2,5,7.2,6.8,10.8c2.5,5.4,5.4,10.1,8.6,14.8c0.7,1.1,1.4,1.8,1.8,2.9
		c0.7,2.9,2.2,5.4,3.6,7.6c2.2,2.9,3.6,5.8,4.7,9c0.7,2.5,2.2,4.7,2.9,7.2c0.7,2.5,1.4,5,2.5,7.2c0.7,2.2,1.4,4.3,2.5,6.5
		c2.2,4,4.3,7.9,4.7,13c0,0.4,0.4,1.1,0.7,1.4c1.8,5.4,4,10.8,5.4,16.2c0.7,3.2,1.8,6.5,3.2,9.7c1.4,2.9,2.5,5.8,2.5,9
		c0,1.1,0.7,2.2,1.1,3.2c0.7,3.2,2.2,5.8,2.2,9c0,0.7,0.4,1.8,0.7,2.5c1.1,2.5,2.2,5.4,3.2,7.9c0.4,1.1,1.1,2.2,1.1,3.2
		c0,2.5,1.1,4.3,1.8,6.5c1.8,5,1.8,5,1.8,10.1c0,2.9,0,5.8,1.4,8.3c0.4,3.2,2.2,6.5,1.8,10.1c0,0.7,0,1.8,0.4,2.5
		c1.1,2.2,1.1,4.3,1.4,6.5c0.4,2.2,1.1,4.3,2.2,6.5c0.7,1.8,1.1,3.2,1.1,5c0,2.2,0,4.7,0,6.8c0,2.2,0.4,4.3,1.4,6.5
		c1.4,3.2,2.2,6.5,2.2,10.1c0,1.8,0,3.6,0.4,5c1.1,2.5,1.4,5,1.4,7.6c0,2.2,0.7,4,1.4,5.8c1.4,2.2,1.8,4.7,1.8,7.6
		c0,3.2-0.4,6.5-0.4,9.4c0,0.7-0.7,1.8-1.4,1.8c-2.5,0.4-5,1.4-7.6,1.4c-6.5,0.4-13.3,0.4-19.8,0.7c-0.7,0-1.8,0-2.5-0.4
		c-0.4,0-1.1-0.7-1.1-1.1c-1.1-2.5-2.2-5.4-1.1-8.3c0.4-0.7,0.7-1.4,0.4-2.5c-1.1-1.8-0.7-4-0.7-6.1c0-3.6-0.4-7.6-0.4-11.2
		c-1.4-3.2-1.1-6.8-1.4-10.1c0-0.7,0-1.8-0.4-2.5c-1.4-2.9-1.1-6.1-1.4-9.4c0-2.2,0-4.7-1.1-6.8c-0.4-0.7-0.4-1.8-0.4-2.5
		c0-4.3,0-8.6-1.8-12.6c0-4.3-2.5-8.3-2.2-12.6c0-1.1-0.7-2.2-1.1-3.2c-1.1-3.6-2.2-7.2-2.9-10.8c-1.8-3.6-1.4-7.9-2.5-11.5
		c-0.7-1.8-0.4-4-0.7-6.1c-0.4-1.8-1.4-3.6-1.4-5.8c0-2.9-1.8-5.4-2.2-8.3c0-1.1-0.7-2.2-1.1-3.2c-3.2-8.3-5.8-16.9-8.6-25.2
		c-1.1-3.2-1.8-6.5-3.2-9.7c0-4-2.2-7.2-3.6-10.4c0-0.4,0-0.7,0-0.7c-1.1-3.2-2.2-6.5-3.6-9.7c-0.7-1.8-1.4-3.6-1.8-5.8
		c-0.4-2.5-1.1-5-2.2-7.2c-1.8-3.2-2.2-7.2-4-10.4c0-2.2-1.1-4-2.2-5.8c-1.1-2.2-1.8-4.3-2.5-6.5c-1.1-2.5-1.4-5.8-3.6-7.9
		c-0.4-0.4-0.7-1.1-0.7-1.4c-0.7-3.6-2.9-6.8-4.3-10.1c-1.1-2.5-2.5-5-3.6-7.6c-0.7-1.8-1.1-4-1.8-5.8c-0.7-1.8-1.1-4-2.5-5.4
		c-1.4-1.4-1.1-4-2.5-5.4c-0.4-0.4-0.4-0.4-0.7-0.7c-0.4,0-0.7-0.4-0.7-0.4c-0.4,0.4-0.7,0.7-0.7,1.1c-0.4,1.4-0.4,3.2,0.7,4
		c2.5,2.5,2.9,6.1,4.3,9.4c0.7,1.4,1.1,3.2,1.8,4.7c2.5,5,5,9.7,6.5,14.8c0.4,0.7,0.7,1.8,1.1,2.5c1.4,2.9,3.2,5.4,3.2,8.6
		c0,0.7,0.7,1.4,1.1,2.5c1.8,3.6,3.2,7.2,4.3,11.2c0.7,2.9,1.8,5.4,3.2,7.9c0.7,1.8,1.4,3.6,1.8,5.8c0.4,2.9,1.4,5.4,1.8,8.3
		c1.8,3.2,2.9,6.8,4.3,10.4c0.7,1.8,1.8,3.6,2.2,5.4s1.1,3.2,1.4,5c0.7,1.8,1.4,3.6,1.8,5.8c0.4,2.5,1.8,4.7,2.2,7.6
		c0.4,1.4,1.4,2.5,2.2,3.6c0.4,0.7,0.7,1.4,0.7,2.5c0.4,2.2,1.1,4,1.4,5.8c0.7,1.8,1.4,3.2,1.8,4.7c0.7,1.8,1.4,4,1.8,5.8
		c0.4,2.5,1.4,5,2.2,7.6c1.1,2.9,2.2,6.1,1.8,9.4c0,1.4,0.4,2.9,1.1,4.3c0.7,1.4,1.1,2.9,0.7,4.3c-0.4,3.6,1.1,6.8,2.2,10.1
		c0.4,1.8,1.4,3.6,1.8,5.8c0.7,3.2,1.8,6.1,1.8,9.4c1.1,2.5,1.4,5.4,1.8,8.3c0,0.7,0.4,1.1,0.4,1.8c0.7,1.4,1.1,2.9,1.1,4.3
		c0,2.5,0.7,5,2.2,7.2c1.1,1.8,1.4,3.6,1.4,5.8c0,2.2,0,4.7,0,6.8c0,1.1,0,2.5,0.4,3.2c1.1,2.5,1.4,5,1.1,7.6
		c0,3.6-0.4,6.8,1.4,10.1c0.4,0.7,0.4,1.8,0.4,2.5c0,2.9,0.4,5.8,0,8.6c0,4.3-0.4,8.6-0.4,13c0,1.8-2.2,3.6-4,3.6
		c-6.5,0-13.3,0-19.8,0c-2.2,0-4,0-5.8-1.1c-1.4-0.7-2.9-0.7-4.3-0.7c-4.7,0-9.4-0.4-13.7,1.4c-0.7,0.4-1.8,0.4-2.5,0.4
		c-4.7,0-9.4,0-13.7,0C466.2,788.4,454,788.4,441.4,788.4L441.4,788.4z M463.3,496.8c0.4-1.8,0.4-3.6-0.7-5c-2.5-4-4.3-7.9-6.8-11.9
		c-0.4-0.4-0.7-0.7-1.4-0.7s-1.4,1.1-1.4,1.8c0,0.7,0,1.1,0.4,1.8c0.4,1.1,1.1,2.2,1.4,3.2c1.8,2.5,3.2,5.4,4.3,8.3
		c0.4,1.4,1.4,2.5,2.9,3.2c0.4,0,0.4,0,0.7,0C463,497.2,463.3,497.2,463.3,496.8z"/>
	<path fill="#F8C7BC" d="M198.7,398.5c5,5.4,11.2,9,17.6,12.2c9,4.3,18,8.6,27,13.3c2.5,1.4,5.4,1.8,7.9,2.9c4-0.4,7.9,2.2,11.9,1.8
		c0.7,0,1.8,0,2.5,0.7c2.2,1.1,4.7,0.7,6.5,1.8c2.2,1.1,4.3,1.1,6.8,1.1c0.7,0,1.8,0.4,2.5,0.7c1.8,1.1,4,1.1,5.8,1.1s3.6,0.4,5,0.4
		c3.6,1.8,7.2,1.4,11.2,1.4c1.1,0,2.5,0,3.2,0.4c1.8,0.7,4,1.1,5.8,1.1c2.2,0,4,1.1,5.8,1.8c0.7,0.4,1.4,1.4,1.1,2.2
		c-1.1,2.2-2.5,4.7-2.9,7.2c-0.4,2.9-2.2,5.4-1.8,8.3c0.4,4-1.1,7.2-2.2,10.8c-0.4,1.4-1.1,2.5-1.4,4c-1.4,6.1-4,11.9-6.8,17.3
		c-0.4,0.7-1.1,1.1-1.8,1.8c-2.2,1.1-4,2.2-6.5,1.8c-2.9,0-5.8,0-8.6-0.7s-5.4-1.4-8.3-2.9c-5-2.5-10.4-4.7-15.5-7.9
		c-4.3-2.9-9-5-13.7-7.6c-4.7-2.5-9-4.7-13.7-7.6c-6.1-3.6-12.2-7.6-18.7-10.4c-0.7-0.4-1.4-0.7-2.2-1.4c-2.5-2.2-5.4-3.2-7.9-5
		s-5.4-2.9-8.3-4.3c-2.9-1.4-5.4-2.9-8.3-4.3c-4.3-2.2-7.6-5.4-10.4-9c-0.4-0.4-0.7-1.1-0.7-1.4c-0.4-3.6-0.7-7.2,0.7-11.2
		c1.8-6.1,5-11.5,8.6-16.6c1.8-2.5,4-5,6.5-6.5C197.3,396.7,198,397.8,198.7,398.5z M295.2,488.5c4-2.2,5.4-5.8,4-10.1
		c-0.4-1.4-1.8-2.5-3.2-2.5c-1.8-0.4-3.6,0-5-0.4c-3.6,0-7.6,2.9-6.8,7.9c0,1.1,0.7,2.2,1.4,3.2c1.4,1.8,3.2,3.2,5.8,2.9
		C292.3,489.2,293.8,489.2,295.2,488.5z"/>
	<path fill="#F8C7BC" d="M331.9,490.3c-0.7-2.9-1.4-5.4-2.9-7.9c-2.5-5.4-3.6-11.5-5.4-16.9c-0.4-0.7,0-1.1,0.7-1.4
		c0.7-0.4,1.8-0.4,2.5-0.7c2.5-0.7,4-2.5,4.7-4.7c1.1-3.2-0.7-7.6-4-9.7c-1.4-0.7-3.2-0.7-4.7-2.2c-0.4-0.7-0.7-1.8-0.4-2.2
		c1.8-2.2,4-2.5,5.8-1.1c2.9,2.2,5,4.7,6.5,7.9c1.1,2.5,2.5,5,4,7.6c2.2,4,3.6,7.9,5,11.9c0.7,2.9,1.8,5.4,2.9,7.9
		c0.4,1.1,0.7,2.2,1.1,3.2c0.4,1.1,0.4,2.2,0.7,3.2c1.1,3.6,2.5,6.8,3.6,10.4c1.1,3.6,2.2,7.2,3.2,10.4c0.7,1.8,1.1,4,1.8,5.8
		c0.7,2.2,0.7,4.3,1.4,6.8c0.7,1.8,0.7,4,1.1,5.8c0.4,2.2,1.8,4.3,1.4,6.8c0,1.1,0,2.5,0.7,3.2c0.7,1.8,1.1,4,1.1,5.8
		c0,1.4,0.7,2.9,1.1,4.3c1.1,2.5,0.7,5.8,2.2,8.3c0,2.9,0.4,5.8,0.4,8.6c0,0.7,0,1.8,0,2.5s0,1.1,0.4,1.8c1.1,1.8,1.1,4,1.1,5.8
		c0,1.4,0,2.9,0.7,4.3c1.1,2.2,1.1,4.3,1.1,6.8c0,2.5,1.4,4.3,1.4,6.8c0.4,2.5,0,5.4,1.4,7.6c0.4,3.2,0.4,6.1,0.7,9.4
		c1.4,2.9,1.4,6.1,1.4,9.4c0,1.8,0,3.6,0,5c0,1.1,0,2.5,0.4,3.2c1.1,2.5,1.1,5,1.1,7.6s0.4,5,0.4,7.9c1.4,2.5,1.1,5.8,1.1,8.3
		c0.4,4.3,0.4,8.6,0.4,13c0,1.1,0,2.5,0.4,3.2c1.1,2.2,0.7,4.7,0.7,6.8c0,3.6,0,6.8,0,10.4c0,11.9,0.4,23.8,0.4,35.3
		c0,5,0.4,9.7-0.4,14.8c0,0.7,0,1.1,0,1.8c0.7,2.2,0.4,4.7,0.4,6.8c0,6.8,0,13.7,0,20.9c0,1.8,0,3.6,0.7,5c0.4,0.7,0.4,1.8,0,2.5
		c-0.7,1.4-0.7,2.9-0.7,4.3c0,3.6,0,6.8-0.4,10.4c0,0.7-2.2,2.9-2.9,2.9s-1.8,0-2.5,0c-5,0-9.7,0-14.8-0.4c-2.2,0-3.6-1.8-3.6-4
		c0-1.1,0-2.5,0.4-3.2c1.1-2.5,1.1-5,1.1-7.6c0-3.6,0-6.8,0.4-10.4c0.4-3.2-0.4-6.8,1.1-10.1c0.4-0.4,0-1.1,0-1.8
		c-0.7-1.8-0.7-3.2-0.7-5c0-3.2,0-6.5,0-9.4c0-3.2-0.4-6.5,1.1-9.4c0-0.4-0.4-1.1-0.4-1.4c-0.4-1.1-0.7-2.5,0-3.2
		c1.1-2.2,1.1-4.3,1.1-6.8c0-4,0-7.9,0-12.2c0-1.8,0.4-3.6-0.4-5c-0.7-1.8-0.4-3.2,0-5c-1.4-3.6-1.1-7.2-1.1-11.2
		c-0.4-9.7-0.4-19.4-0.4-29.5c0-1.1,0-2.5-0.4-3.2c-1.1-2.9-1.1-6.1-1.1-9.4c0-2.9,0-5.8-1.1-8.3c-0.4-1.1-0.4-2.2-0.4-3.2
		c0-2.9-0.4-5.8-0.4-8.6c0-1.4-0.4-2.9-0.7-4.3c-0.4-1.1-0.4-2.2-0.7-3.2c-0.4-4-0.4-7.9-1.4-11.9c-0.7-2.2-0.4-4.7-0.7-6.8
		c-0.4-2.5-1.1-5-1.4-7.6c-0.4-3.2-0.4-6.5-0.4-9.4c0-1.1,0-2.2-0.4-3.2c-1.1-2.9-0.7-5.8-0.7-8.6c0-1.8,1.1-2.5,2.9-1.4
		c2.2,1.1,4.3,1.1,6.8,0.7c2.5-0.4,4-2.2,5.4-4c0-0.4,0.4-0.4,0.4-0.7c0.7-4.3-0.4-7.9-3.2-11.2c-0.4-0.7-1.4-1.1-2.2-1.1
		c-2.5-0.4-5-0.7-7.6,1.1c-1.1,0.7-2.5,1.4-3.6,2.2c-1.4-0.7-2.2-2.2-2.2-3.6c-0.4-2.2-0.4-4-0.7-5.8c-0.4-1.8-1.1-3.2-1.1-5
		s-0.7-3.2-1.1-5c-1.1-2.5-1.1-5.8-1.8-8.3c-0.7-2.2-0.4-4.7-0.4-6.8c0-0.7,0.7-1.4,1.4-1.8c0.7-0.4,1.4-0.7,2.5-1.1
		c0.7-0.4,1.1,0,1.8-0.4c2.5-1.4,4.7-3.6,6.1-6.1c0.4-0.4,0.4-1.1,0.4-1.8c-0.7-4-2.2-7.6-6.5-7.9c-1.4,0-2.9-0.7-3.6-1.1
		c-2.2,1.1-4,1.8-6.1,2.5C333.7,493.9,332.6,492.1,331.9,490.3z M361.8,669.6c0.4,0.4,0.7,0.7,1.4,0.7c2.2,0.7,4.7,0.4,6.8,0
		c2.5-0.4,5-3.6,5.4-6.1c0-0.7,0-1.1,0-1.8c0-2.2-0.7-4-2.2-5.4c-1.4-1.4-2.9-2.5-5-2.5c-0.7,0-1.8,0-2.5,0c-2.5,0.4-4.3,1.8-5.4,4
		c-0.4,1.1-0.4,2.2-0.7,3.2C359.3,665.3,360.7,667.4,361.8,669.6z M356.4,611.6c0.4,0.7,0.7,1.4,1.1,2.2c1.4,2.2,4,3.2,6.1,4.3
		c0.4,0.4,1.1,0.4,1.8,0c1.4-0.7,3.2-1.4,4.7-2.2c1.1-0.7,1.8-1.4,1.8-2.9c0-0.7,0-1.8,0-2.5c0-5.4-4-9-9.4-9.4
		c-1.4,0-2.9,0.4-4,1.4c-1.8,1.4-2.9,3.6-2.9,5C356.4,609.8,356,610.9,356.4,611.6z M372.6,728.3c2.5-1.1,2.9-3.2,4-5.4
		c0-0.4,0-0.7,0-0.7c-0.7-2.2-1.4-4.3-3.2-5.8c-0.4,0-0.4-0.4-0.7-0.4c-4.3-1.1-7.2-0.7-9.7,2.9c-1.8,3.2-1.8,5.8,0.4,8.6
		c0.7,1.1,1.8,1.4,2.9,1.8c0.7,0,1.1,0,0.7,0C369.4,729.7,370.8,729,372.6,728.3z"/>
	<path fill="#F8C7BC" d="M402.5,428.4c-1.8,3.6-3.6,7.2-5,10.8c-0.4,0.7-0.7,1.4-1.4,2.2c-2.5,2.5-4,5.4-5.4,8.6
		c-2.9,6.1-7.2,11.5-12.2,16.6c-1.4,1.1-2.9,2.2-4.3,2.9c-1.4,0.7-2.5,1.1-4,0.4c-4.3-2.2-7.9-5.8-10.4-10.1
		c-1.4-2.9-2.9-5.4-5.4-7.9c-0.7-0.7-1.1-1.4-1.4-2.2c-2.2-2.9-4-5.4-6.1-8.3c-0.4-0.4-0.7-1.1-1.1-1.4c-1.4-1.4-2.9-2.9-4.3-4.3
		c-0.7-0.7-1.1-1.1-1.8-1.8c-0.4-0.4-0.4-2.2,0-2.5c1.8-1.4,3.6-2.9,5.4-4c8.3-5.4,10.4-7.2,15.8-13c2.5-2.5,4.7-5,7.2-7.6
		c2.9-3.2,6.1-6.1,8.6-9.7c1.1-1.8,3.2-3.2,4.7-5c1.1-1.1,2.5-1.4,3.6-2.2c0.7-0.4,1.4-0.4,2.5,0c1.4,0.7,3.2,1.4,4.3,2.9
		c1.4,1.4,2.5,2.9,4,4.7c2.9,3.6,5,7.6,6.8,11.9c1.4,2.9,2.5,5.8,1.8,9C405,421.9,403.9,425.2,402.5,428.4z M373,465.1
		c1.4-0.4,2.9-1.1,3.6-2.2c0.7-1.4,1.4-3.2,2.2-4.7c0-0.4,0-1.1-0.4-1.4c-0.7-1.1-1.4-1.8-2.2-2.5c-0.7-0.4-1.4-0.7-2.2-1.1
		c-2.9-0.4-5.8,0.4-7.9,2.2s-2.5,4.7-1.1,6.8C366.8,464.4,369,465.5,373,465.1C371.5,465.5,372.2,465.1,373,465.1z"/>
	<path fill="#FADFD7" d="M351,553.3c0,1.8,0.7,3.2,2.2,4.3c0.7,0.4,1.4,0.7,2.5,0.4c1.4-0.7,2.2-1.8,3.2-2.9c0.7-1.1,0.7-2.2,0-3.2
		c-0.7-1.1-1.8-2.2-2.9-2.9c-0.4,0-0.4-0.4-0.7,0C352.8,549,351,551.2,351,553.3z"/>
	<path fill="#FADFD7" d="M340.9,498.2c-0.4,0.4-1.1,0.4-1.4,0.7c-0.4,0.7-0.7,1.4-1.4,2.2c-0.7,1.1-0.4,2.2,0.4,2.9
		c0.7,0.7,1.1,1.1,1.8,1.8c0.4,0.4,1.1,0.4,1.4,0c0.7-0.4,1.4-0.7,2.2-1.1c1.1-0.7,1.8-2.5,1.4-3.6
		C344.9,499,343.1,497.9,340.9,498.2z"/>
	<path fill="#FADFD7" d="M320.4,455.4c0.7,1.4,1.4,2.5,2.9,3.6c0.7,0.4,1.4,0.4,2.2,0c0.4-0.4,1.1-0.7,1.4-1.1
		c0.7-0.7,1.1-1.4,1.4-2.2c-0.7-1.1-1.4-1.8-2.2-2.5c-1.1-1.1-2.5-1.1-3.6,0C321.5,453.6,321.1,454.7,320.4,455.4z"/>
	<path fill="#FADFD7" d="M287.3,482.4c0.4,0.7,0.7,1.4,1.4,2.2c0.7,1.1,1.8,1.4,2.9,0.7c1.1-0.4,2.2-1.1,2.9-1.4
		c0.7-0.4,1.1-2.2,0-2.9c-1.8-1.8-4-2.2-6.1-0.4C288.4,481,288,481.7,287.3,482.4z"/>
	<path fill="#FADFD7" d="M363.2,663.1c0,1.8,1.1,2.9,2.5,3.6c0.4,0.4,1.1,0,1.4,0c2.9-1.4,3.6-4.7,1.4-6.8c-0.4-0.4-0.7-0.7-1.4-0.7
		c-0.4,0-1.1-0.4-1.4,0C364.7,659.5,363.2,661.3,363.2,663.1z"/>
	<path fill="#FADFD7" d="M359.6,608.8c0,1.1,0.4,2.2,1.1,2.9c1.4,1.8,3.6,2.5,6.1,1.8c0.7-0.4,1.4-0.7,1.4-1.8
		c0.4-1.1,0-2.2-0.7-3.2c-0.7-1.1-1.8-2.2-2.9-2.9c-0.4-0.4-1.1-0.4-1.4-0.4C361.4,605.5,360,607.3,359.6,608.8z"/>
	<path fill="#FADFD7" d="M365.4,723.2c0,0.4,0,0.4,0.4,0.7c1.4,2.2,2.9,2.5,4.7,0.7c1.1-1.1,1.4-2.2,1.4-3.6
		c-0.4-1.4-1.8-2.2-3.2-1.4c-1.1,0.7-2.2,1.8-2.9,2.9C365.8,722.9,365.8,723.2,365.4,723.2z"/>
	<path fill="#FADFD7" d="M370.8,461.5c0.4,0,1.1-0.4,1.8-0.7c0.7-0.4,0.7-1.4,0.4-2.2c-0.7-1.1-1.8-1.8-2.5-1.4
		c-1.1,0.4-1.8,1.1-2.2,2.5C368.3,460.4,369.4,461.9,370.8,461.5z"/>
	<path fill="#78433F" d="M76.7,566.6c0,0.4,0,0.4,0,0.7c0.4,0.4,0.4,1.1,0.7,1.4c3.6,2.2,6.8,5,9.7,8.3c0.7,0.7,2.2,0.7,3.2,0.7
		c0.4,0,0.4-0.4,0.7-0.4c0,0,0-0.4,0-0.7s-0.4-0.4-0.4-0.7c-3.6-3.6-7.9-6.5-11.9-9.7C78.5,565.6,76.7,565.9,76.7,566.6z"/>
	<path fill="#78433F" d="M463,497.5c0-0.4,0.4-0.4,0.4-0.7c0.4-1.8,0.4-3.6-0.7-5c-2.5-4-4.3-7.9-6.8-11.9c-0.4-0.4-0.7-0.7-1.4-0.7
		s-1.4,1.1-1.4,1.8c0,0.7,0,1.1,0.4,1.8c0.4,1.1,1.1,2.2,1.4,3.2c1.8,2.5,3.2,5.4,4.3,8.3c0.4,1.4,1.4,2.5,2.9,3.2
		C462.2,497.5,462.6,497.5,463,497.5z"/>
	<path fill="#78433F" d="M285.1,486.7c-0.7-0.7-1.1-1.8-1.4-3.2c-0.7-5,3.2-7.9,6.8-7.9c1.8,0,3.6,0,5,0.4c1.4,0.4,2.5,1.4,3.2,2.5
		c1.8,4.3,0,8.3-4,10.1c-1.1,0.7-2.9,0.7-4,1.1C288.4,490,286.6,488.5,285.1,486.7z M288.7,484.6c0.7,1.1,1.8,1.4,2.9,0.7
		c1.1-0.4,2.2-1.1,2.9-1.4c0.7-0.4,1.1-2.2,0-2.9c-1.8-1.8-4-2.2-6.1-0.4c-0.7,0.4-1.1,1.4-1.4,2.2
		C287.6,483.1,288,483.8,288.7,484.6z"/>
	<path fill="#78433F" d="M360.4,659.2c1.1-2.2,2.9-3.6,5.4-4c0.7,0,1.8,0,2.5,0c2.2-0.4,3.6,0.7,5,2.5c1.4,1.4,2.2,3.2,2.2,5.4
		c0,0.7,0,1.1,0,1.8c0,2.5-2.9,5.8-5.4,6.1c-2.2,0.4-4.7,0.4-6.8,0c-0.4,0-1.1-0.4-1.4-0.7c-1.4-2.2-2.5-4.3-2.5-7.2
		C359.6,661.3,359.6,660.2,360.4,659.2z M366.1,667.1c0.4,0.4,1.1,0,1.4,0c2.9-1.4,3.6-4.7,1.4-6.8c-0.4-0.4-0.7-0.7-1.4-0.7
		c-0.4,0-1.1-0.4-1.4,0c-1.4,0.4-2.5,2.5-2.5,4C363.6,664.9,364.7,666,366.1,667.1z"/>
	<path fill="#78433F" d="M358.9,603c1.1-1.1,2.5-1.4,4-1.4c5.4,0,9.4,3.6,9.4,9.4c0,0.7,0,1.8,0,2.5c0,1.1-0.7,2.2-1.8,2.9
		c-1.4,1.1-2.9,1.4-4.7,2.2c-0.4,0.4-1.1,0-1.8,0c-2.5-1.1-4.7-2.2-6.1-4.3c-0.4-0.7-0.7-1.4-1.1-2.2c-0.4-0.7-0.4-1.8-0.4-3.6
		C355.7,606.6,356.8,604.8,358.9,603z M360.7,612c1.4,1.8,3.6,2.5,6.1,1.8c0.7-0.4,1.4-0.7,1.4-1.8c0.4-1.1,0-2.2-0.7-3.2
		c-0.7-1.1-1.8-2.2-2.9-2.9c-0.4-0.4-1.1-0.4-1.4-0.4c-1.4,0.4-3.2,1.8-3.2,3.6C359.6,609.8,360,610.9,360.7,612z"/>
	<path fill="#78433F" d="M366.1,729.7c-1.1,0-2.2-0.7-2.9-1.8c-2.2-2.9-2.2-5.8-0.4-8.6c2.2-4,5.4-4.3,9.7-2.9
		c0.4,0,0.4,0.4,0.7,0.4c1.8,1.4,2.9,3.6,3.2,5.8c0,0.4,0,0.7,0,0.7c-1.1,1.8-1.8,4-4,5.4c-1.4,0.7-3.2,1.1-5.8,1.1
		C367.2,729.7,366.5,729.7,366.1,729.7z M365.8,724c1.4,2.2,2.9,2.5,4.7,0.7c1.1-1.1,1.4-2.2,1.4-3.6c-0.4-1.4-1.8-2.2-3.2-1.4
		c-1.1,0.7-2.2,1.8-2.9,2.9c0,0.4-0.4,0.4-0.4,0.7C365.8,723.6,365.8,724,365.8,724z"/>
	<path fill="#78433F" d="M364.3,462.2c-1.8-2.2-1.4-5,1.1-6.8c2.5-1.8,5-2.9,7.9-2.2c0.7,0,1.8,0.4,2.2,1.1c0.7,0.7,1.4,1.8,2.2,2.5
		c0.4,0.4,0.7,1.1,0.4,1.4c-0.7,1.4-1.1,3.2-2.2,4.7c-0.7,1.1-2.2,2.2-3.6,2.2c-0.7,0-1.1,0-0.4,0
		C368.3,465.5,366.1,464.4,364.3,462.2z M372.6,460.8c0.7-0.4,0.7-1.4,0.4-2.2c-0.7-1.1-1.8-1.8-2.5-1.4c-1.1,0.4-1.8,1.1-2.2,2.5
		c-0.4,1.1,0.7,2.2,2.5,2.2C371.2,461.5,371.9,461.5,372.6,460.8z"/>
</g>
<g id="Empty_1_">
	<path fill="#78433F" d="M450.4,260.6c-0.4-1.1-0.4-2.2-0.4-3.2c0-1.8,0-3.6-0.4-5c0-2.2,0-4-0.4-6.1c-0.4-1.8-1.4-3.6-1.8-5.8
		c-0.4-1.8-0.7-4-1.8-5.8c-2.2-4.3-3.2-9-5.8-13.3c-4-7.2-7.6-14.8-11.2-22.3c-1.4-3.2-3.2-6.1-3.6-9.7c0-1.8-1.1-3.2-1.8-4.7
		c-1.8-3.2-2.9-6.8-3.6-10.4c0-0.7-0.4-1.8-0.7-2.5c-2.2-6.5-3.6-13.3-5.4-19.8c-0.4-1.1-0.4-2.2-0.4-3.2c0-5.8-0.4-11.5-0.4-17.3
		c0-2.2-0.4-4-1.1-5.8c-0.4-1.1-0.7-2.2-1.1-3.2c-1.4-3.6-2.5-7.6-3.2-11.5c-0.7-3.6-1.4-7.2-1.8-11.2c0-2.2-1.4-3.6-1.4-5.8
		c0-1.8,0-3.6-0.4-5c-1.4-2.5-0.7-5.8-1.8-8.3c-1.1-2.9-1.1-5.8-2.2-8.3c-0.7-1.4-0.7-2.9-1.1-4.3c-0.7-6.1-2.9-12.2-5.4-17.6
		c-1.8-0.7-3.2-1.4-5-2.9c-3.2,0.4-6.8,1.4-10.1,2.9c-0.4,0.4-0.7,0.4-1.1,0.7c-3.6,3.6-7.9,6.8-12.6,9.4c-2.5,1.8-4.7,3.2-7.6,4.7
		c-2.9,1.4-5.8,2.9-8.6,4c-3.6,1.8-7.2,3.6-11.2,4.7c-4,1.8-8.3,3.2-12.6,4.7c-26.6,8.3-54.7,7.9-82.4,6.5
		c-25.6-1.4-53.3-1.1-77.4-10.8c-1.4-0.7-3.2-1.4-5-1.8c-8.6-2.2-16.6-6.5-23-12.6l0,0c-4.3-0.7-8.3-1.8-12.6-3.2
		c-2.2-0.7-4.3-1.4-6.5-2.5c-4.7,0-9-0.4-13.3-1.1c-0.4,1.1-0.7,2.5-1.1,3.6c-0.7,2.9-0.4,5.8-2.2,8.3c0,1.4-0.4,2.9-0.4,4.3
		c0,1.8,0,3.6-0.7,5c-0.4,0.4-0.4,1.1,0,1.8c1.4,4,0.7,7.9,1.4,11.9c0,1.4,0.7,2.9,1.1,4c0.4,1.1,0.7,2.2,0,3.2
		c-1.8,2.9-0.7,6.1-2.5,9c0,2.2-0.4,4,0,6.1c0.7,3.6,2.2,7.2,3.6,10.4c0.4,1.4,1.4,2.5,2.5,3.6c-1.8,4.7-1.4,9.7-0.7,14.4
		c1.4,3.6,2.2,7.6,4.7,11.2c1.8,2.5,3.6,5.4,5.4,7.9c0,1.8,0,3.6,0,5c-0.4,3.2,1.4,6.1,2.2,9c0.4,1.4,1.4,2.5,2.5,3.6
		c1.8,1.8,2.9,3.6,2.9,6.1c0,2.2,1.4,4.3,1.4,6.8c0,1.1,0.7,2.2,1.1,3.2c0.7,1.8,1.8,2.9,2.9,4.3c1.1,1.1,1.4,2.5,0.7,4
		c-1.1,2.2-1.4,4.3-2.2,6.5c-0.4,1.1-0.7,2.2-0.7,3.2c0,2.5,0,5,0,7.9c1.4,4,2.5,7.6,4,11.2c1.4,3.6,3.2,6.8,5,10.1
		c1.1,2.2,2.9,4.3,4.3,6.5c2.2,2.9,3.2,6.1,5,9c1.4,2.9,2.2,5.8,3.2,8.6c0.4,0.7,0.4,1.8,0.4,2.5c0,1.4,0.4,2.9,1.1,4
		c1.1,2.2,1.8,4,2.9,6.1c1.1,2.2,2.2,4,4,5.4c2.2,1.8,4,4,4.3,7.2c1.8,4.3,3.6,8.3,5.4,12.6c0.7,1.8,1.1,3.2,1.1,5
		c0.7,6.5,4.7,11.2,11.2,12.6c0.7,0.4,1.8,0.4,2.5,0.4s1.4,1.1,1.8,1.8c0,0.7,0.4,1.1,0.4,1.8c0,5,2.2,9.4,2.2,14.4
		c1.4,2.5,1.1,5,1.4,7.6c0.7,2.5,1.4,5,1.4,7.6c0,2.2,1.1,4.3,1.4,6.8c0.4,3.2,0.4,6.8,0.7,10.4c0,2.2,0,4,0,6.1
		c1.4,2.9,1.8,6.1,1.8,9.4c0.4,2.5,0.7,4.7,1.1,7.2c0.4,0.4,0.4,0.7,0.7,1.1c2.2,0.7,4.3,1.8,6.5,3.2c1.1,0.7-0.4,2.2,0.7,2.5
		c0,0,0.4,0.4,0.7,0.4c0.4,0.4,0.7,0.4,1.1,0.7c1.4,1.1,2.9,1.8,4.3,2.9c4.7,1.4,9,2.9,13.3,5c2.5,1.4,4.7,3.2,6.8,5
		c7.6,3.2,15.1,6.1,22.3,9.4c13.7,5.8,30.2,10.8,45,11.9c16.2,1.1,31.7,2.2,46.1-6.5c14-8.6,24.5-18.4,36.4-29.9
		c2.2-2.2,5-8.6,7.6-10.1c0.7-1.4,1.8-2.5,2.9-3.6c0.7-0.7,1.1-1.1,1.8-1.8l0,0c0.4-0.4,0.7-0.7,1.1-1.1c5.4-3.2,9.7-8.3,14-12.6
		c0.7-0.7,1.4-1.8,1.8-2.9c1.4-2.5,3.6-4.3,6.1-6.1c4.3-2.9,7.6-6.5,11.2-10.8c4.7-5.4,8.3-11.9,12.2-17.6c2.5-3.6,4.7-7.2,6.5-11.2
		c1.1-2.2,2.2-4,2.2-6.5c0-0.7,0.4-1.4,0.7-2.5c0.7-2.2,1.4-4.3,2.2-6.5c0.7-2.2,0.7-4.7,1.8-6.8c0.7-1.1,0.4-2.9,0.4-4.3
		c0.4-2.5,0-5,1.1-7.6c0.4-0.7,0.4-1.8,0.4-2.5c0-5,0-9.7,0-14.8C451.1,265,451.1,262.8,450.4,260.6z"/>
	<path fill="#EC685B" d="M447.1,265.3c-1.1-2.9-0.7-6.1-1.1-9.4c0-2.5,0-5-1.4-7.6c-0.4-0.4-0.4-1.1-0.4-1.8
		c0.4-3.6-2.2-6.5-2.2-10.1c-2.5-4-2.9-8.6-5.4-12.6c-0.7-1.4-1.1-2.5-1.4-4c-0.4-1.4-1.1-2.9-1.8-4c-3.2-4.3-5.4-9.4-7.9-14
		c-0.7-1.1-1.4-2.5-2.2-3.6c-0.4-0.7-1.1-1.4-1.1-2.2c0-3.2-2.2-6.1-2.2-9.4c0-0.7-0.4-1.8-0.7-2.5c-2.5-2.5-2.9-6.1-4.3-9.4
		c-0.4-3.6-1.8-7.2-2.9-10.8c-1.1-3.2-1.8-6.5-2.2-10.1c-0.4-2.5-1.8-4.7-1.8-7.6c0-2.5,0-5-0.4-7.9c0-1.4-0.7-2.2-1.8-2.9
		c-2.5-1.4-5-2.9-7.9-2.9c-1.4,0-2.9-0.4-4.3-0.7c-2.9-0.7-5.8-1.1-8.3,0c-2.2,0.7-4.7,0.7-6.5,1.4c-2.2,0.7-4.3,1.8-6.1,2.9
		c-1.8,1.1-4,1.1-5.8,2.2c-2.2,1.4-5,1.4-7.2,2.5c-2.5-0.7-5-1.1-7.6-1.4c-1.8-0.4-3.2-1.1-4.7-1.8c-2.5-0.7-4.3-2.9-5.8-5
		c-0.4-0.4-0.7-1.1-0.7-1.4c-0.4-2.9-0.4-5.8,0-8.6c0.4-1.4,2.2-3.2,3.6-3.6c1.4,0,2.9-0.4,4.3-0.4c2.2,0,4,0,6.1,0
		c2.2,0,4-0.4,5.8-1.4c2.2-1.1,4.3-1.8,6.5-2.5s4.3-1.4,6.8-1.4c0.7,0,1.1,0,1.8-0.4c3.6-1.8,7.9-1.4,11.9-1.8
		c1.4,0,2.9-0.4,4.3-0.7c1.4-0.7,2.9-0.4,4.3,0c2.2,0.7,4.3,1.4,6.5,2.2c0,0,0.4-0.4,0.7-0.4c0.7-1.4,0.4-2.9,0.4-4.3
		c0-2.5-1.8-5-1.4-7.6c0-2.2,0-4.7-0.4-6.8c-1.1-3.6-1.4-7.2-1.8-11.2c0-0.4,0-0.7,0-0.7c-2.5-5.8-2.9-12.2-5.4-18
		c-0.7,0.4-1.4,0.7-2.2,1.4c-3.6,4.3-8.3,6.8-13,9.7c-5,2.9-9.7,5.8-15.1,8.3c-2.5,1.1-5.4,2.2-7.9,3.2c-2.5,1.1-5,2.5-7.9,3.2
		c-2.5,0.7-4.7,1.8-7.2,2.9c-2.5,1.1-5.4,2.2-7.9,2.9c-4.3,1.4-8.6,2.9-13.3,2.5c-1.4,0-2.9-0.4-4.3,0.4c-2.9,1.4-6.1,1.1-9.4,1.4
		c-1.1,0-2.5,0-3.2,0.4c-2.5,1.1-5,1.4-7.6,1.4c-2.2,0-4,0-6.1,0.7c-1.4,0.4-3.2-0.7-5,0c-1.1,0.7-2.9,0.7-4.3,0.7c-1.8,0-3.6,0-5,0
		c-7.2,0-14.4,0.4-21.6,0c-2.5,0-5,0-7.6-1.1c-1.4-0.4-2.9-0.4-4.3-0.4c-4.3,0-8.6-0.4-13-0.4c-3.2,0-6.5,0-9.4-1.4
		c-2.2,0-4-0.4-6.1-0.4c-1.8,0-2.9,0.7-2.9,2.2c0,1.8-0.4,3.6,0,5c0.4,4-1.1,7.2-2.2,10.8c-1.4,1.8-1.8,4.3-1.4,6.5
		c0,1.4,0,2.9,0,4.3c-0.4,3.6-1.1,7.2-4,10.1c-0.7,0.7-1.1,1.8-1.1,3.2c0,2.2,0,4,0,6.1c0,3.6-1.1,6.8-3.6,9.4
		c-1.4,1.4-1.8,2.9-1.8,4.7c0,2.2,0,4-0.7,6.1c-0.7,3.2-1.8,6.5-4.7,9c-1.4,1.1-1.8,2.9-1.8,4.7c0,2.2,0,4.7,1.1,6.8
		c0.4,1.1,0.7,2.2,0.7,3.2c0,3.2,0,6.5,0.4,9.4c0,2.5-1.1,4.3-2.5,6.1c-1.1,1.4-2.9,2.2-4.3,2.5c-2.5,0.4-5,0.4-7.9,0.4
		c-4.3,0-7.9-1.8-9.7-5.8c-0.7-1.4-1.8-2.2-2.9-2.9c-3.6-1.4-4.7-4.7-5.4-8.3c-0.7-4-4.7-6.5-8.3-5.4c-2.5,0.7-5,1.4-6.8,3.6
		c-0.7,0.7-1.8,1.4-2.5,2.5c-3.6,3.2-6.1,6.8-6.8,11.9c-1.8,3.6-1.4,7.2-1.1,11.2c0.4,2.2,1.1,4.3,2.2,6.5
		c2.9,6.8,6.1,13.7,10.8,19.4c1.8,2.2,3.2,4.7,4.3,7.6c2.2,4.7,4,9.7,4.7,14.8c0.7,4,2.5,6.8,4.3,10.1c0.4,0.7,1.1,1.4,1.8,1.8
		c1.4,1.1,2.9,1.8,4.3,2.9c2.2,1.4,5,1.4,7.6,1.1c1.8-0.4,4.3-3.2,4.7-4.7c0.4-2.2,0.4-4,0.4-6.1c0-0.7,0.7-0.7,1.4-0.7
		s1.1,0,1.4,0.7c0.4,0.7,0.4,1.8,0.4,2.5c0,1.8,0.4,3.2,1.1,5c0.4,1.1,0.7,2.2,1.1,3.2c0.4,2.2-0.4,4.7,0.7,6.8
		c0.7,1.8,0.7,4,1.1,5.8c0.4,2.2,1.1,4.3,1.4,6.8c0.4,2.2,0.4,4,0.4,6.1c0,0.7,0.4,1.8,0.7,2.5c0.4,1.1,0.7,2.2,0.7,3.2
		c0,0.7,0,1.1,0,1.8c0.4,3.2,0.4,6.1,0.7,9.4c1.4,2.5,0.7,5.8,1.8,8.3c1.1,2.9,0.7,5.8,1.8,8.3c1.1,2.9,1.1,5.8,1.4,8.6
		c0,0.7,0,1.8,0.4,2.5c1.1,2.2,1.1,4.3,1.1,6.8c0,2.2,0,4.7,1.1,6.8c0.4,1.1,0.4,2.2,0.4,3.2c0,2.2,0,4,0,6.1c0,3.6,0,7.6,1.4,11.2
		c0.4,0.7,0.4,1.8,0.4,2.5c0,1.1,0.7,2.2,1.4,2.9c1.8,1.8,1.8,2.9,3.6,4.7c0.7,0.7,1.4,1.4,2.2,2.2c1.1,0.7,2.2,1.1,2.9,1.8
		c3.6,3.6,7.2,5,11.5,7.6c2.5,1.4,6.5,2.2,8.3,4c7.6,3.2,7.9,5,15.1,7.9c3.6,1.4,14.4,4.3,18,5.8c1.8,0,3.6,0.4,5.4,0.7
		c2.2,0.7,4.3,1.4,6.8,1.4c1.1,0,2.2,0.4,3.2,0.7c0.7,0,3.2,0,4,0c2.2,0.4,4.7,0.4,6.8,0.7c2.2,0.4,3.6,1.1,5.8,1.4
		c3.2,0,6.8,0,10.1,1.4c1.4,0.7,3.2,0.4,5,0.4c2.9,0,5.4,0.4,8.3,1.4c7.6,3.2,14,2.5,18.7-4c1.1-1.4,2.5-2.9,4-4
		c4.7-3.6,9.7-7.2,14.4-10.8c0.7-0.4,1.4-1.1,2.2-1.4c4-3.6,7.9-7.6,11.9-11.5c3.6-3.6,7.2-7.6,10.8-11.2c0.4-0.7,0.7-1.1,0-1.4
		c-0.4-0.4-1.1-0.4-1.4,0c-0.7,0.4-1.4,0.7-2.2,1.1c-3.6,1.4-7.2,3.2-11.5,3.6c-0.4,0-0.7,0-0.7,0c-2.5,1.1-4.7,2.2-7.2,2.9
		c-2.2,0.7-4.7,0-6.8,1.1c-1.1,0.4-2.2,0.7-3.2,0.7c-5.8,0.4-11.5,0.4-17.3,0.4c-2.2,0-4-0.4-6.1-0.4c-0.7,0-1.4,0-1.8-0.4
		c-2.2-1.8-5-1.1-7.6-2.2c-1.8-0.7-4-1.1-5.8-2.2c-4.3-1.8-8.6-2.9-12.6-5c-2.2-1.1-5.4-0.4-7.2-2.2c-2.9,0-5.4-2.2-8.3-2.2
		c-1.1,0-2.2-0.7-3.2-1.1c-3.2-1.4-6.1-3.2-9.4-4c-0.7-0.4-1.8-0.7-2.2-1.1c-1.8-1.8-4-2.2-6.5-2.5c-1.8,0-3.2-1.4-4-3.2
		c-0.4-0.7,0.4-2.2,1.1-2.2c0.7,0,1.8,0,2.5,0.4c4.7,2.5,9.7,3.6,14.4,5.4c7.6,2.9,15.8,5,23.4,7.9c2.5,0.7,5,1.4,7.2,2.5
		c3.2,1.4,6.1,3.2,9.7,3.2c0.4,0,1.1,0.4,1.4,0.7c3.2,1.4,6.8,2.9,10.8,2.9c0.7,0,1.1,0.4,1.8,0.4c2.2,0.7,4.3,0.7,6.8,0
		c1.1-0.4,2.2-0.7,3.2-0.7c3.6-0.4,6.8,0.4,10.1-1.4c0.7-0.4,1.8-0.4,2.5-0.4c4,0.4,7.2-1.8,10.8-1.8c0.7,0,1.1,0,1.8-0.4
		c3.2-1.8,6.8-2.5,10.1-4.3c2.9-1.4,5.8-2.5,8.3-4.3c3.6-2.2,7.2-4.7,10.8-7.2c5.4-4.3,10.8-8.6,14-15.1c1.1-1.8,2.5-3.2,4.7-3.2
		c1.1,0,2.2-0.7,3.2-1.4c2.5-2.5,5.8-5,7.6-8.3c0.4-0.4,0.7-1.1,1.1-1.4c1.8-2.2,3.6-3.6,5-6.1c3.2-5.4,7.2-10.4,10.1-16.2
		c1.4-3.2,2.9-6.5,4.7-9.4c1.8-2.9,1.1-6.1,2.9-9c0-3.6,1.8-6.5,2.5-10.1c0.4-1.8,1.1-4,1.1-5.8c0-4.7,0.4-9.4,0.4-13.7
		c0-3.2-0.4-6.5,0.7-9.4C447.1,266,447.1,265.7,447.1,265.3z M151.2,233.6c-0.7,0.4-1.8-0.4-2.2-1.1c-0.7-1.4-1.4-3.2-1.8-4.7
		c-0.7-2.9-2.2-5.8-1.8-8.6c0-1.1,0.7-2.5,1.1-2.2s1.1,0.7,1.4,1.1s0.4,0.4,0.4,0.7c1.4,4,2.9,7.9,4,11.9c0,0.4,0,0.7,0,0.7
		C152.3,232.2,151.9,233.3,151.2,233.6z M170.3,258.8c-1.1,0.4-2.2,0.4-3.2,0c-2.2-1.4-4-3.2-5.8-5c-3.6-4.7-5-9.4-2.9-15.1
		c1.1-2.9,2.5-5.8,3.6-8.6c0.4-1.1,1.1-2.5,0.4-3.2c-1.4-3.2-1.1-6.8-2.9-9.7c-1.4-6.8-5.8-11.2-11.5-14c-0.7-0.4-1.8-0.4-2.2-1.4
		c0-0.4,0-0.7,0-0.7c0.4-1.1,0.7-1.4,2.9-1.8c0,0,1.4-0.4,2.2,0.4c1.8,0.7,3.6,1.4,5,2.9c2.9,2.5,4.7,5.8,6.5,9c2.2,4.3,4,9,3.6,14
		c0,0.7,0,1.8,0,2.5c0,2.2-0.4,4.3-1.4,6.5c-1.1,1.8-2.2,4-2.5,6.5c-0.4,2.5-0.7,2.5,0,5c1.1,4,2.9,7.6,6.8,9.4
		c0.7,0.4,1.1,1.1,1.8,1.8C171.4,257,170.6,258.8,170.3,258.8z M215.6,350.6c0,0-0.7,0-0.7-0.4c-0.4-0.4-1.1-0.7-1.4-1.1
		c-2.9-4-5.4-8.3-7.6-12.6c-1.4-2.9-2.2-5.8-3.2-9c-0.4-1.1,0-2.5-0.7-3.2c-1.1-2.2-1.1-4.3-1.8-6.5c-0.4-1.8-1.4-3.6-1.4-5.8
		c0.4-2.5-1.4-4.3-1.4-6.5s-0.7-4-1.4-5.8s0-4-0.7-5.8c-1.4-3.2-1.1-6.8-1.8-10.8c0-1.1,0-3.2,0.4-5c0-0.4,0.7-0.7,1.1-0.7
		c0.7-0.4,1.1,0,1.4,0.4c1.4,3.2,2.2,6.5,2.2,9c0,2.2,0.4,4,0.4,6.1c1.4,2.5,0.7,5.8,2.2,8.3c1.4,2.9,0.7,6.1,1.4,9.4
		c0,0.4,0.4,0.4,0.4,0.7c1.4,2.9,1.1,6.1,2.5,9c0,3.6,1.8,6.5,2.5,10.1c1.1,3.6,2.5,7.2,4.3,10.4c1.4,2.2,2.5,4.7,3.6,6.8
		c0.4,0.7,0.4,1.8,0.4,2.5C216.4,349.9,216,350.3,215.6,350.6z M220.7,196.9c-0.7,0.7-1.1,1.4-1.8,1.4c-1.1,0.4-2.2,0.4-3.2,0.7
		c-0.4,0-1.1,0-1.8,0c-0.4,0-0.7,0-0.7,0c-0.4-0.4-0.7-0.7-1.1-1.1c0,0,0-0.7,0.4-0.7c2.2-2.2,5-2.2,7.9-1.4
		C221,195.8,221,196.6,220.7,196.9z M221,185.4c-0.4,1.1-0.7,1.4-1.8,1.4c-2.2,0-4,0-6.1,0l0,0c-2.5,0-5-0.4-7.6-0.4
		c-0.7,0-1.4-1.8-1.4-2.9c0-0.7,1.1-1.8,1.4-1.8c4,0,7.9,0,11.9,0c0.7,0,1.4,0.7,2.2,1.1C221,183.6,221.4,184.7,221,185.4z
		 M407.2,189.4c0,0,0.4,0.4,0.7,0.7c0.4,0.7,0.4,1.8-0.4,2.2c-3.2,3.2-6.8,5-11.5,5.4c-0.7,0-1.8,0-4.3,0c0.4,0-0.7,0-1.8-0.4
		c-0.7,0-0.7-0.7-0.7-1.4c0-0.4,0-0.7,0-0.7c0.4-0.4,1.1-0.7,1.4-0.7c4,0,7.2-1.4,10.8-2.5C403.6,191.2,405.4,190.1,407.2,189.4z
		 M370.4,149.8c0.4-0.4,0.7-0.7,1.1-1.1c1.1-0.7,2.2-1.1,3.2-1.1c4-0.7,7.9,0.4,11.9-1.1c0.7,0,2.2,1.4,2.5,2.2
		c0,0.4-0.7,2.2-1.4,2.2c-0.4,0-0.7,0-0.7,0c-2.2,0-4.7,0.4-6.8,0c-2.9-0.4-5,1.4-7.6,1.4c-0.4,0-0.7,0-0.7,0
		c-0.4-0.4-1.1-0.4-1.4-1.1C370.1,150.8,370.1,150.1,370.4,149.8z M352.8,167.8c0-1.8,1.1-3.2,2.5-4.3c3.2-2.2,7.2-3.6,10.8-5
		c2.2-0.7,4.3-1.1,6.8-1.1c2.9,0,5.8-0.4,8.6-0.4c3.6,0,7.6,0.4,11.2,0.4c3.6,0.4,6.8,1.8,8.6,4.7c0.4,0.7,1.1,1.4,1.1,2.2
		c0.7,3.6,0.7,6.8-1.4,10.1c-1.1,1.4-1.8,2.9-3.6,3.6c-3.2,1.4-9,3.2-12.2,3.2c-2.9,0-5.8,0-8.6,0.4c-1.4,0-2.9,0-4.3,0.7
		c-2.9,1.4-5.8,1.1-8.6,1.1c-0.7,0-1.8-0.4-2.5-0.7c-1.4-0.7-2.5-1.1-4-2.2c-2.9-2.2-4.7-5-5-8.6
		C352.8,170.6,352.8,169.2,352.8,167.8z M331.2,156.2c0.4,0,1.1,0.4,1.4,0.7c0.4,0.4,0.7,0.7,1.1,1.4c1.4,2.5,2.5,5,3.6,7.6
		c1.4,3.2,3.2,6.1,5.8,8.6c0.7,0.7,1.4,1.1,1.8,1.8c1.8,3.2,4.7,5,7.6,6.8c2.5,1.8,5.4,2.9,8.6,4c3.6,1.1,7.2,2.2,10.4,3.6
		c5.4,1.8,9.4,5.4,11.9,10.8c0.7,1.8,0.7,4,0,5.8c-0.4,0.4-0.7,1.1-0.7,1.4c-2.2,5-6.1,7.2-11.5,7.6c-1.8,0-3.6,0-5,0v0.4
		c-0.7,0-1.1,0-1.8,0c-1.8,0-3.6,0-5,0c-1.8,0-3.2,1.4-5,1.4c-2.5,0-4.3,0.7-6.5,1.8c-1.4,0.7-3.2,1.1-5,1.8
		c-1.1,0.4-2.2,0.4-3.2,0.4c-1.4,0-2.5-1.4-3.2-2.5c-0.4-0.7,0-1.8,0.4-2.5c1.4-1.8,2.9-3.2,5.4-4c1.8-0.4,4-0.4,5.8-0.7
		c4.3-0.7,8.6-1.1,12.6,0.4c2.5,0.7,5,0.7,7.6-0.4c1.4-0.4,2.9-0.7,4.3-0.7c2.2,0,3.6-1.4,5-2.9c1.4-1.8,1.8-3.6,1.4-5.8
		c-0.7-2.2-1.8-4.3-3.6-5.4c-2.2-1.4-4.3-2.5-6.8-3.2c-4.7-1.4-9.4-2.9-13.7-5c-1.1-0.4-2.2-0.7-3.2-1.1c-1.8-1.4-4-2.5-5.8-4
		c-3.6-2.9-6.1-6.8-8.6-10.8c-1.4-2.9-2.9-5.4-4.7-8.3c-0.7-1.1-1.1-2.2-1.4-3.2c-0.4-1.4-0.4-2.9-0.7-4.3
		C330.1,157,330.8,156.2,331.2,156.2z M317.5,214.9c0.7-2.9,1.8-6.1,3.6-8.6c0.7-1.1,2.2-2.2,3.6-1.8c1.1,0,1.8,0.7,1.4,1.4
		c-0.4,1.1-1.1,2.2-1.4,3.2c-0.7,1.4-1.4,2.9-2.2,4.7c-0.7,1.4-0.7,2.9,0,4.3c0.7,1.4,1.1,2.5,1.8,4c1.4,1.8,3.2,3.2,5.8,3.2
		c1.4,0,2.9,0,4.3,0.4c0.4,0,0.7,0.7,1.1,1.1c0.4,0.7,0,1.1-0.4,1.4c-0.4,0.4-0.7,0.7-1.4,1.1c-0.4,0.4-1.1,0.4-1.8,0.7
		c-2.2-0.7-4.3-1.1-6.5-1.8c-3.6-1.1-5.8-4-6.8-7.2c-0.4-1.4-0.7-2.9-1.1-4.3C317.5,216,317.2,215.3,317.5,214.9z M225.7,148.3
		c-2.5-3.6-2.9-6.1-0.7-10.4c0.7-1.1,1.4-1.8,2.5-2.2c1.4-0.7,3.2-1.4,5-1.4c1.4,0,3.2,0.4,5,1.1c2.5,1.1,5,2.5,7.6,3.6
		c2.2,1.1,4,2.2,6.1,2.9c1.4,0.7,3.2,1.4,4.7,1.8c2.2,0.4,4.7,0.7,6.8,1.4c0.4,0.4,1.1,0,1.8,0c2.2,0,4,0,6.1,0c4.3,0,8.6,0,13,0
		c2.2,0,4.7,0,6.8,0c2.9,0,5,1.4,7.2,2.5c1.1,0.7,1.4,1.8,1.8,2.9c0.4,1.8,0.4,3.6-0.4,5c-0.7,1.4-1.8,2.9-2.5,4.3
		c-5,2.9-10.1,5.4-15.8,5.8c-3.2,0-6.5,0.4-9,0.4c-4,0-7.9-0.4-11.5-0.4c-1.1,0-2.5,0-3.2-0.7c-2.2-1.1-4.7-0.7-6.5-1.8
		c-2.2-1.1-4.3-1.8-6.1-2.9c-2.5-1.1-5-2.9-7.9-3.6c-0.7,0-1.1-0.4-1.4-0.7C231.1,154.4,227.9,151.6,225.7,148.3z M238.7,202
		c-0.7-1.1-1.4-1.8-2.2-2.9c-1.4-2.5-2.9-5-2.9-7.9c0-1.8-0.4-3.6-1.1-5c-0.4-0.4-0.4-1.1-0.4-1.8c1.4-3.6,1.8-7.2,4.3-10.4
		c1.8-2.2,4-3.2,6.8-2.9c0.4,0,0.7,0,0.7,0c3.2,1.4,6.8,1.4,10.1,1.4c7.6,0,15.1,0,22.3,0c2.2,0,4-0.4,5.8-1.1s4-0.7,5.8,0
		c0.7,0.4,1.4,0.7,2.5,0.7c5.4,1.4,7.9,5.4,9.7,10.1c0.4,1.4,0.4,3.2-0.4,5c-1.1,2.5-2.5,5-4.7,7.2c-0.7,0.7-1.4,1.4-2.2,1.4
		c-2.9,0.4-5.4,2.2-8.3,2.2c-1.8,0-3.6,0-5,0c-2.5,0-5,0-7.6,1.4c-3.2,0-6.1,1.4-9.4,2.2c-2.5,0.4-5,0.7-7.6,1.8
		c-2.5,1.4-5,1.8-7.6,1.8c-0.7,0-1.8,0-2.5,0C242.6,205.9,240.1,204.8,238.7,202z M266.4,223.2c-0.7,0-1.8,0-2.9,0
		c-5,0.4-10.4-0.7-15.8-1.8c-2.2-0.4-4.3-1.4-6.1-3.2c-0.7-0.7-0.7-1.4,0-2.2c0.7-0.7,1.4-1.1,2.2-0.7c2.2,0.7,4.3,1.8,6.5,2.5
		c1.8,0.4,3.2,0.4,5,0.7c0.7,0,1.1,0,1.8,0.4c1.8,1.1,4,0.7,5.8,0.7c2.2,0,4.7,0,6.8-1.1c3.6,0,6.5-1.4,10.1-2.2
		c2.9-0.4,6.1-1.4,9-3.2c2.2-1.1,4.7-2.2,6.8-3.2c0.7-0.4,1.1,0,1.4,0.7c0,0.4,0.4,1.1,0,1.4c-0.7,1.1-1.4,1.8-2.5,2.5
		c-2.9,1.8-6.1,3.2-9.4,4.7c-0.4,0-1.4,0.4-2.2,0.4c-2.9,0-5,1.4-7.6,2.2C272.5,222.5,269.3,223.2,266.4,223.2z M378.7,271.1
		c-0.7,0.4-1.4,0.7-2.2,1.1c-5.4,2.2-10.8,3.6-16.2,5.4c-0.7,0.4-1.4,0.7-2.5,0.7c-2.5,0-5,1.8-7.6,1.8c-4,0-7.9,1.1-11.9,2.2
		c-1.8,0.4-3.2,1.1-5,1.4c-1.8,0.4-3.2,0.4-5,1.1c-1.1,0.4-2.9-0.7-3.2-1.8c-0.4-0.7,0.4-2.2,1.4-2.9c0.7-0.4,1.4-1.1,2.2-1.1
		c3.6-0.4,7.2-1.8,10.8-2.2c2.5-0.4,5-1.4,7.6-1.4c4,0.4,7.2-1.4,10.8-2.2c1.1-0.4,2.2-1.1,3.2-1.1c3.6-0.4,7.2-1.8,10.8-3.2
		c1.4-0.4,2.9-0.7,3.6-0.7c0.7,0,1.1,0,1.4,0c0.4,0,0.7,0,0.7,0c0.4,0.4,1.1,0.4,1.4,0.7C379.8,268.9,379.1,270.7,378.7,271.1z
		 M412.9,258.1c-0.4,0.4-0.7,1.1-1.1,1.1c-1.8,0.7-3.6,0.4-5,0c-4-1.4-7.9-1.8-11.9-1.4c-2.2,0-4.3-1.4-6.8-0.4c0,0-0.4,0-0.7-0.4
		c-2.2-0.7-4.7-0.4-6.8-0.4c-4.3,1.8-9,1.1-13.7,1.4c-0.7,0-1.8,0-2.5,0.4c-2.5,1.4-5.8,1.1-8.3,1.4c-0.7,0-1.8,0-2.5,0.4
		c-1.8,1.1-4,1.1-5.8,1.1c-1.4,0-2.9,0.7-4,1.1c-4.7,1.4-9,3.2-13.7,4.3c-2.2,1.4-5,1.4-7.2,2.9c-2.2,1.4-4.7,2.2-6.8,3.2
		c-2.5,1.4-5,2.9-7.6,4c-2.5,1.1-4,3.2-6.1,4.7c-5,2.9-8.6,7.2-12.6,11.5c-0.7,0.7-1.4,1.4-2.5,2.5c-0.4,0.4-1.8,0.4-2.5-0.4
		c-0.7-0.7-1.1-1.1-1.8-2.2c2.9-4,5.4-8.3,9.7-10.4c1.1-0.7,2.2-1.8,3.2-2.9c0.7-0.7,1.4-1.8,2.5-2.2c3.6-1.8,6.5-4.7,10.1-6.5
		c4.7-2.5,9.4-5,14.8-6.8c4.3-1.4,8.6-2.9,13-4.3c5-1.4,10.1-4,15.8-4c2.9-1.8,6.1-1.4,9.4-1.8c1.1,0,2.5,0,3.2-0.4
		c2.2-0.7,4.3-1.1,6.8-1.1c9-0.7,17.6-0.4,26.6,0c1.4,0,2.9,0,4.3,0.7c1.8,0.7,4,1.1,5.8,1.4c1.8,0,3.2,1.4,4.7,2.2
		C412.9,256.7,412.9,257.4,412.9,258.1z"/>
	<path fill="#A35652" d="M205.6,101.5c-1.1-1.8-2.2-3.6-3.6-5.8c-0.7-1.1-1.8-2.2-2.9-2.9c-0.7-0.4-1.4-0.7-2.2-1.1
		c-1.8-0.4-3.6-0.4-5-0.4c-2.2,0-4,0-5.8,1.4c-0.4,0.4-1.1,0.4-1.4,0.7c-2.9,2.2-5.4,1.1-7.9-0.4c-0.7-0.4-1.4-1.1-2.2-1.4
		c-1.8-1.8-4-3.2-5.8-5c-2.2,0-4-0.4-6.1-0.4c-2.2,0-4,0.4-6.1,0.4c-1.4,0-2.9-0.4-4-1.1c-0.4-0.4-0.4-0.4-0.7-0.7
		c-2.2-2.2-4.7-3.6-7.2-4.7c-2.5-1.1-5.8-0.4-8.6-0.4c-1.4,0-2.9,0-4.3,0c-1.1,0-2.2-1.1-2.9-1.8c-0.4-0.4-0.4-1.1-0.7-1.4
		c-1.4-4.7-4.3-7.9-8.6-10.4c-1.4-0.7-1.8-2.2-1.8-3.6c0-1.1,0-2.5,0.4-3.2c0.7-1.8,1.1-3.6,1.4-5.8h-0.4c-3.2,0-6.1-0.4-9.4-0.7
		c-0.4,0.7-0.4,1.4-0.4,2.5c-0.4,2.2,0.4,4.7-0.7,6.8c-1.1,1.8-0.7,4-1.4,5.8c-1.8,4.3-1.1,8.3-0.7,12.6c1.1,2.2,1.1,4.3,1.1,6.8
		c0,1.4,1.1,2.9,1.4,4c0.4,1.1,0.4,2.2,0,3.2c0,0.4-0.4,0.4-0.4,0.7c-0.7,1.8-2.2,3.6-2.2,5.4c-0.4,3.2,0,6.5,0,9.4
		c1.1,3.2,1.4,6.8,4.3,9c0.7,0.7,1.4,1.8,2.2,2.5c-0.7,2.2-1.4,4-1.4,5.8c-0.7,5.4,0,10.8,2.5,15.8c1.8,3.6,3.6,7.2,6.5,10.1
		c0.7,0.7,1.1,2.2,0.4,3.2c-0.7,1.4-1.1,3.2-0.4,5c1.4,2.2,0.4,5.4,2.2,7.2c1.4,1.8,2.9,3.6,4.3,5.4c0.4,0.4,0.4,0.4,0.7,0.7
		c0.4,0.7,0.7,1.4,1.1,2.5c0,2.2,0,4,0,6.1c0.4,2.9,1.4,5.4,3.6,7.6c0.7,0.4,1.8,0.7,2.5,0.4c2.2-1.4,4.3-2.9,6.5-4.3
		c1.8-1.4,4-2.2,6.5-2.2c0.7,0,1.8,0,2.5,0c2.2,0,4-0.4,5.8-1.4c1.4-0.7,3.2,0,3.6,1.4c0.4,2.2,1.4,3.6,2.9,5.4
		c0.7,1.1,0.7,2.2,0.4,3.2c-0.4,0.7-0.4,1.4,0.4,2.2c0.7,1.1,1.8,2.2,3.2,2.9c1.8,0.7,3.2,2.2,4.3,4c1.4,3.2,4.7,4,7.9,4.7
		c1.1,0.4,2.2,0,3.6,0c1.8,0,3.2-1.1,4.3-2.5c1.8-3.2,2.2-6.5,1.4-10.1c-1.8-2.5-0.7-5.8-2.2-8.3c-0.4-0.7-0.4-1.8-0.7-2.5
		c-0.4-2.5,0-5,1.4-7.2c0.7-1.1,1.8-2.2,2.5-3.6c1.4-2.5,2.9-5,2.5-7.9c0-1.1,0-2.2,0-3.6c-0.4-2.5,0.4-4.7,2.5-6.1
		c0.4-0.4,0.7-0.7,1.1-1.1c0.7-0.7,1.4-1.8,1.4-2.9c0.4-3.2,0-6.5,0-9.4c0-1.8,0.4-3.2,1.8-4.7c0.7-0.7,1.4-1.8,2.5-2.5
		c0.7-0.7,1.1-2.2,1.1-3.2c0-2.9,0.4-5.8-1.4-8.3c-0.4-0.4,0-1.1,0-1.8c1.4-2.5,2.9-5,4.7-7.6c0-1.1,0-2.2,0-3.2c0-1.8,0-3.6,0-5
		C204.5,104.4,205.9,103.3,205.6,101.5z M155.9,164.5c0,0.7-0.7,1.1-1.1,0.7c-1.8-0.7-2.9-2.2-3.2-3.6c-0.7-1.4-1.1-3.2-1.4-4.7
		c0-0.4-0.4-1.1-0.4-1.8c0.7-1.8,1.1-4,1.8-5.8c0.4-1.1,1.4-1.8,2.5-1.8c0.4,0,0.7,0,0.7,0c0.7,0.4,1.1,0.7,0.7,1.4
		c-0.4,1.4-1.1,2.5-1.4,4c-0.4,3.2-0.4,6.1,1.4,9C155.9,162.7,155.9,163.8,155.9,164.5z M159.1,128.2c-0.4,0.7-0.7,1.4-1.4,2.2
		c-0.7,0.7-1.1,0.7-2.2,0c-1.1-1.1-1.4-2.2-1.1-2.9c0.7-1.1,1.4-2.2,2.5-3.2c0.4-0.4,1.1-0.7,1.4-0.4c0.4,0,0.4,0.7,0.7,1.4
		C159.5,126,159.5,127.1,159.1,128.2z M172.8,175c-0.4,0.4-0.7,1.1-1.1,1.1c-0.4,0.4-1.8-0.4-2.2-1.1c-0.4-1.4-0.4-2.9-0.4-4
		c0-0.7,1.1-1.4,1.8-1.1c0.4,0.4,1.1,0.4,1.1,1.1c0.4,0.7,0.4,1.8,0.4,2.2s0,0.7,0,1.1C172.8,174.6,173.2,175,172.8,175z
		 M174.6,149.4c0,0.4-0.4,0.4-0.7,0.7c-0.4,0-0.4,0.4-0.7,0.4c-0.7,0-1.1,0-1.4-0.4c0-1.1-0.4-1.8-0.4-2.5c0-1.1,0-1.8,0.4-2.9
		c0.4-1.1,1.1-2.2,2.2-2.5c0.4-0.4,1.1-0.4,1.4,0c0.4,0.4,0.7,1.1,0.7,1.4C175.7,145.4,175.3,147.6,174.6,149.4z M178.9,119.5
		c-1.1,1.8-1.1,4-0.4,5.8c0.4,0.7,0.7,1.4,1.1,2.2c0.4,1.1-0.7,2.5-1.8,2.2c-0.4-0.4-1.1-0.4-1.4-0.7c-1.8-1.8-2.5-4.3-3.2-6.8
		c0-0.4,0-1.1,0.4-1.8c1.1-2.5,2.2-5,4.7-6.8c0.4,0,0.4-0.4,0.7-0.4c0.7-0.4,2.2-0.4,2.2,0.4c0.4,0.4,0.4,1.1,0.4,1.4
		C180.7,116.6,180,118.1,178.9,119.5z"/>
	<path fill="#ED7B70" d="M387.4,51.1c-0.4-1.1-0.7-2.2-1.4-3.2c-0.4-0.4-0.4-0.4-0.7-0.7c-2.2,0.7-4.3,1.4-6.1,2.5
		c-0.4,0.4-0.7,0.4-0.7,0.7c0.7,0.7,1.4,1.4,2.2,2.5c0.4,0.4,0.4,1.1,0,1.8c-1.1,2.2-2.2,4.7-4.3,6.5c-2.9,2.9-6.1,5-9.7,6.8
		c-5.8,2.9-12.2,5-18,8.3c-2.5,1.4-5.4,2.2-7.9,2.9c-3.6,0.7-7.2,1.8-10.4,3.6c-0.7,0.4-1.8,0.4-2.5,0.7c-2.2,0-4.7,0.4-6.5,1.8
		c-3.2,0.4-6.5,2.2-10.1,1.8c-1.4,0-2.9,0.4-4.3,1.1c-1.1,0.7-2.2,0.7-3.2,0.7c-3.6,0-6.8,0-10.1,1.4c-1.8-0.4-2.9-0.4-4-0.4
		c-7.9,0-16.2,0-24.1,0.4c-4.3,0-8.6-0.7-13,1.1c-3.2,0-6.5,0.7-9.4-0.7c-1.1,0.4-2.2,0.4-3.2,0.7c-1.8-1.1-4-1.1-5.8-1.1
		c-4.3,0-8.6-0.4-13-0.7c-0.7,0-1.8,0-2.5-0.4c-1.8-1.1-4-1.1-5.8-1.1c-3.2,0-6.1-0.7-9.4-1.8c-2.9-1.1-6.1-1.8-9.4-1.8
		c-1.4,0-2.9,0-4.3-0.4c-2.2-1.1-4.3-1.1-6.8-1.4c-2.2-0.4-4.3-1.1-6.5-1.8c-6.8-1.8-13.7-4-20.2-6.8c-3.2-1.4-6.1-3.2-9.7-4
		c-4-2.2-8.3-3.6-11.5-7.2c-1.1-1.4-1.8-2.9-1.8-4.7c0-0.4,0-0.4,0-0.7c-2.5-0.7-5-1.4-7.6-2.2c-0.7-0.4-1.4-0.4-2.2-0.7
		c-0.4,1.8-0.7,4-0.7,5.8c0,0.7,0.4,1.1,0.7,1.4c0.4,0.7,1.1,1.4,1.8,1.8c2.5,2.2,4.7,5,6.1,8.3c1.1,2.2,3.2,3.2,5.4,3.6
		s4,0.4,6.1,0c2.9-0.4,5.4,1.1,8.3,2.5c2.9,2.9,6.5,3.6,10.1,3.2c0.7,0,1.8,0,2.5,0c3.6-0.4,6.8,1.1,9.4,3.2
		c1.1,0.7,1.8,1.4,2.5,2.2c1.4,1.1,2.9,1.8,4.7,2.5c0.7-0.4,1.4-0.7,2.5-0.7c1.8-0.7,3.6-1.4,5.8-1.8c2.9-0.4,5.8,0,8.6,0
		c3.2,1.8,5.4,4.3,7.9,6.8c0.7,0.7,1.4,1.4,2.2,1.4c2.5,0.4,5,1.4,7.6,1.8c2.9,0.7,5.8,0,8.6,1.1c2.9,1.1,6.1,0.7,9.4,0.7
		c2.9,0,5.8,0,8.6,0c0.4,0,0.7,0,0.7,0c2.5,0,5,0,7.6,1.1c1.4,0.4,2.9,0.4,4.3,0.4c6.1,0,12.2,0,18,0c3.6,0,7.6,0.7,11.2-1.1
		c1.1-0.4,2.2,0,3.6,0c3.2,0,6.5,0,9.4-0.4c0.7,0,1.8,0,2.5-0.4c3.2-1.4,6.8-1.4,10.1-1.4c2.2,0,4.3-1.4,6.8-1.4
		c2.2,0,4.7,0,6.8-1.4c0.4-0.4,1.1-0.4,1.8-0.4c1.8-0.4,3.6-0.4,5-0.7c2.5-0.7,4.7-1.8,7.2-2.5c5-1.8,10.1-4,15.1-5.8
		c4-1.4,7.9-3.2,11.9-5c3.2-1.4,6.8-3.2,9.7-5.4c1.1-0.7,1.8-1.1,2.9-1.8c5.8-3.2,6.1-3.6,10.1-7.9c2.9-3.2,3.2-6.5,2.2-10.4
		C388.1,53.3,387.4,52.2,387.4,51.1z"/>
	<path fill="#A35652" d="M389.9,115.9c-3.6,0-7.6-0.4-11.2,1.4c-1.1,0.4-2.2,0.4-3.2,0.4c-1.1,0-2.5,0-3.2,0.7
		c-2.9,1.4-6.1,1.1-9,2.9s-5.8,2.2-9,2.2c-1.8,0-3.6-0.4-5-0.4c-2.2,0-4.7,2.2-4.7,5c0,2.2,0.7,4,2.5,5c0.7,0.4,1.4,0.7,2.2,1.1
		c3.6,2.2,7.6,2.9,11.5,2.5c1.8-0.4,3.2-0.7,5-1.1c2.5-0.7,5-1.8,7.2-2.9c3.2-1.8,6.8-3.2,10.4-3.2c0.7,0,1.8-0.4,2.5-0.7
		c1.8-0.7,4-0.7,5.8,0c1.8,0.4,3.2,1.1,5,1.1c2.2,0,4,0.7,5.8,1.4c2.5,1.1,5.4-1.1,5.4-4c0-1.8,0-3.2-1.4-4.7
		c-3.2-4.3-7.6-6.8-13.3-6.8C392.4,115.9,391.3,115.9,389.9,115.9z"/>
	<path fill="#A35652" d="M181.8,306.4c0-2.2-1.8-5.8-1.8-10.1c-1.4-3.2-1.4-6.5-2.2-10.1c0-0.7-1.1-1.4-1.4-1.8
		c0-0.4-0.7-0.4-0.7-0.4c-2.5,1.8-5.4,0.7-8.3,1.4c-0.4,0-1.1,1.8-1.1,2.2c0.7,1.4,1.1,3.2,1.8,4.7c2.5,4.7,4,9.4,4.7,14.4
		c0,0.7,0.4,1.8,1.1,2.2c1.1,1.1,2.2,2.2,3.2,2.9c0.4,0.4,1.1,0.4,1.4,0.7c1.4,0.4,2.9-0.7,2.9-2.2
		C181.8,310,181.8,309.2,181.8,306.4z"/>
	<path fill="#FADFD7" d="M251.6,195.1c-1.8-2.9-2.9-5.8-2.5-9c0-2.2,0.4-4.7,0.4-6.8c0-1.8-1.1-2.9-3.2-2.9c-0.7,0-1.8,0-2.5,0
		c-2.2,0-4.3,2.5-4.7,4.3s-0.7,4-1.4,5.8c-0.4,0.7-0.4,1.8,0,2.5c0.4,1.8,1.1,3.2,1.4,5c0.7,2.2,2.2,4,4.3,5
		c1.1,0.4,2.2,0.7,3.2,1.1c1.4,0.4,2.9,0.4,4.3-0.4c0.7-0.4,1.4-0.7,2.5-1.1c1.1-0.4,1.1-1.1,0.4-1.8
		C252.7,196.6,252.4,195.8,251.6,195.1z"/>
	<path fill="#FADFD7" d="M284.4,194c0.7,0,1.1,0,1.1,0c4,0.4,6.5-1.8,8.6-4.7c1.1-1.1,1.4-2.5,1.4-4c0-1.1,0-2.2,0-3.6
		c0-1.1-0.7-2.2-1.8-2.9c-2.5-1.8-5.4-2.9-9-2.2c-1.8,0.4-2.9,2.2-2.9,3.6c0.4,1.8,1.1,3.2,1.1,5c-0.4,2.2-1.1,4.3-1.8,6.5
		c-0.4,1.1,0,1.8,0.7,1.8C283,194,283.7,194,284.4,194z"/>
	<path fill="#FADFD7" d="M391.7,162.4c-0.7,0.4-1.4,0.7-2.2,1.1c1.8,3.6,1.1,7.2,1.1,10.8c0,1.1,0.7,1.4,1.4,1.4
		c1.1-0.4,2.2-0.7,3.2-0.7c0.4,0,1.1-0.4,1.4-0.7c1.8-1.8,2.9-5.8,1.8-7.9c-0.4-0.7-0.7-1.4-1.1-2.2c-0.4-0.7-1.1-1.1-2.2-1.1
		C394.2,162.7,393.1,162.7,391.7,162.4z"/>
	<path fill="#FADFD7" d="M362.5,177.8c0-0.4,0.4-0.4,0.4-0.7c0-0.4,0.4-1.1,0-1.8c-1.1-2.5-1.4-5.4-1.4-8.3c0-0.4-0.7-0.7-1.1-0.7
		c-1.4,0-3.6,1.8-3.6,2.9c0,0.4,0,0.7,0,0.7c1.1,2.9,2.2,5.8,5,7.6C362.2,177.8,362.2,177.8,362.5,177.8z"/>
	<path fill="#A35652" d="M274.3,148.7c-3.6,0-7.6,0-11.2,0s-6.8-0.4-10.1-2.2c-0.4-0.4-1.1-0.7-1.4-0.7c-4.7-0.4-8.6-2.9-12.2-5.4
		c-1.1-0.7-2.2-1.1-3.2-1.4c-1.4-0.4-2.9-0.4-4.3-0.4c-1.8,0.4-3.6,2.2-3.6,4.3c0,1.4,0,2.9,1.1,4c1.8,2.2,3.6,4.3,6.5,5.8
		c4.3,2.2,8.6,4.7,13.3,6.5c3.6,1.4,7.6,2.2,11.5,3.2c1.1,0.4,2.2,0.4,3.2,0.4c5,0,10.4,0,15.5-0.4c3.2-0.4,6.1-1.4,9.4-1.4
		c0.4,0,1.1-0.4,1.4-0.7c2.2-1.1,3.6-2.9,5-4.7c1.1-1.8,0.7-4-1.1-5c-1.4-0.7-2.9-1.4-5-1.4C284,149,279,149,274.3,148.7
		C274.3,149,274.3,148.7,274.3,148.7z"/>
	<path fill="#78433F" d="M245.9,205.9c-2.9,0-5.4-1.1-7.2-4c-0.7-1.1-1.4-1.8-2.2-2.9c-1.4-2.5-2.9-5-2.9-7.9c0-1.8-0.4-3.6-1.1-5
		c-0.4-0.4-0.4-1.1-0.4-1.8c1.4-3.6,1.8-7.2,4.3-10.4c1.8-2.2,4-3.2,6.8-2.9c0.4,0,0.7,0,0.7,0c3.2,1.4,6.8,1.4,10.1,1.4
		c7.6,0,15.1,0,22.3,0c2.2,0,4-0.4,5.8-1.1s4-0.7,5.8,0c0.7,0.4,1.4,0.7,2.5,0.7c5.4,1.4,7.9,5.4,9.7,10.1c0.4,1.4,0.4,3.2-0.4,5
		c-1.1,2.5-2.5,5-4.7,7.2c-0.7,0.7-1.4,1.4-2.2,1.4c-2.9,0.4-5.4,2.2-8.3,2.2c-1.8,0-3.6,0-5,0c-2.5,0-5,0-7.6,1.4
		c-3.2,0-6.1,1.4-9.4,2.2c-2.5,0.4-5,0.7-7.6,1.8c-2.5,1.4-5,1.8-7.6,1.8C247.3,205.9,246.6,205.9,245.9,205.9z M249.1,186.5
		c0-2.2,0.4-4.7,0.4-6.8c0-1.8-1.1-2.9-3.2-2.9c-0.7,0-1.8,0-2.5,0c-2.2,0-4.3,2.5-4.7,4.3c-0.4,1.8-0.7,4-1.4,5.8
		c-0.4,0.7-0.4,1.8,0,2.5c0.4,1.8,1.1,3.2,1.4,5c0.7,2.2,2.2,4,4.3,5c1.1,0.4,2.2,0.7,3.2,1.1c1.4,0.4,2.9,0.4,4.3-0.4
		c0.7-0.4,1.4-0.7,2.5-1.1c1.1-0.4,1.1-1.1,0.4-1.8c-0.4-0.7-1.1-1.4-1.8-1.8C249.8,192.6,248.8,189.7,249.1,186.5z M285.5,194
		c4,0.4,6.5-1.8,8.6-4.7c1.1-1.1,1.4-2.5,1.4-4c0-1.1,0-2.2,0-3.6c0-1.1-0.7-2.2-1.8-2.9c-2.5-1.8-5.4-2.9-9-2.2
		c-1.8,0.4-2.9,2.2-2.9,3.6c0.4,1.8,1.1,3.2,1.1,5c-0.4,2.2-1.1,4.3-1.8,6.5c-0.4,1.1,0,1.8,0.7,1.8c0.7,0,1.8,0,2.2,0
		C285.1,194,285.1,194,285.5,194z"/>
	<path fill="#78433F" d="M392.8,157.7c3.6,0.4,6.8,1.8,8.6,4.7c0.4,0.7,1.1,1.4,1.1,2.2c0.7,3.6,0.7,6.8-1.4,10.1
		c-1.1,1.4-1.8,2.9-3.6,3.6c-3.2,1.4-9,3.2-12.2,3.2c-2.9,0-5.8,0-8.6,0.4c-1.4,0-2.9,0-4.3,0.7c-2.9,1.4-5.8,1.1-8.6,1.1
		c-0.7,0-1.8-0.4-2.5-0.7c-1.4-0.7-2.5-1.1-4-2.2c-2.9-2.2-4.7-5-5-8.6c-0.4-1.4,0-2.9,0-4.3c0-1.8,1.1-3.2,2.5-4.3
		c3.2-2.2,7.2-3.6,10.8-5c2.2-0.7,4.3-1.1,6.8-1.1c2.9,0,5.8-0.4,8.6-0.4C385.2,157.3,389.2,157.3,392.8,157.7z M389.9,163.4
		c1.8,3.6,1.1,7.2,1.1,10.8c0,1.1,0.7,1.4,1.4,1.4c1.1-0.4,2.2-0.7,3.2-0.7c0.4,0,1.1-0.4,1.4-0.7c1.8-1.8,2.9-5.8,1.8-7.9
		c-0.4-0.7-0.7-1.4-1.1-2.2c-0.4-0.7-1.1-1.1-2.2-1.1c-1.1,0-2.2-0.4-3.6-0.4C391.3,162.7,390.6,163.1,389.9,163.4z M362.9,177.1
		c0-0.4,0.4-1.1,0-1.8c-1.1-2.5-1.4-5.4-1.4-8.3c0-0.4-0.7-0.7-1.1-0.7c-1.4,0-3.6,1.8-3.6,2.9c0,0.4,0,0.7,0,0.7
		c1.1,2.9,2.2,5.8,5,7.6c0.4,0,0.4,0,0.7,0C362.5,177.5,362.9,177.1,362.9,177.1z"/>
	<path fill="#78433F" d="M282.2,293c0.7,0.7,1.4,1.4,1.8,2.2c0.7,0.7,1.8,0.7,2.5,0.4c0.7-0.7,1.8-1.4,2.5-2.5
		c4-4,7.6-8.6,12.6-11.5c2.2-1.4,3.6-3.6,6.1-4.7s5-2.5,7.6-4c2.2-1.1,4.7-2.2,6.8-3.2c2.2-1.4,5-1.4,7.2-2.9
		c4.7-1.1,9-3.2,13.7-4.3c1.4-0.4,2.5-1.1,4-1.1c2.2,0,4-0.4,5.8-1.1c0.7-0.4,1.8-0.4,2.5-0.4c2.9-0.4,5.8,0,8.3-1.4
		c0.7-0.4,1.8-0.4,2.5-0.4c4.7-0.4,9.4,0.4,13.7-1.4c2.2,0,4.7-0.4,6.8,0.4c0.4,0,0.7,0.4,0.7,0.4c2.2-1.1,4.3,0.4,6.8,0.4
		c4,0,7.9,0,11.9,1.4c1.4,0.7,3.2,0.7,5,0c0.4,0,0.7-0.7,1.1-1.1c0.4-0.7,0-1.1-0.4-1.4c-1.4-0.7-2.9-1.8-4.7-2.2
		c-2.2,0-4-0.4-5.8-1.4c-1.4-0.4-2.9-0.7-4.3-0.7c-9,0-17.6-0.4-26.6,0c-2.2,0-4.7,0-6.8,1.1c-1.1,0.4-2.2,0.4-3.2,0.4
		c-3.2,0.4-6.5,0-9.4,1.8c-5.8-0.4-10.4,2.2-15.8,4c-4.3,1.4-8.6,2.9-13,4.3c-5,1.8-10.1,4.3-14.8,6.8c-3.6,1.8-6.5,4.7-10.1,6.5
		c-1.1,0.4-1.8,1.4-2.5,2.2c-1.1,1.1-1.8,2.2-3.2,2.9C287.6,285.1,285.1,289.1,282.2,293z"/>
	<path fill="#78433F" d="M259.9,166c-1.1,0-2.5,0-3.2-0.7c-2.2-1.1-4.7-0.7-6.5-1.8c-2.2-1.1-4.3-1.8-6.1-2.9
		c-2.5-1.1-5-2.9-7.9-3.6c-0.7,0-1.1-0.4-1.4-0.7c-3.2-2.2-6.1-5-8.6-8.3c-2.5-3.6-2.9-6.1-0.7-10.4c0.7-1.1,1.4-1.8,2.5-2.2
		c1.4-0.7,3.2-1.4,5-1.4c1.4,0,3.2,0.4,5,1.1c2.5,1.1,5,2.5,7.6,3.6c2.2,1.1,4,2.2,6.1,2.9c1.4,0.7,3.2,1.4,4.7,1.8
		c2.2,0.4,4.7,0.7,6.8,1.4c0.4,0.4,1.1,0,1.8,0c2.2,0,4,0,6.1,0c4.3,0,8.6,0,13,0c2.2,0,4.7,0,6.8,0c2.9,0,5,1.4,7.2,2.5
		c1.1,0.7,1.4,1.8,1.8,2.9c0.4,1.8,0.4,3.6-0.4,5c-0.7,1.4-1.8,2.9-2.5,4.3c-5,2.9-10.1,5.4-15.8,5.8c-3.2,0-6.5,0.4-9,0.4
		C267.5,166.3,263.5,166.3,259.9,166z M263.2,148.7c-3.6,0-6.8-0.4-10.1-2.2c-0.4-0.4-1.1-0.7-1.4-0.7c-4.7-0.4-8.6-2.9-12.2-5.4
		c-1.1-0.7-2.2-1.1-3.2-1.4c-1.4-0.4-2.9-0.4-4.3-0.4c-1.8,0.4-3.6,2.2-3.6,4.3c0,1.4,0,2.9,1.1,4c1.8,2.2,3.6,4.3,6.5,5.8
		c4.3,2.2,8.6,4.7,13.3,6.5c3.6,1.4,7.6,2.2,11.5,3.2c1.1,0.4,2.2,0.4,3.2,0.4c5,0,10.4,0,15.5-0.4c3.2-0.4,6.1-1.4,9.4-1.4
		c0.4,0,1.1-0.4,1.4-0.7c2.2-1.1,3.6-2.9,5-4.7c1.1-1.8,0.7-4-1.1-5c-1.4-0.7-2.9-1.4-5-1.4c-5,0-9.7,0-14.8,0c0,0,0,0,0-0.4
		C270.4,148.7,266.8,148.7,263.2,148.7z"/>
	<path fill="#78433F" d="M365.8,216.4c1.8,0,3.6,0,5,0c5-0.4,9.4-2.5,11.5-7.6c0.4-0.4,0.7-1.1,0.7-1.4c0.7-1.8,0.7-4,0-5.8
		c-2.2-5.4-6.5-8.6-11.9-10.8c-3.6-1.1-6.8-2.5-10.4-3.6c-3.2-0.7-6.1-2.2-8.6-4c-2.9-1.8-6.1-3.6-7.6-6.8c-0.4-0.7-1.1-1.4-1.8-1.8
		c-2.5-2.5-4.3-5.4-5.8-8.6c-1.1-2.5-2.5-5-3.6-7.6c-0.4-0.4-0.7-1.1-1.1-1.4c-0.4-0.4-1.1-0.7-1.4-0.7s-0.7,0.7-0.7,1.1
		c0,1.4,0,2.9,0.7,4.3c0.4,1.1,0.7,2.2,1.4,3.2c1.8,2.5,3.2,5.4,4.7,8.3c2.2,4,5,7.6,8.6,10.8c1.8,1.4,4,2.5,5.8,4
		c1.1,0.7,2.2,0.7,3.2,1.1c4.3,2.2,9,3.6,13.7,5c2.5,0.7,4.7,1.8,6.8,3.2c2.2,1.4,3.2,3.2,3.6,5.4s0,4-1.4,5.8
		c-1.4,1.4-2.9,2.9-5,2.9c-1.4,0-2.9,0.4-4.3,0.7c-2.5,1.1-5,1.1-7.6,0.4c-4.3-1.4-8.3-1.1-12.6-0.4c-1.8,0.4-4,0.4-5.8,0.7
		c-2.5,0.4-4,1.8-5.4,4c-0.4,0.7-0.7,1.4-0.4,2.5c0.7,1.4,1.4,2.5,3.2,2.5c1.1,0,2.2,0,3.2-0.4c1.8-0.4,3.2-1.1,5-1.8
		c2.2-0.7,4.3-1.8,6.5-1.8c1.8,0,2.9-1.4,5-1.4c1.8,0,3.6,0,5,0C364.7,216.4,365.4,216.4,365.8,216.4L365.8,216.4z"/>
	<path fill="#78433F" d="M193.7,283c0.4,4.3,0.4,7.6,1.8,10.8c0.7,1.8,0.4,4,0.7,5.8c0.7,1.8,1.1,4,1.4,5.8c0,2.2,1.8,4.3,1.4,6.5
		c0,2.2,1.1,4,1.4,5.8c0.4,2.2,0.4,4.7,1.8,6.5c0.4,1.1,0.4,2.2,0.7,3.2c1.1,2.9,1.8,6.1,3.2,9c2.2,4.3,4.7,8.6,7.6,12.6
		c0.4,0.4,0.7,0.7,1.4,1.1c0.4,0,0.7,0.4,0.7,0.4c0.4-0.4,0.7-0.7,1.1-1.1c0-0.7,0-1.8-0.4-2.5c-1.1-2.5-2.2-4.7-3.6-6.8
		c-1.8-3.2-3.2-6.8-4.3-10.4c-0.7-3.2-2.5-6.5-2.5-10.1c-1.4-2.9-1.1-6.1-2.5-9c0-0.4-0.4-0.4-0.4-0.7c-0.7-3.2,0-6.5-1.4-9.4
		c-1.1-2.5-0.4-5.8-2.2-8.3c0-2.2-0.4-4-0.4-6.1c0-2.5-1.1-5.8-2.2-9c-0.4-0.7-0.7-0.7-1.4-0.4c-0.4,0.4-1.1,0.4-1.1,0.7
		C193.7,279.7,193.7,281.9,193.7,283z"/>
	<path fill="#78433F" d="M148.7,199.1c-2.2,0.4-2.5,0.7-2.9,1.8c0,0.4,0,0.7,0,0.7c0.4,0.7,1.4,0.7,2.2,1.4
		c6.1,2.9,10.1,7.2,11.5,14c1.8,2.9,1.4,6.8,2.9,9.7c0.4,1.1,0,2.2-0.4,3.2c-1.4,2.9-2.5,5.8-3.6,8.6c-2.2,5.8-1.1,10.8,2.9,15.1
		c1.8,2.2,3.6,4,5.8,5c1.1,0.7,2.2,0.7,3.2,0c0.7-0.4,1.1-1.8,0.7-2.2c-0.7-0.7-1.1-1.4-1.8-1.8c-4-1.8-5.8-5.4-6.8-9.4
		c-0.4-2.2-0.4-2.2,0-5c0.4-2.2,1.4-4.3,2.5-6.5c1.1-2.2,1.4-4.3,1.4-6.5c0-0.7,0-1.8,0-2.5c0.4-5-1.4-9.7-3.6-14
		c-1.8-3.2-3.6-6.5-6.5-9c-1.4-1.4-3.2-2.2-5-2.9C150.1,198.7,148.7,199.1,148.7,199.1z"/>
	<path fill="#78433F" d="M375.8,267.8c-0.7,0-2.2,0.4-3.6,0.7c-3.6,1.1-6.8,2.9-10.8,3.2c-1.1,0-2.2,1.1-3.2,1.1
		c-3.6,0.7-7.2,2.2-10.8,2.2c-2.5-0.4-5,1.1-7.6,1.4c-3.6,0.4-7.2,1.8-10.8,2.2c-0.7,0-1.4,0.7-2.2,1.1c-1.1,0.7-1.8,2.2-1.4,2.9
		c0.4,1.4,2.2,2.5,3.2,1.8c1.4-0.7,3.2-0.7,5-1.1c1.8-0.4,3.2-1.1,5-1.4c4-0.7,7.6-2.2,11.9-2.2c2.5,0,4.7-1.8,7.6-1.8
		c0.7,0,1.4-0.7,2.5-0.7c5.4-1.8,10.8-3.2,16.2-5.4c0.7-0.4,1.4-0.7,2.2-1.1c0.4-0.4,1.4-1.8,1.1-2.2c-0.4-0.4-1.1-0.4-1.4-0.7
		c-0.4,0-0.7,0-0.7,0C376.9,267.8,376.6,267.8,375.8,267.8z"/>
	<path fill="#78433F" d="M263.2,223.2c1.1,0,2.2,0,2.9,0c3.2,0,6.1-0.7,9.4-1.4c2.5-0.7,4.7-2.2,7.6-2.2c0.7,0,1.8-0.4,2.5-0.7
		c3.2-1.4,6.1-2.9,9.4-4.7c1.1-0.4,1.8-1.4,2.5-2.5c0.4-0.4,0-1.1,0-1.4c-0.4-0.7-0.7-0.7-1.4-0.7c-2.2,1.1-4.7,2.2-6.8,3.2
		c-2.9,1.4-5.8,2.5-9,3.2c-3.2,0.7-6.5,2.2-10.1,2.2c-2.2,1.1-4.3,1.4-6.8,1.1c-2.2,0-4,0-5.8-0.7c-0.4-0.4-1.1-0.4-1.8-0.4
		c-1.8-0.4-3.6,0-5-0.7c-2.2-0.7-4.3-1.4-6.5-2.5c-1.1-0.4-1.4,0-2.2,0.7c-0.7,0.7-0.7,1.4,0,2.2c1.4,1.8,4,2.5,6.1,3.2
		C252.7,222.5,258.1,223.9,263.2,223.2z"/>
	<path fill="#78433F" d="M331.9,229.7c0.7-0.4,1.1-0.4,1.8-0.7c0.4-0.4,0.7-0.7,1.4-1.1c0.4-0.4,0.7-1.1,0.4-1.4
		c-0.4-0.4-0.7-1.1-1.1-1.1c-1.4-0.4-2.9-0.4-4.3-0.4c-2.5,0-4.3-1.4-5.8-3.2c-0.7-1.1-1.4-2.5-1.8-4c-0.7-1.4-0.7-2.9,0-4.3
		c0.7-1.4,1.4-3.2,2.2-4.7c0.4-1.1,1.1-2.2,1.4-3.2c0.4-0.7-0.4-1.4-1.4-1.4c-1.8,0-2.9,0.7-3.6,1.8c-1.8,2.5-2.9,5.8-3.6,8.6
		c0,0.4,0,1.1,0,1.4c0.4,1.4,0.7,2.9,1.1,4.3c1.1,3.2,3.2,6.1,6.8,7.2C327.6,228.6,329.8,229,331.9,229.7z"/>
	<path fill="#78433F" d="M213.5,186.8c2.2,0,4,0,6.1,0c1.1,0,1.4-0.4,1.8-1.4c0.4-0.7,0-1.4-1.1-2.2c-0.7-0.4-1.4-1.1-2.2-1.1
		c-4,0-7.9,0-11.9,0c-0.7,0-1.4,1.1-1.4,1.8c0,1.1,0.7,2.9,1.4,2.9C208.1,186.8,211,186.8,213.5,186.8L213.5,186.8z"/>
	<path fill="#78433F" d="M391.7,197.3c2.5,0,3.2,0,4.3,0c4.3-0.4,8.3-2.2,11.5-5.4c0.7-0.7,0.7-1.4,0.4-2.2c0-0.4-0.4-0.7-0.7-0.7
		c-1.8,0.7-3.6,1.8-5.4,2.5c-3.6,1.1-6.8,2.5-10.8,2.5c-0.4,0-1.1,0.4-1.4,0.7v0.7c0,0.7,0,1.1,0.7,1.4
		C391,197.3,392.4,197.6,391.7,197.3z"/>
	<path fill="#78433F" d="M386.6,146.2c-4,1.4-7.9,0.4-11.9,1.1c-1.1,0-2.2,0.4-3.2,1.1c-0.4,0.4-1.1,0.7-1.1,1.1
		c-0.4,0.4-0.4,1.1,0,1.4c0.4,0.4,0.7,0.7,1.4,1.1c0.4,0,0.7,0,0.7,0c2.5-0.4,4.7-1.8,7.6-1.4c2.2,0,4.7,0,6.8,0c0.4,0,0.7,0,0.7,0
		c0.4,0,1.4-1.4,1.4-2.2C388.8,147.6,387.4,146.2,386.6,146.2z"/>
	<path fill="#78433F" d="M145.4,219.2c-0.4,2.9,1.1,5.8,1.8,8.6c0.4,1.4,1.1,3.2,1.8,4.7c0.4,0.7,1.4,1.1,2.2,1.1
		c0.7-0.4,1.1-1.4,1.1-2.2c0-0.4,0-0.7,0-0.7c-1.4-4-2.5-7.9-4-11.9c0-0.4-0.4-0.4-0.4-0.7c-0.4-0.4-0.7-0.7-1.4-1.1
		C145.8,216.7,145.1,218.2,145.4,219.2z"/>
	<path fill="#78433F" d="M215.3,199.1c1.1-0.4,2.5-0.4,3.2-0.7c0.7-0.4,1.4-1.1,1.8-1.4c0.7-0.7,0.4-1.1-0.4-1.4
		c-2.9-0.7-5.8-0.7-7.9,1.4c-0.4,0.4-0.4,0.7-0.4,0.7c0.4,0.4,0.7,0.7,1.1,1.1c0.4,0,0.7,0,0.7,0
		C214.2,199.1,214.6,199.1,215.3,199.1z"/>
	<path fill="#78433F" d="M177.8,129.6c1.1,0,2.2-1.1,1.8-2.2c-0.4-0.7-1.1-1.4-1.1-2.2c-0.4-1.8-0.7-4,0.4-5.8
		c0.7-1.4,1.8-2.9,2.5-4.3c0.4-0.4,0-1.1-0.4-1.4c-0.4-0.7-1.8-0.7-2.2-0.4c-0.4,0-0.4,0.4-0.7,0.4c-2.5,1.8-3.6,4.3-4.7,6.8
		c-0.4,0.4-0.4,1.1-0.4,1.8c0.7,2.5,1.1,5,3.2,6.8C176.8,129.2,177.5,129.6,177.8,129.6z"/>
	<path fill="#78433F" d="M154.8,147.6c-0.4,0-0.7,0-0.7,0c-1.1,0-2.2,1.1-2.5,1.8c-0.7,1.8-1.4,3.6-1.8,5.8c0,0.4,0,1.1,0.4,1.8
		c0.4,1.8,0.7,3.2,1.4,4.7c0.7,1.4,1.8,2.9,3.2,3.6c0.4,0.4,1.1,0,1.1-0.7s0.4-1.8,0-2.5c-1.8-2.9-1.8-5.8-1.4-9
		c0.4-1.4,1.1-2.5,1.4-4C155.5,148.7,155.2,148,154.8,147.6z"/>
	<path fill="#78433F" d="M171.4,147.6c0.4,0.7,0.4,1.4,0.7,2.2c0.4,0.7,0.7,0.7,1.4,0.4c0.4,0,0.4,0,0.7-0.4c0.4,0,0.4-0.4,0.7-0.7
		c0.4-1.8,1.1-4,1.4-5.8c0-0.4-0.4-1.1-0.7-1.4c-0.4-0.4-1.1-0.4-1.4,0c-1.1,0.4-1.8,1.4-2.2,2.5
		C171.4,145.8,171.4,146.5,171.4,147.6z"/>
	<path fill="#78433F" d="M159.5,124.9c-0.4-0.7-0.4-1.4-0.7-1.4c-0.4,0-1.1,0-1.4,0.4c-1.1,1.1-1.8,2.2-2.5,3.2
		c-0.4,0.7,0,2.2,1.1,2.9c0.7,0.7,1.4,0.7,2.2,0c0.4-0.7,1.1-1.4,1.4-2.2C159.5,127.1,159.5,126,159.5,124.9z"/>
	<path fill="#78433F" d="M172.8,173.2c0-0.7,0-1.4-0.4-2.2c0-0.4-0.7-0.7-1.1-1.1c-0.7-0.4-1.4,0.4-1.8,1.1c-0.4,1.4,0,2.9,0.4,4
		c0,0.7,1.4,1.4,2.2,1.1c0.4-0.4,0.7-0.7,1.1-1.1c0-0.4,0-0.7,0-0.7C173.2,173.9,172.8,173.9,172.8,173.2z"/>
	<path fill="#78433F" d="M380.2,52.9c-0.7-0.7-1.4-1.8-2.2-2.5c0,0,0,0-0.4,0c-1.1,1.1-2.5,2.2-3.6,3.2c0,0.4,0.4,0.4,0.4,0.7
		c0,0.4,0,0.7-0.4,0.7c-2.2,3.6-5.4,5.8-8.6,8.3c-0.4,0.4-1.1,0.4-1.4,0.7c-4,1.1-7.6,2.2-10.8,4.7c-1.1,1.1-2.5,1.4-4,1.8
		c-2.5,0.4-4.3,1.8-6.5,2.5c-1.1,0.4-2.2,1.1-3.2,1.1c-2.5,0-4.3,1.4-6.5,2.2c-1.1,0.4-2.2,1.1-3.2,1.4c-1.4,0.4-2.9,0.4-4.3,0.7
		c-1.4,0.4-2.9,0.7-4,1.1c-1.8,0.4-3.2,1.1-5,1.4c-1.4,0.4-2.9,0.4-4.3,0.4c-0.7,0-1.8,0.4-2.5,0.7c-1.4,0.7-2.9,0.7-4.3,1.1
		c-2.9,0.4-5.8,0.7-8.3,1.4c-2.9,0.7-6.1,0.4-9.4,0.7c-0.7,0-1.1,0-1.8,0.4c-2.5,1.1-5,1.1-7.6,1.1c-7.9,0-15.5,0-23.4,0
		c-6.5,0-13.3,0-19.8,0c-3.2,0-6.8,0.4-10.1-1.1c-0.7-0.4-1.8,0-2.5-0.4c-4,0-7.9,0-11.9-1.4c-0.7-0.4-1.8,0-2.5-0.4
		c-2.2-0.4-4.7-0.4-6.8-1.1c-1.8-0.7-4-0.4-5.8-0.7c-0.4,0-0.4,0-0.7-0.4c-2.2-0.4-4.7-0.7-6.8-1.1c-1.1,0-2.2-0.4-3.2-0.7
		c-1.8-0.4-3.6-0.7-5.4-1.4c-0.7,0-1.8-0.4-2.5-0.7c-2.2-0.7-4.7-1.4-6.8-2.2c-1.1-0.4-2.2-0.7-3.2-1.1c-1.1-0.4-1.8-0.7-2.9-1.1
		c-1.1-0.4-1.8-0.7-2.9-1.1l0,0c-2.2-0.7-4.3-1.4-6.5-2.2c0,0,0,0-0.4,0c-2.2-0.7-4.3-1.8-6.1-2.9l0,0c-1.1-0.7-2.5-1.1-3.6-1.8
		c-2.9-1.4-5-3.2-6.8-5.8c-1.4-0.4-3.2-0.7-4.7-1.1c0,0.4,0,0.4,0,0.7c0,1.8,0.7,3.2,1.8,4.7c3.2,3.6,7.6,5.4,11.5,7.2
		c3.6,0.7,6.5,2.5,9.7,4c6.5,2.9,13.3,5,20.2,6.8c2.2,0.7,4.3,1.1,6.5,1.8c2.2,0.4,4.7,0.4,6.8,1.4c1.1,0.7,2.9,0.4,4.3,0.4
		c3.2,0,6.1,0.7,9.4,1.8c2.9,1.1,6.1,1.8,9.4,1.8c2.2,0,4,0,5.8,1.1c0.7,0.4,1.8,0.4,2.5,0.4c4.3,0.4,8.6,0.4,13,0.7
		c2.2,0,4,0,5.8,1.1c1.1-0.4,2.2-0.4,3.2-0.7c2.9,1.4,6.1,0.7,9.4,0.7c4.3-1.8,8.6-1.1,13-1.1c7.9-0.4,16.2-0.4,24.1-0.4
		c1.1,0,2.5,0,3.2-0.4c3.2-1.4,6.8-1.1,10.1-1.4c1.1,0,2.2,0,3.2-0.7c1.4-0.7,2.9-1.1,4.3-1.1c3.6,0.4,6.8-1.4,10.1-1.8
		c2.2-1.4,4.3-1.4,6.5-1.8c0.7,0,1.8-0.4,2.5-0.7c3.2-1.8,6.8-2.5,10.4-3.6c2.9-0.7,5.4-1.8,7.9-2.9c5.8-3.2,11.9-5.4,18-8.3
		c3.6-1.8,6.8-4,9.7-6.8c1.8-1.8,3.2-4,4.3-6.5C380.5,54,380.2,53.3,380.2,52.9z"/>
</g>
</svg>
