<?xml version="1.0" encoding="utf-8"?>
<!-- Generator: Adobe Illustrator 18.1.1, SVG Export Plug-In . SVG Version: 6.00 Build 0)  -->
<!DOCTYPE svg PUBLIC "-//W3C//DTD SVG 1.0//EN" "http://www.w3.org/TR/2001/REC-SVG-20010904/DTD/svg10.dtd">
<svg version="1.0" id="Layer_1" xmlns="http://www.w3.org/2000/svg" xmlns:xlink="http://www.w3.org/1999/xlink" x="0px" y="0px"
	 viewBox="0 0 125 125" enable-background="new 0 0 125 125" xml:space="preserve">
<g>
	<g>
		<path fill="#78433F" d="M19.6,34c0-0.8,0-1.3,0-1.9c0-0.2,0-0.5,0.1-0.7C20,30.9,20,30.5,20,30c0-0.3,0-0.6,0-1
			c-0.1-1.2,0.4-2.3,0.6-3.5c0.1-0.6,0.4-1.2,0.9-1.7c0.7-0.7,1.4-1.3,2.1-1.9c1.1-0.9,2.3-1.7,3.5-2.5c0.6-0.4,1.2-0.8,1.8-1.1
			c0.2-0.1,0.5-0.2,0.6-0.3c0.9-0.8,2-1.3,3-1.9c0.4-0.2,0.8-0.5,1.2-0.8c0.7-0.5,1.5-1,2.2-1.4c1.9-1,3.7-2.2,5.5-3.4
			c0.9-0.6,1.8-1,2.6-1.6c0.5-0.4,1.1-0.7,1.6-1.1c0.3-0.3,0.6-0.5,1-0.6c0.4-0.2,0.9-0.4,1.2-0.7c0.7-0.7,1.5-1.2,2.4-1.6
			c0.3-0.1,0.5-0.4,0.8-0.6c0.4-0.4,0.8-0.7,1.4-0.9C52.7,3.2,53,3,53.3,2.8c0.8-0.5,1.4-1.4,2.4-1.5C56.5,1,57.2,0.6,58,0.2
			C58.3,0.1,58.7,0,59,0c0.9,0,1.7,0.1,2.5,0.6c1.3,0.7,2.6,1.6,3.7,2.6c0.6,0.6,1.2,1.3,2,1.7c1.1,1.4,2.6,2.4,3.8,3.6
			c0.8,0.7,1.6,1.3,2.3,2c1.3,1.2,2.5,2.5,3.8,3.7c1.4,1.3,2.7,2.7,4.1,4c1.6,1.6,3.1,3.2,4.7,4.8c1,1,1.9,1.9,3,2.7
			c0.7,0.5,1.3,1.2,1.9,1.8c0.9,0.9,1.8,1.9,2.9,2.5c0.7,0.7,1.7,1.2,2.3,2.1c0.1,0.1,0.2,0.3,0.3,0.3c1.3,0.8,2.3,2,3.4,3.1
			c1.3,1.3,2.5,2.7,3.9,3.9c0.9,0.8,1.2,1.9,1.6,2.9c0.1,0.1,0.1,0.3,0.1,0.5c0,1,0.1,2.1-0.3,3.1c-0.1,0.2-0.1,0.5-0.1,0.7
			c0,0.8,0,1.6-0.1,2.4c0,0.3,0,0.6-0.1,1c-0.1,0.6-0.4,1-0.3,1.6c0,0.6,0,1.1,0,1.7c0,0.8-0.4,1.6-0.9,2.2
			c-0.7,0.8-1.5,1.6-2.4,2.3c-0.4,0.3-0.8,0.6-1.1,0.9c-1.6,1.6-3.3,3-5.1,4.3c-0.3,0.2-0.5,0.3-0.8,0.6c-0.9,0.9-2,1.6-3.1,2.3
			c-0.3,0.2-0.7,0.4-1,0.7c-1,1-2.3,1.7-3.4,2.7c-0.3,0.3-0.8,0.5-1.1,0.9c-0.8,0.8-1.8,1.3-2.7,2c-1.5,0.7-2.7,2-4.1,2.9
			c-0.9,0.9-2.1,1.5-3,2.4c-0.2,0.2-0.5,0.4-0.8,0.5c-1.4,0.8-2.7,1.7-3.9,2.8c-0.9,0.8-2.1,1.2-3.2,1.5c-1,0.2-2.1,0.2-3-0.4
			c-0.6-0.3-1.1-0.6-1.6-1c-0.9-0.8-1.8-1.6-2.7-2.3c-0.9-0.7-1.6-1.5-2.4-2.3c-0.3-0.3-0.7-0.7-1.1-1c-0.3-0.2-0.6-0.5-0.8-0.8
			c-0.3-0.5-0.7-0.8-1.2-1.2c-0.5-0.3-0.9-0.6-1.3-1c-3-3-6-6-9-9c-1.6-1.6-3.3-3.3-4.9-4.9c-0.1-0.1-0.2-0.2-0.4-0.3
			c-1.9-1.2-3.3-3-4.9-4.5c-2-2-3.9-4-5.9-6c-0.9-0.9-1.9-1.7-2.6-2.8c-0.3-0.4-0.9-0.6-1.2-1.1c-0.3-0.5-0.7-0.9-1.2-1.2
			c-1-1.4-2.4-2.4-3.1-3.9c-0.6-0.5-0.6-1.3-0.9-1.9c-0.2-0.5-0.2-1.1-0.1-1.7C19.6,34.4,19.6,34.1,19.6,34z"/>
		<path fill="#EB594F" d="M59.2,1.2c1.9,0.4,3.4,1.4,4.8,2.7c0.7,0.6,1.4,1.3,2.2,1.9c0.7,0.5,1.3,1.2,1.9,1.8c0.5,0.5,1,1,1.7,1.3
			c0.3,0.1,0.5,0.4,0.7,0.6c1.2,1.2,2.4,2.3,3.6,3.5c0.4,0.4,0.8,0.8,1.3,1.1c0.3,0.2,0.5,0.4,0.7,0.7c0.6,1,1.6,1.7,2.4,2.6
			c1.2,0.7,2.1,1.7,3,2.7c2.7,2.7,5.4,5.4,8.2,8.1c0.1,0.1,0.2,0.3,0.3,0.4c0,0.1,0,0.2,0,0.2c-0.5,0.6-1.1,1.2-1.8,1.6
			c-0.8,0.4-1.5,0.9-2.2,1.4c-1.1,0.8-2.2,1.6-3.3,2.3c-0.3,0.2-0.7,0.4-1,0.7c-1.2,1.2-2.7,2-3.9,3.2c-0.2,0.2-0.5,0.4-0.8,0.5
			c-1,0.5-1.9,1.2-2.8,1.8c-0.9,0.7-1.9,1.2-2.8,1.8c-0.7,0.4-1.4,0.7-2.1,1.2c-0.9,0.7-1.9,1.2-2.9,1.7c-0.4,0.2-0.9,0.5-1.2,0.8
			c-1.5,1.3-3.2,2.4-4.7,3.7c-0.2,0.2-0.5,0.3-0.8,0.5c-0.7,0.5-1.3,0.9-1.9,1.4c-0.6,0.5-1.1,0.9-1.8,1.2c-0.6,0.3-1.1,0.6-1.6,1
			c-0.2,0.2-0.4,0.2-0.7,0c-0.3-0.2-0.6-0.3-0.8-0.5c-0.5-0.7-1.1-1.1-1.7-1.7c-0.4-0.4-0.7-0.9-1.2-1.1c-0.1-0.1-0.3-0.2-0.4-0.3
			c-1.2-1-2.2-2.1-3.4-3c-1.1-0.9-2.1-2-3.1-3c-0.2-0.2-0.4-0.5-0.7-0.6c-1-0.6-1.9-1.5-2.7-2.3c-0.3-0.3-0.7-0.7-1.1-0.8
			c-0.8-0.7-1.6-1.4-2.3-2.1c-1.6-1.6-3.3-3.3-4.9-4.9c-0.8-0.8-1.6-1.6-2.5-2.2c-0.5-0.4-0.9-0.9-1.4-1.3c-0.6-0.5-1.1-1.2-1.9-1.5
			c-1.2-1-2.2-2.1-3-3.4c0-0.1,0-0.1,0-0.2c0-0.1,0.1-0.2,0.1-0.2c1.4-1.5,3-2.9,4.8-3.9c1-0.6,2-1.3,3-1.9c0.2-0.1,0.4-0.3,0.6-0.4
			c1.9-1,3.7-2.2,5.5-3.3c0.3-0.2,0.6-0.3,0.8-0.5c0.9-0.6,1.8-1.3,2.8-1.8c0.4-0.2,0.7-0.4,1-0.6c0.8-0.5,1.6-1,2.4-1.5
			c0.7-0.4,1.4-0.8,2-1.4c0.2-0.2,0.4-0.4,0.6-0.4c1-0.1,1.5-0.9,2.2-1.3c1.9-1.3,3.8-2.6,5.8-3.8c0.3-0.2,0.7-0.5,1-0.6
			c1-0.4,2-1,3-1.5C58.6,1.3,58.9,1.2,59.2,1.2z"/>
		<path fill="#A35652" d="M103.5,41.2c0,0.1,0,0.2,0,0.2c-1.4,0.9-2.3,2.2-3.7,3c-0.1,0.1-0.3,0.2-0.4,0.3c-1,1.1-2.3,1.9-3.5,2.8
			c-1.4,1.1-2.8,2-4.1,3.2c-1,1-2.3,1.8-3.4,2.6c-0.5,0.4-1.1,0.7-1.6,1.1c-1.3,0.8-2.5,1.7-3.7,2.7c-0.5,0.5-1.2,0.8-1.7,1.3
			c-0.5,0.5-1.2,0.8-1.7,1.2c-0.6,0.4-1.2,0.8-1.8,1.2c-1.4,1-2.8,1.9-4,3.1c-0.4,0.4-0.9,0.7-1.3,1c-0.6,0.5-1.2,1.1-1.8,1.6
			c-0.2,0.2-0.5,0.4-0.8,0.6c-0.2,0.1-0.5,0.1-0.7,0c-0.5-0.3-0.9-0.6-1.4-1c-0.6-0.5-1.2-1.1-1.8-1.6c-1.1-1-2.3-2-3.5-2.9
			c-0.8-0.6-1.6-1.3-2.4-2c-0.8-0.8-1.6-1.6-2.4-2.3c-0.5-0.5-1-1-1.6-1.4c-0.4-0.2-0.7-0.7-1-1c-0.1-0.1-0.1-0.4,0-0.4
			c0.6-0.4,1.2-0.8,1.8-1.2c1.4-1,2.8-1.8,4.1-2.9c0.2-0.2,0.5-0.3,0.8-0.5c0.9-0.6,1.8-1.2,2.7-2c0.6-0.6,1.3-1.1,2.1-1.6
			c2-1.2,4-2.5,6.1-3.7c1.4-0.8,2.7-1.7,4-2.6c1.1-0.8,2.3-1.5,3.2-2.5c0.2-0.2,0.5-0.3,0.8-0.5c1.4-1,2.8-2.1,4.2-3.1
			c0.3-0.2,0.7-0.4,1-0.6c0.3-0.2,0.7-0.3,1-0.6c1.1-1.1,2.6-1.6,3.8-2.5c0.3-0.2,0.9-0.2,1.1,0c1.2,0.9,2.3,1.7,3.3,2.8
			c1.6,1.6,3.2,3.2,4.8,4.7c0.6,0.6,1.2,1.3,2,1.7c0.6,0.4,1.1,1,1.4,1.6C103.4,40.9,103.4,41.1,103.5,41.2z"/>
		<path fill="#A35652" d="M104.1,44.7c-0.1,1.2,0.1,2.3-0.4,3.3c0,0.8-0.1,1.6-0.1,2.4c0,0.5,0,1,0,1.4c0.1,1.1-0.3,2-0.9,2.9
			c-0.2,0.3-0.4,0.7-0.8,0.9c-0.8,0.5-1.5,1.2-2.2,1.8c-0.7,0.7-1.4,1.5-2.4,2c-0.2,0.1-0.4,0.3-0.6,0.4c-1.2,1.3-2.7,2.2-4.1,3.3
			c-0.2,0.1-0.4,0.3-0.6,0.4c-0.7,0.7-1.5,1.2-2.3,1.7c-0.8,0.5-1.6,1.1-2.2,1.8c-0.3,0.3-0.6,0.5-1,0.7c-0.3,0.1-0.5,0.3-0.8,0.6
			c-1.1,1.1-2.3,1.9-3.6,2.7c-1.4,0.8-2.5,1.9-3.8,2.8c-1.4,1-2.7,2.2-4.3,3c-1.2,1.1-2.7,2-4.1,2.9c-0.4,0.3-0.8,0.5-1.3,0.7
			c-0.4,0.2-0.8,0-1-0.3c0-0.1-0.1-0.1-0.1-0.2c0-0.2,0-0.3,0-0.5c0.6-1.3,0.9-2.7,0.8-4.2c0-1.3,0.4-2.5,0.7-3.7
			c0.1-0.4,0.2-0.8,0.3-1.2c0-0.7,0.4-1.2,0.8-1.7c0.4-0.4,0.7-0.9,1.2-1.2c1-0.6,1.6-1.5,2.5-2.2c1.4-1.1,2.8-2.3,4.3-3.4
			c0.7-0.4,1.4-0.8,1.9-1.4c0.1-0.1,0.2-0.2,0.4-0.3c1.2-0.6,2.3-1.5,3.3-2.3c1.1-0.8,2.2-1.6,3.2-2.5c0.5-0.5,1.2-0.8,1.8-1.2
			c1.2-0.7,2.3-1.5,3.2-2.4c0.5-0.5,1.1-0.9,1.7-1.3c0.6-0.5,1.2-1,1.9-1.4c0.6-0.4,1-1,1.7-1.3c0.1-0.1,0.3-0.2,0.4-0.3
			c1-1,2.3-1.7,3.3-2.7c0.9-0.5,1.5-1.4,2.4-1.9c0,0,0.1,0,0.2,0c0.1,0,0.1,0.1,0.1,0.2C104,43.7,104.1,44.3,104.1,44.7z"/>
		<path fill="#EB594F" d="M21,32.9c0-1,0-2,0.1-3.1c0-0.2,0-0.3,0-0.5c0.3-0.8,0.3-1.7,0.5-2.6c0-0.1,0.2-0.2,0.3-0.3
			c0.2-0.1,0.3,0,0.4,0.1c0.1,0.1,0.2,0.2,0.3,0.3c1,1.1,2.1,2.2,3.4,3c0.9,0.6,1.6,1.4,2.3,2.1c0.7,0.6,1.4,1.3,2.1,1.9
			c0.8,0.6,1.5,1.4,2.2,2.2c1.4,1.4,2.8,2.8,4.3,4.2c0.5,0.4,0.9,0.9,1.5,1.2c0.3,0.1,0.5,0.4,0.7,0.6c0.8,0.9,1.7,1.7,2.7,2.3
			c0.1,0.1,0.3,0.2,0.4,0.3c0.6,1.2,1.8,1.7,2.7,2.7c0.8,0.9,1.8,1.6,2.7,2.3c0.8,0.6,1.5,1.4,2.3,2.1c0.5,0.4,0.9,0.9,1.5,1.2
			c0.4,0.2,0.7,0.7,1.1,1c0.6,0.5,0.8,1.1,0.7,1.9c-0.1,0.6-0.1,1.3-0.1,1.9c0,0.5,0,0.9-0.2,1.4c-0.1,0.3-0.1,0.6-0.1,0.9
			c-0.1,0.9,0,1.8-0.4,2.6c0,0.6-0.2,1.1-0.1,1.7c0.1,1.1-0.3,2-0.5,3c0,0.2-0.5,0.3-0.6,0.2c-0.2-0.2-0.5-0.4-0.7-0.6
			c-1.7-1.8-3.5-3.4-5.2-5.3c-1.5-1.6-3.2-3.1-4.7-4.7c-0.5-0.5-1.1-1-1.6-1.4c-0.4-0.4-0.9-0.7-1.2-1.1c-0.2-0.3-0.5-0.4-0.7-0.6
			c-1-0.7-1.9-1.5-2.5-2.5c-0.2-0.3-0.4-0.5-0.6-0.7c-1-0.9-1.9-2-3-2.7c-0.3-0.2-0.6-0.5-0.8-0.8c-0.7-1-1.5-1.8-2.4-2.7
			c-0.7-0.7-1.4-1.4-2-2c-0.2-0.2-0.4-0.5-0.7-0.7c-1.3-0.6-2-1.8-2.7-3C21,37.1,21,36.7,21,34.8C21,34.2,21,33.6,21,32.9z
			 M28.2,35.9c0.3-1-0.3-1.9-1.1-2.6c-0.6-0.5-1.1-1.2-1.7-1.7c-0.4-0.3-0.9-0.4-1.4-0.3c-0.1,0-0.3,0.1-0.4,0.2
			c-0.2,0.2-0.4,0.5-0.5,0.8c-0.4,0.8-0.7,1.6-0.6,2.5c0,0.1,0,0.2,0,0.2c-0.1,0.8,0.2,1.4,0.5,2c0.3,0.6,0.8,1.2,1.2,1.8
			c0.1,0.2,0.3,0.3,0.6,0.4c0.4,0.2,0.9,0.3,1.4,0.4c0.1,0,0.3,0,0.5-0.1c1.1-0.5,1.5-1.4,1.6-2.5C28.2,36.8,28.2,36.4,28.2,35.9z"
			/>
		<path fill="#A35652" d="M53.1,66.8c0-0.6,0.1-1.3,0.1-1.9c0-0.4,0.1-0.8,0.2-1.2c0.1-0.1,0.1-0.3,0.1-0.5c0.1-1,0.2-1.9,0.4-2.8
			c0.2-0.9,0.1-1.9,0.2-2.9c0-0.3,0.2-0.6,0.5-0.8c0.1-0.1,0.5-0.2,0.7-0.1c0.1,0,0.1,0.1,0.2,0.1c1.5,1.5,3.3,2.8,4.8,4.4
			c0.3,0.4,0.7,0.7,1.1,1c0.6,0.5,1.3,0.9,1.9,1.5c0.5,0.5,1,1,1.7,1.3c1.1,1,2.2,2.1,3.3,3.1c0.2,0.2,0.3,0.6,0.3,0.9
			c0,0.2,0,0.3,0,0.5C68,70.5,68,71.6,68,72.8c0,0.2,0,0.3-0.1,0.5c-0.3,0.5-0.4,1.1-0.3,1.6c0.1,1.1-0.4,2-0.5,3
			c-0.3,0.6-0.4,1.2-0.5,1.8c0,0.3-0.7,0.6-1,0.5c-0.4-0.2-0.7-0.3-1-0.6c-0.8-0.6-1.5-1.2-2.3-1.7c-1.3-1.3-2.8-2.3-4.1-3.7
			c-1-1-2.1-2-3.1-3c-0.2-0.2-0.4-0.5-0.7-0.6c-0.9-0.4-1.2-1.2-1.2-2.2C53.1,68,53.1,67.4,53.1,66.8C53.1,66.8,53.1,66.8,53.1,66.8
			z"/>
		<path fill="#FADFD7" d="M23.9,36.2c-0.2-0.9-0.2-1.9,0-2.8c0-0.3,0.2-0.4,0.4-0.6c0.3-0.2,0.7-0.1,0.9,0.1
			c0.7,0.8,1.3,1.6,1.9,2.4c0.1,0.1,0.1,0.3,0.1,0.4c0,0.4,0,0.8-0.1,1.2c-0.1,0.4-0.2,0.7-0.4,1.1c-0.1,0.3-0.7,0.5-1,0.3
			c-0.2-0.1-0.4-0.2-0.6-0.4C24.7,37.3,24.3,36.7,23.9,36.2z"/>
		<path fill="#FADFD7" d="M28.2,35.9c0,0.5,0,0.9,0,1.3c-0.2,1.1-0.6,2-1.6,2.5c-0.1,0.1-0.3,0.1-0.5,0.1c-0.5-0.1-0.9-0.3-1.4-0.4
			c-0.2-0.1-0.4-0.3-0.6-0.4c-0.4-0.6-0.8-1.2-1.2-1.8c-0.3-0.6-0.7-1.3-0.5-2c0-0.1,0-0.2,0-0.2c-0.1-0.9,0.2-1.7,0.6-2.5
			c0.1-0.3,0.3-0.6,0.5-0.8c0.1-0.1,0.3-0.2,0.4-0.2c0.5-0.1,0.9,0,1.4,0.3c0.6,0.5,1.2,1.1,1.7,1.7C27.9,34,28.4,34.8,28.2,35.9z
			 M23.9,36.2c0.4,0.6,0.8,1.2,1.2,1.8c0.1,0.2,0.4,0.3,0.6,0.4c0.3,0.2,0.9,0,1-0.3c0.1-0.4,0.2-0.8,0.4-1.1
			c0.1-0.4,0.1-0.8,0.1-1.2c0-0.2,0-0.3-0.1-0.4c-0.6-0.8-1.2-1.7-1.9-2.4c-0.2-0.2-0.6-0.2-0.9-0.1c-0.2,0.1-0.3,0.3-0.4,0.6
			C23.8,34.3,23.8,35.2,23.9,36.2z"/>
		<g>
			<path fill="#FADFD7" d="M70.6,25.6c0.1,0.2,0.2,0.3,0.3,0.4c0.5,0.1,0.9,0.3,1.4,0.2c0.3,0,0.5,0,0.8,0.1c0.1,0,0.2,0,0.2,0.1
				c0.3,0.2,0.6,0.5,0.8,0.8c0.2,0.4,0.4,0.8,0.5,1.2c0.1,0.4,0.3,0.7,0.5,1c0.1,0.2,0.3,0.4,0.4,0.7c0.1,0.2,0.2,0.4,0.2,0.6
				c0,0.2,0,0.3,0,0.5c0,0.3-0.1,0.6-0.3,0.8c-0.5,0.8-1.2,1.5-1.8,2.1c-0.2,0.2-0.4,0.3-0.7,0.4c-0.2,0.1-0.5,0.2-0.7,0.2
				c-0.2,0-0.4,0-0.6,0c-0.9,0-1.8,0-2.7,0c-0.3,0-0.5,0-0.7-0.2c-0.3-0.1-0.6-0.2-0.8-0.4c-0.3-0.1-0.5-0.3-0.8-0.4
				c-0.3-0.1-0.6-0.1-0.9-0.2c-0.3-0.1-0.5-0.1-0.8,0c-0.2,0.1-0.3,0.1-0.5,0.1c-0.4,0-0.7,0.2-1.1,0.3c-0.3,0.1-0.7,0-1,0.1
				c-0.6,0.2-1.3,0.2-1.9,0.2c-0.4,0-0.7,0.1-1,0.3c-0.8,0.7-1.8,1.2-2.4,2.2c-0.1,0.2-0.3,0.4-0.5,0.6c-0.4,0.2-0.7,0.6-1,0.8
				c-0.3,0.3-0.7,0.5-1.1,0.7c-0.5,0.3-0.9,0.7-1.3,1c-0.4,0.3-0.9,0.6-1.2,0.9c-0.4,0.3-0.8,0.5-1.3,0.6c-0.3,0-0.6,0.2-0.9,0.2
				c-0.3,0-0.7,0-1,0c-0.6,0-1.1-0.2-1.6-0.4c-0.2-0.1-0.4-0.3-0.7-0.4c-0.4-0.2-0.6-0.4-0.9-0.8c-0.4-0.6-0.5-0.8-0.8-1.6
				c0-0.4-0.3-0.6-0.3-1c0-0.3-0.2-0.6-0.2-0.9c0-0.4-0.3-0.7-0.6-0.9c-0.4-0.2-0.8-0.6-1.1-0.9c-0.3-0.3-0.4-0.6-0.6-1
				c-0.3-0.7-0.4-1.4-0.3-2.1c0-0.4,0.2-0.8,0.5-1c0.6-0.4,1.1-0.9,1.6-1.3c0.2-0.2,0.4-0.3,0.7-0.4c0.3-0.1,0.5-0.3,0.7-0.6
				c0.2-0.3,0.2-0.6,0.3-1c0,0,0-0.1-0.1-0.1c-0.2-0.4-0.6-0.5-1-0.5c-0.3,0-0.5,0.2-0.7,0.2c-0.5,0-1,0.1-1.5,0
				c-0.4,0-0.8-0.2-1.1-0.6c-0.1-0.1-0.2-0.3-0.3-0.4c-0.2-0.3-0.5-0.4-0.9-0.5c-0.3,0-0.5,0-0.8,0c-0.2,0-0.4-0.1-0.6-0.3
				c-0.4-0.4-0.6-0.9-0.7-1.5c-0.1-0.8,0.2-1.4,0.7-2c0.3-0.4,0.7-0.6,1.1-0.8c0.3-0.1,0.5-0.1,0.8-0.1c0.4,0.2,0.8,0.2,1.2,0.4
				c0.3,0.2,0.6,0.3,1,0.4c0.5,0.3,1.1,0.2,1.6,0.1c0.3-0.1,0.5-0.1,0.8-0.1c0.7,0,1.5,0,2.2,0c0.2,0,0.3,0.1,0.5,0.2
				c0.2,0.1,0.4,0.2,0.6,0.2c0.6,0,1.1,0,1.7-0.1c0.2,0,0.3,0,0.5-0.1c0.4-0.2,0.8-0.1,1.3,0c0.2,0,0.3,0.1,0.5,0.1
				c0.6,0.1,1.1-0.1,1.5-0.5c0.3-0.3,0.6-0.5,0.8-0.9c0.4-0.6,1-0.9,1.6-1.3c0.1-0.1,0.2-0.1,0.4-0.1c0.5,0,0.8-0.2,1.1-0.5
				c0.2-0.1,0.3-0.2,0.5-0.4c0.3-0.2,0.7-0.4,1-0.7c0.1-0.1,0.3-0.2,0.4-0.3c0.9-0.4,1.6-1,2.4-1.5c0.5-0.3,1.1-0.7,1.6-1.1
				c0.3-0.2,0.6-0.3,1-0.3c0.4,0,0.8,0,1.2,0c0.1,0,0.3,0,0.4-0.1c0.3-0.3,0.8-0.5,1.1-0.9c0.2-0.2,0.4-0.3,0.6-0.4
				c0.2-0.1,0.5-0.2,0.7-0.1c0.1,0.1,0.2,0.1,0.4,0.1c0.5,0.1,0.8,0.4,1.1,0.8C70,14,70,14.3,70,14.6c-0.1,0.4-0.3,0.7-0.5,1
				c-0.1,0.1-0.2,0.2-0.3,0.3c-0.2,0.2-0.4,0.4-0.7,0.6c-0.1,0.1-0.1,0.4,0,0.5c0.2,0.2,0.5,0.3,0.7,0.5c0.2,0.2,0.4,0.4,0.4,0.6
				c0,0.2,0.2,0.4,0.2,0.6c0.1,0.3,0.2,0.5,0.3,0.7c0.3,0.4,0.5,0.9,0.5,1.4c0,0.3,0.1,0.5,0.3,0.7c0.1,0.1,0.2,0.2,0.3,0.3
				c0.1,0.1,0.2,0.2,0.2,0.3c0.1,0.6,0.1,1.1,0,1.7c0,0.2-0.1,0.3-0.2,0.5C71.2,24.7,70.9,25.1,70.6,25.6z M66.5,29.4
				c0.1-0.1,0.2-0.2,0.2-0.3c0.1-0.1,0.1-0.1,0.2-0.2c0-0.1,0-0.2,0-0.2c0-0.1-0.2-0.2-0.3-0.2c-0.1,0-0.2,0-0.2,0.1
				c-0.2,0.2-0.5,0.4-0.7,0.6c-0.3,0.3-0.7,0.6-1.1,0.9c-0.3,0.2-0.5,0.3-0.7,0.5c-0.3,0.2-0.5,0.5-0.7,0.7
				c-0.2,0.2-0.3,0.3-0.4,0.5c0,0-0.1,0.1-0.1,0.1c0,0.1,0,0.2,0.1,0.2c0,0.1,0.1,0.1,0.2,0.1c0.5-0.1,0.8-0.5,1.2-0.8
				c0.1-0.1,0.3-0.2,0.5-0.2c0.5,0,0.9,0,1.4,0c0.1,0,0.2,0.1,0.2,0.1c0.1,0.1,0.1,0.2,0.1,0.2c0.2,0.3,0.4,0.4,0.7,0.4
				c0,0,0.1,0,0.1,0c0.8-0.1,0.7,0,1.1,0.6c0.1,0.1,0.2,0.3,0.3,0.4c0.1,0.1,0.2,0.2,0.3,0.3c0.2,0.1,0.5,0.2,0.7,0.4
				c0.3,0.2,0.7,0.2,1.1,0.4c0.6,0.1,1.2-0.1,1.7-0.3c0,0,0.1,0,0.1-0.1c0.5-0.4,0.9-0.9,1.4-1.4c0.2-0.2,0.2-0.4,0.4-0.7
				c0-0.1,0.1-0.2,0-0.2c-0.2-0.3-0.3-0.7-0.5-1c-0.1-0.2-0.4-0.3-0.6-0.5c-0.1,0-0.1-0.1-0.2-0.2c-0.1-0.1-0.1-0.1-0.1-0.2
				c0-0.3,0-0.7,0-1c0-0.2,0-0.4-0.1-0.6c0-0.1-0.1-0.2-0.2-0.2c-0.2-0.1-0.5-0.1-0.7,0c-0.2,0.1-0.3,0.3-0.5,0.4
				c-0.1,0-0.2,0-0.2,0c-0.1-0.1-0.3-0.2-0.3-0.4c-0.2-0.3-0.4-0.4-0.7-0.5c-0.1,0-0.2,0-0.2,0c-0.2,0.2-0.4,0.5-0.4,0.8
				c0,0.2,0,0.3,0,0.5c0,0.2-0.1,0.3-0.3,0.4c-0.2,0.1-0.3,0.3-0.3,0.5c0,0.3,0.2,0.5,0.3,0.8c0,0.1,0,0.3-0.1,0.4
				c-0.1,0.1-0.3,0.1-0.5,0.1c-0.1,0-0.2-0.2-0.2-0.3c0-0.7-0.1-0.8-0.8-0.8c-0.2,0-0.4,0-0.6,0C66.6,29.5,66.5,29.5,66.5,29.4z
				 M62.6,28.8c0.2,0.1,0.4,0.1,0.5,0.2c0.1,0,0.3-0.3,0.3-0.3c-0.1-0.2-0.1-0.3-0.2-0.5c-0.6-0.6-1.2-1.2-1.9-1.7
				c-0.4-0.2-0.8-0.3-1.2-0.3c-0.4,0-0.9,0.5-0.9,1c0,0.4,0.2,0.7,0.2,1c0,0.4,0.1,0.8,0.2,1.1c0.1,0.1,0,0.3,0,0.5
				c0,0.1-0.1,0.2-0.1,0.2c-0.2,0.1-0.5,0.2-0.7,0.3c-0.2,0.1-0.4-0.2-0.4-0.4c0-0.1,0.1-0.3,0.1-0.4c0.1-0.2,0.1-0.5,0-0.7
				c-0.1-0.2-0.1-0.3-0.1-0.5c-0.1-0.4-0.3-0.6-0.6-0.8c-0.1,0-0.2-0.1-0.2,0c-0.4,0.1-0.7,0.3-1,0.5c-0.1,0.1-0.2,0.2-0.3,0.3
				c-0.2,0.4-0.5,0.8-0.3,1.3c0.1,0.2,0.1,0.4,0.1,0.6c0.1,0.6,0.3,1.2,0.6,1.8c0.1,0.2,0.3,0.4,0.6,0.5c0.1,0,0.2,0,0.2,0
				c0.2-0.1,0.4-0.4,0.3-0.6c0-0.1-0.1-0.2-0.1-0.2c-0.1-0.2,0.1-0.5,0.4-0.4c0.2,0.1,0.3,0.1,0.5,0.2c0.3,0.1,0.6,0.1,0.9,0
				c0.3-0.1,0.5-0.3,0.8-0.4c0.4,0,0.6-0.3,0.7-0.6c0.1-0.2,0.2-0.5,0.3-0.7c0.1-0.3,0.3-0.6,0.6-0.8c0.1-0.1,0.2-0.1,0.3-0.2
				C62.3,28.8,62.4,28.8,62.6,28.8z M64.5,19.4C64.4,19.4,64.4,19.4,64.5,19.4c-0.2-0.2-0.2-0.4-0.1-0.5c0.2-0.2,0.5-0.2,0.6-0.5
				c0-0.1,0-0.2,0-0.2c0-0.1-0.1-0.1-0.2-0.1c-0.1,0-0.2,0-0.2,0c-0.2,0.1-0.3,0.1-0.5,0.2c-0.1,0-0.2,0-0.2-0.1
				c0-0.1-0.1-0.2,0-0.2c0.3-0.3,0.5-0.6,0.8-0.8c0.1-0.1,0.2-0.1,0.3-0.1c0.2,0,0.4,0,0.6,0c0.3,0,0.5,0.1,0.7,0.2
				c0,0,0.1,0,0.1,0.1c0.1,0.1,0.1,0.1,0.1,0.2c0,0.1,0,0.2-0.1,0.2c-0.2,0.1-0.5,0.1-0.7,0.3c-0.1,0.1-0.1,0.1-0.1,0.2
				c0.1,0.2,0.3,0.3,0.4,0.4c0.1,0,0.2,0.1,0.2,0.1c0.1,0,0.2-0.1,0.4-0.1c0.4-0.1,0.6-0.4,0.7-0.7c0-0.2,0.1-0.3,0.2-0.5
				c0-0.1-0.1-0.2-0.1-0.2c-0.1-0.4-0.3-0.6-0.7-0.7c-0.3-0.1-0.6-0.1-0.8-0.3c-0.1,0-0.1-0.1-0.1-0.2c0.1-0.2,0.3-0.2,0.4-0.3
				c0.1-0.1,0.1-0.3,0-0.4c-0.1-0.1-0.2-0.2-0.3-0.3c-0.7-0.3-1.2,0.2-1.4,0.7c0,0.1,0,0.3,0,0.4c0,0.2-0.1,0.3-0.3,0.4
				c-0.6,0.1-1,0.4-1.4,0.8c-0.1,0.1-0.2,0.2-0.3,0.3c-0.2,0.2-0.4,0.4-0.6,0.4c-0.2,0.1-0.4,0.2-0.6,0.2c-1.1,0.4-0.9,0.2-1.6,1
				c-0.1,0.1-0.2,0.2-0.3,0.3c0,0,0,0.1-0.1,0.1c-0.1,0.1,0,0.3,0,0.4c0.2,0.3,0.3,0.3,0.7,0.2c0,0,0.1,0,0.1-0.1
				c0.2-0.1,0.3,0,0.4,0.1c0.1,0.3,0.2,0.6,0.2,0.9c0,0.4,0.2,0.7,0.4,1.1c0,0.1,0.1,0.1,0.2,0.1c0.3,0.1,0.7-0.1,0.7-0.4
				c0.1-0.4,0.1-0.9,0-1.3c-0.3-0.3-0.1-0.8-0.3-1.1c-0.1-0.3,0-0.4,0.2-0.5c0.1-0.1,0.1-0.1,0.2-0.2c0,0,0.1,0,0.1-0.1
				c0.1,0,0.3,0,0.3,0.1c0.2,0.5,0.5,0.9,0.7,1.4c0.1,0.1,0.2,0.2,0.3,0.2c0.3,0.1,0.6,0.1,0.9,0c0.3-0.1,0.6-0.3,0.9-0.6
				c0.2-0.2,0.2-0.6-0.1-0.8c-0.1-0.1-0.2-0.1-0.2-0.1C64.9,19.2,64.7,19.3,64.5,19.4z M64.7,23c0.1,0.6,0.3,1.1,0.6,1.6
				c0.2,0.3,0.3,0.6,0.4,0.9c0.1,0.2,0.3,0.4,0.6,0.5c0.3,0,0.5,0,0.8,0c0.1,0,0.3-0.1,0.4-0.1c0.3-0.2,0.5-0.4,0.7-0.6
				c0.1-0.1,0.1-0.2,0-0.4c0-0.1-0.1-0.2-0.1-0.2c-0.1-0.2-0.3-0.2-0.4-0.1c0,0-0.1,0-0.1,0.1c-0.1,0.1-0.1,0.1-0.2,0.2
				c-0.1,0.1-0.2,0.1-0.2,0c0-0.1-0.1-0.2-0.1-0.2c0.2-0.3,0.4-0.7,0.5-1c0-0.1-0.1-0.4-0.3-0.4c-0.1,0-0.3,0-0.4,0
				c-0.2,0-0.3,0.1-0.5,0.2c-0.1,0-0.3,0-0.3-0.1c-0.1-0.1-0.1-0.3,0-0.3c0,0,0.1-0.1,0.1-0.1c0.2-0.1,0.4-0.3,0.6-0.4
				c0.1-0.1,0.2-0.1,0.4,0c0.2,0.1,0.5,0.2,0.7,0.2c0.2,0,0.4,0,0.6,0c0.2,0,0.3,0.2,0.2,0.4c-0.1,0.2-0.2,0.3-0.3,0.4
				c-0.1,0.1,0,0.4,0.1,0.5c0.3,0.3,0.7,0.3,1,0c0.3-0.2,0.5-0.5,0.4-0.9c0,0,0-0.1,0-0.1c0-0.6-0.3-1.1-0.9-1.2
				c-0.2-0.1-0.5-0.1-0.7-0.1c0,0-0.1-0.1-0.1-0.1c0-0.1,0-0.2,0-0.2c0.1-0.1,0.2-0.1,0.3-0.2c0.1-0.1,0.1-0.3,0.1-0.5
				c-0.1-0.1-0.3-0.2-0.4-0.2c-0.5,0.1-1,0.4-1.2,0.8c-0.1,0.1-0.1,0.2-0.2,0.3c-0.1,0.2-0.3,0.3-0.5,0.3c-0.1,0-0.3,0-0.4,0
				c-0.1,0-0.2,0-0.2,0.1C65.3,22.2,64.9,22.5,64.7,23z M38.7,23.2c0,0.2,0,0.3,0,0.4c0,0.2,0.1,0.4,0.3,0.5
				c0.4,0.3,0.9,0.6,1.4,0.6c0.2,0.1,0.5,0.2,0.7,0.2c0.3,0,0.6,0.2,0.7,0.5c0.1,0.2,0.2,0.4,0.3,0.5c0.1,0.2,0.3,0.3,0.6,0.3
				c0.2,0,0.4,0,0.5-0.1C43.5,26,43.7,26,44,26c0.1,0,0.3,0,0.4,0c0.2,0,0.3-0.1,0.4-0.3c0.2-0.2,0.3-0.5,0.4-0.8
				c0.1-0.4,0.3-0.6,0.6-0.7c0.1,0,0.1-0.1,0.2-0.2c0.2-0.1,0.2-0.4,0.1-0.6c-0.1-0.3-0.3-0.5-0.6-0.6c-0.2-0.1-0.4-0.2-0.6-0.2
				c-0.6-0.1-1.2,0.1-1.8-0.2c-0.1,0-0.2,0-0.3,0c-0.7,0-1.4-0.1-2.1-0.1c-0.4,0-0.8,0-1.2,0c-0.3,0-0.6,0.2-0.8,0.3
				c-0.1,0-0.1,0.1-0.1,0.2C38.7,23,38.7,23.1,38.7,23.2z M44.5,30.3c-0.1,0-0.2,0-0.3,0c-0.3,0-0.5,0.1-0.7,0.3
				c-0.1,0.2-0.3,0.3-0.4,0.5c-0.1,0.1-0.2,0.3-0.2,0.5c0,0.3,0,0.7,0,1c0,0.4,0.2,0.8,0.3,1.2c0,0.1,0.1,0.2,0.1,0.2
				c0.3,0.3,0.5,0.6,0.8,0.8c0.2,0.2,0.5,0.3,0.8,0.4c0.1,0,0.3,0,0.4,0c0.2-0.1,0.5-0.2,0.7-0.4c0.5-0.4,0.7-0.9,0.7-1.4
				c0-0.7-0.3-1.2-0.8-1.7c-0.1-0.1-0.3-0.1-0.5-0.1c-0.3,0.1-0.6,0.4-0.7,0.7c-0.1,0.1,0,0.4,0.1,0.6c0.1,0.1,0.3,0.2,0.5,0.1
				c0.1,0,0.2-0.1,0.2-0.1c0.1,0,0.2,0.1,0.3,0.2c0,0.2-0.1,0.4-0.2,0.6c-0.3,0.2-0.6,0.2-0.8,0.1c-0.6-0.5-0.8-1.2-0.7-1.9
				c0-0.2,0.1-0.3,0.3-0.4c0.1-0.1,0.3-0.1,0.5-0.2c0.2-0.1,0.3-0.3,0.2-0.6c0-0.1-0.1-0.3-0.2-0.3C44.6,30.3,44.5,30.3,44.5,30.3z
				 M49.3,35.1c0,0.9,0.3,1.6,0.6,2.3c0.1,0.2,0.3,0.3,0.4,0.5c0.3,0.3,0.7,0.2,0.8-0.2c0.1-0.2,0.1-0.4,0-0.6
				c-0.1-0.2-0.1-0.3-0.1-0.5c0-0.1,0-0.3,0.1-0.4c0.1-0.1,0.2-0.3,0.3-0.4c0.1-0.1,0.2-0.1,0.3,0c0.2,0.2,0.2,0.5,0.5,0.7
				c0.1,0.1,0.3,0.1,0.5,0c0.3-0.2,0.4-0.4,0.3-0.6c-0.1-0.4-0.3-0.7-0.3-1.1c0,0,0-0.1,0-0.1c-0.2-0.5-0.4-1-0.6-1.4
				c-0.1-0.1-0.2-0.2-0.4-0.2c-0.1,0-0.3,0-0.4,0c-0.2,0-0.3,0.2-0.3,0.3c0,0.3,0,0.5,0.1,0.7c0.1,0.2,0.1,0.3,0.1,0.5
				c-0.1,0.2-0.2,0.4-0.4,0.4c-0.1,0-0.2,0-0.2,0c-0.2-0.1-0.3-0.3-0.5-0.4c-0.1-0.1-0.2-0.2-0.3-0.2c-0.2-0.1-0.6,0-0.6,0.3
				C49.3,34.9,49.3,35.1,49.3,35.1z M56.2,25c0.1,0,0.1,0,0.1,0.1c0.1,0.1,0.2,0.3,0.3,0.4c0.1,0.1,0.2,0.2,0.3,0.2
				c0.3,0.2,0.8-0.1,0.8-0.4c0,0,0-0.1,0-0.1c-0.1-0.3-0.3-0.6-0.4-0.9c-0.1-0.3-0.2-0.6-0.3-0.8c-0.2-0.3-0.2-0.7-0.3-1
				c0-0.1-0.2-0.2-0.3-0.3c-0.1-0.1-0.3,0-0.4,0c-0.2,0.1-0.3,0.3-0.3,0.5c0,0.3,0,0.5,0,0.8c0,0.2-0.1,0.4-0.3,0.5
				c-0.1,0.1-0.3,0.1-0.5,0c-0.2-0.2-0.4-0.5-0.7-0.6c-0.1,0-0.3,0-0.3,0.1c-0.2,0.3-0.3,0.5-0.1,0.8c0,0.8,0.4,1.5,0.6,2.2
				c0,0.1,0.2,0.3,0.3,0.4c0.1,0.1,0.4,0.1,0.6,0c0.2-0.1,0.3-0.4,0.2-0.6c0-0.1-0.1-0.2-0.2-0.3c-0.1-0.2,0-0.3,0.1-0.5
				C55.8,25.3,56,25.1,56.2,25z M55.6,33.7c0.1,0,0.2,0.1,0.3,0.1c0.2,0.1,0.3,0,0.5-0.1c0.2-0.2,0.3-0.6,0.1-0.8
				c-0.4-0.4-0.7-0.9-1.1-1.3c-0.1-0.1-0.2-0.2-0.4-0.4c-0.1-0.1-0.3-0.2-0.5-0.2c-0.2,0-0.3,0-0.5,0c-0.3,0-0.6,0.2-0.7,0.4
				c-0.1,0.2-0.3,0.4-0.3,0.7c0,0.3-0.1,0.6,0.1,0.9c0.2,0.3,0.1,0.7,0.2,1c0.2,0.4,0.2,0.7,0.2,1.1c0,0.1,0.1,0.2,0.1,0.2
				c0,0.1,0.2,0.2,0.3,0.2c0.1,0,0.2-0.1,0.2-0.2c0.1-0.2,0.3-0.4,0.4-0.7c0.1-0.3,0.2-0.5,0.4-0.6C55.1,34,55.4,33.9,55.6,33.7z
				 M46.3,30.1c0,0.7,0.2,1.3,0.6,1.9c0.1,0.1,0.2,0.2,0.3,0.3c0.3,0.1,0.5,0.3,0.8,0.3c0.2,0,0.3,0,0.5,0c0.2-0.1,0.5-0.2,0.7-0.4
				c0.3-0.2,0.5-0.5,0.6-0.8c0.1-0.2-0.1-0.4-0.1-0.6c0-0.5-0.2-0.9-0.5-1.3c-0.1-0.2-0.2-0.3-0.4-0.5c-0.1-0.2-0.3-0.2-0.4-0.3
				c-0.6-0.3-1.1-0.1-1.7,0.3c0,0-0.1,0.1-0.1,0.1C46.5,29.4,46.2,29.7,46.3,30.1z M65.3,26.2c0.1-0.4-0.1-0.8-0.2-1.2
				c-0.1-0.3-0.2-0.5-0.4-0.6c-0.2-0.2-0.4-0.3-0.7-0.4c-0.6-0.3-1.2-0.2-1.6,0.4c-0.1,0.1-0.2,0.3-0.2,0.5c0,0.2,0,0.4,0.1,0.6
				c0.1,0.4,0.3,0.7,0.4,1.1c0.1,0.2,0.1,0.3,0.2,0.5c0.2,0.3,0.5,0.6,0.7,0.9c0.1,0.1,0.1,0.1,0.2,0.1c0.3,0.1,0.6,0,0.8-0.2
				C65.1,27.3,65.4,26.9,65.3,26.2z M52.5,28.5c0-0.2,0-0.4,0-0.5c0-0.4-0.2-0.7-0.5-1c-0.1-0.1-0.3-0.2-0.4-0.3
				c-0.4-0.3-0.8-0.2-1.2-0.2c-0.3,0.2-0.6,0.2-0.8,0.5c-0.1,0.1-0.2,0.2-0.2,0.3c0.2,0.5,0.2,0.9,0.2,1.4c0,0.2,0,0.3,0.1,0.5
				c0.2,0.4,0.3,0.8,0.6,1.1c0.1,0.1,0.2,0.2,0.3,0.2c0.3,0.1,0.6,0.1,0.9,0c0.3-0.1,0.5-0.3,0.7-0.6c0.1-0.3,0.3-0.5,0.3-0.8
				C52.4,28.9,52.5,28.6,52.5,28.5z M48.3,39.9c0.4,0.1,0.8-0.2,1.2-0.6c0.1-0.1,0.1-0.1,0.2-0.2c0.2-0.3,0.2-0.5,0.1-0.8
				c0-0.1-0.2-0.2-0.3-0.2c-0.2,0.1-0.5,0.2-0.7,0.4c-0.2,0.1-0.5,0.2-0.7,0.1c-0.1,0-0.2-0.1-0.2-0.1c-0.1-0.3-0.3-0.5-0.3-0.8
				c0-0.3,0.2-0.5,0.4-0.6c0.2,0,0.4,0,0.6-0.1c0.1,0,0.1-0.1,0.2-0.2c0-0.1,0.1-0.3,0-0.4c0-0.2-0.1-0.3-0.3-0.4
				c-0.3-0.1-0.6-0.2-0.9-0.2c-0.1,0-0.3,0-0.4,0.1c-0.3,0.2-0.6,0.4-0.7,0.7c-0.2,0.4-0.4,0.8-0.4,1.2c0,0.2,0,0.4,0.1,0.6
				c0.2,0.6,0.5,1,1,1.3c0.1,0.1,0.2,0.1,0.4,0.1C47.8,39.9,48,39.9,48.3,39.9z M57.6,21.9c0,0.5,0,0.9,0,1.2c0.2,0.5,0.3,1,0.5,1.4
				c0.1,0.1,0.2,0.3,0.4,0.3c0.1,0,0.3,0,0.4,0c0.1-0.1,0.2-0.2,0.2-0.3c0-0.2-0.1-0.4-0.1-0.6c0-0.1,0-0.2,0.1-0.2
				c0,0,0-0.1,0.1-0.1c0.4-0.3,0.7-0.6,1.3-0.5c0,0,0.1,0,0.1,0c0.1,0,0.2-0.2,0.2-0.3c0-0.3,0-0.5-0.2-0.7c-0.4-0.5-0.9-1-1.4-1.4
				c-0.1-0.1-0.3-0.2-0.5-0.2c-0.2,0-0.3,0-0.5,0c-0.1,0-0.2,0-0.2,0.1c-0.2,0.2-0.3,0.5-0.4,0.8C57.6,21.7,57.6,21.9,57.6,21.9z
				 M48.4,23.1c-0.3,0-0.8,0.3-1.3,0.3c0,0-0.1,0-0.1,0.1c-0.1,0.1-0.2,0.2-0.3,0.3c0,0.1,0,0.3,0.1,0.3c0.2,0,0.3,0.1,0.5,0.1
				c0.2,0.1,0.4,0.2,0.5,0.4c0.1,0.2,0.2,0.4,0.2,0.6c0,0.3-0.3,0.4-0.5,0.6c-0.1,0.1-0.2,0.2-0.2,0.3c0,0.1,0,0.2,0,0.2
				c0,0.1,0.1,0.1,0.2,0.1c0.4-0.2,0.8-0.5,1.2-0.7c0.1-0.1,0.2-0.1,0.3-0.2c0.5-0.4,1-0.8,1.5-1.2c0.2-0.1,0.3-0.3,0.5-0.4
				c0.1-0.1,0.1-0.1,0.2-0.2c0.1-0.1,0.1-0.2,0-0.2c-0.1-0.1-0.2-0.2-0.3-0.2c0,0-0.1,0-0.1,0.1c-0.3,0.1-0.6,0.3-0.9,0.6
				c-0.3,0.2-0.5,0.1-0.7-0.2c0,0,0-0.1-0.1-0.1C49.1,23.2,48.9,23.1,48.4,23.1z M67.8,15c0,0,0.1,0,0.1,0c0.2-0.1,0.4-0.2,0.6-0.3
				c0.2-0.1,0.3-0.3,0.3-0.5c0-0.2-0.1-0.3-0.3-0.3c-0.2,0-0.4,0-0.6,0.2c-0.1,0.1-0.2,0.2-0.2,0.3c-0.2,0.2-0.2,0.4,0.1,0.7
				C67.7,15,67.7,15,67.8,15z"/>
			<path fill="#FADFD7" d="M70.2,31.2c0-0.2-0.1-0.3-0.2-0.5c0-0.1,0-0.2,0-0.2c0.3-0.2,0.6-0.5,0.9-0.7c0.1-0.1,0.4-0.1,0.5,0
				c0.4,0.1,0.7,0.2,1,0.5c0.4,0.4,0.5,0.5,0,0.9c-0.3,0.3-1.6,1.2-2.1,1.4c-0.1,0.1-0.2,0.1-0.3,0.2c-0.1,0-0.2,0-0.3,0
				c-0.5-0.1-0.9-0.3-1.2-0.7c-0.1-0.1,0-0.4,0.1-0.4c0.1,0,0.2-0.1,0.4-0.1c0.3,0,0.5,0,0.8-0.1C70,31.5,70.1,31.4,70.2,31.2z"/>
			<path fill="#FADFD7" d="M72.3,32.4c0,0,0,0.1,0,0.1c-0.2,0.3-0.4,0.4-0.6,0.6c-0.1,0.1-0.3,0.1-0.5,0c0,0-0.1,0-0.1-0.1
				c0,0,0-0.1,0-0.1c0.3-0.3,0.7-0.5,1.1-0.6C72.2,32.4,72.3,32.4,72.3,32.4L72.3,32.4z"/>
			<path fill="#FADFD7" d="M72.3,32.4c0,0,0-0.1,0-0.1c0.2-0.3,0.5-0.6,0.8-0.8c0.1,0,0.1,0,0.2,0.1c0,0,0,0.1,0,0.1
				c-0.2,0.3-0.4,0.5-0.7,0.7C72.5,32.4,72.4,32.4,72.3,32.4L72.3,32.4z"/>
			<path fill="#FADFD7" d="M57.2,30c-0.1-0.1-0.2-0.2-0.3-0.3c-0.1-0.1-0.1-0.2,0-0.4c0.1-0.2,0.2-0.4,0.4-0.5c0,0,0.1,0,0.1,0
				c0.1,0,0.1,0.1,0.1,0.2C57.6,29.4,57.6,29.8,57.2,30z"/>
			<path fill="#FADFD7" d="M60.8,28.7c-0.3-0.2-0.4-0.4-0.4-0.8c0-0.1,0.2-0.3,0.4-0.2c0.2,0.1,0.3,0.2,0.3,0.4c0,0.1,0.1,0.3,0,0.4
				C61,28.6,60.9,28.6,60.8,28.7z"/>
			<path fill="#FADFD7" d="M41.2,22.9c0.3,0,0.7,0,1,0c0.1,0,0.3,0,0.4,0c0.7,0.2,1.3,0.2,2,0.2c0.2,0,0.3,0.1,0.5,0.2
				c0,0,0,0.1,0.1,0.1c0,0.1,0,0.2-0.1,0.2c-0.4,0-0.9,0-1.3,0c-0.4,0-0.8,0-1.2,0c-0.1,0-0.1,0.1-0.2,0.2c0,0.1,0,0.2,0.1,0.2
				c0.2,0.1,0.3,0.1,0.5,0.2c0.1,0.1,0.2,0.1,0.3,0.2c0,0,0,0.1,0,0.1c0,0-0.1,0.1-0.1,0.1c-0.4,0.1-0.8,0.1-1.1-0.1
				c-0.5-0.2-1-0.4-1.6-0.4c-0.1,0-0.3-0.1-0.4-0.1c-0.3-0.1-0.5-0.3-0.7-0.6c-0.1-0.1-0.1-0.3,0-0.3c0.1-0.1,0.3-0.2,0.4-0.2
				C40.3,22.9,40.7,22.9,41.2,22.9C41.2,22.9,41.2,22.9,41.2,22.9z"/>
			<path fill="#FADFD7" d="M44.7,24.7c0,0.1,0,0.2,0,0.2c0,0.1-0.2,0.2-0.3,0.2c-0.1,0-0.1-0.1-0.2-0.2c0-0.1,0-0.2,0-0.4
				c0-0.1,0.1-0.1,0.2-0.2c0.1,0,0.3,0.1,0.3,0.2C44.7,24.6,44.7,24.7,44.7,24.7z"/>
			<path fill="#FADFD7" d="M43.1,25.5c-0.1,0.1-0.2,0.2-0.3,0.2c-0.1,0-0.2-0.2-0.1-0.3c0-0.1,0.2-0.1,0.3-0.1
				C43.1,25.3,43.1,25.4,43.1,25.5z"/>
			<path fill="#FADFD7" d="M54.4,32.5c0.1,0.1,0.3,0.3,0.4,0.4c0.1,0.1,0.1,0.3-0.1,0.4c-0.2,0.2-0.4,0.2-0.5,0
				c-0.1-0.1-0.1-0.1-0.1-0.2c-0.1-0.2-0.1-0.3,0.1-0.5C54.2,32.5,54.3,32.5,54.4,32.5z"/>
			<path fill="#FADFD7" d="M47.8,29.8c0.1,0,0.2,0.1,0.3,0.2c0.3,0.3,0.4,0.6,0.5,1c0,0.1,0,0.3,0,0.4c0,0.1-0.1,0.2-0.2,0.3
				c-0.3,0.1-0.6,0-0.7-0.2c-0.1-0.3-0.3-0.5-0.4-0.8c-0.1-0.2,0.1-0.6,0.3-0.8C47.7,29.8,47.7,29.8,47.8,29.8z"/>
			<path fill="#FADFD7" d="M64.3,25.8c0,0.1,0,0.2-0.1,0.3c0,0.1-0.2,0.2-0.3,0.1c-0.4-0.3-0.5-0.6-0.3-1.1c0-0.1,0.1-0.1,0.2-0.1
				c0,0,0.1,0,0.1,0c0.2,0.1,0.3,0.2,0.4,0.5C64.3,25.5,64.3,25.6,64.3,25.8z"/>
			<path fill="#FADFD7" d="M50.7,27.6c0.1,0,0.2,0.1,0.3,0.1c0.3,0.2,0.5,0.5,0.5,0.8c0,0.2-0.1,0.5-0.3,0.7c-0.1,0.1-0.3,0.1-0.3,0
				c-0.1-0.1-0.2-0.2-0.2-0.3c-0.1-0.4-0.2-0.8,0-1.2C50.7,27.7,50.7,27.6,50.7,27.6z"/>
			<path fill="#FADFD7" d="M59.1,22.3c0,0.2-0.2,0.4-0.4,0.4c0,0-0.1-0.1-0.1-0.1c-0.1-0.2-0.1-0.3,0-0.5c0-0.1,0.1-0.1,0.2-0.1
				C59.1,22.1,59.1,22.2,59.1,22.3z"/>
			<path fill="#EB594F" d="M66.5,29.4c0.1,0,0.1,0.1,0.2,0.1c0.2,0,0.4,0,0.6,0c0.7,0,0.8,0.1,0.8,0.8c0,0.1,0.1,0.3,0.2,0.3
				c0.2,0,0.3,0,0.5-0.1c0.1-0.1,0.1-0.2,0.1-0.4c0-0.3-0.3-0.5-0.3-0.8c0-0.2,0-0.4,0.3-0.5c0.2-0.1,0.2-0.2,0.3-0.4
				c0-0.2,0-0.3,0-0.5c0-0.3,0.2-0.6,0.4-0.8c0,0,0.2-0.1,0.2,0c0.3,0.1,0.5,0.2,0.7,0.5c0.1,0.1,0.2,0.3,0.3,0.4
				c0.1,0,0.2,0.1,0.2,0c0.2-0.1,0.3-0.3,0.5-0.4c0.2-0.1,0.5-0.1,0.7,0c0.1,0,0.1,0.1,0.2,0.2c0,0.2,0.1,0.4,0.1,0.6
				c0,0.3,0,0.7,0,1c0,0.1,0.1,0.2,0.1,0.2c0.1,0.1,0.1,0.1,0.2,0.2c0.2,0.2,0.5,0.3,0.6,0.5c0.2,0.3,0.4,0.7,0.5,1
				c0,0.1,0,0.2,0,0.2c-0.1,0.2-0.2,0.5-0.4,0.7c-0.4,0.5-0.9,0.9-1.4,1.4c0,0-0.1,0.1-0.1,0.1c-0.6,0.2-1.1,0.4-1.7,0.3
				c-0.3-0.2-0.7-0.2-1.1-0.4c-0.2-0.1-0.5-0.2-0.7-0.4c-0.1-0.1-0.2-0.1-0.3-0.3c-0.1-0.1-0.2-0.3-0.3-0.4
				c-0.4-0.6-0.3-0.7-1.1-0.6c0,0-0.1,0-0.1,0c-0.3,0-0.6-0.2-0.7-0.4c0-0.1-0.1-0.2-0.1-0.2c-0.1-0.1-0.1-0.1-0.2-0.1
				c-0.5,0-0.9,0-1.4,0c-0.2,0-0.3,0.1-0.5,0.2c-0.4,0.3-0.7,0.6-1.2,0.8c-0.1,0-0.2,0-0.2-0.1c0-0.1,0-0.2-0.1-0.2
				c0,0,0-0.1,0.1-0.1c0.1-0.2,0.3-0.3,0.4-0.5c0.2-0.2,0.5-0.5,0.7-0.7c0.2-0.2,0.5-0.3,0.7-0.5c0.4-0.2,0.8-0.5,1.1-0.9
				c0.2-0.2,0.5-0.4,0.7-0.6c0.1,0,0.2,0,0.2-0.1c0.1,0,0.3,0.1,0.3,0.2c0,0.1,0,0.2,0,0.2c0,0.1-0.1,0.1-0.2,0.2
				C66.6,29.2,66.5,29.3,66.5,29.4z M72.3,32.4c0,0-0.1,0-0.1,0c-0.4,0.1-0.8,0.3-1.1,0.6c0,0,0,0.1,0,0.1c0,0,0.1,0.1,0.1,0.1
				c0.2,0.1,0.3,0,0.5,0c0.3-0.2,0.5-0.3,0.6-0.6C72.3,32.5,72.3,32.5,72.3,32.4c0.1,0,0.2,0,0.3,0c0.3-0.1,0.6-0.4,0.7-0.7
				c0,0,0-0.1,0-0.1c0-0.1-0.1-0.2-0.2-0.1c-0.3,0.2-0.6,0.5-0.8,0.8C72.3,32.3,72.3,32.4,72.3,32.4z M70.2,31.2
				c-0.1,0.2-0.2,0.3-0.4,0.3c-0.2,0.1-0.5,0-0.8,0.1c-0.1,0-0.2,0.1-0.4,0.1c-0.1,0-0.2,0.3-0.1,0.4c0.3,0.4,0.7,0.6,1.2,0.7
				c0.1,0,0.2,0,0.3,0c0.1,0,0.2-0.1,0.3-0.2c0.5-0.3,1.8-1.1,2.1-1.4c0.4-0.4,0.4-0.6,0-0.9c-0.3-0.3-0.7-0.4-1-0.5
				c-0.1-0.1-0.4,0-0.5,0c-0.3,0.2-0.6,0.4-0.9,0.7c0,0,0,0.2,0,0.2C70.1,30.9,70.2,31,70.2,31.2z"/>
			<path fill="#78433F" d="M62.6,28.8c-0.2,0-0.3,0-0.5,0c-0.1,0-0.3,0.1-0.3,0.2c-0.3,0.2-0.4,0.5-0.6,0.8
				c-0.1,0.2-0.2,0.5-0.3,0.7c-0.2,0.3-0.3,0.6-0.7,0.6c-0.3,0.1-0.5,0.3-0.8,0.4c-0.3,0.1-0.6,0.1-0.9,0c-0.2-0.1-0.3-0.1-0.5-0.2
				c-0.2-0.1-0.4,0.1-0.4,0.4c0,0.1,0.1,0.2,0.1,0.2c0.1,0.3,0,0.5-0.3,0.6c-0.1,0-0.2,0-0.2,0c-0.2-0.1-0.4-0.3-0.6-0.5
				c-0.3-0.6-0.5-1.2-0.6-1.8c0-0.2,0-0.4-0.1-0.6c-0.2-0.5,0-0.9,0.3-1.3c0.1-0.1,0.2-0.2,0.3-0.3c0.3-0.2,0.7-0.3,1-0.5
				c0.1,0,0.2,0,0.2,0c0.3,0.2,0.6,0.4,0.6,0.8c0,0.2,0.1,0.3,0.1,0.5c0.1,0.3,0.1,0.5,0,0.7c-0.1,0.1-0.1,0.2-0.1,0.4
				c0,0.2,0.2,0.4,0.4,0.4c0.2-0.1,0.5-0.2,0.7-0.3c0.1,0,0.1-0.1,0.1-0.2c0-0.2,0-0.4,0-0.5c-0.2-0.4-0.2-0.7-0.2-1.1
				c0-0.3-0.2-0.6-0.2-1c0-0.4,0.5-0.9,0.9-1c0.4,0,0.8,0,1.2,0.3c0.7,0.5,1.4,1,1.9,1.7c0.1,0.1,0.1,0.3,0.2,0.5
				c0,0.1-0.2,0.4-0.3,0.3C62.9,28.9,62.8,28.9,62.6,28.8z M57.2,30c0.4-0.2,0.5-0.6,0.4-1c0-0.1-0.1-0.1-0.1-0.2c0,0-0.1,0-0.1,0
				c-0.2,0.1-0.3,0.3-0.4,0.5c-0.1,0.1-0.1,0.2,0,0.4C57,29.8,57.1,29.9,57.2,30z M60.8,28.7c0.1-0.1,0.2-0.1,0.3-0.2
				c0.1-0.1,0.1-0.2,0-0.4c-0.1-0.2-0.2-0.3-0.3-0.4c-0.1-0.1-0.4,0.1-0.4,0.2C60.4,28.3,60.6,28.5,60.8,28.7z"/>
			<path fill="#78433F" d="M64.5,19.4c0.2-0.1,0.5-0.2,0.7-0.3c0.1,0,0.2,0,0.2,0.1c0.2,0.2,0.3,0.6,0.1,0.8
				c-0.2,0.3-0.5,0.4-0.9,0.6c-0.3,0.1-0.6,0.1-0.9,0c-0.1,0-0.2-0.1-0.3-0.2c-0.3-0.4-0.5-0.9-0.7-1.4c0-0.1-0.3-0.2-0.3-0.1
				c0,0-0.1,0-0.1,0.1c-0.1,0-0.1,0.1-0.2,0.2c-0.2,0.1-0.3,0.3-0.2,0.5c0.2,0.4,0,0.8,0.3,1.1c0.1,0.4,0.1,0.9,0,1.3
				c0,0.3-0.4,0.5-0.7,0.4c-0.1,0-0.2-0.1-0.2-0.1c-0.2-0.3-0.4-0.7-0.4-1.1c0-0.3-0.1-0.6-0.2-0.9c-0.1-0.2-0.2-0.2-0.4-0.1
				c0,0-0.1,0-0.1,0.1c-0.3,0.1-0.4,0.1-0.7-0.2c-0.1-0.1-0.1-0.3,0-0.4c0,0,0-0.1,0.1-0.1c0.1-0.1,0.2-0.2,0.3-0.3
				c0.7-0.8,0.5-0.6,1.6-1c0.2-0.1,0.4-0.2,0.6-0.2c0.3-0.1,0.5-0.2,0.6-0.4c0.1-0.1,0.2-0.2,0.3-0.3c0.4-0.4,0.8-0.7,1.4-0.8
				c0.2,0,0.3-0.2,0.3-0.4c0-0.1,0-0.3,0-0.4c0.2-0.6,0.7-1,1.4-0.7c0.1,0,0.2,0.2,0.3,0.3c0.1,0.1,0.1,0.3,0,0.4
				c-0.1,0.1-0.3,0.1-0.4,0.3c0,0.1,0,0.2,0.1,0.2c0.3,0.1,0.6,0.1,0.8,0.3c0.3,0.2,0.6,0.4,0.7,0.7c0,0.1,0.1,0.2,0.1,0.2
				c-0.1,0.2-0.1,0.3-0.2,0.5c-0.1,0.4-0.3,0.6-0.7,0.7c-0.1,0-0.2,0.1-0.4,0.1c-0.1,0-0.2,0-0.2-0.1c-0.2-0.1-0.4-0.2-0.4-0.4
				c0-0.1,0-0.1,0.1-0.2c0.2-0.2,0.5-0.2,0.7-0.3c0.1,0,0.1-0.1,0.1-0.2c0-0.1,0-0.2-0.1-0.2c0,0-0.1,0-0.1-0.1
				c-0.2-0.1-0.5-0.2-0.7-0.2c-0.2,0-0.4,0-0.6,0c-0.1,0-0.3,0.1-0.3,0.1c-0.3,0.3-0.5,0.5-0.8,0.8c0,0,0,0.2,0,0.2
				c0,0.1,0.1,0.1,0.2,0.1c0.2-0.1,0.3-0.1,0.5-0.2c0.1,0,0.2,0,0.2,0c0.1,0,0.2,0.1,0.2,0.1c0,0.1,0,0.2,0,0.2
				c-0.1,0.3-0.4,0.3-0.6,0.5C64.3,19,64.3,19.2,64.5,19.4C64.4,19.4,64.4,19.4,64.5,19.4z"/>
			<path fill="#78433F" d="M64.7,23c0.2-0.5,0.6-0.8,1-1.1c0.1,0,0.2-0.1,0.2-0.1c0.1,0,0.3,0,0.4,0c0.2,0,0.4-0.1,0.5-0.3
				c0.1-0.1,0.1-0.2,0.2-0.3c0.3-0.5,0.7-0.7,1.2-0.8c0.1,0,0.4,0.1,0.4,0.2c0.1,0.2,0,0.4-0.1,0.5c-0.1,0.1-0.2,0.1-0.3,0.2
				c0,0.1,0,0.2,0,0.2c0,0,0.1,0.1,0.1,0.1c0.2,0.1,0.5,0.1,0.7,0.1c0.6,0.2,0.9,0.6,0.9,1.2c0,0,0,0.1,0,0.1c0,0.4-0.2,0.7-0.4,0.9
				c-0.3,0.3-0.7,0.3-1,0c-0.1-0.1-0.2-0.3-0.1-0.5c0.1-0.2,0.2-0.3,0.3-0.4c0.1-0.1-0.1-0.4-0.2-0.4c-0.2,0-0.4,0-0.6,0
				c-0.3,0-0.5,0-0.7-0.2c-0.1-0.1-0.2-0.1-0.4,0c-0.2,0.1-0.4,0.3-0.6,0.4c0,0-0.1,0.1-0.1,0.1c-0.1,0.1-0.1,0.3,0,0.3
				c0.1,0.1,0.2,0.1,0.3,0.1c0.2-0.1,0.3-0.2,0.5-0.2c0.1,0,0.3,0,0.4,0c0.2,0,0.3,0.2,0.3,0.4c-0.1,0.4-0.3,0.7-0.5,1
				c0,0.1,0,0.2,0.1,0.2c0,0.1,0.1,0,0.2,0c0.1-0.1,0.1-0.1,0.2-0.2c0,0,0.1-0.1,0.1-0.1c0.2-0.1,0.3-0.1,0.4,0.1
				c0,0.1,0.1,0.2,0.1,0.2c0.1,0.1,0.1,0.2,0,0.4c-0.2,0.3-0.4,0.4-0.7,0.6c-0.1,0.1-0.2,0.1-0.4,0.1c-0.3,0-0.5,0-0.8,0
				c-0.3,0-0.5-0.2-0.6-0.5c-0.1-0.3-0.2-0.7-0.4-0.9C65,24.1,64.8,23.5,64.7,23z"/>
			<path fill="#EB594F" d="M38.7,23.2c0-0.1,0-0.2,0-0.3c0-0.1,0.1-0.2,0.1-0.2c0.3-0.1,0.5-0.3,0.8-0.3c0.4,0,0.8-0.1,1.2,0
				c0.7,0,1.4,0,2.1,0.1c0.1,0,0.2,0,0.3,0c0.6,0.3,1.2,0.2,1.8,0.2c0.2,0,0.4,0.1,0.6,0.2c0.3,0.1,0.5,0.3,0.6,0.6
				c0.1,0.2,0,0.4-0.1,0.6c-0.1,0.1-0.1,0.1-0.2,0.2c-0.4,0.1-0.6,0.3-0.6,0.7c0,0.3-0.2,0.6-0.4,0.8c-0.1,0.1-0.2,0.2-0.4,0.3
				c-0.1,0-0.3,0-0.4,0c-0.3,0-0.5,0-0.7,0.1c-0.1,0.1-0.3,0.1-0.5,0.1c-0.2,0-0.4-0.1-0.6-0.3c-0.1-0.2-0.2-0.4-0.3-0.5
				c-0.1-0.3-0.4-0.5-0.7-0.5c-0.3,0-0.5-0.1-0.7-0.2c-0.5,0-1-0.3-1.4-0.6c-0.2-0.1-0.3-0.3-0.3-0.5C38.7,23.5,38.7,23.4,38.7,23.2
				z M41.2,22.9C41.2,22.9,41.2,22.9,41.2,22.9c-0.4,0-0.9,0-1.3,0c-0.2,0-0.3,0.1-0.4,0.2c-0.1,0.1-0.1,0.2,0,0.3
				c0.2,0.3,0.4,0.4,0.7,0.6c0.1,0.1,0.2,0.1,0.4,0.1c0.6,0,1.1,0.2,1.6,0.4c0.4,0.1,0.7,0.2,1.1,0.1c0,0,0.1,0,0.1-0.1
				c0,0,0-0.1,0-0.1c-0.1-0.1-0.2-0.2-0.3-0.2c-0.2-0.1-0.3-0.1-0.5-0.2c-0.1,0-0.1-0.1-0.1-0.2c0-0.1,0.1-0.2,0.2-0.2
				c0.4,0,0.8,0,1.2,0c0.4,0,0.9,0,1.3,0c0.1,0,0.1-0.1,0.1-0.2c0,0,0-0.1-0.1-0.1c-0.1-0.1-0.3-0.2-0.5-0.2c-0.7,0-1.4,0-2-0.2
				c-0.1,0-0.3,0-0.4,0C41.8,22.9,41.5,22.9,41.2,22.9z M44.7,24.7c0,0,0-0.1,0-0.1c0-0.1-0.2-0.2-0.3-0.2c-0.1,0-0.2,0.1-0.2,0.2
				c0,0.1,0,0.2,0,0.4c0,0.1,0.1,0.1,0.2,0.2c0.1,0.1,0.3,0,0.3-0.2C44.7,24.9,44.7,24.8,44.7,24.7z M43.1,25.5c0-0.1,0-0.2-0.1-0.2
				c-0.1-0.1-0.3,0-0.3,0.1c0,0.1,0,0.3,0.1,0.3C42.9,25.7,43,25.6,43.1,25.5z"/>
			<path fill="#78433F" d="M44.5,30.3c0.1,0,0.1,0,0.2,0c0.1,0,0.2,0.2,0.2,0.3c0,0.2,0,0.4-0.2,0.6c-0.1,0.1-0.3,0.1-0.5,0.2
				c-0.1,0.1-0.2,0.2-0.3,0.4c-0.1,0.8,0.1,1.4,0.7,1.9c0.3,0.2,0.5,0.2,0.8-0.1c0.2-0.1,0.3-0.3,0.2-0.6c0-0.1-0.1-0.2-0.3-0.2
				c-0.1,0-0.2,0-0.2,0.1c-0.2,0.1-0.3,0-0.5-0.1c-0.1-0.1-0.2-0.5-0.1-0.6c0.2-0.3,0.4-0.5,0.7-0.7c0.2-0.1,0.3-0.1,0.5,0.1
				c0.5,0.4,0.8,1,0.8,1.7c0,0.6-0.3,1.1-0.7,1.4c-0.2,0.2-0.4,0.3-0.7,0.4c-0.1,0-0.3,0.1-0.4,0c-0.3-0.1-0.6-0.2-0.8-0.4
				c-0.3-0.2-0.6-0.5-0.8-0.8c-0.1-0.1-0.1-0.1-0.1-0.2c-0.1-0.4-0.3-0.8-0.3-1.2c0-0.3,0-0.7,0-1c0-0.2,0.1-0.3,0.2-0.5
				c0.1-0.2,0.3-0.3,0.4-0.5c0.2-0.2,0.4-0.3,0.7-0.3C44.3,30.3,44.4,30.3,44.5,30.3z"/>
			<path fill="#78433F" d="M49.3,35.1c0,0,0-0.2,0-0.4c0-0.2,0.4-0.4,0.6-0.3c0.1,0.1,0.2,0.2,0.3,0.2c0.2,0.1,0.3,0.3,0.5,0.4
				c0.1,0,0.2,0,0.2,0c0.2-0.1,0.4-0.2,0.4-0.4c0.1-0.2,0-0.3-0.1-0.5c-0.1-0.2-0.2-0.5-0.1-0.7c0-0.2,0.1-0.3,0.3-0.3
				c0.1,0,0.3,0,0.4,0c0.2,0,0.3,0.1,0.4,0.2c0.3,0.4,0.4,0.9,0.6,1.4c0,0,0,0.1,0,0.1c0,0.4,0.1,0.8,0.3,1.1c0.1,0.3,0,0.5-0.3,0.6
				c-0.1,0.1-0.3,0.1-0.5,0c-0.3-0.2-0.3-0.5-0.5-0.7c-0.1-0.1-0.2-0.1-0.3,0c-0.1,0.1-0.2,0.2-0.3,0.4c-0.1,0.1-0.1,0.2-0.1,0.4
				c0,0.2,0,0.4,0.1,0.5c0.1,0.2,0.1,0.4,0,0.6c-0.2,0.3-0.6,0.4-0.8,0.2c-0.2-0.1-0.3-0.3-0.4-0.5C49.6,36.8,49.3,36.1,49.3,35.1z"
				/>
			<path fill="#78433F" d="M56.2,25c-0.2,0.2-0.4,0.3-0.5,0.5c-0.1,0.1-0.1,0.3-0.1,0.5c0,0.1,0.1,0.2,0.2,0.3
				c0.1,0.2,0,0.4-0.2,0.6c-0.2,0.1-0.5,0.2-0.6,0c-0.1-0.1-0.3-0.2-0.3-0.4c-0.2-0.7-0.6-1.4-0.6-2.2c-0.2-0.3-0.1-0.6,0.1-0.8
				c0.1-0.1,0.3-0.1,0.3-0.1c0.3,0.1,0.4,0.4,0.7,0.6c0.1,0.1,0.3,0.1,0.5,0c0.2-0.1,0.3-0.3,0.3-0.5c0-0.3,0-0.5,0-0.8
				c0-0.2,0.2-0.4,0.3-0.5c0.1-0.1,0.3-0.1,0.4,0c0.1,0.1,0.2,0.1,0.3,0.3c0.1,0.3,0.1,0.7,0.3,1c0.1,0.3,0.2,0.5,0.3,0.8
				c0.1,0.3,0.3,0.6,0.4,0.9c0,0,0,0.1,0,0.1c-0.1,0.3-0.6,0.5-0.8,0.4c-0.1-0.1-0.2-0.2-0.3-0.2c-0.1-0.1-0.2-0.3-0.3-0.4
				C56.3,25,56.2,25,56.2,25z"/>
			<path fill="#78433F" d="M55.6,33.7c-0.2,0.1-0.5,0.3-0.7,0.5c-0.2,0.2-0.4,0.3-0.4,0.6c-0.1,0.2-0.2,0.5-0.4,0.7
				c0,0.1-0.1,0.1-0.2,0.2c0,0-0.3-0.1-0.3-0.2c0-0.1-0.1-0.2-0.1-0.2c-0.1-0.4-0.1-0.8-0.2-1.1c-0.1-0.3-0.1-0.7-0.2-1
				c-0.1-0.3-0.1-0.6-0.1-0.9c0-0.3,0.2-0.5,0.3-0.7c0.2-0.3,0.4-0.4,0.7-0.4c0.2,0,0.3,0,0.5,0c0.2,0,0.3,0.1,0.5,0.2
				c0.1,0.1,0.3,0.2,0.4,0.4c0.4,0.4,0.7,0.9,1.1,1.3c0.2,0.2,0.1,0.6-0.1,0.8c-0.1,0.1-0.3,0.2-0.5,0.1
				C55.8,33.8,55.7,33.8,55.6,33.7z M54.4,32.5c-0.1,0.1-0.2,0.1-0.2,0.2c-0.1,0.1-0.2,0.3-0.1,0.5c0,0.1,0.1,0.1,0.1,0.2
				c0.1,0.2,0.4,0.2,0.5,0c0.2-0.1,0.2-0.3,0.1-0.4C54.7,32.7,54.5,32.6,54.4,32.5z"/>
			<path fill="#78433F" d="M46.3,30.1c0-0.4,0.2-0.7,0.4-1.1c0,0,0.1-0.1,0.1-0.1c0.5-0.3,1-0.6,1.7-0.3c0.1,0.1,0.3,0.1,0.4,0.3
				c0.1,0.2,0.2,0.3,0.4,0.5c0.2,0.4,0.5,0.8,0.5,1.3c0,0.2,0.2,0.4,0.1,0.6c-0.1,0.3-0.3,0.6-0.6,0.8c-0.2,0.1-0.4,0.3-0.7,0.4
				c-0.2,0.1-0.3,0-0.5,0c-0.3,0-0.6-0.2-0.8-0.3c-0.1-0.1-0.2-0.2-0.3-0.3C46.5,31.5,46.2,30.8,46.3,30.1z M47.8,29.8
				c-0.1,0-0.1,0-0.2,0c-0.3,0.2-0.4,0.5-0.3,0.8c0.1,0.3,0.2,0.5,0.4,0.8c0.1,0.2,0.4,0.3,0.7,0.2c0.1,0,0.2-0.2,0.2-0.3
				c0-0.1,0-0.3,0-0.4c-0.1-0.4-0.2-0.7-0.5-1C48,29.9,47.9,29.8,47.8,29.8z"/>
			<path fill="#78433F" d="M65.3,26.2c0,0.7-0.2,1.1-0.6,1.6c-0.2,0.2-0.5,0.3-0.8,0.2c-0.1,0-0.2,0-0.2-0.1
				c-0.3-0.3-0.5-0.6-0.7-0.9c-0.1-0.1-0.2-0.3-0.2-0.5c-0.1-0.4-0.3-0.7-0.4-1.1c-0.1-0.2-0.1-0.4-0.1-0.6c0-0.2,0.1-0.3,0.2-0.5
				c0.4-0.5,1-0.7,1.6-0.4c0.2,0.1,0.5,0.2,0.7,0.4c0.2,0.2,0.4,0.3,0.4,0.6C65.2,25.4,65.4,25.8,65.3,26.2z M64.3,25.8
				c0-0.1,0-0.2,0-0.3c0-0.2-0.2-0.4-0.4-0.5c0,0-0.1,0-0.1,0c-0.1,0-0.2,0-0.2,0.1c-0.2,0.5,0,0.8,0.3,1.1c0.1,0.1,0.3,0,0.3-0.1
				C64.3,26,64.3,25.8,64.3,25.8z"/>
			<path fill="#78433F" d="M52.5,28.5c0,0.2,0,0.4-0.1,0.7c0,0.3-0.2,0.6-0.3,0.8c-0.1,0.3-0.4,0.5-0.7,0.6c-0.3,0.1-0.6,0.1-0.9,0
				c-0.1,0-0.2-0.1-0.3-0.2c-0.3-0.3-0.4-0.7-0.6-1.1c-0.1-0.2-0.1-0.3-0.1-0.5c0-0.5,0-0.9-0.2-1.4c-0.1-0.1,0.1-0.2,0.2-0.3
				c0.2-0.2,0.5-0.3,0.8-0.5c0.4,0,0.9-0.1,1.2,0.2c0.1,0.1,0.3,0.2,0.4,0.3c0.3,0.3,0.5,0.6,0.5,1C52.5,28.1,52.5,28.3,52.5,28.5z
				 M50.7,27.6c0,0-0.1,0.1-0.1,0.1c-0.1,0.4-0.1,0.8,0,1.2c0,0.1,0.1,0.2,0.2,0.3c0.1,0.1,0.3,0.1,0.3,0c0.2-0.2,0.3-0.4,0.3-0.7
				c0-0.3-0.1-0.7-0.5-0.8C51,27.7,50.9,27.6,50.7,27.6z"/>
			<path fill="#78433F" d="M48.3,39.9c-0.4,0-0.5,0-0.7,0c-0.1,0-0.3-0.1-0.4-0.1c-0.5-0.3-0.8-0.8-1-1.3c-0.1-0.2-0.1-0.4-0.1-0.6
				c0-0.4,0.2-0.8,0.4-1.2c0.1-0.3,0.4-0.5,0.7-0.7c0.1-0.1,0.2-0.1,0.4-0.1c0.3,0.1,0.6,0.1,0.9,0.2c0.2,0.1,0.2,0.2,0.3,0.4
				c0,0.1,0,0.3,0,0.4c0,0.1-0.1,0.2-0.2,0.2c-0.2,0-0.4,0-0.6,0.1c-0.2,0-0.4,0.3-0.4,0.6c0,0.3,0.2,0.6,0.3,0.8
				c0,0.1,0.1,0.1,0.2,0.1c0.3,0.1,0.5,0,0.7-0.1c0.2-0.1,0.5-0.2,0.7-0.4c0.1,0,0.3,0.1,0.3,0.2c0.1,0.3,0.1,0.6-0.1,0.8
				c-0.1,0.1-0.1,0.1-0.2,0.2C49.2,39.8,48.7,40,48.3,39.9z"/>
			<path fill="#78433F" d="M57.6,21.9c0,0,0-0.3,0-0.5c0-0.3,0.2-0.6,0.4-0.8c0-0.1,0.1-0.1,0.2-0.1c0.2,0,0.3,0,0.5,0
				c0.2,0,0.3,0.1,0.5,0.2c0.5,0.4,1,0.9,1.4,1.4c0.2,0.2,0.2,0.5,0.2,0.7c0,0.1-0.1,0.3-0.2,0.3c0,0-0.1,0-0.1,0
				c-0.5-0.1-0.9,0.2-1.3,0.5c0,0-0.1,0.1-0.1,0.1c0,0.1-0.1,0.2-0.1,0.2c0,0.2,0.1,0.4,0.1,0.6c0,0.1-0.1,0.3-0.2,0.3
				c-0.1,0-0.3,0.1-0.4,0c-0.1-0.1-0.3-0.2-0.4-0.3c-0.3-0.4-0.3-1-0.5-1.4C57.6,22.8,57.6,22.4,57.6,21.9z M59.1,22.3
				c0-0.1-0.1-0.2-0.2-0.2c-0.1,0-0.2,0-0.2,0.1c-0.1,0.2-0.1,0.3,0,0.5c0,0,0,0.1,0.1,0.1C58.9,22.8,59.1,22.5,59.1,22.3z"/>
			<path fill="#EB594F" d="M48.4,23.1c0.5,0,0.7,0.1,0.8,0.3c0,0,0,0.1,0.1,0.1c0.2,0.4,0.4,0.4,0.7,0.2c0.3-0.2,0.5-0.5,0.9-0.6
				c0,0,0.1-0.1,0.1-0.1c0.1,0.1,0.2,0.1,0.3,0.2c0.1,0.1,0,0.1,0,0.2c-0.1,0.1-0.1,0.1-0.2,0.2c-0.2,0.1-0.3,0.3-0.5,0.4
				c-0.5,0.4-1,0.8-1.5,1.2c-0.1,0.1-0.2,0.2-0.3,0.2c-0.4,0.2-0.8,0.5-1.2,0.7c-0.1,0-0.2,0-0.2-0.1c0-0.1-0.1-0.2,0-0.2
				c0.1-0.1,0.1-0.2,0.2-0.3c0.2-0.2,0.5-0.3,0.5-0.6c0-0.2-0.1-0.4-0.2-0.6c-0.1-0.2-0.2-0.3-0.5-0.4c-0.2-0.1-0.3-0.1-0.5-0.1
				c-0.1,0-0.2-0.3-0.1-0.3c0.1-0.1,0.2-0.2,0.3-0.3c0,0,0.1-0.1,0.1-0.1C47.6,23.4,48.1,23.2,48.4,23.1z"/>
			<path fill="#78433F" d="M67.8,15c0,0-0.1,0-0.1-0.1c-0.2-0.2-0.3-0.4-0.1-0.7c0.1-0.1,0.2-0.2,0.2-0.3c0.2-0.2,0.4-0.2,0.6-0.2
				c0.2,0,0.3,0.2,0.3,0.3c0,0.2-0.1,0.4-0.3,0.5c-0.2,0.1-0.4,0.2-0.6,0.3C67.8,15,67.8,15,67.8,15z"/>
		</g>
	</g>
	<g>
		<path fill="#FADFD7" d="M85.4,42.9c0,0.1-0.1,0.2-0.1,0.2c-0.3,0.3-0.4,0.7-0.1,1.1c0,0.1,0.1,0.2,0.1,0.3c0,0.1,0,0.3-0.1,0.4
			c-0.5,0.3-0.9,0.8-1.4,1c-0.1,0.1-0.2,0.2-0.3,0.3c-0.6,0.7-1.5,1.2-2.2,1.8c0,0-0.1,0.1-0.1,0.1c-1,0.5-1.8,1.3-2.7,1.9
			c-0.4,0.3-0.8,0.6-1.2,0.9c-0.4,0.3-0.8,0.6-1.2,0.9c-0.1,0-0.2,0-0.3,0c-0.3-0.2-0.7-0.3-1-0.2c-0.1,0-0.3,0-0.4,0
			c-0.2,0-0.5,0-0.6-0.2c-0.6-0.6-1.2-1.1-1.8-1.7c-0.2-0.2-0.3-0.4-0.2-0.7c0.1-0.1,0-0.3-0.1-0.4c-0.1-0.1-0.1-0.3-0.1-0.4
			c0-0.1,0-0.2,0.1-0.3c0.2-0.2,0.3-0.4,0.6-0.6c0.5-0.3,0.8-0.7,1.3-1c0.7-0.5,1.3-1.1,2-1.7c0.2-0.2,0.5-0.4,0.8-0.5
			c0.4-0.2,0.7-0.4,1-0.7c0.1-0.1,0.3-0.2,0.5-0.3c0.6-0.3,1.1-0.7,1.6-1c0.2-0.1,0.4-0.3,0.7-0.4c0.5-0.3,1-0.6,1.5-0.9
			c0.3-0.1,0.5-0.2,0.8,0c0.3,0.2,0.6,0.1,0.9,0c0.2-0.1,0.3-0.1,0.5,0c0.3,0.2,0.5,0.3,0.7,0.6c0.2,0.3,0.4,0.5,0.6,0.8
			c0.1,0.1,0.2,0.3,0.3,0.5C85.3,42.6,85.4,42.7,85.4,42.9z M80,43.8c0-0.1,0-0.3,0-0.4c0-0.1-0.2-0.2-0.3-0.1
			c-0.1,0-0.1,0.1-0.2,0.2c-0.1,0.1,0,0.3,0.1,0.3C79.8,43.8,79.9,43.8,80,43.8c0,0.2,0,0.4,0.2,0.6c0.4,0.4,0.8,0.8,1.1,1.2
			c0.1,0.1,0.3,0.2,0.4,0.3c0.1,0.1,0.4,0,0.4-0.2c0-0.1,0-0.3,0-0.4c-0.1-0.1-0.2-0.2-0.3-0.3c-0.4-0.3-0.8-0.6-1.1-1
			C80.5,43.8,80.3,43.8,80,43.8z M75.2,50.5c0.2-0.1,0.4-0.1,0.6-0.2c0.2-0.1,0.4-0.2,0.5-0.4c0.1-0.2,0.2-0.4,0.3-0.6
			c0.1-0.2,0.1-0.4-0.1-0.5c-0.1-0.1-0.2-0.3-0.3-0.4c-0.4-0.3-0.9-0.6-1.3-1c-0.2-0.1-0.5-0.2-0.7-0.3c-0.2-0.1-0.4,0-0.5,0.1
			c-0.3,0.2-0.5,0.4-0.7,0.6c-0.1,0.1-0.1,0.3-0.1,0.4c0.1,0.2,0.2,0.4,0.3,0.6c0.1,0.2,0.3,0.3,0.5,0.5c0.2,0.2,0.3,0.4,0.5,0.7
			C74.4,50.2,74.8,50.4,75.2,50.5z M80.8,46.4c0-0.3,0-0.6-0.2-0.7c-0.2-0.2-0.4-0.4-0.6-0.5c-0.4-0.1-0.7-0.3-0.9-0.7
			c-0.3-0.1-0.5-0.4-0.9-0.2c-0.1,0.1-0.3,0-0.4,0.1c-0.3,0.1-0.5,0.2-0.6,0.5c0,0.1-0.1,0.2-0.2,0.4c0,0.1-0.1,0.3,0,0.4
			c0.5,0.6,1,1.1,1.6,1.6c0.2,0.1,0.4,0.2,0.6,0.3c0.3,0.2,0.9,0,1.1-0.3c0.1-0.2,0.2-0.4,0.3-0.6C80.8,46.6,80.8,46.5,80.8,46.4z
			 M82.9,41.5c-0.2,0.1-0.3,0.1-0.5,0.2c-0.4,0.3-0.8,0.6-1.2,0.9c0,0,0,0.1,0,0.1c0,0.1,0,0.2,0.1,0.2c0.3,0.1,0.6,0,0.8,0.1
			c0.3,0.1,0.5,0.4,0.7,0.6c0.2,0.2,0.5,0.4,0.7,0.7c0.1,0.1,0.1,0.1,0.2,0.1c0.1,0,0.2,0,0.2-0.1c0.1-0.1,0.2-0.2,0.1-0.2
			c-0.1-0.2-0.2-0.4-0.3-0.6c-0.2-0.3-0.4-0.5-0.5-0.8c-0.2-0.3-0.2-0.6,0-0.9c0,0,0.1-0.1,0.1-0.1c0-0.1-0.1-0.2-0.1-0.2
			C83,41.5,83,41.5,82.9,41.5z M77.2,46.7c0-0.1-0.2-0.2-0.3-0.2c-0.3,0.1-0.5,0.4-0.7,0.6c0,0.1,0,0.2,0,0.3c0,0.1,0.3,0.1,0.4,0.1
			c0.2-0.1,0.4-0.3,0.6-0.6C77.2,46.9,77.2,46.8,77.2,46.7z"/>
		<path fill="#FADFD7" d="M75.3,48.7c0.1,0,0.1,0,0.2,0c0.3,0,0.5,0.4,0.3,0.7c-0.1,0.1-0.2,0.2-0.3,0.3c-0.1,0.1-0.2,0.1-0.2,0.1
			c-0.3,0-0.6-0.4-0.5-0.6c0-0.2,0.1-0.3,0.3-0.4C75.2,48.7,75.3,48.7,75.3,48.7z"/>
		<path fill="#FADFD7" d="M73.7,48.1c0-0.1,0.1-0.2,0.1-0.2c0.2-0.2,0.4-0.2,0.5,0c0.1,0.1,0.1,0.2,0,0.3c-0.1,0.1-0.2,0.2-0.3,0.2
			c-0.1,0-0.2,0-0.2-0.1C73.8,48.3,73.8,48.2,73.7,48.1z"/>
		<path fill="#FADFD7" d="M79,46.4c0.1-0.3,0.3-0.4,0.5-0.6c0.1,0,0.2-0.1,0.3-0.1c0.3,0,0.5,0.4,0.3,0.7c0,0-0.1,0.1-0.1,0.1
			c-0.2,0.3-0.5,0.3-0.8,0.1C79.2,46.6,79.1,46.5,79,46.4z"/>
		<path fill="#FADFD7" d="M77.8,45.3c0-0.3,0.4-0.5,0.7-0.3c0.1,0.1,0.1,0.1,0.1,0.2c0,0,0,0.1,0,0.1c0,0.1-0.1,0.1-0.2,0.2
			c-0.1,0.1-0.2,0.2-0.4,0.1C77.9,45.6,77.8,45.4,77.8,45.3z"/>
		<path fill="#78433F" d="M75.7,52.5c-0.2-0.1-0.5-0.2-0.7-0.3c-0.1-0.1-0.3-0.1-0.4,0c-0.1,0.1-0.2,0.1-0.4,0.2
			c-0.3,0.1-0.5,0-0.8-0.1c-1.1-0.8-1.2-0.9-2.2-2c-0.2-0.2-0.3-0.5-0.4-0.7c-0.1-0.1-0.1-0.3,0-0.4c0.2-0.3,0.2-0.5,0-0.8
			c0,0,0-0.1-0.1-0.1c0-0.2,0-0.4,0.1-0.5c0.4-0.5,0.9-1,1.5-1.4c0.2-0.1,0.4-0.2,0.5-0.4c0.8-0.8,1.6-1.5,2.5-2.1
			c0.5-0.4,1-0.7,1.6-1c0.7-0.4,1.4-0.9,2-1.3c0.5-0.4,1.1-0.7,1.7-0.9c0.4-0.2,0.8-0.4,1.2-0.6c0.2-0.1,0.4-0.2,0.6,0
			c0.3,0.2,0.5,0.2,0.8,0c0.1,0,0.2-0.1,0.3,0c0.3,0.1,0.5,0.2,0.8,0.3c0.1,0,0.2,0.1,0.2,0.2c0.6,0.7,1.2,1.4,1.8,2.1
			c0.2,0.2,0.2,0.4,0.1,0.6c-0.1,0.2-0.1,0.3-0.2,0.5c-0.2,0.3-0.2,0.6,0,0.9c0.1,0.3,0,0.5-0.2,0.7c-0.2,0.3-0.5,0.5-0.8,0.7
			c-0.3,0.2-0.6,0.4-0.9,0.7c-0.6,0.6-1.4,1-2,1.7c-0.5,0.2-0.8,0.7-1.2,0.9c-0.4,0.2-0.7,0.6-1.1,0.8c-0.4,0.2-0.7,0.5-1,0.7
			c-0.3,0.2-0.6,0.4-0.9,0.6c-0.3,0.2-0.6,0.4-0.9,0.6c-0.2,0.2-0.4,0.4-0.6,0.5C76.2,52.3,76,52.4,75.7,52.5z M85.4,42.9
			c-0.1-0.1-0.1-0.3-0.2-0.4c-0.1-0.2-0.2-0.3-0.3-0.5c-0.2-0.3-0.4-0.5-0.6-0.8c-0.2-0.3-0.5-0.4-0.7-0.6c-0.2-0.1-0.3-0.1-0.5,0
			c-0.3,0.2-0.6,0.2-0.9,0c-0.3-0.2-0.5-0.1-0.8,0c-0.5,0.3-1,0.6-1.5,0.9c-0.2,0.1-0.5,0.3-0.7,0.4c-0.5,0.3-1,0.7-1.6,1
			c-0.2,0.1-0.3,0.2-0.5,0.3c-0.3,0.3-0.6,0.5-1,0.7c-0.3,0.2-0.6,0.3-0.8,0.5c-0.6,0.6-1.3,1.1-2,1.7c-0.4,0.3-0.8,0.7-1.3,1
			c-0.2,0.1-0.4,0.4-0.6,0.6c-0.1,0.1-0.1,0.2-0.1,0.3c0,0.1,0.1,0.3,0.1,0.4c0.1,0.1,0.1,0.3,0.1,0.4c-0.2,0.3,0,0.5,0.2,0.7
			c0.6,0.6,1.2,1.2,1.8,1.7c0.2,0.2,0.4,0.2,0.6,0.2c0.1,0,0.3,0,0.4,0c0.4,0,0.7,0,1,0.2c0.1,0,0.2,0,0.3,0
			c0.4-0.3,0.8-0.5,1.2-0.9c0.4-0.3,0.8-0.6,1.2-0.9c0.9-0.6,1.7-1.4,2.7-1.9c0,0,0.1-0.1,0.1-0.1c0.7-0.7,1.6-1.1,2.2-1.8
			c0.1-0.1,0.2-0.2,0.3-0.3c0.5-0.3,0.9-0.7,1.4-1c0.1-0.1,0.1-0.2,0.1-0.4c0-0.1,0-0.2-0.1-0.3c-0.3-0.4-0.2-0.8,0.1-1.1
			C85.3,43,85.4,43,85.4,42.9z"/>
		<path fill="#EB594F" d="M66.6,56.7c0,0.1,0,0.4-0.1,0.7c0,0.1-0.1,0.2-0.1,0.2c-0.2,0.1-0.4,0.2-0.6,0.3c-0.1,0-0.3,0.1-0.4,0
			c-0.3-0.2-0.7-0.2-1.1-0.2c-0.2,0-0.5,0-0.7-0.1c-0.2-0.1-0.3-0.1-0.5,0c-0.1,0.1-0.3,0.1-0.4,0c-0.3-0.1-0.7-0.3-0.9-0.5
			c-0.1-0.1-0.2-0.2-0.2-0.4c0-0.2,0-0.4,0-0.5c0-0.2-0.1-0.4-0.1-0.5c0-0.1,0-0.2,0-0.2c0.1-0.1,0.2-0.2,0.3-0.3
			c0.3-0.3,0.6-0.4,1-0.2c0.1,0,0.2,0.1,0.2,0.1c0.1,0,0.2,0,0.2-0.1c0.1-0.1,0.2-0.2,0.1-0.3c-0.2-0.3,0-0.5,0.1-0.7
			c0.2-0.3,0.6-0.5,1-0.4c0.3,0,0.6,0,1,0.1c0.1,0,0.2,0.1,0.2,0.1c0.3,0.3,0.7,0.5,0.6,1c0,0.1,0,0.2,0,0.3
			C66.6,55.5,66.5,56,66.6,56.7z"/>
		<path fill="#EB594F" d="M69.4,50c0.1,0,0.2,0,0.3,0c0.5-0.1,0.8,0.2,1,0.5c0.1,0.1,0.1,0.1,0.2,0.2c0,0.1,0.1,0.2,0,0.3
			c-0.1,0.4,0.3,0.7,0.2,1.1c0,0.2-0.1,0.3,0,0.5c0.1,0.3,0.1,0.5,0.1,0.8c0,0.4-0.2,0.6-0.5,0.7c-0.1,0.1-0.3,0.1-0.4,0.2
			c-0.1,0.1-0.3,0.1-0.4,0c-0.4-0.2-0.8-0.2-1.2-0.3c-0.4-0.1-0.7-0.2-1.1-0.2c-0.2,0-0.4,0-0.5-0.1c-0.2-0.1-0.4-0.2-0.6-0.3
			c-0.2-0.1-0.3-0.4-0.3-0.6c0-0.2-0.1-0.4-0.2-0.6c-0.1-0.2,0-0.4,0.1-0.5c0.1-0.1,0.2-0.2,0.3-0.3c0.2-0.2,0.4-0.2,0.6-0.2
			c0.3,0,0.5,0.1,0.8,0c0.1,0,0.2-0.1,0.1-0.2c-0.2-0.4,0-0.7,0.2-1c0.1-0.1,0.2-0.2,0.3-0.2C68.9,50,69.2,50,69.4,50
			C69.4,50,69.4,50,69.4,50z"/>
		<path fill="#EB594F" d="M89.7,39.3c0,0.3,0,0.3,0,0.4c0,0.4-0.2,0.7-0.5,0.9c-0.2,0.1-0.4,0.2-0.6,0.2c-0.4-0.2-0.9-0.2-1.3-0.2
			c-0.6,0-1-0.3-1.6-0.4c-0.1,0-0.2-0.2-0.3-0.3c-0.1-0.4-0.2-0.8-0.3-1.2c0-0.1,0-0.2,0.1-0.3c0.1-0.2,0.3-0.3,0.5-0.5
			c0.1-0.1,0.3-0.2,0.5-0.1c0.1,0,0.2,0.1,0.2,0.1c0.3,0.1,0.6-0.2,0.5-0.4c0-0.2-0.1-0.3,0.1-0.5c0.1-0.1,0.3-0.3,0.4-0.4
			c0.3-0.3,0.7-0.3,1.1-0.2c0.2,0.1,0.5,0.2,0.7,0.4c0.1,0.1,0.2,0.2,0.2,0.3c0.1,0.4,0,0.9,0.3,1.3C89.6,38.9,89.7,39.2,89.7,39.3z
			"/>
		<path fill="#EB594F" d="M94.1,36.1c0,0.3,0,0.5,0,0.8c0,0.2-0.2,0.4-0.4,0.4c-0.4,0-0.7,0.1-1.1-0.1c-0.2-0.1-0.4-0.1-0.6,0
			c-0.2,0.1-0.4,0.1-0.5-0.1c-0.2-0.2-0.5-0.2-0.8-0.2c-0.5,0-0.8-0.3-0.9-0.8c0-0.1,0-0.3-0.1-0.4c-0.1-0.4-0.1-0.4,0-0.6
			c0.1-0.1,0.1-0.2,0.2-0.3c0.2-0.2,0.4-0.3,0.7-0.2c0.1,0,0.2,0.1,0.4,0.2c0.1,0,0.3-0.1,0.3-0.2c0,0,0-0.1,0-0.1
			c-0.1-0.5,0.1-0.8,0.5-1c0.3-0.2,0.6-0.3,0.9-0.2c0.3,0.1,0.7,0.3,0.9,0.5c0.1,0.1,0.1,0.2,0.1,0.2c0,0.4,0.1,0.8,0.2,1.2
			C94.1,35.5,94.1,35.8,94.1,36.1C94.1,36.1,94.1,36.1,94.1,36.1z"/>
		<path fill="#FADFD7" d="M94,42.3c0-0.1-0.1-0.2-0.1-0.3c-0.2-0.2-0.4-0.3-0.7-0.5c-0.1-0.1-0.2-0.3-0.1-0.4
			c0.2-0.3,0.4-0.4,0.7-0.2c0.9,0.5,1.7,1.1,2.4,1.9c0.1,0.1,0.1,0.3,0,0.4c-0.1,0.2-0.3,0.3-0.5,0.3c-0.6,0-1.2,0.1-1.8,0.1
			c0,0-0.1,0-0.1,0.1c0,0,0,0.1,0,0.1c0.2,0.2,0.4,0.5,0.7,0.7c0.1,0.1,0.1,0.3,0,0.4c-0.2,0.3-0.5,0.3-0.7,0.1
			c-0.6-0.5-1.2-1.1-1.9-1.6c-0.1-0.1-0.2-0.2-0.3-0.4c-0.1-0.2-0.1-0.4,0.1-0.5c0.5-0.3,1.1-0.4,1.7-0.2c0.2,0.1,0.3,0.1,0.5,0
			C93.9,42.6,94,42.5,94,42.3z"/>
		<path fill="#FADFD7" d="M81.9,51c0.4,0,0.7,0.1,0.9,0.1c0.1,0,0.2-0.1,0.3-0.1c0,0,0-0.1-0.1-0.1c-0.2-0.2-0.4-0.5-0.6-0.7
			c-0.1-0.1-0.1-0.2,0.1-0.4c0.2-0.2,0.4-0.2,0.6-0.1c0.4,0.3,0.8,0.7,1.3,1c0.5,0.3,0.7,0.8,1,1.3c0,0.1,0,0.3-0.2,0.4
			c-0.1,0.1-0.3,0.1-0.5,0.1c-0.2,0-0.4-0.1-0.6-0.2c-0.2-0.1-0.4-0.1-0.6-0.1c-0.1,0-0.3,0.3-0.2,0.4c0.1,0.2,0.3,0.3,0.4,0.5
			c0.1,0.1,0.1,0.3,0,0.4c-0.2,0.2-0.4,0.3-0.7,0.1c-0.4-0.2-0.8-0.4-1.1-0.7c-0.4-0.4-0.9-0.8-1.2-1.3c-0.1-0.1,0.1-0.4,0.2-0.4
			c0.1,0,0.2-0.1,0.3-0.1C81.4,51,81.7,51,81.9,51z"/>
		<path fill="#FADFD7" d="M72.3,57.4c0,0.1,0,0.1,0,0.2c-0.1,0.2-0.2,0.4-0.3,0.6c-0.2,0.3-0.7,0.5-0.3,0.9c0.4,0.2,0.6-0.2,0.8-0.4
			c0.1-0.1,0.2-0.1,0.3-0.2c0.1,0,0.2,0,0.3,0c0.2,0,0.4,0.3,0.3,0.4c-0.1,0.3-0.3,0.6-0.5,0.9c-0.1,0.1-0.1,0.2,0,0.3
			c0.1,0.1,0.2,0.1,0.3,0.1c0.2,0,0.3-0.1,0.5-0.1c0.1-0.1,0.3-0.1,0.4-0.2c0.1,0,0.4,0,0.4,0.2c0.1,0.1,0.1,0.3,0,0.4
			c-0.3,0.4-0.6,0.6-0.9,0.9c-0.3,0.2-0.6,0.2-0.9,0c-0.4-0.3-0.7-0.6-1.1-0.9c-0.5-0.4-1-0.9-1.4-1.4c-0.1-0.1,0-0.4,0-0.5
			c0.4-0.5,0.9-1,1.5-1.3c0.2-0.1,0.3,0,0.5,0C72.2,57.3,72.2,57.3,72.3,57.4z"/>
		<path fill="#FADFD7" d="M78.6,52.3c0-0.1,0-0.2,0.1-0.3c0-0.1,0.3-0.2,0.4-0.2c0.7,0.4,1.4,0.7,1.9,1.2c0.2,0.2,0.5,0.4,0.8,0.5
			c0.3,0.2,0.5,0.5,0.4,0.7c-0.1,0.1-0.2,0.2-0.3,0.3c-0.2,0.1-0.3-0.1-0.4-0.1c-0.4-0.1-0.8,0.2-0.8,0.6c0,0.2,0,0.3,0,0.5
			c0,0.1,0,0.2-0.1,0.3c0,0-0.1,0.1-0.1,0.1c-0.2,0.2-0.6,0.1-0.7-0.1c-0.1-0.3-0.3-0.6-0.3-0.9c0-0.6-0.3-1-0.5-1.5
			C78.6,53,78.6,52.6,78.6,52.3z M80.5,53.7c0-0.1,0-0.2-0.1-0.3c-0.1-0.1-0.3-0.1-0.4-0.1c-0.2,0-0.3,0.2-0.2,0.3
			c0.1,0.1,0.1,0.2,0.2,0.3C80,54,80.3,54,80.3,54C80.4,53.9,80.4,53.8,80.5,53.7z"/>
		<path fill="#FADFD7" d="M75.8,59.3c0,0.2-0.2,0.4-0.4,0.5c-0.2,0.1-0.4,0-0.6-0.2c-0.1-0.1-0.2-0.3-0.2-0.4c0-0.2,0-0.4-0.1-0.6
			c0-0.3-0.2-0.5-0.5-0.6c-0.4-0.2-0.8-0.3-1.2-0.4c-0.1,0-0.1-0.1-0.1-0.3c0-0.1,0-0.2,0.1-0.3c0.1,0,0.2-0.1,0.3-0.1
			c0.2,0,0.3,0,0.5,0c0.2,0,0.3-0.2,0.3-0.3c0-0.2,0-0.4,0.1-0.6c0-0.1,0.2-0.3,0.3-0.4c0.1-0.1,0.2-0.1,0.3,0
			c0.2,0.1,0.3,0.3,0.4,0.5c0.1,0.6,0.4,1,1,1.2c0.3,0.1,0.6,0.3,0.9,0.4C77,57.7,77,57.9,77,58c0,0.3-0.3,0.5-0.5,0.4
			c-0.1-0.1-0.3-0.1-0.4-0.2c-0.1-0.1-0.4,0.1-0.3,0.2c0,0.2,0,0.3,0,0.5C75.7,59.1,75.8,59.2,75.8,59.3z"/>
		<path fill="#FADFD7" d="M92.9,45.8c-0.1,0.2-0.1,0.3-0.2,0.5c-0.1,0.5-0.3,0.8-0.7,1.1c-0.1,0.1-0.3,0.2-0.4,0.2
			c-0.3,0-0.5,0-0.8,0c-0.1,0-0.2,0-0.3-0.1c-0.5-0.3-0.9-0.8-1.2-1.3c-0.1-0.2-0.2-0.4-0.1-0.6c0.1-0.3,0.2-0.5,0.3-0.7
			c0.2-0.3,0.4-0.5,0.8-0.5c0.3,0,0.5,0,0.8,0c0.9,0,1.4,0.4,1.7,1.2C92.8,45.6,92.8,45.7,92.9,45.8z M91.9,46
			c0-0.3-0.3-0.9-0.5-0.9c-0.3-0.1-0.6-0.1-0.9,0c-0.4,0.2-0.6,0.7-0.3,1.1c0.2,0.3,0.4,0.5,0.7,0.7c0.1,0.1,0.3,0.1,0.5,0
			c0.2-0.1,0.4-0.3,0.6-0.5C91.9,46.2,91.9,46.1,91.9,46z"/>
		<path fill="#FADFD7" d="M77.6,53.4c0.1,0,0.2,0,0.3,0.1c0.1,0,0.2,0.1,0.3,0.2c0.6,0.6,0.6,1,0.3,1.7c0,0.1-0.1,0.2-0.1,0.3
			c0,0.2,0,0.3,0.1,0.5c0.2,0.2,0.3,0.4,0.5,0.6c0.1,0.2,0.1,0.4,0,0.6c-0.1,0.1-0.2,0.1-0.3,0.1c-0.4-0.1-0.7-0.5-1.1-0.7
			c-0.2-0.1-0.4-0.4-0.5-0.6c-0.2-0.3-0.5-0.6-0.7-0.8c-0.4-0.4-0.3-1.4,0.3-1.7c0.2-0.1,0.5-0.2,0.7-0.3
			C77.3,53.3,77.4,53.4,77.6,53.4z M77.3,54.3c-0.2,0-0.4,0.2-0.4,0.4c0,0.4,0.2,0.6,0.6,0.6c0.3,0,0.4-0.2,0.4-0.6
			C77.9,54.4,77.7,54.3,77.3,54.3z"/>
		<path fill="#FADFD7" d="M86.2,51.4c-0.1,0-0.2,0-0.3-0.1c-0.1,0-0.2-0.3-0.1-0.4c0.1-0.2,0.3-0.3,0.5-0.4c0.1-0.1,0.1-0.3,0-0.4
			c-0.2-0.1-0.3-0.3-0.6-0.3c-0.4,0-0.8,0-1.1-0.1c-0.3,0-0.5-0.2-0.6-0.5c-0.2-0.3-0.1-0.7,0.1-0.9c0.3-0.3,0.6-0.6,1-0.8
			c0.2-0.1,0.5-0.1,0.8,0.1c0.2,0.2,0.2,0.4,0,0.5c-0.3,0.1-0.6,0.3-0.8,0.5c-0.1,0-0.1,0.2-0.1,0.3c0,0,0.1,0.1,0.1,0.1
			c0.2,0,0.3,0.1,0.5,0.1c0.3,0,0.5,0,0.8,0c0.6,0,1,0.3,1.3,0.8c0.1,0.1,0.1,0.3,0.1,0.5c-0.1,0.4-0.6,1-1.1,1
			C86.5,51.4,86.4,51.4,86.2,51.4z"/>
		<path fill="#FADFD7" d="M88.8,49.7c-0.3-0.2-0.4-0.4-0.3-0.6c0.1-0.3,0.1-0.5-0.1-0.7c-0.2-0.2-0.4-0.4-0.6-0.6
			c-0.2-0.2-0.5-0.3-0.7-0.2c-0.2,0-0.3,0-0.5,0c-0.1,0-0.2-0.3-0.2-0.4c0,0,0.1-0.1,0.1-0.1c0.4-0.5,0.9-0.9,1.5-1.1
			c0.2-0.1,0.3-0.1,0.4,0.1c0.1,0.1,0.2,0.2,0.1,0.4c-0.1,0.1-0.1,0.2-0.1,0.3c-0.1,0.2,0,0.3,0.1,0.5c0.1,0.2,0.3,0.3,0.4,0.5
			c0.3,0.3,0.6,0.5,1,0.4c0.1,0,0.1,0,0.2,0c0.1,0.1,0.2,0.1,0.2,0.2c0,0.1,0,0.3,0,0.5c-0.5,0.3-0.9,0.8-1.4,1.1
			C88.9,49.7,88.8,49.7,88.8,49.7z"/>
		<path fill="#78433F" d="M75.2,50.5c-0.4-0.1-0.8-0.3-1-0.7c-0.2-0.2-0.3-0.4-0.5-0.7c-0.1-0.2-0.3-0.3-0.5-0.5
			c-0.1-0.2-0.2-0.4-0.3-0.6c0-0.1,0-0.3,0.1-0.4c0.2-0.2,0.5-0.4,0.7-0.6c0.2-0.1,0.3-0.1,0.5-0.1c0.3,0.1,0.5,0.2,0.7,0.3
			c0.4,0.4,0.8,0.7,1.3,1c0.1,0.1,0.2,0.3,0.3,0.4c0.1,0.2,0.1,0.4,0.1,0.5c-0.1,0.2-0.2,0.4-0.3,0.6c-0.1,0.2-0.3,0.3-0.5,0.4
			C75.6,50.4,75.4,50.5,75.2,50.5z M75.3,48.7c-0.1,0-0.2,0-0.2,0c-0.2,0.1-0.3,0.2-0.3,0.4c-0.1,0.3,0.2,0.6,0.5,0.6
			c0.1,0,0.2,0,0.2-0.1c0.1-0.1,0.2-0.2,0.3-0.3c0.2-0.3,0-0.7-0.3-0.7C75.4,48.7,75.4,48.7,75.3,48.7z M73.7,48.1
			c0,0.1,0,0.2,0.1,0.2c0.1,0,0.2,0.1,0.2,0.1c0.1,0,0.2-0.1,0.3-0.2c0.1-0.1,0.1-0.2,0-0.3c-0.2-0.2-0.4-0.2-0.5,0
			C73.8,47.9,73.8,48,73.7,48.1z"/>
		<path fill="#78433F" d="M80.8,46.4c0,0,0,0.2-0.1,0.3c-0.1,0.2-0.2,0.4-0.3,0.6c-0.2,0.3-0.8,0.5-1.1,0.3
			c-0.2-0.1-0.4-0.2-0.6-0.3c-0.6-0.5-1.1-1-1.6-1.6c-0.1-0.1-0.1-0.3,0-0.4c0-0.1,0.1-0.2,0.2-0.4c0.1-0.3,0.3-0.4,0.6-0.5
			c0.1,0,0.3,0,0.4-0.1c0.4-0.2,0.6,0,0.9,0.2c0.2,0.4,0.6,0.6,0.9,0.7c0.3,0.1,0.4,0.3,0.6,0.5C80.8,45.9,80.9,46.1,80.8,46.4z
			 M79,46.4c0.1,0.1,0.2,0.2,0.3,0.3c0.3,0.2,0.6,0.2,0.8-0.1c0,0,0.1-0.1,0.1-0.1c0.2-0.3,0-0.7-0.3-0.7c-0.1,0-0.2,0-0.3,0.1
			C79.3,46,79.1,46.1,79,46.4z M77.8,45.3c0,0.2,0.1,0.3,0.3,0.4c0.2,0.1,0.3,0,0.4-0.1c0.1-0.1,0.1-0.1,0.2-0.2c0,0,0-0.1,0-0.1
			c0-0.1,0-0.2-0.1-0.2C78.2,44.8,77.8,44.9,77.8,45.3z"/>
		<path fill="#78433F" d="M82.9,41.5c0.1,0,0.2,0.1,0.2,0.1c0.1,0.1,0.1,0.1,0.1,0.2c0,0,0,0.1-0.1,0.1c-0.2,0.3-0.2,0.6,0,0.9
			c0.2,0.3,0.4,0.5,0.5,0.8c0.1,0.2,0.2,0.4,0.3,0.6c0,0.1-0.1,0.2-0.1,0.2c-0.1,0-0.2,0.1-0.2,0.1c-0.1,0-0.2-0.1-0.2-0.1
			c-0.2-0.2-0.5-0.4-0.7-0.7c-0.2-0.2-0.4-0.5-0.7-0.6C81.8,43,81.5,43,81.3,43c-0.1,0-0.1-0.1-0.1-0.2c0,0,0-0.1,0-0.1
			c0.4-0.3,0.8-0.6,1.2-0.9C82.5,41.6,82.7,41.5,82.9,41.5z"/>
		<path fill="#78433F" d="M80,43.8c0.3,0,0.5,0,0.7,0.2c0.3,0.4,0.7,0.7,1.1,1c0.1,0.1,0.2,0.2,0.3,0.3c0.1,0.1,0.1,0.3,0,0.4
			c-0.1,0.2-0.3,0.3-0.4,0.2c-0.1-0.1-0.3-0.2-0.4-0.3c-0.4-0.4-0.7-0.8-1.1-1.2C80,44.2,80.1,44,80,43.8L80,43.8z"/>
		<path fill="#78433F" d="M77.2,46.7c0,0.1,0,0.2,0,0.3c-0.1,0.2-0.3,0.4-0.6,0.6c-0.1,0.1-0.3,0-0.4-0.1c0-0.1-0.1-0.2,0-0.3
			c0.1-0.3,0.4-0.5,0.7-0.6C77,46.5,77.2,46.6,77.2,46.7z"/>
		<path fill="#78433F" d="M80.1,43.8c-0.1,0-0.3,0-0.4,0c-0.1,0-0.2-0.2-0.1-0.3c0-0.1,0.1-0.1,0.2-0.2c0.1-0.1,0.3,0,0.3,0.1
			C80,43.6,80,43.7,80.1,43.8L80.1,43.8z"/>
	</g>
</g>
</svg>
