<?xml version="1.0" encoding="utf-8"?>
<!-- Generator: Adobe Illustrator 19.2.1, SVG Export Plug-In . SVG Version: 6.00 Build 0)  -->
<svg version="1.1" id="Layer_1" xmlns="http://www.w3.org/2000/svg" xmlns:xlink="http://www.w3.org/1999/xlink" x="0px" y="0px"
	 viewBox="0 0 125 125" style="enable-background:new 0 0 125 125;" xml:space="preserve">
<style type="text/css">
	.st0{fill:#78433F;}
	.st1{fill:#EB594F;}
	.st2{fill:#A35652;}
	.st3{fill:#FADFD7;}
</style>
<path class="st0" d="M61.7999992,60.8000031C63.3999977,62.4000015,64.9000015,64,66.5,65.6000061
	c1,1,1.9000015,1.9000015,3,2.6999969c0.6999969,0.5,1.3000031,1.1999969,1.9000015,1.8000031
	c0.9000015,0.9000015,1.8000031,1.9000015,2.9000015,2.5C75,73.3000031,76,73.8000031,76.6000061,74.7000046
	c0.0999985,0.0999985,0.1999969,0.3000031,0.3000031,0.3000031c1.3000031,0.8000031,2.3000031,2,3.4000015,3.0999985
	c1.3000031,1.3000031,2.5,2.6999969,3.9000015,3.9000015c0.9000015,0.8000031,1.1999969,1.9000015,1.5999985,2.9000015
	c0.0999985,0.0999985,0.0999985,0.3000031,0.0999985,0.5c0,1,0.0999985,2.0999985-0.3000031,3.0999985
	c-0.0999985,0.1999969-0.0999985,0.5-0.0999985,0.6999969c0,0.8000031,0,1.5999985-0.0999985,2.4000015
	c0,0.3000031,0,0.5999985-0.0999985,1c-0.0999985,0.5999985-0.4000015,1-0.3000031,1.5999985v1.6999969
	c0,0.8000031-0.4000015,1.5999985-0.9000015,2.1999969c-0.6999969,0.8000031-1.5,1.5999985-2.4000015,2.3000031
	c-0.4000015,0.3000031-0.8000031,0.5999985-1.0999985,0.9000015c-1.5999985,1.5999985-3.3000031,3-5.0999985,4.3000031
	c-0.3000031,0.1999969-0.5,0.3000031-0.8000031,0.5999985c-0.9000015,0.9000015-2,1.5999985-3.0999985,2.3000031
	c-0.3000031,0.1999969-0.6999969,0.4000015-1,0.6999969c-1,1-2.3000031,1.6999969-3.4000015,2.6999969
	c-0.3000031,0.3000031-0.8000031,0.5-1.0999985,0.9000015c-0.8000031,0.8000031-1.8000031,1.3000031-2.7000008,2
	c-1.5,0.6999969-2.7000008,2-4.0999985,2.9000015c-0.9000015,0.9000015-2.0999985,1.5-3,2.4000015
	c-0.2000008,0.1999969-0.5,0.4000015-0.7999992,0.5c-1.4000015,0.8000031-2.7000008,1.6999969-3.9000015,2.8000031
	c-0.9000015,0.8000031-2.0999985,1.1999969-3.2000008,1.5c-1,0.1999969-2.0999985,0.1999969-3-0.4000015
	c-0.5999985-0.3000031-1.0999985-0.5999985-1.5999985-1c-0.9000015-0.8000031-1.7999992-1.5999985-2.7000008-2.3000031
	c-0.9000015-0.6999969-1.5999985-1.5-2.4000015-2.3000031c-0.2999992-0.3000031-0.7000008-0.6999969-1.0999985-1
	c-0.2999992-0.1999969-0.5999985-0.5-0.7999992-0.8000031c-0.2999992-0.5-0.7000008-0.8000031-1.2000008-1.1999969
	c-0.5-0.3000031-0.9000015-0.5999985-1.2999992-1l-9-9L20.4000072,101
	c-0.1000004-0.0999985-0.2000008-0.1999969-0.3999996-0.3000031c-1.8999996-1.1999969-3.2999992-3-4.8999996-4.5
	c-2-2-3.8999996-4-5.8999996-6C8.3000088,89.2999954,7.3000083,88.5,6.6000085,87.3999939
	c-0.3000002-0.4000015-0.9000001-0.5999985-1.2000003-1.0999985s-0.6999998-0.9000015-1.1999998-1.1999969
	c-1-1.4000015-2.4000001-2.4000015-3.0999999-3.9000015c-0.6-0.5-0.6-1.3000031-0.9-1.9000015c-0.2-0.5-0.2-1.0999985-0.1-1.6999969
	s0.1-0.9000015,0.0999915-1v-1.9000015C0.2,74.5,0.2,74.1999969,0.3,74c0.3-0.5,0.3-0.9000015,0.3-1.4000015v-1
	c-0.1-1.1999969,0.4-2.3000031,0.6-3.5c0.1-0.5999985,0.4-1.1999969,0.8999999-1.6999969
	C2.8,65.7000046,3.5,65.0999985,4.1999998,64.5c1.0999999-0.9000015,2.3000002-1.7000008,3.5-2.5
	C8.3000002,61.5999985,8.8999996,61.2000008,9.5,60.9000015c0.1999998-0.0999985,0.5-0.2000008,0.6000004-0.2999992
	c0.8999996-0.7999992,2-1.2999992,3-1.9000015c0.3999996-0.2000008,0.8000002-0.5,1.1999998-0.7999992
	c0.6999998-0.5,1.5-1,2.1999998-1.4000015c1.8999996-1,3.7000008-2.2000008,5.5-3.4000015
	c0.8999996-0.5999985,1.7999992-1,2.6000004-1.5999985c0.5-0.4000015,1.1000004-0.7000008,1.6000004-1.0999985
	c0.2999992-0.2999992,0.6000004-0.5,1-0.5999985c0.3999996-0.2000008,0.8999996-0.4000015,1.2000008-0.7000008
	c0.7000008-0.7000008,1.5-1.2000008,2.3999996-1.5999985c0.2999992-0.0999985,0.5-0.4000015,0.7999992-0.5999985
	C32,46.5000038,32.4000015,46.2000046,33,46.0000038l0.9000015-0.5999985c0.7999992-0.5,1.4000015-1.4000015,2.4000015-1.5
	c0.7999992-0.2999992,1.5-0.7000008,2.2999992-1.0999985c0.2999992-0.0999985,0.7000008-0.2000008,1-0.2000008
	c0.9000015,0,1.7000008,0.0999985,2.5,0.5999985c1.2999992,0.7000008,2.5999985,1.5999985,3.7000008,2.5999985
	c0.5999985,0.5999985,1.2000008,1.2999992,2,1.7000008c1.0999985,1.4000015,2.5999985,2.4000015,3.7999992,3.5999985
	c0.7999992,0.7000008,1.5999985,1.2999992,2.2999992,2c1.2999992,1.2000008,2.5,2.5,3.7999992,3.7000008"/>
<path class="st1" d="M39.7999992,43.7999992c1.9000015,0.4000015,3.4000015,1.4000015,4.7999992,2.7000008
	C45.2999992,47.0999985,46,47.7999992,46.7999992,48.4000015c0.7000008,0.5,1.2999992,1.2000008,1.9000015,1.7999992
	c0.5,0.5,1,1,1.7000008,1.2999992c0.2999992,0.0999985,0.5,0.4000015,0.7000008,0.5999985
	c1.2000008,1.2000008,2.4000015,2.2999992,3.5999985,3.5C55.1000023,56,55.5,56.3999977,56,56.6999969
	c0.2999992,0.2000008,0.5,0.4000015,0.7000008,0.7000008c0.5999985,1,1.5999985,1.7000008,2.4000015,2.5999985
	c1.2000008,0.7000008,2.0999985,1.7000008,3,2.7000008c2.7000008,2.6999969,5.3999977,5.4000015,8.2000008,8.0999985
	c0.0999985,0.0999985,0.1999969,0.3000031,0.3000031,0.4000015v0.1999969c-0.5,0.5999985-1.0999985,1.1999969-1.8000031,1.5999985
	c-0.8000031,0.4000015-1.5,0.9000015-2.1999969,1.4000015c-1.0999985,0.8000031-2.1999969,1.5999985-3.2999992,2.3000031
	c-0.2999992,0.1999969-0.7000008,0.4000015-1,0.6999969c-1.2000008,1.1999969-2.7000008,2-3.9000015,3.1999969
	c-0.2000008,0.1999969-0.5,0.4000015-0.7999992,0.5c-1,0.5-1.9000015,1.1999969-2.7999992,1.8000031
	c-0.9000015,0.6999969-1.9000015,1.1999969-2.7999992,1.8000031c-0.7000008,0.4000015-1.4000015,0.6999969-2.0999985,1.1999969
	c-0.9000015,0.6999969-1.9000015,1.1999969-2.9000015,1.6999969c-0.4000015,0.1999969-0.9000015,0.5-1.2000008,0.8000031
	c-1.5,1.3000031-3.2000008,2.4000015-4.7000008,3.6999969c-0.2000008,0.1999969-0.5,0.3000031-0.7999992,0.5
	c-0.7000008,0.5-1.2999992,0.9000015-1.9000015,1.4000015c-0.5999985,0.5-1.0999985,0.9000015-1.7999992,1.1999969
	c-0.5999985,0.3000031-1.0999985,0.5999985-1.5999985,1c-0.2000008,0.1999969-0.4000015,0.1999969-0.7000008,0
	s-0.5999985-0.3000031-0.7999992-0.5c-0.5-0.6999969-1.0999985-1.0999985-1.7000008-1.6999969
	c-0.3999996-0.4000015-0.7000008-0.9000015-1.2000008-1.0999985c-0.1000004-0.0999985-0.2999992-0.1999969-0.3999996-0.3000031
	c-1.2000008-1-2.2000008-2.0999985-3.3999996-3c-1.1000004-0.9000015-2.1000004-2-3.1000004-3
	c-0.2000008-0.1999969-0.3999996-0.5-0.7000008-0.5999985c-1-0.5999985-1.8999996-1.5-2.7000008-2.3000031
	c-0.2999992-0.3000031-0.7000008-0.6999969-1.1000004-0.8000031c-0.7999992-0.6999969-1.6000004-1.4000015-2.2999992-2.0999985
	L12,75.9000015c-0.8000002-0.8000031-1.6000004-1.5999985-2.5-2.1999969c-0.5-0.4000015-0.8999996-0.9000015-1.3999996-1.3000031
	c-0.5999999-0.5-1.0999999-1.1999969-1.9000001-1.5C5,69.9000015,4,68.8000031,3.2000003,67.5v-0.1999969l0.0999999-0.1999969
	c1.4000001-1.5,3-2.9000015,4.8000002-3.9000015c1-0.5999985,2-1.2999992,3-1.9000015
	c0.1999998-0.0999985,0.3999996-0.2999992,0.6000004-0.4000015c1.8999996-1,3.6999998-2.2000008,5.5-3.2999992
	C17.5,57.4000015,17.8000011,57.3000031,18,57.1000023c0.8999996-0.5999985,1.7999992-1.2999992,2.7999992-1.7999992
	c0.3999996-0.2000008,0.7000008-0.4000015,1-0.5999985l2.3999996-1.5c0.7000008-0.4000015,1.3999996-0.7999992,2-1.4000015
	c0.2000008-0.2000008,0.3999996-0.4000015,0.6000004-0.4000015c1-0.0999985,1.5-0.9000015,2.2000008-1.2999992
	c1.8999996-1.2999992,3.7999992-2.5999985,5.7999992-3.7999992c0.2999992-0.2000008,0.7000008-0.5,1-0.5999985
	c1-0.4000015,2-1,3-1.5C39.2000008,43.9000053,39.5,43.8000031,39.7999992,43.7999992z"/>
<path class="st2" d="M84.0999985,83.8000031V84c-1.4000015,0.9000015-2.3000031,2.1999969-3.6999969,3
	C80.3000031,87.0999985,80.0999985,87.1999969,80,87.3000031c-1,1.0999985-2.3000031,1.9000015-3.5,2.8000031
	c-1.4000015,1.0999985-2.8000031,2-4.0999985,3.1999969c-1,1-2.3000031,1.8000031-3.4000015,2.5999985
	C68.5,96.3000031,67.9000015,96.5999985,67.4000015,97c-1.3000031,0.8000031-2.5,1.6999969-3.7000008,2.6999969
	C63.2000008,100.1999969,62.5,100.5,62,101s-1.2000008,0.8000031-1.7000008,1.1999969L58.5,103.3999939
	c-1.4000015,1-2.7999992,1.9000015-4,3.0999985c-0.4000015,0.4000015-0.9000015,0.6999969-1.2999992,1
	c-0.5999985,0.5-1.2000008,1.0999985-1.7999992,1.5999985c-0.2000008,0.1999969-0.5,0.4000015-0.7999992,0.5999985
	c-0.2000008,0.0999985-0.5,0.0999985-0.7000008,0c-0.5-0.3000031-0.9000015-0.5999985-1.4000015-1
	c-0.5999985-0.5-1.2000008-1.0999985-1.7999992-1.5999985c-1.0999985-1-2.2999992-2-3.5-2.9000015
	c-0.7999992-0.5999985-1.5999985-1.3000031-2.4000015-2C40,101.3999863,39.2000008,100.5999908,38.3999977,99.8999863
	c-0.5-0.5-1-1-1.5999985-1.4000015c-0.4000015-0.1999969-0.7000008-0.6999969-1-1
	c-0.0999985-0.0999985-0.0999985-0.4000015,0-0.4000015l1.7999992-1.1999969c1.4000015-1,2.7999992-1.8000031,4.0999985-2.9000015
	c0.2000008-0.1999969,0.5-0.3000031,0.7999992-0.5c0.9000015-0.5999985,1.7999992-1.1999969,2.7000008-2
	c0.5999985-0.5999985,1.2999992-1.0999985,2.0999985-1.5999985c2-1.1999969,4-2.5,6.0999985-3.6999969
	c1.4000015-0.8000031,2.7000008-1.6999969,4-2.5999985c1.0999985-0.8000031,2.2999992-1.5,3.2000008-2.5
	c0.2000008-0.1999969,0.5-0.3000031,0.7999992-0.5c1.4000015-1,2.8000031-2.0999985,4.1999969-3.0999985
	c0.3000031-0.1999969,0.6999969-0.4000015,1-0.5999985s0.6999969-0.3000031,1-0.5999985
	c1.0999985-1.0999985,2.5999985-1.5999985,3.8000031-2.5c0.3000031-0.1999969,0.9000015-0.1999969,1.0999985,0
	c1.1999969,0.9000015,2.3000031,1.6999969,3.3000031,2.8000031c1.5999985,1.5999985,3.1999969,3.1999969,4.8000031,4.6999969
	c0.5999985,0.5999985,1.1999969,1.3000031,2,1.6999969c0.5999985,0.4000015,1.0999985,1,1.4000015,1.5999985
	c0-0.0999985,0,0.0999985,0.0999985,0.1999969V83.8000031z M84.6999969,87.3000031
	C84.5999985,88.5,84.7999954,89.6000061,84.2999954,90.6000061c0,0.8000031-0.0999985,1.5999985-0.0999985,2.4000015v1.4000015
	c0.0999985,1.0999985-0.3000031,2-0.9000015,2.9000015c-0.1999969,0.3000031-0.4000015,0.6999969-0.8000031,0.9000015
	c-0.8000031,0.5-1.5,1.1999969-2.1999969,1.8000031c-0.6999969,0.6999969-1.4000015,1.5-2.4000015,2
	c-0.1999969,0.0999985-0.4000015,0.3000031-0.5999985,0.4000015c-1.1999969,1.3000031-2.6999969,2.1999969-4.0999985,3.3000031
	c-0.1999969,0.0999985-0.4000015,0.3000031-0.5999985,0.4000015c-0.6999969,0.6999969-1.5,1.1999969-2.3000031,1.6999969
	s-1.5999985,1.0999985-2.1999969,1.8000031c-0.3000031,0.3000031-0.5999985,0.5-1,0.6999969
	c-0.3000031,0.0999985-0.5,0.3000031-0.8000031,0.5999985c-1.0999985,1.0999985-2.2999992,1.9000015-3.5999985,2.6999969
	c-1.4000015,0.8000031-2.5,1.9000015-3.7999992,2.8000031c-1.4000015,1-2.7000008,2.1999969-4.2999992,3
	c-1.2000008,1.0999985-2.7000008,2-4.0999985,2.9000015c-0.4000015,0.3000031-0.7999992,0.5-1.2999992,0.6999969
	c-0.4000015,0.1999969-0.7999992,0-1-0.3000031c0-0.0999985-0.0999985-0.0999985-0.0999985-0.1999969v-0.5
	c0.5999985-1.3000031,0.9000015-2.6999969,0.7999992-4.1999969c0-1.3000031,0.4000015-2.5,0.7000008-3.6999969l0.2999992-1.1999969
	c0-0.6999969,0.4000015-1.1999969,0.7999992-1.6999969c0.4000015-0.4000015,0.7000008-0.9000015,1.2000008-1.1999969
	c1-0.5999985,1.5999985-1.5,2.5-2.1999969c1.4000015-1.0999985,2.7999992-2.3000031,4.2999992-3.4000015
	c0.7000008-0.4000015,1.4000015-0.8000031,1.9000015-1.4000015c0.0999985-0.0999985,0.2000008-0.1999969,0.4000015-0.3000031
	c1.2000008-0.5999985,2.2999992-1.5,3.2999992-2.3000031c1.0999985-0.8000031,2.1999969-1.5999985,3.1999969-2.5
	c0.5-0.5,1.1999969-0.8000031,1.8000031-1.1999969c1.1999969-0.6999969,2.3000031-1.5,3.1999969-2.4000015
	c0.5-0.5,1.0999985-0.9000015,1.6999969-1.3000031c0.5999985-0.5,1.1999969-1,1.9000015-1.4000015
	c0.5999985-0.4000015,1-1,1.6999969-1.3000031c0.0999985-0.0999985,0.3000031-0.1999969,0.4000015-0.3000031
	c1-1,2.3000031-1.6999969,3.3000031-2.6999969c0.9000015-0.5,1.5-1.4000015,2.4000015-1.9000015h0.1999969
	c0,0,0.0999985,0.0999985,0.0999985,0.1999969C84.5999985,86.3000107,84.6999969,86.9000168,84.6999969,87.3000031z"/>
<path class="st1" d="M1.6,75.5c0-1,0-2,0.1-3.0999985v-0.5C2,71.0999985,2,70.2000046,2.2,69.3000031
	c0-0.0999985,0.2-0.1999969,0.3-0.3000031c0.2-0.0999985,0.3,0,0.4000001,0.0999985l0.3,0.3000031
	c0.9999998,1.0999985,2.1000001,2.1999969,3.4000003,3C7.5000005,73,8.2000008,73.8000031,8.9000006,74.5
	C9.6000004,75.0999985,10.3000002,75.8000031,11,76.4000015C11.8000002,77,12.5,77.8000031,13.1999998,78.5999985
	C14.5999994,80,16,81.4000015,17.5,82.7999954c0.5,0.4000015,0.8999996,0.9000015,1.5,1.1999969
	c0.2999992,0.0999985,0.5,0.4000015,0.7000008,0.5999985c0.7999992,0.9000015,1.7000008,1.6999969,2.7000008,2.3000031
	c0.1000004,0.0999985,0.2999992,0.1999969,0.3999996,0.3000031c0.6000004,1.1999969,1.7999992,1.6999969,2.7000008,2.6999969
	c0.7999992,0.9000015,1.7999992,1.5999985,2.7000008,2.3000031c0.7999992,0.5999985,1.5,1.4000015,2.2999992,2.0999985
	c0.5,0.4000015,0.8999996,0.9000015,1.4999981,1.1999969c0.4000015,0.1999969,0.7000008,0.6999969,1.0999985,1
	c0.5999985,0.5,0.7999992,1.0999985,0.7000008,1.9000015c-0.0999985,0.5999985-0.0999985,1.3000031-0.0999985,1.9000015
	c0,0.5,0,0.9000015-0.2000008,1.4000015c-0.0999985,0.3000031-0.0999985,0.5999985-0.0999985,0.9000015
	c-0.0999985,0.9000015,0,1.8000031-0.4000015,2.5999985c0,0.5999985-0.2000008,1.0999985-0.0999985,1.6999969
	c0.0999985,1.0999985-0.2999992,2-0.5,3c0,0.1999969-0.5,0.3000031-0.6000004,0.1999969
	c-0.2000008-0.1999969-0.5-0.4000015-0.7000008-0.5999985c-1.7000008-1.8000031-3.5-3.4000015-5.1999989-5.3000031
	c-1.5-1.5999985-3.2000008-3.0999985-4.7000008-4.6999969c-0.5-0.5-1.1000004-1-1.6000004-1.4000015
	c-0.3999996-0.4000015-0.8999996-0.6999969-1.2000008-1.0999985c-0.2000008-0.3000031-0.5-0.4000015-0.7000008-0.5999985
	c-1-0.6999969-1.8999996-1.5-2.5-2.5c-0.1999998-0.3000031-0.3999996-0.5-0.6000004-0.6999969c-1-0.9000015-1.8999996-2-3-2.6999969
	c-0.3000002-0.1999969-0.6000004-0.5-0.8000002-0.8000031c-0.6999998-1-1.5-1.8000031-2.4000006-2.6999969l-2-2
	c-0.1999998-0.1999969-0.4000001-0.5-0.6999998-0.6999969c-1.3000002-0.5999985-2-1.8000031-2.7-3
	c-1.4-1.5999985-1.4-2-1.4-3.9000015C1.5999979,77.4000015,1.5999979,75.5,1.6,75.5z M8.8000002,78.5
	C9.1000004,77.5,8.5,76.5999985,7.7000003,75.9000015c-0.5999999-0.5-1.0999999-1.1999969-1.7000003-1.6999969
	c-0.4000001-0.3000031-0.9000001-0.4000015-1.4000001-0.3000031C4.5,73.9000015,4.2999997,74,4.1999998,74.0999985
	c-0.2,0.1999969-0.4000001,0.5-0.5,0.8000031c-0.4000001,0.8000031-0.7,1.5999985-0.5999999,2.5v0.1999969
	c-0.0999999,0.8000031,0.2,1.4000015,0.5,2s0.8000002,1.1999969,1.2000003,1.8000031
	c0.0999999,0.1999969,0.3000002,0.3000031,0.5999999,0.4000015C5.8000002,82,6.3000002,82.1000061,6.8000002,82.2000046
	c0.0999999,0,0.3000002,0,0.5-0.0999985c1.1000004-0.5,1.5-1.4000015,1.6000004-2.5
	C8.8000002,79.4000092,8.8000002,79.0000076,8.8000002,78.5z"/>
<path class="st2" d="M33.7000008,109.4000015c0-0.5999985,0.0999985-1.3000031,0.0999985-1.9000015
	c0-0.4000015,0.0999985-0.8000031,0.2000008-1.1999969c0.0999985-0.0999985,0.0999985-0.3000031,0.0999985-0.5
	c0.0999985-1,0.2000008-1.9000015,0.4000015-2.8000031s0.0999985-1.9000015,0.2000008-2.9000015
	c0-0.3000031,0.2000008-0.5999985,0.5-0.8000031c0.0999985-0.0999985,0.5-0.1999969,0.7000008-0.0999985
	C36,99.1999969,36,99.2999954,36.1000023,99.2999954c1.5,1.5,3.2999992,2.8000031,4.7999992,4.4000015
	c0.2999992,0.4000015,0.7000008,0.6999969,1.0999985,1c0.5999985,0.5,1.2999992,0.9000015,1.9000015,1.5
	c0.5,0.5,1,1,1.7000008,1.3000031c1.0999985,1,2.2000008,2.0999985,3.2999992,3.0999985
	c0.2000008,0.1999969,0.2999992,0.5999985,0.2999992,0.9000015v0.5c-0.5999985,1.0999985-0.5999985,2.1999969-0.5999985,3.4000015
	c0,0.1999969,0,0.3000031-0.0999985,0.5c-0.2999992,0.5-0.4000015,1.0999985-0.2999992,1.5999985
	c0.0999985,1.0999985-0.4000015,2-0.5,3c-0.2999992,0.5999985-0.4000015,1.1999969-0.5,1.8000031
	c0,0.3000031-0.7000008,0.5999985-1,0.5c-0.4000015-0.1999969-0.7000008-0.3000031-1-0.5999985
	c-0.7999992-0.5999985-1.5-1.1999969-2.2999992-1.6999969c-1.2999992-1.3000031-2.7999992-2.3000031-4.0999985-3.6999969
	c-1-1-2.0999985-2-3.0999985-3c-0.2000008-0.1999969-0.4000015-0.5-0.7000008-0.5999985
	c-0.9000015-0.4000015-1.2000008-1.1999969-1.2000008-2.1999969c-0.0999985-0.4000015-0.0999985-1-0.0999985-1.5999985
	L33.7000008,109.4000015z"/>
<path class="st3" d="M4.5,78.8000031C4.3000002,77.9000015,4.3000002,76.9000015,4.5,76
	c0-0.3000031,0.1999998-0.4000015,0.4000001-0.5999985C5.2000003,75.2000046,5.5999999,75.3000031,5.8000002,75.5
	C6.5,76.3000031,7.1000004,77.0999985,7.7000003,77.9000015C7.8000002,78,7.8000002,78.2000046,7.8000002,78.3000031
	c0,0.4000015,0,0.8000031-0.0999999,1.1999969s-0.1999998,0.6999969-0.4000001,1.0999985
	c-0.0999999,0.3000031-0.6999998,0.5-1,0.3000031C6.1000004,80.8000031,5.9000001,80.7000046,5.7000003,80.5
	C5.3000002,79.9000015,4.9000001,79.3000031,4.5,78.8000031z"/>
<path class="st3" d="M8.8000002,78.5v1.3000031c-0.1999998,1.0999985-0.6000004,2-1.5999999,2.5
	c-0.0999999,0.0999985-0.3000002,0.0999985-0.5,0.0999985c-0.5-0.0999985-0.9000001-0.3000031-1.4000001-0.4000015
	c-0.1999998-0.0999985-0.4000001-0.3000031-0.5999999-0.4000015l-1.2-1.8000031c-0.3-0.5999985-0.7-1.3000031-0.5-2v-0.1999969
	c-0.0999999-0.9000015,0.2-1.6999969,0.6000001-2.5c0.0999999-0.3000031,0.3-0.5999985,0.5-0.8000031
	c0.0999999-0.0999985,0.3000002-0.1999969,0.4000001-0.1999969c0.5-0.0999985,0.9000001,0,1.4000001,0.3000031
	c0.5999999,0.5,1.1999998,1.0999985,1.6999998,1.6999969C8.5,76.5999985,9,77.4000015,8.8000002,78.5z M4.5,78.8000031
	l1.1999998,1.8000031c0.0999999,0.1999969,0.4000001,0.3000031,0.5999999,0.4000015c0.3000002,0.1999969,0.9000001,0,1-0.3000031
	c0.0999999-0.4000015,0.1999998-0.8000031,0.4000001-1.0999985c0.0999999-0.4000015,0.0999999-0.8000031,0.0999999-1.1999969
	c0-0.1999969,0-0.3000031-0.0999999-0.4000015C7.0999999,77.2000046,6.5,76.3000107,5.7999997,75.6000061
	c-0.1999998-0.1999969-0.5999999-0.1999969-0.9000001-0.0999985c-0.1999998,0.0999985-0.3000002,0.3000031-0.4000001,0.5999985
	C4.3999996,76.9000092,4.3999996,77.8000031,4.5,78.8000031z M51.2000008,68.1999969
	C51.2999992,68.3999939,51.4000015,68.5,51.5,68.5999985c0.5,0.0999985,0.9000015,0.3000031,1.4000015,0.1999969
	c0.2999992,0,0.5,0,0.7999992,0.0999985c0.0999985,0,0.2000008,0,0.2000008,0.0999985
	c0.2999992,0.1999969,0.5999985,0.5,0.7999992,0.8000031c0.2000008,0.4000015,0.4000015,0.8000031,0.5,1.1999969
	s0.2999992,0.6999969,0.5,1C55.7999992,72.1999893,56,72.3999939,56.1000023,72.6999893
	c0.0999985,0.1999969,0.2000008,0.4000015,0.2000008,0.5999985v0.5c0,0.3000031-0.0999985,0.5999985-0.2999992,0.8000031
	c-0.5,0.8000031-1.2000008,1.5-1.7999992,2.0999985c-0.2000008,0.1999969-0.4000015,0.3000031-0.7000008,0.4000015
	c-0.2000008,0.0999985-0.5,0.1999969-0.7000008,0.1999969H49.5c-0.2999992,0-0.5,0-0.7000008-0.1999969
	C48.5,76.9999924,48.2000008,76.8999939,48,76.6999893c-0.2999992-0.0999985-0.5-0.3000031-0.7999992-0.4000015
	s-0.5999985-0.0999985-0.9000015-0.1999969s-0.5-0.0999985-0.7999992,0c-0.2000008,0.0999985-0.2999992,0.0999985-0.5,0.0999985
	c-0.4000015,0-0.7000008,0.1999969-1.0999985,0.3000031c-0.2999992,0.0999985-0.7000008,0-1,0.0999985
	C42.3000031,76.7999878,41.6000023,76.7999878,41,76.7999878c-0.4000015,0-0.7000008,0.0999985-1,0.3000031
	c-0.7999992,0.6999969-1.7999992,1.1999969-2.4000015,2.1999969c-0.0999985,0.1999969-0.2999992,0.4000015-0.5,0.5999985
	c-0.4000015,0.1999969-0.7000008,0.5999985-1,0.8000031c-0.2999992,0.3000031-0.7000008,0.5-1.0999985,0.6999969
	c-0.5,0.3000031-0.9000015,0.6999969-1.2999992,1C33.2999992,82.6999893,32.7999992,82.9999847,32.5,83.2999878
	c-0.4000015,0.3000031-0.7999992,0.5-1.2999992,0.5999985c-0.2999992,0-0.6000004,0.1999969-0.8999996,0.1999969h-1
	c-0.6000004,0-1.1000004-0.1999969-1.6000004-0.4000015C27.5,83.5999832,27.3000011,83.3999786,27,83.2999802
	c-0.3999996-0.1999969-0.6000004-0.4000015-0.8999996-0.8000031c-0.3999996-0.5999985-0.5-0.8000031-0.7999992-1.5999985
	c0-0.4000015-0.2999992-0.5999985-0.2999992-1c0-0.3000031-0.2000008-0.5999985-0.2000008-0.9000015
	c0-0.4000015-0.2999992-0.6999969-0.6000004-0.9000015c-0.3999996-0.1999969-0.7999992-0.5999985-1.1000004-0.9000015
	s-0.3999996-0.5999985-0.6000004-1c-0.2999992-0.6999969-0.3999996-1.4000015-0.2999992-2.0999985
	c0-0.4000015,0.2000008-0.8000031,0.5-1c0.6000004-0.4000015,1.1000004-0.9000015,1.6000004-1.3000031
	c0.2000008-0.1999969,0.3999996-0.3000031,0.7000008-0.4000015s0.5-0.3000031,0.7000008-0.5999985
	c0.2000008-0.3000031,0.2000008-0.5999985,0.2999992-1c0,0,0-0.0999985-0.1000004-0.0999985
	c-0.2000008-0.4000015-0.6000004-0.5-1-0.5c-0.2999992,0-0.5,0.1999969-0.7000008,0.1999969c-0.5,0-1,0.0999985-1.5,0
	c-0.3999996,0-0.7999992-0.1999969-1.1000004-0.5999985C21.5,68.6999741,21.3999996,68.4999695,21.3000011,68.399971
	c-0.2000008-0.3000031-0.5-0.4000015-0.8999996-0.5h-0.7999992c-0.2000008,0-0.3999996-0.0999985-0.6000004-0.3000031
	c-0.3999996-0.4000015-0.6000004-0.9000015-0.7000008-1.5c-0.1000004-0.8000031,0.2000008-1.4000015,0.7000008-2
	c0.2999992-0.4000015,0.7000008-0.5999985,1.1000004-0.7999992c0.2999992-0.0999985,0.5-0.0999985,0.7999992-0.0999985
	c0.3999996,0.2000008,0.7999992,0.2000008,1.2000008,0.4000015c0.2999992,0.2000008,0.6000004,0.2999992,1,0.4000015
	c0.5,0.2999992,1.1000004,0.2000008,1.6000004,0.1000023c0.2999992-0.0999985,0.5-0.0999985,0.7999992-0.0999985h2.2000008
	c0.2000008,0,0.2999992,0.0999985,0.5,0.1999969s0.3999996,0.1999969,0.6000004,0.1999969
	c0.6000004,0,1.1000004,0,1.7000008-0.0999985c0.2000008,0,0.2999992,0,0.5-0.0999985
	c0.3999996-0.2000008,0.7999992-0.0999985,1.2999992,0c0.2000008,0,0.2999992,0.0999985,0.5,0.0999985
	c0.5999985,0.0999985,1.0999985-0.0999985,1.5-0.5c0.2999992-0.2999992,0.5999985-0.5,0.7999992-0.9000015
	c0.4000015-0.5999985,1-0.9000015,1.5999985-1.2999992c0.0999985-0.0999985,0.2000008-0.0999985,0.4000015-0.0999985
	c0.5,0,0.7999992-0.2000008,1.0999985-0.5c0.2000008-0.0999985,0.2999992-0.2000008,0.5-0.4000015
	c0.2999992-0.2000008,0.7000008-0.4000015,1-0.7000008C39.7999992,59.7999725,40,59.6999702,40.1000023,59.5999718
	c0.9000015-0.4000015,1.5999985-1,2.4000015-1.5c0.5-0.2999992,1.0999985-0.7000008,1.5999985-1.0999985
	c0.2999992-0.2000008,0.5999985-0.2999992,1-0.2999992h1.2000008c0.0999985,0,0.2999992,0,0.4000015-0.0999985
	c0.2999992-0.2999992,0.7999992-0.5,1.0999985-0.9000015c0.2000008-0.2000008,0.4000015-0.2999992,0.5999985-0.4000015
	c0.2000008-0.0999985,0.5-0.2000008,0.7000008-0.0999985c0.0999985,0.0999985,0.2000008,0.0999985,0.4000015,0.0999985
	c0.5,0.0999985,0.7999992,0.4000015,1.0999985,0.7999992v1.0999985c-0.0999985,0.4000015-0.2999992,0.7000008-0.5,1
	l-0.2999992,0.2999992c-0.2000008,0.2000008-0.4000015,0.4000015-0.7000008,0.5999985
	c-0.0999985,0.0999985-0.0999985,0.4000015,0,0.5c0.2000008,0.2000008,0.5,0.2999992,0.7000008,0.5
	s0.4000015,0.4000015,0.4000015,0.5999985s0.2000008,0.4000015,0.2000008,0.5999985
	c0.0999985,0.2999992,0.2000008,0.5,0.2999992,0.7000008c0.2999992,0.4000015,0.5,0.9000015,0.5,1.4000015
	c0,0.2999992,0.0999985,0.5,0.2999992,0.7000008l0.2999992,0.3000031c0.0999985,0.0999985,0.2000008,0.1999969,0.2000008,0.3000031
	c0.0999985,0.5999985,0.0999985,1.0999985,0,1.6999969c0,0.1999969-0.0999985,0.3000031-0.2000008,0.5
	c0,0.4000015-0.2999992,0.8000031-0.5999985,1.3000031L51.2000008,68.1999969z M47.0999985,72
	c0.0999985-0.0999985,0.2000008-0.1999969,0.2000008-0.3000031L47.5,71.5v-0.1999969
	c0-0.0999985-0.2000008-0.1999969-0.2999992-0.1999969S47,71.1000061,47,71.2000046
	c-0.2000008,0.1999969-0.5,0.4000015-0.7000008,0.5999985C46,72.1000061,45.5999985,72.4000015,45.2000008,72.7000046
	c-0.2999992,0.1999969-0.5,0.3000031-0.7000008,0.5c-0.2999992,0.1999969-0.5,0.5-0.7000008,0.6999969
	s-0.2999992,0.3000031-0.4000015,0.5L43.2999992,74.5c0,0.0999985,0,0.1999969,0.0999985,0.1999969
	c0,0.0999985,0.0999985,0.0999985,0.2000008,0.0999985c0.5-0.0999985,0.7999992-0.5,1.2000008-0.8000031
	c0.0999985-0.0999985,0.2999992-0.1999969,0.5-0.1999969h1.4000015c0.0999985,0,0.2000008,0.0999985,0.2000008,0.0999985
	C47,73.9999924,47,74.0999908,47,74.0999908c0.2000008,0.3000031,0.4000015,0.4000015,0.7000008,0.4000015h0.0999985
	c0.7999992-0.0999985,0.7000008,0,1.0999985,0.5999985c0.0999985,0.0999985,0.2000008,0.3000031,0.2999992,0.4000015
	l0.2999992,0.3000031c0.2000008,0.0999985,0.5,0.1999969,0.7000008,0.4000015
	c0.2999992,0.1999969,0.7000008,0.1999969,1.0999985,0.4000015c0.5999985,0.0999985,1.2000008-0.0999985,1.7000008-0.3000031
	c0,0,0.0999985,0,0.0999985-0.0999985c0.5-0.4000015,0.9000015-0.9000015,1.4000015-1.4000015
	c0.2000008-0.1999969,0.2000008-0.4000015,0.4000015-0.6999969c0-0.0999985,0.0999985-0.1999969,0-0.1999969
	c-0.2000008-0.3000031-0.2999992-0.6999969-0.5-1c-0.0999985-0.1999969-0.4000015-0.3000031-0.5999985-0.5
	c-0.0999985,0-0.0999985-0.0999985-0.2000008-0.1999969S53.5,72.1000061,53.5,72.0000076v-1
	c0-0.1999969,0-0.4000015-0.0999985-0.5999985c0-0.0999985-0.0999985-0.1999969-0.2000008-0.1999969
	c-0.2000008-0.0999985-0.5-0.0999985-0.7000008,0s-0.2999992,0.3000031-0.5,0.4000015h-0.2000008
	C51.7000008,70.5000153,51.5,70.4000168,51.5,70.2000122c-0.2000008-0.3000031-0.4000015-0.4000015-0.7000008-0.5h-0.2000008
	c-0.2000008,0.1999969-0.4000015,0.5-0.4000015,0.8000031v0.5c0,0-0.0999985,0.3000031-0.2999992,0.4000015
	s-0.2999992,0.3000031-0.2999992,0.5c0,0.3000031,0.2000008,0.5,0.2999992,0.8000031c0,0.0999985,0,0.3000031-0.0999985,0.4000015
	s-0.2999992,0.0999985-0.5,0.0999985c-0.0999985,0-0.2000008-0.1999969-0.2000008-0.3000031
	c0-0.6999969-0.0999985-0.8000031-0.7999992-0.8000031h-0.5999985c-0.5,0-0.5999985,0-0.5999985-0.0999985L47.0999985,72z
	 M43.1999969,71.4000015c0.2000008,0.0999985,0.4000015,0.0999985,0.5,0.1999969
	c0.0999985,0,0.2999992-0.3000031,0.2999992-0.3000031c-0.0999985-0.1999969-0.0999985-0.3000031-0.2000008-0.5
	c-0.5999985-0.5999985-1.2000008-1.1999969-1.9000015-1.6999969c-0.4000015-0.1999969-0.7999992-0.3000031-1.2000008-0.3000031
	s-0.9000015,0.5-0.9000015,1c0,0.4000015,0.2000008,0.6999969,0.2000008,1c0,0.4000015,0.0999985,0.8000031,0.2000008,1.0999985
	c0.0999985,0.0999985,0,0.3000031,0,0.5c0,0.0999985-0.0999985,0.1999969-0.0999985,0.1999969
	c-0.2000008,0.0999985-0.5,0.1999969-0.7000008,0.3000031s-0.4000015-0.1999969-0.4000015-0.4000015
	c0-0.0999985,0.0999985-0.3000031,0.0999985-0.4000015c0.0999985-0.1999969,0.0999985-0.5,0-0.6999969
	s-0.0999985-0.3000031-0.0999985-0.5c-0.0999985-0.4000015-0.2999992-0.5999985-0.5999985-0.8000031
	c-0.0999985,0-0.2000008-0.0999985-0.2000008,0c-0.4000015,0.0999985-0.7000008,0.3000031-1,0.5l-0.2999992,0.3000031
	c-0.2000008,0.4000015-0.5,0.8000031-0.2999992,1.3000031c0.0999985,0.1999969,0.0999985,0.4000015,0.0999985,0.5999985
	c0.0999985,0.5999985,0.2999992,1.1999969,0.5999985,1.8000031c0.0999985,0.1999969,0.2999992,0.4000015,0.5999985,0.5h0.2000008
	C38.2999916,75,38.4999924,74.6999969,38.3999901,74.5c0-0.0999985-0.0999985-0.1999969-0.0999985-0.1999969
	c-0.0999985-0.1999969,0.0999985-0.5,0.4000015-0.4000015C38.8999939,74,38.9999924,74,39.1999931,74.0999985
	c0.2999992,0.0999985,0.5999985,0.0999985,0.9000015,0c0.2999992-0.0999985,0.5-0.3000031,0.7999992-0.4000015
	c0.4000015,0,0.5999985-0.3000031,0.7000008-0.5999985c0.0999985-0.1999969,0.2000008-0.5,0.2999992-0.6999969
	c0.0999985-0.3000031,0.2999992-0.5999985,0.5999985-0.8000031C42.5999908,71.5,42.6999931,71.5,42.7999916,71.4000015
	C42.7999916,71.4000015,43.1999931,71.4000015,43.1999969,71.4000015z M45.0999985,62C45,62,45,62,45.0999985,62
	C44.8999977,61.7999992,44.8999977,61.5999985,45,61.5c0.2000008-0.2000008,0.5-0.2000008,0.5999985-0.5v-0.2000008
	c0-0.0999985-0.0999985-0.0999985-0.2000008-0.0999985h-0.2000008c-0.2000008,0.0999985-0.2999992,0.0999985-0.5,0.2000008
	c-0.0999985,0-0.2000008,0-0.2000008-0.0999985s-0.0999985-0.2000008,0-0.2000008
	c0.2999992-0.2999992,0.5-0.5999985,0.7999992-0.7999992c0.0999985-0.0999985,0.2000008-0.0999985,0.2999992-0.0999985h0.5999985
	c0.2999992,0,0.5,0.0999985,0.7000008,0.2000008c0,0,0.0999985,0,0.0999985,0.0999985
	c0.0999985,0.0999985,0.0999985,0.0999985,0.0999985,0.2000008s0,0.2000008-0.0999985,0.2000008
	c-0.2000008,0.0999985-0.5,0.0999985-0.7000008,0.2999992c-0.0999985,0.0999985-0.0999985,0.0999985-0.0999985,0.2000008
	c0.0999985,0.2000008,0.2999992,0.2999992,0.4000015,0.4000015c0.0999985,0,0.2000008,0.0999985,0.2000008,0.0999985
	c0.0999985,0,0.2000008-0.0999985,0.4000015-0.0999985c0.4000015-0.0999985,0.5999985-0.4000015,0.7000008-0.7000008
	c0-0.2000008,0.0999985-0.2999992,0.2000008-0.5C48.0999985,60.0000076,48,59.9000053,48,59.9000053
	c-0.0999985-0.4000015-0.2999992-0.5999985-0.7000008-0.7000008C47,59.1000061,46.7000008,59.1000061,46.5,58.9000053
	c-0.0999985,0-0.0999985-0.0999985-0.0999985-0.2000008c0.0999985-0.2000008,0.2999992-0.2000008,0.4000015-0.2999992
	s0.0999985-0.2999992,0-0.4000015l-0.2999992-0.2999992c-0.7000008-0.2999992-1.2000008,0.2000008-1.4000015,0.7000008v0.4000015
	c0,0.2000008-0.0999985,0.2999992-0.2999992,0.4000015c-0.5999985,0.0999985-1,0.4000015-1.4000015,0.7999992l-0.2999992,0.2999992
	c-0.2000008,0.2000008-0.4000015,0.4000015-0.5999985,0.4000015c-0.2000008,0.0999985-0.4000015,0.2000008-0.5999985,0.2000008
	c-1.0999985,0.4000015-0.9000015,0.2000008-1.5999985,1l-0.2999992,0.2999992c0,0,0,0.0999985-0.0999985,0.0999985
	c-0.0999985,0.0999985,0,0.2999992,0,0.4000015c0.2000008,0.2999992,0.2999992,0.2999992,0.7000008,0.2000008
	c0,0,0.0999985,0,0.0999985-0.0999985c0.2000008-0.0999985,0.2999992,0,0.4000015,0.0999985
	c0.0999985,0.2999992,0.2000008,0.5999985,0.2000008,0.9000015c0,0.4000015,0.2000008,0.6999969,0.4000015,1.0999985
	c0,0.0999985,0.0999985,0.0999985,0.2000008,0.0999985c0.2999992,0.0999985,0.7000008-0.0999985,0.7000008-0.4000015
	c0.0999985-0.4000015,0.0999985-0.9000015,0-1.2999992c-0.2999992-0.2999992-0.0999985-0.7999992-0.2999992-1.0999985
	c-0.0999985-0.2999992,0-0.4000015,0.2000008-0.5l0.2000008-0.2000008c0,0,0.0999985,0,0.0999985-0.0999985
	c0.0999985,0,0.2999992,0,0.2999992,0.0999985c0.2000008,0.5,0.5,0.9000015,0.7000008,1.4000015
	c0.0999985,0.0999985,0.2000008,0.2000008,0.2999992,0.2000008c0.2999992,0.0999985,0.5999985,0.0999985,0.9000015,0
	s0.5999985-0.2999992,0.9000015-0.5999985c0.2000008-0.2000008,0.2000008-0.5999985-0.0999985-0.7999992
	c-0.0999985-0.0999985-0.2000008-0.0999985-0.2000008-0.0999985c-0.0999985,0.2000008-0.2999992,0.2999992-0.5,0.4000015
	L45.0999985,62z M45.2999992,65.5999985c0.0999985,0.5999985,0.2999992,1.0999985,0.5999985,1.5999985
	c0.2000008,0.3000031,0.2999992,0.5999985,0.4000015,0.9000015c0.0999985,0.1999969,0.2999992,0.4000015,0.5999985,0.5h0.7999992
	c0.0999985,0,0.2999992-0.0999985,0.4000015-0.0999985c0.2999992-0.1999969,0.5-0.4000015,0.7000008-0.5999985
	c0.0999985-0.0999985,0.0999985-0.1999969,0-0.4000015c0-0.0999985-0.0999985-0.1999969-0.0999985-0.1999969
	c-0.0999985-0.1999969-0.2999992-0.1999969-0.4000015-0.0999985c0,0-0.0999985,0-0.0999985,0.0999985L48,67.5
	c0,0-0.2000008,0.0999985-0.2000008,0s-0.0999985-0.1999969-0.0999985-0.1999969c0.2000008-0.3000031,0.4000015-0.6999969,0.5-1
	c0-0.0999985-0.0999985-0.4000015-0.2999992-0.4000015H47.5c-0.2000008,0-0.2999992,0.0999985-0.5,0.1999969
	c-0.0999985,0-0.2999992,0-0.2999992-0.0999985c-0.0999985-0.0999985-0.0999985-0.3000031,0-0.3000031l0.0999985-0.0999985
	C47,65.5,47.2000008,65.2999954,47.3999977,65.1999969c0.0999985-0.0999985,0.2000008-0.0999985,0.4000015,0
	s0.5,0.1999969,0.7000008,0.1999969h0.5999985c0,0,0.2999992,0.1999969,0.2000008,0.4000015
	C49.2000008,65.9999924,49.0999985,66.0999985,49,66.1999969s0,0.4000015,0.0999985,0.5
	c0.2999992,0.3000031,0.7000008,0.3000031,1,0c0.2999992-0.1999969,0.5-0.5,0.4000015-0.9000015v-0.0999985
	c0-0.5999985-0.2999992-1.0999985-0.9000015-1.1999969c-0.2000008-0.0999985-0.5-0.0999985-0.7000008-0.0999985
	l-0.0999985-0.0999985v-0.1999969C48.8999977,64.0000076,49,64.0000076,49.0999985,63.9000053
	c0.0999985-0.0999985,0.0999985-0.2999992,0.0999985-0.5c-0.0999985-0.0999985-0.2999992-0.2000008-0.4000015-0.2000008
	c-0.5,0.0999985-1,0.4000015-1.2000008,0.8000031c-0.0999985,0.0999985-0.0999985,0.1999969-0.2000008,0.3000031
	c-0.0999985,0.1999969-0.2999992,0.3000031-0.5,0.3000031h-0.4000015c0,0-0.2000008,0-0.2000008,0.0999985
	c-0.4000015,0.0999985-0.7999992,0.4000015-1,0.9000015L45.2999992,65.5999985z M19.2999992,65.7999954v0.4000015
	c0,0.1999969,0.1000004,0.4000015,0.2999992,0.5C19.9999981,67,20.4999981,67.2999954,20.9999981,67.2999954
	c0.2000008,0.0999985,0.5,0.1999969,0.7000008,0.1999969c0.2999992,0,0.6000004,0.1999969,0.7000008,0.5
	c0.1000004,0.1999969,0.2000008,0.4000015,0.2999992,0.5c0.1000004,0.1999969,0.2999992,0.3000031,0.6000004,0.3000031
	c0.2000008,0,0.3999996,0,0.5-0.0999985c0.2999992-0.0999985,0.5-0.0999985,0.7999992-0.0999985h0.3999996
	c0.2000008,0,0.2999992-0.0999985,0.3999996-0.3000031c0.2000008-0.1999969,0.2999992-0.5,0.3999996-0.8000031
	c0.1000004-0.4000015,0.2999992-0.5999985,0.6000004-0.6999969c0.1000004,0,0.1000004-0.0999985,0.2000008-0.1999969
	C26.7999992,66.5,26.7999992,66.1999969,26.6999989,66c-0.1000004-0.3000031-0.2999992-0.5-0.6000004-0.5999985
	c-0.2000008-0.0999985-0.3999996-0.1999969-0.6000004-0.1999969c-0.6000004-0.0999985-1.2000008,0.0999985-1.7999992-0.1999969
	h-0.2999992c-0.7000008,0-1.3999996-0.0999985-2.1000004-0.0999985h-1.2000008
	c-0.2999992,0-0.6000004,0.1999969-0.7999992,0.3000031c-0.1000004,0-0.1000004,0.0999985-0.1000004,0.1999969
	c0.1000004,0.1999969,0.1000004,0.3000031,0.1000004,0.4000015V65.7999954z M25.0999985,72.8999939h-0.2999992
	c-0.2999992,0-0.5,0.0999985-0.7000008,0.3000031c-0.1000004,0.1999969-0.2999992,0.3000031-0.3999996,0.5
	c-0.1000004,0.0999985-0.2000008,0.3000031-0.2000008,0.5v1c0,0.4000015,0.2000008,0.8000031,0.2999992,1.1999969
	c0,0.0999985,0.1000004,0.1999969,0.1000004,0.1999969c0.2999992,0.3000031,0.5,0.5999985,0.7999992,0.8000031
	c0.2000008,0.1999969,0.5,0.3000031,0.7999992,0.4000015h0.3999996c0.2000008-0.0999985,0.5-0.1999969,0.7000008-0.4000015
	c0.5-0.4000015,0.7000008-0.9000015,0.7000008-1.4000015c0-0.6999969-0.2999992-1.1999969-0.7999992-1.6999969
	c-0.1000004-0.0999985-0.2999992-0.0999985-0.5-0.0999985c-0.2999992,0.0999985-0.6000004,0.4000015-0.7000008,0.6999969
	c-0.1000004,0.0999985,0,0.4000015,0.1000004,0.5999985c0.1000004,0.0999985,0.2999992,0.1999969,0.5,0.0999985
	c0.1000004,0,0.2000008-0.0999985,0.2000008-0.0999985c0.1000004,0,0.2000008,0.0999985,0.2999992,0.1999969
	c0,0.1999969-0.1000004,0.4000015-0.2000008,0.5999985c-0.2999992,0.1999969-0.6000004,0.1999969-0.7999992,0.0999985
	c-0.6000004-0.5-0.7999992-1.1999969-0.7000008-1.9000015c0-0.1999969,0.1000004-0.3000031,0.2999992-0.4000015
	c0.1000004-0.0999985,0.2999992-0.0999985,0.5-0.1999969s0.2999992-0.3000031,0.2000008-0.5999985
	c0-0.0999985-0.1000004-0.3000031-0.2000008-0.3000031C25.1999969,72.8999863,25.0999966,72.8999863,25.0999985,72.8999939z
	 M29.8999977,77.6999969c0,0.9000015,0.2999992,1.5999985,0.6000004,2.3000031
	c0.1000004,0.1999969,0.2999992,0.3000031,0.3999996,0.5c0.2999992,0.3000031,0.7000008,0.1999969,0.7999992-0.1999969
	c0.1000004-0.1999969,0.1000004-0.4000015,0-0.5999985s-0.1000004-0.3000031-0.1000004-0.5
	c0-0.0999985,0-0.3000031,0.1000004-0.4000015S31.8999977,78.5,31.9999962,78.4000015s0.2000008-0.0999985,0.2999992,0
	c0.2000008,0.1999969,0.2000008,0.5,0.5,0.6999969c0.0999985,0.0999985,0.2999992,0.0999985,0.5,0
	c0.2999992-0.1999969,0.4000015-0.4000015,0.2999992-0.5999985c-0.0999985-0.4000015-0.2999992-0.6999969-0.2999992-1.0999985
	v-0.0999985c-0.2000008-0.5-0.4000015-1-0.5999985-1.4000015c-0.0999985-0.0999985-0.2000008-0.1999969-0.4000015-0.1999969
	h-0.3999996c-0.2000008,0-0.2999992,0.1999969-0.2999992,0.3000031c0,0.3000031,0,0.5,0.1000004,0.6999969
	s0.1000004,0.3000031,0.1000004,0.5c-0.1000004,0.1999969-0.2000008,0.4000015-0.3999996,0.4000015h-0.2000008
	c-0.2000008-0.0999985-0.2999992-0.3000031-0.5-0.4000015c-0.1000004-0.0999985-0.2000008-0.1999969-0.2999992-0.1999969
	c-0.2000008-0.0999985-0.6000004,0-0.6000004,0.3000031c0.1000004,0.1999969,0.1000004,0.4000015,0.1000004,0.4000015V77.6999969z
	 M36.7999992,67.5999985C36.8999977,67.5999985,36.8999977,67.5999985,36.7999992,67.5999985
	C37,67.7999954,37.0999985,68,37.2000008,68.0999985S37.4000015,68.2999954,37.5,68.2999954
	c0.2999992,0.1999969,0.7999992-0.0999985,0.7999992-0.4000015v-0.0999985
	C38.2000008,67.4999924,38,67.1999969,37.8999977,66.8999939c-0.0999985-0.3000031-0.2000008-0.5999985-0.2999992-0.8000031
	c-0.2000008-0.3000031-0.2000008-0.6999969-0.2999992-1c0-0.0999985-0.2000008-0.1999969-0.2999992-0.3000031
	s-0.2999992,0-0.4000015,0c-0.2000008,0.0999985-0.2999992,0.3000031-0.2999992,0.5v0.8000031
	c0,0.1999969-0.0999985,0.4000015-0.2999992,0.5c-0.0999985,0.0999985-0.2999992,0.0999985-0.5,0
	c-0.2000008-0.1999969-0.4000015-0.5-0.7000008-0.5999985c-0.0999985,0-0.2999992,0-0.2999992,0.0999985
	c-0.2000008,0.3000031-0.2999992,0.5-0.0999985,0.8000031c0,0.8000031,0.4000015,1.5,0.5999985,2.1999969
	c0,0.0999985,0.2000008,0.3000031,0.2999992,0.4000015s0.4000015,0.0999985,0.5999985,0
	c0.2000008-0.0999985,0.2999992-0.4000015,0.2000008-0.5999985c0-0.0999985-0.0999985-0.1999969-0.2000008-0.3000031
	c-0.0999985-0.1999969,0-0.3000031,0.0999985-0.5C36.3999977,67.8999939,36.5999947,67.6999893,36.7999992,67.5999985z
	 M36.2000008,76.2999954c0.0999985,0,0.2000008,0.0999985,0.2999992,0.0999985c0.2000008,0.0999985,0.2999992,0,0.5-0.0999985
	c0.2000008-0.1999969,0.2999992-0.5999985,0.0999985-0.8000031C36.6999969,75.0999908,36.3999977,74.5999908,36,74.1999893
	l-0.4000015-0.4000015c-0.0999985-0.0999985-0.2999992-0.1999969-0.5-0.1999969h-0.5
	c-0.2999992,0-0.5999985,0.1999969-0.7000008,0.4000015c-0.0999985,0.1999969-0.2999992,0.4000015-0.2999992,0.6999969
	c0,0.3000031-0.0999985,0.5999985,0.0999985,0.9000015c0.2000008,0.3000031,0.0999985,0.6999969,0.2000008,1
	c0.2000008,0.4000015,0.2000008,0.6999969,0.2000008,1.0999985c0,0.0999985,0.0999985,0.1999969,0.0999985,0.1999969
	c0,0.0999985,0.2000008,0.1999969,0.2999992,0.1999969s0.2000008-0.0999985,0.2000008-0.1999969
	c0.0999985-0.1999969,0.2999992-0.4000015,0.4000015-0.6999969c0.0999985-0.3000031,0.2000008-0.5,0.4000015-0.5999985
	C35.7000008,76.5999908,36,76.4999924,36.2000008,76.2999954z M26.9000015,72.6999969
	c0,0.6999969,0.2000008,1.3000031,0.6000004,1.9000015l0.2999992,0.3000031c0.2999992,0.0999985,0.5,0.3000031,0.7999992,0.3000031
	h0.5c0.2000008-0.0999985,0.5-0.1999969,0.7000008-0.4000015c0.2999992-0.1999969,0.5-0.5,0.6000004-0.8000031
	c0.1000004-0.1999969-0.1000004-0.4000015-0.1000004-0.5999985c0-0.5-0.2000008-0.9000015-0.5-1.3000031
	c-0.1000004-0.1999969-0.2000008-0.3000031-0.3999996-0.5c-0.1000004-0.1999969-0.2999992-0.1999969-0.3999996-0.3000031
	c-0.6000004-0.3000031-1.1000004-0.0999985-1.7000008,0.3000031l-0.1000004,0.0999985
	C27.1000004,72,26.8000011,72.2999954,26.9000015,72.6999969z M45.9000015,68.7999954
	C46,68.3999939,45.8000031,67.9999924,45.7000008,67.5999985C45.6000023,67.2999954,45.5,67.0999985,45.2999992,67
	c-0.2000008-0.1999969-0.4000015-0.3000031-0.7000008-0.4000015C44,66.2999954,43.3999977,66.4000015,43,67
	c-0.0999985,0.0999985-0.2000008,0.3000031-0.2000008,0.5s0,0.4000015,0.0999985,0.5999985
	c0.0999985,0.4000015,0.2999992,0.6999969,0.4000015,1.0999985c0.0999985,0.1999969,0.0999985,0.3000031,0.2000008,0.5
	C43.7000008,70,44,70.2999954,44.2000008,70.5999985c0.0999985,0.0999985,0.0999985,0.0999985,0.2000008,0.0999985
	c0.2999992,0.0999985,0.5999985,0,0.7999992-0.1999969C45.7000008,69.9000015,46,69.5,45.9000015,68.7999954z
	 M33.1000023,71.0999985v-0.5c0-0.4000015-0.2000008-0.6999969-0.5-1C32.5000038,69.5,32.3000031,69.4000015,32.2000008,69.2999954
	C31.8000011,68.9999924,31.4000015,69.0999985,31,69.0999985c-0.2999992,0.1999969-0.6000004,0.1999969-0.7999992,0.5
	C30.1000004,69.6999969,30,69.7999954,30,69.9000015c0.2000008,0.5,0.2000008,0.9000015,0.2000008,1.4000015
	c0,0.1999969,0,0.3000031,0.1000004,0.5c0.2000008,0.4000015,0.2999992,0.8000031,0.6000004,1.0999985
	C31.0000019,73,31.1000023,73.0999985,31.2000008,73.0999985c0.2999992,0.0999985,0.6000004,0.0999985,0.9000015,0
	C32.4000015,73,32.6000023,72.7999954,32.8000031,72.5c0.0999985-0.3000031,0.2999992-0.5,0.2999992-0.8000031
	C33.0000038,71.5,33.1000023,71.1999969,33.1000023,71.0999985z M28.9000015,82.5
	c0.3999996,0.0999985,0.7999992-0.1999969,1.2000008-0.5999985l0.2000008-0.1999969
	c0.2000008-0.3000031,0.2000008-0.5,0.1000004-0.8000031c0-0.0999985-0.2000008-0.1999969-0.2999992-0.1999969
	c-0.2000008,0.0999985-0.5,0.1999969-0.7000008,0.4000015c-0.2000008,0.0999985-0.5,0.1999969-0.7000008,0.0999985
	c-0.1000004,0-0.2000008-0.0999985-0.2000008-0.0999985c-0.1000004-0.3000031-0.2999992-0.5-0.2999992-0.8000031
	s0.2000008-0.5,0.3999996-0.5999985c0.2000008,0,0.3999996,0,0.6000004-0.0999985
	c0.1000004,0,0.1000004-0.0999985,0.2000008-0.1999969c0-0.0999985,0.1000004-0.3000031,0-0.4000015
	c0-0.1999969-0.1000004-0.3000031-0.2999992-0.4000015c-0.2999992-0.0999985-0.6000004-0.1999969-0.8999996-0.1999969
	c-0.1000004,0-0.2999992,0-0.3999996,0.0999985c-0.2999992,0.1999969-0.6000004,0.4000015-0.7000008,0.6999969
	c-0.2000008,0.4000015-0.3999996,0.8000031-0.3999996,1.1999969c0,0.1999969,0,0.4000015,0.1000004,0.5999985
	c0.2000008,0.5999985,0.5,1,1,1.3000031c0.1000004,0.0999985,0.2000008,0.0999985,0.3999996,0.0999985
	C28.4000053,82.5,28.6000042,82.5,28.9000015,82.5z M38.2000008,64.5v1.1999969c0.2000008,0.5,0.2999992,1,0.5,1.4000015
	c0.0999985,0.0999985,0.2000008,0.3000031,0.4000015,0.3000031h0.4000015
	c0.0999985-0.0999985,0.2000008-0.1999969,0.2000008-0.3000031c0-0.1999969-0.0999985-0.4000015-0.0999985-0.5999985
	c0-0.0999985,0-0.1999969,0.0999985-0.1999969c0,0,0-0.0999985,0.0999985-0.0999985
	c0.4000015-0.3000031,0.7000008-0.5999985,1.2999992-0.5h0.0999985c0.0999985,0,0.2000008-0.1999969,0.2000008-0.3000031
	c0-0.3000031,0-0.5-0.2000008-0.6999969c-0.4000015-0.5-0.9000015-1-1.4000015-1.4000015
	c-0.0999985-0.0999985-0.2999992-0.2000008-0.5-0.2000008h-0.5c-0.0999985,0-0.2000008,0-0.2000008,0.0999985
	c-0.2000008,0.2000008-0.2999992,0.5-0.4000015,0.7999992C38.1999969,64,38.1999969,64.5,38.2000008,64.5z M29,65.6999969
	C28.7000008,65.6999969,28.2000008,66,27.7000008,66c0,0-0.1000004,0-0.1000004,0.0999985l-0.2999992,0.3000031
	c0,0.0999985,0,0.3000031,0.1000004,0.3000031c0.2000008,0,0.2999992,0.0999985,0.5,0.0999985
	c0.2000008,0.0999985,0.3999996,0.1999969,0.5,0.4000015c0.1000004,0.1999969,0.2000008,0.4000015,0.2000008,0.5999985
	c0,0.3000031-0.2999992,0.4000015-0.5,0.5999985C28.0000019,68.5,27.9000015,68.5999985,27.9000015,68.7000046v0.1999969
	C27.9000015,69,28.0000019,69,28.1000023,69c0.3999996-0.1999969,0.7999992-0.5,1.2000008-0.6999969
	c0.1000004-0.0999985,0.2000008-0.0999985,0.2999992-0.1999969l1.5-1.1999969
	c0.2000008-0.0999985,0.2999992-0.3000031,0.5-0.4000015l0.2000008-0.1999969c0.1000004-0.0999985,0.1000004-0.1999969,0-0.1999969
	c-0.1000004-0.0999985-0.2000008-0.1999969-0.2999992-0.1999969c0,0-0.1000004,0-0.1000004,0.0999985
	c-0.2999992,0.0999985-0.6000004,0.3000031-0.8999996,0.5999985c-0.2999992,0.1999969-0.5,0.0999985-0.7000008-0.1999969
	c0,0,0-0.0999985-0.1000004-0.0999985c0-0.5-0.2000008-0.5999985-0.7000008-0.5999985L29,65.6999969z M48.4000015,57.5999985
	c0.2999992-0.0999985,0.5-0.2000008,0.7000008-0.2999992s0.2999992-0.2999992,0.2999992-0.5S49.3000031,56.5,49.1000023,56.5
	s-0.4000015,0-0.5999985,0.2000008C48.4000053,56.7999992,48.3000031,56.9000015,48.3000031,57
	C48.1000023,57.2000008,48.1000023,57.4000015,48.4000015,57.5999985
	C48.3000031,57.5999985,48.3000031,57.5999985,48.4000015,57.5999985z"/>
<path class="st3" d="M50.7999992,73.8000031c0-0.1999969-0.0999985-0.3000031-0.2000008-0.5v-0.1999969
	c0.2999992-0.1999969,0.5999985-0.5,0.9000015-0.6999969c0.0999985-0.0999985,0.4000015-0.0999985,0.5,0
	c0.4000015,0.0999985,0.7000008,0.1999969,1,0.5c0.4000015,0.4000015,0.5,0.5,0,0.9000015
	c-0.2999992,0.3000031-1.5999985,1.1999969-2.0999985,1.4000015c-0.0999985,0.0999985-0.2000008,0.0999985-0.2999992,0.1999969
	h-0.2999992c-0.5-0.0999985-0.9000015-0.3000031-1.2000008-0.6999969c-0.0999985-0.0999985,0-0.4000015,0.0999985-0.4000015
	s0.2000008-0.0999985,0.4000015-0.0999985c0.2999992,0,0.5,0,0.7999992-0.0999985
	C50.6000023,74.1000137,50.7000008,74.0000153,50.7999992,73.8000031z M52.9000015,75
	C52.7000008,75.4000015,52.5,75.5,52.3000031,75.6999969c-0.0999985,0.0999985-0.2999992,0.0999985-0.5,0
	c0,0-0.0999985,0-0.0999985-0.0999985V75.5c0.2999992-0.3000031,0.7000008-0.5,1.2000008-0.5
	C52.8000069,75,52.9000053,75,52.9000015,75z M52.9000015,75c0.2000008-0.4000015,0.5-0.6999969,0.7999992-0.9000015
	c0.0999985,0,0.0999985,0,0.2000008,0.0999985v0.0999985c-0.2000008,0.3000031-0.4000015,0.5-0.7000008,0.6999969
	C53.2000008,74.9999924,52.9000015,74.9999924,52.9000015,75z M37.7999992,72.5999985L37.5,72.2999954
	c-0.0999985-0.0999985-0.0999985-0.1999969,0-0.4000015s0.2000008-0.4000015,0.4000015-0.5H38
	c0.0999985,0,0.0999985,0.0999985,0.0999985,0.1999969C38.1999969,71.9999924,38.1999969,72.3999939,37.7999992,72.5999985z
	 M41.4000015,71.3000031C41.1000023,71.1000061,41,70.9000015,41,70.5c0-0.0999985,0.2000008-0.3000031,0.4000015-0.1999969
	S41.7000008,70.5,41.7000008,70.7000046c0,0.0999985,0.0999985,0.3000031,0,0.4000015S41.5,71.2000046,41.4000015,71.3000031z
	 M21.7999992,65.5h1.3999996c0.7000008,0.1999969,1.2999992,0.1999969,2,0.1999969c0.2000008,0,0.2999992,0.0999985,0.5,0.1999969
	c0,0,0,0.0999985,0.1000004,0.0999985c0,0.0999985,0,0.1999969-0.1000004,0.1999969h-2.5
	c-0.1000004,0-0.1000004,0.0999985-0.2000008,0.1999969c0,0.0999985,0,0.1999969,0.1000004,0.1999969
	c0.2000008,0.0999985,0.2999992,0.0999985,0.5,0.1999969c0.1000004,0.0999985,0.2000008,0.0999985,0.2999992,0.1999969v0.0999985
	l-0.1000004,0.0999985c-0.3999996,0.0999985-0.7999992,0.0999985-1.1000004-0.0999985
	c-0.5-0.1999969-1-0.4000015-1.6000004-0.4000015c-0.1000004,0-0.2999992-0.0999985-0.3999996-0.0999985
	c-0.2999992-0.0999985-0.5-0.3000031-0.7000008-0.5999985c-0.1000004-0.0999985-0.1000004-0.3000031,0-0.3000031
	c0.1000004-0.0999985,0.2999992-0.1999969,0.3999996-0.1999969h1.3999996L21.7999992,65.5z M25.2999992,67.3000031V67.5
	c0,0.0999985-0.2000008,0.1999969-0.2999992,0.1999969S24.8999996,67.5999985,24.7999992,67.5v-0.4000015
	C24.7999992,67,24.8999996,67,25,66.9000015c0.1000004,0,0.2999992,0.0999985,0.2999992,0.1999969
	C25.2999992,67.0999985,25.2999992,67.2999954,25.2999992,67.3000031z M23.7000008,68.0999985
	C23.6000004,68.1999969,23.5,68.2999954,23.4000015,68.2999954s-0.2000008-0.1999969-0.1000004-0.3000031
	c0-0.0999985,0.2000008-0.0999985,0.2999992-0.0999985S23.7000008,67.9999924,23.7000008,68.0999985z M35,75.0999985
	L35.4000015,75.5C35.5,75.5999985,35.5,75.8000031,35.3000031,75.9000015c-0.2000008,0.1999969-0.4000015,0.1999969-0.5,0
	c-0.0999985-0.0999985-0.0999985-0.0999985-0.0999985-0.1999969c-0.0999985-0.1999969-0.0999985-0.3000031,0.0999985-0.5
	C34.8000031,75.1000061,34.9000015,75.1000061,35,75.0999985z M28.3999996,72.4000015
	c0.1000004,0,0.2000008,0.0999985,0.2999992,0.1999969c0.2999992,0.3000031,0.3999996,0.5999985,0.5,1V74
	c0,0-0.1000004,0.1999969-0.2000008,0.3000031c-0.2999992,0.0999985-0.6000004,0-0.7000008-0.1999969
	c-0.1000004-0.3000031-0.2999992-0.5-0.3999996-0.8000031C27.7999973,73.1000061,27.9999981,72.7000046,28.1999969,72.5
	C28.2999973,72.4000015,28.2999973,72.4000015,28.3999996,72.4000015z M44.9000015,68.4000015
	c0,0.0999985,0,0.1999969-0.0999985,0.3000031c0,0.0999985-0.2000008,0.1999969-0.2999992,0.0999985
	c-0.4000015-0.3000031-0.5-0.5999985-0.2999992-1.0999985c0-0.0999985,0.0999985-0.0999985,0.2000008-0.0999985h0.0999985
	c0.2000008,0.0999985,0.2999992,0.1999969,0.4000015,0.5C44.9000053,68.1000061,44.9000053,68.4000092,44.9000015,68.4000015z
	 M31.2999992,70.1999969c0.1000004,0,0.2000008,0.0999985,0.2999992,0.0999985c0.2999992,0.1999969,0.5,0.5,0.5,0.8000031
	c0,0.1999969-0.1000004,0.5-0.2999992,0.6999969c-0.1000004,0.0999985-0.2999992,0.0999985-0.2999992,0
	c-0.1000004-0.0999985-0.2000008-0.1999969-0.2000008-0.3000031C31.1999989,71.0999908,31.0999985,70.6999893,31.2999992,70.1999969
	z M39.7000008,64.9000015c0,0.1999969-0.2000008,0.4000015-0.4000015,0.4000015l-0.0999985-0.0999985
	c-0.0999985-0.1999969-0.0999985-0.3000031,0-0.5c0-0.0999985,0.0999985-0.0999985,0.2000008-0.0999985
	C39.7000008,64.7000046,39.7000008,64.8000031,39.7000008,64.9000015z"/>
<path class="st1" d="M47.0999985,72c0.0999985,0,0.0999985,0.0999985,0.2000008,0.0999985h0.5999985
	c0.7000008,0,0.7999992,0.0999985,0.7999992,0.8000031c0,0.0999985,0.0999985,0.3000031,0.2000008,0.3000031
	c0.2000008,0,0.2999992,0,0.5-0.0999985c0.0999985-0.0999985,0.0999985-0.1999969,0.0999985-0.4000015
	c0-0.3000031-0.2999992-0.5-0.2999992-0.8000031c0-0.1999969,0-0.4000015,0.2999992-0.5
	C49.6999969,71.3000031,49.6999969,71.2000046,49.7999954,71v-0.5c0-0.3000031,0.2000008-0.5999985,0.4000015-0.8000031
	c0,0,0.2000008-0.0999985,0.2000008,0c0.2999992,0.0999985,0.5,0.1999969,0.7000008,0.5
	c0.0999985,0.0999985,0.2000008,0.3000031,0.2999992,0.4000015c0.0999985,0,0.2000008,0.0999985,0.2000008,0
	c0.2000008-0.0999985,0.2999992-0.3000031,0.5-0.4000015s0.5-0.0999985,0.7000008,0
	c0.0999985,0,0.0999985,0.0999985,0.2000008,0.1999969c0,0.1999969,0.0999985,0.4000015,0.0999985,0.5999985v1
	c0,0.0999985,0.0999985,0.1999969,0.0999985,0.1999969l0.2000008,0.1999969c0.2000008,0.1999969,0.5,0.3000031,0.5999985,0.5
	c0.2000008,0.3000031,0.4000015,0.6999969,0.5,1v0.1999969c-0.0999985,0.1999969-0.2000008,0.5-0.4000015,0.6999969
	c-0.4000015,0.5-0.9000015,0.9000015-1.4000015,1.4000015l-0.0999985,0.0999985
	c-0.5999985,0.1999969-1.0999985,0.4000015-1.7000008,0.3000031c-0.2999992-0.1999969-0.7000008-0.1999969-1.0999985-0.4000015
	c-0.2000008-0.0999985-0.5-0.1999969-0.7000008-0.4000015c-0.0999985-0.0999985-0.2000008-0.0999985-0.2999992-0.3000031
	c-0.0999985-0.0999985-0.2000008-0.3000031-0.2999992-0.4000015c-0.4000015-0.5999985-0.2999992-0.6999969-1.0999985-0.5999985
	h-0.0999985c-0.2999992,0-0.5999985-0.1999969-0.7000008-0.4000015c0-0.0999985-0.0999985-0.1999969-0.0999985-0.1999969
	c-0.0999985-0.0999985-0.0999985-0.0999985-0.2000008-0.0999985h-1.4000015c-0.2000008,0-0.2999992,0.0999985-0.5,0.1999969
	c-0.4000015,0.3000031-0.7000008,0.5999985-1.2000008,0.8000031c-0.0999985,0-0.2000008,0-0.2000008-0.0999985
	s0-0.1999969-0.0999985-0.1999969c0,0,0-0.0999985,0.0999985-0.0999985c0.0999985-0.1999969,0.2999992-0.3000031,0.4000015-0.5
	l0.7000008-0.6999969c0,0,0.5-0.3000031,0.7000008-0.5c0.4000015-0.1999969,0.7999992-0.5,1.0999985-0.9000015
	c0.2000008-0.1999969,0.5-0.4000015,0.7000008-0.5999985c0.0999985,0,0.2000008,0,0.2000008-0.0999985
	c0.0999985,0,0.2999992,0.0999985,0.2999992,0.1999969v0.1999969c0,0.0999985-0.0999985,0.0999985-0.2000008,0.1999969
	c0.2999992,0.0999985,0.2000008,0.1999969,0.2000008,0.3000031V72z M52.8999977,75
	c-0.5,0.0999985-0.9000015,0.3000031-1.2000008,0.5999985v0.0999985l0.0999985,0.0999985c0.2000008,0.0999985,0.2999992,0,0.5,0
	c0.2999992-0.1999969,0.5-0.3000031,0.5999985-0.5999985V75h0.2999992c0.2999992-0.0999985,0.5999985-0.4000015,0.7000008-0.6999969
	v-0.0999985c0-0.0999985-0.0999985-0.1999969-0.2000008-0.0999985C53.3999939,74.3000031,53.0999947,74.6000061,52.8999977,75z
	 M50.7999992,73.8000031C50.7000008,74,50.5999985,74.1000061,50.3999977,74.1000061
	c-0.2000008,0.0999985-0.5,0-0.7999992,0.0999985c-0.0999985,0-0.2000008,0.0999985-0.4000015,0.0999985
	c-0.0999985,0-0.2000008,0.3000031-0.0999985,0.4000015c0.2999992,0.4000015,0.7000008,0.5999985,1.2000008,0.6999969h0.2999992
	c0,0,0.2000008-0.0999985,0.2999992-0.1999969c0.5-0.3000031,1.7999992-1.0999985,2.0999985-1.4000015
	c0.4000015-0.4000015,0.4000015-0.5999985,0-0.9000015c-0.2999992-0.3000031-0.7000008-0.4000015-1-0.5
	c-0.0999985-0.0999985-0.4000015,0-0.5,0c-0.2999992,0.1999969-0.5999985,0.4000015-0.9000015,0.6999969v0.1999969
	C50.6999931,73.4999924,50.7999954,73.5999985,50.7999992,73.8000031z"/>
<path class="st0" d="M43.2000008,71.4000015h-0.5c-0.0999985,0-0.2999992,0.0999985-0.2999992,0.1999969
	c-0.2999992,0.1999969-0.4000015,0.5-0.5999985,0.8000031c-0.0999985,0.1999969-0.2000008,0.5-0.2999992,0.6999969
	c-0.2000008,0.3000031-0.2999992,0.5999985-0.7000008,0.5999985c-0.2999992,0.0999985-0.5,0.3000031-0.7999992,0.4000015
	s-0.5999985,0.0999985-0.9000015,0C38.9000015,74,38.8000031,74,38.6000023,73.9000015S38.2000008,74,38.2000008,74.3000031
	c0,0.0999985,0.0999985,0.1999969,0.0999985,0.1999969c0.0999985,0.3000031,0,0.5-0.2999992,0.5999985h-0.2000008
	c-0.2000008-0.0999985-0.4000015-0.3000031-0.5999985-0.5c-0.2999992-0.5999985-0.5-1.1999969-0.5999985-1.8000031
	c0-0.1999969,0-0.4000015-0.0999985-0.5999985c-0.2000008-0.5,0-0.9000015,0.2999992-1.3000031l0.2999992-0.3000031
	c0.2999992-0.1999969,0.7000008-0.3000031,1-0.5h0.2000008c0.2999992,0.1999969,0.5999985,0.4000015,0.5999985,0.8000031
	c0,0.1999969,0.0999985,0.3000031,0.0999985,0.5c0.0999985,0.3000031,0.0999985,0.5,0,0.6999969
	c-0.0999985,0.0999985-0.0999985,0.1999969-0.0999985,0.4000015s0.2000008,0.4000015,0.4000015,0.4000015
	c0.2000008-0.0999985,0.5-0.1999969,0.7000008-0.3000031c0.0999985,0,0.0999985-0.0999985,0.0999985-0.1999969v-0.5
	c-0.2000008-0.4000015-0.2000008-0.6999969-0.2000008-1.0999985c0-0.3000031-0.2000008-0.5999985-0.2000008-1
	s0.5-0.9000015,0.9000015-1c0.4000015,0,0.7999992,0,1.2000008,0.3000031c0.7000008,0.5,1.4000015,1,1.9000015,1.6999969
	c0.0999985,0.0999985,0.0999985,0.3000031,0.2000008,0.5c0,0.0999985-0.2000008,0.4000015-0.2999992,0.3000031
	S43.4000053,71.5,43.2000008,71.4000015z M37.7999992,72.5999985c0.4000015-0.1999969,0.5-0.5999985,0.4000015-1
	c0-0.0999985-0.0999985-0.0999985-0.0999985-0.1999969H38c-0.2000008,0.0999985-0.2999992,0.3000031-0.4000015,0.5
	C37.5,72,37.5,72.0999985,37.5999985,72.3000031C37.5999985,72.4000015,37.6999969,72.5,37.7999992,72.5999985z
	 M41.3999977,71.2999954c0.0999985-0.0999985,0.2000008-0.0999985,0.2999992-0.1999969s0.0999985-0.1999969,0-0.4000015
	s-0.2000008-0.3000031-0.2999992-0.4000015s-0.4000015,0.0999985-0.4000015,0.1999969
	C40.9999962,70.8999939,41.1999969,71.0999908,41.3999977,71.2999954z M45.0999985,62
	c0.2000008-0.0999985,0.5-0.2000008,0.7000008-0.2999992c0.0999985,0,0.2000008,0,0.2000008,0.0999985
	C46.2000008,62,46.2999992,62.3999977,46.0999985,62.5999985c-0.2000008,0.2999992-0.5,0.4000015-0.9000015,0.5999985
	c-0.2999992,0.0999985-0.5999985,0.0999985-0.9000015,0c-0.0999985,0-0.2000008-0.0999985-0.2999992-0.2000008
	c-0.2999992-0.4000015-0.5-0.9000015-0.7000008-1.4000015c0-0.0999985-0.2999992-0.2000008-0.2999992-0.0999985
	c0,0-0.0999985,0-0.0999985,0.0999985c-0.0999985,0-0.0999985,0.0999985-0.2000008,0.2000008
	c-0.2000008,0.0999985-0.2999992,0.2999992-0.2000008,0.5c0.2000008,0.4000015,0,0.7999992,0.2999992,1.0999985
	c0.0999985,0.4000015,0.0999985,0.9000015,0,1.3000031c0,0.3000031-0.4000015,0.5-0.7000008,0.4000015
	C41.9999962,65.0999985,41.8999939,65,41.8999939,65c-0.2000008-0.3000031-0.4000015-0.6999969-0.4000015-1.0999985
	c0-0.2999992-0.0999985-0.5999985-0.2000008-0.9000015c-0.0999985-0.2000008-0.2000008-0.2000008-0.4000015-0.0999985
	c0,0-0.0999985,0-0.0999985,0.0999985c-0.2999992,0.0999985-0.4000015,0.0999985-0.7000008-0.2000008
	c-0.0999985-0.0999985-0.0999985-0.2999992,0-0.4000015c0,0,0-0.0999985,0.0999985-0.0999985L40.4999886,62
	c0.7000008-0.7999992,0.5-0.5999985,1.5999985-1c0.2000008-0.0999985,0.4000015-0.2000008,0.5999985-0.2000008
	c0.2999992-0.0999985,0.5-0.2000008,0.5999985-0.4000015l0.2999992-0.2999992
	c0.4000015-0.4000015,0.7999992-0.7000008,1.4000015-0.7999992c0.2000008,0,0.2999992-0.2000008,0.2999992-0.4000015v-0.4000015
	c0.2000008-0.5999985,0.7000008-1,1.4000015-0.7000008c0.0999985,0,0.2000008,0.2000008,0.2999992,0.2999992
	s0.0999985,0.2999992,0,0.4000015c-0.0999985,0.0999985-0.2999992,0.0999985-0.4000015,0.2999992
	c0,0.0999985,0,0.2000008,0.0999985,0.2000008c0.2999992,0.0999985,0.5999985,0.0999985,0.7999992,0.2999992
	c0.2999992,0.2000008,0.5999985,0.4000015,0.7000008,0.7000008c0,0.0999985,0.0999985,0.2000008,0.0999985,0.2000008
	c-0.0999985,0.2000008-0.0999985,0.2999992-0.2000008,0.5c-0.0999985,0.4000015-0.2999992,0.5999985-0.7000008,0.7000008
	c-0.0999985,0-0.2000008,0.0999985-0.4000015,0.0999985c-0.0999985,0-0.2000008,0-0.2000008-0.0999985
	c-0.2000008-0.0999985-0.4000015-0.2000008-0.4000015-0.4000015c0-0.0999985,0-0.0999985,0.0999985-0.2000008
	c0.2000008-0.2000008,0.5-0.2000008,0.7000008-0.2999992c0.0999985,0,0.0999985-0.0999985,0.0999985-0.2000008
	s0-0.2000008-0.0999985-0.2000008c0,0-0.0999985,0-0.0999985-0.0999985c-0.2000008-0.0999985-0.5-0.2000008-0.7000008-0.2000008
	h-0.5999985c-0.0999985,0-0.2999992,0.0999985-0.2999992,0.0999985l-0.7999992,0.7999992v0.2000008
	c0,0.0999985,0.0999985,0.0999985,0.2000008,0.0999985c0.2000008-0.0999985,0.2999992-0.0999985,0.5-0.2000008h0.2000008
	c0.0999985,0,0.2000008,0.0999985,0.2000008,0.0999985v0.2000008c-0.0999985,0.2999992-0.4000015,0.2999992-0.5999985,0.5
	c-0.2999992,0-0.2999992,0.2000008-0.0999985,0.4000015c-0.0999985,0-0.0999985,0,0,0L45.0999985,62z M45.2999992,65.5999985
	c0.2000008-0.5,0.5999985-0.8000031,1-1.0999985C46.3999977,64.5,46.5,64.4000015,46.5,64.4000015h0.4000015
	c0.2000008,0,0.4000015-0.0999985,0.5-0.3000031C47.5,64,47.5,63.8999977,47.6000023,63.7999992
	c0.2999992-0.5,0.7000008-0.7000008,1.2000008-0.7999992c0.0999985,0,0.4000015,0.0999985,0.4000015,0.2000008
	c0.0999985,0.2000008,0,0.4000015-0.0999985,0.5s-0.2000008,0.0999985-0.2999992,0.2000008v0.1999969l0.0999985,0.0999985
	c0.2000008,0.0999985,0.5,0.0999985,0.7000008,0.0999985c0.5999985,0.1999969,0.9000015,0.5999985,0.9000015,1.1999969v0.0999985
	c0,0.4000015-0.2000008,0.6999969-0.4000015,0.9000015c-0.2999992,0.3000031-0.7000008,0.3000031-1,0
	c-0.0999985-0.0999985-0.2000008-0.3000031-0.0999985-0.5s0.2000008-0.3000031,0.2999992-0.4000015
	s-0.0999985-0.4000015-0.2000008-0.4000015h-0.5999985c-0.2999992,0-0.5,0-0.7000008-0.1999969
	c-0.0999985-0.0999985-0.2000008-0.0999985-0.4000015,0s-0.4000015,0.3000031-0.5999985,0.4000015l-0.0999985,0.0999985
	c-0.0999985,0.0999985-0.0999985,0.3000031,0,0.3000031c0.0999985,0.0999985,0.2000008,0.0999985,0.2999992,0.0999985
	c0.2000008-0.0999985,0.2999992-0.1999969,0.5-0.1999969h0.4000015c0.2000008,0,0.2999992,0.1999969,0.2999992,0.4000015
	c-0.0999985,0.4000015-0.2999992,0.6999969-0.5,1c0,0.0999985,0,0.1999969,0.0999985,0.1999969c0,0.0999985,0.0999985,0,0.2000008,0
	l0.2000008-0.1999969L48.3000069,67c0.2000008-0.0999985,0.2999992-0.0999985,0.4000015,0.0999985
	c0,0.0999985,0.0999985,0.1999969,0.0999985,0.1999969c0.0999985,0.0999985,0.0999985,0.1999969,0,0.4000015
	C48.6000061,68,48.4000053,68.0999985,48.1000061,68.2999954c-0.0999985,0.0999985-0.2000008,0.0999985-0.4000015,0.0999985
	h-0.7999992c0,0-0.5-0.1999969-0.5999985-0.5s-0.2000008-0.6999969-0.4000015-0.9000015
	C45.6000061,66.6999893,45.4000053,66.0999908,45.2999992,65.5999985z"/>
<path class="st1" d="M19.2999992,65.8000031V65.5l0.1000004-0.1999969C19.6999989,65.2000046,19.8999996,65,20.1999989,65
	c0.3999996,0,0.7999992-0.0999985,1.2000008,0c0.7000008,0,1.3999996,0,2.1000004,0.0999985h0.2999992
	C24.3999996,65.4000015,25,65.2999954,25.5999985,65.2999954c0.2000008,0,0.3999996,0.0999985,0.6000004,0.1999969
	c0.2999992,0.0999985,0.5,0.3000031,0.6000004,0.5999985c0.1000004,0.1999969,0,0.4000015-0.1000004,0.5999985l-0.2000008,0.1999969
	c-0.3999996,0.0999985-0.6000004,0.3000031-0.6000004,0.6999969c0,0.3000031-0.2000008,0.5999985-0.3999996,0.8000031
	c-0.1000004,0.0999985-0.2000008,0.1999969-0.3999996,0.3000031h-0.3999996c-0.2999992,0-0.5,0-0.7000008,0.0999985
	c-0.1000004,0.0999985-0.2999992,0.0999985-0.5,0.0999985s-0.3999996-0.0999985-0.6000004-0.3000031
	c-0.1000004-0.1999969-0.2000008-0.4000015-0.2999992-0.5c-0.1000004-0.3000031-0.3999996-0.5-0.7000008-0.5
	s-0.5-0.0999985-0.7000008-0.1999969c-0.5,0-1-0.3000031-1.3999996-0.5999985
	c-0.2000008-0.0999985-0.2999992-0.3000031-0.2999992-0.5c-0.2000008-0.1999969-0.2000008-0.3000031-0.2000008-0.5
	L19.2999992,65.8000031z M21.7999992,65.5H20.5c-0.2000008,0-0.2999992,0.0999985-0.3999996,0.1999969S20,65.8999939,20.1000004,66
	c0.2000008,0.3000031,0.3999996,0.4000015,0.7000008,0.5999985c0.1000004,0.0999985,0.2000008,0.0999985,0.3999996,0.0999985
	c0.6000004,0,1.1000004,0.1999969,1.6000004,0.4000015c0.3999996,0.0999985,0.7000008,0.1999969,1.1000004,0.0999985
	c0,0,0.1000004,0,0.1000004-0.0999985V67c-0.1000004-0.0999985-0.2000008-0.1999969-0.2999992-0.1999969
	c-0.2000008-0.0999985-0.2999992-0.0999985-0.5-0.1999969c-0.1000004,0-0.1000004-0.0999985-0.1000004-0.1999969
	s0.1000004-0.1999969,0.2000008-0.1999969h2.5c0.1000004,0,0.1000004-0.0999985,0.1000004-0.1999969
	c0,0,0-0.0999985-0.1000004-0.0999985c-0.1000004-0.0999985-0.2999992-0.1999969-0.5-0.1999969
	c-0.7000008,0-1.3999996,0-2-0.1999969h-1.5L21.7999992,65.5z M25.2999992,67.3000031C25.2999992,67.1000061,25.0999985,67,25,67
	s-0.2000008,0.0999985-0.2000008,0.1999969v0.4000015c0,0.0999985,0.1000004,0.0999985,0.2000008,0.1999969
	s0.2999992,0,0.2999992-0.1999969C25.2999992,67.5999985,25.2999992,67.2999954,25.2999992,67.3000031z M23.6999989,68.1000061
	c0-0.0999985,0-0.1999969-0.1000004-0.1999969c-0.1000004-0.0999985-0.2999992,0-0.2999992,0.0999985
	s0,0.3000031,0.1000004,0.3000031S23.6000004,68.2000122,23.6999989,68.1000061z"/>
<path class="st0" d="M25.1000004,72.9000015h0.2000008c0.1000004,0,0.2000008,0.1999969,0.2000008,0.3000031
	c0,0.1999969,0,0.4000015-0.2000008,0.5999985c-0.1000004,0.0999985-0.2999992,0.0999985-0.5,0.1999969
	c-0.1000004,0.0999985-0.2000008,0.1999969-0.2999992,0.4000015c-0.1000004,0.8000031,0.1000004,1.4000015,0.7000008,1.9000015
	c0.2999992,0.1999969,0.5,0.1999969,0.7999992-0.0999985c0.2000008-0.0999985,0.2999992-0.3000031,0.2000008-0.5999985
	c0-0.0999985-0.1000004-0.1999969-0.2999992-0.1999969c-0.1000004,0-0.2000008,0-0.2000008,0.0999985
	c-0.2000008,0.0999985-0.2999992,0-0.5-0.0999985c-0.1000004-0.0999985-0.2000008-0.5-0.1000004-0.5999985
	c0.2000008-0.3000031,0.3999996-0.5,0.7000008-0.6999969c0.2000008-0.0999985,0.2999992-0.0999985,0.5,0.0999985
	c0.5,0.4000015,0.7999992,1,0.7999992,1.6999969c0,0.5999985-0.2999992,1.0999985-0.7000008,1.4000015
	c-0.2000008,0.1999969-0.3999996,0.3000031-0.7000008,0.4000015c-0.1000004,0-0.2999992,0.0999985-0.3999996,0
	c-0.2999992-0.0999985-0.6000004-0.1999969-0.7999992-0.4000015c-0.2999992-0.1999969-0.6000004-0.5-0.7999992-0.8000031
	c-0.1000004-0.0999985-0.1000004-0.0999985-0.1000004-0.1999969c-0.1000004-0.4000015-0.2999992-0.8000031-0.2999992-1.1999969v-1
	c0-0.1999969,0.1000004-0.3000031,0.2000008-0.5s0.2999992-0.3000031,0.3999996-0.5
	c0.2000008-0.1999969,0.3999996-0.3000031,0.7000008-0.3000031C24.9000034,72.9000092,25.0000038,72.9000092,25.1000004,72.9000015z
	 M29.8999996,77.6999969v-0.4000015c0-0.1999969,0.3999996-0.4000015,0.6000004-0.3000031
	c0.1000004,0.0999985,0.2000008,0.1999969,0.2999992,0.1999969c0.2000008,0.0999985,0.2999992,0.3000031,0.5,0.4000015H31.5
	c0.2000008-0.0999985,0.3999996-0.1999969,0.3999996-0.4000015c0.1000004-0.1999969,0-0.3000031-0.1000004-0.5
	s-0.2000008-0.5-0.1000004-0.6999969c0-0.1999969,0.1000004-0.3000031,0.2999992-0.3000031h0.3999996
	c0.2000008,0,0.2999992,0.0999985,0.4000015,0.1999969c0.2999992,0.4000015,0.4000015,0.9000015,0.5999985,1.4000015v0.0999985
	c0,0.4000015,0.0999985,0.8000031,0.2999992,1.0999985c0.0999985,0.3000031,0,0.5-0.2999992,0.5999985
	c-0.0999985,0.0999985-0.2999992,0.0999985-0.5,0c-0.2999992-0.1999969-0.2999992-0.5-0.5-0.6999969
	c-0.0999985-0.0999985-0.2000008-0.0999985-0.2999992,0c-0.1000004,0.0999985-0.2000008,0.1999969-0.2999992,0.4000015
	c-0.1000004,0.0999985-0.1000004,0.1999969-0.1000004,0.4000015s0,0.4000015,0.1000004,0.5
	c0.1000004,0.1999969,0.1000004,0.4000015,0,0.5999985C31.5999985,80.5999908,31.1999989,80.6999893,31,80.4999847
	c-0.2000008-0.0999985-0.2999992-0.3000031-0.3999996-0.5c-0.3999996-0.5999985-0.7000008-1.3000031-0.7000008-2.3000031V77.6999969
	z M36.7999992,67.5999985c-0.2000008,0.1999969-0.4000015,0.3000031-0.5,0.5
	c-0.0999985,0.0999985-0.0999985,0.3000031-0.0999985,0.5c0,0.0999985,0.0999985,0.1999969,0.2000008,0.3000031
	c0.0999985,0.1999969,0,0.4000015-0.2000008,0.5999985c-0.2000008,0.0999985-0.5,0.1999969-0.5999985,0
	c-0.0999985-0.0999985-0.2999992-0.1999969-0.2999992-0.4000015c-0.2000008-0.6999969-0.5999985-1.4000015-0.5999985-2.1999969
	c-0.2000008-0.3000031-0.0999985-0.5999985,0.0999985-0.8000031C34.9000015,66,35.1000023,66,35.1000023,66
	c0.2999992,0.0999985,0.4000015,0.4000015,0.7000008,0.5999985c0.0999985,0.0999985,0.2999992,0.0999985,0.5,0
	s0.2999992-0.3000031,0.2999992-0.5v-0.8000031c0-0.1999969,0.2000008-0.4000015,0.2999992-0.5s0.2999992-0.0999985,0.4000015,0
	c0.0999985,0.0999985,0.2000008,0.0999985,0.2999992,0.3000031c0.0999985,0.3000031,0.0999985,0.6999969,0.2999992,1
	c0.0999985,0.3000031,0.2000008,0.5,0.2999992,0.8000031S38.5,67.5,38.6000023,67.8000031v0.0999985
	c-0.0999985,0.3000031-0.5999985,0.5-0.7999992,0.4000015c-0.0999985-0.0999985-0.2000008-0.1999969-0.2999992-0.1999969
	c-0.0999985-0.0999985-0.2000008-0.3000031-0.2999992-0.4000015C36.9000053,67.6000061,36.8000031,67.6000061,36.7999992,67.5999985
	z M36.2000008,76.3000031c-0.2000008,0.0999985-0.5,0.3000031-0.7000008,0.5s-0.4000015,0.3000031-0.4000015,0.5999985
	c-0.0999985,0.1999969-0.2000008,0.5-0.4000015,0.6999969c0,0.0999985-0.0999985,0.0999985-0.2000008,0.1999969
	c0,0-0.2999992-0.0999985-0.2999992-0.1999969s-0.0999985-0.1999969-0.0999985-0.1999969
	C34,77.5,34,77.0999985,33.8999977,76.8000031c-0.0999985-0.3000031-0.0999985-0.6999969-0.2000008-1
	C33.5999985,75.5,33.5999985,75.2000046,33.5999985,74.9000015s0.2000008-0.5,0.2999992-0.6999969
	c0.2000008-0.3000031,0.4000015-0.4000015,0.7000008-0.4000015h0.5c0,0,0.2999992,0.0999985,0.5,0.1999969
	C35.6999969,74.0999985,35.8999977,74.1999969,36,74.4000015c0.4000015,0.4000015,0.7000008,0.9000015,1.0999985,1.3000031
	C37.2999992,75.9000015,37.1999969,76.3000031,37,76.5000076c-0.0999985,0.0999985-0.2999992,0.1999969-0.5,0.0999985
	C36.4000015,76.4000092,36.2999992,76.4000092,36.2000008,76.3000031z M35,75.0999985
	c-0.0999985,0.0999985-0.2000008,0.0999985-0.2000008,0.1999969c-0.0999985,0.0999985-0.2000008,0.3000031-0.0999985,0.5
	c0,0.0999985,0.0999985,0.0999985,0.0999985,0.1999969c0.0999985,0.1999969,0.4000015,0.1999969,0.5,0
	C35.5,75.8999939,35.5,75.6999893,35.3999977,75.5999908C35.2999992,75.2999878,35.0999985,75.1999893,35,75.0999985z
	 M26.8999996,72.6999969c0-0.4000015,0.2000008-0.6999969,0.3999996-1.0999985L27.3999996,71.5
	c0.5-0.3000031,1-0.5999985,1.7000008-0.3000031C29.2000008,71.2999954,29.3999996,71.2999954,29.5,71.5
	c0.1000004,0.1999969,0.2000008,0.3000031,0.3999996,0.5c0.2000008,0.4000015,0.5,0.8000031,0.5,1.3000031
	c0,0.1999969,0.2000008,0.4000015,0.1000004,0.5999985C30.3999996,74.2000046,30.2000008,74.5,29.8999996,74.7000046
	C29.6999989,74.8000031,29.5,75.0000076,29.1999989,75.1000061c-0.2000008,0.0999985-0.2999992,0-0.5,0
	c-0.2999992,0-0.6000004-0.1999969-0.7999992-0.3000031L27.6000004,74.5
	C27.1000004,74.0999985,26.8000011,73.4000015,26.8999996,72.6999969z M28.3999996,72.3999939h-0.2000008
	c-0.2999992,0.1999969-0.3999996,0.5-0.2999992,0.8000031s0.2000008,0.5,0.3999996,0.8000031
	C28.3999996,74.1999969,28.6999989,74.3000031,29,74.1999969c0.1000004,0,0.2000008-0.1999969,0.2000008-0.3000031v-0.4000015
	c-0.1000004-0.4000015-0.2000008-0.6999969-0.5-1C28.6000004,72.4999924,28.5,72.3999939,28.3999996,72.3999939z
	 M45.9000015,68.8000031c0,0.6999969-0.2000008,1.0999985-0.5999985,1.5999985
	c-0.2000008,0.1999969-0.5,0.3000031-0.7999992,0.1999969c-0.0999985,0-0.2000008,0-0.2000008-0.0999985
	c-0.2999992-0.3000031-0.5-0.5999985-0.7000008-0.9000015c-0.0999985-0.0999985-0.2000008-0.3000031-0.2000008-0.5
	C43.3000031,68.6999969,43.1000023,68.4000015,43,68c-0.0999985-0.1999969-0.0999985-0.4000015-0.0999985-0.5999985
	s0.0999985-0.3000031,0.2000008-0.5c0.4000015-0.5,1-0.6999969,1.5999985-0.4000015
	c0.2000008,0.0999985,0.5,0.1999969,0.7000008,0.4000015S45.8000031,67.2000046,45.8000031,67.5
	C45.8000031,68,46.0000038,68.4000015,45.9000015,68.8000031z M44.9000015,68.4000015v-0.3000031
	c0-0.1999969-0.2000008-0.4000015-0.4000015-0.5h-0.0999985c-0.0999985,0-0.2000008,0-0.2000008,0.0999985
	C44,68.1999969,44.2000008,68.5,44.5,68.7999954c0.0999985,0.0999985,0.2999992,0,0.2999992-0.0999985
	C44.8999977,68.5999985,44.8999977,68.3999939,44.9000015,68.4000015z M33.0999985,71.0999985
	c0,0.1999969,0,0.4000015-0.0999985,0.6999969c0,0.3000031-0.2000008,0.5999985-0.2999992,0.8000031
	c-0.0999985,0.3000031-0.4000015,0.5-0.7000008,0.5999985s-0.6000004,0.0999985-0.8999996,0
	C31,73.1999969,30.8999996,73.0999985,30.8000011,73c-0.2999992-0.3000031-0.3999996-0.6999969-0.6000004-1.0999985
	c-0.1000004-0.1999969-0.1000004-0.3000031-0.1000004-0.5c0-0.5,0-0.9000015-0.2000008-1.4000015
	C29.7999992,69.9000015,30,69.8000031,30.1000004,69.6999969c0.2000008-0.1999969,0.5-0.3000031,0.7999992-0.5
	c0.3999996,0,0.8999996-0.0999985,1.1999989,0.1999969c0.0999985,0.0999985,0.2999992,0.1999969,0.4000015,0.3000031
	c0.2999992,0.3000031,0.5,0.5999985,0.5,1C33.0999985,70.6999969,33.0999985,70.8999939,33.0999985,71.0999985z
	 M31.2999992,70.1999969c-0.2000008,0.5-0.2000008,0.9000015-0.1000004,1.3000031
	c0,0.0999985,0.1000004,0.1999969,0.2000008,0.3000031c0.1000004,0.0999985,0.2999992,0.0999985,0.2999992,0
	c0.2000008-0.1999969,0.2999992-0.4000015,0.2999992-0.6999969c0-0.3000031-0.1000004-0.6999969-0.5-0.8000031
	C31.5999985,70.3000031,31.4999981,70.2000046,31.2999992,70.1999969z M28.8999996,82.5h-0.7000008
	c-0.1000004,0-0.2999992-0.0999985-0.3999996-0.0999985c-0.5-0.3000031-0.7999992-0.8000031-1-1.3000031
	C26.6999989,80.9000015,26.6999989,80.6999969,26.6999989,80.5c0-0.4000015,0.2000008-0.8000031,0.3999996-1.1999969
	c0.1000004-0.3000031,0.3999996-0.5,0.7000008-0.6999969C27.8999996,78.5000076,28,78.5000076,28.1999989,78.5000076
	c0.2999992,0.0999985,0.6000004,0.0999985,0.8999996,0.1999969c0.2000008,0.0999985,0.2000008,0.1999969,0.2999992,0.4000015
	v0.4000015c0,0-0.1000004,0.1999969-0.2000008,0.1999969c-0.2000008,0-0.3999996,0-0.6000004,0.0999985
	c-0.2000008,0-0.3999996,0.3000031-0.3999996,0.5999985S28.3999977,81,28.4999962,81.2000046
	c0,0.0999985,0.1000004,0.0999985,0.2000008,0.0999985c0.2999992,0.0999985,0.5,0,0.7000008-0.0999985
	s0.5-0.1999969,0.7000008-0.4000015c0.1000004,0,0.2999992,0.0999985,0.2999992,0.1999969
	c0.1000004,0.3000031,0.1000004,0.5999985-0.1000004,0.8000031L30.0999966,82
	C29.7999973,82.4000015,29.2999973,82.5999985,28.8999996,82.5z M38.2000008,64.5V64
	c0-0.2999992,0.2000008-0.5999985,0.4000015-0.7999992c0-0.0999985,0.0999985-0.0999985,0.2000008-0.0999985h0.5
	c0,0,0.2999992,0.0999985,0.5,0.2000008c0.5,0.4000015,1,0.9000015,1.4000015,1.4000015
	c0.2000008,0.1999969,0.2000008,0.5,0.2000008,0.6999969c0,0.0999985-0.0999985,0.3000031-0.2000008,0.3000031h-0.0999985
	c-0.5-0.0999985-0.9000015,0.1999969-1.2999992,0.5l-0.0999985,0.0999985c0,0.0999985-0.0999985,0.1999969-0.0999985,0.1999969
	c0,0.1999969,0.0999985,0.4000015,0.0999985,0.5999985c0,0.0999985-0.0999985,0.3000031-0.2000008,0.3000031
	s-0.2999992,0.0999985-0.4000015,0c-0.0999985-0.0999985-0.2999992-0.1999969-0.4000015-0.3000031
	c-0.2999992-0.4000015-0.2999992-1-0.5-1.4000015C38.2000046,65.6999969,38.2000046,64.5,38.2000008,64.5z M39.7000008,64.9000015
	c0-0.0999985-0.0999985-0.1999969-0.2000008-0.1999969s-0.2000008,0-0.2000008,0.0999985
	c-0.0999985,0.1999969-0.0999985,0.3000031,0,0.5c0,0,0,0.0999985,0.0999985,0.0999985S39.6999969,65.0999985,39.7000008,64.9000015
	z"/>
<path class="st1" d="M29,65.6999969c0.5,0,0.7000008,0.0999985,0.7999992,0.3000031c0,0,0,0.0999985,0.1000004,0.0999985
	C30.1000004,66.5,30.2999992,66.5,30.6000004,66.2999954c0.2999992-0.1999969,0.5-0.5,0.8999996-0.5999985l0.1000004-0.0999985
	c0.1000004,0.0999985,0.2000008,0.0999985,0.2999992,0.1999969s0,0.0999985,0,0.1999969l-0.2000008,0.1999969
	c-0.2000008,0.0999985-0.2999992,0.3000031-0.5,0.4000015l-1.5,1.1999969
	c-0.1000004,0.0999985-0.2000008,0.1999969-0.2999992,0.1999969c-0.3999996,0.1999969-0.7999992,0.5-1.2000008,0.6999969
	c-0.1000004,0-0.2000008,0-0.2000008-0.0999985s-0.1000004-0.1999969,0-0.1999969
	c0.1000004-0.0999985,0.1000004-0.1999969,0.2000008-0.3000031c0.2000008-0.1999969,0.5-0.3000031,0.5-0.5999985
	c0-0.1999969-0.1000004-0.4000015-0.2000008-0.5999985s-0.2000008-0.3000031-0.5-0.4000015
	c-0.2000008-0.0999985-0.2999992-0.0999985-0.5-0.0999985c-0.1000004,0-0.2000008-0.3000031-0.1000004-0.3000031
	l0.2999992-0.3000031l0.1000004-0.0999985c0.3999996,0.3000031,0.8999996,0.0999985,1.2000008,0L29,65.6999969z"/>
<path class="st0" d="M48.4000015,57.5999985C48.4000015,57.5999985,48.3000031,57.5999985,48.4000015,57.5999985
	c-0.2999992-0.2999992-0.4000015-0.5-0.2000008-0.7999992c0.0999985-0.0999985,0.2000008-0.2000008,0.2000008-0.2999992
	C48.6000023,56.2999992,48.8000031,56.2999992,49,56.2999992S49.2999992,56.5,49.2999992,56.5999985
	c0,0.2000008-0.0999985,0.4000015-0.2999992,0.5l-0.5999985,0.2999992V57.5999985z"/>
<g>
	<path class="st3" d="M66,85.5c0,0.0999985-0.0999985,0.1999969-0.0999985,0.1999969
		C65.5999985,86,65.5,86.3999939,65.8000031,86.7999954c0,0.0999985,0.0999985,0.1999969,0.0999985,0.3000031
		s0,0.3000031-0.0999985,0.4000015c-0.5,0.3000031-0.9000015,0.8000031-1.4000015,1l-0.3000031,0.3000031
		C63.5,89.5,62.5999985,90,61.8999977,90.6000061l-0.0999985,0.0999985c-1,0.5-1.7999992,1.3000031-2.7000008,1.9000015
		l-1.2000008,0.9000015l-1.2000008,0.9000015h-0.2999992c-0.2999992-0.1999969-0.7000008-0.3000031-1-0.1999969H55
		c-0.2000008,0-0.5,0-0.5999985-0.1999969c-0.5999985-0.5999985-1.2000008-1.0999985-1.7999992-1.6999969
		c-0.2000008-0.1999969-0.2999992-0.4000015-0.2000008-0.6999969c0.0999985-0.0999985,0-0.3000031-0.0999985-0.4000015
		s-0.0999985-0.3000031-0.0999985-0.4000015s0-0.1999969,0.0999985-0.3000031
		c0.2000008-0.1999969,0.2999992-0.4000015,0.5999985-0.5999985c0.5-0.3000031,0.7999992-0.6999969,1.2999992-1
		c0.7000008-0.5,1.2999992-1.0999985,2-1.6999969c0.2000008-0.1999969,0.5-0.4000015,0.7999992-0.5
		c0.4000015-0.1999969,0.7000008-0.4000015,1-0.6999969c0.0999985-0.0999985,0.2999992-0.1999969,0.5-0.3000031
		c0.5999985-0.3000031,1.0999985-0.6999969,1.5999985-1c0.2000008-0.0999985,0.4000015-0.3000031,0.7000008-0.4000015l1.5-0.9000015
		c0.2999992-0.0999985,0.5-0.1999969,0.7999992,0s0.5999985,0.0999985,0.9000015,0c0.1999969-0.0999985,0.3000031-0.0999985,0.5,0
		c0.3000031,0.1999969,0.5,0.3000031,0.6999969,0.5999985c0.1999969,0.3000031,0.4000015,0.5,0.5999985,0.8000031
		c0.0999985,0.0999985,0.1999969,0.3000031,0.3000031,0.5C65.9000015,85.2000198,66,85.3000183,66,85.5000153V85.5z
		 M60.5999985,86.4000015V86c0,0-0.2000008-0.1999969-0.2999992-0.0999985c-0.0999985,0-0.0999985,0.0999985-0.2000008,0.1999969
		s0,0.3000031,0.0999985,0.3000031H60.5999985c0,0.1999969,0,0.4000015,0.2000008,0.5999985
		c0.4000015,0.4000015,0.7999992,0.8000031,1.0999985,1.1999969c0.0999985,0.0999985,0.2999992,0.1999969,0.4000015,0.3000031
		s0.4000015,0,0.4000015-0.1999969v-0.4000015l-0.2999992-0.3000031C62,87.2999954,61.6000023,87,61.3000031,86.5999985
		C61.1000023,86.4000015,60.9000015,86.4000015,60.5999985,86.4000015z M55.7999992,93.0999985
		C56,93,56.2000008,93,56.3999977,92.9000015s0.4000015-0.1999969,0.5-0.4000015l0.2999992-0.5999985
		c0.0999985-0.1999969,0.0999985-0.4000015-0.0999985-0.5C57,91.3000031,56.8999977,91.0999985,56.7999992,91
		C56.3999977,90.6999969,55.8999977,90.4000015,55.5,90c-0.2000008-0.0999985-0.5-0.1999969-0.7000008-0.3000031
		s-0.4000015,0-0.5,0.0999985c-0.2999992,0.1999969-0.5,0.4000015-0.7000008,0.5999985
		C53.5,90.4999924,53.5,90.6999969,53.5,90.7999954l0.2999992,0.5999985l0.5,0.5c0,0,0.2999992,0.4000015,0.5,0.6999969
		C55,92.7999878,55.3999977,92.9999924,55.7999992,93.0999985z M61.3999977,89c0-0.3000031,0-0.5999985-0.2000008-0.6999969
		c-0.2000008-0.1999969-0.4000015-0.4000015-0.5999985-0.5C60.1999969,87.7000046,59.8999977,87.5,59.6999969,87.1000061
		c-0.2999992-0.0999985-0.5-0.4000015-0.9000015-0.1999969c-0.0999985,0.0999985-0.2999992,0-0.4000015,0.0999985
		c-0.2999992,0.0999985-0.5,0.1999969-0.5999985,0.5c0,0.0999985-0.0999985,0.1999969-0.2000008,0.4000015
		c0,0.0999985-0.0999985,0.3000031,0,0.4000015c0.5,0.5999985,1,1.0999985,1.5999985,1.5999985l0.5999985,0.3000031
		c0.2999992,0.1999969,0.9000015,0,1.0999985-0.3000031l0.2999992-0.5999985
		C61.3999901,89.2000122,61.3999901,89.1000137,61.3999977,89z M63.4999962,84.0999985
		c-0.2000008,0.0999985-0.2999992,0.0999985-0.5,0.1999969l-1.2000008,0.9000015v0.0999985
		c0,0.0999985,0,0.1999969,0.0999985,0.1999969c0.2999992,0.0999985,0.5999985,0,0.7999992,0.0999985
		c0.2999992,0.0999985,0.5,0.4000015,0.7000008,0.5999985s0.5,0.4000015,0.6999969,0.6999969
		c0.0999985,0.0999985,0.0999985,0.0999985,0.1999969,0.0999985s0.1999969,0,0.1999969-0.0999985
		c0.0999985-0.0999985,0.1999969-0.1999969,0.0999985-0.1999969l-0.3000031-0.5999985
		c-0.1999969-0.3000031-0.4000015-0.5-0.5-0.8000031c-0.2000008-0.3000031-0.2000008-0.5999985,0-0.9000015l0.0999985-0.0999985
		c0-0.0999985-0.0999985-0.1999969-0.0999985-0.1999969h-0.2999992L63.4999962,84.0999985z M57.7999954,89.2999954
		c0-0.0999985-0.2000008-0.1999969-0.2999992-0.1999969c-0.2999992,0.0999985-0.5,0.4000015-0.7000008,0.5999985V90
		c0,0,0.2999992,0.0999985,0.4000015,0.0999985C57.3999977,90,57.5999985,89.7999954,57.7999954,89.5
		C57.7999954,89.5,57.7999954,89.3000031,57.7999954,89.2999954z"/>
	<path class="st3" d="M55.9000015,91.3000031h0.2000008c0.2999992,0,0.5,0.4000015,0.2999992,0.6999969l-0.2999992,0.3000031
		c-0.0999985,0.0999985-0.2000008,0.0999985-0.2000008,0.0999985c-0.2999992,0-0.5999985-0.4000015-0.5-0.5999985
		c0-0.1999969,0.0999985-0.3000031,0.2999992-0.4000015C55.7999992,91.3000031,55.9000015,91.3000031,55.9000015,91.3000031z
		 M54.2999992,90.6999969c0-0.0999985,0.0999985-0.1999969,0.0999985-0.1999969c0.2000008-0.1999969,0.4000015-0.1999969,0.5,0
		c0.0999985,0.0999985,0.0999985,0.1999969,0,0.3000031S54.6999969,91,54.5999985,91s-0.2000008,0-0.2000008-0.0999985
		C54.3999977,90.9000015,54.3999977,90.8000031,54.2999992,90.6999969z M59.5999985,89
		c0.0999985-0.3000031,0.2999992-0.4000015,0.5-0.5999985c0.0999985,0,0.2000008-0.0999985,0.2999992-0.0999985
		c0.2999992,0,0.5,0.4000015,0.2999992,0.6999969l-0.0999985,0.0999985c-0.2000008,0.3000031-0.5,0.3000031-0.7999992,0.0999985
		L59.5999985,89z M58.4000015,87.9000015c0-0.3000031,0.4000015-0.5,0.7000008-0.3000031
		c0.0999985,0.0999985,0.0999985,0.0999985,0.0999985,0.1999969v0.0999985c0,0.0999985-0.0999985,0.0999985-0.2000008,0.1999969
		s-0.2000008,0.1999969-0.4000015,0.0999985c-0.0999985,0-0.2000008-0.1999969-0.2000008-0.3000031L58.4000015,87.9000015z"/>
	<path class="st0" d="M56.2999992,95.0999985c-0.2000008-0.0999985-0.5-0.1999969-0.7000008-0.3000031
		c-0.0999985-0.0999985-0.2999992-0.0999985-0.4000015,0s-0.2000008,0.0999985-0.4000015,0.1999969
		c-0.2999992,0.0999985-0.5,0-0.7999992-0.0999985c-1.0999985-0.8000031-1.2000008-0.9000015-2.2000008-2
		c-0.2000008-0.1999969-0.2999992-0.5-0.4000015-0.6999969c-0.0999985-0.0999985-0.0999985-0.3000031,0-0.4000015
		c0.2000008-0.3000031,0.2000008-0.5,0-0.8000031c0,0,0-0.0999985-0.0999985-0.0999985c0-0.1999969,0-0.4000015,0.0999985-0.5
		c0.4000015-0.5,0.9000015-1,1.5-1.4000015c0.2000008-0.0999985,0.4000015-0.1999969,0.5-0.4000015
		c0.7999992-0.8000031,1.5999985-1.5,2.5-2.0999985c0.5-0.4000015,1-0.6999969,1.5999985-1
		c0.7000008-0.4000015,1.4000015-0.9000015,2-1.3000031c0.5-0.4000015,1.0999985-0.6999969,1.7000008-0.9000015l1.2000008-0.5999985
		c0.2000008-0.0999985,0.4000015-0.1999969,0.5999985,0c0.2999992,0.1999969,0.5,0.1999969,0.7999992,0
		c0.0999985,0,0.2000008-0.0999985,0.2999992,0c0.3000031,0.0999985,0.5,0.1999969,0.8000031,0.3000031
		c0.0999985,0,0.1999969,0.0999985,0.1999969,0.1999969l1.8000031,2.0999985
		c0.1999969,0.1999969,0.1999969,0.4000015,0.0999985,0.5999985s-0.0999985,0.3000031-0.1999969,0.5
		c-0.1999969,0.3000031-0.1999969,0.5999985,0,0.9000015c0.0999985,0.3000031,0,0.5-0.1999969,0.6999969
		c-0.1999969,0.3000031-0.5,0.5-0.8000031,0.6999969s-0.5999985,0.4000015-0.9000015,0.6999969
		c-0.5999985,0.5999985-1.4000015,1-2,1.6999969c-0.5,0.1999969-0.7999992,0.6999969-1.2000008,0.9000015
		c-0.4000015,0.1999969-0.7000008,0.5999985-1.0999985,0.8000031c-0.4000015,0.1999969-0.7000008,0.5-1,0.6999969
		l-0.9000015,0.5999985l-0.9000015,0.5999985c-0.2000008,0.1999969-0.4000015,0.4000015-0.5999985,0.5
		c-0.4000015-0.3000031-0.5999985-0.1999969-0.9000015-0.0999985L56.2999992,95.0999985z M66,85.5
		c-0.0999985-0.0999985-0.0999985-0.3000031-0.1999969-0.4000015c-0.0999985-0.1999969-0.1999969-0.3000031-0.3000031-0.5
		c-0.1999969-0.3000031-0.4000015-0.5-0.5999985-0.8000031s-0.5-0.4000015-0.6999969-0.5999985
		c-0.1999969-0.0999985-0.2999992-0.0999985-0.5,0c-0.2999992,0.1999969-0.5999985,0.1999969-0.9000015,0
		s-0.5-0.0999985-0.7999992,0l-1.5,0.9000015c-0.2000008,0.0999985-0.5,0.3000031-0.7000008,0.4000015
		c-0.5,0.3000031-1,0.6999969-1.5999985,1c-0.2000008,0.0999985-0.2999992,0.1999969-0.5,0.3000031
		c-0.2999992,0.3000031-0.5999985,0.5-1,0.6999969c-0.2999992,0.1999969-0.5999985,0.3000031-0.7999992,0.5
		c-0.5999985,0.5999985-1.2999992,1.0999985-2,1.6999969c-0.4000015,0.3000031-0.7999992,0.6999969-1.2999992,1
		c-0.2000008,0.0999985-0.4000015,0.4000015-0.5999985,0.5999985c-0.0999985,0.0999985-0.0999985,0.1999969-0.0999985,0.3000031
		S52.0000076,90.9000015,52.0000076,91c0.0999985,0.0999985,0.0999985,0.3000031,0.0999985,0.4000015
		c-0.2000008,0.3000031,0,0.5,0.2000008,0.6999969c0.5999985,0.5999985,1.2000008,1.1999969,1.7999992,1.6999969
		c0.2000008,0.1999969,0.4000015,0.1999969,0.5999985,0.1999969h0.4000015c0.4000015,0,0.7000008,0,1,0.1999969h0.2999992
		c0.4000015-0.3000031,0.7999992-0.5,1.2000008-0.9000015l1.2000008-0.9000015
		c0.9000015-0.5999985,1.7000008-1.4000015,2.7000008-1.9000015l0.0999985-0.0999985
		c0.7000008-0.6999969,1.5999985-1.0999985,2.2000008-1.8000031l0.2999992-0.3000031c0.5-0.3000031,0.9000015-0.6999969,1.4000015-1
		c0.0999985-0.0999985,0.0999985-0.1999969,0.0999985-0.4000015c0-0.0999985,0-0.1999969-0.0999985-0.3000031
		c-0.3000031-0.4000015-0.1999969-0.8000031,0.0999985-1.0999985c0.3000031,0.0999985,0.4000015,0.0999985,0.4000015,0L66,85.5z"/>
	<path class="st1" d="M47.2000008,99.3000031c0,0.0999985,0,0.4000015-0.0999985,0.6999969
		c0,0.0999985-0.0999985,0.1999969-0.0999985,0.1999969L46.4000053,100.5c-0.0999985,0-0.2999992,0.0999985-0.4000015,0
		c-0.2999992-0.1999969-0.7000008-0.1999969-1.0999985-0.1999969c-0.2000008,0-0.5,0-0.7000008-0.0999985
		s-0.2999992-0.0999985-0.5,0c-0.0999985,0.0999985-0.2999992,0.0999985-0.4000015,0
		c-0.2999992-0.0999985-0.7000008-0.3000031-0.9000015-0.5c-0.0999985-0.0999985-0.2000008-0.1999969-0.2000008-0.4000015v-0.5
		c0-0.1999969-0.0999985-0.4000015-0.0999985-0.5v-0.1999969l0.2999992-0.3000031
		c0.2999992-0.3000031,0.5999985-0.4000015,1-0.1999969c0.0999985,0,0.2000008,0.0999985,0.2000008,0.0999985
		c0.0999985,0,0.2000008,0,0.2000008-0.0999985c0.0999985-0.0999985,0.2000008-0.1999969,0.0999985-0.3000031
		c-0.2000008-0.3000031,0-0.5,0.0999985-0.6999969c0.2000008-0.3000031,0.5999985-0.5,1-0.4000015
		c0.2999992,0,0.5999985,0,1,0.0999985c0.0999985,0,0.2000008,0.0999985,0.2000008,0.0999985
		c0.2999992,0.3000031,0.7000008,0.5,0.5999985,1v0.3000031C47.2000008,98.1000061,47.0999985,98.6000061,47.2000008,99.3000031z
		 M50,92.5999985h0.2999992c0.5-0.0999985,0.7999992,0.1999969,1,0.5L51.5,93.2999954c0,0.0999985,0.0999985,0.1999969,0,0.3000031
		C51.4000015,94,51.7999992,94.2999954,51.7000008,94.6999969c0,0.1999969-0.0999985,0.3000031,0,0.5
		C51.7999992,95.5,51.7999992,95.6999969,51.7999992,96c0,0.4000015-0.2000008,0.5999985-0.5,0.6999969
		C51.2000008,96.7999954,51,96.7999954,50.8999977,96.8999939s-0.2999992,0.0999985-0.4000015,0
		c-0.4000015-0.1999969-0.7999992-0.1999969-1.2000008-0.3000031c-0.4000015-0.0999985-0.7000008-0.1999969-1.0999985-0.1999969
		c-0.2000008,0-0.4000015,0-0.5-0.0999985l-0.5999985-0.3000031c0,0-0.2999992-0.4000015-0.2999992-0.5999985
		s-0.0999985-0.4000015-0.2000008-0.5999985s0-0.4000015,0.0999985-0.5l0.2999992-0.3000031
		c0.2000008-0.1999969,0.4000015-0.1999969,0.5999985-0.1999969c0.2999992,0,0.5,0.0999985,0.7999992,0
		c0.0999985,0,0.2000008-0.0999985,0.0999985-0.1999969c-0.2000008-0.4000015,0-0.6999969,0.2000008-1
		c0.0999985-0.0999985,0.2000008-0.1999969,0.2999992-0.1999969C49.4999924,92.5999985,49.7999916,92.5999985,50,92.5999985z
		 M70.3000031,81.9000015v0.4000015c0,0.4000015-0.1999969,0.6999969-0.5,0.9000015
		c-0.1999969,0.0999985-0.4000015,0.1999969-0.5999985,0.1999969c-0.4000015-0.1999969-0.9000015-0.1999969-1.3000031-0.1999969
		c-0.5999985,0-1-0.3000031-1.5999985-0.4000015C66.2000046,82.8000031,66.1000061,82.6000061,66,82.5l-0.3000031-1.1999969
		c0-0.0999985,0-0.1999969,0.0999985-0.3000031c0.0999985-0.1999969,0.3000031-0.3000031,0.5-0.5
		c0.0999985-0.0999985,0.3000031-0.1999969,0.5-0.0999985c0.0999985,0,0.1999969,0.0999985,0.1999969,0.0999985
		c0.3000031,0.0999985,0.5999985-0.1999969,0.5-0.4000015c0-0.1999969-0.0999985-0.3000031,0.0999985-0.5l0.4000015-0.4000015
		C68.2999954,78.8999939,68.6999893,78.8999939,69.0999908,79c0.1999969,0.0999985,0.5,0.1999969,0.6999969,0.4000015
		c0.0999985,0.0999985,0.1999969,0.1999969,0.1999969,0.3000031c0.0999985,0.4000015,0,0.9000015,0.3000031,1.3000031
		c-0.0999985,0.5,0,0.8000031,0,0.9000015L70.3000031,81.9000015z M74.6999969,78.6999969V79.5
		c0,0.1999969-0.1999969,0.4000015-0.4000015,0.4000015c-0.4000015,0-0.6999969,0.0999985-1.0999985-0.0999985
		c-0.1999969-0.0999985-0.4000015-0.0999985-0.5999985,0s-0.4000015,0.0999985-0.5-0.0999985
		c-0.1999969-0.1999969-0.5-0.1999969-0.8000031-0.1999969c-0.5,0-0.8000031-0.3000031-0.9000015-0.8000031
		c0-0.0999985,0-0.3000031-0.0999985-0.4000015c-0.0999985-0.4000015-0.0999985-0.4000015,0-0.5999985
		c0.0999985-0.0999985,0.0999985-0.1999969,0.1999969-0.3000031c0.1999969-0.1999969,0.4000015-0.3000031,0.6999969-0.1999969
		c0.0999985,0,0.1999969,0.0999985,0.4000015,0.1999969c0.0999985,0,0.3000031-0.0999985,0.3000031-0.1999969v-0.0999985
		c-0.0999985-0.5,0.0999985-0.8000031,0.5-1c0.3000031-0.1999969,0.5999985-0.3000031,0.9000015-0.1999969
		s0.6999969,0.3000031,0.9000015,0.5c0.0999985,0.0999985,0.0999985,0.1999969,0.0999985,0.1999969
		c0,0.4000015,0.0999985,0.8000031,0.1999969,1.1999969C74.6999893,78.1000061,74.6999893,78.4000015,74.6999969,78.6999969z"/>
	<path class="st3" d="M74.5999985,84.9000015c0-0.0999985-0.0999985-0.1999969-0.0999985-0.3000031
		c-0.1999969-0.1999969-0.4000015-0.3000031-0.6999969-0.5C73.7000046,84,73.6000061,83.7999954,73.7000046,83.6999969
		c0.1999969-0.3000031,0.4000015-0.4000015,0.6999969-0.1999969c0.9000015,0.5,1.6999969,1.0999985,2.4000015,1.9000015
		c0.0999985,0.0999985,0.0999985,0.3000031,0,0.4000015C76.7000046,86,76.5,86.1000061,76.3000031,86.1000061
		c-0.5999985,0-1.1999969,0.0999985-1.8000031,0.0999985c0,0-0.0999985,0-0.0999985,0.0999985v0.0999985
		c0.1999969,0.1999969,0.4000015,0.5,0.6999969,0.6999969c0.0999985,0.0999985,0.0999985,0.3000031,0,0.4000015
		c-0.1999969,0.3000031-0.5,0.3000031-0.6999969,0.0999985C73.8000031,87.0999985,73.2000046,86.5,72.5,86
		c-0.0999985-0.0999985-0.1999969-0.1999969-0.3000031-0.4000015c-0.0999985-0.1999969-0.0999985-0.4000015,0.0999985-0.5
		c0.5-0.3000031,1.0999985-0.4000015,1.6999969-0.1999969c0.1999969,0.0999985,0.3000031,0.0999985,0.5,0
		C74.4999924,85.2000046,74.5999908,85.0999985,74.5999985,84.9000015z M62.5,93.5999985
		c0.4000015,0,0.7000008,0.0999985,0.9000015,0.0999985c0.0999985,0,0.2000008-0.0999985,0.2999992-0.0999985
		c0,0,0-0.0999985-0.0999985-0.0999985c-0.2000008-0.1999969-0.4000015-0.5-0.5999985-0.6999969
		c-0.0999985-0.0999985-0.0999985-0.1999969,0.0999985-0.4000015s0.4000015-0.1999969,0.5999985-0.0999985
		C64.0999985,92.6000061,64.5,93,65,93.3000031s0.6999969,0.8000031,1,1.3000031c0,0.0999985,0,0.3000031-0.1999969,0.4000015
		c-0.0999985,0.0999985-0.3000031,0.0999985-0.5,0.0999985s-0.4000015-0.0999985-0.5999985-0.1999969
		s-0.4000015-0.0999985-0.5999985-0.0999985c-0.0999985,0-0.2999992,0.3000031-0.2000008,0.4000015
		c0.1000023,0.1999969,0.2999992,0.3000031,0.3999977,0.5c0.0999985,0.0999985,0.0999985,0.3000031,0,0.4000015
		c-0.1999969,0.1999969-0.4000015,0.3000031-0.7000008,0.0999985c-0.4000015-0.1999969-0.7999992-0.4000015-1.0999985-0.6999969
		c-0.4000015-0.4000015-0.9000015-0.8000031-1.2000008-1.3000031c-0.0999985-0.0999985,0.0999985-0.4000015,0.2000008-0.4000015
		s0.2000008-0.0999985,0.2999992-0.0999985c0.2000008-0.0999985,0.5-0.0999985,0.7000008-0.0999985L62.5,93.5999985z
		 M52.9000015,100v0.1999969l-0.2999992,0.5999985c-0.2000008,0.3000031-0.7000008,0.5-0.2999992,0.9000015
		c0.4000015,0.1999969,0.5999985-0.1999969,0.7999992-0.4000015c0.0999985-0.0999985,0.2000008-0.0999985,0.2999992-0.1999969
		h0.2999992c0.2000008,0,0.4000015,0.3000031,0.2999992,0.4000015c-0.0999985,0.3000031-0.2999992,0.5999985-0.5,0.9000015
		c-0.0999985,0.0999985-0.0999985,0.1999969,0,0.3000031s0.2000008,0.0999985,0.2999992,0.0999985
		c0.2000008,0,0.2999992-0.0999985,0.5-0.0999985c0.0999985-0.0999985,0.2999992-0.0999985,0.4000015-0.1999969
		c0.0999985,0,0.4000015,0,0.4000015,0.1999969c0.0999985,0.0999985,0.0999985,0.3000031,0,0.4000015
		c-0.2999992,0.4000015-0.5999985,0.5999985-0.9000015,0.9000015c-0.2999992,0.1999969-0.5999985,0.1999969-0.9000015,0
		c-0.4000015-0.3000031-0.7000008-0.5999985-1.0999985-0.9000015c-0.5-0.4000015-1-0.9000015-1.4000015-1.4000015
		c-0.0999985-0.0999985,0-0.4000015,0-0.5c0.4000015-0.5,0.9000015-1,1.5-1.3000031
		c0.2000008-0.0999985,0.2999992,0,0.5999985,0.0999985C52.7999992,99.9000015,52.7999992,99.9000015,52.9000015,100z
		 M59.2000008,94.9000015c0-0.0999985,0-0.1999969,0.0999985-0.3000031c0-0.0999985,0.2999992-0.1999969,0.4000015-0.1999969
		c0.7000008,0.4000015,1.4000015,0.6999969,1.9000015,1.1999969c0.2000008,0.1999969,0.5,0.4000015,0.7999992,0.5
		c0.2999992,0.1999969,0.5,0.5,0.4000015,0.6999969l-0.2999992,0.3000031C62.3000031,97.1999969,62.2000046,97,62.1000023,97
		c-0.4000015-0.0999985-0.7999992,0.1999969-0.7999992,0.5999985v0.5c0,0.0999985,0,0.1999969-0.0999985,0.3000031L61.1000061,98.5
		c-0.2000008,0.1999969-0.5999985,0.0999985-0.7000008-0.0999985C60.3000069,98.0999985,60.1000061,97.8000031,60.1000061,97.5
		c0-0.5999985-0.2999992-1-0.5-1.5C59.2000046,95.5999985,59.2000046,95.1999969,59.2000008,94.9000015z M61.1000023,96.3000031
		c0-0.0999985,0-0.1999969-0.0999985-0.3000031s-0.2999992-0.0999985-0.4000015-0.0999985
		c-0.2000008,0-0.2999992,0.1999969-0.2000008,0.3000031C60.5,96.3000031,60.5,96.4000015,60.6000023,96.5000076
		c0,0.0999985,0.2999992,0.0999985,0.2999992,0.0999985C61,96.5000076,61,96.4000092,61.1000023,96.3000031z
		 M56.4000015,101.9000015c0,0.1999969-0.2000008,0.4000015-0.4000015,0.5s-0.4000015,0-0.5999985-0.1999969
		c-0.0999985-0.0999985-0.2000008-0.3000031-0.2000008-0.4000015c0-0.1999969,0-0.4000015-0.0999985-0.5999985
		c0-0.3000031-0.2000008-0.5-0.5-0.5999985c-0.4000015-0.1999969-0.7999992-0.3000031-1.2000008-0.4000015
		c-0.0999985,0-0.0999985-0.0999985-0.0999985-0.3000031c0-0.0999985,0-0.1999969,0.0999985-0.3000031
		C53.5,99.5999985,53.6000023,99.5,53.7000008,99.5h0.5c0,0,0.2999992-0.1999969,0.2999992-0.3000031
		c0-0.1999969,0-0.4000015,0.0999985-0.5999985c0-0.0999985,0.2000008-0.3000031,0.2999992-0.4000015
		s0.2000008-0.0999985,0.2999992,0c0.2000008,0.0999985,0.2999992,0.3000031,0.4000015,0.5
		c0.0999985,0.5999985,0.4000015,1,1,1.1999969c0.2999992,0.0999985,0.5999985,0.3000031,0.9000015,0.4000015
		c0.0999985,0,0.0999985,0.1999969,0.0999985,0.3000031c0,0.3000031-0.2999992,0.5-0.5,0.4000015
		c-0.0999985-0.0999985-0.2999992-0.0999985-0.4000015-0.1999969S56.2999954,100.9000015,56.3999977,101v0.5
		C56.2999992,101.6999969,56.3999977,101.8000031,56.4000015,101.9000015z M73.5,88.4000015
		c-0.0999985,0.1999969-0.0999985,0.3000031-0.1999969,0.5C73.2000046,89.4000015,73,89.7000046,72.6000061,90
		c-0.0999985,0.0999985-0.3000031,0.1999969-0.4000015,0.1999969h-0.8000031c-0.0999985,0-0.1999969,0-0.3000031-0.0999985
		c-0.5-0.3000031-0.9000015-0.8000031-1.1999969-1.3000031c-0.0999985-0.1999969-0.1999969-0.4000015-0.0999985-0.5999985
		C69.9000015,87.8999939,70,87.6999969,70.1000061,87.5c0.1999969-0.3000031,0.4000015-0.5,0.8000031-0.5h0.8000031
		c0.9000015,0,1.4000015,0.4000015,1.6999969,1.1999969C73.4000092,88.1999969,73.4000092,88.2999954,73.5,88.4000015z
		 M72.5,88.5999985c0-0.3000031-0.3000031-0.9000015-0.5-0.9000015c-0.3000031-0.0999985-0.5999985-0.0999985-0.9000015,0
		C70.6999969,87.8999939,70.5,88.3999939,70.7999954,88.7999954c0.1999969,0.3000031,0.4000015,0.5,0.6999969,0.6999969
		c0.0999985,0.0999985,0.3000031,0.0999985,0.5,0s0.4000015-0.3000031,0.5999985-0.5
		C72.4999924,88.7999954,72.4999924,88.6999893,72.5,88.5999985z M58.2000008,96c0.0999985,0,0.2000008,0,0.2999992,0.0999985
		c0.0999985,0,0.2000008,0.0999985,0.2999992,0.1999969c0.5999985,0.5999985,0.5999985,1,0.2999992,1.6999969
		C59.0999985,98.0999908,59,98.1999893,59,98.2999954c0,0.1999969,0,0.3000031,0.0999985,0.5
		c0.2000008,0.1999969,0.2999992,0.4000015,0.5,0.5999985c0.0999985,0.1999969,0.0999985,0.4000015,0,0.5999985
		c-0.0999985,0.0999985-0.2000008,0.0999985-0.2999992,0.0999985c-0.4000015-0.0999985-0.7000008-0.5-1.0999985-0.6999969
		c-0.2000008-0.0999985-0.4000015-0.4000015-0.5-0.5999985C57.5,98.4999924,57.2000008,98.1999969,57,97.9999924
		c-0.4000015-0.4000015-0.2999992-1.4000015,0.2999992-1.6999969C57.5,96.1999969,57.7999992,96.0999985,58,95.9999924
		C57.9000015,95.8999939,58,95.9999924,58.2000008,96z M57.9000015,96.9000015
		c-0.2000008,0-0.4000015,0.1999969-0.4000015,0.4000015c0,0.4000015,0.2000008,0.5999985,0.5999985,0.5999985
		c0.2999992,0,0.4000015-0.1999969,0.4000015-0.5999985C58.5,97,58.2999992,96.9000015,57.9000015,96.9000015z M66.8000031,94
		C66.7000046,94,66.6000061,94,66.5,93.9000015c-0.0999985,0-0.1999969-0.3000031-0.0999985-0.4000015
		c0.0999985-0.1999969,0.3000031-0.3000031,0.5-0.4000015C67,93,67,92.7999954,66.9000015,92.6999969
		c-0.1999969-0.0999985-0.3000031-0.3000031-0.5999985-0.3000031c-0.4000015,0-0.8000031,0-1.0999985-0.0999985
		c-0.3000031,0-0.5-0.1999969-0.5999985-0.5c-0.1999969-0.3000031-0.0999985-0.6999969,0.0999985-0.9000015
		c0.3000031-0.3000031,0.5999985-0.5999985,1-0.8000031c0.1999969-0.0999985,0.5-0.0999985,0.8000031,0.0999985
		c0.1999969,0.1999969,0.1999969,0.4000015,0,0.5c-0.3000031,0.0999985-0.5999985,0.3000031-0.8000031,0.5
		c-0.0999985,0-0.0999985,0.1999969-0.0999985,0.3000031l0.0999985,0.0999985c0.1999969,0,0.3000031,0.0999985,0.5,0.0999985
		h0.8000031c0.5999985,0,1,0.3000031,1.3000031,0.8000031c0.0999985,0.0999985,0.0999985,0.3000031,0.0999985,0.5
		c-0.0999985,0.4000015-0.5999985,1-1.0999985,1C67.3000107,93.9999924,66.8000107,93.9999924,66.8000031,94z
		 M69.4000015,92.3000031C69.0999985,92.1000061,69,91.9000015,69.0999985,91.7000046
		c0.0999985-0.3000031,0.0999985-0.5-0.0999985-0.6999969l-0.5999985-0.5999985c0,0-0.5-0.3000031-0.6999969-0.1999969h-0.5
		c-0.0999985,0-0.1999969-0.3000031-0.1999969-0.4000015l0.0999985-0.0999985c0.4000015-0.5,0.9000015-0.9000015,1.5-1.0999985
		c0.1999969-0.0999985,0.3000031-0.0999985,0.4000015,0.0999985c0.0999985,0.0999985,0.1999969,0.1999969,0.0999985,0.4000015
		c-0.0999985,0.0999985-0.0999985,0.1999969-0.0999985,0.3000031c-0.0999985,0.1999969,0,0.3000031,0.0999985,0.5
		s0.3000031,0.3000031,0.4000015,0.5c0.3000031,0.3000031,0.5999985,0.5,1,0.4000015h0.1999969
		c0.0999985,0.0999985,0.1999969,0.0999985,0.1999969,0.1999969v0.5C70.4000015,91.8000183,70,92.3000183,69.5,92.6000137
		C69.5,92.3000107,69.4000015,92.3000107,69.4000015,92.3000031z"/>
	<path class="st0" d="M55.7999992,93.0999985C55.3999977,93,55,92.7999954,54.7999992,92.4000015
		C54.5999985,92.2000046,54.5,92,54.2999992,91.7000046c-0.0999985-0.1999969-0.2999992-0.3000031-0.5-0.5L53.5,90.6000061
		c0-0.0999985,0-0.3000031,0.0999985-0.4000015c0.2000008-0.1999969,0.5-0.4000015,0.7000008-0.5999985
		c0.2000008-0.0999985,0.2999992-0.0999985,0.5-0.0999985c0.2999992,0.0999985,0.5,0.1999969,0.7000008,0.3000031
		c0.4000015,0.4000015,0.7999992,0.6999969,1.2999992,1C56.8999977,90.9000092,57,91.1000137,57.0999985,91.2000122
		c0.0999985,0.1999969,0.0999985,0.4000015,0.0999985,0.5l-0.2999992,0.5999985
		c-0.0999985,0.1999969-0.2999992,0.3000031-0.5,0.4000015c-0.2000008,0.3000031-0.4000015,0.4000015-0.5999985,0.4000015
		V93.0999985z M55.8999977,91.2999954h-0.2000008c-0.2000008,0.0999985-0.2999992,0.1999969-0.2999992,0.4000015
		c-0.0999985,0.3000031,0.2000008,0.5999985,0.5,0.5999985c0.0999985,0,0.2000008,0,0.2000008-0.0999985l0.2999992-0.3000031
		c0.2000008-0.3000031,0-0.6999969-0.2999992-0.6999969C56,91.2999954,56,91.2999954,55.8999977,91.2999954z M54.2999992,90.6999969
		c0,0.0999985,0,0.1999969,0.0999985,0.1999969s0.2000008,0.0999985,0.2000008,0.0999985
		c0.0999985,0,0.2000008-0.0999985,0.2999992-0.1999969s0.0999985-0.1999969,0-0.3000031
		c-0.2000008-0.1999969-0.4000015-0.1999969-0.5,0C54.3999977,90.4999924,54.3999977,90.5999908,54.2999992,90.6999969z
		 M61.4000015,89c0,0,0,0.1999969-0.0999985,0.3000031l-0.2999992,0.5999985
		c-0.2000008,0.3000031-0.7999992,0.5-1.0999985,0.3000031l-0.5999985-0.3000031c-0.5999985-0.5-1.0999985-1-1.5999985-1.5999985
		c-0.0999985-0.0999985-0.0999985-0.3000031,0-0.4000015c0-0.0999985,0.0999985-0.1999969,0.2000008-0.4000015
		c0.0999985-0.3000031,0.2999992-0.4000015,0.5999985-0.5c0.0999985,0,0.2999992,0,0.4000015-0.0999985
		c0.4000015-0.1999969,0.5999985,0,0.9000015,0.1999969c0.2000008,0.4000015,0.5999985,0.5999985,0.9000015,0.6999969
		s0.4000015,0.3000031,0.5999985,0.5C61.4000092,88.4999924,61.5000114,88.6999969,61.4000015,89z M59.6000023,89
		l0.2999992,0.3000031C60.2000008,89.5,60.5,89.5,60.7000008,89.2000046l0.0999985-0.0999985
		c0.2000008-0.3000031,0-0.6999969-0.2999992-0.6999969c-0.0999985,0-0.2000008,0-0.2999992,0.0999985
		C59.9000015,88.6000061,59.7000008,88.7000046,59.6000023,89z M58.4000015,87.9000015
		c0,0.1999969,0.0999985,0.3000031,0.2999992,0.4000015s0.2999992,0,0.4000015-0.0999985l0.2000008-0.1999969v-0.0999985
		c0-0.0999985,0-0.1999969-0.0999985-0.1999969C58.8000031,87.4000092,58.4000053,87.5000153,58.4000015,87.9000015z
		 M63.5,84.0999985c0.0999985,0,0.2000008,0.0999985,0.2000008,0.0999985
		c0.0999985,0.0999985,0.0999985,0.0999985,0.0999985,0.1999969c0,0,0,0.0999985-0.0999985,0.0999985
		c-0.2000008,0.3000031-0.2000008,0.5999985,0,0.9000015s0.3999977,0.5,0.4999962,0.8000031L64.5,86.7999954
		c0,0.0999985-0.0999985,0.1999969-0.0999985,0.1999969c-0.0999985,0-0.1999969,0.0999985-0.1999969,0.0999985
		c-0.0999985,0-0.1999969-0.0999985-0.1999969-0.0999985c-0.2000008-0.1999969-0.5-0.4000015-0.7000008-0.6999969
		c-0.2000008-0.1999969-0.4000015-0.5-0.7000008-0.5999985c-0.2000008-0.0999985-0.5-0.0999985-0.7000008-0.0999985
		c-0.0999985,0-0.0999985-0.0999985-0.0999985-0.1999969v-0.0999985l1.2000008-0.9000015
		C63.1000061,84.2000046,63.3000069,84.0999985,63.5,84.0999985z M60.5999985,86.4000015c0.2999992,0,0.5,0,0.7000008,0.1999969
		C61.5999985,87,62,87.2999954,62.3999977,87.5999985l0.2999992,0.3000031c0.0999985,0.0999985,0.0999985,0.3000031,0,0.4000015
		C62.5999985,88.5,62.3999977,88.6000061,62.2999954,88.5s-0.2999992-0.1999969-0.4000015-0.3000031
		C61.4999924,87.7999954,61.1999931,87.3999939,60.7999954,87C60.5999947,86.8000031,60.6999969,86.5999985,60.5999985,86.4000015z
		 M57.7999992,89.3000031v0.3000031C57.7000008,89.8000031,57.5,90.0000076,57.2000008,90.2000046
		c-0.0999985,0.0999985-0.2999992,0-0.4000015-0.0999985c0-0.0999985-0.0999985-0.1999969,0-0.3000031
		c0.0999985-0.3000031,0.4000015-0.5,0.7000008-0.5999985C57.5999985,89.1000061,57.7999992,89.2000046,57.7999992,89.3000031z
		 M60.7000008,86.4000015h-0.4000015c0,0-0.2000008-0.1999969-0.0999985-0.3000031
		C60.2000008,86,60.2999992,86,60.4000015,85.9000015s0.2999992,0,0.2999992,0.0999985
		C60.6000023,86.1999969,60.6000023,86.3000031,60.7000008,86.4000015z"/>
</g>
</svg>
