<?xml version="1.0" encoding="utf-8"?>
<!-- Generator: Adobe Illustrator 18.1.1, SVG Export Plug-In . SVG Version: 6.00 Build 0)  -->
<!DOCTYPE svg PUBLIC "-//W3C//DTD SVG 1.1//EN" "http://www.w3.org/Graphics/SVG/1.1/DTD/svg11.dtd">
<svg version="1.1" id="Layer_1" xmlns="http://www.w3.org/2000/svg" xmlns:xlink="http://www.w3.org/1999/xlink" x="0px" y="0px"
	 viewBox="0 0 125 125" enable-background="new 0 0 125 125" xml:space="preserve">
<g>
	<g>
		<path fill="#78433F" d="M0.2,76.6c0-0.8,0-1.3,0-1.9c0-0.2,0-0.5,0.1-0.7c0.3-0.5,0.3-0.9,0.3-1.4c0-0.3,0-0.6,0-1
			c-0.1-1.2,0.4-2.3,0.6-3.5c0.1-0.6,0.4-1.2,0.9-1.7c0.7-0.7,1.4-1.3,2.1-1.9c1.1-0.9,2.3-1.7,3.5-2.5c0.6-0.4,1.2-0.8,1.8-1.1
			c0.2-0.1,0.5-0.2,0.6-0.3c0.9-0.8,2-1.3,3-1.9c0.4-0.2,0.8-0.5,1.2-0.8c0.7-0.5,1.5-1,2.2-1.4c1.9-1,3.7-2.2,5.5-3.4
			c0.9-0.6,1.8-1,2.6-1.6c0.5-0.4,1.1-0.7,1.6-1.1c0.3-0.3,0.6-0.5,1-0.6c0.4-0.2,0.9-0.4,1.2-0.7c0.7-0.7,1.5-1.2,2.4-1.6
			c0.3-0.1,0.5-0.4,0.8-0.6c0.4-0.4,0.8-0.7,1.4-0.9c0.3-0.2,0.6-0.4,0.9-0.6c0.8-0.5,1.4-1.4,2.4-1.5c0.8-0.3,1.5-0.7,2.3-1.1
			c0.3-0.1,0.7-0.2,1-0.2c0.9,0,1.7,0.1,2.5,0.6c1.3,0.7,2.6,1.6,3.7,2.6c0.6,0.6,1.2,1.3,2,1.7c1.1,1.4,2.6,2.4,3.8,3.6
			c0.8,0.7,1.6,1.3,2.3,2c1.3,1.2,2.5,2.5,3.8,3.7c1.4,1.3,2.7,2.7,4.1,4c1.6,1.6,3.1,3.2,4.7,4.8c1,1,1.9,1.9,3,2.7
			c0.7,0.5,1.3,1.2,1.9,1.8c0.9,0.9,1.8,1.9,2.9,2.5c0.7,0.7,1.7,1.2,2.3,2.1c0.1,0.1,0.2,0.3,0.3,0.3c1.3,0.8,2.3,2,3.4,3.1
			c1.3,1.3,2.5,2.7,3.9,3.9c0.9,0.8,1.2,1.9,1.6,2.9c0.1,0.1,0.1,0.3,0.1,0.5c0,1,0.1,2.1-0.3,3.1c-0.1,0.2-0.1,0.5-0.1,0.7
			c0,0.8,0,1.6-0.1,2.4c0,0.3,0,0.6-0.1,1c-0.1,0.6-0.4,1-0.3,1.6c0,0.6,0,1.1,0,1.7c0,0.8-0.4,1.6-0.9,2.2
			c-0.7,0.8-1.5,1.6-2.4,2.3c-0.4,0.3-0.8,0.6-1.1,0.9c-1.6,1.6-3.3,3-5.1,4.3c-0.3,0.2-0.5,0.3-0.8,0.6c-0.9,0.9-2,1.6-3.1,2.3
			c-0.3,0.2-0.7,0.4-1,0.7c-1,1-2.3,1.7-3.4,2.7c-0.3,0.3-0.8,0.5-1.1,0.9c-0.8,0.8-1.8,1.3-2.7,2c-1.5,0.7-2.7,2-4.1,2.9
			c-0.9,0.9-2.1,1.5-3,2.4c-0.2,0.2-0.5,0.4-0.8,0.5c-1.4,0.8-2.7,1.7-3.9,2.8c-0.9,0.8-2.1,1.2-3.2,1.5c-1,0.2-2.1,0.2-3-0.4
			c-0.6-0.3-1.1-0.6-1.6-1c-0.9-0.8-1.8-1.6-2.7-2.3c-0.9-0.7-1.6-1.5-2.4-2.3c-0.3-0.3-0.7-0.7-1.1-1c-0.3-0.2-0.6-0.5-0.8-0.8
			c-0.3-0.5-0.7-0.8-1.2-1.2c-0.5-0.3-0.9-0.6-1.3-1c-3-3-6-6-9-9c-1.6-1.6-3.3-3.3-4.9-4.9c-0.1-0.1-0.2-0.2-0.4-0.3
			c-1.9-1.2-3.3-3-4.9-4.5c-2-2-3.9-4-5.9-6c-0.9-0.9-1.9-1.7-2.6-2.8c-0.3-0.4-0.9-0.6-1.2-1.1s-0.7-0.9-1.2-1.2
			c-1-1.4-2.4-2.4-3.1-3.9c-0.6-0.5-0.6-1.3-0.9-1.9C0,78.8,0,78.2,0.1,77.6C0.2,77,0.2,76.7,0.2,76.6z"/>
		<path fill="#EB594F" d="M39.8,43.8c1.9,0.4,3.4,1.4,4.8,2.7c0.7,0.6,1.4,1.3,2.2,1.9c0.7,0.5,1.3,1.2,1.9,1.8c0.5,0.5,1,1,1.7,1.3
			c0.3,0.1,0.5,0.4,0.7,0.6c1.2,1.2,2.4,2.3,3.6,3.5c0.4,0.4,0.8,0.8,1.3,1.1c0.3,0.2,0.5,0.4,0.7,0.7c0.6,1,1.6,1.7,2.4,2.6
			c1.2,0.7,2.1,1.7,3,2.7c2.7,2.7,5.4,5.4,8.2,8.1c0.1,0.1,0.2,0.3,0.3,0.4c0,0.1,0,0.2,0,0.2c-0.5,0.6-1.1,1.2-1.8,1.6
			c-0.8,0.4-1.5,0.9-2.2,1.4c-1.1,0.8-2.2,1.6-3.3,2.3c-0.3,0.2-0.7,0.4-1,0.7c-1.2,1.2-2.7,2-3.9,3.2c-0.2,0.2-0.5,0.4-0.8,0.5
			c-1,0.5-1.9,1.2-2.8,1.8c-0.9,0.7-1.9,1.2-2.8,1.8c-0.7,0.4-1.4,0.7-2.1,1.2C49,86.6,48,87.1,47,87.6c-0.4,0.2-0.9,0.5-1.2,0.8
			c-1.5,1.3-3.2,2.4-4.7,3.7c-0.2,0.2-0.5,0.3-0.8,0.5c-0.7,0.5-1.3,0.9-1.9,1.4c-0.6,0.5-1.1,0.9-1.8,1.2c-0.6,0.3-1.1,0.6-1.6,1
			c-0.2,0.2-0.4,0.2-0.7,0s-0.6-0.3-0.8-0.5C33,95,32.4,94.6,31.8,94c-0.4-0.4-0.7-0.9-1.2-1.1c-0.1-0.1-0.3-0.2-0.4-0.3
			c-1.2-1-2.2-2.1-3.4-3c-1.1-0.9-2.1-2-3.1-3c-0.2-0.2-0.4-0.5-0.7-0.6c-1-0.6-1.9-1.5-2.7-2.3c-0.3-0.3-0.7-0.7-1.1-0.8
			c-0.8-0.7-1.6-1.4-2.3-2.1c-1.6-1.6-3.3-3.3-4.9-4.9c-0.8-0.8-1.6-1.6-2.5-2.2c-0.5-0.4-0.9-0.9-1.4-1.3c-0.6-0.5-1.1-1.2-1.9-1.5
			c-1.2-1-2.2-2.1-3-3.4c0-0.1,0-0.1,0-0.2s0.1-0.2,0.1-0.2c1.4-1.5,3-2.9,4.8-3.9c1-0.6,2-1.3,3-1.9c0.2-0.1,0.4-0.3,0.6-0.4
			c1.9-1,3.7-2.2,5.5-3.3c0.3-0.2,0.6-0.3,0.8-0.5c0.9-0.6,1.8-1.3,2.8-1.8c0.4-0.2,0.7-0.4,1-0.6c0.8-0.5,1.6-1,2.4-1.5
			c0.7-0.4,1.4-0.8,2-1.4c0.2-0.2,0.4-0.4,0.6-0.4c1-0.1,1.5-0.9,2.2-1.3c1.9-1.3,3.8-2.6,5.8-3.8c0.3-0.2,0.7-0.5,1-0.6
			c1-0.4,2-1,3-1.5C39.2,43.9,39.5,43.8,39.8,43.8z"/>
		<path fill="#A35652" d="M84.1,83.8c0,0.1,0,0.2,0,0.2c-1.4,0.9-2.3,2.2-3.7,3c-0.1,0.1-0.3,0.2-0.4,0.3c-1,1.1-2.3,1.9-3.5,2.8
			c-1.4,1.1-2.8,2-4.1,3.2c-1,1-2.3,1.8-3.4,2.6c-0.5,0.4-1.1,0.7-1.6,1.1c-1.3,0.8-2.5,1.7-3.7,2.7c-0.5,0.5-1.2,0.8-1.7,1.3
			s-1.2,0.8-1.7,1.2c-0.6,0.4-1.2,0.8-1.8,1.2c-1.4,1-2.8,1.9-4,3.1c-0.4,0.4-0.9,0.7-1.3,1c-0.6,0.5-1.2,1.1-1.8,1.6
			c-0.2,0.2-0.5,0.4-0.8,0.6c-0.2,0.1-0.5,0.1-0.7,0c-0.5-0.3-0.9-0.6-1.4-1c-0.6-0.5-1.2-1.1-1.8-1.6c-1.1-1-2.3-2-3.5-2.9
			c-0.8-0.6-1.6-1.3-2.4-2c-0.8-0.8-1.6-1.6-2.4-2.3c-0.5-0.5-1-1-1.6-1.4c-0.4-0.2-0.7-0.7-1-1c-0.1-0.1-0.1-0.4,0-0.4
			c0.6-0.4,1.2-0.8,1.8-1.2c1.4-1,2.8-1.8,4.1-2.9c0.2-0.2,0.5-0.3,0.8-0.5c0.9-0.6,1.8-1.2,2.7-2c0.6-0.6,1.3-1.1,2.1-1.6
			c2-1.2,4-2.5,6.1-3.7c1.4-0.8,2.7-1.7,4-2.6c1.1-0.8,2.3-1.5,3.2-2.5c0.2-0.2,0.5-0.3,0.8-0.5c1.4-1,2.8-2.1,4.2-3.1
			c0.3-0.2,0.7-0.4,1-0.6s0.7-0.3,1-0.6c1.1-1.1,2.6-1.6,3.8-2.5c0.3-0.2,0.9-0.2,1.1,0c1.2,0.9,2.3,1.7,3.3,2.8
			c1.6,1.6,3.2,3.2,4.8,4.7c0.6,0.6,1.2,1.3,2,1.7c0.6,0.4,1.1,1,1.4,1.6C84,83.5,84,83.7,84.1,83.8z"/>
		<path fill="#A35652" d="M84.7,87.3c-0.1,1.2,0.1,2.3-0.4,3.3c0,0.8-0.1,1.6-0.1,2.4c0,0.5,0,1,0,1.4c0.1,1.1-0.3,2-0.9,2.9
			c-0.2,0.3-0.4,0.7-0.8,0.9c-0.8,0.5-1.5,1.2-2.2,1.8c-0.7,0.7-1.4,1.5-2.4,2c-0.2,0.1-0.4,0.3-0.6,0.4c-1.2,1.3-2.7,2.2-4.1,3.3
			c-0.2,0.1-0.4,0.3-0.6,0.4c-0.7,0.7-1.5,1.2-2.3,1.7s-1.6,1.1-2.2,1.8c-0.3,0.3-0.6,0.5-1,0.7c-0.3,0.1-0.5,0.3-0.8,0.6
			c-1.1,1.1-2.3,1.9-3.6,2.7c-1.4,0.8-2.5,1.9-3.8,2.8c-1.4,1-2.7,2.2-4.3,3c-1.2,1.1-2.7,2-4.1,2.9c-0.4,0.3-0.8,0.5-1.3,0.7
			c-0.4,0.2-0.8,0-1-0.3c0-0.1-0.1-0.1-0.1-0.2c0-0.2,0-0.3,0-0.5c0.6-1.3,0.9-2.7,0.8-4.2c0-1.3,0.4-2.5,0.7-3.7
			c0.1-0.4,0.2-0.8,0.3-1.2c0-0.7,0.4-1.2,0.8-1.7c0.4-0.4,0.7-0.9,1.2-1.2c1-0.6,1.6-1.5,2.5-2.2c1.4-1.1,2.8-2.3,4.3-3.4
			c0.7-0.4,1.4-0.8,1.9-1.4c0.1-0.1,0.2-0.2,0.4-0.3c1.2-0.6,2.3-1.5,3.3-2.3c1.1-0.8,2.2-1.6,3.2-2.5c0.5-0.5,1.2-0.8,1.8-1.2
			c1.2-0.7,2.3-1.5,3.2-2.4c0.5-0.5,1.1-0.9,1.7-1.3c0.6-0.5,1.2-1,1.9-1.4c0.6-0.4,1-1,1.7-1.3c0.1-0.1,0.3-0.2,0.4-0.3
			c1-1,2.3-1.7,3.3-2.7c0.9-0.5,1.5-1.4,2.4-1.9c0,0,0.1,0,0.2,0s0.1,0.1,0.1,0.2C84.6,86.3,84.7,86.9,84.7,87.3z"/>
		<path fill="#EB594F" d="M1.6,75.5c0-1,0-2,0.1-3.1c0-0.2,0-0.3,0-0.5C2,71.1,2,70.2,2.2,69.3c0-0.1,0.2-0.2,0.3-0.3
			c0.2-0.1,0.3,0,0.4,0.1s0.2,0.2,0.3,0.3c1,1.1,2.1,2.2,3.4,3c0.9,0.6,1.6,1.4,2.3,2.1c0.7,0.6,1.4,1.3,2.1,1.9
			c0.8,0.6,1.5,1.4,2.2,2.2c1.4,1.4,2.8,2.8,4.3,4.2c0.5,0.4,0.9,0.9,1.5,1.2c0.3,0.1,0.5,0.4,0.7,0.6c0.8,0.9,1.7,1.7,2.7,2.3
			c0.1,0.1,0.3,0.2,0.4,0.3c0.6,1.2,1.8,1.7,2.7,2.7c0.8,0.9,1.8,1.6,2.7,2.3c0.8,0.6,1.5,1.4,2.3,2.1c0.5,0.4,0.9,0.9,1.5,1.2
			c0.4,0.2,0.7,0.7,1.1,1c0.6,0.5,0.8,1.1,0.7,1.9c-0.1,0.6-0.1,1.3-0.1,1.9c0,0.5,0,0.9-0.2,1.4c-0.1,0.3-0.1,0.6-0.1,0.9
			c-0.1,0.9,0,1.8-0.4,2.6c0,0.6-0.2,1.1-0.1,1.7c0.1,1.1-0.3,2-0.5,3c0,0.2-0.5,0.3-0.6,0.2c-0.2-0.2-0.5-0.4-0.7-0.6
			c-1.7-1.8-3.5-3.4-5.2-5.3c-1.5-1.6-3.2-3.1-4.7-4.7c-0.5-0.5-1.1-1-1.6-1.4c-0.4-0.4-0.9-0.7-1.2-1.1c-0.2-0.3-0.5-0.4-0.7-0.6
			c-1-0.7-1.9-1.5-2.5-2.5c-0.2-0.3-0.4-0.5-0.6-0.7c-1-0.9-1.9-2-3-2.7c-0.3-0.2-0.6-0.5-0.8-0.8c-0.7-1-1.5-1.8-2.4-2.7
			c-0.7-0.7-1.4-1.4-2-2c-0.2-0.2-0.4-0.5-0.7-0.7c-1.3-0.6-2-1.8-2.7-3c-1.4-1.6-1.4-2-1.4-3.9C1.6,76.8,1.6,76.2,1.6,75.5z
			 M8.8,78.5c0.3-1-0.3-1.9-1.1-2.6c-0.6-0.5-1.1-1.2-1.7-1.7c-0.4-0.3-0.9-0.4-1.4-0.3c-0.1,0-0.3,0.1-0.4,0.2
			c-0.2,0.2-0.4,0.5-0.5,0.8c-0.4,0.8-0.7,1.6-0.6,2.5c0,0.1,0,0.2,0,0.2c-0.1,0.8,0.2,1.4,0.5,2s0.8,1.2,1.2,1.8
			c0.1,0.2,0.3,0.3,0.6,0.4c0.4,0.2,0.9,0.3,1.4,0.4c0.1,0,0.3,0,0.5-0.1c1.1-0.5,1.5-1.4,1.6-2.5C8.8,79.4,8.8,79,8.8,78.5z"/>
		<path fill="#A35652" d="M33.7,109.4c0-0.6,0.1-1.3,0.1-1.9c0-0.4,0.1-0.8,0.2-1.2c0.1-0.1,0.1-0.3,0.1-0.5c0.1-1,0.2-1.9,0.4-2.8
			s0.1-1.9,0.2-2.9c0-0.3,0.2-0.6,0.5-0.8c0.1-0.1,0.5-0.2,0.7-0.1c0.1,0,0.1,0.1,0.2,0.1c1.5,1.5,3.3,2.8,4.8,4.4
			c0.3,0.4,0.7,0.7,1.1,1c0.6,0.5,1.3,0.9,1.9,1.5c0.5,0.5,1,1,1.7,1.3c1.1,1,2.2,2.1,3.3,3.1c0.2,0.2,0.3,0.6,0.3,0.9
			c0,0.2,0,0.3,0,0.5c-0.6,1.1-0.6,2.2-0.6,3.4c0,0.2,0,0.3-0.1,0.5c-0.3,0.5-0.4,1.1-0.3,1.6c0.1,1.1-0.4,2-0.5,3
			c-0.3,0.6-0.4,1.2-0.5,1.8c0,0.3-0.7,0.6-1,0.5c-0.4-0.2-0.7-0.3-1-0.6c-0.8-0.6-1.5-1.2-2.3-1.7c-1.3-1.3-2.8-2.3-4.1-3.7
			c-1-1-2.1-2-3.1-3c-0.2-0.2-0.4-0.5-0.7-0.6c-0.9-0.4-1.2-1.2-1.2-2.2C33.7,110.6,33.7,110,33.7,109.4L33.7,109.4z"/>
		<path fill="#FADFD7" d="M4.5,78.8c-0.2-0.9-0.2-1.9,0-2.8c0-0.3,0.2-0.4,0.4-0.6c0.3-0.2,0.7-0.1,0.9,0.1c0.7,0.8,1.3,1.6,1.9,2.4
			c0.1,0.1,0.1,0.3,0.1,0.4c0,0.4,0,0.8-0.1,1.2s-0.2,0.7-0.4,1.1c-0.1,0.3-0.7,0.5-1,0.3c-0.2-0.1-0.4-0.2-0.6-0.4
			C5.3,79.9,4.9,79.3,4.5,78.8z"/>
		<path fill="#FADFD7" d="M8.8,78.5c0,0.5,0,0.9,0,1.3c-0.2,1.1-0.6,2-1.6,2.5c-0.1,0.1-0.3,0.1-0.5,0.1c-0.5-0.1-0.9-0.3-1.4-0.4
			c-0.2-0.1-0.4-0.3-0.6-0.4c-0.4-0.6-0.8-1.2-1.2-1.8c-0.3-0.6-0.7-1.3-0.5-2c0-0.1,0-0.2,0-0.2c-0.1-0.9,0.2-1.7,0.6-2.5
			c0.1-0.3,0.3-0.6,0.5-0.8c0.1-0.1,0.3-0.2,0.4-0.2c0.5-0.1,0.9,0,1.4,0.3c0.6,0.5,1.2,1.1,1.7,1.7C8.5,76.6,9,77.4,8.8,78.5z
			 M4.5,78.8c0.4,0.6,0.8,1.2,1.2,1.8c0.1,0.2,0.4,0.3,0.6,0.4c0.3,0.2,0.9,0,1-0.3c0.1-0.4,0.2-0.8,0.4-1.1
			c0.1-0.4,0.1-0.8,0.1-1.2c0-0.2,0-0.3-0.1-0.4c-0.6-0.8-1.2-1.7-1.9-2.4c-0.2-0.2-0.6-0.2-0.9-0.1c-0.2,0.1-0.3,0.3-0.4,0.6
			C4.4,76.9,4.4,77.8,4.5,78.8z"/>
		<g>
			<path fill="#FADFD7" d="M51.2,68.2c0.1,0.2,0.2,0.3,0.3,0.4c0.5,0.1,0.9,0.3,1.4,0.2c0.3,0,0.5,0,0.8,0.1c0.1,0,0.2,0,0.2,0.1
				c0.3,0.2,0.6,0.5,0.8,0.8c0.2,0.4,0.4,0.8,0.5,1.2s0.3,0.7,0.5,1c0.1,0.2,0.3,0.4,0.4,0.7c0.1,0.2,0.2,0.4,0.2,0.6s0,0.3,0,0.5
				c0,0.3-0.1,0.6-0.3,0.8c-0.5,0.8-1.2,1.5-1.8,2.1c-0.2,0.2-0.4,0.3-0.7,0.4c-0.2,0.1-0.5,0.2-0.7,0.2s-0.4,0-0.6,0
				c-0.9,0-1.8,0-2.7,0c-0.3,0-0.5,0-0.7-0.2c-0.3-0.1-0.6-0.2-0.8-0.4c-0.3-0.1-0.5-0.3-0.8-0.4s-0.6-0.1-0.9-0.2s-0.5-0.1-0.8,0
				c-0.2,0.1-0.3,0.1-0.5,0.1c-0.4,0-0.7,0.2-1.1,0.3c-0.3,0.1-0.7,0-1,0.1c-0.6,0.2-1.3,0.2-1.9,0.2c-0.4,0-0.7,0.1-1,0.3
				c-0.8,0.7-1.8,1.2-2.4,2.2c-0.1,0.2-0.3,0.4-0.5,0.6c-0.4,0.2-0.7,0.6-1,0.8c-0.3,0.3-0.7,0.5-1.1,0.7c-0.5,0.3-0.9,0.7-1.3,1
				c-0.4,0.3-0.9,0.6-1.2,0.9c-0.4,0.3-0.8,0.5-1.3,0.6c-0.3,0-0.6,0.2-0.9,0.2c-0.3,0-0.7,0-1,0c-0.6,0-1.1-0.2-1.6-0.4
				c-0.2-0.1-0.4-0.3-0.7-0.4c-0.4-0.2-0.6-0.4-0.9-0.8c-0.4-0.6-0.5-0.8-0.8-1.6c0-0.4-0.3-0.6-0.3-1c0-0.3-0.2-0.6-0.2-0.9
				c0-0.4-0.3-0.7-0.6-0.9c-0.4-0.2-0.8-0.6-1.1-0.9s-0.4-0.6-0.6-1c-0.3-0.7-0.4-1.4-0.3-2.1c0-0.4,0.2-0.8,0.5-1
				c0.6-0.4,1.1-0.9,1.6-1.3c0.2-0.2,0.4-0.3,0.7-0.4s0.5-0.3,0.7-0.6c0.2-0.3,0.2-0.6,0.3-1c0,0,0-0.1-0.1-0.1
				c-0.2-0.4-0.6-0.5-1-0.5c-0.3,0-0.5,0.2-0.7,0.2c-0.5,0-1,0.1-1.5,0c-0.4,0-0.8-0.2-1.1-0.6c-0.1-0.1-0.2-0.3-0.3-0.4
				c-0.2-0.3-0.5-0.4-0.9-0.5c-0.3,0-0.5,0-0.8,0c-0.2,0-0.4-0.1-0.6-0.3c-0.4-0.4-0.6-0.9-0.7-1.5c-0.1-0.8,0.2-1.4,0.7-2
				c0.3-0.4,0.7-0.6,1.1-0.8c0.3-0.1,0.5-0.1,0.8-0.1c0.4,0.2,0.8,0.2,1.2,0.4c0.3,0.2,0.6,0.3,1,0.4c0.5,0.3,1.1,0.2,1.6,0.1
				C25,64,25.2,64,25.5,64c0.7,0,1.5,0,2.2,0c0.2,0,0.3,0.1,0.5,0.2s0.4,0.2,0.6,0.2c0.6,0,1.1,0,1.7-0.1c0.2,0,0.3,0,0.5-0.1
				c0.4-0.2,0.8-0.1,1.3,0c0.2,0,0.3,0.1,0.5,0.1c0.6,0.1,1.1-0.1,1.5-0.5c0.3-0.3,0.6-0.5,0.8-0.9c0.4-0.6,1-0.9,1.6-1.3
				c0.1-0.1,0.2-0.1,0.4-0.1c0.5,0,0.8-0.2,1.1-0.5c0.2-0.1,0.3-0.2,0.5-0.4c0.3-0.2,0.7-0.4,1-0.7c0.1-0.1,0.3-0.2,0.4-0.3
				c0.9-0.4,1.6-1,2.4-1.5c0.5-0.3,1.1-0.7,1.6-1.1c0.3-0.2,0.6-0.3,1-0.3s0.8,0,1.2,0c0.1,0,0.3,0,0.4-0.1c0.3-0.3,0.8-0.5,1.1-0.9
				c0.2-0.2,0.4-0.3,0.6-0.4c0.2-0.1,0.5-0.2,0.7-0.1c0.1,0.1,0.2,0.1,0.4,0.1c0.5,0.1,0.8,0.4,1.1,0.8c0,0.5,0,0.8,0,1.1
				c-0.1,0.4-0.3,0.7-0.5,1c-0.1,0.1-0.2,0.2-0.3,0.3c-0.2,0.2-0.4,0.4-0.7,0.6c-0.1,0.1-0.1,0.4,0,0.5c0.2,0.2,0.5,0.3,0.7,0.5
				s0.4,0.4,0.4,0.6s0.2,0.4,0.2,0.6c0.1,0.3,0.2,0.5,0.3,0.7c0.3,0.4,0.5,0.9,0.5,1.4c0,0.3,0.1,0.5,0.3,0.7
				c0.1,0.1,0.2,0.2,0.3,0.3c0.1,0.1,0.2,0.2,0.2,0.3c0.1,0.6,0.1,1.1,0,1.7c0,0.2-0.1,0.3-0.2,0.5C51.8,67.3,51.5,67.7,51.2,68.2z
				 M47.1,72c0.1-0.1,0.2-0.2,0.2-0.3c0.1-0.1,0.1-0.1,0.2-0.2c0-0.1,0-0.2,0-0.2c0-0.1-0.2-0.2-0.3-0.2s-0.2,0-0.2,0.1
				c-0.2,0.2-0.5,0.4-0.7,0.6c-0.3,0.3-0.7,0.6-1.1,0.9c-0.3,0.2-0.5,0.3-0.7,0.5c-0.3,0.2-0.5,0.5-0.7,0.7s-0.3,0.3-0.4,0.5
				l-0.1,0.1c0,0.1,0,0.2,0.1,0.2c0,0.1,0.1,0.1,0.2,0.1c0.5-0.1,0.8-0.5,1.2-0.8c0.1-0.1,0.3-0.2,0.5-0.2c0.5,0,0.9,0,1.4,0
				c0.1,0,0.2,0.1,0.2,0.1C47,74,47,74.1,47,74.1c0.2,0.3,0.4,0.4,0.7,0.4h0.1c0.8-0.1,0.7,0,1.1,0.6c0.1,0.1,0.2,0.3,0.3,0.4
				s0.2,0.2,0.3,0.3c0.2,0.1,0.5,0.2,0.7,0.4c0.3,0.2,0.7,0.2,1.1,0.4c0.6,0.1,1.2-0.1,1.7-0.3c0,0,0.1,0,0.1-0.1
				c0.5-0.4,0.9-0.9,1.4-1.4c0.2-0.2,0.2-0.4,0.4-0.7c0-0.1,0.1-0.2,0-0.2c-0.2-0.3-0.3-0.7-0.5-1c-0.1-0.2-0.4-0.3-0.6-0.5
				c-0.1,0-0.1-0.1-0.2-0.2s-0.1-0.1-0.1-0.2c0-0.3,0-0.7,0-1c0-0.2,0-0.4-0.1-0.6c0-0.1-0.1-0.2-0.2-0.2c-0.2-0.1-0.5-0.1-0.7,0
				s-0.3,0.3-0.5,0.4c-0.1,0-0.2,0-0.2,0c-0.1-0.1-0.3-0.2-0.3-0.4c-0.2-0.3-0.4-0.4-0.7-0.5c-0.1,0-0.2,0-0.2,0
				c-0.2,0.2-0.4,0.5-0.4,0.8c0,0.2,0,0.3,0,0.5s-0.1,0.3-0.3,0.4s-0.3,0.3-0.3,0.5c0,0.3,0.2,0.5,0.3,0.8c0,0.1,0,0.3-0.1,0.4
				s-0.3,0.1-0.5,0.1c-0.1,0-0.2-0.2-0.2-0.3c0-0.7-0.1-0.8-0.8-0.8c-0.2,0-0.4,0-0.6,0C47.2,72.1,47.1,72.1,47.1,72z M43.2,71.4
				c0.2,0.1,0.4,0.1,0.5,0.2c0.1,0,0.3-0.3,0.3-0.3c-0.1-0.2-0.1-0.3-0.2-0.5c-0.6-0.6-1.2-1.2-1.9-1.7c-0.4-0.2-0.8-0.3-1.2-0.3
				s-0.9,0.5-0.9,1c0,0.4,0.2,0.7,0.2,1c0,0.4,0.1,0.8,0.2,1.1c0.1,0.1,0,0.3,0,0.5c0,0.1-0.1,0.2-0.1,0.2c-0.2,0.1-0.5,0.2-0.7,0.3
				S39,72.7,39,72.5c0-0.1,0.1-0.3,0.1-0.4c0.1-0.2,0.1-0.5,0-0.7S39,71.1,39,70.9c-0.1-0.4-0.3-0.6-0.6-0.8c-0.1,0-0.2-0.1-0.2,0
				c-0.4,0.1-0.7,0.3-1,0.5c-0.1,0.1-0.2,0.2-0.3,0.3c-0.2,0.4-0.5,0.8-0.3,1.3c0.1,0.2,0.1,0.4,0.1,0.6c0.1,0.6,0.3,1.2,0.6,1.8
				c0.1,0.2,0.3,0.4,0.6,0.5c0.1,0,0.2,0,0.2,0c0.2-0.1,0.4-0.4,0.3-0.6c0-0.1-0.1-0.2-0.1-0.2c-0.1-0.2,0.1-0.5,0.4-0.4
				c0.2,0.1,0.3,0.1,0.5,0.2c0.3,0.1,0.6,0.1,0.9,0c0.3-0.1,0.5-0.3,0.8-0.4c0.4,0,0.6-0.3,0.7-0.6c0.1-0.2,0.2-0.5,0.3-0.7
				c0.1-0.3,0.3-0.6,0.6-0.8c0.1-0.1,0.2-0.1,0.3-0.2C42.9,71.4,43,71.4,43.2,71.4z M45.1,62C45,62,45,62,45.1,62
				c-0.2-0.2-0.2-0.4-0.1-0.5c0.2-0.2,0.5-0.2,0.6-0.5c0-0.1,0-0.2,0-0.2c0-0.1-0.1-0.1-0.2-0.1s-0.2,0-0.2,0
				c-0.2,0.1-0.3,0.1-0.5,0.2c-0.1,0-0.2,0-0.2-0.1s-0.1-0.2,0-0.2c0.3-0.3,0.5-0.6,0.8-0.8c0.1-0.1,0.2-0.1,0.3-0.1
				c0.2,0,0.4,0,0.6,0c0.3,0,0.5,0.1,0.7,0.2c0,0,0.1,0,0.1,0.1c0.1,0.1,0.1,0.1,0.1,0.2c0,0.1,0,0.2-0.1,0.2
				c-0.2,0.1-0.5,0.1-0.7,0.3c-0.1,0.1-0.1,0.1-0.1,0.2c0.1,0.2,0.3,0.3,0.4,0.4c0.1,0,0.2,0.1,0.2,0.1c0.1,0,0.2-0.1,0.4-0.1
				c0.4-0.1,0.6-0.4,0.7-0.7c0-0.2,0.1-0.3,0.2-0.5c0-0.1-0.1-0.2-0.1-0.2c-0.1-0.4-0.3-0.6-0.7-0.7c-0.3-0.1-0.6-0.1-0.8-0.3
				c-0.1,0-0.1-0.1-0.1-0.2c0.1-0.2,0.3-0.2,0.4-0.3s0.1-0.3,0-0.4c-0.1-0.1-0.2-0.2-0.3-0.3c-0.7-0.3-1.2,0.2-1.4,0.7
				c0,0.1,0,0.3,0,0.4c0,0.2-0.1,0.3-0.3,0.4c-0.6,0.1-1,0.4-1.4,0.8c-0.1,0.1-0.2,0.2-0.3,0.3c-0.2,0.2-0.4,0.4-0.6,0.4
				c-0.2,0.1-0.4,0.2-0.6,0.2c-1.1,0.4-0.9,0.2-1.6,1c-0.1,0.1-0.2,0.2-0.3,0.3c0,0,0,0.1-0.1,0.1c-0.1,0.1,0,0.3,0,0.4
				c0.2,0.3,0.3,0.3,0.7,0.2c0,0,0.1,0,0.1-0.1c0.2-0.1,0.3,0,0.4,0.1c0.1,0.3,0.2,0.6,0.2,0.9c0,0.4,0.2,0.7,0.4,1.1
				c0,0.1,0.1,0.1,0.2,0.1c0.3,0.1,0.7-0.1,0.7-0.4c0.1-0.4,0.1-0.9,0-1.3c-0.3-0.3-0.1-0.8-0.3-1.1c-0.1-0.3,0-0.4,0.2-0.5
				c0.1-0.1,0.1-0.1,0.2-0.2c0,0,0.1,0,0.1-0.1c0.1,0,0.3,0,0.3,0.1c0.2,0.5,0.5,0.9,0.7,1.4c0.1,0.1,0.2,0.2,0.3,0.2
				c0.3,0.1,0.6,0.1,0.9,0s0.6-0.3,0.9-0.6c0.2-0.2,0.2-0.6-0.1-0.8c-0.1-0.1-0.2-0.1-0.2-0.1C45.5,61.8,45.3,61.9,45.1,62z
				 M45.3,65.6c0.1,0.6,0.3,1.1,0.6,1.6c0.2,0.3,0.3,0.6,0.4,0.9c0.1,0.2,0.3,0.4,0.6,0.5c0.3,0,0.5,0,0.8,0c0.1,0,0.3-0.1,0.4-0.1
				c0.3-0.2,0.5-0.4,0.7-0.6c0.1-0.1,0.1-0.2,0-0.4c0-0.1-0.1-0.2-0.1-0.2c-0.1-0.2-0.3-0.2-0.4-0.1c0,0-0.1,0-0.1,0.1
				c-0.1,0.1-0.1,0.1-0.2,0.2s-0.2,0.1-0.2,0s-0.1-0.2-0.1-0.2c0.2-0.3,0.4-0.7,0.5-1c0-0.1-0.1-0.4-0.3-0.4c-0.1,0-0.3,0-0.4,0
				c-0.2,0-0.3,0.1-0.5,0.2c-0.1,0-0.3,0-0.3-0.1c-0.1-0.1-0.1-0.3,0-0.3l0.1-0.1c0.2-0.1,0.4-0.3,0.6-0.4c0.1-0.1,0.2-0.1,0.4,0
				s0.5,0.2,0.7,0.2s0.4,0,0.6,0s0.3,0.2,0.2,0.4c-0.1,0.2-0.2,0.3-0.3,0.4s0,0.4,0.1,0.5c0.3,0.3,0.7,0.3,1,0
				c0.3-0.2,0.5-0.5,0.4-0.9v-0.1c0-0.6-0.3-1.1-0.9-1.2c-0.2-0.1-0.5-0.1-0.7-0.1l-0.1-0.1c0-0.1,0-0.2,0-0.2
				c0.1-0.1,0.2-0.1,0.3-0.2c0.1-0.1,0.1-0.3,0.1-0.5c-0.1-0.1-0.3-0.2-0.4-0.2c-0.5,0.1-1,0.4-1.2,0.8c-0.1,0.1-0.1,0.2-0.2,0.3
				c-0.1,0.2-0.3,0.3-0.5,0.3c-0.1,0-0.3,0-0.4,0s-0.2,0-0.2,0.1C45.9,64.8,45.5,65.1,45.3,65.6z M19.3,65.8c0,0.2,0,0.3,0,0.4
				c0,0.2,0.1,0.4,0.3,0.5c0.4,0.3,0.9,0.6,1.4,0.6c0.2,0.1,0.5,0.2,0.7,0.2c0.3,0,0.6,0.2,0.7,0.5c0.1,0.2,0.2,0.4,0.3,0.5
				c0.1,0.2,0.3,0.3,0.6,0.3c0.2,0,0.4,0,0.5-0.1c0.3-0.1,0.5-0.1,0.8-0.1c0.1,0,0.3,0,0.4,0c0.2,0,0.3-0.1,0.4-0.3
				c0.2-0.2,0.3-0.5,0.4-0.8c0.1-0.4,0.3-0.6,0.6-0.7c0.1,0,0.1-0.1,0.2-0.2c0.2-0.1,0.2-0.4,0.1-0.6c-0.1-0.3-0.3-0.5-0.6-0.6
				c-0.2-0.1-0.4-0.2-0.6-0.2c-0.6-0.1-1.2,0.1-1.8-0.2c-0.1,0-0.2,0-0.3,0c-0.7,0-1.4-0.1-2.1-0.1c-0.4,0-0.8,0-1.2,0
				c-0.3,0-0.6,0.2-0.8,0.3c-0.1,0-0.1,0.1-0.1,0.2C19.3,65.6,19.3,65.7,19.3,65.8z M25.1,72.9c-0.1,0-0.2,0-0.3,0
				c-0.3,0-0.5,0.1-0.7,0.3c-0.1,0.2-0.3,0.3-0.4,0.5c-0.1,0.1-0.2,0.3-0.2,0.5c0,0.3,0,0.7,0,1c0,0.4,0.2,0.8,0.3,1.2
				c0,0.1,0.1,0.2,0.1,0.2c0.3,0.3,0.5,0.6,0.8,0.8c0.2,0.2,0.5,0.3,0.8,0.4c0.1,0,0.3,0,0.4,0c0.2-0.1,0.5-0.2,0.7-0.4
				c0.5-0.4,0.7-0.9,0.7-1.4c0-0.7-0.3-1.2-0.8-1.7c-0.1-0.1-0.3-0.1-0.5-0.1c-0.3,0.1-0.6,0.4-0.7,0.7c-0.1,0.1,0,0.4,0.1,0.6
				c0.1,0.1,0.3,0.2,0.5,0.1c0.1,0,0.2-0.1,0.2-0.1c0.1,0,0.2,0.1,0.3,0.2c0,0.2-0.1,0.4-0.2,0.6c-0.3,0.2-0.6,0.2-0.8,0.1
				c-0.6-0.5-0.8-1.2-0.7-1.9c0-0.2,0.1-0.3,0.3-0.4c0.1-0.1,0.3-0.1,0.5-0.2s0.3-0.3,0.2-0.6c0-0.1-0.1-0.3-0.2-0.3
				C25.2,72.9,25.1,72.9,25.1,72.9z M29.9,77.7c0,0.9,0.3,1.6,0.6,2.3c0.1,0.2,0.3,0.3,0.4,0.5c0.3,0.3,0.7,0.2,0.8-0.2
				c0.1-0.2,0.1-0.4,0-0.6s-0.1-0.3-0.1-0.5c0-0.1,0-0.3,0.1-0.4s0.2-0.3,0.3-0.4c0.1-0.1,0.2-0.1,0.3,0c0.2,0.2,0.2,0.5,0.5,0.7
				c0.1,0.1,0.3,0.1,0.5,0c0.3-0.2,0.4-0.4,0.3-0.6c-0.1-0.4-0.3-0.7-0.3-1.1v-0.1c-0.2-0.5-0.4-1-0.6-1.4c-0.1-0.1-0.2-0.2-0.4-0.2
				c-0.1,0-0.3,0-0.4,0c-0.2,0-0.3,0.2-0.3,0.3c0,0.3,0,0.5,0.1,0.7s0.1,0.3,0.1,0.5c-0.1,0.2-0.2,0.4-0.4,0.4c-0.1,0-0.2,0-0.2,0
				c-0.2-0.1-0.3-0.3-0.5-0.4c-0.1-0.1-0.2-0.2-0.3-0.2c-0.2-0.1-0.6,0-0.6,0.3C29.9,77.5,29.9,77.7,29.9,77.7z M36.8,67.6
				C36.9,67.6,36.9,67.6,36.8,67.6c0.2,0.2,0.3,0.4,0.4,0.5s0.2,0.2,0.3,0.2c0.3,0.2,0.8-0.1,0.8-0.4v-0.1c-0.1-0.3-0.3-0.6-0.4-0.9
				c-0.1-0.3-0.2-0.6-0.3-0.8c-0.2-0.3-0.2-0.7-0.3-1c0-0.1-0.2-0.2-0.3-0.3s-0.3,0-0.4,0c-0.2,0.1-0.3,0.3-0.3,0.5
				c0,0.3,0,0.5,0,0.8c0,0.2-0.1,0.4-0.3,0.5c-0.1,0.1-0.3,0.1-0.5,0c-0.2-0.2-0.4-0.5-0.7-0.6c-0.1,0-0.3,0-0.3,0.1
				c-0.2,0.3-0.3,0.5-0.1,0.8c0,0.8,0.4,1.5,0.6,2.2c0,0.1,0.2,0.3,0.3,0.4s0.4,0.1,0.6,0c0.2-0.1,0.3-0.4,0.2-0.6
				c0-0.1-0.1-0.2-0.2-0.3c-0.1-0.2,0-0.3,0.1-0.5C36.4,67.9,36.6,67.7,36.8,67.6z M36.2,76.3c0.1,0,0.2,0.1,0.3,0.1
				c0.2,0.1,0.3,0,0.5-0.1c0.2-0.2,0.3-0.6,0.1-0.8c-0.4-0.4-0.7-0.9-1.1-1.3c-0.1-0.1-0.2-0.2-0.4-0.4c-0.1-0.1-0.3-0.2-0.5-0.2
				s-0.3,0-0.5,0c-0.3,0-0.6,0.2-0.7,0.4c-0.1,0.2-0.3,0.4-0.3,0.7c0,0.3-0.1,0.6,0.1,0.9c0.2,0.3,0.1,0.7,0.2,1
				c0.2,0.4,0.2,0.7,0.2,1.1c0,0.1,0.1,0.2,0.1,0.2c0,0.1,0.2,0.2,0.3,0.2s0.2-0.1,0.2-0.2c0.1-0.2,0.3-0.4,0.4-0.7
				c0.1-0.3,0.2-0.5,0.4-0.6C35.7,76.6,36,76.5,36.2,76.3z M26.9,72.7c0,0.7,0.2,1.3,0.6,1.9c0.1,0.1,0.2,0.2,0.3,0.3
				c0.3,0.1,0.5,0.3,0.8,0.3c0.2,0,0.3,0,0.5,0c0.2-0.1,0.5-0.2,0.7-0.4c0.3-0.2,0.5-0.5,0.6-0.8c0.1-0.2-0.1-0.4-0.1-0.6
				c0-0.5-0.2-0.9-0.5-1.3c-0.1-0.2-0.2-0.3-0.4-0.5c-0.1-0.2-0.3-0.2-0.4-0.3c-0.6-0.3-1.1-0.1-1.7,0.3l-0.1,0.1
				C27.1,72,26.8,72.3,26.9,72.7z M45.9,68.8c0.1-0.4-0.1-0.8-0.2-1.2c-0.1-0.3-0.2-0.5-0.4-0.6c-0.2-0.2-0.4-0.3-0.7-0.4
				C44,66.3,43.4,66.4,43,67c-0.1,0.1-0.2,0.3-0.2,0.5s0,0.4,0.1,0.6c0.1,0.4,0.3,0.7,0.4,1.1c0.1,0.2,0.1,0.3,0.2,0.5
				c0.2,0.3,0.5,0.6,0.7,0.9c0.1,0.1,0.1,0.1,0.2,0.1c0.3,0.1,0.6,0,0.8-0.2C45.7,69.9,46,69.5,45.9,68.8z M33.1,71.1
				c0-0.2,0-0.4,0-0.5c0-0.4-0.2-0.7-0.5-1c-0.1-0.1-0.3-0.2-0.4-0.3c-0.4-0.3-0.8-0.2-1.2-0.2c-0.3,0.2-0.6,0.2-0.8,0.5
				c-0.1,0.1-0.2,0.2-0.2,0.3c0.2,0.5,0.2,0.9,0.2,1.4c0,0.2,0,0.3,0.1,0.5c0.2,0.4,0.3,0.8,0.6,1.1c0.1,0.1,0.2,0.2,0.3,0.2
				c0.3,0.1,0.6,0.1,0.9,0c0.3-0.1,0.5-0.3,0.7-0.6c0.1-0.3,0.3-0.5,0.3-0.8C33,71.5,33.1,71.2,33.1,71.1z M28.9,82.5
				c0.4,0.1,0.8-0.2,1.2-0.6c0.1-0.1,0.1-0.1,0.2-0.2c0.2-0.3,0.2-0.5,0.1-0.8c0-0.1-0.2-0.2-0.3-0.2c-0.2,0.1-0.5,0.2-0.7,0.4
				c-0.2,0.1-0.5,0.2-0.7,0.1c-0.1,0-0.2-0.1-0.2-0.1c-0.1-0.3-0.3-0.5-0.3-0.8s0.2-0.5,0.4-0.6c0.2,0,0.4,0,0.6-0.1
				c0.1,0,0.1-0.1,0.2-0.2c0-0.1,0.1-0.3,0-0.4c0-0.2-0.1-0.3-0.3-0.4c-0.3-0.1-0.6-0.2-0.9-0.2c-0.1,0-0.3,0-0.4,0.1
				c-0.3,0.2-0.6,0.4-0.7,0.7c-0.2,0.4-0.4,0.8-0.4,1.2c0,0.2,0,0.4,0.1,0.6c0.2,0.6,0.5,1,1,1.3c0.1,0.1,0.2,0.1,0.4,0.1
				C28.4,82.5,28.6,82.5,28.9,82.5z M38.2,64.5c0,0.5,0,0.9,0,1.2c0.2,0.5,0.3,1,0.5,1.4c0.1,0.1,0.2,0.3,0.4,0.3c0.1,0,0.3,0,0.4,0
				c0.1-0.1,0.2-0.2,0.2-0.3c0-0.2-0.1-0.4-0.1-0.6c0-0.1,0-0.2,0.1-0.2c0,0,0-0.1,0.1-0.1c0.4-0.3,0.7-0.6,1.3-0.5h0.1
				c0.1,0,0.2-0.2,0.2-0.3c0-0.3,0-0.5-0.2-0.7c-0.4-0.5-0.9-1-1.4-1.4c-0.1-0.1-0.3-0.2-0.5-0.2s-0.3,0-0.5,0c-0.1,0-0.2,0-0.2,0.1
				c-0.2,0.2-0.3,0.5-0.4,0.8C38.2,64.3,38.2,64.5,38.2,64.5z M29,65.7c-0.3,0-0.8,0.3-1.3,0.3c0,0-0.1,0-0.1,0.1
				c-0.1,0.1-0.2,0.2-0.3,0.3c0,0.1,0,0.3,0.1,0.3c0.2,0,0.3,0.1,0.5,0.1c0.2,0.1,0.4,0.2,0.5,0.4c0.1,0.2,0.2,0.4,0.2,0.6
				c0,0.3-0.3,0.4-0.5,0.6c-0.1,0.1-0.2,0.2-0.2,0.3s0,0.2,0,0.2c0,0.1,0.1,0.1,0.2,0.1c0.4-0.2,0.8-0.5,1.2-0.7
				c0.1-0.1,0.2-0.1,0.3-0.2c0.5-0.4,1-0.8,1.5-1.2c0.2-0.1,0.3-0.3,0.5-0.4c0.1-0.1,0.1-0.1,0.2-0.2c0.1-0.1,0.1-0.2,0-0.2
				c-0.1-0.1-0.2-0.2-0.3-0.2c0,0-0.1,0-0.1,0.1c-0.3,0.1-0.6,0.3-0.9,0.6c-0.3,0.2-0.5,0.1-0.7-0.2c0,0,0-0.1-0.1-0.1
				C29.7,65.8,29.5,65.7,29,65.7z M48.4,57.6L48.4,57.6c0.3-0.1,0.5-0.2,0.7-0.3s0.3-0.3,0.3-0.5s-0.1-0.3-0.3-0.3s-0.4,0-0.6,0.2
				c-0.1,0.1-0.2,0.2-0.2,0.3C48.1,57.2,48.1,57.4,48.4,57.6C48.3,57.6,48.3,57.6,48.4,57.6z"/>
			<path fill="#FADFD7" d="M50.8,73.8c0-0.2-0.1-0.3-0.2-0.5c0-0.1,0-0.2,0-0.2c0.3-0.2,0.6-0.5,0.9-0.7c0.1-0.1,0.4-0.1,0.5,0
				c0.4,0.1,0.7,0.2,1,0.5c0.4,0.4,0.5,0.5,0,0.9c-0.3,0.3-1.6,1.2-2.1,1.4c-0.1,0.1-0.2,0.1-0.3,0.2c-0.1,0-0.2,0-0.3,0
				c-0.5-0.1-0.9-0.3-1.2-0.7c-0.1-0.1,0-0.4,0.1-0.4s0.2-0.1,0.4-0.1c0.3,0,0.5,0,0.8-0.1C50.6,74.1,50.7,74,50.8,73.8z"/>
			<path fill="#FADFD7" d="M52.9,75L52.9,75c-0.2,0.4-0.4,0.5-0.6,0.7c-0.1,0.1-0.3,0.1-0.5,0c0,0-0.1,0-0.1-0.1v-0.1
				C52,75.2,52.4,75,52.9,75C52.8,75,52.9,75,52.9,75L52.9,75z"/>
			<path fill="#FADFD7" d="M52.9,75L52.9,75c0.2-0.4,0.5-0.7,0.8-0.9c0.1,0,0.1,0,0.2,0.1v0.1c-0.2,0.3-0.4,0.5-0.7,0.7
				C53.1,75,53,75,52.9,75L52.9,75z"/>
			<path fill="#FADFD7" d="M37.8,72.6c-0.1-0.1-0.2-0.2-0.3-0.3c-0.1-0.1-0.1-0.2,0-0.4c0.1-0.2,0.2-0.4,0.4-0.5H38
				c0.1,0,0.1,0.1,0.1,0.2C38.2,72,38.2,72.4,37.8,72.6z"/>
			<path fill="#FADFD7" d="M41.4,71.3c-0.3-0.2-0.4-0.4-0.4-0.8c0-0.1,0.2-0.3,0.4-0.2s0.3,0.2,0.3,0.4c0,0.1,0.1,0.3,0,0.4
				S41.5,71.2,41.4,71.3z"/>
			<path fill="#FADFD7" d="M21.8,65.5c0.3,0,0.7,0,1,0c0.1,0,0.3,0,0.4,0c0.7,0.2,1.3,0.2,2,0.2c0.2,0,0.3,0.1,0.5,0.2
				c0,0,0,0.1,0.1,0.1c0,0.1,0,0.2-0.1,0.2c-0.4,0-0.9,0-1.3,0c-0.4,0-0.8,0-1.2,0c-0.1,0-0.1,0.1-0.2,0.2c0,0.1,0,0.2,0.1,0.2
				c0.2,0.1,0.3,0.1,0.5,0.2c0.1,0.1,0.2,0.1,0.3,0.2v0.1l-0.1,0.1c-0.4,0.1-0.8,0.1-1.1-0.1c-0.5-0.2-1-0.4-1.6-0.4
				c-0.1,0-0.3-0.1-0.4-0.1c-0.3-0.1-0.5-0.3-0.7-0.6c-0.1-0.1-0.1-0.3,0-0.3c0.1-0.1,0.3-0.2,0.4-0.2
				C20.9,65.5,21.3,65.5,21.8,65.5L21.8,65.5z"/>
			<path fill="#FADFD7" d="M25.3,67.3c0,0.1,0,0.2,0,0.2c0,0.1-0.2,0.2-0.3,0.2s-0.1-0.1-0.2-0.2c0-0.1,0-0.2,0-0.4
				c0-0.1,0.1-0.1,0.2-0.2c0.1,0,0.3,0.1,0.3,0.2S25.3,67.3,25.3,67.3z"/>
			<path fill="#FADFD7" d="M23.7,68.1c-0.1,0.1-0.2,0.2-0.3,0.2s-0.2-0.2-0.1-0.3c0-0.1,0.2-0.1,0.3-0.1S23.7,68,23.7,68.1z"/>
			<path fill="#FADFD7" d="M35,75.1c0.1,0.1,0.3,0.3,0.4,0.4c0.1,0.1,0.1,0.3-0.1,0.4c-0.2,0.2-0.4,0.2-0.5,0
				c-0.1-0.1-0.1-0.1-0.1-0.2c-0.1-0.2-0.1-0.3,0.1-0.5C34.8,75.1,34.9,75.1,35,75.1z"/>
			<path fill="#FADFD7" d="M28.4,72.4c0.1,0,0.2,0.1,0.3,0.2c0.3,0.3,0.4,0.6,0.5,1c0,0.1,0,0.3,0,0.4s-0.1,0.2-0.2,0.3
				c-0.3,0.1-0.6,0-0.7-0.2c-0.1-0.3-0.3-0.5-0.4-0.8c-0.1-0.2,0.1-0.6,0.3-0.8C28.3,72.4,28.3,72.4,28.4,72.4z"/>
			<path fill="#FADFD7" d="M44.9,68.4c0,0.1,0,0.2-0.1,0.3c0,0.1-0.2,0.2-0.3,0.1c-0.4-0.3-0.5-0.6-0.3-1.1c0-0.1,0.1-0.1,0.2-0.1
				h0.1c0.2,0.1,0.3,0.2,0.4,0.5C44.9,68.1,44.9,68.2,44.9,68.4z"/>
			<path fill="#FADFD7" d="M31.3,70.2c0.1,0,0.2,0.1,0.3,0.1c0.3,0.2,0.5,0.5,0.5,0.8c0,0.2-0.1,0.5-0.3,0.7c-0.1,0.1-0.3,0.1-0.3,0
				c-0.1-0.1-0.2-0.2-0.2-0.3C31.2,71.1,31.1,70.7,31.3,70.2L31.3,70.2z"/>
			<path fill="#FADFD7" d="M39.7,64.9c0,0.2-0.2,0.4-0.4,0.4l-0.1-0.1c-0.1-0.2-0.1-0.3,0-0.5c0-0.1,0.1-0.1,0.2-0.1
				C39.7,64.7,39.7,64.8,39.7,64.9z"/>
			<path fill="#EB594F" d="M47.1,72c0.1,0,0.1,0.1,0.2,0.1c0.2,0,0.4,0,0.6,0c0.7,0,0.8,0.1,0.8,0.8c0,0.1,0.1,0.3,0.2,0.3
				c0.2,0,0.3,0,0.5-0.1c0.1-0.1,0.1-0.2,0.1-0.4c0-0.3-0.3-0.5-0.3-0.8c0-0.2,0-0.4,0.3-0.5c0.2-0.1,0.2-0.2,0.3-0.4
				c0-0.2,0-0.3,0-0.5c0-0.3,0.2-0.6,0.4-0.8c0,0,0.2-0.1,0.2,0c0.3,0.1,0.5,0.2,0.7,0.5c0.1,0.1,0.2,0.3,0.3,0.4
				c0.1,0,0.2,0.1,0.2,0c0.2-0.1,0.3-0.3,0.5-0.4s0.5-0.1,0.7,0c0.1,0,0.1,0.1,0.2,0.2c0,0.2,0.1,0.4,0.1,0.6c0,0.3,0,0.7,0,1
				c0,0.1,0.1,0.2,0.1,0.2c0.1,0.1,0.1,0.1,0.2,0.2c0.2,0.2,0.5,0.3,0.6,0.5c0.2,0.3,0.4,0.7,0.5,1c0,0.1,0,0.2,0,0.2
				c-0.1,0.2-0.2,0.5-0.4,0.7c-0.4,0.5-0.9,0.9-1.4,1.4l-0.1,0.1c-0.6,0.2-1.1,0.4-1.7,0.3c-0.3-0.2-0.7-0.2-1.1-0.4
				c-0.2-0.1-0.5-0.2-0.7-0.4c-0.1-0.1-0.2-0.1-0.3-0.3c-0.1-0.1-0.2-0.3-0.3-0.4c-0.4-0.6-0.3-0.7-1.1-0.6h-0.1
				c-0.3,0-0.6-0.2-0.7-0.4c0-0.1-0.1-0.2-0.1-0.2c-0.1-0.1-0.1-0.1-0.2-0.1c-0.5,0-0.9,0-1.4,0c-0.2,0-0.3,0.1-0.5,0.2
				c-0.4,0.3-0.7,0.6-1.2,0.8c-0.1,0-0.2,0-0.2-0.1s0-0.2-0.1-0.2c0,0,0-0.1,0.1-0.1c0.1-0.2,0.3-0.3,0.4-0.5
				c0.2-0.2,0.5-0.5,0.7-0.7s0.5-0.3,0.7-0.5c0.4-0.2,0.8-0.5,1.1-0.9c0.2-0.2,0.5-0.4,0.7-0.6c0.1,0,0.2,0,0.2-0.1
				c0.1,0,0.3,0.1,0.3,0.2s0,0.2,0,0.2c0,0.1-0.1,0.1-0.2,0.2C47.2,71.8,47.1,71.9,47.1,72z M52.9,75L52.9,75
				c-0.5,0.1-0.9,0.3-1.2,0.6v0.1l0.1,0.1c0.2,0.1,0.3,0,0.5,0c0.3-0.2,0.5-0.3,0.6-0.6C52.9,75.1,52.9,75.1,52.9,75
				c0.1,0,0.2,0,0.3,0c0.3-0.1,0.6-0.4,0.7-0.7v-0.1c0-0.1-0.1-0.2-0.2-0.1C53.4,74.3,53.1,74.6,52.9,75L52.9,75z M50.8,73.8
				c-0.1,0.2-0.2,0.3-0.4,0.3c-0.2,0.1-0.5,0-0.8,0.1c-0.1,0-0.2,0.1-0.4,0.1c-0.1,0-0.2,0.3-0.1,0.4c0.3,0.4,0.7,0.6,1.2,0.7
				c0.1,0,0.2,0,0.3,0s0.2-0.1,0.3-0.2c0.5-0.3,1.8-1.1,2.1-1.4c0.4-0.4,0.4-0.6,0-0.9c-0.3-0.3-0.7-0.4-1-0.5c-0.1-0.1-0.4,0-0.5,0
				c-0.3,0.2-0.6,0.4-0.9,0.7v0.2C50.7,73.5,50.8,73.6,50.8,73.8z"/>
			<path fill="#78433F" d="M43.2,71.4c-0.2,0-0.3,0-0.5,0c-0.1,0-0.3,0.1-0.3,0.2c-0.3,0.2-0.4,0.5-0.6,0.8
				c-0.1,0.2-0.2,0.5-0.3,0.7c-0.2,0.3-0.3,0.6-0.7,0.6c-0.3,0.1-0.5,0.3-0.8,0.4s-0.6,0.1-0.9,0c-0.2-0.1-0.3-0.1-0.5-0.2
				s-0.4,0.1-0.4,0.4c0,0.1,0.1,0.2,0.1,0.2c0.1,0.3,0,0.5-0.3,0.6c-0.1,0-0.2,0-0.2,0c-0.2-0.1-0.4-0.3-0.6-0.5
				c-0.3-0.6-0.5-1.2-0.6-1.8c0-0.2,0-0.4-0.1-0.6c-0.2-0.5,0-0.9,0.3-1.3c0.1-0.1,0.2-0.2,0.3-0.3c0.3-0.2,0.7-0.3,1-0.5
				c0.1,0,0.2,0,0.2,0c0.3,0.2,0.6,0.4,0.6,0.8c0,0.2,0.1,0.3,0.1,0.5c0.1,0.3,0.1,0.5,0,0.7c-0.1,0.1-0.1,0.2-0.1,0.4
				c0,0.2,0.2,0.4,0.4,0.4c0.2-0.1,0.5-0.2,0.7-0.3c0.1,0,0.1-0.1,0.1-0.2c0-0.2,0-0.4,0-0.5c-0.2-0.4-0.2-0.7-0.2-1.1
				c0-0.3-0.2-0.6-0.2-1s0.5-0.9,0.9-1c0.4,0,0.8,0,1.2,0.3c0.7,0.5,1.4,1,1.9,1.7c0.1,0.1,0.1,0.3,0.2,0.5c0,0.1-0.2,0.4-0.3,0.3
				C43.5,71.5,43.4,71.5,43.2,71.4z M37.8,72.6c0.4-0.2,0.5-0.6,0.4-1c0-0.1-0.1-0.1-0.1-0.2H38c-0.2,0.1-0.3,0.3-0.4,0.5
				c-0.1,0.1-0.1,0.2,0,0.4C37.6,72.4,37.7,72.5,37.8,72.6z M41.4,71.3c0.1-0.1,0.2-0.1,0.3-0.2s0.1-0.2,0-0.4
				c-0.1-0.2-0.2-0.3-0.3-0.4S41,70.4,41,70.5C41,70.9,41.2,71.1,41.4,71.3z"/>
			<path fill="#78433F" d="M45.1,62c0.2-0.1,0.5-0.2,0.7-0.3c0.1,0,0.2,0,0.2,0.1c0.2,0.2,0.3,0.6,0.1,0.8c-0.2,0.3-0.5,0.4-0.9,0.6
				c-0.3,0.1-0.6,0.1-0.9,0c-0.1,0-0.2-0.1-0.3-0.2c-0.3-0.4-0.5-0.9-0.7-1.4c0-0.1-0.3-0.2-0.3-0.1c0,0-0.1,0-0.1,0.1
				c-0.1,0-0.1,0.1-0.2,0.2c-0.2,0.1-0.3,0.3-0.2,0.5c0.2,0.4,0,0.8,0.3,1.1c0.1,0.4,0.1,0.9,0,1.3c0,0.3-0.4,0.5-0.7,0.4
				c-0.1,0-0.2-0.1-0.2-0.1c-0.2-0.3-0.4-0.7-0.4-1.1c0-0.3-0.1-0.6-0.2-0.9c-0.1-0.2-0.2-0.2-0.4-0.1c0,0-0.1,0-0.1,0.1
				c-0.3,0.1-0.4,0.1-0.7-0.2c-0.1-0.1-0.1-0.3,0-0.4c0,0,0-0.1,0.1-0.1c0.1-0.1,0.2-0.2,0.3-0.3c0.7-0.8,0.5-0.6,1.6-1
				c0.2-0.1,0.4-0.2,0.6-0.2c0.3-0.1,0.5-0.2,0.6-0.4c0.1-0.1,0.2-0.2,0.3-0.3c0.4-0.4,0.8-0.7,1.4-0.8c0.2,0,0.3-0.2,0.3-0.4
				c0-0.1,0-0.3,0-0.4c0.2-0.6,0.7-1,1.4-0.7c0.1,0,0.2,0.2,0.3,0.3s0.1,0.3,0,0.4c-0.1,0.1-0.3,0.1-0.4,0.3c0,0.1,0,0.2,0.1,0.2
				c0.3,0.1,0.6,0.1,0.8,0.3c0.3,0.2,0.6,0.4,0.7,0.7c0,0.1,0.1,0.2,0.1,0.2c-0.1,0.2-0.1,0.3-0.2,0.5c-0.1,0.4-0.3,0.6-0.7,0.7
				c-0.1,0-0.2,0.1-0.4,0.1c-0.1,0-0.2,0-0.2-0.1c-0.2-0.1-0.4-0.2-0.4-0.4c0-0.1,0-0.1,0.1-0.2c0.2-0.2,0.5-0.2,0.7-0.3
				c0.1,0,0.1-0.1,0.1-0.2c0-0.1,0-0.2-0.1-0.2c0,0-0.1,0-0.1-0.1c-0.2-0.1-0.5-0.2-0.7-0.2s-0.4,0-0.6,0c-0.1,0-0.3,0.1-0.3,0.1
				c-0.3,0.3-0.5,0.5-0.8,0.8v0.2c0,0.1,0.1,0.1,0.2,0.1c0.2-0.1,0.3-0.1,0.5-0.2c0.1,0,0.2,0,0.2,0c0.1,0,0.2,0.1,0.2,0.1
				c0,0.1,0,0.2,0,0.2c-0.1,0.3-0.4,0.3-0.6,0.5C44.9,61.6,44.9,61.8,45.1,62C45,62,45,62,45.1,62z"/>
			<path fill="#78433F" d="M45.3,65.6c0.2-0.5,0.6-0.8,1-1.1c0.1,0,0.2-0.1,0.2-0.1c0.1,0,0.3,0,0.4,0c0.2,0,0.4-0.1,0.5-0.3
				c0.1-0.1,0.1-0.2,0.2-0.3c0.3-0.5,0.7-0.7,1.2-0.8c0.1,0,0.4,0.1,0.4,0.2c0.1,0.2,0,0.4-0.1,0.5s-0.2,0.1-0.3,0.2
				c0,0.1,0,0.2,0,0.2l0.1,0.1c0.2,0.1,0.5,0.1,0.7,0.1c0.6,0.2,0.9,0.6,0.9,1.2v0.1c0,0.4-0.2,0.7-0.4,0.9c-0.3,0.3-0.7,0.3-1,0
				C49,66.4,48.9,66.2,49,66s0.2-0.3,0.3-0.4s-0.1-0.4-0.2-0.4c-0.2,0-0.4,0-0.6,0c-0.3,0-0.5,0-0.7-0.2c-0.1-0.1-0.2-0.1-0.4,0
				s-0.4,0.3-0.6,0.4l-0.1,0.1c-0.1,0.1-0.1,0.3,0,0.3c0.1,0.1,0.2,0.1,0.3,0.1c0.2-0.1,0.3-0.2,0.5-0.2c0.1,0,0.3,0,0.4,0
				c0.2,0,0.3,0.2,0.3,0.4c-0.1,0.4-0.3,0.7-0.5,1c0,0.1,0,0.2,0.1,0.2c0,0.1,0.1,0,0.2,0c0.1-0.1,0.1-0.1,0.2-0.2l0.1-0.1
				c0.2-0.1,0.3-0.1,0.4,0.1c0,0.1,0.1,0.2,0.1,0.2c0.1,0.1,0.1,0.2,0,0.4c-0.2,0.3-0.4,0.4-0.7,0.6c-0.1,0.1-0.2,0.1-0.4,0.1
				c-0.3,0-0.5,0-0.8,0s-0.5-0.2-0.6-0.5s-0.2-0.7-0.4-0.9C45.6,66.7,45.4,66.1,45.3,65.6z"/>
			<path fill="#EB594F" d="M19.3,65.8c0-0.1,0-0.2,0-0.3s0.1-0.2,0.1-0.2c0.3-0.1,0.5-0.3,0.8-0.3c0.4,0,0.8-0.1,1.2,0
				c0.7,0,1.4,0,2.1,0.1c0.1,0,0.2,0,0.3,0c0.6,0.3,1.2,0.2,1.8,0.2c0.2,0,0.4,0.1,0.6,0.2c0.3,0.1,0.5,0.3,0.6,0.6
				c0.1,0.2,0,0.4-0.1,0.6c-0.1,0.1-0.1,0.1-0.2,0.2c-0.4,0.1-0.6,0.3-0.6,0.7c0,0.3-0.2,0.6-0.4,0.8c-0.1,0.1-0.2,0.2-0.4,0.3
				c-0.1,0-0.3,0-0.4,0c-0.3,0-0.5,0-0.7,0.1c-0.1,0.1-0.3,0.1-0.5,0.1s-0.4-0.1-0.6-0.3c-0.1-0.2-0.2-0.4-0.3-0.5
				c-0.1-0.3-0.4-0.5-0.7-0.5s-0.5-0.1-0.7-0.2c-0.5,0-1-0.3-1.4-0.6c-0.2-0.1-0.3-0.3-0.3-0.5C19.3,66.1,19.3,66,19.3,65.8z
				 M21.8,65.5L21.8,65.5c-0.4,0-0.9,0-1.3,0c-0.2,0-0.3,0.1-0.4,0.2s-0.1,0.2,0,0.3c0.2,0.3,0.4,0.4,0.7,0.6
				c0.1,0.1,0.2,0.1,0.4,0.1c0.6,0,1.1,0.2,1.6,0.4c0.4,0.1,0.7,0.2,1.1,0.1c0,0,0.1,0,0.1-0.1V67c-0.1-0.1-0.2-0.2-0.3-0.2
				c-0.2-0.1-0.3-0.1-0.5-0.2c-0.1,0-0.1-0.1-0.1-0.2s0.1-0.2,0.2-0.2c0.4,0,0.8,0,1.2,0s0.9,0,1.3,0c0.1,0,0.1-0.1,0.1-0.2
				c0,0,0-0.1-0.1-0.1c-0.1-0.1-0.3-0.2-0.5-0.2c-0.7,0-1.4,0-2-0.2c-0.1,0-0.3,0-0.4,0C22.4,65.5,22.1,65.5,21.8,65.5z M25.3,67.3
				L25.3,67.3c0-0.2-0.2-0.3-0.3-0.3s-0.2,0.1-0.2,0.2s0,0.2,0,0.4c0,0.1,0.1,0.1,0.2,0.2c0.1,0.1,0.3,0,0.3-0.2
				C25.3,67.5,25.3,67.4,25.3,67.3z M23.7,68.1c0-0.1,0-0.2-0.1-0.2c-0.1-0.1-0.3,0-0.3,0.1s0,0.3,0.1,0.3
				C23.5,68.3,23.6,68.2,23.7,68.1z"/>
			<path fill="#78433F" d="M25.1,72.9c0.1,0,0.1,0,0.2,0c0.1,0,0.2,0.2,0.2,0.3c0,0.2,0,0.4-0.2,0.6c-0.1,0.1-0.3,0.1-0.5,0.2
				c-0.1,0.1-0.2,0.2-0.3,0.4c-0.1,0.8,0.1,1.4,0.7,1.9c0.3,0.2,0.5,0.2,0.8-0.1c0.2-0.1,0.3-0.3,0.2-0.6c0-0.1-0.1-0.2-0.3-0.2
				c-0.1,0-0.2,0-0.2,0.1c-0.2,0.1-0.3,0-0.5-0.1c-0.1-0.1-0.2-0.5-0.1-0.6c0.2-0.3,0.4-0.5,0.7-0.7c0.2-0.1,0.3-0.1,0.5,0.1
				c0.5,0.4,0.8,1,0.8,1.7c0,0.6-0.3,1.1-0.7,1.4c-0.2,0.2-0.4,0.3-0.7,0.4c-0.1,0-0.3,0.1-0.4,0c-0.3-0.1-0.6-0.2-0.8-0.4
				c-0.3-0.2-0.6-0.5-0.8-0.8c-0.1-0.1-0.1-0.1-0.1-0.2c-0.1-0.4-0.3-0.8-0.3-1.2c0-0.3,0-0.7,0-1c0-0.2,0.1-0.3,0.2-0.5
				c0.1-0.2,0.3-0.3,0.4-0.5c0.2-0.2,0.4-0.3,0.7-0.3C24.9,72.9,25,72.9,25.1,72.9z"/>
			<path fill="#78433F" d="M29.9,77.7c0,0,0-0.2,0-0.4c0-0.2,0.4-0.4,0.6-0.3c0.1,0.1,0.2,0.2,0.3,0.2c0.2,0.1,0.3,0.3,0.5,0.4
				c0.1,0,0.2,0,0.2,0c0.2-0.1,0.4-0.2,0.4-0.4c0.1-0.2,0-0.3-0.1-0.5s-0.2-0.5-0.1-0.7c0-0.2,0.1-0.3,0.3-0.3c0.1,0,0.3,0,0.4,0
				c0.2,0,0.3,0.1,0.4,0.2c0.3,0.4,0.4,0.9,0.6,1.4v0.1c0,0.4,0.1,0.8,0.3,1.1c0.1,0.3,0,0.5-0.3,0.6c-0.1,0.1-0.3,0.1-0.5,0
				c-0.3-0.2-0.3-0.5-0.5-0.7c-0.1-0.1-0.2-0.1-0.3,0c-0.1,0.1-0.2,0.2-0.3,0.4c-0.1,0.1-0.1,0.2-0.1,0.4c0,0.2,0,0.4,0.1,0.5
				c0.1,0.2,0.1,0.4,0,0.6c-0.2,0.3-0.6,0.4-0.8,0.2c-0.2-0.1-0.3-0.3-0.4-0.5C30.2,79.4,29.9,78.7,29.9,77.7z"/>
			<path fill="#78433F" d="M36.8,67.6c-0.2,0.2-0.4,0.3-0.5,0.5c-0.1,0.1-0.1,0.3-0.1,0.5c0,0.1,0.1,0.2,0.2,0.3
				c0.1,0.2,0,0.4-0.2,0.6c-0.2,0.1-0.5,0.2-0.6,0c-0.1-0.1-0.3-0.2-0.3-0.4c-0.2-0.7-0.6-1.4-0.6-2.2c-0.2-0.3-0.1-0.6,0.1-0.8
				c0.1-0.1,0.3-0.1,0.3-0.1c0.3,0.1,0.4,0.4,0.7,0.6c0.1,0.1,0.3,0.1,0.5,0s0.3-0.3,0.3-0.5c0-0.3,0-0.5,0-0.8
				c0-0.2,0.2-0.4,0.3-0.5s0.3-0.1,0.4,0c0.1,0.1,0.2,0.1,0.3,0.3c0.1,0.3,0.1,0.7,0.3,1c0.1,0.3,0.2,0.5,0.3,0.8s0.3,0.6,0.4,0.9
				v0.1c-0.1,0.3-0.6,0.5-0.8,0.4c-0.1-0.1-0.2-0.2-0.3-0.2c-0.1-0.1-0.2-0.3-0.3-0.4C36.9,67.6,36.8,67.6,36.8,67.6z"/>
			<path fill="#78433F" d="M36.2,76.3c-0.2,0.1-0.5,0.3-0.7,0.5s-0.4,0.3-0.4,0.6c-0.1,0.2-0.2,0.5-0.4,0.7c0,0.1-0.1,0.1-0.2,0.2
				c0,0-0.3-0.1-0.3-0.2s-0.1-0.2-0.1-0.2c-0.1-0.4-0.1-0.8-0.2-1.1c-0.1-0.3-0.1-0.7-0.2-1c-0.1-0.3-0.1-0.6-0.1-0.9
				s0.2-0.5,0.3-0.7c0.2-0.3,0.4-0.4,0.7-0.4c0.2,0,0.3,0,0.5,0s0.3,0.1,0.5,0.2c0.1,0.1,0.3,0.2,0.4,0.4c0.4,0.4,0.7,0.9,1.1,1.3
				c0.2,0.2,0.1,0.6-0.1,0.8c-0.1,0.1-0.3,0.2-0.5,0.1C36.4,76.4,36.3,76.4,36.2,76.3z M35,75.1c-0.1,0.1-0.2,0.1-0.2,0.2
				c-0.1,0.1-0.2,0.3-0.1,0.5c0,0.1,0.1,0.1,0.1,0.2c0.1,0.2,0.4,0.2,0.5,0c0.2-0.1,0.2-0.3,0.1-0.4C35.3,75.3,35.1,75.2,35,75.1z"
				/>
			<path fill="#78433F" d="M26.9,72.7c0-0.4,0.2-0.7,0.4-1.1l0.1-0.1c0.5-0.3,1-0.6,1.7-0.3c0.1,0.1,0.3,0.1,0.4,0.3
				c0.1,0.2,0.2,0.3,0.4,0.5c0.2,0.4,0.5,0.8,0.5,1.3c0,0.2,0.2,0.4,0.1,0.6c-0.1,0.3-0.3,0.6-0.6,0.8c-0.2,0.1-0.4,0.3-0.7,0.4
				c-0.2,0.1-0.3,0-0.5,0c-0.3,0-0.6-0.2-0.8-0.3c-0.1-0.1-0.2-0.2-0.3-0.3C27.1,74.1,26.8,73.4,26.9,72.7z M28.4,72.4
				c-0.1,0-0.1,0-0.2,0c-0.3,0.2-0.4,0.5-0.3,0.8c0.1,0.3,0.2,0.5,0.4,0.8c0.1,0.2,0.4,0.3,0.7,0.2c0.1,0,0.2-0.2,0.2-0.3
				c0-0.1,0-0.3,0-0.4c-0.1-0.4-0.2-0.7-0.5-1C28.6,72.5,28.5,72.4,28.4,72.4z"/>
			<path fill="#78433F" d="M45.9,68.8c0,0.7-0.2,1.1-0.6,1.6c-0.2,0.2-0.5,0.3-0.8,0.2c-0.1,0-0.2,0-0.2-0.1
				c-0.3-0.3-0.5-0.6-0.7-0.9c-0.1-0.1-0.2-0.3-0.2-0.5c-0.1-0.4-0.3-0.7-0.4-1.1c-0.1-0.2-0.1-0.4-0.1-0.6s0.1-0.3,0.2-0.5
				c0.4-0.5,1-0.7,1.6-0.4c0.2,0.1,0.5,0.2,0.7,0.4s0.4,0.3,0.4,0.6C45.8,68,46,68.4,45.9,68.8z M44.9,68.4c0-0.1,0-0.2,0-0.3
				c0-0.2-0.2-0.4-0.4-0.5h-0.1c-0.1,0-0.2,0-0.2,0.1c-0.2,0.5,0,0.8,0.3,1.1c0.1,0.1,0.3,0,0.3-0.1C44.9,68.6,44.9,68.4,44.9,68.4z
				"/>
			<path fill="#78433F" d="M33.1,71.1c0,0.2,0,0.4-0.1,0.7c0,0.3-0.2,0.6-0.3,0.8c-0.1,0.3-0.4,0.5-0.7,0.6c-0.3,0.1-0.6,0.1-0.9,0
				c-0.1,0-0.2-0.1-0.3-0.2c-0.3-0.3-0.4-0.7-0.6-1.1c-0.1-0.2-0.1-0.3-0.1-0.5c0-0.5,0-0.9-0.2-1.4c-0.1-0.1,0.1-0.2,0.2-0.3
				c0.2-0.2,0.5-0.3,0.8-0.5c0.4,0,0.9-0.1,1.2,0.2c0.1,0.1,0.3,0.2,0.4,0.3c0.3,0.3,0.5,0.6,0.5,1C33.1,70.7,33.1,70.9,33.1,71.1z
				 M31.3,70.2L31.3,70.2c-0.2,0.5-0.2,0.9-0.1,1.3c0,0.1,0.1,0.2,0.2,0.3c0.1,0.1,0.3,0.1,0.3,0c0.2-0.2,0.3-0.4,0.3-0.7
				c0-0.3-0.1-0.7-0.5-0.8C31.6,70.3,31.5,70.2,31.3,70.2z"/>
			<path fill="#78433F" d="M28.9,82.5c-0.4,0-0.5,0-0.7,0c-0.1,0-0.3-0.1-0.4-0.1c-0.5-0.3-0.8-0.8-1-1.3c-0.1-0.2-0.1-0.4-0.1-0.6
				c0-0.4,0.2-0.8,0.4-1.2c0.1-0.3,0.4-0.5,0.7-0.7c0.1-0.1,0.2-0.1,0.4-0.1c0.3,0.1,0.6,0.1,0.9,0.2c0.2,0.1,0.2,0.2,0.3,0.4
				c0,0.1,0,0.3,0,0.4s-0.1,0.2-0.2,0.2c-0.2,0-0.4,0-0.6,0.1c-0.2,0-0.4,0.3-0.4,0.6c0,0.3,0.2,0.6,0.3,0.8c0,0.1,0.1,0.1,0.2,0.1
				c0.3,0.1,0.5,0,0.7-0.1s0.5-0.2,0.7-0.4c0.1,0,0.3,0.1,0.3,0.2c0.1,0.3,0.1,0.6-0.1,0.8c-0.1,0.1-0.1,0.1-0.2,0.2
				C29.8,82.4,29.3,82.6,28.9,82.5z"/>
			<path fill="#78433F" d="M38.2,64.5c0,0,0-0.3,0-0.5c0-0.3,0.2-0.6,0.4-0.8c0-0.1,0.1-0.1,0.2-0.1c0.2,0,0.3,0,0.5,0
				s0.3,0.1,0.5,0.2c0.5,0.4,1,0.9,1.4,1.4c0.2,0.2,0.2,0.5,0.2,0.7c0,0.1-0.1,0.3-0.2,0.3h-0.1c-0.5-0.1-0.9,0.2-1.3,0.5l-0.1,0.1
				c0,0.1-0.1,0.2-0.1,0.2c0,0.2,0.1,0.4,0.1,0.6c0,0.1-0.1,0.3-0.2,0.3c-0.1,0-0.3,0.1-0.4,0c-0.1-0.1-0.3-0.2-0.4-0.3
				c-0.3-0.4-0.3-1-0.5-1.4C38.2,65.4,38.2,65,38.2,64.5z M39.7,64.9c0-0.1-0.1-0.2-0.2-0.2c-0.1,0-0.2,0-0.2,0.1
				c-0.1,0.2-0.1,0.3,0,0.5c0,0,0,0.1,0.1,0.1C39.5,65.4,39.7,65.1,39.7,64.9z"/>
			<path fill="#EB594F" d="M29,65.7c0.5,0,0.7,0.1,0.8,0.3c0,0,0,0.1,0.1,0.1c0.2,0.4,0.4,0.4,0.7,0.2c0.3-0.2,0.5-0.5,0.9-0.6
				l0.1-0.1c0.1,0.1,0.2,0.1,0.3,0.2s0,0.1,0,0.2c-0.1,0.1-0.1,0.1-0.2,0.2c-0.2,0.1-0.3,0.3-0.5,0.4c-0.5,0.4-1,0.8-1.5,1.2
				c-0.1,0.1-0.2,0.2-0.3,0.2c-0.4,0.2-0.8,0.5-1.2,0.7c-0.1,0-0.2,0-0.2-0.1s-0.1-0.2,0-0.2c0.1-0.1,0.1-0.2,0.2-0.3
				c0.2-0.2,0.5-0.3,0.5-0.6c0-0.2-0.1-0.4-0.2-0.6c-0.1-0.2-0.2-0.3-0.5-0.4c-0.2-0.1-0.3-0.1-0.5-0.1c-0.1,0-0.2-0.3-0.1-0.3
				c0.1-0.1,0.2-0.2,0.3-0.3l0.1-0.1C28.2,66,28.7,65.8,29,65.7z"/>
			<path fill="#78433F" d="M48.4,57.6C48.4,57.6,48.3,57.6,48.4,57.6c-0.3-0.3-0.4-0.5-0.2-0.8c0.1-0.1,0.2-0.2,0.2-0.3
				c0.2-0.2,0.4-0.2,0.6-0.2s0.3,0.2,0.3,0.3c0,0.2-0.1,0.4-0.3,0.5s-0.4,0.2-0.6,0.3C48.4,57.6,48.4,57.6,48.4,57.6z"/>
		</g>
	</g>
	<g>
		<path fill="#FADFD7" d="M66,85.5c0,0.1-0.1,0.2-0.1,0.2c-0.3,0.3-0.4,0.7-0.1,1.1c0,0.1,0.1,0.2,0.1,0.3s0,0.3-0.1,0.4
			c-0.5,0.3-0.9,0.8-1.4,1c-0.1,0.1-0.2,0.2-0.3,0.3c-0.6,0.7-1.5,1.2-2.2,1.8l-0.1,0.1c-1,0.5-1.8,1.3-2.7,1.9
			c-0.4,0.3-0.8,0.6-1.2,0.9c-0.4,0.3-0.8,0.6-1.2,0.9c-0.1,0-0.2,0-0.3,0c-0.3-0.2-0.7-0.3-1-0.2c-0.1,0-0.3,0-0.4,0
			c-0.2,0-0.5,0-0.6-0.2c-0.6-0.6-1.2-1.1-1.8-1.7c-0.2-0.2-0.3-0.4-0.2-0.7c0.1-0.1,0-0.3-0.1-0.4s-0.1-0.3-0.1-0.4s0-0.2,0.1-0.3
			c0.2-0.2,0.3-0.4,0.6-0.6c0.5-0.3,0.8-0.7,1.3-1c0.7-0.5,1.3-1.1,2-1.7c0.2-0.2,0.5-0.4,0.8-0.5c0.4-0.2,0.7-0.4,1-0.7
			c0.1-0.1,0.3-0.2,0.5-0.3c0.6-0.3,1.1-0.7,1.6-1c0.2-0.1,0.4-0.3,0.7-0.4c0.5-0.3,1-0.6,1.5-0.9c0.3-0.1,0.5-0.2,0.8,0
			s0.6,0.1,0.9,0c0.2-0.1,0.3-0.1,0.5,0c0.3,0.2,0.5,0.3,0.7,0.6c0.2,0.3,0.4,0.5,0.6,0.8c0.1,0.1,0.2,0.3,0.3,0.5
			C65.9,85.2,66,85.3,66,85.5z M60.6,86.4c0-0.1,0-0.3,0-0.4s-0.2-0.2-0.3-0.1c-0.1,0-0.1,0.1-0.2,0.2s0,0.3,0.1,0.3
			C60.4,86.4,60.5,86.4,60.6,86.4c0,0.2,0,0.4,0.2,0.6c0.4,0.4,0.8,0.8,1.1,1.2c0.1,0.1,0.3,0.2,0.4,0.3s0.4,0,0.4-0.2
			c0-0.1,0-0.3,0-0.4c-0.1-0.1-0.2-0.2-0.3-0.3c-0.4-0.3-0.8-0.6-1.1-1C61.1,86.4,60.9,86.4,60.6,86.4z M55.8,93.1
			c0.2-0.1,0.4-0.1,0.6-0.2s0.4-0.2,0.5-0.4c0.1-0.2,0.2-0.4,0.3-0.6c0.1-0.2,0.1-0.4-0.1-0.5c-0.1-0.1-0.2-0.3-0.3-0.4
			c-0.4-0.3-0.9-0.6-1.3-1c-0.2-0.1-0.5-0.2-0.7-0.3s-0.4,0-0.5,0.1c-0.3,0.2-0.5,0.4-0.7,0.6c-0.1,0.1-0.1,0.3-0.1,0.4
			c0.1,0.2,0.2,0.4,0.3,0.6s0.3,0.3,0.5,0.5s0.3,0.4,0.5,0.7C55,92.8,55.4,93,55.8,93.1z M61.4,89c0-0.3,0-0.6-0.2-0.7
			c-0.2-0.2-0.4-0.4-0.6-0.5c-0.4-0.1-0.7-0.3-0.9-0.7c-0.3-0.1-0.5-0.4-0.9-0.2c-0.1,0.1-0.3,0-0.4,0.1c-0.3,0.1-0.5,0.2-0.6,0.5
			c0,0.1-0.1,0.2-0.2,0.4c0,0.1-0.1,0.3,0,0.4c0.5,0.6,1,1.1,1.6,1.6c0.2,0.1,0.4,0.2,0.6,0.3c0.3,0.2,0.9,0,1.1-0.3
			c0.1-0.2,0.2-0.4,0.3-0.6C61.4,89.2,61.4,89.1,61.4,89z M63.5,84.1c-0.2,0.1-0.3,0.1-0.5,0.2c-0.4,0.3-0.8,0.6-1.2,0.9v0.1
			c0,0.1,0,0.2,0.1,0.2c0.3,0.1,0.6,0,0.8,0.1c0.3,0.1,0.5,0.4,0.7,0.6s0.5,0.4,0.7,0.7c0.1,0.1,0.1,0.1,0.2,0.1s0.2,0,0.2-0.1
			c0.1-0.1,0.2-0.2,0.1-0.2c-0.1-0.2-0.2-0.4-0.3-0.6c-0.2-0.3-0.4-0.5-0.5-0.8c-0.2-0.3-0.2-0.6,0-0.9l0.1-0.1
			c0-0.1-0.1-0.2-0.1-0.2C63.6,84.1,63.6,84.1,63.5,84.1z M57.8,89.3c0-0.1-0.2-0.2-0.3-0.2c-0.3,0.1-0.5,0.4-0.7,0.6
			c0,0.1,0,0.2,0,0.3s0.3,0.1,0.4,0.1c0.2-0.1,0.4-0.3,0.6-0.6C57.8,89.5,57.8,89.4,57.8,89.3z"/>
		<path fill="#FADFD7" d="M55.9,91.3c0.1,0,0.1,0,0.2,0c0.3,0,0.5,0.4,0.3,0.7c-0.1,0.1-0.2,0.2-0.3,0.3c-0.1,0.1-0.2,0.1-0.2,0.1
			c-0.3,0-0.6-0.4-0.5-0.6c0-0.2,0.1-0.3,0.3-0.4C55.8,91.3,55.9,91.3,55.9,91.3z"/>
		<path fill="#FADFD7" d="M54.3,90.7c0-0.1,0.1-0.2,0.1-0.2c0.2-0.2,0.4-0.2,0.5,0c0.1,0.1,0.1,0.2,0,0.3S54.7,91,54.6,91
			s-0.2,0-0.2-0.1C54.4,90.9,54.4,90.8,54.3,90.7z"/>
		<path fill="#FADFD7" d="M59.6,89c0.1-0.3,0.3-0.4,0.5-0.6c0.1,0,0.2-0.1,0.3-0.1c0.3,0,0.5,0.4,0.3,0.7l-0.1,0.1
			c-0.2,0.3-0.5,0.3-0.8,0.1C59.8,89.2,59.7,89.1,59.6,89z"/>
		<path fill="#FADFD7" d="M58.4,87.9c0-0.3,0.4-0.5,0.7-0.3c0.1,0.1,0.1,0.1,0.1,0.2v0.1c0,0.1-0.1,0.1-0.2,0.2s-0.2,0.2-0.4,0.1
			C58.5,88.2,58.4,88,58.4,87.9z"/>
		<path fill="#78433F" d="M56.3,95.1c-0.2-0.1-0.5-0.2-0.7-0.3c-0.1-0.1-0.3-0.1-0.4,0S55,94.9,54.8,95c-0.3,0.1-0.5,0-0.8-0.1
			c-1.1-0.8-1.2-0.9-2.2-2c-0.2-0.2-0.3-0.5-0.4-0.7c-0.1-0.1-0.1-0.3,0-0.4c0.2-0.3,0.2-0.5,0-0.8c0,0,0-0.1-0.1-0.1
			c0-0.2,0-0.4,0.1-0.5c0.4-0.5,0.9-1,1.5-1.4c0.2-0.1,0.4-0.2,0.5-0.4c0.8-0.8,1.6-1.5,2.5-2.1c0.5-0.4,1-0.7,1.6-1
			c0.7-0.4,1.4-0.9,2-1.3c0.5-0.4,1.1-0.7,1.7-0.9c0.4-0.2,0.8-0.4,1.2-0.6c0.2-0.1,0.4-0.2,0.6,0c0.3,0.2,0.5,0.2,0.8,0
			c0.1,0,0.2-0.1,0.3,0c0.3,0.1,0.5,0.2,0.8,0.3c0.1,0,0.2,0.1,0.2,0.2c0.6,0.7,1.2,1.4,1.8,2.1c0.2,0.2,0.2,0.4,0.1,0.6
			s-0.1,0.3-0.2,0.5c-0.2,0.3-0.2,0.6,0,0.9c0.1,0.3,0,0.5-0.2,0.7c-0.2,0.3-0.5,0.5-0.8,0.7s-0.6,0.4-0.9,0.7c-0.6,0.6-1.4,1-2,1.7
			c-0.5,0.2-0.8,0.7-1.2,0.9c-0.4,0.2-0.7,0.6-1.1,0.8c-0.4,0.2-0.7,0.5-1,0.7s-0.6,0.4-0.9,0.6s-0.6,0.4-0.9,0.6
			c-0.2,0.2-0.4,0.4-0.6,0.5C56.8,94.9,56.6,95,56.3,95.1z M66,85.5c-0.1-0.1-0.1-0.3-0.2-0.4c-0.1-0.2-0.2-0.3-0.3-0.5
			c-0.2-0.3-0.4-0.5-0.6-0.8s-0.5-0.4-0.7-0.6c-0.2-0.1-0.3-0.1-0.5,0c-0.3,0.2-0.6,0.2-0.9,0s-0.5-0.1-0.8,0
			c-0.5,0.3-1,0.6-1.5,0.9c-0.2,0.1-0.5,0.3-0.7,0.4c-0.5,0.3-1,0.7-1.6,1c-0.2,0.1-0.3,0.2-0.5,0.3c-0.3,0.3-0.6,0.5-1,0.7
			c-0.3,0.2-0.6,0.3-0.8,0.5c-0.6,0.6-1.3,1.1-2,1.7c-0.4,0.3-0.8,0.7-1.3,1c-0.2,0.1-0.4,0.4-0.6,0.6c-0.1,0.1-0.1,0.2-0.1,0.3
			S52,90.9,52,91c0.1,0.1,0.1,0.3,0.1,0.4c-0.2,0.3,0,0.5,0.2,0.7c0.6,0.6,1.2,1.2,1.8,1.7c0.2,0.2,0.4,0.2,0.6,0.2
			c0.1,0,0.3,0,0.4,0c0.4,0,0.7,0,1,0.2c0.1,0,0.2,0,0.3,0c0.4-0.3,0.8-0.5,1.2-0.9c0.4-0.3,0.8-0.6,1.2-0.9
			c0.9-0.6,1.7-1.4,2.7-1.9l0.1-0.1c0.7-0.7,1.6-1.1,2.2-1.8c0.1-0.1,0.2-0.2,0.3-0.3c0.5-0.3,0.9-0.7,1.4-1
			c0.1-0.1,0.1-0.2,0.1-0.4c0-0.1,0-0.2-0.1-0.3c-0.3-0.4-0.2-0.8,0.1-1.1C65.9,85.6,66,85.6,66,85.5z"/>
		<path fill="#EB594F" d="M47.2,99.3c0,0.1,0,0.4-0.1,0.7c0,0.1-0.1,0.2-0.1,0.2c-0.2,0.1-0.4,0.2-0.6,0.3c-0.1,0-0.3,0.1-0.4,0
			c-0.3-0.2-0.7-0.2-1.1-0.2c-0.2,0-0.5,0-0.7-0.1s-0.3-0.1-0.5,0c-0.1,0.1-0.3,0.1-0.4,0c-0.3-0.1-0.7-0.3-0.9-0.5
			c-0.1-0.1-0.2-0.2-0.2-0.4c0-0.2,0-0.4,0-0.5c0-0.2-0.1-0.4-0.1-0.5s0-0.2,0-0.2c0.1-0.1,0.2-0.2,0.3-0.3c0.3-0.3,0.6-0.4,1-0.2
			c0.1,0,0.2,0.1,0.2,0.1c0.1,0,0.2,0,0.2-0.1c0.1-0.1,0.2-0.2,0.1-0.3c-0.2-0.3,0-0.5,0.1-0.7c0.2-0.3,0.6-0.5,1-0.4
			c0.3,0,0.6,0,1,0.1c0.1,0,0.2,0.1,0.2,0.1c0.3,0.3,0.7,0.5,0.6,1c0,0.1,0,0.2,0,0.3C47.2,98.1,47.1,98.6,47.2,99.3z"/>
		<path fill="#EB594F" d="M50,92.6c0.1,0,0.2,0,0.3,0c0.5-0.1,0.8,0.2,1,0.5c0.1,0.1,0.1,0.1,0.2,0.2c0,0.1,0.1,0.2,0,0.3
			c-0.1,0.4,0.3,0.7,0.2,1.1c0,0.2-0.1,0.3,0,0.5c0.1,0.3,0.1,0.5,0.1,0.8c0,0.4-0.2,0.6-0.5,0.7c-0.1,0.1-0.3,0.1-0.4,0.2
			s-0.3,0.1-0.4,0c-0.4-0.2-0.8-0.2-1.2-0.3c-0.4-0.1-0.7-0.2-1.1-0.2c-0.2,0-0.4,0-0.5-0.1c-0.2-0.1-0.4-0.2-0.6-0.3
			s-0.3-0.4-0.3-0.6s-0.1-0.4-0.2-0.6s0-0.4,0.1-0.5s0.2-0.2,0.3-0.3c0.2-0.2,0.4-0.2,0.6-0.2c0.3,0,0.5,0.1,0.8,0
			c0.1,0,0.2-0.1,0.1-0.2c-0.2-0.4,0-0.7,0.2-1c0.1-0.1,0.2-0.2,0.3-0.2C49.5,92.6,49.8,92.6,50,92.6L50,92.6z"/>
		<path fill="#EB594F" d="M70.3,81.9c0,0.3,0,0.3,0,0.4c0,0.4-0.2,0.7-0.5,0.9c-0.2,0.1-0.4,0.2-0.6,0.2c-0.4-0.2-0.9-0.2-1.3-0.2
			c-0.6,0-1-0.3-1.6-0.4c-0.1,0-0.2-0.2-0.3-0.3c-0.1-0.4-0.2-0.8-0.3-1.2c0-0.1,0-0.2,0.1-0.3c0.1-0.2,0.3-0.3,0.5-0.5
			c0.1-0.1,0.3-0.2,0.5-0.1c0.1,0,0.2,0.1,0.2,0.1c0.3,0.1,0.6-0.2,0.5-0.4c0-0.2-0.1-0.3,0.1-0.5c0.1-0.1,0.3-0.3,0.4-0.4
			c0.3-0.3,0.7-0.3,1.1-0.2c0.2,0.1,0.5,0.2,0.7,0.4c0.1,0.1,0.2,0.2,0.2,0.3c0.1,0.4,0,0.9,0.3,1.3C70.2,81.5,70.3,81.8,70.3,81.9z
			"/>
		<path fill="#EB594F" d="M74.7,78.7c0,0.3,0,0.5,0,0.8c0,0.2-0.2,0.4-0.4,0.4c-0.4,0-0.7,0.1-1.1-0.1c-0.2-0.1-0.4-0.1-0.6,0
			s-0.4,0.1-0.5-0.1c-0.2-0.2-0.5-0.2-0.8-0.2c-0.5,0-0.8-0.3-0.9-0.8c0-0.1,0-0.3-0.1-0.4c-0.1-0.4-0.1-0.4,0-0.6
			c0.1-0.1,0.1-0.2,0.2-0.3c0.2-0.2,0.4-0.3,0.7-0.2c0.1,0,0.2,0.1,0.4,0.2c0.1,0,0.3-0.1,0.3-0.2v-0.1c-0.1-0.5,0.1-0.8,0.5-1
			c0.3-0.2,0.6-0.3,0.9-0.2s0.7,0.3,0.9,0.5c0.1,0.1,0.1,0.2,0.1,0.2c0,0.4,0.1,0.8,0.2,1.2C74.7,78.1,74.7,78.4,74.7,78.7
			L74.7,78.7z"/>
		<path fill="#FADFD7" d="M74.6,84.9c0-0.1-0.1-0.2-0.1-0.3c-0.2-0.2-0.4-0.3-0.7-0.5c-0.1-0.1-0.2-0.3-0.1-0.4
			c0.2-0.3,0.4-0.4,0.7-0.2c0.9,0.5,1.7,1.1,2.4,1.9c0.1,0.1,0.1,0.3,0,0.4c-0.1,0.2-0.3,0.3-0.5,0.3c-0.6,0-1.2,0.1-1.8,0.1
			c0,0-0.1,0-0.1,0.1v0.1c0.2,0.2,0.4,0.5,0.7,0.7c0.1,0.1,0.1,0.3,0,0.4c-0.2,0.3-0.5,0.3-0.7,0.1c-0.6-0.5-1.2-1.1-1.9-1.6
			c-0.1-0.1-0.2-0.2-0.3-0.4c-0.1-0.2-0.1-0.4,0.1-0.5c0.5-0.3,1.1-0.4,1.7-0.2c0.2,0.1,0.3,0.1,0.5,0
			C74.5,85.2,74.6,85.1,74.6,84.9z"/>
		<path fill="#FADFD7" d="M62.5,93.6c0.4,0,0.7,0.1,0.9,0.1c0.1,0,0.2-0.1,0.3-0.1c0,0,0-0.1-0.1-0.1c-0.2-0.2-0.4-0.5-0.6-0.7
			c-0.1-0.1-0.1-0.2,0.1-0.4c0.2-0.2,0.4-0.2,0.6-0.1c0.4,0.3,0.8,0.7,1.3,1s0.7,0.8,1,1.3c0,0.1,0,0.3-0.2,0.4
			c-0.1,0.1-0.3,0.1-0.5,0.1s-0.4-0.1-0.6-0.2s-0.4-0.1-0.6-0.1c-0.1,0-0.3,0.3-0.2,0.4c0.1,0.2,0.3,0.3,0.4,0.5
			c0.1,0.1,0.1,0.3,0,0.4c-0.2,0.2-0.4,0.3-0.7,0.1c-0.4-0.2-0.8-0.4-1.1-0.7c-0.4-0.4-0.9-0.8-1.2-1.3c-0.1-0.1,0.1-0.4,0.2-0.4
			s0.2-0.1,0.3-0.1C62,93.6,62.3,93.6,62.5,93.6z"/>
		<path fill="#FADFD7" d="M52.9,100c0,0.1,0,0.1,0,0.2c-0.1,0.2-0.2,0.4-0.3,0.6c-0.2,0.3-0.7,0.5-0.3,0.9c0.4,0.2,0.6-0.2,0.8-0.4
			c0.1-0.1,0.2-0.1,0.3-0.2c0.1,0,0.2,0,0.3,0c0.2,0,0.4,0.3,0.3,0.4c-0.1,0.3-0.3,0.6-0.5,0.9c-0.1,0.1-0.1,0.2,0,0.3
			s0.2,0.1,0.3,0.1c0.2,0,0.3-0.1,0.5-0.1c0.1-0.1,0.3-0.1,0.4-0.2c0.1,0,0.4,0,0.4,0.2c0.1,0.1,0.1,0.3,0,0.4
			c-0.3,0.4-0.6,0.6-0.9,0.9c-0.3,0.2-0.6,0.2-0.9,0c-0.4-0.3-0.7-0.6-1.1-0.9c-0.5-0.4-1-0.9-1.4-1.4c-0.1-0.1,0-0.4,0-0.5
			c0.4-0.5,0.9-1,1.5-1.3C52.5,99.8,52.6,99.9,52.9,100C52.8,99.9,52.8,99.9,52.9,100z"/>
		<path fill="#FADFD7" d="M59.2,94.9c0-0.1,0-0.2,0.1-0.3c0-0.1,0.3-0.2,0.4-0.2c0.7,0.4,1.4,0.7,1.9,1.2c0.2,0.2,0.5,0.4,0.8,0.5
			c0.3,0.2,0.5,0.5,0.4,0.7c-0.1,0.1-0.2,0.2-0.3,0.3c-0.2,0.1-0.3-0.1-0.4-0.1c-0.4-0.1-0.8,0.2-0.8,0.6c0,0.2,0,0.3,0,0.5
			c0,0.1,0,0.2-0.1,0.3l-0.1,0.1c-0.2,0.2-0.6,0.1-0.7-0.1c-0.1-0.3-0.3-0.6-0.3-0.9c0-0.6-0.3-1-0.5-1.5
			C59.2,95.6,59.2,95.2,59.2,94.9z M61.1,96.3c0-0.1,0-0.2-0.1-0.3s-0.3-0.1-0.4-0.1c-0.2,0-0.3,0.2-0.2,0.3
			c0.1,0.1,0.1,0.2,0.2,0.3c0,0.1,0.3,0.1,0.3,0.1C61,96.5,61,96.4,61.1,96.3z"/>
		<path fill="#FADFD7" d="M56.4,101.9c0,0.2-0.2,0.4-0.4,0.5c-0.2,0.1-0.4,0-0.6-0.2c-0.1-0.1-0.2-0.3-0.2-0.4c0-0.2,0-0.4-0.1-0.6
			c0-0.3-0.2-0.5-0.5-0.6c-0.4-0.2-0.8-0.3-1.2-0.4c-0.1,0-0.1-0.1-0.1-0.3c0-0.1,0-0.2,0.1-0.3c0.1,0,0.2-0.1,0.3-0.1
			c0.2,0,0.3,0,0.5,0s0.3-0.2,0.3-0.3c0-0.2,0-0.4,0.1-0.6c0-0.1,0.2-0.3,0.3-0.4c0.1-0.1,0.2-0.1,0.3,0c0.2,0.1,0.3,0.3,0.4,0.5
			c0.1,0.6,0.4,1,1,1.2c0.3,0.1,0.6,0.3,0.9,0.4c0.1,0,0.1,0.2,0.1,0.3c0,0.3-0.3,0.5-0.5,0.4c-0.1-0.1-0.3-0.1-0.4-0.2
			s-0.4,0.1-0.3,0.2c0,0.2,0,0.3,0,0.5C56.3,101.7,56.4,101.8,56.4,101.9z"/>
		<path fill="#FADFD7" d="M73.5,88.4c-0.1,0.2-0.1,0.3-0.2,0.5c-0.1,0.5-0.3,0.8-0.7,1.1c-0.1,0.1-0.3,0.2-0.4,0.2
			c-0.3,0-0.5,0-0.8,0c-0.1,0-0.2,0-0.3-0.1c-0.5-0.3-0.9-0.8-1.2-1.3c-0.1-0.2-0.2-0.4-0.1-0.6c0.1-0.3,0.2-0.5,0.3-0.7
			c0.2-0.3,0.4-0.5,0.8-0.5c0.3,0,0.5,0,0.8,0c0.9,0,1.4,0.4,1.7,1.2C73.4,88.2,73.4,88.3,73.5,88.4z M72.5,88.6
			c0-0.3-0.3-0.9-0.5-0.9c-0.3-0.1-0.6-0.1-0.9,0c-0.4,0.2-0.6,0.7-0.3,1.1c0.2,0.3,0.4,0.5,0.7,0.7c0.1,0.1,0.3,0.1,0.5,0
			s0.4-0.3,0.6-0.5C72.5,88.8,72.5,88.7,72.5,88.6z"/>
		<path fill="#FADFD7" d="M58.2,96c0.1,0,0.2,0,0.3,0.1c0.1,0,0.2,0.1,0.3,0.2c0.6,0.6,0.6,1,0.3,1.7c0,0.1-0.1,0.2-0.1,0.3
			c0,0.2,0,0.3,0.1,0.5c0.2,0.2,0.3,0.4,0.5,0.6c0.1,0.2,0.1,0.4,0,0.6c-0.1,0.1-0.2,0.1-0.3,0.1c-0.4-0.1-0.7-0.5-1.1-0.7
			c-0.2-0.1-0.4-0.4-0.5-0.6c-0.2-0.3-0.5-0.6-0.7-0.8c-0.4-0.4-0.3-1.4,0.3-1.7c0.2-0.1,0.5-0.2,0.7-0.3C57.9,95.9,58,96,58.2,96z
			 M57.9,96.9c-0.2,0-0.4,0.2-0.4,0.4c0,0.4,0.2,0.6,0.6,0.6c0.3,0,0.4-0.2,0.4-0.6C58.5,97,58.3,96.9,57.9,96.9z"/>
		<path fill="#FADFD7" d="M66.8,94c-0.1,0-0.2,0-0.3-0.1c-0.1,0-0.2-0.3-0.1-0.4c0.1-0.2,0.3-0.3,0.5-0.4c0.1-0.1,0.1-0.3,0-0.4
			c-0.2-0.1-0.3-0.3-0.6-0.3c-0.4,0-0.8,0-1.1-0.1c-0.3,0-0.5-0.2-0.6-0.5c-0.2-0.3-0.1-0.7,0.1-0.9c0.3-0.3,0.6-0.6,1-0.8
			c0.2-0.1,0.5-0.1,0.8,0.1c0.2,0.2,0.2,0.4,0,0.5c-0.3,0.1-0.6,0.3-0.8,0.5c-0.1,0-0.1,0.2-0.1,0.3l0.1,0.1c0.2,0,0.3,0.1,0.5,0.1
			c0.3,0,0.5,0,0.8,0c0.6,0,1,0.3,1.3,0.8c0.1,0.1,0.1,0.3,0.1,0.5c-0.1,0.4-0.6,1-1.1,1C67.1,94,67,94,66.8,94z"/>
		<path fill="#FADFD7" d="M69.4,92.3c-0.3-0.2-0.4-0.4-0.3-0.6c0.1-0.3,0.1-0.5-0.1-0.7s-0.4-0.4-0.6-0.6s-0.5-0.3-0.7-0.2
			c-0.2,0-0.3,0-0.5,0c-0.1,0-0.2-0.3-0.2-0.4l0.1-0.1c0.4-0.5,0.9-0.9,1.5-1.1c0.2-0.1,0.3-0.1,0.4,0.1c0.1,0.1,0.2,0.2,0.1,0.4
			C69,89.2,69,89.3,69,89.4c-0.1,0.2,0,0.3,0.1,0.5s0.3,0.3,0.4,0.5c0.3,0.3,0.6,0.5,1,0.4c0.1,0,0.1,0,0.2,0
			c0.1,0.1,0.2,0.1,0.2,0.2s0,0.3,0,0.5c-0.5,0.3-0.9,0.8-1.4,1.1C69.5,92.3,69.4,92.3,69.4,92.3z"/>
		<path fill="#78433F" d="M55.8,93.1c-0.4-0.1-0.8-0.3-1-0.7c-0.2-0.2-0.3-0.4-0.5-0.7c-0.1-0.2-0.3-0.3-0.5-0.5
			c-0.1-0.2-0.2-0.4-0.3-0.6c0-0.1,0-0.3,0.1-0.4c0.2-0.2,0.5-0.4,0.7-0.6c0.2-0.1,0.3-0.1,0.5-0.1c0.3,0.1,0.5,0.2,0.7,0.3
			c0.4,0.4,0.8,0.7,1.3,1c0.1,0.1,0.2,0.3,0.3,0.4c0.1,0.2,0.1,0.4,0.1,0.5c-0.1,0.2-0.2,0.4-0.3,0.6c-0.1,0.2-0.3,0.3-0.5,0.4
			C56.2,93,56,93.1,55.8,93.1z M55.9,91.3c-0.1,0-0.2,0-0.2,0c-0.2,0.1-0.3,0.2-0.3,0.4c-0.1,0.3,0.2,0.6,0.5,0.6
			c0.1,0,0.2,0,0.2-0.1c0.1-0.1,0.2-0.2,0.3-0.3c0.2-0.3,0-0.7-0.3-0.7C56,91.3,56,91.3,55.9,91.3z M54.3,90.7c0,0.1,0,0.2,0.1,0.2
			s0.2,0.1,0.2,0.1c0.1,0,0.2-0.1,0.3-0.2c0.1-0.1,0.1-0.2,0-0.3c-0.2-0.2-0.4-0.2-0.5,0C54.4,90.5,54.4,90.6,54.3,90.7z"/>
		<path fill="#78433F" d="M61.4,89c0,0,0,0.2-0.1,0.3c-0.1,0.2-0.2,0.4-0.3,0.6c-0.2,0.3-0.8,0.5-1.1,0.3c-0.2-0.1-0.4-0.2-0.6-0.3
			c-0.6-0.5-1.1-1-1.6-1.6c-0.1-0.1-0.1-0.3,0-0.4c0-0.1,0.1-0.2,0.2-0.4c0.1-0.3,0.3-0.4,0.6-0.5c0.1,0,0.3,0,0.4-0.1
			c0.4-0.2,0.6,0,0.9,0.2c0.2,0.4,0.6,0.6,0.9,0.7s0.4,0.3,0.6,0.5C61.4,88.5,61.5,88.7,61.4,89z M59.6,89c0.1,0.1,0.2,0.2,0.3,0.3
			c0.3,0.2,0.6,0.2,0.8-0.1l0.1-0.1c0.2-0.3,0-0.7-0.3-0.7c-0.1,0-0.2,0-0.3,0.1C59.9,88.6,59.7,88.7,59.6,89z M58.4,87.9
			c0,0.2,0.1,0.3,0.3,0.4c0.2,0.1,0.3,0,0.4-0.1s0.1-0.1,0.2-0.2v-0.1c0-0.1,0-0.2-0.1-0.2C58.8,87.4,58.4,87.5,58.4,87.9z"/>
		<path fill="#78433F" d="M63.5,84.1c0.1,0,0.2,0.1,0.2,0.1c0.1,0.1,0.1,0.1,0.1,0.2c0,0,0,0.1-0.1,0.1c-0.2,0.3-0.2,0.6,0,0.9
			s0.4,0.5,0.5,0.8c0.1,0.2,0.2,0.4,0.3,0.6c0,0.1-0.1,0.2-0.1,0.2c-0.1,0-0.2,0.1-0.2,0.1C64.1,87.1,64,87,64,87
			c-0.2-0.2-0.5-0.4-0.7-0.7c-0.2-0.2-0.4-0.5-0.7-0.6c-0.2-0.1-0.5-0.1-0.7-0.1c-0.1,0-0.1-0.1-0.1-0.2v-0.1
			c0.4-0.3,0.8-0.6,1.2-0.9C63.1,84.2,63.3,84.1,63.5,84.1z"/>
		<path fill="#78433F" d="M60.6,86.4c0.3,0,0.5,0,0.7,0.2c0.3,0.4,0.7,0.7,1.1,1c0.1,0.1,0.2,0.2,0.3,0.3c0.1,0.1,0.1,0.3,0,0.4
			c-0.1,0.2-0.3,0.3-0.4,0.2s-0.3-0.2-0.4-0.3c-0.4-0.4-0.7-0.8-1.1-1.2C60.6,86.8,60.7,86.6,60.6,86.4L60.6,86.4z"/>
		<path fill="#78433F" d="M57.8,89.3c0,0.1,0,0.2,0,0.3c-0.1,0.2-0.3,0.4-0.6,0.6c-0.1,0.1-0.3,0-0.4-0.1c0-0.1-0.1-0.2,0-0.3
			c0.1-0.3,0.4-0.5,0.7-0.6C57.6,89.1,57.8,89.2,57.8,89.3z"/>
		<path fill="#78433F" d="M60.7,86.4c-0.1,0-0.3,0-0.4,0s-0.2-0.2-0.1-0.3c0-0.1,0.1-0.1,0.2-0.2s0.3,0,0.3,0.1
			C60.6,86.2,60.6,86.3,60.7,86.4L60.7,86.4z"/>
	</g>
</g>
</svg>
