<?xml version="1.0" encoding="utf-8"?>
<!-- Generator: Adobe Illustrator 18.1.1, SVG Export Plug-In . SVG Version: 6.00 Build 0)  -->
<!DOCTYPE svg PUBLIC "-//W3C//DTD SVG 1.0//EN" "http://www.w3.org/TR/2001/REC-SVG-20010904/DTD/svg10.dtd">
<svg version="1.0" id="Layer_1" xmlns="http://www.w3.org/2000/svg" xmlns:xlink="http://www.w3.org/1999/xlink" x="0px" y="0px"
	 viewBox="0 0 612 792" enable-background="new 0 0 612 792" xml:space="preserve">
<g id="Empty">
	<path fill="#78433F" d="M585.7,779.4c-1.4-3.2-0.7-6.8-1.1-10.1c-0.4-2.2-0.4-4.7-1.8-6.5c-1.1-2.2-1.8-4.3-1.8-6.5
		c0-2.2-0.4-4.7-1.1-6.8c-0.7-2.2-0.4-4.7-1.4-6.5c-1.4-2.2-0.4-5-1.8-7.6c-0.4-0.7-0.4-2.2-0.4-3.2c0.4-4.3-1.8-8.3-2.2-12.6
		c-1.4-2.5-1.1-5.8-2.2-8.3c-0.7-1.8-1.1-3.2-1.1-5c0.4-2.9-1.8-5-1.8-7.6c0-2.2-0.4-4.7-0.4-6.8c-1.4-2.5-0.7-5.8-2.2-8.3
		c-1.4-2.5-0.4-5.8-2.2-8.3c-0.7-2.9-1.4-5.4-1.8-8.3c-0.4-2.9-1.8-5.4-2.5-8.3c-0.4-1.8-1.4-3.6-1.4-5.8c0-1.1-0.7-2.2-1.1-3.2
		c-0.7-3.2-2.5-6.5-2.5-10.1c0-1.1-0.4-2.2-1.1-3.2c-0.4-0.4-0.4-1.1-0.7-1.4c-3.2-7.6-3.2-7.6-5-16.2c0-0.7,0-1.1-0.4-1.8
		c-1.4-2.9-2.9-5.8-3.2-9c-0.4-3.6-2.5-6.1-3.6-9.7c-0.7-2.9-2.5-5.8-4-8.6c-2.9-6.5-5.4-13.3-7.9-19.8c-0.4-0.4-0.4-1.1-0.4-1.8
		c-1.4-2.9-3.2-5.4-4.3-8.3s-2.5-5.8-4.3-8.3c-1.1-1.8-2.2-3.6-2.9-5.4c-3.2-6.8-7.6-13-11.5-19.1c-0.7-1.1-1.8-2.2-2.5-3.6
		c-2.2-4-4.3-7.2-6.8-10.8c-4.3-5.8-8.3-11.9-12.2-17.6c-4-5.4-7.6-11.5-11.5-17.3c-3.2-4.7-6.8-9-10.1-14c-1.4-2.5-3.6-4.7-5.8-6.5
		c-5.4-5-9.7-10.4-14.4-15.8c-5.4-5.8-11.2-10.8-17.3-15.5c-2.2-1.8-4.3-3.6-6.8-5.4c-0.7-0.7-1.8-1.4-2.9-2.2
		c-3.6-1.4-5-4.3-6.5-7.6c-1.4-2.9-2.5-5.8-4.7-8.3c-0.4-0.4-0.4-0.4-0.4-0.7c-1.8-5.8-6.1-9.7-10.4-13.7c-1.1-0.7-1.8-1.8-2.9-2.9
		c-1.1-0.4-2.2-0.7-2.9-1.1c-1.4,0.4-2.9,0.4-4.3,0.4c-1.1,1.1-2.5,2.2-4,2.9c-1.8,2.9-4,5.4-6.8,7.6c-3.2,6.1-8.3,11.5-14,15.5
		c-1.4,1.4-2.9,2.9-4.3,4c-1.8,1.8-4,2.9-6.5,4c-14,18-43.6,14.4-63,9.7c-13.3-3.2-25.9-7.9-38.9-13c-6.1-2.5-12.2-5-18.4-7.6
		c-1.8-0.7-13.3-5.4-6.8-2.9c-1.8-0.7-4-1.8-5.4-2.9h-0.4c-2.2-0.7-4-1.8-6.1-2.5c-2.2-1.1-4.3-2.9-5.8-4.7
		c-1.4-1.4-2.5-2.9-3.6-4.3c-0.7-0.4-1.8-0.7-2.5-1.4c-0.7,0-1.8,0-2.5,0c-0.7,0.7-1.4,1.8-2.2,2.5c-0.7,1.4-1.4,2.9-2.5,4.3
		c-3.6,4-5.4,8.6-8.6,13c-1.4,3.6-4,7.2-4.3,11.2c0,0.7-0.4,1.1-0.4,1.8c-1.4,3.2-1.1,6.1,0,9.4c0.4,0.4,0.4,1.1,0.7,1.4
		c0.4,1.4,0.4,2.9-1.1,4c-3.6,2.2-6.8,5.4-9.7,8.3c-3.2,3.2-6.5,6.5-10.1,9.7c-1.8,1.8-4,3.2-6.1,4.7c-2.2,1.8-3.6,3.6-6.1,4.7
		c-0.4,0.4-1.1,0.7-1.4,1.1c-4,4-8.6,6.8-12.2,10.8c-4,4-7.9,7.6-11.5,11.5c-2.2,2.2-4.3,4.3-6.8,6.8c-7.9,7.9-15.8,15.8-23.8,23.8
		c-0.7,0.7-1.1,1.1-1.8,1.8c-0.4,0.4-0.7,0.7-1.1,1.4c-1.4,3.2-4.3,5.4-6.1,8.3s-4,5.8-5.8,8.6c-1.4,2.5-3.2,4.7-5,6.8
		c-1.1,1.1-2.2,2.9-2.9,4.3c-2.9,4.7-6.1,9-9,13.7c-1.8,3.2-5,5.8-6.1,9.4c-0.7,3.2-2.5,6.5-4.3,9.4c-1.4,3.2-2.9,6.1-4.7,9.4
		c-1.8,3.2-2.9,7.9-4.3,13c-0.7,2.9-1.1,5.4-1.4,8.3c-0.4,1.8-1.1,3.2-1.1,5c-0.4,1.8-0.4,3.6-0.4,5c0.4,2.9-1.4,5-1.8,7.6
		c0,2.5-0.4,5-0.7,7.6c-1.4,2.2-1.1,4.3-1.1,6.8c-0.4,4,0,7.9-1.4,11.9c0,2.5-0.4,5-0.4,7.9c0,5-0.4,9.7-0.4,14.8
		c0,0.7,0,1.8-0.4,2.5c-1.1,2.2-1.1,4.3-1.1,6.8c0,11.9,0,23.8,0,35.3c0,4.3,0,8.6,0,13c0,0.7,0,1.8,0.4,2.5
		c1.8,3.6,1.1,7.2,1.4,11.2c0.4,3.6-0.4,7.6,1.4,11.2c0,2.2,0.4,4.7,0.4,6.8c0,2.2,0,4.7,1.1,6.8c0.7,1.1,0.4,2.9,0.4,4.3
		c0,1.8,0,3.6,0.4,5c0.4,1.4,1.1,2.9,2.5,3.2c3.2,0.7,5.8,2.5,9.4,2.2c0.7,0,1.1,0,1.8,0c3.6,1.8,7.9,1.4,11.9,1.8
		c2.9,0,5.8,0,8.6,1.1c0.7,0.4,1.8,0,2.5,0c3.6,0.4,7.6,0,11.2,1.4c0.7,0.4,1.8,0,2.5,0.4c8.3,0,16.6,0.7,25.2,0
		c2.2,0,4.7,0.4,6.8-1.1c0.4-0.4,1.1-0.4,1.8-0.4c6.5,0.4,12.6-0.7,19.1-0.4c12.2,0,24.1,0.4,36.4,0c4,0,7.9,0.4,12.2,0.4
		c0.7,0,1.1,0,1.8,0.4c3.2,1.8,6.8,1.1,10.1,1.1c13.3,0,26.6,0,39.6,0c5.4,0,10.8,0,16.6-0.4c1.1,0,2.2-0.4,3.2-0.7
		c2.2-0.7,4-0.7,5.8,0c3.2,1.1,6.8,1.1,10.1,0c3.2-1.1,6.1-1.1,9.4,0c1.8,0.7,3.2,0.7,5,0.4c6.5-1.4,9-1.4,16.2,0
		c2.2,0.4,4,0.4,5.8-0.4c1.8-0.7,3.2-0.7,5,0c0.7,0.4,1.8,0.7,2.5,0.7c4.7,0,9.4,0,13.7,0c0.7,0,1.1,0,1.8,0c4-1.8,8.6-1.1,12.6-1.4
		c5.8-0.4,11.5,0,17.3,0c0.7,0,1.1,0,1.8,0c2.5,0.4,5-1.8,7.6-1.1c2.2,0.7,4.3,1.1,6.8,1.1c2.5,0,5,0,7.9,0.4c2.2,0,4.7,0,6.8,0.4
		c0.7,0,1.8,0,2.5,0c5.8,2.2,11.9,0.7,18,1.1c1.1,0,2.2-0.4,3.2-0.7c0.7-0.4,1.8-0.4,2.5-0.4c1.4,0,2.9,0.7,4.3,1.1
		c1.1,0,2.2-0.7,3.2-0.4c1.1,0.4,2.2,0.4,3.2,0.7c2.2,0,4,0,6.1,0s4.7-0.4,6.8-0.4c1.8-1.1,4,0.7,5.8-0.7c1.4,0,2.9-0.4,4.3-0.4
		c6.5,0,13.3,0,19.8,0c3.6,0,6.8,0,10.1,1.1c3.2,1.1,6.8,0.7,10.1,0c5.4-1.1,10.8-1.1,16.2-1.1c1.1,0,2.2,0.4,3.2,0.7
		c1.4,0.7,2.9,0.7,4,0c0.4,0,0.4-0.4,0.7-0.4c4.3,0,8.6,0,13,0c3.6,1.8,7.2,1.1,11.2,1.1c2.5,0,5,0,7.9,0c2.2,0,4,0,5.8-1.1
		c0.7-0.4,1.8,0,2.5,0.4c0.7,0,1.8,0.7,2.5,0.4c2.5-1.1,5-1.1,7.6-1.1c5,0,9.7-0.4,14.8-0.4c0.7,0,1.8-0.4,2.5-0.4
		c1.1-0.4,2.2-1.4,2.2-2.5c0.4-2.5,0.4-5,1.4-7.6C586.1,780.8,586.1,779.8,585.7,779.4z"/>
	<path fill="#F8C7BC" d="M185.4,442.4c2.2,1.8,4.3,3.6,7.2,4.3c5.8,4,13,6.5,18.7,10.8c0.4,0.4,1.1,0.7,1.4,0.7
		c1.8,0.4,3.2,1.4,4.7,2.5c0.7,0.7,1.8,1.4,3.2,1.4c1.1,0,2.2,0.7,2.9,1.4c1.1,1.1,2.2,2.2,3.2,2.9c5,2.5,9.7,6.1,15.1,8.6
		c8.3,3.6,15.8,8.3,23.4,13c2.9,1.8,5.4,3.2,8.3,4.7c1.1,0.7,2.5,1.1,4,1.8c1.4,0.7,3.2,1.1,5,1.8c2.5,1.1,5,0.4,7.6,1.8
		c3.2,0.4,6.8,1.1,10.1-0.7c0.7-0.4,1.8-0.4,2.5-0.7c0.7-0.4,1.8-0.7,2.2-1.1c3.2-2.5,6.1-5,6.8-9.4c1.8-3.2,3.2-6.8,3.6-10.4
		c0.4-1.8,1.4-3.6,2.2-5.8c0-0.4,0.4-0.4,0.7-0.4c0.7-0.4,1.1-0.4,1.4,0.4c2.2,3.6,3.2,7.2,4.7,11.2c1.4,4.3,3.2,8.6,4.3,13
		c1.4,4.7,3.2,9,4,14c1.4,2.2,1.4,5,1.4,7.6c0,0.7,0,1.8,0.4,2.5c2.2,3.6,0.7,7.9,2.9,11.5c0,3.6,1.4,7.2,2.2,11.2
		c0.4,1.8,1.1,4,1.4,5.8c0.4,2.5,1.1,5,1.4,7.6c0.7,2.9,0.4,5.8,0.7,8.6c0,0.7,0.4,1.1,0.4,1.8c0.7,1.4,0.7,3.2,0.7,5
		c0,2.2,0.4,4,0,6.1c-0.4,2.5,1.1,4.3,1.4,6.8c0.4,2.5,0.4,5,0.4,7.9c0,1.1,0,2.5,0.4,3.2c1.1,2.2,1.1,4.3,1.1,6.8
		c0,1.8,0,3.6,0.4,5c1.1,2.5,1.1,5,1.1,7.6c0,2.2,0.4,4,0.4,6.1c1.4,2.5,1.1,5,1.1,7.6c0.4,2.9,0,5.8,0.4,8.6c0,1.1,0,2.5,0.4,3.2
		c0.7,2.2,0.7,4.7,1.1,6.8c0,4,0.4,7.9,0.4,12.2c0,1.4,0,2.9,0.7,4.3c0.4,1.1,0.4,2.2,0.4,3.2c0.4,6.5,0.4,12.6,0.4,19.1
		c0.4,8.3-1.1,16.6,1.1,24.8c0.4,0.7,0,1.8,0,2.5c0,1.8,0,3.6,0,5c0,2.2,0,4-0.7,5.8c-0.4,0.7-0.4,1.8-0.4,2.5
		c0,4.7-0.4,9.4-0.4,13.7c0,8.6,0,17.3,0,25.9c0,0.7,0,1.8,0,2.5c-1.4,2.9-1.1,6.1-1.4,9.4c0,3.2-1.1,6.1-1.8,9.4
		c0,0.7-1.1,1.4-1.8,1.4c-2.2,0-4.7,0.4-6.8,0.4c-2.5,0-4.3,1.8-6.8,1.4c-0.7,0-1.8,0-2.5,0c-2.2,0-4.7,0-6.8,0
		c-8.6,0-17.3,0-25.9,0c-1.8,0-3.6,0-5,0.7c-0.7,0.4-1.8,0.4-2.5,0c-1.4-0.7-2.9-0.7-4.3-0.7c-13,0-25.9,0-38.9,0
		c-20.5,0-41,0-61.2-0.4c-1.1,0-2.5,0-3.6-0.4c-3.2-1.4-6.8-1.1-10.1-1.1c-3.6,0-7.6,0-11.2,0c-1.1,0-2.2,0-3.6,0
		c-1.4,0-2.2-0.7-2.2-2.2c0-4-0.4-7.9-0.4-12.2c0-1.1,0.4-2.5-0.4-3.6c-1.4-3.2-1.1-6.8-1.4-10.1c0-1.4,0-2.9-0.7-4.3
		c-0.7-2.2-1.1-4.3-1.1-6.8c0-1.8-0.4-3.6-1.1-5c-0.4-0.4-0.4-1.1-0.4-1.8c0-2.2-0.4-4.7-0.4-6.8c0-2.5-1.4-5-1.4-7.6
		c0-0.4,0-0.7,0-0.7c-0.4-4,0-7.9-1.8-11.9c0-3.6-1.4-6.8-1.8-10.1c-0.4-2.2-1.8-3.6-1.8-5.8c0-2.5-1.4-5-1.8-7.6
		c0-2.9-1.4-5.4-2.2-8.3c-0.4-1.8-1.4-3.6-1.4-5.8c0-4.3-1.4-8.3-2.5-12.6c-1.4-5-3.2-10.4-5-15.5c-1.8-5.4-3.6-10.8-5.8-16.2
		c-0.7-2.5-1.4-5-2.5-7.2c-4-7.9-7.9-15.8-11.9-23.8c-1.8-3.6-4.3-6.8-6.5-10.1c-0.4-0.4-0.7-0.7-1.4-1.1c-0.4-0.4-1.1-0.4-1.4,0
		c-0.7,0-0.7,0.7-0.7,1.4c0,1.4,1.4,2.5,1.8,4c2.9,2.9,4.3,6.8,6.1,10.4c1.8,4,4,7.6,5.4,11.5c1.4,4.3,4.3,8.3,5.8,12.6
		c0.4,0.4,0.7,1.1,0.7,1.4c0.4,0.7,0.7,1.8,0.7,2.5c0,2.5,1.1,4.3,2.2,6.5c2.5,5,3.6,10.8,6.1,15.8c0.4,2.5,0.4,5,1.8,7.6
		c0,2.5,1.4,5,1.8,7.6c0.4,2.9,1.8,5.4,1.8,8.3c0,2.5,1.8,4.7,2.2,7.6c0,1.8,1.4,4,1.4,5.8c0.4,2.2,1.1,4,1.4,5.8
		c0.7,3.2,2.2,6.5,2.2,10.1c0,1.4,0.4,2.9,1.1,4.3c0.4,0.7,0.4,1.8,0.7,2.5c0.4,3.6,0,7.6,1.8,11.2c0,2.5,0.4,5,0.4,7.9
		c0,1.8,0,3.6,0.7,5c0.7,1.8,0.7,3.2,1.1,5c0.4,3.2,0.7,6.1,1.4,9.4c0.7,3.2,0.7,6.8,0.7,10.4c0,0.4,0,0.7,0,0.7
		c1.1,2.2,1.1,4.3,1.1,6.8c0,3.6,0,6.8,1.4,10.1c0,0.4,0,0.7,0,0.7c0,0.7-0.4,1.8-1.1,2.2c-1.8,1.1-3.6,1.8-5.8,1.8
		c-6.1,0-12.2,0-18,0c-5.4,0.4-10.8-0.7-16.2,1.4c-0.7,0.4-1.8,0.4-2.5,0.4c-7.6,0-15.1,0.4-22.3,0c-2.2,0-4.7,0-6.8-0.7
		c-2.5-0.7-5-0.7-7.6-1.1c-1.4,0-2.9-0.4-4.3-0.4c-2.5,0-5-1.4-7.6-1.4c-2.5,0.4-5,0-7.9-0.4c-2.5,0-5,0-7.6-1.4
		c-1.1-0.4-2.2-0.4-3.2-0.4c-1.1,0-2.2-0.4-3.2-0.4c-1.1-0.4-2.2-1.1-2.5-2.2c-0.7-2.9-1.4-5.8-2.2-8.3c-0.7-1.8-1.1-4-1.4-5.8
		c0-2.2,0-4.7-0.7-6.8c-0.4-1.8-0.7-3.2-0.7-5c0-3.6-0.4-7.6-0.4-11.2c0-1.4,0-2.9-0.4-4.3c-0.7-1.8-0.7-4-0.7-5.8
		c0-3.6,0-7.6,0-11.2c0-12.6,0-25.2,0-38.2c0-1.1,0-2.5,0.4-3.2c1.1-2.9,1.1-5.8,1.1-8.6c0-3.6,0-7.6,0.4-11.2c0-1.1,0-2.5,0.4-3.2
		c1.1-2.2,1.1-4.3,1.1-6.8c0-2.2,0-4,0.4-6.1c1.8-3.6,1.4-7.2,1.4-11.2c0-1.1,0-2.5,0.4-3.2c1.1-2.2,1.1-4.3,1.1-6.8
		c0-1.4,0-2.9,0.4-4.3c0.7-2.2,1.4-4.3,1.4-6.8c0-2.5,1.4-4.3,1.8-6.5c0.4-3.2,2.5-9.4,3.6-11.5c2.2-4,4.7-7.9,5.8-12.6
		c2.5-2.5,2.9-6.1,4.7-9.4c1.1-2.2,2.2-4,3.2-6.1c4.3-6.8,8.6-13.3,14-19.4c2.2-4,5.4-7.2,7.9-11.2c7.6-11.5,7.6-11.5,17.3-21.2
		c1.8-1.8,3.2-3.2,5-5c8.3-8.3,16.2-16.2,24.5-24.5c6.5-6.8,14-12.6,21.2-19.1c0.4-0.4,1.1-0.7,1.4-1.1c2.2-0.7,4-2.5,5.4-4.3
		c1.4-1.4,2.9-2.9,4.3-4c2.5-1.4,4.3-3.6,6.5-5.8c4.3-4.7,9-8.6,14.8-11.9C181.8,439.9,183.6,441,185.4,442.4z M76.7,567.4
		c0.4,0.4,0.4,1.1,0.7,1.4c3.6,2.2,6.8,5,9.7,8.3c0.7,0.7,2.2,0.7,3.2,0.7c0.4,0,0.4-0.4,0.7-0.4c0,0,0-0.4,0-0.7
		c0-0.4-0.4-0.4-0.4-0.7c-3.6-3.6-7.9-6.5-11.9-9.7c-0.4-0.4-2.2,0-2.2,0.7C76.7,566.6,76.7,567,76.7,567.4z"/>
	<path fill="#F8C7BC" d="M441.4,788.4c-12.2,0-24.8,0-37.1,0c-4.7,0-9.4,0-13.7-0.4c-0.7,0-1.8-0.4-2.5-0.4c-0.7,0-2.2-1.8-2.2-2.5
		c0-0.7,0-1.1,0-1.8c0-15.1,0-29.9-0.4-45c0-2.9,0.4-5.8-1.1-8.6c-0.4-0.7,0-1.8,0.4-2.5c0.4-1.1,0.7-2.2,0-3.2
		c-0.7-1.4-0.7-3.2-0.4-5c1.1-3.6,1.4-7.2,0-11.2c-0.7-2.2-0.7-4.7,0-6.8c1.4-3.6,0.7-7.2,0.4-11.2c-1.1-2.2-1.1-4.3-1.1-6.8
		c0-7.6,0-15.1-0.4-22.3c0-1.8,0-3.6-0.4-5c-1.1-2.9-0.7-5.8-1.1-8.6c-0.4-3.6-0.4-6.8-0.4-10.4c-1.8-3.2-1.1-6.8-1.4-10.1
		c0-2.2-0.4-4.7-0.4-6.8c0-2.2-0.4-4.7-1.1-6.8c-0.7-2.2,0-4.7-0.7-6.8c-1.1-3.2-1.1-6.8-1.4-10.1c0-0.7,0-1.8-0.4-2.5
		c-1.4-2.9-1.1-6.1-1.4-9.4c0-1.4-0.4-2.9-0.7-4.3c-0.4-1.4-0.7-2.9-1.1-4.3c0-1.8-1.8-3.2-0.7-5c-1.1-2.5-0.7-5.8-1.4-8.3
		c-1.1-3.2-1.1-6.1-1.4-9.4c0-0.7,0-1.1-0.4-1.8c-1.1-2.2-1.1-4.3-1.1-6.8c0-2.5,0-5-1.4-7.6c0-2.9-1.4-5.4-1.8-8.3
		c-0.4-2.2-0.4-4.7-1.4-6.8c-1.1-2.2-0.4-4.7-1.8-6.5c-0.7-5.4-3.2-10.4-4.3-15.5c-1.8-2.5-1.1-6.1-2.5-9c-1.4-2.5-1.4-5.4-2.9-7.9
		c-1.1-2.5-1.4-5-2.5-7.2c-1.4-2.5-2.2-5.4-2.9-7.9c-1.1-4-2.9-7.6-4.7-11.2c-2.5-4.7-4.7-9.7-7.9-14.4c-0.7-1.1-0.4-2.9,0.7-4
		c0.7-0.7,1.8-1.1,2.2-0.7c4.7,3.6,9,8.3,12.2,13c3.6,5,6.5,10.1,10.1,14.8c1.4,2.9,4,4.7,6.5,6.5c1.4,1.1,3.2,1.8,4.7,1.8
		s3.2-0.4,5-1.1c3.2-1.4,6.1-2.9,7.9-6.1c0.7-1.1,1.4-1.8,2.2-2.5c1.1-0.7,2.2-1.8,2.9-2.9c1.8-2.5,3.6-5,5-7.9
		c0.7-1.8,1.8-3.6,2.9-5.4c4.7-6.8,8.3-14.4,11.5-22c0.7-1.4,1.4-2.5,1.8-4c0.4-0.4,1.8-0.7,2.2-0.4c0.4,0.4,1.1,0.7,1.4,1.1
		c4,2.5,7.2,5.8,10.8,8.6c2.5,1.8,4.7,3.6,6.5,5.4c6.5,6.5,13.3,13,19.8,19.4c2.5,2.5,5,5.4,6.8,8.6c1.8,2.9,3.6,5.8,6.1,8.3
		c0.7,0.7,1.4,1.1,1.8,1.8c2.9,4.7,6.5,9,9.4,13.3c1.8,2.5,3.2,5.4,5.4,7.9c2.9,3.2,4.7,7.2,7.6,10.4c2.9,3.2,5,7.2,7.2,10.8
		c1.4,2.5,3.2,4.7,4.7,7.2c0.7,1.1,1.1,2.2,1.8,2.9c3.2,3.2,5,7.2,6.8,10.8c2.5,5.4,5.4,10.1,8.6,14.8c0.7,1.1,1.4,1.8,1.8,2.9
		c0.7,2.9,2.2,5.4,3.6,7.6c2.2,2.9,3.6,5.8,4.7,9c0.7,2.5,2.2,4.7,2.9,7.2c0.7,2.5,1.4,5,2.5,7.2c0.7,2.2,1.4,4.3,2.5,6.5
		c2.2,4,4.3,7.9,4.7,13c0,0.4,0.4,1.1,0.7,1.4c1.8,5.4,4,10.8,5.4,16.2c0.7,3.2,1.8,6.5,3.2,9.7c1.4,2.9,2.5,5.8,2.5,9
		c0,1.1,0.7,2.2,1.1,3.2c0.7,3.2,2.2,5.8,2.2,9c0,0.7,0.4,1.8,0.7,2.5c1.1,2.5,2.2,5.4,3.2,7.9c0.4,1.1,1.1,2.2,1.1,3.2
		c0,2.5,1.1,4.3,1.8,6.5c1.8,5,1.8,5,1.8,10.1c0,2.9,0,5.8,1.4,8.3c0.4,3.2,2.2,6.5,1.8,10.1c0,0.7,0,1.8,0.4,2.5
		c1.1,2.2,1.1,4.3,1.4,6.5c0.4,2.2,1.1,4.3,2.2,6.5c0.7,1.8,1.1,3.2,1.1,5c0,2.2,0,4.7,0,6.8c0,2.2,0.4,4.3,1.4,6.5
		c1.4,3.2,2.2,6.5,2.2,10.1c0,1.8,0,3.6,0.4,5c1.1,2.5,1.4,5,1.4,7.6c0,2.2,0.7,4,1.4,5.8c1.4,2.2,1.8,4.7,1.8,7.6
		c0,3.2-0.4,6.5-0.4,9.4c0,0.7-0.7,1.8-1.4,1.8c-2.5,0.4-5,1.4-7.6,1.4c-6.5,0.4-13.3,0.4-19.8,0.7c-0.7,0-1.8,0-2.5-0.4
		c-0.4,0-1.1-0.7-1.1-1.1c-1.1-2.5-2.2-5.4-1.1-8.3c0.4-0.7,0.7-1.4,0.4-2.5c-1.1-1.8-0.7-4-0.7-6.1c0-3.6-0.4-7.6-0.4-11.2
		c-1.4-3.2-1.1-6.8-1.4-10.1c0-0.7,0-1.8-0.4-2.5c-1.4-2.9-1.1-6.1-1.4-9.4c0-2.2,0-4.7-1.1-6.8c-0.4-0.7-0.4-1.8-0.4-2.5
		c0-4.3,0-8.6-1.8-12.6c0-4.3-2.5-8.3-2.2-12.6c0-1.1-0.7-2.2-1.1-3.2c-1.1-3.6-2.2-7.2-2.9-10.8c-1.8-3.6-1.4-7.9-2.5-11.5
		c-0.7-1.8-0.4-4-0.7-6.1c-0.4-1.8-1.4-3.6-1.4-5.8c0-2.9-1.8-5.4-2.2-8.3c0-1.1-0.7-2.2-1.1-3.2c-3.2-8.3-5.8-16.9-8.6-25.2
		c-1.1-3.2-1.8-6.5-3.2-9.7c0-4-2.2-7.2-3.6-10.4c0-0.4,0-0.7,0-0.7c-1.1-3.2-2.2-6.5-3.6-9.7c-0.7-1.8-1.4-3.6-1.8-5.8
		c-0.4-2.5-1.1-5-2.2-7.2c-1.8-3.2-2.2-7.2-4-10.4c0-2.2-1.1-4-2.2-5.8c-1.1-2.2-1.8-4.3-2.5-6.5c-1.1-2.5-1.4-5.8-3.6-7.9
		c-0.4-0.4-0.7-1.1-0.7-1.4c-0.7-3.6-2.9-6.8-4.3-10.1c-1.1-2.5-2.5-5-3.6-7.6c-0.7-1.8-1.1-4-1.8-5.8c-0.7-1.8-1.1-4-2.5-5.4
		c-1.4-1.4-1.1-4-2.5-5.4c-0.4-0.4-0.4-0.4-0.7-0.7c-0.4,0-0.7-0.4-0.7-0.4c-0.4,0.4-0.7,0.7-0.7,1.1c-0.4,1.4-0.4,3.2,0.7,4
		c2.5,2.5,2.9,6.1,4.3,9.4c0.7,1.4,1.1,3.2,1.8,4.7c2.5,5,5,9.7,6.5,14.8c0.4,0.7,0.7,1.8,1.1,2.5c1.4,2.9,3.2,5.4,3.2,8.6
		c0,0.7,0.7,1.4,1.1,2.5c1.8,3.6,3.2,7.2,4.3,11.2c0.7,2.9,1.8,5.4,3.2,7.9c0.7,1.8,1.4,3.6,1.8,5.8c0.4,2.9,1.4,5.4,1.8,8.3
		c1.8,3.2,2.9,6.8,4.3,10.4c0.7,1.8,1.8,3.6,2.2,5.4s1.1,3.2,1.4,5c0.7,1.8,1.4,3.6,1.8,5.8c0.4,2.5,1.8,4.7,2.2,7.6
		c0.4,1.4,1.4,2.5,2.2,3.6c0.4,0.7,0.7,1.4,0.7,2.5c0.4,2.2,1.1,4,1.4,5.8c0.7,1.8,1.4,3.2,1.8,4.7c0.7,1.8,1.4,4,1.8,5.8
		c0.4,2.5,1.4,5,2.2,7.6c1.1,2.9,2.2,6.1,1.8,9.4c0,1.4,0.4,2.9,1.1,4.3c0.7,1.4,1.1,2.9,0.7,4.3c-0.4,3.6,1.1,6.8,2.2,10.1
		c0.4,1.8,1.4,3.6,1.8,5.8c0.7,3.2,1.8,6.1,1.8,9.4c1.1,2.5,1.4,5.4,1.8,8.3c0,0.7,0.4,1.1,0.4,1.8c0.7,1.4,1.1,2.9,1.1,4.3
		c0,2.5,0.7,5,2.2,7.2c1.1,1.8,1.4,3.6,1.4,5.8c0,2.2,0,4.7,0,6.8c0,1.1,0,2.5,0.4,3.2c1.1,2.5,1.4,5,1.1,7.6
		c0,3.6-0.4,6.8,1.4,10.1c0.4,0.7,0.4,1.8,0.4,2.5c0,2.9,0.4,5.8,0,8.6c0,4.3-0.4,8.6-0.4,13c0,1.8-2.2,3.6-4,3.6
		c-6.5,0-13.3,0-19.8,0c-2.2,0-4,0-5.8-1.1c-1.4-0.7-2.9-0.7-4.3-0.7c-4.7,0-9.4-0.4-13.7,1.4c-0.7,0.4-1.8,0.4-2.5,0.4
		c-4.7,0-9.4,0-13.7,0C466.2,788.4,454,788.4,441.4,788.4L441.4,788.4z M463.3,496.8c0.4-1.8,0.4-3.6-0.7-5c-2.5-4-4.3-7.9-6.8-11.9
		c-0.4-0.4-0.7-0.7-1.4-0.7s-1.4,1.1-1.4,1.8c0,0.7,0,1.1,0.4,1.8c0.4,1.1,1.1,2.2,1.4,3.2c1.8,2.5,3.2,5.4,4.3,8.3
		c0.4,1.4,1.4,2.5,2.9,3.2c0.4,0,0.4,0,0.7,0C463,497.2,463.3,497.2,463.3,496.8z"/>
	<path fill="#F8C7BC" d="M198.7,398.5c5,5.4,11.2,9,17.6,12.2c9,4.3,18,8.6,27,13.3c2.5,1.4,5.4,1.8,7.9,2.9c4-0.4,7.9,2.2,11.9,1.8
		c0.7,0,1.8,0,2.5,0.7c2.2,1.1,4.7,0.7,6.5,1.8c2.2,1.1,4.3,1.1,6.8,1.1c0.7,0,1.8,0.4,2.5,0.7c1.8,1.1,4,1.1,5.8,1.1s3.6,0.4,5,0.4
		c3.6,1.8,7.2,1.4,11.2,1.4c1.1,0,2.5,0,3.2,0.4c1.8,0.7,4,1.1,5.8,1.1c2.2,0,4,1.1,5.8,1.8c0.7,0.4,1.4,1.4,1.1,2.2
		c-1.1,2.2-2.5,4.7-2.9,7.2c-0.4,2.9-2.2,5.4-1.8,8.3c0.4,4-1.1,7.2-2.2,10.8c-0.4,1.4-1.1,2.5-1.4,4c-1.4,6.1-4,11.9-6.8,17.3
		c-0.4,0.7-1.1,1.1-1.8,1.8c-2.2,1.1-4,2.2-6.5,1.8c-2.9,0-5.8,0-8.6-0.7s-5.4-1.4-8.3-2.9c-5-2.5-10.4-4.7-15.5-7.9
		c-4.3-2.9-9-5-13.7-7.6c-4.7-2.5-9-4.7-13.7-7.6c-6.1-3.6-12.2-7.6-18.7-10.4c-0.7-0.4-1.4-0.7-2.2-1.4c-2.5-2.2-5.4-3.2-7.9-5
		s-5.4-2.9-8.3-4.3c-2.9-1.4-5.4-2.9-8.3-4.3c-4.3-2.2-7.6-5.4-10.4-9c-0.4-0.4-0.7-1.1-0.7-1.4c-0.4-3.6-0.7-7.2,0.7-11.2
		c1.8-6.1,5-11.5,8.6-16.6c1.8-2.5,4-5,6.5-6.5C197.3,396.7,198,397.8,198.7,398.5z M295.2,488.5c4-2.2,5.4-5.8,4-10.1
		c-0.4-1.4-1.8-2.5-3.2-2.5c-1.8-0.4-3.6,0-5-0.4c-3.6,0-7.6,2.9-6.8,7.9c0,1.1,0.7,2.2,1.4,3.2c1.4,1.8,3.2,3.2,5.8,2.9
		C292.3,489.2,293.8,489.2,295.2,488.5z"/>
	<path fill="#F8C7BC" d="M331.9,490.3c-0.7-2.9-1.4-5.4-2.9-7.9c-2.5-5.4-3.6-11.5-5.4-16.9c-0.4-0.7,0-1.1,0.7-1.4
		c0.7-0.4,1.8-0.4,2.5-0.7c2.5-0.7,4-2.5,4.7-4.7c1.1-3.2-0.7-7.6-4-9.7c-1.4-0.7-3.2-0.7-4.7-2.2c-0.4-0.7-0.7-1.8-0.4-2.2
		c1.8-2.2,4-2.5,5.8-1.1c2.9,2.2,5,4.7,6.5,7.9c1.1,2.5,2.5,5,4,7.6c2.2,4,3.6,7.9,5,11.9c0.7,2.9,1.8,5.4,2.9,7.9
		c0.4,1.1,0.7,2.2,1.1,3.2c0.4,1.1,0.4,2.2,0.7,3.2c1.1,3.6,2.5,6.8,3.6,10.4c1.1,3.6,2.2,7.2,3.2,10.4c0.7,1.8,1.1,4,1.8,5.8
		c0.7,2.2,0.7,4.3,1.4,6.8c0.7,1.8,0.7,4,1.1,5.8c0.4,2.2,1.8,4.3,1.4,6.8c0,1.1,0,2.5,0.7,3.2c0.7,1.8,1.1,4,1.1,5.8
		c0,1.4,0.7,2.9,1.1,4.3c1.1,2.5,0.7,5.8,2.2,8.3c0,2.9,0.4,5.8,0.4,8.6c0,0.7,0,1.8,0,2.5s0,1.1,0.4,1.8c1.1,1.8,1.1,4,1.1,5.8
		c0,1.4,0,2.9,0.7,4.3c1.1,2.2,1.1,4.3,1.1,6.8c0,2.5,1.4,4.3,1.4,6.8c0.4,2.5,0,5.4,1.4,7.6c0.4,3.2,0.4,6.1,0.7,9.4
		c1.4,2.9,1.4,6.1,1.4,9.4c0,1.8,0,3.6,0,5c0,1.1,0,2.5,0.4,3.2c1.1,2.5,1.1,5,1.1,7.6s0.4,5,0.4,7.9c1.4,2.5,1.1,5.8,1.1,8.3
		c0.4,4.3,0.4,8.6,0.4,13c0,1.1,0,2.5,0.4,3.2c1.1,2.2,0.7,4.7,0.7,6.8c0,3.6,0,6.8,0,10.4c0,11.9,0.4,23.8,0.4,35.3
		c0,5,0.4,9.7-0.4,14.8c0,0.7,0,1.1,0,1.8c0.7,2.2,0.4,4.7,0.4,6.8c0,6.8,0,13.7,0,20.9c0,1.8,0,3.6,0.7,5c0.4,0.7,0.4,1.8,0,2.5
		c-0.7,1.4-0.7,2.9-0.7,4.3c0,3.6,0,6.8-0.4,10.4c0,0.7-2.2,2.9-2.9,2.9s-1.8,0-2.5,0c-5,0-9.7,0-14.8-0.4c-2.2,0-3.6-1.8-3.6-4
		c0-1.1,0-2.5,0.4-3.2c1.1-2.5,1.1-5,1.1-7.6c0-3.6,0-6.8,0.4-10.4c0.4-3.2-0.4-6.8,1.1-10.1c0.4-0.4,0-1.1,0-1.8
		c-0.7-1.8-0.7-3.2-0.7-5c0-3.2,0-6.5,0-9.4c0-3.2-0.4-6.5,1.1-9.4c0-0.4-0.4-1.1-0.4-1.4c-0.4-1.1-0.7-2.5,0-3.2
		c1.1-2.2,1.1-4.3,1.1-6.8c0-4,0-7.9,0-12.2c0-1.8,0.4-3.6-0.4-5c-0.7-1.8-0.4-3.2,0-5c-1.4-3.6-1.1-7.2-1.1-11.2
		c-0.4-9.7-0.4-19.4-0.4-29.5c0-1.1,0-2.5-0.4-3.2c-1.1-2.9-1.1-6.1-1.1-9.4c0-2.9,0-5.8-1.1-8.3c-0.4-1.1-0.4-2.2-0.4-3.2
		c0-2.9-0.4-5.8-0.4-8.6c0-1.4-0.4-2.9-0.7-4.3c-0.4-1.1-0.4-2.2-0.7-3.2c-0.4-4-0.4-7.9-1.4-11.9c-0.7-2.2-0.4-4.7-0.7-6.8
		c-0.4-2.5-1.1-5-1.4-7.6c-0.4-3.2-0.4-6.5-0.4-9.4c0-1.1,0-2.2-0.4-3.2c-1.1-2.9-0.7-5.8-0.7-8.6c0-1.8,1.1-2.5,2.9-1.4
		c2.2,1.1,4.3,1.1,6.8,0.7c2.5-0.4,4-2.2,5.4-4c0-0.4,0.4-0.4,0.4-0.7c0.7-4.3-0.4-7.9-3.2-11.2c-0.4-0.7-1.4-1.1-2.2-1.1
		c-2.5-0.4-5-0.7-7.6,1.1c-1.1,0.7-2.5,1.4-3.6,2.2c-1.4-0.7-2.2-2.2-2.2-3.6c-0.4-2.2-0.4-4-0.7-5.8c-0.4-1.8-1.1-3.2-1.1-5
		s-0.7-3.2-1.1-5c-1.1-2.5-1.1-5.8-1.8-8.3c-0.7-2.2-0.4-4.7-0.4-6.8c0-0.7,0.7-1.4,1.4-1.8c0.7-0.4,1.4-0.7,2.5-1.1
		c0.7-0.4,1.1,0,1.8-0.4c2.5-1.4,4.7-3.6,6.1-6.1c0.4-0.4,0.4-1.1,0.4-1.8c-0.7-4-2.2-7.6-6.5-7.9c-1.4,0-2.9-0.7-3.6-1.1
		c-2.2,1.1-4,1.8-6.1,2.5C333.7,493.9,332.6,492.1,331.9,490.3z M361.8,669.6c0.4,0.4,0.7,0.7,1.4,0.7c2.2,0.7,4.7,0.4,6.8,0
		c2.5-0.4,5-3.6,5.4-6.1c0-0.7,0-1.1,0-1.8c0-2.2-0.7-4-2.2-5.4c-1.4-1.4-2.9-2.5-5-2.5c-0.7,0-1.8,0-2.5,0c-2.5,0.4-4.3,1.8-5.4,4
		c-0.4,1.1-0.4,2.2-0.7,3.2C359.3,665.3,360.7,667.4,361.8,669.6z M356.4,611.6c0.4,0.7,0.7,1.4,1.1,2.2c1.4,2.2,4,3.2,6.1,4.3
		c0.4,0.4,1.1,0.4,1.8,0c1.4-0.7,3.2-1.4,4.7-2.2c1.1-0.7,1.8-1.4,1.8-2.9c0-0.7,0-1.8,0-2.5c0-5.4-4-9-9.4-9.4
		c-1.4,0-2.9,0.4-4,1.4c-1.8,1.4-2.9,3.6-2.9,5C356.4,609.8,356,610.9,356.4,611.6z M372.6,728.3c2.5-1.1,2.9-3.2,4-5.4
		c0-0.4,0-0.7,0-0.7c-0.7-2.2-1.4-4.3-3.2-5.8c-0.4,0-0.4-0.4-0.7-0.4c-4.3-1.1-7.2-0.7-9.7,2.9c-1.8,3.2-1.8,5.8,0.4,8.6
		c0.7,1.1,1.8,1.4,2.9,1.8c0.7,0,1.1,0,0.7,0C369.4,729.7,370.8,729,372.6,728.3z"/>
	<path fill="#F8C7BC" d="M402.5,428.4c-1.8,3.6-3.6,7.2-5,10.8c-0.4,0.7-0.7,1.4-1.4,2.2c-2.5,2.5-4,5.4-5.4,8.6
		c-2.9,6.1-7.2,11.5-12.2,16.6c-1.4,1.1-2.9,2.2-4.3,2.9c-1.4,0.7-2.5,1.1-4,0.4c-4.3-2.2-7.9-5.8-10.4-10.1
		c-1.4-2.9-2.9-5.4-5.4-7.9c-0.7-0.7-1.1-1.4-1.4-2.2c-2.2-2.9-4-5.4-6.1-8.3c-0.4-0.4-0.7-1.1-1.1-1.4c-1.4-1.4-2.9-2.9-4.3-4.3
		c-0.7-0.7-1.1-1.1-1.8-1.8c-0.4-0.4-0.4-2.2,0-2.5c1.8-1.4,3.6-2.9,5.4-4c8.3-5.4,10.4-7.2,15.8-13c2.5-2.5,4.7-5,7.2-7.6
		c2.9-3.2,6.1-6.1,8.6-9.7c1.1-1.8,3.2-3.2,4.7-5c1.1-1.1,2.5-1.4,3.6-2.2c0.7-0.4,1.4-0.4,2.5,0c1.4,0.7,3.2,1.4,4.3,2.9
		c1.4,1.4,2.5,2.9,4,4.7c2.9,3.6,5,7.6,6.8,11.9c1.4,2.9,2.5,5.8,1.8,9C405,421.9,403.9,425.2,402.5,428.4z M373,465.1
		c1.4-0.4,2.9-1.1,3.6-2.2c0.7-1.4,1.4-3.2,2.2-4.7c0-0.4,0-1.1-0.4-1.4c-0.7-1.1-1.4-1.8-2.2-2.5c-0.7-0.4-1.4-0.7-2.2-1.1
		c-2.9-0.4-5.8,0.4-7.9,2.2s-2.5,4.7-1.1,6.8C366.8,464.4,369,465.5,373,465.1C371.5,465.5,372.2,465.1,373,465.1z"/>
	<path fill="#FADFD7" d="M351,553.3c0,1.8,0.7,3.2,2.2,4.3c0.7,0.4,1.4,0.7,2.5,0.4c1.4-0.7,2.2-1.8,3.2-2.9c0.7-1.1,0.7-2.2,0-3.2
		c-0.7-1.1-1.8-2.2-2.9-2.9c-0.4,0-0.4-0.4-0.7,0C352.8,549,351,551.2,351,553.3z"/>
	<path fill="#FADFD7" d="M340.9,498.2c-0.4,0.4-1.1,0.4-1.4,0.7c-0.4,0.7-0.7,1.4-1.4,2.2c-0.7,1.1-0.4,2.2,0.4,2.9
		c0.7,0.7,1.1,1.1,1.8,1.8c0.4,0.4,1.1,0.4,1.4,0c0.7-0.4,1.4-0.7,2.2-1.1c1.1-0.7,1.8-2.5,1.4-3.6
		C344.9,499,343.1,497.9,340.9,498.2z"/>
	<path fill="#FADFD7" d="M320.4,455.4c0.7,1.4,1.4,2.5,2.9,3.6c0.7,0.4,1.4,0.4,2.2,0c0.4-0.4,1.1-0.7,1.4-1.1
		c0.7-0.7,1.1-1.4,1.4-2.2c-0.7-1.1-1.4-1.8-2.2-2.5c-1.1-1.1-2.5-1.1-3.6,0C321.5,453.6,321.1,454.7,320.4,455.4z"/>
	<path fill="#FADFD7" d="M287.3,482.4c0.4,0.7,0.7,1.4,1.4,2.2c0.7,1.1,1.8,1.4,2.9,0.7c1.1-0.4,2.2-1.1,2.9-1.4
		c0.7-0.4,1.1-2.2,0-2.9c-1.8-1.8-4-2.2-6.1-0.4C288.4,481,288,481.7,287.3,482.4z"/>
	<path fill="#FADFD7" d="M363.2,663.1c0,1.8,1.1,2.9,2.5,3.6c0.4,0.4,1.1,0,1.4,0c2.9-1.4,3.6-4.7,1.4-6.8c-0.4-0.4-0.7-0.7-1.4-0.7
		c-0.4,0-1.1-0.4-1.4,0C364.7,659.5,363.2,661.3,363.2,663.1z"/>
	<path fill="#FADFD7" d="M359.6,608.8c0,1.1,0.4,2.2,1.1,2.9c1.4,1.8,3.6,2.5,6.1,1.8c0.7-0.4,1.4-0.7,1.4-1.8
		c0.4-1.1,0-2.2-0.7-3.2c-0.7-1.1-1.8-2.2-2.9-2.9c-0.4-0.4-1.1-0.4-1.4-0.4C361.4,605.5,360,607.3,359.6,608.8z"/>
	<path fill="#FADFD7" d="M365.4,723.2c0,0.4,0,0.4,0.4,0.7c1.4,2.2,2.9,2.5,4.7,0.7c1.1-1.1,1.4-2.2,1.4-3.6
		c-0.4-1.4-1.8-2.2-3.2-1.4c-1.1,0.7-2.2,1.8-2.9,2.9C365.8,722.9,365.8,723.2,365.4,723.2z"/>
	<path fill="#FADFD7" d="M370.8,461.5c0.4,0,1.1-0.4,1.8-0.7c0.7-0.4,0.7-1.4,0.4-2.2c-0.7-1.1-1.8-1.8-2.5-1.4
		c-1.1,0.4-1.8,1.1-2.2,2.5C368.3,460.4,369.4,461.9,370.8,461.5z"/>
	<path fill="#78433F" d="M76.7,566.6c0,0.4,0,0.4,0,0.7c0.4,0.4,0.4,1.1,0.7,1.4c3.6,2.2,6.8,5,9.7,8.3c0.7,0.7,2.2,0.7,3.2,0.7
		c0.4,0,0.4-0.4,0.7-0.4c0,0,0-0.4,0-0.7s-0.4-0.4-0.4-0.7c-3.6-3.6-7.9-6.5-11.9-9.7C78.5,565.6,76.7,565.9,76.7,566.6z"/>
	<path fill="#78433F" d="M463,497.5c0-0.4,0.4-0.4,0.4-0.7c0.4-1.8,0.4-3.6-0.7-5c-2.5-4-4.3-7.9-6.8-11.9c-0.4-0.4-0.7-0.7-1.4-0.7
		s-1.4,1.1-1.4,1.8c0,0.7,0,1.1,0.4,1.8c0.4,1.1,1.1,2.2,1.4,3.2c1.8,2.5,3.2,5.4,4.3,8.3c0.4,1.4,1.4,2.5,2.9,3.2
		C462.2,497.5,462.6,497.5,463,497.5z"/>
	<path fill="#78433F" d="M285.1,486.7c-0.7-0.7-1.1-1.8-1.4-3.2c-0.7-5,3.2-7.9,6.8-7.9c1.8,0,3.6,0,5,0.4c1.4,0.4,2.5,1.4,3.2,2.5
		c1.8,4.3,0,8.3-4,10.1c-1.1,0.7-2.9,0.7-4,1.1C288.4,490,286.6,488.5,285.1,486.7z M288.7,484.6c0.7,1.1,1.8,1.4,2.9,0.7
		c1.1-0.4,2.2-1.1,2.9-1.4c0.7-0.4,1.1-2.2,0-2.9c-1.8-1.8-4-2.2-6.1-0.4c-0.7,0.4-1.1,1.4-1.4,2.2
		C287.6,483.1,288,483.8,288.7,484.6z"/>
	<path fill="#78433F" d="M360.4,659.2c1.1-2.2,2.9-3.6,5.4-4c0.7,0,1.8,0,2.5,0c2.2-0.4,3.6,0.7,5,2.5c1.4,1.4,2.2,3.2,2.2,5.4
		c0,0.7,0,1.1,0,1.8c0,2.5-2.9,5.8-5.4,6.1c-2.2,0.4-4.7,0.4-6.8,0c-0.4,0-1.1-0.4-1.4-0.7c-1.4-2.2-2.5-4.3-2.5-7.2
		C359.6,661.3,359.6,660.2,360.4,659.2z M366.1,667.1c0.4,0.4,1.1,0,1.4,0c2.9-1.4,3.6-4.7,1.4-6.8c-0.4-0.4-0.7-0.7-1.4-0.7
		c-0.4,0-1.1-0.4-1.4,0c-1.4,0.4-2.5,2.5-2.5,4C363.6,664.9,364.7,666,366.1,667.1z"/>
	<path fill="#78433F" d="M358.9,603c1.1-1.1,2.5-1.4,4-1.4c5.4,0,9.4,3.6,9.4,9.4c0,0.7,0,1.8,0,2.5c0,1.1-0.7,2.2-1.8,2.9
		c-1.4,1.1-2.9,1.4-4.7,2.2c-0.4,0.4-1.1,0-1.8,0c-2.5-1.1-4.7-2.2-6.1-4.3c-0.4-0.7-0.7-1.4-1.1-2.2c-0.4-0.7-0.4-1.8-0.4-3.6
		C355.7,606.6,356.8,604.8,358.9,603z M360.7,612c1.4,1.8,3.6,2.5,6.1,1.8c0.7-0.4,1.4-0.7,1.4-1.8c0.4-1.1,0-2.2-0.7-3.2
		c-0.7-1.1-1.8-2.2-2.9-2.9c-0.4-0.4-1.1-0.4-1.4-0.4c-1.4,0.4-3.2,1.8-3.2,3.6C359.6,609.8,360,610.9,360.7,612z"/>
	<path fill="#78433F" d="M366.1,729.7c-1.1,0-2.2-0.7-2.9-1.8c-2.2-2.9-2.2-5.8-0.4-8.6c2.2-4,5.4-4.3,9.7-2.9
		c0.4,0,0.4,0.4,0.7,0.4c1.8,1.4,2.9,3.6,3.2,5.8c0,0.4,0,0.7,0,0.7c-1.1,1.8-1.8,4-4,5.4c-1.4,0.7-3.2,1.1-5.8,1.1
		C367.2,729.7,366.5,729.7,366.1,729.7z M365.8,724c1.4,2.2,2.9,2.5,4.7,0.7c1.1-1.1,1.4-2.2,1.4-3.6c-0.4-1.4-1.8-2.2-3.2-1.4
		c-1.1,0.7-2.2,1.8-2.9,2.9c0,0.4-0.4,0.4-0.4,0.7C365.8,723.6,365.8,724,365.8,724z"/>
	<path fill="#78433F" d="M364.3,462.2c-1.8-2.2-1.4-5,1.1-6.8c2.5-1.8,5-2.9,7.9-2.2c0.7,0,1.8,0.4,2.2,1.1c0.7,0.7,1.4,1.8,2.2,2.5
		c0.4,0.4,0.7,1.1,0.4,1.4c-0.7,1.4-1.1,3.2-2.2,4.7c-0.7,1.1-2.2,2.2-3.6,2.2c-0.7,0-1.1,0-0.4,0
		C368.3,465.5,366.1,464.4,364.3,462.2z M372.6,460.8c0.7-0.4,0.7-1.4,0.4-2.2c-0.7-1.1-1.8-1.8-2.5-1.4c-1.1,0.4-1.8,1.1-2.2,2.5
		c-0.4,1.1,0.7,2.2,2.5,2.2C371.2,461.5,371.9,461.5,372.6,460.8z"/>
</g>
<g id="full">
	<path fill="#78433F" d="M451.1,270.7c0-2.9,0-5.8-1.1-8.6c-0.4-1.1-0.4-2.2-0.4-3.2c0-3.6-0.4-6.8-0.4-10.4c0-1.8-0.4-3.2-1.1-5
		c-0.4-1.1-0.4-2.5-0.7-3.2c-1.1-1.8-1.1-4-1.8-5.8c-2.2-4-3.2-8.6-5.4-12.6c-4-7.2-7.6-14.8-11.2-22.3c-1.8-3.2-3.6-6.5-3.6-10.4
		c0-1.4-1.1-2.5-1.4-4c-1.8-3.6-3.2-7.2-3.6-11.5c-0.4-1.8-0.7-3.2-1.4-5c-1.1-2.9-1.4-6.1-2.5-9c-1.1-2.9-0.7-5.8-2.2-8.3
		c-0.4-1.1-0.4-2.2-0.4-3.2c0-5.8-0.4-11.5-0.4-17.3c0-1.4,0-2.9-0.7-4.3c-1.4-2.5-1.1-5,1.4-6.8c1.1-0.7,1.1-1.8,1.1-3.2
		c0-1.1,0-2.2,0-3.6c0-4-1.4-7.2-4-10.1c-1.4-1.8-3.2-3.2-5-4.7c-0.7-0.7-1.4-1.8-1.4-2.9c0-0.4,0-0.7,0-0.7c0-3.2,0-6.5-1.4-9.4
		c0-2.9-0.4-5.8-1.8-8.3c-0.4-4-2.5-7.6-2.2-11.9c-1.4-5-2.9-10.4-5.4-15.5c-0.4-0.4-0.4-1.1-0.7-1.4c-1.8-0.7-3.6-1.1-5.4-1.8
		c-1.4,1.1-2.9,1.8-3.6,2.2c-2.2,1.1-4,2.2-6.1,3.6c-2.2,1.8-4.3,3.6-6.5,5c-6.1,8.6-16.2,13.7-26.6,16.6c-3.6,1.1-7.2,1.4-10.8,2.2
		c-1.4,0.7-3.2,1.4-5,1.8c-13.7,2.5-27,7.2-41,6.8c0,0,0,0-0.4,0c-2.5,0.7-5,1.4-7.6,1.4c-10.8,0-21.6,3.6-32.4,2.2
		c-1.1,0-2.2-0.4-3.2-0.4c-6.1,0-12.2,0-18.7-0.4c-23.4-1.4-45-10.8-67.7-14.4c-4.3-0.7-8.3-3.2-11.2-6.1c-8.6-1.4-15.8-5.4-23-10.4
		h-0.4c1.1,0.7,1.8,1.4,2.9,2.2c-1.4-1.1-2.5-1.8-4-2.5c-1.1-0.4-2.5-0.7-3.6-1.1c-1.4,0-2.9,0-4.3,0c-3.2,0-6.1-0.4-9-1.1
		c-0.4,0.7-0.4,1.8-0.7,2.5c-0.4,1.1-0.7,2.2-0.7,3.2c0.4,2.9-1.8,4.7-2.2,7.6c-0.4,2.2,0,4.7-0.7,6.8c-0.4,0.7-0.7,1.8-0.4,2.5
		c1.4,2.9,0.7,6.1,1.1,9.4c0.4,2.2,0.4,4.7,1.4,6.8c0.4,0.7,0.4,1.8,0,2.5c-1.8,2.9-1.1,6.1-2.5,9c-1.1,2.2-0.7,4.7,0,6.8
		c0.7,3.2,2.2,6.5,3.2,9.7c0.4,1.1,1.1,1.8,1.8,2.9c0.4,0.7,0.7,1.4,0.4,2.2c-1.4,4.3-1.4,8.6-0.7,13c0.7,4,2.2,7.9,4.3,11.2
		c0.7,1.1,1.4,1.8,2.2,2.9c1.1,1.8,2.5,3.2,2.9,5c0.7,1.8,0.7,4,0.4,6.1c0,3.2,1.8,6.1,2.2,9c1.1,1.4,2.2,2.9,3.2,4
		c1.1,1.4,2.2,2.9,2.2,4.7c0,2.5,1.4,5,1.4,7.6c0,1.1,1.1,2.2,1.4,3.2c0.7,2.2,2.5,3.2,3.2,5c0.4,0.7,0.4,1.8,0.4,2.5
		c-0.4,0.7-0.7,1.4-0.7,2.5c-2.2,6.5-2.2,6.5-2.2,12.6c0,1.8,0.4,3.2,0.7,5c2.5,9.4,7.2,18,12.6,25.9c4,5.8,6.5,11.9,8.6,18.7
		c0,3.2,1.4,6.1,2.9,9c1.8,3.6,3.6,7.2,6.8,9.7c1.1,1.1,2.2,2.2,2.2,3.6c0.7,2.9,2.2,5.4,3.2,7.9c1.1,2.5,1.8,4.7,2.9,7.2
		c0.7,1.4,1.1,2.5,1.1,4.3c-0.4,2.5,0.7,4.3,1.8,6.5c2.2,3.6,5.4,5.8,9.4,6.5c0.7,0,1.8,0.4,2.5,0.4s1.4,1.1,1.4,1.8
		c0,0.7,0.4,1.8,0.4,2.5c0.4,2.2,0,4.7,1.1,6.8c0.4,3.6,1.1,7.2,2.2,10.8c0,2.9,1.4,5.4,1.8,8.3s0.4,5.8,1.4,8.3
		c0.4,1.1,0.4,2.2,0.4,3.2c0,3.2,0.4,6.5,0.4,9.4c0,2.5-0.4,5,1.1,7.6c0.4,3.2,0.7,6.8,0.7,10.1c0.4,1.1,0.7,2.2,1.1,3.6
		c0.4,0,1.1,0.7,1.8,1.8c2.2,0.7,4.3,1.8,6.1,2.9c20.9,12.6,40.7,24.8,62.6,30.6c15.1,4,32.4,5.4,48.2,7.9
		c5.4,0.7,12.6,2.5,18.7,2.9c1.4-1.8,2.9-4,4-5c3.6-4.3,8.6-7.2,14-8.6c2.5-1.8,5.4-3.6,8.3-4c2.5-1.4,5.4-2.5,8.3-3.6
		c1.1-0.4,2.2-0.7,3.2-1.1c2.2-1.1,4.7-2.2,6.8-3.2c2.2-1.8,5-3.2,7.6-4.3c2.5-2.5,5.8-4.7,8.6-6.8c1.8-1.4,4-2.5,6.1-3.6
		c1.1-1.1,2.2-1.8,3.6-2.5c0.4-0.4,0.7-0.7,1.1-1.1c0.4-0.7,0.7-1.4,1.4-2.2c1.1-1.1,2.2-2.2,2.5-3.2c1.4-2.9,3.2-4.7,5.8-6.1
		c4-2.9,7.6-6.1,10.4-10.1c0-0.4,0.4-0.7,0.4-0.7c6.1-5.8,9-14,14.4-20.5c2.5-4.7,5.4-9.4,6.5-14.8c0.7-2.5,1.8-4.7,2.5-7.2
		c0.4-2.2,0.7-4.3,1.8-6.5c0.7-1.1,0.4-2.9,0.4-4.3c0-1.8,0.4-3.2,1.1-5c0.4-1.1,0.4-2.2,0.4-3.2c0-4.3,0.4-8.6,0.4-13
		c0-2.2,0-4,0.4-6.1c1.8-4,1.1-8.6,1.1-13C451.4,275.4,451.4,272.9,451.1,270.7z"/>
	<path fill="#EC685B" d="M446.4,258.1c0-1.1,0-2.2,0-3.6c0-2.2,0-4-1.1-5.8c-0.4-0.7-0.4-1.8-0.4-2.5c-0.4-1.4-0.4-2.9-0.4-4.3
		c-1.8-2.2-1.1-5-2.5-7.2c-1.4-2.5-2.2-5.4-2.9-7.9s-2.5-4.3-2.9-7.2c-0.4-1.4-1.1-2.9-1.8-4c-2.9-4-4.7-8.3-7.2-12.6
		c-1.1-1.8-2.2-3.6-2.9-5c-0.4-0.7-1.1-1.4-1.1-2.2c0-3.2-2.2-6.1-2.2-9.4c0-0.7-0.4-1.8-1.1-2.2c-2.9-2.5-2.5-6.1-4-9.4
		c0-2.5-1.1-5-2.2-7.6c-1.4-4-1.8-8.3-3.2-12.2c0.4-2.5-1.4-4.3-1.4-6.5c0-3.2-0.4-6.5-0.4-9.4c0-3.6,0.4-6.8-1.1-10.1
		c-0.4-0.7-0.4-1.8,0-2.5c0.4-3.2-1.8-5-4.3-6.8c-3.2-1.8-6.8-2.9-10.4-4.3c-0.4-0.4-1.1-0.4-1.8-0.4c-5-0.4-10.4-0.4-15.5,0.4
		c-2.5,1.4-5.8,1.1-8.3,1.4c-0.4,0-0.7,0-0.7,0c-3.2,0.4-5.4-1.4-7.9-3.2c-0.7-0.4-1.1-1.4-1.4-2.2c-0.7-2.2-1.1-4.7,0-6.8
		c1.8-5,5.4-8.6,10.8-10.4c0.4,0,0.7,0,0.7,0c7.9-0.7,16.2,0,24.1,0.4c1.4,0,2.9,0.7,4,1.1c2.2,0.7,3.6-0.7,3.6-2.5
		c0-2.9,0-5.8-0.4-8.6c-0.4-2.2-1.1-4.3-1.8-6.5c-0.7-1.4-1.4-3.2-1.4-5c0-0.7,0-1.8-0.7-2.5c-1.1-1.8-0.7-4-1.8-5.8
		c-1.1,0.7-1.8,1.1-2.2,1.8c-2.5,3.2-6.1,5.4-9.4,7.6c-7.2,4.3-14.4,8.6-22,11.9c-2.2,1.1-4.3,1.4-6.5,2.5c-1.8,1.1-4.3,1.8-6.5,2.5
		c-2.5,0.7-4.7,1.8-7.2,2.9c-4.3,2.2-9,3.2-13.7,4.7c-1.8,0.7-3.2,0.7-5,0.7c-2.2,0-4.7,0.4-6.8,0.4c-2.2,1.4-5,1.1-7.6,1.4
		c-2.2,0-4.7,0.4-6.8,1.1c-1.4,0.7-3.2,0.7-5,0.7c-4-0.4-7.2,1.1-11.2,1.8c2.2,2.5,4.3,4.7,6.1,6.8c1.1,1.1,1.1,2.9,0.4,4
		c-1.1,2.2-2.5,3.6-5,4.3c-5.8,1.4-5.8,1.8-10.8,1.8c-4,0-7.9,0-12.2,0c-3.2,0-6.1-0.4-9.4,0.7c-13,3.6-12.2,3.6-16.9,6.1
		c-2.9,1.8-6.1,3.2-9.4,4.7c-2.2,1.1-4.3,1.1-6.5,0c-0.7-0.4-1.8-0.7-2.5-1.1c-1.4-1.1-2.5-2.2-2.9-4c0-0.7,0-1.8,0-2.5
		c-0.4-2.5,0.4-4.3,2.2-6.5c3.2-4,7.2-7.6,11.9-9.4c2.5-1.1,5-2.5,7.6-4c0.4,0,0.4-1.1,0.4-1.4c0,0-0.4-0.4-0.7-0.4
		c-3.6-0.4-6.8-0.4-10.4-0.7c-2.2,0-4.7-0.4-6.8-1.1c-2.5-1.1-5-0.7-7.6-0.7c-0.7,0-1.8,1.1-1.8,1.8c0,2.2-0.4,4-0.4,6.1
		c0.4,3.6-1.1,6.8-1.8,10.1c-2.2,2.5-1.8,5.4-1.4,8.3c0,2.9,0,5.8-1.1,8.3c-0.7,1.8-1.4,3.6-2.9,5c-0.7,0.7-1.1,2.2-1.1,3.2
		c0,2.2,0,4,0,6.1c0,3.2-1.1,6.1-3.2,8.6c-0.7,0.7-1.4,1.8-2.2,2.9c0,1.8,0,3.6,0,5c0,2.9-1.4,5.4-2.2,8.3c-1.4,1.4-2.5,3.2-3.6,4.7
		c-0.4,0.7-1.1,1.4-0.7,2.5c0,2.2,0,4.7,0.7,6.8c1.8,5,1.4,10.1,1.1,15.5c0,2.2-1.4,4-2.5,5.4c-1.1,1.1-2.9,2.2-4.7,2.2
		c-2.5,0.4-5,0.4-7.9,0.4c-4,0-6.8-1.8-9-5.4c-1.1-1.4-1.8-2.9-3.6-3.6c-3.2-1.4-4.7-4.3-5-7.6c-0.4-1.8-1.1-3.2-2.5-4.3
		c-1.8-1.8-4.3-2.2-6.5-1.4c-2.5,0.7-5,1.8-6.8,3.6c-0.7,0.7-1.4,1.1-1.8,1.8c-1.8,1.8-3.6,3.6-5,5.8c-1.4,2.5-2.2,5.4-2.9,7.9
		c-1.1,4-1.1,7.9,0.4,11.9c2.5,6.5,5,13.3,11.2,22c3.6,5.4,6.1,11.2,8.3,16.9c0.7,1.8,1.4,4,1.4,5.8c0.4,2.9,1.4,5.4,2.9,7.9
		c1.1,2.5,2.5,4.3,5,5.8c0.7,0.4,1.4,1.1,2.2,1.4c1.8,1.4,3.6,1.4,5.8,1.4s4-0.7,5.4-2.2c0.7-0.7,1.4-1.8,1.4-2.9
		c0.4-1.8-0.4-4,0.7-5.8c0-0.4,0.4-0.7,0.7-0.7c0.7,0,1.1,0,1.4,0.4c0.4,0.4,0.7,1.1,0.7,1.4c0.4,2.5,0,5,1.8,7.6
		c0.4,0.4,0.4,1.1,0.4,1.8c0.4,2.2,0,4.7,0.7,6.8c0.7,1.8,1.1,4,1.1,5.8c0,1.1,0,2.5,0.7,3.2c0.7,1.8,0.7,3.2,1.1,5
		c0,2.9,0,5.8,1.4,8.6c0.7,1.1,0.4,2.9,0.4,4.3c0,2.9,0.4,5.8,0.4,8.6c1.4,2.5,1.1,5,1.4,7.6c0.4,1.8,1.1,4,1.4,5.8
		c0.4,1.8,0.4,4,1.1,5.8c0.4,0.7,0.4,1.8,0.4,2.5c0.4,2.9,0.4,5.8,1.4,8.3c0.4,0.7,0.4,1.8,0.4,2.5c0,3.6,0,6.8,1.4,10.1
		c0.4,1.4,0.4,2.9,0.4,4.3c0,2.5,0,5,0,7.9c0,2.2,0.4,4,1.1,5.8c0.4,1.4,0.4,2.9,0.7,4.3c0.4,0.7,0.4,1.8,1.1,2.2
		c2.9,3.2,5.8,6.5,9,9.4c7.2,4.3,14.4,8.6,21.6,12.6c0.7,0.4,1.4,0.7,2.2,0.7c0.7,0,1.1,0.4,1.4,0.7c2.5,2.2,5.4,2.9,8.3,4.7
		c0.4,0.4,1.1,0.4,1.4,0.7c0.4,0,0.7,0.4,0.7,0.4c1.8,0.7,4,1.4,5.8,2.2c2.2,1.1,5,1.4,7.2,2.2c2.2,0.7,4.3,1.1,6.8,1.1
		c2.5,0,5,0.4,7.6,1.4c1.1,0.4,2.2,0.4,3.2,0.4c1.4,0,2.9,0.4,4.3,0.7c1.1,0.4,2.2,0.7,3.2,0.7c2.9,0.4,5.8,0.4,8.3,1.4
		c1.1,0.4,2.9,0.4,4.3,0.4c2.5,0.4,5,0.4,7.6,1.1c1.8,0.7,4,0.7,6.1,0.7c3.2,0,6.1,0.7,9.4,1.8c1.8,0.7,4,1.1,5.8,1.8
		c1.8,0.4,3.2,0.7,5,1.1c1.8-0.7,3.2-2.5,4.3-4c1.8-2.9,4.3-5.4,7.2-7.2c0.7-0.4,0.7-1.1,0.4-1.4c0-0.4-0.4-0.4-0.7-0.4
		c-2.2,0-4,0-6.1,0c-2.2,0-4.7,0-6.8,0c-5,0-5,0-10.8-1.8c-2.2-0.7-4.3-1.8-6.5-1.8c-0.7,0-1.1,0-1.8-0.4c-2.9-1.8-6.5-2.5-9.7-4
		c-1.8-0.7-3.6-1.4-5.4-2.5c-3.2,0-5.8-2.2-9-2.2c-4-1.1-7.9-1.4-11.5-3.2c-3.6-0.4-7.2-1.8-10.8-3.2c-1.1-0.4-2.2-0.7-3.2-0.7
		c-2.5,0-4.3-1.1-6.5-2.5c-1.4-0.7-1.4-2.5,0-3.2c0.4,0,0.4-0.4,0.7-0.4c0.4,0,0.4,0.4,0.7,0.4c4,1.1,7.6,2.9,11.5,2.9
		c2.9,1.1,6.1,1.4,9,2.5c1.1,0.4,2.2,0.7,3.2,0.7c2.9,0,5.8,1.1,8.3,1.8c5.8,1.8,11.5,3.2,16.9,6.1c2.9,0.7,5.4,2.2,8.3,2.5
		c2.5,0,4.3,1.4,6.5,2.5c1.4,0.4,2.9,1.1,4.3,1.1c6.1,0.4,12.2,0,18,0c0.4,0,0.7,0,0.7,0c2.2,0,3.6-1.4,5.8-1.4c1.8,0,3.6-0.4,5-0.7
		c1.1-0.4,2.2-1.1,3.2-1.1c5,0,9-3.2,13.7-4.3c2.2-1.8,5.4-2.2,7.6-4c2.2-1.4,4.3-2.5,6.5-4c5.8-4,11.5-7.9,16.2-13
		c1.8-1.8,3.2-4,4.7-6.1c1.1-2.2,2.9-3.6,5.4-3.6c0.7,0,1.8-0.7,2.2-1.1c3.2-2.9,6.5-5.8,8.6-9.7c4-4.3,6.8-9.4,10.1-14
		c0.4-0.7,1.1-1.4,1.4-2.2c1.4-3.6,4-6.5,5.4-9.7c2.2-4.7,3.6-9.7,5-14.4c0.4-1.1,0.4-2.2,0.7-3.2c2.2-5,3.2-10.4,3.2-15.8
		c2.2-6.5,1.1-13,1.4-19.8c0.4-2.5-0.4-5,1.1-7.6c0-4.3,0-8.6,0.4-13C446,266,446.8,262.1,446.4,258.1z M151.2,233.6
		c-0.7,0.4-1.8-0.4-2.2-1.1c-0.7-1.4-1.4-3.2-1.8-4.7c-0.7-2.9-2.2-5.8-1.8-8.6c0-1.1,0.7-2.5,1.1-2.2s1.1,0.7,1.4,1.1
		s0.4,0.4,0.4,0.7c1.4,4,2.9,7.9,4,11.9c0,0.4,0,0.7,0,0.7C152.6,232.2,151.9,233.3,151.2,233.6z M171,258.1
		c-0.4,0.4-0.7,0.7-1.1,1.1c-1.1,0.4-2.2,0-3.2-0.7c-2.5-1.4-4.7-3.6-6.1-6.1c-2.9-4.3-4-9-2.2-13.7c1.1-3.2,2.5-6.5,4-9.4
		c0.4-1.1,0.7-2.5,0.4-3.2c-1.4-3.2-1.1-6.8-2.9-9.7c-1.4-6.5-5.4-10.4-11.2-13.3c-0.7-0.4-1.4-0.7-2.2-1.1c0,0-0.4-0.4-0.4-0.7
		c0-0.7,0-1.1,0.7-1.4c1.4-0.7,2.9-0.7,4.3-0.4c2.5,0.7,4.7,1.8,6.5,4c2.9,4,6.1,7.6,7.2,12.6c0.4,1.8,1.8,3.6,1.8,5.8
		c0,2.5,0.4,5,0.4,7.9c0,1.8-0.4,3.2-1.4,5c-1.4,2.5-2.2,5-2.9,7.9c0,0.4-0.4,1.1-0.4,1.4c1.1,4.3,2.2,8.6,6.1,10.8
		c1.1,0.7,1.8,1.4,2.5,2.2C171.4,257,171.4,257.8,171,258.1z M406.1,187.6c0.7-0.4,1.1,0,1.4,0.7c0.4,0.4,0.4,1.1,0,1.4
		c0,0.4-0.7,1.1-1.1,1.4c-2.9,2.2-6.1,3.6-9.7,4.7c-1.1,0.4-2.2,0.4-3.2-0.4c-0.7-0.4-0.7-0.7-0.7-1.4c0.4-0.4,0.4-1.1,0.7-1.4
		c2.2-1.1,4-1.8,6.5-2.2C402.1,189.7,404.3,188.3,406.1,187.6z M354.6,157.7c0-1.8,0.7-3.2,2.2-4.7c2.5-2.5,4.7-5,7.2-7.2
		c2.5-2.2,5.4-3.2,8.6-3.6c4.7-0.4,9-0.4,13.7,0.4c2.2,1.4,4,2.5,5.8,4c2.2,1.8,4.3,3.6,5.8,6.1c3.6,6.1,3.6,6.8,3.6,13.7
		c0,1.1,0,2.2,0,3.6c-0.4,3.2-1.8,6.1-4.3,8.3c-1.4,1.1-2.9,2.2-4.3,2.9c-2.5,1.4-5,2.9-7.9,2.9c-5.4,0.4-10.8,0.4-16.2,0
		c-1.4,0-2.9-0.4-4-1.1c-1.4-0.7-3.2-1.4-4.7-2.2c-3.2-1.8-5-4.7-5.4-8.3c0-2.2-1.1-4.3-1.4-6.8C353.2,162.4,355,160.2,354.6,157.7z
		 M330.1,154.4c0.4,0,0.7,0,0.7,0c1.4,0.7,2.2,1.8,2.9,3.2c3.2,6.8,6.5,13.3,11.9,18.7c0.4,0.4,0.4,0.7,0.4,0.7
		c0.7,0.7,1.1,1.1,1.8,1.8c4.3,3.2,9,5.8,14.4,7.2c2.9,0.7,6.1,1.8,9,2.9c5.8,1.8,10.1,5.8,11.9,11.5c0.4,1.1,0.4,2.2,0,3.2
		c-1.1,2.2-2.2,4-3.2,6.1c-0.4,0.4-0.7,1.1-1.1,1.4c-2.9,1.8-5.8,3.6-9.4,3.6s-6.8,0-10.4,0c-1.1,0-2.5,0-3.2,0.4
		c-2.2,1.1-4.3,1.1-6.5,1.8c-2.5,0.7-4.7,1.8-7.2,2.5c-0.7-0.4-1.4,0-2.5,0c-0.4,0-1.1,0-1.4-0.4c-2.5-1.4-2.9-4.3-0.7-6.5
		c1.8-1.8,4.3-3.2,6.8-2.9c6.1,0,12.6-1.1,18.7,1.1c0.4,0,1.1,0,1.8-0.4c2.2-1.1,4.7-0.7,6.8-1.1c2.9-0.7,5.4-1.8,6.8-4.7
		c0.4-0.4,0.7-1.1,0.7-1.4c0-0.7,0.4-1.1,0-1.8c-0.4-2.2-1.4-3.6-2.5-5.4c-2.9-1.4-5-4-8.3-4.3c-1.4-0.7-3.2-1.1-4.7-1.8
		c-4.7-1.8-9.7-3.6-14-6.1c-2.2-1.4-4.3-2.9-6.1-4.7c-3.2-4.3-7.2-8.3-9-13.3c-0.7-1.4-1.4-2.9-2.5-4.7c-1.1-2.2-1.1-4.3-1.8-6.5
		C329.8,154.8,330.1,154.4,330.1,154.4z M316.8,211.3c1.1-2.5,2.2-5.4,4.3-7.6c0.7-0.7,1.4-1.1,2.2-1.4c0.4,0,1.1,0,1.4,0.4
		s0.7,1.1,0.4,1.4c-0.7,1.8-2.2,3.6-2.9,5.4c-1.4,4-1.1,7.9,2.5,10.8c0.7,0.4,1.4,0.7,2.2,1.1c2.2,1.4,4.3,1.1,6.5,1.4
		c0.4,0,0.7,0.7,1.1,1.1c0,0,0,0.7-0.4,0.7c-0.7,1.4-2.2,1.8-3.6,1.8c-0.4,0-0.7,0-0.7,0c-9-0.7-12.2-6.1-13.3-14
		C316.8,212.4,316.8,212,316.8,211.3z M235.4,178.9c0.7-2.2,1.4-4.3,2.2-6.5c0-0.4,0.7-1.1,1.1-1.4c1.8-2.5,4.3-4.7,6.1-7.2
		c1.4-1.8,3.6-2.9,5.4-4.3c4-2.9,7.9-6.1,13-5.4c0.4,0,1.1-0.4,1.4-0.4c1.1-0.4,2.2-0.7,3.2,0c1.4,0.7,3.2,0.7,5,1.1
		c1.8,0.4,3.2,1.4,5,1.4c2.9-0.4,4.7,1.8,7.6,2.2c1.8,0.4,2.9,1.8,4.3,2.9c0.4,0.4,1.1,0.4,1.4,0.7c1.1,0.7,2.2,1.8,2.9,3.2
		c1.1,2.2,2.2,4,3.2,6.1c0.7,1.4,1.4,2.5,1.8,4c0.4,2.5,0.7,5,1.8,7.6c0,0.4,0,0.7,0,0.7c-0.7,2.9-1.1,5.4-2.5,8.3
		c-2.2,4.7-6.8,6.8-10.8,9.7c-2.5,0-4.7,1.8-7.6,1.8c-1.4,0-2.9,0-4.3,0.7c-2.5,1.1-5,0.7-7.6,1.8c-2.9,1.1-5.8,1.1-8.6,1.4
		c-0.7,0-1.1,0-1.8,0.4c-3.2,1.4-6.1,1.1-9-0.4c-6.5-1.4-10.4-5.4-13.3-11.2c-0.4-1.1-0.7-2.2-1.4-3.2c-0.7-1.4-0.7-2.9-0.7-4
		C233.6,184.7,235.4,181.8,235.4,178.9z M297.4,213.8c-1.1,1.8-2.9,3.2-5,4.3c-4.3,2.5-8.6,4-13.7,5c-2.2,0.4-4.3,1.8-6.5,1.8
		c-2.2,0-4.7,0.4-6.8,0.4c-4.7,0-6.5-0.4-11.9-2.2c-1.8-0.7-3.6-1.4-5.4-2.2c-0.4-0.4-0.7-0.7-1.1-1.1c0-0.4-0.4-0.7-0.4-0.7
		c0.4-0.4,0.7-0.7,1.1-1.1c0.7,0,1.8,0,2.5,0.4c1.8,1.1,3.6,1.4,5.8,1.4c2.5,0,4.3,1.4,6.5,1.4c2.9,0,5.8,0.4,8.3-1.1
		c3.2-0.4,6.1-1.4,9-2.2c3.6-0.4,6.5-2.2,9-2.9c2.5-1.4,4.7-2.2,6.8-3.2c0.7-0.4,1.1-0.4,1.4,0C297.4,212.8,297.4,213.5,297.4,213.8
		z M222.1,371.5c-0.4,0-0.7,0-0.7,0c-1.4-0.4-2.5-1.4-3.2-2.5c-2.5-3.6-4.3-7.2-6.5-11.2c-0.7-3.2-2.5-6.5-4-9.4
		c-2.2-4.3-2.5-8.6-4-13c-0.7-1.8-0.7-4-1.1-5.8c0-1.1,0-2.5-0.4-3.2c-1.1-2.2-1.1-4.3-1.1-6.8c0-1.1,0-2.5-0.4-3.2
		c-1.1-2.5-0.7-5-1.1-7.6c-0.4-2.9,0-5.8-1.4-8.3c-0.4-1.1-0.4-2.2-0.4-3.2c0-2.5,0-5-0.4-7.9l0,0c0-0.7,0-1.8,0-2.5
		c0-4.3-0.7-8.6,1.4-12.6c0.4-0.7,0.4-1.8,0.4-2.5c0-3.6,1.4-6.8,2.9-9.7c0.7-1.4,1.8-2.9,2.2-4.7c0.7-3.6,2.9-6.1,4.7-9
		c1.8-2.9,4-5.8,6.5-8.3c0.7-0.7,1.4-1.1,2.2-1.4c0.4-0.4,1.1,0,1.1,0.7c0.4,1.1,0.4,2.2-0.4,3.2c-4,5.8-7.2,11.9-10.1,18
		c-1.1,2.5-1.8,5.4-2.9,7.9c-1.1,2.5-1.1,5-1.8,7.6s-0.7,5-0.7,7.6c0,6.1,0.4,11.9,0.4,18c0,2.5,1.4,5,1.4,7.6s0.4,5,0.4,7.6
		c0,0.7,0.4,1.1,0.4,1.8c0.7,1.4,0.7,2.9,0.7,4.3c0,2.2,0.4,4,0.4,6.1c0.4,2.2,1.4,4.3,1.8,6.5c0.4,2.9,1.4,5.4,1.8,8.3
		c3.2,7.6,6.1,15.5,10.8,22.3c1.1,1.4,1.8,2.9,2.2,4.7C223.2,370.8,222.8,371.2,222.1,371.5z M438.8,279.4c-0.7,2.2-0.7,4.3-1.1,6.8
		c0,2.2-0.4,4.7-0.4,6.8c-1.8,2.9-0.7,6.5-2.5,9c-0.4,5-3.2,9-6.5,13c-0.4,0.7-1.4,1.1-1.8,1.8c-2.9,5-6.8,8.3-11.5,11.2
		c-3.2,2.2-6.1,4-9.4,6.1c-3.6,2.5-7.9,4.7-11.9,6.8c-5.8,2.9-12.2,4.7-18.4,6.8c-3.6,1.1-6.8,2.5-10.8,3.2
		c-3.6,0.7-7.2,2.2-10.8,1.8c-0.7,0-1.1,0-1.8,0.4c-2.5,1.4-5,1.1-7.6,1.4c-2.5,0.4-5,0.4-7.6,0.4c-2.5,1.4-5.8,1.1-8.3,1.1
		c-1.4,0-2.9,0-4.3,0.7c-1.8,0.7-4,1.1-5.8,1.1c-7.6,0-15.1,0-22.3,0c-1.1,0-2.2-0.4-3.2-0.7c-1.1-0.4-2.2,0.7-3.2,0.4
		c-1.8-0.4-3.6-1.4-5.8-1.4c-0.7,0-1.8-0.4-2.5-0.4c-5.4-1.8-10.8-3.6-15.8-6.1c-2.9-1.4-5.8-2.9-8.6-4.3c-4.3-1.8-7.9-4.3-11.9-7.2
		c-6.8-5-12.6-11.2-15.5-19.1c-2.2-5.4-4.3-10.4-5.8-16.2c-0.7-2.9-1.8-6.1-1.8-9c0-1.1-0.4-2.2-0.7-3.2c-0.4-1.1-0.4-2.2,0-3.2
		c0.4-1.1,0.4-2.2,0-3.2c-1.1-3.2-1.1-6.5-0.4-9.4c0.7-2.2,1.1-4.3,1.1-6.8c0-1.1,0.4-2.2,0.7-3.2c1.1-2.9,2.9-5.8,5-7.9
		c2.9-3.2,5.8-6.5,9.4-9c2.2-1.8,4.7-3.6,7.6-3.6c2.5-1.4,5.4-1.4,8.3-1.4c2.5,0,5.4-0.4,7.6,0.7c2.9,1.4,6.5,0.7,9,2.5
		c3.6,0.4,6.5,1.8,10.1,2.5c1.1,0.4,2.2,1.1,3.2,1.1c4.3,0,8.3,2.2,12.6,2.2c0.7,0,1.1,0.4,1.8,0.4c1.8,1.1,4,1.1,5.8,1.1
		c1.4,0,2.9,0,4.3,0.4c2.5,1.1,5,1.1,7.6,1.1c4,0,7.9,0,12.2,0c1.4,0,2.9,0.4,4.3-0.4c2.5-1.1,5-1.1,7.6-1.1c1.8,0,3.6,0,5-0.4
		c1.8-0.4,3.2-1.1,5-1.4c2.5,0,4.7-1.8,7.6-1.8c2.5,0,4.7-1.8,7.2-2.5c2.9-0.7,5.4-1.8,8.3-2.9c5-1.4,10.1-4,14.8-6.8
		c1.8-1.1,3.2-2.2,5.4-2.9c3.6-1.1,6.8-2.9,10.4-4.3c1.8-0.7,3.6-1.8,5.8-1.4c1.8,0,3.6,0,5,0l0,0c2.2,0,4,0,6.1,0
		c1.1,0,2.2,0.4,3.2,1.1c2.5,1.1,4.3,2.5,5.4,5c1.1,2.2,2.9,4.3,3.6,6.8c0.4,1.8,1.4,3.2,2.2,4.7c1.4,2.9,2.5,5.8,2.5,9
		c0,0.7,0.4,1.8,0.7,2.5c1.4,2.2,0.7,5,1.8,7.6s0.7,5,0.7,7.6C439.2,274.7,439.2,277.2,438.8,279.4z"/>
	<path fill="#A35652" d="M202.3,96.8c-0.7-1.1-1.8-2.2-2.9-3.2c-0.7-0.7-1.8-1.4-2.9-1.4c-1.8,0-3.6,0-5-0.4c-2.2,0-4,0.4-5.8,1.4
		c-0.4,0.4-1.1,0.4-1.4,0.7c-2.5,1.8-4.7,1.4-7.2-0.4c-1.1-0.7-1.8-1.4-2.9-2.2c-1.8-1.8-4-3.2-5.8-5c-4-1.1-7.9-0.4-11.5,0
		c-2.2,0-4-0.4-5.4-1.8c-0.4-0.4-0.4-0.4-0.7-0.7c-6.5-4.7-6.5-4.7-14.4-4.7c-0.4,0-0.7,0-0.7,0c-6.5,0.4-5.8,0-8.3-5
		c-1.8-4-4.3-6.8-7.9-8.6c-1.4-0.7-1.8-2.2-1.8-3.6c0-0.7,0-1.8,0.4-2.5c0.7-1.8,1.1-4,1.4-6.1c-0.4,0-0.4,0-0.7,0
		c-1.4,0-2.9,0-4.3,0c-1.8,0-3.2,0-5-0.4c-0.4,1.4-0.4,3.2-0.4,4.7c0,1.8-0.4,3.2-1.1,5c-1.1,2.5-1.1,5.8-2.2,8.3l0.4,9.4
		c1.1,1.8,1.1,4,1.1,5.8c0,1.4,0.4,2.9,1.1,4c0.7,1.8,0.7,3.2-0.4,5c-2.2,3.6-2.9,7.6-2.5,11.5c0,2.5,0.7,5,1.4,7.6
		c0.7,2.5,2.2,4,3.6,5.8c0.4,0.4,0.7,0.7,1.1,1.4c0.4,0.4,0.4,1.1,0.4,1.4c-1.4,3.2-1.8,6.5-1.8,10.1c0,3.6,1.1,6.8,2.5,9.7
		c1.8,4,4,7.6,6.8,10.8c0.7,0.7,1.1,2.2,0.4,3.2c-0.4,1.1-1.1,2.2-0.7,3.2c0.7,2.5,1.4,5,1.8,7.6c0,0.4,0.4,1.1,0.7,1.4
		c0.4,0.7,1.1,1.4,1.4,2.2c1.4,1.8,3.6,2.9,4.3,5.4c0.4,1.8,0,4,0,6.1c0,2.9,1.4,5.4,3.2,7.9c0.7,1.1,2.2,1.1,2.9,0.7
		c2.5-1.4,4.7-3.2,7.2-5c1.1-0.7,2.5-1.4,4-1.4c1.4,0,2.9-0.4,4.3-0.4c2.2,0,4-0.7,5.8-1.4c1.1-0.4,2.9,0,2.9,1.1
		c0.7,2.2,1.4,4.3,3.2,6.1c0.7,0.7,0.7,1.8,0.4,2.5c-0.7,1.4-0.4,2.9,0.7,4c0.7,0.7,1.8,1.8,2.9,2.2c1.8,0.7,3.2,2.2,4.3,4
		c1.4,3.2,4.7,4,7.9,4.7c1.1,0,2.2,0,3.6,0c1.8,0,3.2-1.1,4-2.9c1.8-3.2,2.5-6.5,1.1-10.1c-1.1-2.9-0.7-5.8-2.2-8.3
		c-0.7-1.1-0.7-2.9-0.7-4.3c0-1.4,0-2.9,1.1-4c1.1-1.4,1.8-2.9,2.9-4.3c2.2-2.9,3.2-5.8,3.2-9.7c0-1.8,0-3.6,0-5
		c0-0.4,0.4-1.1,0.7-1.4c1.1-1.1,2.2-2.2,3.2-2.9c0.7-0.7,1.1-1.8,1.4-3.2c0.4-3.2,0-6.5-0.4-9.4c0-1.4,0.4-2.9,1.4-4
		c1.1-1.1,2.2-2.2,2.9-3.2c0.4-0.7,0.7-1.4,1.1-2.2c0.4-3.2,0.4-6.1-1.1-9.4c-0.4-0.4,0-1.1,0.4-1.8c0.7-1.4,1.1-2.5,2.2-3.6
		c1.8-2.2,2.5-4.3,2.5-7.2c0-1.8,0-3.6,0-5c0-1.4,1.4-2.5,1.1-4.3C204.5,100.1,203.8,98.3,202.3,96.8z M155.9,164.9
		c0,0.4-0.4,0.4-0.4,0.7c-0.4,0-0.4,0-0.7,0c-1.8-0.7-2.9-2.2-3.2-3.6c-0.7-1.4-1.1-3.2-1.4-4.7c0-0.4-0.4-1.1,0-1.8
		c0.7-1.8,1.1-4,1.8-5.8c0.4-1.1,1.4-1.8,2.5-1.8c0.4,0,0.7,0,0.7,0c0.7,0.4,1.1,0.7,0.7,1.4c-0.4,1.4-1.1,2.5-1.4,4
		c-0.4,3.2-0.4,6.1,1.4,9C156.2,163.1,155.9,164.2,155.9,164.9z M158.8,129.2c-1.1,2.2-2.2,2.2-3.6,0.4c-0.4-0.4-0.4-1.1-0.4-1.4
		c0.7-1.8,1.8-3.6,3.6-4.3c0.4,0,0.4,0,0.7,0c0.4,0,0.4,0.4,0.4,0.7C159.5,126,159.5,127.8,158.8,129.2z M172.8,175.7
		c0,0.7-0.7,0.7-1.4,0.7s-1.1-0.4-1.4-0.7c-0.7-1.4-0.7-3.2,0-4.7c0.4-0.7,0.7-0.7,1.4-0.7s1.1,0.4,1.4,0.7c0.4,0.7,0.4,1.4,0.4,2.5
		C173.2,174.2,172.8,175,172.8,175.7z M175,149.4c0,0.4-0.4,0.4-0.7,0.7c-0.4,0-0.4,0.4-0.7,0.4c-0.7,0-1.1,0-1.4-0.4
		c-0.4-1.1-0.7-1.8-0.7-2.5c0-1.1,0-1.8,0.4-2.9c0.4-1.1,1.1-2.2,2.2-2.5c0.4-0.4,1.1-0.4,1.4,0c0.4,0.4,0.7,1.1,0.7,1.4
		C175.7,145.8,175.3,147.6,175,149.4z M178.9,119.9c-0.7,1.4-0.7,3.2-0.4,5c0.4,0.7,0.7,1.4,1.1,2.2c0,0.4,0,1.1,0.4,1.8
		c0,0.4-0.4,0.4-0.4,0.7c-0.7,0.7-2.2,0.4-2.9-0.4c-1.8-1.4-1.8-3.2-2.9-4.7c-1.1-1.4-0.4-3.2,0-4.7c1.1-2.5,2.5-4.3,4.7-6.1
		c0.4-0.4,1.1-0.4,1.4-0.7c0.7,0,1.1,0,1.4,0.7c0,0.4,0,0.7,0,0.7C181.4,116.6,180,118.1,178.9,119.9z"/>
	<path fill="#ED7B70" d="M385.2,47.5c-0.4,0.4-0.7,0.4-1.1,0.7c-1.8,1.1-3.6,2.2-5.4,3.2c0.4,0.4,0.4,0.4,0.7,0.7
		c1.1,1.1,1.1,2.2,0.4,4c-1.1,2.5-2.9,4.3-4.7,6.1c-2.9,2.5-5.8,4.7-9.4,6.1c-6.1,2.9-12.6,5.4-18.7,8.6c-1.1,0.4-2.2,1.1-3.2,1.4
		c-5,1.4-10.1,2.5-14.8,5c-0.4,0.4-1.1,0.4-1.8,0.4c-2.9-0.4-5.4,1.4-8.3,1.8c-2.9,0.7-5.4,1.8-8.3,1.4c-1.1,0-2.5,0-3.2,0.4
		c-2.5,1.4-5,1.1-7.6,1.4c-1.8,0-3.6,0-5,0.7c-2.2,0.7-4.3,1.1-6.8,1.1c-9.7,0-19.4,0.4-29.2,0.4c-1.1,0-2.5,0-3.2,0.4
		c-1.8,0.7-3.2,0.7-5,0.7s-3.6,0-5,0c-1.8-1.1-3.6,0.4-5,0c-2.5-1.1-5-0.7-7.6-1.1c-3.6-0.4-7.6-0.4-11.2-0.4c-0.7,0-1.8,0-2.5-0.4
		c-2.5-1.1-5-1.1-7.6-1.1c-2.2,0-4.7-0.4-6.8-1.4c-2.2-0.7-4.3-1.4-6.5-1.8c-1.8-0.4-4-0.4-6.1-0.4s-3.6-1.4-5.8-1.4
		c-2.2,0-4.7-0.4-6.8-1.1c-2.2-1.1-4.7-0.4-6.5-1.8c-6.8-1.8-13.7-4.3-20.2-7.2c-1.8-0.7-3.6-2.2-5.8-2.2c-4.3-1.8-8.3-3.6-11.5-7.2
		c-0.7-0.7-1.4-1.8-1.8-2.9c-3.2-1.8-6.5-3.6-9.7-5.8h-0.4c1.1,0.7,1.8,1.4,2.9,2.2c-1.1-0.7-1.8-1.4-2.9-1.8
		c-0.4,1.8-0.7,3.6-0.4,5.4c0,0.7,0.4,1.1,0.7,1.4c0.4,0.7,1.1,1.4,1.8,1.8c2.5,2.2,4.7,5,6.1,8.3c1.1,2.2,3.2,3.2,5.4,3.6
		c2.2,0.4,4,0.4,6.1,0c2.9-0.4,5.4,1.1,8.3,2.5c2.9,2.9,6.5,3.6,10.1,2.9c0.7,0,1.8,0,2.5,0c3.6-0.4,6.8,1.1,9.4,3.2
		c1.1,0.7,1.8,1.4,2.5,2.2c0.7,0.4,1.4,1.1,2.2,1.4c0.7,0.4,1.4,0.7,2.5,1.1c0.7-0.4,1.4-0.7,2.5-0.7c1.8-0.7,3.6-1.4,5.8-1.8
		c2.9-0.4,5.8,0,8.3,0c3.2,1.8,5.4,4.3,7.9,6.8c0.7,0.7,1.4,1.1,2.2,1.4c2.2,0.4,4.7,0.7,6.5,1.8c2.9,0.4,5.8,0.4,8.6,1.1
		s5.8,1.1,8.6,1.1c7.6,0,15.1,0,22.3,0c6.1,0,12.2,0,18,0c6.1,0,12.2,0,18,0c4,0,7.9,0.4,11.9-1.4c0.4,0,0.7-0.4,0.7-0.4
		c2.2,0,4-0.4,6.1-0.4c2.2,0,3.6-1.4,5.8-1.4c2.9,0,5.8,0,8.3-1.4c0.4,0,0.7,0,0.7,0c7.6-1.1,11.5-2.5,18-5c4.3-1.8,8.6-3.2,12.6-5
		c10.1-4.3,11.2-4.7,19.1-9.7c0.7-0.4,1.4-0.7,2.2-1.1c6.1-3.6,6.8-4,10.8-8.3c1.8-2.2,2.5-4.3,2.5-7.2c0-2.5-2.2-4.7-2.2-7.6
		C386.3,49,385.9,48.2,385.2,47.5z"/>
	<path fill="#A35652" d="M223.6,128.5c2.2,0,3.6-0.4,5.4-1.1c1.1-0.7,2.2-0.7,2.9-1.8c2.2-2.5,5.8-2.9,8.3-4.3
		c0.7-0.4,1.8-0.4,2.5-0.7c2.2-0.7,4.3-1.8,6.5-2.9c3.6-0.4,7.6-0.4,11.2-0.4c5,0,9.7-0.4,14.8,0c3.2,0,6.1-0.7,9.4-1.4
		c1.4-0.4,2.2-2.9,1.1-4.3c-0.4-0.7-1.1-1.4-1.8-1.8c-1.8-1.1-4-2.2-6.5-2.5c-2.2-0.4-4.3-1.1-6.8-1.4c-2.2-0.4-4.7-0.4-6.8-0.4
		c-1.8,0-3.2-0.7-5-0.7c-1.4,0-2.9,0.4-4.3,0.7c-0.7,0-1.8,0.4-2.5,0c-4.7-0.7-9,1.4-13.3,2.9c-3.6,1.4-6.8,3.2-10.1,4.7
		c-4,1.8-7.2,4.7-9.7,8.3c-1.4,2.2,0,5.8,2.5,6.5C222.1,128.5,222.8,128.5,223.6,128.5z"/>
	<path fill="#A35652" d="M379.1,97.2c-2.9,0-5.8,0-8.6,0c-4,0-7.2,1.8-9,5.4c-0.7,1.1-1.1,1.8-1.4,2.9c-0.4,1.1-0.4,2.2,0.4,3.2
		c1.1,1.4,2.2,2.5,4,3.2c0.7,0.4,1.8,0.4,2.5,0c5.4-1.4,11.2-1.4,16.9-1.4c2.5,0,5,0.4,7.6,0.4c3.2,1.4,7.2,2.2,10.1,4.3
		c1.4,0.7,2.9,1.8,4.3,2.5c1.1,0.4,2.2,0.4,3.2-0.7c1.8-1.4,2.5-3.2,1.8-5.4c-0.4-1.1-1.1-2.2-1.1-3.2c-0.7-2.9-2.9-4.7-5.4-6.5
		c-2.5-1.4-5.4-2.2-7.9-3.2c-3.6-1.1-7.2-2.2-10.8-1.8C383.8,97.6,381.6,97.2,379.1,97.2L379.1,97.2z"/>
	<path fill="#A35652" d="M181.8,310c-0.4-3.6,0-6.5-1.4-8.6c-0.4-2.5-0.4-5-1.4-7.6c-0.7-1.4-0.7-3.2-0.7-5c0-0.7-0.4-1.8-0.4-2.5
		c-0.4-1.1-1.8-2.2-2.5-1.4c-2.5,1.4-5,0.7-7.6,1.1c-0.7,0-1.4,1.4-1.4,1.8c0,0.7,0,1.1,0.4,1.8c0.7,1.4,1.4,2.9,2.2,4.7
		c2.2,4.7,2.5,6.1,4,13c0.7,3.2,2.5,5,5.4,6.1c0.4,0.4,1.1,0,1.8,0s1.4-0.7,1.4-1.8c0-0.4,0-0.7,0-0.7
		C181.8,310,181.8,309.6,181.8,310z"/>
	<path fill="#FADFD7" d="M365.4,325.8c0-3.2-0.4-6.1-0.4-9c-1.8-4-1.1-7.9-1.4-11.9c0-1.4-0.4-2.9-1.4-4c-0.7-1.1-1.4-1.8-1.8-2.9
		c-1.1-3.2-4-4-6.5-5c-1.4-0.7-3.6-0.4-5,0c-1.8,0.7-3.2,1.1-5,0c-0.4-0.4-1.1-0.4-1.8,0c-3.6,1.8-7.2,1.1-11.2,1.4
		c-2.2,0.4-4.7,0-6.8,1.1c-1.1,0.4-2.2,0.7-3.2,0.7c-4,0-6.5,2.2-8.6,5c-0.4,0.7-0.7,1.4-0.7,2.5c0,1.1-0.4,2.5,0.4,3.2
		c1.4,2.5,1.4,5.4,1.8,8.3c0.4,2.9,1.8,5.4,2.2,8.3c0,0.7,0.7,1.4,0.7,2.5c0.4,2.2,0,4.7,0.7,6.8c0.7,2.2,1.1,4.3,1.4,6.8
		c0,1.8,1.1,3.2,2.2,4.3c2.2,2.2,5.4,3.6,7.9,5.4c1.8,0.4,3.6,0.4,5,1.1c2.5,1.1,5,1.1,7.6,0c1.1-0.4,2.2-0.7,3.2-0.7
		c4-0.4,7.9-2.2,11.9-1.8c0.4,0,0.7,0,0.7-0.4c2.5-1.4,4.7-3.2,6.1-5.8c0.4-2.5,1.4-5,1.8-7.6C365,331.2,365,328.3,365.4,325.8z"/>
	<path fill="#FADFD7" d="M273.6,297.7c2.2,0,4,0,6.1,0c5.8,0,10.8-1.8,15.8-4c1.1-0.4,2.2-1.1,2.9-1.8c0.7-0.4,1.4-2.2,1.1-3.2
		c-0.7-2.5-1.8-4.7-2.5-7.2c-1.1-2.5-0.4-5-1.8-7.6c-0.7-3.2-1.8-6.1-1.8-9.4c-0.4-3.2-1.8-6.1-2.2-9c0-0.7-0.7-1.4-1.8-1.4
		c-2.5,0-4.3-1.1-6.5-1.8c-2.5-0.4-5-1.1-7.6-1.8c-2.2-0.7-4.3-1.1-6.5-2.2c-2.2-1.1-4.3-1.4-6.5-1.8c-1.4,0-2.9-0.7-4-1.1
		c-3.6-1.1-6.8,0-9.7,2.2c-0.7,0.4-1.4,1.4-1.1,2.2c0.7,1.8,0.4,3.2,0.7,5c0.4,2.9,0.4,5.8,1.4,8.3c0.4,1.1,0.4,2.9,0.4,4.3
		c0,2.5,0,5,1.4,7.6c0,4,2.2,7.6,2.2,11.9c0,1.1,0.4,2.2,1.1,3.2c0.7,1.1,1.4,1.8,1.8,2.9c1.8,2.5,4.3,4,7.2,4
		C266.4,298.1,270,297.7,273.6,297.7L273.6,297.7z"/>
	<path fill="#FADFD7" d="M316.1,346.7c-0.7-2.5-1.4-5-2.2-7.2c-0.4-1.1-0.7-2.2-0.7-3.2c-0.4-2.2-0.4-4.7-1.4-6.8
		c-0.4-1.1-0.4-2.2-0.4-3.2c0-1.1,0-2.5-0.7-3.2c-1.1-2.2-1.1-4.3-1.1-6.8c0-2.5-2.5-10.1-4-12.2c-1.8-2.9-4.3-4.7-7.2-5.4
		c-4.3,0.7-8.3,3.2-12.6,2.9c-3.6,1.8-7.9,1.4-11.9,1.8c-1.1,0-2.2,1.1-2.2,2.2c0,5,0,9.7,0.4,14.8c1.8,4.7,1.4,9.7,1.4,14.4
		c0,2.9,1.8,5.4,1.8,8.3c0,0.4,0.4,1.1,0.7,1.4c0,0.4,0.4,0.4,0.4,0.7c1.4,1.8,3.2,3.2,4.7,5c2.2,2.2,4.7,3.2,7.9,3.2
		c5.4,0,10.8,0,16.2,0c4,0,7.2-1.4,9.7-4.7C315.7,347.4,316.1,347,316.1,346.7z"/>
	<path fill="#FADFD7" d="M312.1,292.7c3.2-0.4,6.1,0,8.6-1.4c1.1-0.7,2.9-0.4,4.3-0.7c2.2-0.4,4-0.4,5.8-1.1
		c0.7-0.4,1.8-0.4,2.5-0.4c1.8,0,3.6,0,5-0.4c1.8,0,3.2-1.4,5-1.4c2.9,0,4.7-1.8,6.5-4c0.4-0.7,1.1-1.4,1.1-2.2c0-1.8,0-3.6-0.4-5
		c-0.7-1.8-1.4-4-1.1-5.8c0-4-1.4-7.2-2.2-10.8c0-0.4-0.4-0.4-0.4-0.7c-1.4-1.1-2.9-2.2-4.7-2.2c-5.8,2.2-11.9,1.4-18,1.4
		s-12.2,0-18-0.4c-1.4,0-2.9-0.7-4.3-1.1c-1.4-0.4-2.9-0.4-4.3-0.4c-1.1,0-2.2,1.4-1.8,2.5c0.4,1.8,1.1,4,1.4,5.8
		c0.4,1.8,0.4,4,0.4,6.1c0,0.7,0.4,1.1,0.7,1.4c0.7,2.9,2.2,5.8,2.5,9c0.7,3.2,2.2,6.5,4.3,9.4c0.7,1.1,2.2,1.8,3.6,2.2
		C310.3,292.7,311.4,292.7,312.1,292.7z"/>
	<path fill="#FADFD7" d="M399.6,306c0-1.8,0-3.6,0-5c-0.4-4.3-1.8-8.3-4-12.2c-0.4-0.4-0.7-0.7-1.4-1.1c-3.6-0.7-6.8-0.7-10.1,0.4
		c-1.4,0.4-2.9,0.7-4.3,0.7c-2.9,0-5.8,0.7-8.3,2.2c-1.4,0.7-2.5,1.1-4,1.8c-0.7,0.4-1.1,1.1-1.1,2.2c0,2.9,0,5.8,1.1,8.6
		c0.4,1.1,0.4,2.2,0.7,3.2c0.4,3.6,0.4,7.6,0.4,11.2c0,1.1,0,2.2,0.4,3.2c1.1,4,1.1,7.9,0,11.9c-0.4,1.1,0,2.2,0.7,3.2
		c1.4,1.4,2.9,2.9,4.7,4c0.7,0.4,1.4,0.7,2.5,0.7c2.5,0.4,5,0,7.6-1.1c3.2-1.4,6.5-3.6,10.1-4.3c1.4-0.4,2.5-1.4,3.6-2.5
		c0.7-0.7,1.4-1.8,1.4-2.9c0-4,0.4-7.9,0.4-12.2c0-1.4,0.7-2.9,0.7-4.3c0-0.7-0.4-1.8-0.7-2.5c0-1.8,0-3.6,0-5
		C400,306,399.6,306,399.6,306z"/>
	<path fill="#FADFD7" d="M394.2,268.6c0-2.2,0-5.4-1.1-9c-0.4-0.7-0.4-1.8-0.4-2.5c0-1.8,0-3.6-0.4-5c-0.4-1.8-1.1-3.2-1.4-5
		c-0.4-1.1-0.4-2.2-0.4-3.2c0-0.7-2.2-1.8-2.9-1.4c-0.7,0.4-1.4,0.7-2.2,1.1c-2.5,1.4-5,2.5-7.6,4c-4.3,0.7-7.9,2.9-12.2,4
		c-2.2,0.4-4.3,1.8-6.5,1.8c-1.8,0-3.2,1.1-4.7,1.8c-2.2,1.1-2.9,2.2-2.9,4.7c0.4,2.2,0,4.7,1.4,6.5c0.7,3.2,1.8,6.5,2.2,10.1
		c0,2.2,1.1,4.3,1.8,6.5c0,0.4,0.7,0.7,1.1,1.1c1.8,1.1,3.6,1.8,5.8,1.8c3.6,0,7.6,0.4,11.2-1.4c1.4-0.7,3.2-0.4,5-0.7
		c2.9-0.7,6.1-1.4,9.4-1.8c2.2,0,5.4-3.6,5.4-6.1C394.2,274,394.2,271.8,394.2,268.6z"/>
	<path fill="#FADFD7" d="M406.8,276.8c1.4,0,2.9,0,4.3,0c3.2,0,6.1-1.8,9-1.8c1.1,0,2.2-1.1,3.2-1.4c1.8-0.7,2.9-1.8,4.3-2.9
		c1.8-1.8,3.6-3.6,5.4-5.4c0.7-0.7,0.7-1.4,0.4-2.2c-1.1-2.5-0.7-5.8-2.2-8.3c0-3.2-1.4-6.1-2.9-9c-1.4-2.9-2.9-5.8-4.3-8.3
		c-1.1-1.8-2.5-2.9-4.3-4c-2.9-1.4-5.4-1.4-8.3-1.1c-2.2,1.4-5,1.1-7.2,2.2c-2.5,1.1-5,2.5-7.6,4c-0.4,0-0.4,0.4-0.7,0.4
		c-0.7,0.7-1.4,2.2-1.1,2.9c0.4,2.2,1.8,4,1.8,6.5c0,1.8,1.1,4,1.1,5.8c0.4,1.8,0.4,3.6,0.4,5c0,0.7,0,1.1,0,1.8
		c1.4,4.3,1.1,8.3,1.4,12.6c0,0.7,0,1.1,0.4,1.8c0,0.7,1.1,1.4,1.8,1.4C403.2,276.8,405,276.8,406.8,276.8L406.8,276.8z"/>
	<path fill="#FADFD7" d="M240.8,312.5c0,2.2,0.4,4,0,6.1c-0.4,3.6,0.7,6.8,1.4,10.1c0,0.7,0.7,1.4,1.1,2.2
		c4.3,4.7,9.7,8.3,15.1,11.2c2.2,1.1,4.7,2.5,6.8,3.2c1.1,0.4,2.2,0.7,3.2,0.7c1.4,0,2.9-1.4,2.5-2.9c0-0.4,0-0.7,0-0.7
		c-1.4-2.9-1.8-6.1-1.8-9.4c0-3.2,0.4-6.5-1.4-9.4c0-1.8-0.4-3.6-0.4-5c-0.4-3.2,0-6.1-1.4-9.4c-0.7-1.4-0.4-3.2-0.7-5
		c0-0.4-0.7-1.1-1.1-1.1c-0.7-0.4-1.8-0.4-2.5-0.4c-2.2,0-4-0.4-5.4-1.8c-1.4-1.1-2.9-1.8-4.3-2.9c-0.7-0.4-1.8-0.7-2.5-0.4
		c-2.2,1.1-4.3,1.4-6.5,2.5c-2.9,1.4-2.9,1.4-2.9,4.3C240.8,307.4,240.8,310,240.8,312.5L240.8,312.5z"/>
	<path fill="#FADFD7" d="M405.7,328c0.7-0.4,1.8-0.7,2.5-1.1c5-3.2,10.1-6.8,14-11.2c1.8-2.2,2.9-4.3,3.6-6.8
		c0.4-0.7,0.4-1.8,0.7-2.5c1.1-2.5,1.4-5,2.5-7.2c0-3.6,0-6.8,0-10.4c0-0.7,0-1.8-0.4-2.5c-1.1-1.8-0.7-4-1.1-5.8
		c-0.4-1.4-1.8-2.2-3.2-2.2c-0.7,0-1.8,0.4-2.5,0.7c-1.4,0.7-3.2,1.1-5,1.4c-1.8,0.4-4,1.1-5.8,1.4c-2.2,0.4-4,0-6.1,0
		c-0.7,0-1.1,0.4-1.8,0.4s-1.4,1.1-1.4,1.8c-0.4,2.9-0.7,5.8,0.7,8.3c0.7,1.4,0.7,2.9,0.7,4.3c0.4,1.4,0.4,2.9,0.7,4.3
		c0.7,1.8,0.7,3.2,0.7,5c0,6.5,0,12.6,0,19.1C404.6,326.2,404.6,327.2,405.7,328z"/>
	<path fill="#FADFD7" d="M225.4,282.2c0,2.5,0,5,0,7.9c0,2.9,2.9,5.8,5.4,5.8c3.6,0,6.8,0.4,10.4,0.4c2.5,0,4.7-1.4,7.2-2.2
		c0.7-0.4,0.7-0.7,0.7-1.4c0-0.4,0-0.7,0-0.7c-1.1-2.9-1.4-5.4-1.8-8.3c0-2.5-1.8-5-1.4-7.6c0-0.4,0-0.7,0-0.7
		c-1.4-4-1.8-8.3-1.8-12.6c0-0.4,0-0.7,0-0.7c-1.8-2.9-1.4-6.1-2.2-9c0-0.7-1.8-1.1-2.2-0.7c-0.4,0-0.4,0.4-0.7,0.4
		c-2.5,2.5-5.4,5.4-7.9,7.9c-1.8,1.8-2.9,3.6-3.6,5.8c-1.1,3.6-2.5,6.8-2.5,10.8C225,278.3,225,280.1,225.4,282.2
		C225,282.2,225,282.2,225.4,282.2z"/>
	<path fill="#FADFD7" d="M236.9,312.5c0-2.2,0-4,0-6.1c0-1.8-1.1-3.2-2.2-4.3c-1.1-1.1-2.9-2.2-4.7-2.2c-0.4,0-1.1,0.4-1.4,0.7
		c-0.4,1.1-0.4,2.2,0,3.2c1.1,3.6,2.2,7.6,3.6,11.2c0.7,1.4,1.8,2.9,3.2,4c0.4,0,0.4,0.4,0.7,0.4s0.4-0.4,0.4-0.4
		C237.6,316.8,236.9,314.6,236.9,312.5z"/>
	<path fill="#FADFD7" d="M434.2,279.4c0-1.8-0.4-3.2-0.7-5c0-0.4-0.4-0.7-0.4-0.7c-0.4,0-1.1,0-1.8,0c-0.4,0-0.4,0.4-0.7,0.7
		c-0.7,2.9-0.7,7.9,0.4,11.9c0,0.4,0.4,0.4,0.7,0.4c0.7,0.4,1.1,0,1.4-0.4c0.4-0.4,0.4-1.1,0.4-1.4
		C434.2,283,434.2,281.2,434.2,279.4L434.2,279.4z"/>
	<path fill="#FADFD7" d="M318.6,351.4c-0.4,0.7,0,1.1,0.7,1.4c1.1,0.4,2.2,0.4,3.2,0c0.7,0,1.1-1.4,0.7-2.2c-1.1-1.4-3.2-1.4-4.3,0
		C318.6,350.6,318.6,351,318.6,351.4z"/>
	<path fill="#FADFD7" d="M369,344.5c0.4,0,1.1,0,1.4-0.4c0.7-0.4,0.7-0.7,0.7-1.1c-0.4-1.1-1.4-1.8-2.5-1.8c-0.7,0-1.4,0.4-1.8,1.4
		c-0.4,0.7,0.4,1.8,1.1,1.8C368.3,344.5,368.6,344.5,369,344.5z"/>
	<path fill="#FADFD7" d="M266.8,199.4c-2.2,0-3.2-0.4-4.3-0.4c-5.8-0.4-9.7-3.2-12.2-8.3c-0.4-1.1-1.1-2.2-1.1-3.2c0-2.5,0-5,0-7.6
		c0.4-4.3,2.5-7.6,6.1-9.7c0.4,0,0.4-0.4,0.7-0.4c2.9-1.4,5.4-3.2,8.6-3.2c4,0.4,7.9,1.8,11.2,3.6c2.2,1.1,4,3.2,5.4,5.8
		c0.4,0.4,0.4,1.1,0.7,1.4c0.4,1.4,0.4,2.9,0.4,4.3c0.4,5.4-0.7,10.1-4.7,14c-0.7,0.7-0.7,1.1,0,1.4c0.4,0,0.4,0.4,0.7,0.4
		c1.1,0,2.5,0,3.2-0.4c4-1.4,7.6-2.9,10.4-5.8c2.2-2.5,3.6-5,3.6-8.3c0.4-5-1.8-9.4-4-14c-0.4-0.7-1.1-1.4-1.4-2.2
		c-3.6-4-8.3-6.5-14-7.6c-0.7,0-1.8-0.4-2.5-0.7c-4-1.8-7.9-1.8-11.9-0.7c-3.6,0.7-7.2,2.5-10.1,4.7c-2.9,2.5-5.4,5-7.9,7.9
		c-1.1,1.1-2.2,2.9-2.9,4.3c-1.1,2.5-1.8,4.7-2.5,7.2c-0.4,2.5-0.4,5,0,7.6c0,2.2,1.1,4,2.5,5.4c1.8,2.2,3.6,4.3,6.5,5.8
		c1.8,1.1,3.6,1.8,5.8,1.8c1.8,0,3.6-0.4,5,0C261.4,202.7,263.5,201.6,266.8,199.4z"/>
	<path fill="#FADFD7" d="M388.8,174.6c-0.4,0.4-0.7,1.1-0.7,1.4c-0.4,0.7,0,1.1,0.4,1.4c0,0,0.4,0,0.7,0c1.8-0.7,3.6-1.4,5-3.2
		c1.1-1.4,2.2-2.5,2.5-4.3c0-1.1,0.7-2.2,1.1-3.2c0-0.7,0-1.8,0-2.5c-0.4-1.8-0.7-3.2-1.4-5c-1.1-2.9-2.2-5.4-4.3-7.2
		c-2.2-2.2-4.3-4.3-7.6-5.4c-0.7-0.4-1.4-0.7-2.5-0.7c-2.9,0-5.8,0-8.6,0.7c-3.2,1.1-6.5,2.5-9,4.7c-3.6,2.9-5.4,7.6-5.8,11.9
		c-0.4,2.2,0,4.7,0,6.8c0,2.9,1.8,4.7,4.3,6.1l0.4-0.4c-0.4-2.9-1.4-5.4-1.4-8.3c0.4-1.8,0.4-3.6,1.1-5c0.4-0.7,0.7-1.4,1.1-2.5
		c1.1-2.2,2.5-3.6,4.7-5c2.2-1.4,4.7-2.5,7.2-2.2c0.7,0,1.8,0,2.5,0c2.5-0.4,4.3,1.1,6.5,2.2c0.4,0.4,1.1,0.7,1.4,1.1
		c2.5,2.9,4,6.1,4.7,10.1c0.4,1.8,0.4,4-0.7,5.8C389.5,172.4,389.2,173.5,388.8,174.6z"/>
	<path fill="#78433F" d="M412.9,228.2c2.2,0,4,0,6.1,0c1.1,0,2.2,0.4,3.2,1.1c2.5,1.1,4.3,2.5,5.4,5c1.1,2.2,2.9,4.3,3.6,6.8
		c0.4,1.8,1.4,3.2,2.2,4.7c1.4,2.9,2.5,5.8,2.5,9c0,0.7,0.4,1.8,0.7,2.5c1.4,2.2,0.7,5,1.8,7.6c1.1,2.5,0.7,5,0.7,7.6
		c0,2.2,0.4,4.7-0.4,6.8c-0.7,2.2-0.7,4.3-1.1,6.8c0,2.2-0.4,4.7-0.4,6.8c-1.8,2.9-0.7,6.5-2.5,9c-0.4,5-3.2,9-6.5,13
		c-0.4,0.7-1.4,1.1-1.8,1.8c-2.9,5-6.8,8.3-11.5,11.2c-3.2,2.2-6.1,4-9.4,6.1c-3.6,2.5-7.9,4.7-11.9,6.8c-5.8,2.9-12.2,4.7-18.4,6.8
		c-3.6,1.1-6.8,2.5-10.8,3.2c-3.6,0.7-7.2,2.2-10.8,1.8c-0.7,0-1.1,0-1.8,0.4c-2.5,1.4-5,1.1-7.6,1.4c-2.5,0.4-5,0.4-7.6,0.4
		c-2.5,1.4-5.8,1.1-8.3,1.1c-1.4,0-2.9,0-4.3,0.7c-1.8,0.7-4,1.1-5.8,1.1c-7.6,0-15.1,0-22.3,0c-1.1,0-2.2-0.4-3.2-0.7
		c-1.4-0.4-2.2,0.7-3.2,0.4c-1.8-0.4-3.6-1.4-5.8-1.4c-0.7,0-1.8-0.4-2.5-0.4c-5.4-1.8-10.8-3.6-15.8-6.1c-2.9-1.4-5.8-2.9-8.6-4.3
		c-4.3-1.8-7.9-4.3-11.9-7.2c-6.8-5-12.6-11.2-15.5-19.1c-2.2-5.4-4.3-10.4-5.8-16.2c-0.7-2.9-1.8-6.1-1.8-9c0-1.1-0.4-2.2-0.7-3.2
		c-0.4-1.1-0.4-2.2,0-3.2c0.4-1.1,0.4-2.2,0-3.2c-1.1-3.2-1.1-6.5-0.4-9.4c0.7-2.2,1.1-4.3,1.1-6.8c0-1.1,0.4-2.2,0.7-3.2
		c1.1-2.9,2.9-5.8,5-7.9c2.9-3.2,5.8-6.5,9.4-9c2.2-1.8,4.7-3.6,7.6-3.6c2.5-1.4,5.4-1.4,8.3-1.4c2.5,0,5.4-0.4,7.6,0.7
		c2.9,1.4,6.5,0.7,9,2.5c3.6,0.4,6.5,1.8,10.1,2.5c1.1,0.4,2.2,1.1,3.2,1.1c4.3,0,8.3,2.2,12.6,2.2c0.7,0,1.1,0.4,1.8,0.4
		c1.8,1.1,4,1.1,5.8,1.1c1.4,0,2.9,0,4.3,0.4c2.5,1.1,5,1.1,7.6,1.1c4,0,7.9,0,12.2,0c1.4,0,2.9,0.4,4.3-0.4c2.5-1.1,5-1.1,7.6-1.1
		c1.8,0,3.6,0,5-0.4c1.8-0.4,3.2-1.1,5-1.4c2.5,0,4.7-1.8,7.6-1.8c2.5,0,4.7-1.8,7.2-2.5c2.9-0.7,5.4-1.8,8.3-2.9
		c5-1.4,10.1-4,14.8-6.8c1.8-1.1,3.2-2.2,5.4-2.9c3.6-1.1,6.8-2.9,10.4-4.3c1.8-0.7,3.6-1.8,5.8-1.4
		C409.3,228.6,411.1,228.6,412.9,228.2C412.9,228.6,412.9,228.2,412.9,228.2z M364.7,316.8c-1.8-4-1.1-7.9-1.4-11.9
		c0-1.4-0.4-2.9-1.4-4c-0.7-1.1-1.4-1.8-1.8-2.9c-1.1-3.2-4-4-6.5-5c-1.4-0.7-3.6-0.4-5,0c-1.8,0.7-3.2,1.1-5,0
		c-0.4-0.4-1.1-0.4-1.8,0c-3.6,1.8-7.2,1.1-11.2,1.4c-2.2,0.4-4.7,0-6.8,1.1c-1.1,0.4-2.2,0.7-3.2,0.7c-4,0-6.5,2.2-8.6,5
		c-0.4,0.7-0.7,1.4-0.7,2.5c0,1.1-0.4,2.5,0.4,3.2c1.4,2.5,1.4,5.4,1.8,8.3c0.4,2.9,1.8,5.4,2.2,8.3c0,0.7,0.7,1.4,0.7,2.5
		c0.4,2.2,0,4.7,0.7,6.8c0.7,2.2,1.1,4.3,1.4,6.8c0,1.8,1.1,3.2,2.2,4.3c2.2,2.2,5.4,3.6,7.9,5.4c1.8,0.4,3.6,0.4,5,1.1
		c2.5,1.1,5,1.1,7.6,0c1.1-0.4,2.2-0.7,3.2-0.7c4-0.4,7.9-2.2,11.9-1.8c0.4,0,0.7,0,0.7-0.4c2.5-1.4,4.7-3.2,6.1-5.8
		c0.4-2.5,1.4-5,1.8-7.6c0-2.9,0.4-5.8,0.4-7.9C365,322.6,365,319.7,364.7,316.8z M279.4,297.7c5.8,0,10.8-1.8,15.8-4
		c1.1-0.4,2.2-1.1,2.9-1.8c0.7-0.4,1.4-2.2,1.1-3.2c-0.7-2.5-1.8-4.7-2.5-7.2c-1.1-2.5-0.4-5-1.8-7.6c-0.7-3.2-1.8-6.1-1.8-9.4
		c-0.4-3.2-1.8-6.1-2.2-9c0-0.7-0.7-1.4-1.8-1.4c-2.5,0-4.3-1.1-6.5-1.8c-2.5-0.4-5-1.1-7.6-1.8c-2.2-0.7-4.3-1.1-6.5-2.2
		c-2.2-1.1-4.3-1.4-6.5-1.8c-1.4,0-2.9-0.7-4-1.1c-3.6-1.1-6.8,0-9.7,2.2c-0.7,0.4-1.4,1.4-1.1,2.2c0.7,1.8,0.4,3.2,0.7,5
		c0.4,2.9,0.4,5.8,1.4,8.3c0.4,1.1,0.4,2.9,0.4,4.3c0,2.5,0,5,1.4,7.6c0,4,2.2,7.6,2.2,11.9c0,1.1,0.4,2.2,1.1,3.2
		c0.7,1.1,1.4,1.8,1.8,2.9c1.8,2.5,4.3,4,7.2,4c3.6,0.4,6.8,0,10.4,0l0,0C275.4,297.7,277.6,297.7,279.4,297.7z M314.3,339.1
		c-0.4-1.1-0.7-2.2-0.7-3.2c-0.4-2.2-0.4-4.7-1.4-6.8c-0.4-1.1-0.4-2.2-0.4-3.2s0-2.5-0.7-3.2c-1.1-2.2-1.1-4.3-1.1-6.8
		c0-2.5-2.5-10.1-4-12.2c-1.8-2.9-4.3-4.7-7.2-5.4c-4.3,0.7-8.3,3.2-12.6,2.9c-3.6,1.8-7.9,1.4-11.9,1.8c-1.1,0-2.2,1.1-2.2,2.2
		c0,5,0,9.7,0.4,14.8c1.8,4.7,1.4,9.7,1.4,14.4c0,2.9,1.8,5.4,1.8,8.3c0,0.4,0.4,1.1,0.7,1.4c0,0.4,0.4,0.4,0.4,0.7
		c1.4,1.8,3.2,3.2,4.7,5c2.2,2.2,4.7,3.2,7.9,3.2c5.4,0,10.8,0,16.2,0c4,0,7.2-1.4,9.7-4.7c0.4-0.4,0.7-1.1,1.1-1.4
		C315.4,344.2,314.6,341.6,314.3,339.1z M321.1,291.2c1.1-0.7,2.9-0.4,4.3-0.7c2.2-0.4,4-0.4,5.8-1.1c0.7-0.4,1.8-0.4,2.5-0.4
		c1.8,0,3.6,0,5-0.4c1.8,0,3.2-1.4,5-1.4c2.9,0,4.7-1.8,6.5-4c0.4-0.7,1.1-1.4,1.1-2.2c0-1.8,0-3.6-0.4-5c-0.7-1.8-1.4-4-1.1-5.8
		c0-4-1.4-7.2-2.2-10.8c0-0.4-0.4-0.4-0.4-0.7c-1.4-1.1-2.9-2.2-4.7-2.2c-5.8,2.2-11.9,1.4-18,1.4s-12.2,0-18-0.4
		c-1.4,0-2.9-0.7-4.3-1.1c-1.4-0.4-2.9-0.4-4.3-0.4c-1.1,0-2.2,1.4-1.8,2.5c0.4,1.8,1.1,4,1.4,5.8c0.4,1.8,0.4,4,0.4,6.1
		c0,0.7,0.4,1.1,0.7,1.4c0.7,2.9,2.2,5.8,2.5,9c0.7,3.2,2.2,6.5,4.3,9.4c0.7,1.1,2.2,1.8,3.6,2.2c1.1,0,2.2,0,3.2,0
		C315.4,292.3,318.2,292.3,321.1,291.2z M399.6,300.6c-0.4-4.3-1.8-8.3-4-12.2c-0.4-0.4-0.7-0.7-1.4-1.1c-3.6-0.7-6.8-0.7-10.1,0.4
		c-1.4,0.4-2.9,0.7-4.3,0.7c-2.9,0-5.8,0.7-8.3,2.2c-1.4,0.7-2.5,1.1-4,1.8c-0.7,0.4-1.1,1.1-1.1,2.2c0,2.9,0,5.8,1.1,8.6
		c0.4,1.1,0.4,2.2,0.7,3.2c0.4,3.6,0.4,7.6,0.4,11.2c0,1.1,0,2.2,0.4,3.2c1.1,4,1.1,7.9,0,11.9c-0.4,1.1,0,2.2,0.7,3.2
		c1.4,1.4,2.9,2.9,4.7,4c0.7,0.4,1.4,0.7,2.5,0.7c2.5,0.4,5,0,7.6-1.1c3.2-1.4,6.5-3.6,10.1-4.3c1.4-0.4,2.5-1.4,3.6-2.5
		c0.7-0.7,1.4-1.8,1.4-2.9c0-4,0.4-7.9,0.4-12.2c0-1.4,0.7-2.9,0.7-4.3c0-0.7-0.4-1.8-0.7-2.5c0-1.8,0-3.6,0-5h-0.4
		C399.6,304.2,399.6,302.4,399.6,300.6z M393.1,259.6c-0.4-0.7-0.4-1.8-0.4-2.5c0-1.8,0-3.6-0.4-5c-0.4-1.8-1.1-3.2-1.4-5
		c-0.4-1.1-0.4-2.2-0.4-3.2c0-0.7-2.2-1.8-2.9-1.4c-0.7,0.4-1.4,0.7-2.2,1.1c-2.5,1.4-5,2.5-7.6,4c-4.3,0.7-7.9,2.9-12.2,4
		c-2.2,0.4-4.3,1.8-6.5,1.8c-1.8,0-3.2,1.1-4.7,1.8c-2.2,1.1-2.9,2.2-2.9,4.7c0.4,2.2,0,4.7,1.4,6.5c0.7,3.2,1.8,6.5,2.2,10.1
		c0,2.2,1.1,4.3,1.8,6.5c0,0.4,0.7,0.7,1.1,1.1c1.8,1.1,3.6,1.8,5.8,1.8c3.6,0,7.6,0.4,11.2-1.4c1.4-0.7,3.2-0.4,5-0.7
		c2.9-0.7,6.1-1.4,9.4-1.8c2.2,0,5.4-3.6,5.4-6.1c0-2.2,0-4,0-7.2C394.2,266.4,394.6,262.8,393.1,259.6z M411.1,276.8
		c3.2,0,6.1-1.8,9-1.8c1.1,0,2.2-1.1,3.2-1.4c1.8-0.7,2.9-1.8,4.3-2.9c1.8-1.8,3.6-3.6,5.4-5.4c0.7-0.7,0.7-1.4,0.4-2.2
		c-1.1-2.5-0.7-5.8-2.2-8.3c0-3.2-1.4-6.1-2.9-9c-1.4-2.9-2.9-5.8-4.3-8.3c-1.1-1.8-2.5-2.9-4.3-4c-2.9-1.4-5.4-1.4-8.3-1.1
		c-2.2,1.4-5,1.1-7.2,2.2c-2.5,1.1-5,2.5-7.6,4c-0.4,0-0.4,0.4-0.7,0.4c-0.7,0.7-1.4,2.2-1.1,2.9c0.4,2.2,1.8,4,1.8,6.5
		c0,1.8,1.1,4,1.1,5.8c0.4,1.8,0.4,3.6,0.4,5c0,0.7,0,1.1,0,1.8c1.4,4.3,1.1,8.3,1.4,12.6c0,0.7,0,1.1,0.4,1.8
		c0,0.7,1.1,1.4,1.8,1.4c1.8,0,3.6,0,5,0l0,0C408.2,276.8,409.7,276.8,411.1,276.8z M240.8,318.6c-0.4,3.6,0.7,6.8,1.4,10.1
		c0,0.7,0.7,1.4,1.1,2.2c4.3,4.7,9.7,8.3,15.1,11.2c2.2,1.1,4.7,2.5,6.8,3.2c1.1,0.4,2.2,0.7,3.2,0.7c1.4,0,2.9-1.4,2.5-2.9
		c0-0.4,0-0.7,0-0.7c-1.4-2.9-1.8-6.1-1.8-9.4c0-3.2,0.4-6.5-1.4-9.4c0-1.8-0.4-3.6-0.4-5c-0.4-3.2,0-6.1-1.4-9.4
		c-0.7-1.4-0.4-3.2-0.7-5c0-0.4-0.7-1.1-1.1-1.1c-0.7-0.4-1.8-0.4-2.5-0.4c-2.2,0-4-0.4-5.4-1.8c-1.4-1.1-2.9-1.8-4.3-2.9
		c-0.7-0.4-1.8-0.7-2.5-0.4c-2.2,1.1-4.3,1.4-6.5,2.5c-2.9,1.4-2.9,1.4-2.9,4.3c0,2.5,0,5,0,7.9l0,0
		C240.8,314.6,240.8,316.8,240.8,318.6z M407.9,326.9c5-3.2,10.1-6.8,14-11.2c1.8-2.2,2.9-4.3,3.6-6.8c0.4-0.7,0.4-1.8,0.7-2.5
		c1.1-2.5,1.4-5,2.5-7.2c0-3.6,0-6.8,0-10.4c0-0.7,0-1.8-0.4-2.5c-1.1-1.8-0.7-4-1.1-5.8c-0.4-1.4-1.8-2.2-3.2-2.2
		c-0.7,0-1.8,0.4-2.5,0.7c-1.4,0.7-3.2,1.1-5,1.4c-1.8,0.4-4,1.1-5.8,1.4c-2.2,0.4-4,0-6.1,0c-0.7,0-1.1,0.4-1.8,0.4
		c-0.7,0-1.4,1.1-1.4,1.8c-0.4,2.9-0.7,5.8,0.7,8.3c0.7,1.4,0.7,2.9,0.7,4.3c0.4,1.4,0.4,2.9,0.7,4.3c0.7,1.8,0.7,3.2,0.7,5
		c0,6.5,0,12.6,0,19.1c0,1.1,0,2.2,1.1,3.2C406.4,327.6,407.2,327.6,407.9,326.9z M225.4,289.8c0,2.9,2.9,5.8,5.4,5.8
		c3.6,0,6.8,0.4,10.4,0.4c2.5,0,4.7-1.4,7.2-2.2c0.7-0.4,0.7-0.7,0.7-1.4c0-0.4,0-0.7,0-0.7c-1.1-2.9-1.4-5.4-1.8-8.3
		c0-2.5-1.8-5-1.4-7.6c0-0.4,0-0.7,0-0.7c-1.4-4-1.8-8.3-1.8-12.6c0-0.4,0-0.7,0-0.7c-1.8-2.9-1.4-6.1-2.2-9c0-0.7-1.8-1.1-2.2-0.7
		c-0.4,0-0.4,0.4-0.7,0.4c-2.5,2.5-5.4,5.4-7.9,7.9c-1.8,1.8-2.9,3.6-3.6,5.8c-1.1,3.6-2.5,6.8-2.5,10.8c0,2.2,0,4,0,6.1
		c0,0,0,0,0.4,0C225.4,284.8,225,287.3,225.4,289.8z M236.9,306.4c0-1.8-1.1-3.2-2.2-4.3c-1.1-1.1-2.9-2.2-4.7-2.2
		c-0.4,0-1.1,0.4-1.4,0.7c-0.4,1.1-0.4,2.2,0,3.2c1.1,3.6,2.2,7.6,3.6,11.2c0.7,1.4,1.8,2.9,3.2,4c0.4,0,0.4,0.4,0.7,0.4
		s0.4-0.4,0.4-0.4c0.7-2.2,0.4-4.3,0.4-6.8C236.9,310.3,237.2,308.5,236.9,306.4z M433.8,274.3c0-0.4-0.4-0.7-0.4-0.7
		c-0.4,0-1.1,0-1.8,0c-0.4,0-0.4,0.4-0.7,0.7c-0.7,2.9-0.7,7.9,0.4,11.9c0,0.4,0.4,0.4,0.7,0.4c0.7,0.4,1.1,0,1.4-0.4
		c0.4-0.4,0.4-1.1,0.4-1.4c0-1.8,0-3.6,0-5c0,0,0,0,0.4,0C434.2,277.9,433.8,276.1,433.8,274.3z M319.3,352.4c1.1,0.4,2.2,0.4,3.2,0
		c0.7,0,1.1-1.4,0.7-2.2c-1.1-1.4-3.2-1.4-4.3,0c0,0.4,0,0.4-0.4,0.7C318.2,351.7,318.6,352.4,319.3,352.4z M370.4,344.2
		c0.7-0.4,0.7-0.7,0.7-1.1c-0.4-1.1-1.4-1.8-2.5-1.8c-0.7,0-1.4,0.4-1.8,1.4c-0.4,0.7,0.4,1.8,1.1,1.8c0.4,0,0.7,0,1.1,0
		C369.4,344.5,370.1,344.2,370.4,344.2z"/>
	<path fill="#78433F" d="M235.4,178.9c0.7-2.2,1.4-4.3,2.2-6.5c0-0.4,0.7-1.1,1.1-1.4c1.8-2.5,4.3-4.7,6.1-7.2
		c1.4-1.8,3.6-2.9,5.4-4.3c4-2.9,7.9-6.1,13-5.4c0.4,0,1.1-0.4,1.4-0.4c1.1-0.4,2.2-0.7,3.2,0c1.4,0.7,3.2,0.7,5,1.1
		c1.8,0.4,3.2,1.4,5,1.4c2.9-0.4,4.7,1.8,7.6,2.2c1.8,0.4,2.9,1.8,4.3,2.9c0.4,0.4,1.1,0.4,1.4,0.7c1.1,0.7,2.2,1.8,2.9,3.2
		c1.1,2.2,2.2,4,3.2,6.1c0.7,1.4,1.4,2.5,1.8,4c0.4,2.5,0.7,5,1.8,7.6c0,0.4,0,0.7,0,0.7c-0.7,2.9-1.1,5.4-2.5,8.3
		c-2.2,4.7-6.8,6.8-10.8,9.7c-2.5,0-4.7,1.8-7.6,1.8c-1.4,0-2.9,0-4.3,0.7c-2.5,1.1-5,0.7-7.6,1.8c-2.9,1.1-5.8,1.1-8.6,1.4
		c-0.7,0-1.1,0-1.8,0.4c-3.2,1.4-6.1,1.1-9-0.4c-6.5-1.4-10.4-5.4-13.3-11.2c-0.4-1.1-0.7-2.2-1.4-3.2c-0.7-1.4-0.7-2.9-0.7-4
		C233.6,184.7,235.4,181.8,235.4,178.9z M262.4,199.4c-5.8-0.4-9.7-3.2-12.2-8.3c-0.4-1.1-1.1-2.2-1.1-3.2c0-2.5,0-5,0-7.6
		c0.4-4.3,2.5-7.6,6.1-9.7c0.4,0,0.4-0.4,0.7-0.4c2.9-1.4,5.4-3.2,8.6-3.2c4,0.4,7.9,1.8,11.2,3.6c2.2,1.1,4,3.2,5.4,5.8
		c0.4,0.4,0.4,1.1,0.7,1.4c0.4,1.4,0.4,2.9,0.4,4.3c0.4,5.4-0.7,10.1-4.7,14c-0.7,0.7-0.7,1.1,0,1.4c0.4,0,0.4,0.4,0.7,0.4
		c1.1,0,2.5,0,3.2-0.4c4-1.4,7.6-2.9,10.4-5.8c2.2-2.5,3.6-5,3.6-8.3c0.4-5-1.8-9.4-4-14c-0.4-0.7-1.1-1.4-1.4-2.2
		c-3.6-4-8.3-6.5-14-7.6c-0.7,0-1.8-0.4-2.5-0.7c-4-1.8-7.9-1.8-11.9-0.7c-3.6,0.7-7.2,2.5-10.1,4.7c-2.9,2.5-5.4,5-7.9,7.9
		c-1.1,1.1-2.2,2.9-2.9,4.3c-1.1,2.5-1.8,4.7-2.5,7.2c-0.4,2.5-0.4,5,0,7.6c0,2.2,1.1,4,2.5,5.4c1.8,2.2,3.6,4.3,6.5,5.8
		c1.8,1.1,3.6,1.8,5.8,1.8c1.8,0,3.6-0.4,5,0c2.9,0,5-1.1,8.3-2.9C264.6,199.4,263.5,199.4,262.4,199.4z"/>
	<path fill="#78433F" d="M392,146.2c2.2,1.8,4.3,3.6,5.8,6.1c3.6,6.1,3.6,6.8,3.6,13.7c0,1.1,0,2.2,0,3.6c-0.4,3.2-1.8,6.1-4.3,8.3
		c-1.4,1.1-2.9,2.2-4.3,2.9c-2.5,1.4-5,2.9-7.9,2.9c-5.4,0.4-10.8,0.4-16.2,0c-1.4,0-2.9-0.4-4-1.1c-1.4-0.7-3.2-1.4-4.7-2.2
		c-3.2-1.8-5-4.7-5.4-8.3c0-2.2-1.1-4.3-1.4-6.8s1.8-5,1.4-7.6c0-1.8,0.7-3.2,2.2-4.7c2.5-2.5,4.7-5,7.2-7.2
		c2.5-2.2,5.4-3.2,8.6-3.6c4.7-0.4,9-0.4,13.7,0.4C388.1,143.6,390.2,144.7,392,146.2z M387.7,176c-0.4,0.7,0,1.1,0.4,1.4
		c0,0,0.4,0,0.7,0c1.8-0.7,3.6-1.4,5-3.2c1.1-1.4,2.2-2.5,2.5-4.3c0-1.1,0.7-2.2,1.1-3.2c0-0.7,0-1.8,0-2.5c-0.4-1.8-0.7-3.2-1.4-5
		c-1.1-2.9-2.2-5.4-4.3-7.2c-2.2-2.2-4.3-4.3-7.6-5.4c-0.7-0.4-1.4-0.7-2.5-0.7c-2.9,0-5.8,0-8.6,0.7c-3.2,1.1-6.5,2.5-9,4.7
		c-3.6,2.9-5.4,7.6-5.8,11.9c-0.4,2.2,0,4.7,0,6.8c0,2.9,1.8,4.7,4.3,6.1l0.4-0.4c-0.4-2.9-1.4-5.4-1.4-8.3c0.4-1.8,0.4-3.6,1.1-5
		c0.4-0.7,0.7-1.4,1.1-2.5c1.1-2.2,2.5-3.6,4.7-5c2.2-1.4,4.7-2.5,7.2-2.2c0.7,0,1.8,0,2.5,0c2.5-0.4,4.3,1.1,6.5,2.2
		c0.4,0.4,1.1,0.7,1.4,1.1c2.5,2.9,4,6.1,4.7,10.1c0.4,1.8,0.4,4-0.7,5.8c-0.4,1.1-1.1,2.2-1.4,3.2C388.4,175,388.1,175.7,387.7,176
		z"/>
	<path fill="#78433F" d="M197.3,289.1c0,2.5,0,5,0.4,7.9c0,1.1,0,2.5,0.4,3.2c1.1,2.9,1.1,5.8,1.4,8.3c0.4,2.5,0,5,1.1,7.6
		c0.4,1.1,0.4,2.2,0.4,3.2c0.4,2.2,0,4.7,1.1,6.8c0.4,1.1,0.4,2.2,0.4,3.2c0.4,2.2,0.4,4,1.1,5.8c1.4,4.3,2.2,9,4,13
		c1.4,3.2,3.2,6.1,4,9.4c2.2,3.6,4,7.6,6.5,11.2c0.7,1.1,1.8,2.2,3.2,2.5c0.4,0,0.7,0,0.7,0c0.7-0.4,0.7-0.7,0.7-1.4
		c-0.4-1.8-1.1-3.2-2.2-4.7c-4.7-6.8-7.6-14.8-10.8-22.3c-0.4-2.9-1.8-5.4-1.8-8.3c-0.4-2.2-1.4-4.3-1.8-6.5c-0.4-2.2-0.4-4-0.4-6.1
		c0-1.4-0.4-2.9-0.7-4.3c-0.4-0.4-0.4-1.1-0.4-1.8c0-2.5-0.4-5-0.4-7.6s-1.4-5-1.4-7.6c0-6.1-0.4-11.9-0.4-18c0-2.5,0-5.4,0.7-7.6
		c0.7-2.5,1.1-5,1.8-7.6c1.1-2.5,1.8-5.4,2.9-7.9c2.9-6.1,6.1-12.2,10.1-18c0.7-1.1,0.7-2.2,0.4-3.2c-0.4-0.7-0.7-1.1-1.1-0.7
		c-0.7,0.4-1.4,0.7-2.2,1.4c-2.5,2.5-4.3,5-6.5,8.3c-1.8,2.9-3.6,5.8-4.7,9c-0.4,1.8-1.4,3.2-2.2,4.7c-1.1,3.2-2.5,6.5-2.9,9.7
		c0,0.7,0,1.8-0.4,2.5c-2.2,4-1.4,8.3-1.4,12.6C197.3,287.3,197.3,288,197.3,289.1L197.3,289.1z"/>
	<path fill="#78433F" d="M329.4,154.8c0.7,2.2,0.7,4.3,1.8,6.5c0.7,1.4,1.8,2.9,2.5,4.7c1.8,5.4,5.8,9,9,13.3
		c1.4,2.2,3.6,3.6,6.1,4.7c4.3,2.5,9.4,4.3,14,6.1c1.4,0.7,3.2,0.7,4.7,1.8c3.6,0,5.8,2.9,8.3,4.3c1.1,1.4,2.5,3.2,2.5,5.4
		c0,0.7,0,1.1,0,1.8s-0.4,1.1-0.7,1.4c-1.1,2.9-3.6,4.3-6.8,4.7c-2.2,0.4-4.7,0-6.8,1.1c-0.4,0.4-1.1,0.4-1.8,0.4
		c-6.1-2.2-12.6-0.7-18.7-1.1c-2.5,0-5,1.4-6.8,2.9c-2.2,1.8-1.8,5,0.7,6.5c0.4,0.4,1.1,0.4,1.4,0.4c0.7,0,1.8-0.4,2.5-0.4
		c2.5-0.7,4.7-1.8,7.2-2.5c2.2-0.7,4.7-0.4,6.5-1.8c1.1-0.4,2.2-0.4,3.2-0.4c3.6,0,6.8,0,10.4,0s6.5-1.8,9.4-3.6
		c0.4-0.4,0.7-0.7,1.1-1.4c1.1-2.2,2.2-4,3.2-6.1c0.4-1.1,0.4-2.2,0-3.2c-2.2-5.8-6.1-9.4-11.9-11.5c-2.9-1.1-5.8-2.2-9-2.9
		c-5.4-1.4-10.1-4-14.4-7.2c-0.7-0.4-1.4-1.1-1.8-1.8c-0.4-0.4-0.4-0.7-0.4-0.7c-5.4-5.4-8.6-11.9-11.9-18.7
		c-0.7-1.4-1.4-2.5-2.9-3.2c-0.4,0-0.7,0-0.7,0C330.1,154.4,329.8,154.8,329.4,154.8z"/>
	<path fill="#78433F" d="M162,243.7c0-0.4,0-1.1,0.4-1.4c0.7-2.9,1.4-5.4,2.9-7.9c1.1-1.4,1.4-3.2,1.4-5c0-2.5-0.4-5-0.4-7.9
		c0-2.2-1.4-3.6-1.8-5.8c-1.1-5-4.3-8.6-7.2-12.6c-1.8-2.2-4-3.2-6.5-4c-1.4-0.4-2.9-0.4-4.3,0.4c-0.7,0.4-0.7,0.7-0.7,1.4
		c0,0.4,0,0.7,0.4,0.7c0.7,0.4,1.4,0.7,2.2,1.1c5.8,2.9,9.7,7.2,11.2,13.3c1.8,2.9,1.4,6.8,2.9,9.7c0.4,1.1,0.4,2.2-0.4,3.2
		c-1.4,3.2-2.9,6.1-4,9.4c-1.8,5-0.7,9.7,2.2,13.7c1.8,2.2,3.6,4.3,6.1,6.1c1.1,0.7,2.2,1.1,3.2,0.7c0.4,0,0.7-0.7,1.1-1.1
		c0.4-0.4,0.4-1.1-0.4-1.4c-0.7-0.7-1.8-1.4-2.5-2.2C163.8,252,163.1,247.7,162,243.7z"/>
	<path fill="#78433F" d="M289.1,215.3c-2.5,1.1-5.8,2.5-9,2.9c-3.2,0.4-6.1,1.8-9,2.2c-2.5,1.4-5.4,1.1-8.3,1.1
		c-2.2,0-4.3-1.4-6.5-1.4c-2.2,0-4-0.4-5.8-1.4c-0.7-0.4-1.8-0.4-2.5-0.4c-0.4,0-0.7,0.7-1.1,1.1c0,0,0,0.7,0.4,0.7
		c0.4,0.4,0.7,1.1,1.1,1.1c1.8,0.7,3.6,1.4,5.4,2.2c5,1.8,7.2,2.2,11.9,2.2c2.2,0,4.7-0.4,6.8-0.4c2.5,0,4.3-1.4,6.5-1.8
		c4.7-1.1,9.4-2.5,13.7-5c2.2-1.1,4-2.5,5-4.3c0.4-0.4,0-1.1,0-1.4c-0.4-0.7-0.7-0.4-1.4,0C293.8,213.1,291.6,214.2,289.1,215.3z"/>
	<path fill="#78433F" d="M331.2,227.2c1.4,0,2.9-0.7,3.6-1.8c0-0.4,0.4-0.7,0.4-0.7c-0.4-0.4-0.7-1.1-1.1-1.1
		c-2.2-0.4-4.7-0.4-6.5-1.4c-0.7-0.4-1.4-0.7-2.2-1.1c-3.6-2.9-4-6.8-2.5-10.8c0.7-1.8,1.8-3.6,2.9-5.4c0.4-0.7,0-1.1-0.4-1.4
		c-0.4-0.4-1.1-0.4-1.4-0.4c-0.7,0.4-1.4,0.7-2.2,1.4c-2.2,2.2-3.2,4.7-4.3,7.6c-0.4,0.4-0.4,1.1,0,1.8c1.1,7.9,4.3,13.3,13.3,14
		C330.5,227.2,330.8,227.2,331.2,227.2z"/>
	<path fill="#78433F" d="M393.1,193.7c0,0.7,0,1.1,0.7,1.4c1.1,0.7,2.2,0.7,3.2,0.4c3.6-1.1,6.8-2.5,9.7-4.7
		c0.4-0.4,0.7-0.7,1.1-1.4c0-0.4,0-1.1,0-1.4c-0.4-0.7-0.7-0.7-1.4-0.7c-2.2,1.1-4,2.2-6.1,2.9c-2.2,0.7-4.3,1.4-6.5,2.2
		C393.5,192.6,393.1,193.3,393.1,193.7z"/>
	<path fill="#78433F" d="M145.4,219.2c-0.4,2.9,1.1,5.8,1.8,8.6c0.4,1.4,1.1,3.2,1.8,4.7c0.4,0.7,1.4,1.1,2.2,1.1
		c0.7-0.4,1.1-1.4,1.1-2.2c0-0.4,0-0.7,0-0.7c-1.4-4-2.5-7.9-4-11.9c0-0.4-0.4-0.4-0.4-0.7c-0.4-0.4-0.7-0.7-1.4-1.1
		C146.2,216.7,145.4,218.2,145.4,219.2z"/>
	<path fill="#78433F" d="M179.6,128.5c0-0.7,0-1.1-0.4-1.8s-0.7-1.4-1.1-2.2c-0.4-1.8-0.4-3.2,0.4-5c1.1-1.8,2.2-3.2,2.9-5
		c0-0.4,0-0.7,0-0.7c-0.4-0.7-0.7-0.7-1.4-0.7c-0.4,0-1.1,0.4-1.4,0.7c-2.2,1.4-3.6,3.6-4.7,6.1c-0.7,1.8-1.1,3.2,0,4.7
		c0.7,1.4,1.1,3.2,2.2,4.7c0.7,0.7,2.2,1.1,2.9,0.4C179.3,129.2,179.6,128.9,179.6,128.5z"/>
	<path fill="#78433F" d="M155.2,165.6c0.4-0.4,0.4-0.4,0.4-0.7c0-0.7,0.4-1.8,0-2.5c-1.8-2.9-1.8-5.8-1.4-9c0.4-1.4,1.1-2.5,1.4-4
		c0.4-0.7,0-1.1-0.7-1.4c-0.4,0-0.7,0-0.7,0c-1.1,0-2.2,1.1-2.5,1.8c-0.7,1.8-1.4,3.6-1.8,5.8c0,0.4,0,1.1,0,1.8
		c0.4,1.8,0.7,3.2,1.4,4.7c0.7,1.4,1.8,2.9,3.2,3.6C154.8,165.6,155.2,165.6,155.2,165.6z"/>
	<path fill="#78433F" d="M171.4,147.6c0.4,0.7,0.4,1.4,0.7,2.2c0.4,0.4,0.7,0.7,1.4,0.4c0.4,0,0.4,0,0.7-0.4c0.4,0,0.4-0.4,0.7-0.7
		c0.4-1.8,1.1-4,1.4-5.8c0-0.4-0.4-1.1-0.7-1.4c-0.4-0.4-1.1-0.4-1.4,0c-1.1,0.4-1.8,1.4-2.2,2.5
		C171.4,145.8,171.4,146.9,171.4,147.6z"/>
	<path fill="#78433F" d="M158.4,123.5c-1.8,1.1-2.9,2.5-3.6,4.3c0,0.4,0,1.1,0.4,1.4c1.4,1.8,2.9,1.8,3.6-0.4c0.7-1.4,0.7-3.2,0.7-5
		c0-0.4-0.4-0.4-0.4-0.7C158.8,123.5,158.4,123.8,158.4,123.5z"/>
	<path fill="#78433F" d="M173.2,173.5c0-1.1-0.4-1.8-0.4-2.5s-0.7-0.7-1.4-0.7s-1.1,0-1.4,0.7c-0.7,1.4-0.4,3.2,0,4.7
		c0.4,0.7,0.7,0.7,1.4,0.7s1.1,0,1.4-0.7C172.8,175,173.2,174.2,173.2,173.5z"/>
</g>
</svg>
