<?xml version="1.0" encoding="utf-8"?>
<!-- Generator: Adobe Illustrator 17.1.0, SVG Export Plug-In . SVG Version: 6.00 Build 0)  -->
<!DOCTYPE svg PUBLIC "-//W3C//DTD SVG 1.1//EN" "http://www.w3.org/Graphics/SVG/1.1/DTD/svg11.dtd">
<svg version="1.1" id="Layer_1" xmlns="http://www.w3.org/2000/svg" xmlns:xlink="http://www.w3.org/1999/xlink" x="0px" y="0px"
	 viewBox="29.6 251.6 875.9 859.3" enable-background="new 29.6 251.6 875.9 859.3" xml:space="preserve">
<g id="Layer_2" display="none">
	<rect x="-160.9" y="118.1" display="inline" width="1327.2" height="1076.1"/>
</g>
<path fill="none" d="M162.6,274.9c2.7,4.2,6.1,9.6,9.9,13.7c1.3,1.4,2.7,2.7,4.2,4.1c2.6,2.6,5.3,5.6,8.3,8.3c1.1,1,2.1,1.8,3.3,2.9
	c1.5,1.4,3.8,4.8,4.6,8.9c0.5,2.6,0.1,5.6,0,8.3c0,0.7-0.4,1.5-0.4,2.1c0.1,0.8,0.6,1.5,0.7,2.2c0.1,1.3-0.5,2.3-0.4,3.6
	c0.1,1,0.8,2.1,0.9,3.1c0.4,2.5-0.5,4.8,0.3,7.7c0.2,0.7,1,1.3,1.1,2.1c0.4,2.4,0.1,5,0.8,7.6c0.4,1.6,1.3,2.9,1.8,4.3
	s0.4,2.8,0.8,4.2c1.4,5,4.7,9.3,6.8,14.6c2,1.4,3.8-0.7,5.7,1.2c1.4,1.7,4.8-0.5,5.6,2.3c0.9,2.8-3,2.9-4.6,4.3
	c-0.1,2.4-0.5,4.3-1.1,6.2c-0.6,1.9-2.3,4.7-5.1,5.9c-3.4,1.4-7.4,0.4-11.5,1c-5.3,0.7-11.8,2.5-10.9,6.2c0.6,2.4,3.9,2.3,7.6,2.6
	c0.7,0.1,1.3,0.4,2.1,0.4c0.9,0,1.6-0.2,2.4-0.2c3,0,5.9,0.3,10.3-1.6c1.1-0.5,2.8-1.5,3.8-2.1c3-1.8,3.9-3,5.8-5.2
	c0.3-0.3,0.9-0.5,1.2-0.9c1-1.3,1.7-3.1,2.6-4.2c1.2-1.5,2.7-2.5,3.7-4c0.9-1.4,1.3-3,2.1-4.5c-1-2.1-3.9-0.7-4.5-3.6
	c2.2-5.2,9.6-1.6,14.1-5.2c-1-2.1-2.3-3.9-3.7-5.8c-1.1-1.5-2.4-2.2-4-3.7c-0.8-0.8-1.5-1.9-2.3-2.8c-0.4-0.4-0.9-0.6-1.3-1.1
	c-0.5-0.6-0.5-1.1-1-1.7c-1.4-1.6-2.3-2.2-3.8-4.7c-0.4-0.7-1.1-1.3-1.6-2s-0.8-1.8-1.2-2.6c-0.4-0.6-1.2-1-1.4-1.5
	c-0.6-1.2-1.2-3.2-1.9-4.8c-1.8-4-3-7.2-0.7-10.6c2.8,0.1,3.7,1.9,4,5.2c2.8,5.4,5.5,10,8.7,14.5c2.2,3.1,3.6,5.3,6.3,7.9
	c2.1,2.1,4.2,3.5,6.3,6.4c1.5,2.1,3.1,4.3,4.2,7.5c0.3,0.8,0,1.7,0.1,1.9c0.4,1.8,2.6,5.6,3.1,8.8c0.2,1.1-0.1,2.6,0.2,3.9
	c0.5,2.6,2.3,6.8,2.7,9c0.3,1.8,2.4,6.2,3.2,7.4c1.8,2.6,4.4,4.3,6.9,5.3c2.1-0.6,4.5-1.1,5.7-2.2c0.8-4.8-0.1-10.6-0.4-16
	c-0.2-1.5-1.2-1.6-1.7-2.4c0.4-2.2-0.2-4.9-0.8-7.6c-0.6-2.6-1.3-5.6-2-8.2c-0.5-2-1.8-4-2.2-5.7c-0.2-0.8,0.3-1.6,0.2-2.5
	c-0.3-2.6-1-5.3-1.4-7.9c-0.2-1.8-0.4-3.4-0.6-5.2c-0.4-3.4-1.4-9.6-2.7-13.9c-1.1-3.6-3.5-7.1-1.1-8.5c2.1-1.3,3.5,0.4,4.9,3.4
	c1.4,2.9,1.3,6.9,2.3,11c0.3,1.1,1.1,2,1.4,3c1.8,6,0.1,12.6,2.6,16.8c4.8,0.5,12.6-4.7,15.5-0.7c0.8,3.1-4.4,2.9-5.4,5
	c1.5,5,5.4,7.9,8.3,11.7c1.4,1.9,2.7,4.1,4.3,6.1c1.4,1.8,3.2,3.2,4.4,5c0.9,1.4,1.1,3.3,1.9,4.8c0.6,1.2,1.7,2,2.4,3.2
	c1.4,2.5,2.7,5.4,4.3,8c0.8,1.2,1.8,2.5,2.6,3.6c0.8,1.3,1.3,2.5,2.1,3.8c1.5,2.3,3.9,4.1,5.3,6.2c1.5,2.3,2.4,5.3,3.9,8.1
	c0.7,1.3,1.3,2.4,2.1,3.8c0.3,0.5,1.1,0.9,1.4,1.5c0.4,0.7,0.3,1.6,0.7,2.2c1.2,1.8,3.3,4.4,5.1,5.8c2,1.4,4.3,2.6,7.2,1.3
	c1.6-3.1-1.1-5.9-2.1-8.7c-0.3-0.9,0.1-1.4-0.2-2.4c-0.4-1.5-1.6-4.5-2.6-7c-0.4-1-1.4-1.9-1.8-2.9c-0.4-0.9-0.2-2.3-0.5-3.3
	c0,0-0.9-1.9-1.4-3c-2.1-5.4-5-11.5-8-17.2c-1.9-3.6-4-7-6-10.4c-1-1.7-2.1-3.3-3-5c-1-2-1.4-4.2-2.3-6.2c-0.8-1.8-2-3.6-3.1-5.4
	c-2.9-5.3-6.4-10.1-9.9-15.2c-4.7-6.7-8.2-14.3-12.8-20.1c-1.2-1.5-2.6-2.7-3.7-4.3c-1.2-1.6-2.2-3.3-3.4-4.9
	c-2.9-3.8-5.8-7.8-9.1-11c-0.4-0.4-0.4-0.9-0.8-1.2c-0.8-0.7-1.7-1.6-2.9-3.1c-1.6-1.9-3-3.2-4.9-4.9c-2.1-2-4.5-4.9-6.9-6.8
	c-0.4-0.3-0.8-0.7-1.3-1.1c-0.3-0.3-0.9-0.4-1.2-0.6c-1.5-1.3-2.8-3.3-4.3-4.6c-1.5-1.3-3.4-2.1-4.9-3.4c-0.8-0.7-1.3-1.6-2.1-2.3
	c-0.4-0.4-0.8-0.7-1.3-1.1c-1.7-1.2-3.8-4.5-5.6-7.2c-0.8-1.2-0.9-2.8-1.9-4.8c-0.3-0.7-1.3-1.3-1.6-2c-0.9-1.9-1.4-4-2.2-5.7
	c-2.2-5.1-1.7-7.2-5.9-9.9c-2.9-0.4-6.4,0.2-10.9,1.8c-2.8,1-6.3,1.2-9.1,2.4c-2.9,1.1-8.3,0.7-11,1.6c-7.4,2.4-16.1,1.1-21.7,6
	c1.2,1.8,2.8,3.4,4,5.2C162,273.8,162.5,274.7,162.6,274.9z"/>
<path fill="none" d="M253.2,622.5c-0.1-1.4-0.6-2.7-0.9-4.2c-0.3-1.4-0.4-3.4-0.9-4.7c-0.6-1.4-2.5-3.5-3.3-4.2
	c-0.5-0.4-1.4-0.4-1.9-0.9c-0.8-0.8-1.5-1.8-2.4-2.8c-0.8-0.9-1.7-1.9-2.4-2.8c-1.2-1.8-1.8-3.8-2.8-5.2c-1.6-2.1-2.8-3-5.2-3.3
	c-0.2,0,0.1-0.6-0.5-0.5c-3,0.6-5.9,2.7-9.4,4.2c-3.3,1.4-6.6,2.6-8,4.2c-1.8,2.1-2.9,6.7-3.8,8.9c-0.4,1.1-0.5,2.5-0.9,3.3
	c-0.2,0.4-1,0.8-1.4,1.4c-0.5,0.7-0.5,1.7-0.9,2.3c-1.4,1.9-4.1,3.6-5.6,5.6c-0.6,0.7-0.5,1.2-0.9,1.9c-0.1,0.2-0.8,0.2-0.9,0.5
	c-0.2,0.4,0.2,1.1,0,1.4c-0.3,0.5-1.2,1.1-1.4,1.4c-0.5,0.8-0.7,1.4-0.9,2.4c-0.7,3.1,0.5,4.7,0.5,8c0,0.9-0.3,2.4-0.5,3.8
	c-0.1,1.1-0.3,2.8-0.5,3.8c-0.4,2-1.9,3.9-2.4,6.1c-0.3,1.5-0.2,3.4-0.5,5.2c-0.4,2.3-1.2,3.8-0.9,5.2c0.9,4,6.5,4,9.4,8.5
	c1.1,1.7,1,3.8,1.9,5.6c0.8,1.5,2.5,3.7,3.3,4.2c1.7,1.1,4.2,0.9,6.1,1.9c4.2-2.1,6.8-7.1,12.2-8c1-0.2,1.6,0.4,2.8,0.5
	c0.9,0,1.9-0.4,2.8-0.5c1.8-0.1,3.5,0.6,5.2-0.9c1.2-1.1,1.3-2.7,1.9-3.8c1.7-3.4,3.9-5.5,6.1-7.5c1.4-1.3,2.7-2.4,3.3-3.8
	c0.1-0.2,0.8-0.3,0.9-0.5c2-3.2,3.3-10.2,3.3-14.6c0-4.2-1.9-7-1.9-12.2C251.8,629.4,253.4,625.9,253.2,622.5z"/>
<path fill="none" d="M263.2,368.2c-0.3,0.4-0.3,2.8,0.8,2.7c1.4-0.4,0.9-1.7,0.6-3.1C264.1,368,263.7,368.1,263.2,368.2z"/>
<path fill="none" d="M340.1,768.7c-0.5-3.6,0.1-7.4,0.5-9.4c0.6-3.1,1.8-4.8,1.4-7c-1.8-3.2-6.2-2.9-8-1.4
	c-2.8,2.3-4.1,6.9-6.1,11.3c-0.4,1-1,1.9-1.4,2.8c-0.4,1-0.9,2.2-1.4,3.3c-1.3,2.7-2.8,5.6-4.2,7.5c-3.1,4.1-6.7,9.5-8,14.6
	c-0.8,3-0.6,6.2-0.9,8.9c-0.1,1.3-1,2.6-0.9,3.8c0,1.7,0.8,2.4,1.4,3.8c6.4,1.1,11.7-3.8,18.3-3.8c2.8,0,5.1,1.5,8.5,1.4
	c4-4.2,0.4-7.1-0.5-10.8c-0.4-1.6-0.4-3-0.5-3.8c-0.6-4.1,3.2-5.7,3.8-8.9c0.3-1.8,0.2-4.4,0-6.1
	C341.8,772.7,340.4,770.9,340.1,768.7z"/>
<path fill="none" d="M363.6,618.3c-0.5-1.3-2.6-4-3.3-4.7c-0.3-0.3-0.2-0.6-0.5-0.9c-1.5-1.7-3.6-3-4.7-4.7
	c-0.8-1.3-1.1-3.4-1.9-4.7c-0.1-0.2-0.8-0.3-0.9-0.5c-0.3-0.4-0.2-1-0.5-1.4c-1-1.2-2.1-1.5-2.8-1.9c-0.2-0.1-0.3-0.8-0.5-0.9
	c-1-0.6-3.1-1.3-3.8-1.4c-3.5-0.4-9.3,0.5-10.3,3.3c-0.7,1.3,0.3,2.6,0.5,4.2c0.5,5.7-1.3,10.4-1.4,14.6c-1.5,1.2-1.8,3.8-2.3,5.6
	c-0.1,0.2-0.8,0.7-0.9,0.9c-0.8,2-1,3.4-1.4,5.6c-0.6,3.5,0.3,6.5,0.5,9.4c0.2,2.7-0.2,5.2-0.5,8c-0.3,2.4-0.1,5.2-0.9,7.5
	s-3.2,4.2-4.2,7c-0.4,1-0.2,2-0.5,3.3c-0.5,2.8-2,6.6,0,9.4c2,0.1,3.5,0.1,5.2-0.5c1.1-0.4,1.8-1.4,2.4-1.9c1-0.9,2-1.2,2.8-1.9
	c1.6-1.4,3.8-3,5.6-3.8c2.7-1.1,6.3-1,8.9-2.3c1.9-1,2.9-3.3,4.7-4.2c0.4-2.3,1.2-4.6,1.9-7c0.6-2.5,0.8-5.2,1.9-7.5
	c1.6-3.4,4.8-5.6,6.1-8.5c0.4-0.9,1.3-1.9,1.4-2.4c0.2-0.6-0.2-1.3,0-1.9c0.6-1.9,1.4-3.9,1.4-6.1c0-1-0.6-2.4-0.9-4.2
	C364.2,621.7,364.1,619.4,363.6,618.3z"/>
<path fill="none" d="M564.3,796.4c-2.2-4.6-4.6-9-6.1-13.6c-1.8-5.7,0.7-12,1.4-16c0.2-1.2,0.4-2.4,0.5-3.8
	c0.3-3.6,0.7-7.9-1.9-10.8c-0.5,0-0.9,0-1.4,0c-1.3,1.4-1.4,2.9-2.4,4.7c-0.5,1-1.5,2-1.9,2.8c-0.7,1.8-0.7,3.9-1.4,5.6
	c-1.1,2.9-3.7,5.6-5.2,7.5c-0.3,0.4-0.1,1-0.5,1.4c-0.5,0.7-1.3,1.1-1.9,1.9c-0.3,0.4-0.2,1-0.5,1.4c-0.1,0.3-0.8,0.6-0.9,0.9
	c-1.5,4.6,0.3,10.5-0.9,15.5c-0.5,2.1-2.4,3.2-2.4,5.6C546,800.4,560.5,803.5,564.3,796.4z"/>
<path fill="none" d="M600,645.1c3.3-0.5,6.4,0.8,9.9,0c1.2-6.4-3-12.2-2.8-18.8c0.1-2.7,1.4-5.3,1.9-8c0.4-2.4,0-4.7,0.9-7
	c-1.6-3.3-1.1-8.7-2.8-11.8c-0.5,0-0.9,0-1.4,0c-0.1,1.7-1.4,1.7-1.9,2.8c-0.3,0.7-0.2,2-0.5,2.8c-0.3,1-0.8,2-1,2.8
	c-0.6,2.8-0.3,5.9-1.4,8.5c-0.6,1.3-2.2,3.1-2.8,3.8c-0.4,0.4-0.1,0.4-0.5,0.9c-1,1.6-2.5,3.1-3.3,4.7c-0.4,0.7-0.2,1.6-0.5,2.4
	c-0.7,2.1-1.9,4.1-2.3,6.1c-0.4,2.1-0.2,4.2-0.5,6.6c-0.3,2.1-2,4.3-0.5,6.6C594.1,648.4,596.8,645.6,600,645.1z"/>
<path fill="none" d="M249.1,409.6c-1-0.6-2.4-3.1-4-3.7c-1.5,1-2,2.5-2.8,3.8c-3.7,2.5-7.2,6.1-10.9,9.6c-0.8,0.8-1.9,1.3-2.7,2.3
	c-0.1,0.2-0.1,0.9-0.2,1c-0.2,0.2-0.7,0.1-0.9,0.3c-0.1,0.2-0.1,0.9-0.2,1c-1.5,1.3-4,3.6-5.2,5.5c-1.8,2.7-3.6,6.8-1.9,11.8
	c1.9,1.1,5.5,0.5,8.9-1.2c1.8-0.9,4-3,5.9-4.7c0.2-0.2,0.5-1.1,0.6-1.2c2.3-1.5,5.2-3.1,7.3-5.1c4.4-4.2,13.9-9,13.6-15.3
	c-1.7-2.1-4.8-1.5-6.9-3.3C249.3,409.9,249.6,409.9,249.1,409.6z"/>
<path fill="none" d="M232,411.3c1.6-1.2,2.7-2.1,4.3-3.7c1.3-1.4,2.2-2.3,3.1-4.4c0.2-0.4-0.1-1,0-1.5c0.1-0.3,0.7-0.5,0.8-0.7
	c0.2-0.6,0-1.6,0.2-2.5s0.8-1.8,0.8-2.2c0-1.1-0.8-6.2-1.4-7.9c-0.1-0.4-0.7-0.6-0.8-1.2c-0.9-3.6-1-7.5-2.5-10
	c-0.3,0.1-0.6,0.2-0.9,0.3c-1.9,0.4-0.9,2.2-1,3.2s-0.4,2.1-0.5,3.1c-0.3,2.1-0.6,4.2-1.1,6.2c-0.9,3.6-3.1,6.6-3.3,10.3
	c-2.3,2.5-4.1,5.3-6.4,8.2c-0.3,0.4-0.4,0.8-0.6,1.2c-0.3,0.4-0.9,0.4-1.2,0.8c-0.5,0.7-0.7,1.7-1.3,2.3c-1.2,1.4-2.9,2.2-3.8,3.6
	c-0.5,0.8-0.6,2-1,3.2c-0.8,2.5-2.4,5.8-1.1,9.6c2.3,0.5,2.8-2.4,3.8-3.6c0.3-0.4,0.9-0.5,1.2-0.8c2.2-2.3,4.5-5.6,7.3-8.5
	C228.1,414.7,229.5,413.1,232,411.3z"/>
<path fill="none" d="M647,826c2.2,0.1,2.9-1.7,4.7-3.3c3.3-3,5.7-5.2,11.8-5.2c1.8-1.5,5.5-3.3,6.6-5.6c0.2-0.4-0.1-1,0-1.4
	c0-0.2,0.9-0.7,0.9-0.9c1-4.6-0.6-11.3,2.3-17.4c0.5-1,1.2-1.5,1.9-2.4c2.3-3.1,2.6-7.3,2.3-10.8c-0.3-4.1-0.9-5.1-2.3-7.1
	c-1-1.4-2.5-2.2-3.3-3.3c-0.4-0.5-0.2-1.3-0.5-1.9c-0.2-0.4-0.8-0.8-0.9-1.4c-0.2-1.1,0-2.6,0-3.8c0-2.3,0-3.9,0-4.7
	c0-1.3,0.6-3.3,0-4.7c-1-2.4-10.2-8.5-13.2-5.6c-2.3,2.6,0.7,7.1,0.5,11.8c-0.2,3-2.1,5.9-3.3,9.4c-0.5,1.5-0.5,2.9-0.9,3.8
	c-0.2,0.4-0.2,0.7-0.5,1.4c-0.5,1.5-1.7,3.3-1.9,4.7c-0.1,0.9,0.4,2.1,0.5,3.3c0,1.4-0.6,2.7-0.5,3.8c0.1,1.5,0.9,2.8,0.9,4.2
	c0,1.3-0.2,4.5-0.5,5.6c-0.2,0.9-1.4,2.3-1.9,3.3c-0.7,1.4-1.3,2.7-1.9,3.8c-0.6,1.1-1.7,2.2-2.4,3.3c-1.6,2.8-1.9,4.9-2.3,8.9
	C642.6,819.1,642.2,825.8,647,826z"/>
<path fill="none" d="M459.5,767.2c0.8-2.1,1.8-3.5,2.8-4.7c0.8-1,1.4-1.4,1.4-2.8c0-2.4-4.5-5.9-6.1-6.6c-1.7-0.7-3.9-0.1-5.6-0.9
	c-2.9-1.4-2.6-4.6-5.6-5.2c-4.2-1.3-9.7,0-11.8,2.4c-0.9,4.6-1,10-3.8,12.7c0.3,5.1-3,9.4-3.3,14.1c-0.1,1.6-0.5,4.1,0.9,5.6
	c3.2,1.6,5.6-1.2,8.9-2.4c3-1,9.5-1.2,11.8-0.9c3.4,0.4,5.4-2.9,7.5-3.3C457.6,772.6,458.6,769.6,459.5,767.2z"/>
<path d="M872.1,583c0.3,0.3,1.5-0.1,1.9,0c2.8,1.1,3.5,6,4.7,8.5s3.1,5.7,5.2,6.6c0.1,0.1,0.3,0.8,0.5,0.9c2.3,1.9,5.1,3.1,8,3.3
	c5.6,0.3,8.3-2,10.3-4.2c1.7-1.8,2.6-2.5,2.8-5.6c0.3-5.4-3.3-8.6-5.6-11.3c-0.9-1.1-1.8-2-2.4-3.3c-0.9-2.2-0.7-5.2-1.4-8
	c-0.2-0.8-1-1.9-1.4-2.8c-0.3-0.7-0.3-1.4-0.5-1.9c-1.3-3-3.3-5.5-5.6-6.6c-0.2-0.1-0.3-0.8-0.5-0.9c-0.8-0.4-2.4-0.5-3.8-0.9
	c-1.3-0.4-2.5-1.2-3.8-1.4c-3.7-0.8-7.8-0.8-10.8-1.4c-0.1,0-0.3,0-0.5,0c-1.5,0-3.9,0.8-6.1,1.4c-3.2,0.9-6.4,2.1-8.5,3.3
	c-0.9,0.5-2.1,0.9-2.8,1.4c-3.4,2.2-4.2,3.9-5.2,7.5c-0.4,1.2-0.9,2.2-0.9,3.8c-3.9,3.3-8,6.4-11.3,10.3c0.6,3.1-0.8,5.1-0.5,7.5
	c0.1,0.7,0.6,1.5,0.9,2.3c1.1,2.7,2.6,4.8,2.8,7.5c0.2,3.2-1.9,6.4-1.9,9.9c0,1.2,1,5,1.4,6.1c0.2,0.6,1.1,1.3,1.4,1.9
	c1.5,2.6,3.1,4.8,5.2,6.1c0.8,0.5,1.4,1.1,1.9,1.4c0.5,0.3,0.6,0.6,0.9,0.9c2.4,2,5,3.7,6.1,7c0.9,2.7,0.3,6.2,1.4,8.9
	c0.7,1.7,3.6,4.7,4.7,5.6c1.9,1.6,4.9,2.2,6.6,4.2c2.6,3.2,2,6.4,1.9,11.3c-1.6,1.3-2.3,3.8-4.7,4.7c-2.7,1-5.9,0.5-8.9-0.5
	c-1.8-2.9-3.1-6.3-5.6-8c-1.2-0.8-2.4-2.3-3.3-2.8c-1.4-1-2.4-1.1-4.2-1.9c-1.5-0.6-2.1-1.3-3.3-1.4c-1.3-0.1-2.5,0.2-4.2,0.5
	c-4,0.6-5.4,0.9-7.5,2.8c-1,0.9-2.1,2.4-2.8,3.3c-1.9,2.6-3.4,6-2.8,8.9c0.7,3.5,4,3.6,6.1,6.6c-0.3,2.9,1.4,4.7,2.4,6.1
	c1.8,2.5,3.1,4.1,5.6,6.1c1.9,1.6,4.2,3.3,5.2,3.8c2.8,1.2,8.7,1.8,11.8,1.4c2-0.3,4.1-1.9,6.1-1.9s4.4,1.3,6.6,1.9
	c2.3,0.6,4.8,1.5,7.1,1.4c2.2-0.1,4-1.3,6.1-2.4c2.2-1.1,4.4-2.1,5.6-3.3c1.5-1.5,3.2-4.7,3.8-6.1c0.9-2.3,1.4-4.3,2.4-5.6
	c0.4-0.5,0.6-0.9,0.9-1.4c1.6-2,3.8-3.7,4.7-5.6c0.1-0.1,0.8-0.3,0.9-0.5c0.1-0.2-0.1-0.7,0-0.9s0.8-0.3,0.9-0.5
	c2.5-4.4,3.6-10.5,1.9-15.5c-0.4-1.3-1.7-2.4-2.3-3.3c-0.5-0.7-0.5-1.4-0.9-1.9c-2.4-2.7-5.9-4.6-7.5-8c-2-4.4-1.4-12.9-3.3-16.9
	c-0.7-1.6-1.4-2.8-2.4-4.2c-0.5-0.8-1.4-2.2-1.9-2.8c-3.3-4.1-7.6-4.7-10.8-8.9c-0.5-0.6-1.5-3.3-1.9-3.8c-0.7-0.7-1.2-1.5-1.4-2.3
	c-0.8-2.7-0.7-10.5,0-12.2C866.2,585.6,870.8,581.7,872.1,583z"/>
<path d="M559.6,644.1c-0.5,0.8-1.1,3.1-1.4,3.8c-0.1,0.1-0.8,0.3-0.9,0.5c-1.2,1.7-1.5,3.9-2.4,6.1c-0.6,1.6-1.5,2.8-1.9,4.2
	c-0.7,2.5-0.4,5-0.9,7.5c-0.3,1.3-1,2.3-1.4,3.8s-0.4,3.4-0.9,4.7c-0.6,1.4-2,2.8-2.8,4.2c-1.1,1.9-2.9,4.7-3.3,6.6
	c-0.7,3.5-0.1,6.9,0.5,10.8c0.9,1.2,2.2,2.7,3.8,3.3c3.6,1.3,13,0.5,18.3,0c2.2-0.2,4.3-2.6,5.6-3.8c0.9-0.7,1.9-0.9,2.4-1.4
	c2.6-2.6,2.8-6.6,1.4-10.8c0.9-2.6,3.8-3.3,5.2-5.6c0.8-1.3,0.5-2.8,0.9-3.8c0.5-1.1,1.2-2,2.3-2.8c5.1-3.4,9.1,1.3,16,0.9
	c3.3-0.2,5.5-2.5,8.9-1.4c-0.1,9.9,0.3,16.7,2.8,23.5c2,1.3,3.9,3.1,6.6,3.3c7.6,0.5,21.5,0.3,22.6-5.6c0.6-3.4-3.6-6.8-3.8-9.9
	c0-0.8,0.6-2.8,0.9-4.2c0.7-3.2,1.7-5.6,2.3-8c2.1-7.8-0.7-16.4-2.3-23.5c-0.5-2-1.1-4.2-1.4-6.1c-0.3-1.9-0.5-5.1-0.5-6.1
	c0.1-1.7,1.1-3.2,1.4-4.7c0.2-0.8,0.3-1.9,0.5-2.8c0.4-2.2,0-3.3,0-4.7c0.1-2.3,0.1-6-0.5-8c-0.2-0.9-0.3-1.9-0.5-2.4
	c-0.5-1.4-1.8-1.8-2.3-2.8c-0.6-1.1-1.2-2.7-1.4-4.2c-0.7-4.4,0.5-6.7,1.4-8.5c1.2-2.2,2.2-3.2,3.3-4.7c2.4-3.3,1.7-6.9,0.9-10.8
	c0,0,0.5-0.5,0.5-0.9c-0.1-1.1-1.7-2.7-1.4-3.8c-0.1-2,1.4-2.3,0.9-4.7c-1-1.8-2.5-3.1-4.2-4.2c-0.2-2.2-3.2-4.5-4.7-5.2
	c-0.2-0.1-0.3-0.8-0.5-0.9c-0.7-0.4-2.5-0.7-3.3-0.9c-0.2-0.1-0.7-0.9-0.9-0.9c-3-1.2-5.5-1.8-8.9-1.4c-2.7,0.3-6.1,2.2-8.9,2.4
	c-2.1,0.1-3.4-0.7-4.7-0.5c-2.4,0.4-5.5,2.5-8,4.2c-2.5,1.8-5.2,3.8-6.6,5.6c-0.4,0.5-0.5,2-0.9,2.8c-0.1,0.3-0.7,0.6-0.9,0.9
	c-0.8,1.3-1.1,2.5-1.4,4.2c-1,5-2,9.5-2.8,13.6c-0.4,2-0.4,4.4-0.9,6.1c-0.5,1.5-2.6,4-3.3,4.7c-0.3,0.4-0.1,1-0.5,1.4
	c-1.3,1.5-2.4,2.2-3.3,3.8c-1.1,1.9-2.4,3.7-3.3,5.2c-0.7,1.2-1,1.6-1.4,3.3c-0.2,0.8-0.9,1.8-0.9,2.4c-0.3,1.8,0.2,3.9,0,5.6
	c-0.2,1.5-0.9,3.6-1.4,5.6c-0.8,3.2-1.5,6.1-2.4,8c-0.4,0.8-0.7,1.9-0.9,2.3C562.7,641.3,560.7,642.5,559.6,644.1z M591.1,640.8
	c0.3-2.4,0-4.5,0.5-6.6c0.4-2,1.7-4.1,2.3-6.1c0.3-0.8,0.1-1.6,0.5-2.4c0.8-1.6,2.3-3.1,3.3-4.7c0.3-0.5,0.1-0.6,0.5-0.9
	c0.6-0.6,2.2-2.4,2.8-3.8c1.1-2.6,0.8-5.6,1.4-8.5c0.2-0.9,0.7-1.8,1-2.8c0.2-0.8,0.2-2.1,0.5-2.8c0.4-1.1,1.7-1.1,1.9-2.8
	c0.5,0,0.9,0,1.4,0c1.8,3.1,1.2,8.5,2.8,11.8c-0.9,2.3-0.5,4.6-0.9,7c-0.5,2.6-1.8,5.3-1.9,8c-0.2,6.6,4,12.4,2.8,18.8
	c-3.4,0.8-6.6-0.5-9.9,0c-3.2,0.5-5.9,3.4-9.4,2.4C589.1,645.1,590.8,642.9,591.1,640.8z"/>
<path d="M747.1,635.7c-1.4,3-2.7,5.8-4.2,8.5c-2.1,3.5-4.7,6.5-5.2,10.8c-0.4,3.5,1.4,7.6,0.5,11.8c-0.6,2.4-3.4,4.4-4.7,6.1
	c-0.7,0.9-1.1,2.1-1.9,3.3c-0.4,0.5-1.1,0.8-1.4,1.4c-0.8,1.4-1.3,3.2-1.4,4.7c-0.2,2.5,0.2,5,0,8.5c1.8,2.9,3.7,5.7,7.5,6.6
	c1,0.5,1.8,0,2.8,0c1.4-0.1,2.8,0.2,4.2,0c2.4-0.3,4.8-1.7,7.1-1.9c1.1-0.1,3.9,0.3,5.2,0.5c0.9,0.1,1.5,0.7,2.3,0.9
	c2.2,0.6,4.3,0.5,6.1,0.9c1,0.2,1.9,0.8,2.8,0.9c0.7,0.1,1.6-0.5,2.4-0.5c2.9,0,5.3,0.3,8.5,0c2.2-1.5,4.5-2.2,6.6-2.8
	c0.8-0.2,2.1-0.2,2.8-0.5c3.3-1.4,4.5-3.9,8.9-3.8c2.2,0.1,2.2,0.5,3.3,0.9c1.4,0.5,2.2,1.2,3.8,0.9c2.7-0.5,4.7-5.8,5.6-9.9
	c0.9-4-0.2-8.7-1.4-11.8c-1.5-1.3-3.3-2.4-4.7-3.8c-3.9,0-7.4-1.6-12.7-0.5c-2.5,0.6-5.6,2.7-7.1,3.3c-2.7,1.1-4.5,0.3-6.6-0.5
	c-3.3-1.2-7.6-1.2-8.5-4.2c-0.7-2.6,1.1-4,1.9-6.1c0.1-2,1.7-3.7,2.4-6.1c0.9-3.4,0.1-7.8,2.3-10.3c5.1-1.6,9.1,1.4,13.6,1.4
	c5.7,0.1,11-3.9,17.9-2.3c2.9-2.9,6.1-5.3,6.6-9.4c0.4-3.2-0.6-5.8-1.4-7.1c-0.4-0.6-0.6-1.4-0.9-1.9c-1.7-2.4-3.2-3.5-5.6-4.7
	c-7.7-3.9-17.3,3.5-24.9-1.4c-0.3-2.8,0.2-5,0.5-7c0.6-4.7,1.4-9.4,2.4-13.2c0.3-1.3,0.1-2.3,0.5-3.3c0.8-2.1,3.7-3.8,6.1-3.8
	c1.5,0,2.6,1.4,4.2,1.9c1.7,0.5,3.9,0.7,6.1,0.5c2.5-0.3,5.7-2.8,8.5-2.8c1,0,2.3,0.7,3.3,0.9c4.1,1,5.8-0.3,8-2.3
	c1.4-1.4,1.9-2.4,2.8-4.2c0.5-0.9,1.7-2.8,1.9-3.3c0.2-0.6-0.2-1.3,0-1.9c0.6-2.1,1.6-3.7,1.4-5.6c-0.1-1.5-1.5-3.9-2.8-6.1
	c-2-3.3-3.9-5.1-6.6-7.1c0,0-0.4-0.4-0.5-0.5c-2.4-2.3-7.1-1.5-11.8-0.9c-1.4,0.1-3.2,0.1-4.7,0.5c-1.4,0.3-2.4,1.3-3.8,1.4
	c-0.5,0.1-1.6-0.5-2.4-0.5c-1.2,0-2.1,0.6-2.8,0.5c-0.9-0.1-1.5-0.7-2.3-0.9c-3.2-0.9-6.7-1.3-9.4-1.4c-4.6-0.2-6.7,3.5-9.9,4.2
	c-2.4,0.6-4.6-0.1-6.6,0.5c-3.4,1-5.9,3.7-6.1,7.5c-0.2,2.8,1.8,5.1,1.9,8c0,0.9-0.3,1.3-0.5,1.9c-0.3,0.9-0.3,1.6-0.5,2.4
	c-0.8,3.2-1.7,5.4-2.8,8c-0.6,1.3-1.2,2.8-1.4,4.2c-0.6,4.9,1.7,10.3,0.5,15c-0.2,0.9-1.3,1.8-1.9,2.8c-0.6,1.1-0.9,2.4-1.4,3.3
	c-1.4,2.2-2.9,3.5-3.8,5.6C743.6,627.4,745.6,630.9,747.1,635.7z"/>
<path d="M661.1,593.8c5.2,1.3,11.9,0.9,16.9,2.3c1.7-0.7,5.5-2.5,6.6-0.9c-0.2,4.9-5.1,7.3-5.2,13.2c0,2.8,2.1,5.7,2.4,8.5
	c0.2,2.2-0.4,4.4-0.5,5.6c-0.3,3.3-0.9,4.7-1.9,7c-0.5,1.3-1,2.4-1.4,3.3c-0.5,1.1-0.6,1.2-0.9,2.4c-0.1,0.2-0.9,0.7-0.9,0.9
	c-0.9,2.2-1.9,5.6-1.9,8c0,2.1,1.5,4.3,1.4,6.6c-0.1,2.8-2,5.1-3.3,8c-0.5,1.2-0.8,2.7-1.4,4.2c-0.5,1.2-1.6,2.6-1.9,3.8
	c-1.3,5.3,0.3,11.6-0.5,16.4c-0.2,1.3-1,2-1.4,3.3c-1.2,4.1,0.5,7.8,2.4,9.9c1.2,1.4,3.6,2.5,5.6,2.8c4.3,0.6,9-1.7,13.2-1.4
	c2-1.7,4.1-3.5,5.6-6.1c0.5-0.9,0.6-2.3,0.9-3.3c0-0.2,0.8-0.7,0.9-0.9c0.7-1.7,1.2-3,1.4-4.7c0.2-1.9-0.6-3.6-0.5-5.6
	c0.1-1.8,1.7-3.2,0.9-5.2c2.7-3.9,4.8-9,5.7-14.6c0.8-5.2-0.7-10.7,0-16c0.1-0.9,0.8-3.8,0.9-4.2c0.8-2.3,3-4,3.8-6.1
	c0.7-1.8,0.5-3.3,0.9-5.2c0.3-1.3,0.8-2.6,0.9-3.8c0.3-2.7-0.3-5.5,0-8.5c0.3-2.9,1.5-6.6,1.9-8.5c0.6-2.5,0.7-3.6,1.4-5.2
	c1.1-2.1,4.5-5.7,6.6-6.1c0.8-0.2,2.6,0.3,3.8,0.5c5,0.7,6-0.4,9.4-2.8c0.2-0.1,0.7,0.1,1,0c0.1-0.1,0.3-0.8,0.5-0.9
	c0.2-0.1,0.7,0.1,0.9,0c0.1,0,0.4-0.8,0.5-0.9c0.9-0.8,1.3-1.6,2.4-2.3c2-1.5,5.6-2.8,6.6-4.2c0.1-0.2,0.6-1.6,0.9-2.4
	c0.8-2.1,1-2.9,0.5-5.2c-0.3-1.3-0.8-1.8-0.9-2.3c-0.6-2.6-0.6-5.2-1.4-6.1c-0.3-0.3-0.2-0.6-0.5-0.9c-0.4-0.5-1.3-0.4-1.9-0.9
	c-1.1-1-1.8-2.3-2.8-2.8c-0.4-0.2-1,0.1-1.4,0c-0.2-0.1-0.7-0.9-0.9-0.9c-1.8-0.4-3.9,0.5-5.6-0.5c-2.6,2.1-6.7,1-8.9,1.9
	c-1.7,0.6-3.7,1.4-5.2,1.4s-3-1.1-4.7-1.4c-2.1-0.4-4.3-0.1-6.1-0.5c-1.3-0.3-2.5-1.1-3.8-1.4c-3.6-0.8-5.9,0-8.5,0.9
	c-1,0.3-2.3,0.5-3.3,0.9c-2.1,0.8-3.9,2.3-5.7,2.4c-2.4,0.1-4.7-2-7.5-2.4c-1.6-0.2-2.8,0.5-4.2,0.5c-1.6-0.1-2.6-1.2-4.2-0.9
	c-1.1,1-2.9,1.6-4.2,2.8c-0.3,0.3-0.3,1.1-0.5,1.4c-1.1,1.4-2.1,1.6-2.4,3.3c-0.4,2.2,0.8,3.9,0.9,6.6c-1.1,3-4.2,6-4.2,9.9
	C658.3,589.1,659.8,591.6,661.1,593.8z"/>
<path d="M446.8,658.2c0.2,1.4-0.2,3.4,0,4.7c0.2,1.2,1.2,1.9,1.4,2.8c0.9,4.1-1.2,8.1-2.4,9.9c-0.8,1.2-1.3,2.1-1.9,3.3
	c-0.3,0.6-1.1,0.9-1.4,1.4c-0.8,1.5-2,4.3-2.4,5.6c-0.2,0.7-0.4,1.4-0.5,1.9c-1.5,6.6,1.1,9,5.2,11.8c4.4,3,7,3.7,13.2,2.8
	c2.2-0.3,4.4-0.5,5.6-0.9c0.2-0.1,0.7-0.8,0.9-0.9c0.7-0.3,1.3-0.1,1.9-0.5c3.7-2.2,6.7-7.5,8.5-11.3c0.7-1.5,1.7-3.6,1.9-4.7
	c0.4-2.9-1.3-7.2-0.5-11.3c0.4-2.1,2.9-5.4,3.8-6.6c0.8-1,1.2-2.2,1.9-2.8c1.4-1.4,5.1-2.5,7.1-2.3s2.8,1.4,4.7,2.3
	c1.9,1,5,2.2,6.6,2.4c3.5,0.4,4.5-1.9,7-0.9c-0.7,2.8-1.6,4.1-1.9,6.6c-0.3,3,0.8,5.9,0.5,8c-0.4,2.3-2.4,4.1-3.3,6.1
	c-1,2.2-2.4,5-1.9,8c0.3,1.7,2.3,4.8,4.2,6.1c1.5,1,5.6,2.2,8.5,2.4c1.6,0.1,4.8-0.9,5.6-0.9c0.7-0.1,1.8,0.5,1.9,0.5
	c1.4-0.1,2.3-0.6,3.8-0.9c1.7-0.4,3.6-0.2,4.2-0.5c2.4-1.1,3.4-4.1,5.6-5.2c0.9-3.5,2.7-6.2,3.3-9.4c0.9-4.6-0.1-9.2,0.5-14.6
	c0.5-4.6,2.6-7.1,3.8-10.8c0.3-1.1,0.1-2.6,0.5-3.8c0.1-0.3,0.8-1,0.9-1.4c0.3-0.7,0.3-1.2,0.5-1.9c1.7-7.8-0.1-17,1.9-24
	c0.4-1.3,1.3-2.9,1.9-4.2c1-2.4,2.1-4.8,2.8-6.6c0.6-1.4,1.4-2.2,1.9-2.8c0.3-0.4,0.3-1.1,0.5-1.4c1.2-1.9,1.5-3.3,2.3-5.6
	c0.1-0.3,0.8-0.9,0.9-1.4c0.8-2.4,1.2-3.7,1.9-5.6c1.2-3.5,1.7-6.4,2.4-10.8c0.7-5.3,1.1-9.7,0.9-14.6c-0.1-2.5,0-5.2-0.5-7.1
	c-0.1-0.5-1-1.5-1.4-2.4c-0.5-1.1-0.9-2.3-1.4-2.8c-1.2-1.2-5-2.4-8-2.3c-4.3,0.1-5,1.1-8,3.3c-2.6,1.9-3.8,3.1-5.2,5.2
	c-0.5,0.7-1.3,1.5-1.4,1.9c-0.4,1-0.2,2-0.5,3.3c-0.2,1.1-0.9,2.4-0.9,3.3c-0.5,5.1,0.3,10.2-0.9,15c-1.1,4.5-3.7,8.6-5.6,12.7
	c-1.7,3.6-3.3,7.9-4.7,11.3c-0.7,1.7-1,3.4-1.4,5.6c-0.2,1.3-0.7,2.6-0.9,3.8c-0.4,2.2,0.3,5.1-2.3,7.1c-3.8-0.5-5.9,1-8.9,0.5
	c-1.6-0.3-2.9-1.5-4.2-2.3c-1.6-0.9-2.9-2-4.7-2.4c-4.5-0.9-7.4,1.3-10.8,0.9c-0.7-4.4,0.7-8.3,0-13.2c-0.1-0.9-0.6-1.5-0.9-2.3
	c-0.3-0.9-0.3-1.8-0.5-2.8c-1-5.3,0.3-8.2,1.9-11.7c0.4-1,1-1.8,1.4-2.8c0.4-0.9,1.3-2.5,1.4-2.8c0.6-2.3,0.7-7.1,0.9-8.9
	c0.1-1,0-1.7,0-2.4c0.2-4.2,0.9-9-0.5-12.2c-1.1-2.7-7.7-5.2-11.3-5.6c-7.1-0.9-9.5,2.2-12.7,4.2c-0.8,2.4-2.2,3.7-2.8,5.6
	c-1.2,3.7-0.5,6.9-0.9,10.8c-0.3,3-1.6,5.7-2.4,8c0,0.2-0.8,0.7-0.9,0.9c-0.2,0.4,0.1,1,0,1.4c-0.1,0.2-0.8,0.7-0.9,0.9
	c-1.6,3.9-3.6,8.1-3.3,12.7c0.1,1.9,0.3,4.6,0.5,7.1c0.2,3.5,1.2,7.4,0.5,10.8c-0.2,1.1-1.2,2.2-1.9,3.3c-0.6,1.1-1.3,2.3-1.9,3.3
	c-1.4,2.2-3.3,4.3-4.2,6.1c-0.3,0.6-0.2,1.2-0.5,1.9c-0.5,1.3-0.9,2.1-1.4,3.3c-0.2,0.6-0.7,1-0.9,1.4c-1,2.4-2.3,5.3-2.4,7.5
	C445.8,656.1,446.6,656.8,446.8,658.2z"/>
<path d="M282.3,618.3c-0.9-2.3-2-4.8-2.3-6.6c-1-5.5,1-10.9,0-16.4c-0.1-0.6-0.7-0.9-0.9-1.4c-0.3-0.6-0.3-2-0.5-2.4
	c-1.1-2.1-3.3-3.6-4.2-6.1c-0.9-0.9-2.3-1.1-3.3-1.9c-0.9-0.7-1.4-2.1-2.4-2.8c-0.5-0.4-1.3-0.2-1.9-0.5c-0.5-0.3-0.9-1.1-1.4-1.4
	c-1.2-0.6-2.9-0.6-4.2-1.4c-0.9-0.6-1.9-2-2.8-2.8c-1.1-0.9-2.3-1.9-3.3-2.8c-3.1-2.9-5.6-5.5-9.9-6.6c-3.7-0.9-10.8-1.3-13.6-0.5
	c-2,0.8-4,1-6.1,2.4c-3.5,2.2-5.6,6.9-8.9,8c-2.6,0.8-5.4-0.2-8,0.9c-1.8,0.7-3.2,2.4-4.2,3.8c-1.3,1.7-1.4,4-3.3,5.2
	c-2.5,0.6-6.1,1.8-7.5,2.8c-4.9,3.7-8.3,6-9.4,12.2c-0.3,1.5,0,3.4-0.5,4.7c-0.6,1.7-2.4,3.3-3.8,5.2c-1.3,1.7-2.5,3.6-3.8,5.2
	c-1.3,1.6-2.6,3.2-3.8,5.2c-0.6,1-1.5,2.9-1.9,3.3c-0.8,0.8-1.7,3.4-1.9,4.2c-1.1,5.6,0.2,12.5-1.4,18.3c-0.5,1.7-1.7,3.5-2.4,5.2
	c-1.5,3.7-2.5,6-2.8,10.3c-0.4,5.7,0.9,7.6,2.4,11.3c0.8,2.1,1.9,4.3,2.3,6.6c0.6,2.9-0.2,6.6,0.5,9.4c0.1,0.5,1,1.7,1.4,2.3
	c1.7,2.8,3.6,4.7,5.6,7.1c9.6,2.1,17.4,6.1,24,11.3c3.5,0.1,6.4,2.5,9.9,2.8c2.8,0.2,7.9-0.9,9.4-1.4c0.9-0.3,2-0.6,2.8-0.9
	c3.7-1.6,7.1-4.8,11.3-6.1c5-1.6,11-1.2,15-2.8c1.4-0.6,2.6-2,4.2-3.3c1.4-1.1,3.2-2,4.2-3.3c1.2-1.4,2.1-3.8,2.8-5.2
	c1.9-3.5,5.2-5.4,8-8c1.1-1,2.2-2.2,3.3-3.3c1.1-1.1,2.6-2.4,3.3-3.3c0.4-0.6,0.5-1.7,0.9-2.4c0.5-0.8,1-1,1.4-1.9
	c1.2-1.2,1.1-3.6,2.3-4.7c0.3-7.2-0.5-13.6,0.5-18.3c0.4-2,0.9-2.8,1.4-3.8c0.3-0.6,0.1-1.1,0.5-1.9c0.5-1.1,1.5-2.2,1.9-3.3
	c0.5-1.3,0.5-3,0.9-4.2c0.1-0.3,0.8-0.9,0.9-1.4c0.3-0.8,0.3-1.5,0.5-2.4c0.2-1.1,0-2,0-3.3c0.1-1.6,0.7-2.9,0.5-4.2
	C284,621.6,282.9,619.8,282.3,618.3z M250.4,659.2c-0.1,0.2-0.9,0.3-0.9,0.5c-0.6,1.4-1.9,2.5-3.3,3.8c-2.2,2-4.4,4.1-6.1,7.5
	c-0.5,1.1-0.6,2.7-1.9,3.8c-1.7,1.5-3.3,0.8-5.2,0.9c-0.9,0.1-1.9,0.5-2.8,0.5c-1.2-0.1-1.8-0.6-2.8-0.5c-5.5,0.9-8,5.8-12.2,8
	c-1.9-1-4.4-0.7-6.1-1.9c-0.8-0.5-2.5-2.7-3.3-4.2c-0.9-1.8-0.8-3.9-1.9-5.6c-2.9-4.5-8.5-4.4-9.4-8.5c-0.3-1.3,0.6-2.9,0.9-5.2
	c0.3-1.7,0.1-3.7,0.5-5.2c0.5-2.2,1.9-4.1,2.4-6.1c0.2-1,0.3-2.6,0.5-3.8c0.2-1.4,0.5-2.9,0.5-3.8c0-3.3-1.2-4.9-0.5-8
	c0.2-0.9,0.4-1.6,0.9-2.4c0.2-0.3,1.1-1,1.4-1.4c0.2-0.4-0.2-1,0-1.4c0.1-0.2,0.8-0.3,0.9-0.5c0.4-0.7,0.4-1.2,0.9-1.9
	c1.6-2,4.2-3.7,5.6-5.6c0.4-0.6,0.5-1.6,0.9-2.3c0.4-0.6,1.2-1,1.4-1.4c0.4-0.8,0.5-2.2,0.9-3.3c0.9-2.2,1.9-6.9,3.8-8.9
	c1.4-1.6,4.6-2.8,8-4.2c3.5-1.5,6.4-3.6,9.4-4.2c0.5-0.1,0.3,0.4,0.5,0.5c2.4,0.3,3.6,1.2,5.2,3.3c1.1,1.4,1.6,3.4,2.8,5.2
	c0.6,0.9,1.6,1.9,2.4,2.8c0.9,1,1.5,2,2.4,2.8c0.5,0.5,1.4,0.5,1.9,0.9c0.8,0.7,2.7,2.8,3.3,4.2c0.6,1.3,0.6,3.3,0.9,4.7
	c0.4,1.6,0.9,2.8,0.9,4.2c0.2,3.4-1.4,6.9-1.4,9.9c0,5.2,1.8,8,1.9,12.2C253.7,648.9,252.3,656,250.4,659.2z"/>
<path d="M377.7,673.7c0.6-0.9,1.7-1.6,2.3-2.4c1.7-2,2.8-3.8,4.2-5.6c0.8-1,1.7-1.8,2.4-2.8c0.3-0.6,0.2-1.4,0.5-1.9
	c0.2-0.4,0.7-0.9,0.9-1.4c2.7-6.1,1.6-13.4,0.9-20.2c2.7-5.2,4.8-10.9,5.6-17.4c0.2-1.7,0.7-3.5,0.5-5.2c-0.2-2-1.5-3.5-1.9-4.7
	c-0.3-0.8-0.2-1.3-0.5-1.9c-1.9-3.6-5.5-5-7-8.5c-1.2-2.7-1.5-5.9-1.9-8.9c-0.4-3.2-0.1-6.3-1.4-8.9c-1.8-3.7-8.8-7.2-13.2-8.9
	c-2-0.8-4.1-1.7-5.6-1.9c-2.9-0.4-5.8,0.3-8.5,0c-0.5-0.1-1.3-0.8-1.9-0.9c-2.6-0.5-3.2-0.3-4.7-0.9c-0.8-0.3-1.7-0.6-2.3-0.9
	c-1.4-0.8-2.2-2.2-3.8-2.8c-0.7-0.3-2.5-0.2-3.8-0.5c-1.4-0.3-2.4-0.7-3.8-0.9c-5.4-1.1-8.7-1-13.2,0c-1.4,0.3-2.8,1-4.2,1.4
	c-1.5,0.4-3.3,0.5-4.7,0.9c-3.8,1.3-5.7,4.3-7.5,7.5c-1.7,2.9-1.9,5.4-2.3,8.9c-0.7,6,0.2,11.8,1.9,16c0.9,2.2,1.4,4.7,1.4,7
	c0,4.7-1.5,7.7-2.8,10.8c-1.7,4-3.2,7.4-4.2,11.8c-0.5,2-1,4.3-0.9,6.1c0.1,1.7,0.6,2.8,0.9,4.2c2.1,10-4.8,13.5-8,21.6
	c-0.6,1.5-0.8,4.2-0.9,6.6c-0.1,2.1-0.2,4.5,0,6.6c0.3,3.6,1.4,6.9,0.9,10.3c-0.3,2.1-1.8,4.1-2.4,6.1c-0.7,2.4-1.6,5.1-0.9,7.5
	c0.6,2.1,4.9,4.6,7.1,5.6c2.7,1.2,6.5,1.9,9.9,1.9c2.9,0,4.4-0.9,6.1-0.9c2.3-0.1,4.7,0.4,7,0.5c2.7,0,5.4,0.2,8,0
	c3.1-0.2,8.7-0.9,10.8-1.9c3-1.4,5.1-3.3,7.5-5.2c2.2-1.7,4-3.3,6.6-4.2c2.4-0.8,6-1,8-1.4c2.5-0.5,2.2-1.1,3.8-1.9
	c0.8-0.4,1.7-0.1,2.4-0.5c1.2-0.7,2.5-2.1,3.8-3.3c1.9-1.7,3.5-3.1,4.2-4.2c1.6-2.2,2.9-5.5,3.8-7.5
	C377.2,675.7,377.3,674.5,377.7,673.7z M364.1,634.3c-0.2,0.6,0.2,1.3,0,1.9c-0.1,0.4-1,1.5-1.4,2.4c-1.3,2.9-4.5,5.1-6.1,8.5
	c-1.1,2.3-1.2,5-1.9,7.5c-0.6,2.5-1.5,4.7-1.9,7c-1.8,1-2.8,3.2-4.7,4.2c-2.6,1.4-6.2,1.2-8.9,2.3c-1.9,0.8-4,2.3-5.6,3.8
	c-0.8,0.7-1.9,1-2.8,1.9c-0.5,0.5-1.2,1.5-2.4,1.9c-1.7,0.6-3.2,0.5-5.2,0.5c-2-2.8-0.5-6.6,0-9.4c0.2-1.3,0.1-2.3,0.5-3.3
	c1.1-2.9,3.4-4.7,4.2-7c0.8-2.3,0.7-5.1,0.9-7.5c0.3-2.8,0.6-5.3,0.5-8c-0.2-2.9-1.1-5.9-0.5-9.4c0.4-2.3,0.6-3.7,1.4-5.6
	c0.1-0.2,0.9-0.8,0.9-0.9c0.6-1.8,0.8-4.4,2.3-5.6c0.1-4.1,1.9-8.9,1.4-14.6c-0.1-1.6-1.2-2.9-0.5-4.2c1-2.8,6.9-3.7,10.3-3.3
	c0.7,0.1,2.7,0.8,3.8,1.4c0.2,0.1,0.3,0.9,0.5,0.9c0.7,0.3,1.8,0.7,2.8,1.9c0.3,0.4,0.1,1,0.5,1.4c0.2,0.2,0.8,0.3,0.9,0.5
	c0.8,1.3,1.1,3.4,1.9,4.7c1.1,1.7,3.2,3,4.7,4.7c0.3,0.3,0.2,0.7,0.5,0.9c0.7,0.7,2.8,3.4,3.3,4.7c0.5,1.2,0.5,3.4,0.9,5.6
	c0.3,1.9,0.9,3.2,0.9,4.2C365.5,630.3,364.7,632.3,364.1,634.3z"/>
<path d="M43.6,689.2c2.2,1.8,4.2,3.5,6.1,5.2c0.8,1.5,1.2,4,1.9,4.7c0.3,0.3,0.2,0.5,0.5,0.9c0.7,0.9,4.4,3,5.6,3.8
	c0.3,0.2,0.6,0.7,0.9,0.9c1.7,1.1,2.5,0.9,4.2,1.4c0.2,0.1,0.7,0.9,0.9,0.9c1.2,0.3,2.9,0.3,4.2,0.5c5.8,0.9,10.3-0.5,15-1.9
	c6.6,3.3,15.1,4.6,21.6,2.8c1.2-0.3,2.9-0.5,3.8-0.9c1.5-0.7,2.9-2.5,4.7-3.8c1.7-1.3,3.8-2.6,5.2-3.3c2.7-1.4,5.7-2.3,7.5-3.8
	c0.6-0.5,1.2-0.9,1.9-1.4c3.3-2.5,7.8-6.4,8.9-9.4c1.6-4.3-0.3-10,0.9-14.6c0.8-2.7,3-4.3,4.2-6.6c0.5-1,0.9-2.5,1.4-3.8
	c1.7-4,2-7.6-0.9-10.8c-0.8-2.3-1.3-4.9-3.8-5.6c-3-0.9-5.6,1.2-8.5,1.4c-4.4-2.1-4.7-4.8-8.9-5.6c-3.3-0.6-6.9,0.3-8.5,0.9
	c-2.5,1-4.7,2.9-7.1,2.8c-1.7-0.1-2.8-1.1-4.2-1.9c-2.8-1.5-4.4-2.5-8.9-1.9c-2.3,1.2-3.5,3-4.7,5.2c-1.1,1.9-1.6,2.5-1.9,5.2
	c-0.4,4.5,0.8,6.1,2.3,8.5c1.4,2.1,3.2,3.8,4.2,5.6c1.3,2.2,3.3,4,5.6,4.2c4.2,0.4,7.2-3,11.7-2.3c0,3.4,0.6,7-0.5,9.9
	c-1,2.8-6.6,7.1-9.4,7c-1.7,0-3.8-1.7-5.6-2.4c-2.4-0.9-4.3-1.6-7-1.4c-2.9,0.2-4.6,1.9-7.1,1.9c-0.9,0-2.5-0.2-3.3-0.5
	c-1.5-0.5-2-1.9-3.3-3.3c-1.4-1.5-2.4-2-2.8-3.8c-1.1-4.5,1.4-8.5,0.5-13.2c-0.4-2-2.4-4.4-3.3-5.2s-0.8-0.7-1.4-1.9
	c-0.9-1.6-1.6-3.4-1.4-5.6c0.3-2.7,2.8-4.7,4.2-6.1c3-3,7.4-5.8,8-10.3c0.3-2.2-0.4-4.1-0.5-6.1c-0.1-1.8,0.1-4,0-7
	c1.3-2.4,3.7-3.8,5.7-5.6c2.7-0.7,5.3-1.8,7-2.8c0.9-0.5,2.8-2,3.3-2.8c0.6-1.1,0.6-2.9,0.9-4.2c1-3.5,2-5.5,4.7-7.1
	c1.3-0.7,3.9-1.5,4.7-1.4c2.2,0.2,3.9,2.4,6.1,3.8c2,1.2,4.5,2.8,7.1,2.8c3.5,0.1,4.3-2.7,8.9-0.9c2.4,3.7-0.3,7.4-0.5,10.8
	c-0.1,2-0.3,4.2,0.5,6.1c0.6,1.4,3.2,3.6,5.2,4.7c5,2.6,11.8,2.8,16.4,0c1-2.2,2.3-3.6,3.3-5.2c1-1.6,2.9-3.8,3.3-5.2
	c0.8-2.6,0.7-8.3,0-10.8c0-0.2-0.9-0.7-0.9-0.9c-0.2-0.6,0.2-1.3,0-1.9c-0.6-2.1-1.2-4.5-1.9-5.6c-2.3-4.3-5.8-5.6-9.9-7.5
	c-3.8-1.8-5-4.9-7.5-7c-0.4-0.3-1-0.2-1.4-0.5s-0.5-1.2-0.9-1.4c-1.1-0.7-4.6-2-5.6-2.4c-1.8-0.7-2.7-0.4-4.7-0.9
	c-0.1,0-0.3-0.9-0.5-0.9c-0.4-0.2-1,0.1-1.4,0c-2-0.6-3.9-1.5-5.2-1.4c-3,0.2-5.1,2.4-8,2.8c-1.1,0.1-2.1-0.5-3.3-0.5
	c-0.7,0-1,0.4-1.4,0.5c-0.8,0.1-1.6-0.5-1.9-0.5c-4.2-0.1-8.8-0.2-11.3,0.5c-2,0.6-6.4,2.8-7.5,3.8c-1.7,1.4-3.2,3-3.8,4.2
	c-0.1,0.2-0.8,0.3-0.9,0.5c-1.2,2.2-1.6,4.9-2.4,6.6c-1.3,3-2.3,3.3-4.7,5.2c-1.6,1.2-3.5,3-4.7,3.8c-1.4,0.9-2.9,2.7-3.8,3.3
	c-0.9,0.6-1.7,0.9-2.4,1.4c-1.3,1-1.7,2.7-2.8,4.2c-0.7,1.1-1.8,1.8-2.3,2.8c-1,2-1.9,5.7-2.4,7.5c-0.9,3.4-0.1,5.3,0.5,8.5
	c-0.8,0.9-0.7,2.1-1.4,3.3c-0.5,0.8-1.7,1.4-2.4,2.3c-0.1,0.2,0.1,0.7,0,0.9c-0.1,0.1-0.8,0.3-0.9,0.5c-1.1,1.5-1.5,3.1-2.4,4.7
	c-0.5,0.9-1.4,1.8-1.9,2.8c-0.5,1.1-0.4,2.5-0.9,3.8c-1.4,3.3-3.3,5-2.8,9.4c0.2,1.5,0.8,1.7,0.9,2.4c0.7,2.8,1.4,6.5,0.9,9.9
	c-0.3,1.9-1.6,3.6-1.9,5.2c-1.2,5.5-0.2,8.9,1.4,12.7C40.6,685.4,41.9,687.8,43.6,689.2z"/>
<path d="M760.3,740.9c0.8-1.5,0.8-2.7,1.9-3.8c2-0.1,2.4,1.4,3.3,2.4c3.3,1.5,8.1,1.9,11.8,0.5c2.8-1.1,4.4-4,7.5-4.7
	c4.7-1,8.3,1.5,11.8,0.9c0.3,0,1.8-0.9,1.9-0.9c0.3-0.2,1.1-0.2,1.4-0.5c0.3-0.3,0.1-1.1,0.5-1.4c1.9-1.9,2.9-2.7,3.8-5.6
	c2.2-7.5-0.8-13.7-5.2-18.8c-3,0-4.4-1.4-7.1-1.4c-1.2,0-2.6,0.7-4.2,0.9c-1.6,0.2-3.7,0.1-5.2,0.5c-2.9,0.7-5.3,2.8-8,2.8
	c-2.6,0-5.2-1.8-8-2.3c-2.7-0.5-6.2-0.8-9.4-0.9c-3.7-0.2-7.8-0.4-11.3,0c-0.8,0.1-1.6,0.7-2.4,0.9c-3.5,0.9-6.6,0.5-10.3,0.9
	c-1.8,1.2-2.7,3.3-3.8,4.7c-0.5,0.7-1.2,0.8-1.4,1.4c-0.3,0.7-0.2,2.2-0.5,3.3c-0.3,1.2-0.9,2.2-0.9,3.3c-0.1,2,0.3,4.9,0.5,7.1
	c0.2,2.4,0.9,4.7,0.5,7c-0.2,1.3-1.3,2.8-1.9,3.8c-1.1,1.9-2.4,3.8-2.8,5.6c-0.6,2.6-1,7.8-0.5,10.8c0.5,2.8,2.9,4.9,2.8,8
	c0,1.3-0.3,1.4-0.9,2.8c-0.5,1.3-0.5,2-0.9,3.3c-0.7,2.2-1.1,4.4-1.9,6.1c-0.4,0.8-1.1,1.6-1.4,2.4c-1.3,3-2.3,6.4-2.4,9.9
	c0,2.8,1,5.4,0.9,8c-0.1,2.9-1.2,4.5-1.9,6.1c-0.5,1.1-0.5,2.3-0.9,3.3c-0.9,1.9-1.9,3.6-2.8,5.2c-2.2,3.9-5,7.7-5.2,11.3
	c-0.1,2.4,1.3,5.3,1.4,7.5c-2.2,4.6-5.1,8.2-5.2,12.2c0,1.2,0.1,3.6,1,5.2c0.9,1.8,3.4,2.9,4.7,3.8c1.8,1.2,3.1,1.7,5.2,2.4
	c0.2,0,0.7,0.8,0.9,0.9c0.7,0.3,1.7,0.2,2.3,0.5c1.1,0.4,1.6,0.7,2.4,0.9c6.1,1.4,9.3-0.1,14.6-0.9c4.8-0.7,10.4-0.4,13.6,0.5
	c1.8,0.5,4.6,1.2,5.6,1.4c0.4,0.1,0.9-0.5,1-0.5c3.1,0.2,6.9,0.4,8.9-0.5c1.4-0.6,2.8-1.4,3.8-1.9c0.7-0.4,1.7-0.5,2.4-0.9
	c0.7-0.5,1.2-1.4,1.9-1.9c0.7-0.4,1.7-0.5,2.3-0.9c0.7-0.5,1.2-1.4,1.9-1.9c1.4-1.1,3.1-1.7,3.8-3.3c0.7-1.4,0.7-4.2,0.9-6.1
	c0.3-2.4,0.8-4.6,0-6.1c5.1-7.3-4.3-10.6-11.3-9.4c-0.8,0.1-3.7,1.3-3.8,1.4c-0.4,0.4-0.4,0.1-0.9,0.5c-2.3,1.4-5.2,3.8-8,3.8
	s-4-2-5.6-2.8c-0.6-0.3-1.4-0.3-1.9-0.5c-2.1-0.9-4-0.8-5.6-2.8c1.6-2.7,2.8-7.7,2.4-12.2c-0.1-1.4-0.9-2.7-0.9-4.2
	c0-0.9,0.4-2.3,0.5-3.3c0.3-3.9,0.9-6.4,3.8-7.5c3.1-1.1,5.1,0.8,8.5,1.4c4.2,0.8,6.8,0.1,9.9-0.9c1.7-0.6,3.6-1.8,5.2-1.9
	c0.8-0.1,2.4,0.4,3.3,0.5c3.4,0.5,7.5,1.8,10.3,1.4c0.9-0.1,3-0.9,3.8-1.4c2-1.4,2.6-4.4,3.3-6.6c0.4-1.3,0.9-2,0.9-2.8
	c0.1-1-0.4-2.7-0.5-4.2c-0.1-1.7,0.3-3.4,0-4.7c-0.6-2.9-4.1-7.7-5.6-8.5c-2-0.9-5.3-1.4-7.5-1.4c-4.7,0.1-9.1,2.8-13.2,2.3
	c-2.9-0.3-3.9-2-7.5-3.3c-1.9,0.1-5.9,0.5-7.5-0.9c1.8-5.8,2.1-12.2,3.3-17.9C756.6,745.2,759.3,742.5,760.3,740.9z"/>
<path d="M467.5,858.9c0.1,0,0.8,0.4,1.4,0.5c2.5,0.2,4.1,0.9,5.6,0.9c1.7,0,3.6-0.7,5.6-0.9s4.1-0.2,6.1-0.5c4-0.6,7.9-2,11.3-1.9
	c1.6,0,4.8,1,6.6,0.9c1.4-0.1,3.5-0.8,5.6-1.4c1.9-0.5,4.6-0.9,5.6-1.4c0.1-0.1,0.3-0.8,0.5-0.9c0.3-0.3,1-0.1,1.4-0.5
	c1.2-1,1.9-3.1,2.4-4.2c0.1-0.2,0.8-0.3,0.9-0.5c2.1-3.8,3.2-7.6,4.7-11.3c0.9-2.3,1.1-3.9,2.8-5.2c3.5-2.7,8.4-1.5,13.6-1.4
	c3.4,0.1,6.4-0.6,8,0c1.4,0.6,1.9,0.1,2.8,0c2.4-0.2,5.1,0.9,6.6,1.4c1.2,2.7,2.2,4.1,2.3,6.6c0.2,3.9-2.7,7.4-1.9,11.3
	c0.1,0.8,2.4,3.8,2.8,4.2c1.2,1.1,3.5,1.8,5.2,2.4c1.6,0.5,3.9,1.1,6.1,1.4c7.5,1.1,8.3,0.1,12.7-3.8c2.1-1.9,4.5-3.5,5.2-5.2
	c0.4-1,0.2-2.8,0.5-4.2s0.9-3.1,1-4.2c0-1.1-0.4-2.5-0.5-3.7c-0.2-2.9,0-4.9-0.5-6.6c-0.5-1.8-1.2-4-1.4-5.6c-0.6-5.9,1-11,0.9-15.5
	c0-1.5-0.7-3.4-0.9-5.2c-0.5-4.2-0.8-7.1-1.9-9.4c-1.3-2.9-2.5-6.5-3.3-8.9c-0.4-1.1-0.2-2-0.5-3.3c-0.2-0.9-0.8-1.4-0.9-2.4
	c-0.8-4.8,1.1-8.1,1.9-11.3c0.3-1.5,0.1-2.9,0.5-4.2s1.1-2.4,1.4-3.8c0.9-4.1,0.5-10.2-0.5-14.1c-0.7-2.8-2.6-5.3-3.3-8.5
	c-1.3-6.5,0-14.1-1.4-18.3c-1.6-5-4.4-7.4-8-8.9c-2.8,0-5.6,0-8.5,0c-4.7,3.6-13.7,2.9-20.7,4.2c-2.8,2.8-7,4.9-8.5,8
	c-0.7,1.6-1.2,3-1.9,4.7c-0.8,2.1-1.5,4.4-2.3,6.6c-1.1,2.9-2.9,6.4-4.2,8.9c-0.5,1-0.8,2.4-1.4,3.3c-0.1,0.2-0.8,0.3-0.9,0.5
	c-0.3,0.4-0.2,1.1-0.5,1.4c-1.4,1.8-3.3,3.5-4.2,5.2c-0.3,0.4-0.7,0.6-0.9,0.9c-1.9,3.3-2.6,7.8-3.8,11.8c-0.4,1.2-0.8,2-0.9,2.8
	c-0.4,2.8-0.1,5.3-0.5,7.1c-0.7,3.2-2.3,6.1-3.8,8.9c-1.4,2.6-2.6,5.5-3.8,7.1c-1,1.4-2.6,2.4-3.8,3.8c-0.5,0.6-0.8,1.6-1.4,2.3
	c-0.6,0.8-1.5,1.1-1.9,1.9c-0.5,1-0.5,2.7-0.9,4.2c-0.4,1.4-1.2,2.8-1.4,4.2c-0.3,2.3,0.3,4.8,0,7.1c-0.3,2.7-2.1,9-3.3,10.3
	c-0.1,0.1-0.8-0.1-0.9,0s-0.3,0.8-0.5,0.9c-1.8,1.2-3.8,1.3-6.1,1.9c-3.1,0.8-6,1.8-8.9,1.4c-1.6-0.2-4.5-2.2-5.2-2.8
	c-0.4-0.3-1-0.2-1.4-0.5c-1.9-1.6-1.7-3.5-2.3-5.6c-1-3-2-3.8-4.2-5.2c-1-0.6-2.1-1.2-3.3-1.9c-0.5-0.3-1-0.7-1.4-0.9
	c-2.3-1.2-4-0.5-4.2-3.3c-0.1-1.6,1.1-2.4,1.9-2.8c1.1-0.7,1.9-2,2.8-2.4c0.2-0.1,1.9,0.3,2.8,0c2.9-1,6.6-2.6,8.5-3.8
	c0.4-0.2,1-0.2,1.4-0.5c1.4-1.1,2.5-3.5,3.3-4.7c0.3-0.5,0.6-0.6,0.9-0.9c1.3-1.6,1.2-2.4,1.9-4.2c0.3-0.7,1.1-1.3,1.4-1.9
	c0.7-1.4,1.2-3.9,1.9-4.7c1.3-1.7,3.4-2.1,4.7-3.3c1.4-1.2,2.9-2.8,3.8-4.2c1.9-3.3,2.3-12,1.4-15.5c-1.1-4.2-5.1-7-6.6-11.8
	c-0.8-2.4-0.3-7,0-8.9c0.7-4.6,0.5-5.4-1.4-8.9c-2.2-4.2-4.4-6.2-8-8.9c-2.3-1.8-4.5-3.7-6.1-4.2c-2.5-0.9-7.5-0.5-12.2-1.9
	c-1.3-0.4-2.4-1.3-3.8-1.9c-1.2-0.5-2.2-0.6-3.3-0.9c-0.2-0.1-0.7-0.9-0.9-0.9c-0.7-0.2-1.6,0.2-2.4,0c-0.2,0-1.2-0.9-1.4-0.9
	c-2.3-0.4-6.7-0.5-8-0.5c-2.8,0.2-5.9,1.5-8.9,1.9c-3.7,0.5-7.7,0-10.3,0.9c-0.7,0.2-1.9,1.4-2.8,1.9c-3.4,1.9-4.9,2.9-7,5.6
	c-0.7,0.9-1.4,1.4-1.9,2.4c-0.5,0.9-0.4,2.3-1.4,2.8c0,2.4,0,4.7,0,7c-2.6,3.1-7.7,5.8-8.5,9.9c-0.8,3.9,0.8,6.8,1.4,8.9
	c0.8,3,1.2,5.9,2.3,8.5c-1.6,2.7-4.5,5.8-6.1,8.5c-1.7,2.8-3.9,5.2-4.2,8.5c-0.6,6.3,0,11.3-0.9,16c-1.1,5.1-3.4,8.8-5.2,12.2
	c-2.3,4.5-2.7,9.3-3.8,14.6c2.6,4,1.9,8.8,0.5,12.2c-0.2,0.5-0.1,1.2-0.5,1.9c-1.6,3.2-5.1,5.6-5.6,9.4c-0.2,1.8-0.1,5,0.5,6.6
	c0.2,0.5,1,1.2,1.9,2.3c0.6,0.8,1.4,2.4,1.9,2.8c0.1,0.1,0.7-0.1,0.9,0c0.2,0.1,0.3,0.8,0.5,0.9c2.7,1.7,8,2.4,12.2,2.4
	c3.5,0,10.6,0,12.7-0.9c1.9-0.8,4.1-4.4,4.2-6.1c0.2-1.9-0.4-2.9-0.9-4.2c-0.4-1-1.6-2-1.4-3.8s1.7-2.4,2.4-3.3
	c0.3-0.4,0.2-0.9,0.5-1.4c0.4-0.6,1.4-1.1,1.9-1.9c1.1-1.8,2.9-7.4,2.8-9.4c0-0.8-0.7-1.6-0.9-2.3c-1.2-3.4-1-4.9-1.4-8.9
	c1.3-1.2,1.6-3.4,3.3-4.2c2.1-0.6,4.4-0.9,6.6-1.4c0.7,1,1.1,1.5,1.4,2.4c0.4,1.3-0.1,2.8,0,3.3c0.4,1.5,1.5,3.5,1.9,4.2
	c0.3,0.6,0.1,1.3,0.5,1.9c1.2,1.8,3.5,2.9,4.7,3.8c1.5,1,1.7,1.3,2.4,3.3c0.7,2.1,0,2.6,0,4.2c0,0.6,0.5,1.3,0.5,1.4
	c0.1,2.4,0,5.1,0.5,7.1c0.1,0.5,1.1,1.5,1.4,2.4c0.4,1.1,0.6,2,0.9,2.8c1.1,2.5,5.3,4.7,7.5,6.1c1.3,0.8,2.4,1.4,4.2,1.9
	c3.6,1,8.3,2.6,11.3,2.8C463.1,859.5,465.3,858.8,467.5,858.9z M541.3,794c1.3-5-0.6-10.9,0.9-15.5c0.1-0.3,0.8-0.7,0.9-0.9
	c0.2-0.4,0.2-1,0.5-1.4c0.5-0.8,1.4-1.2,1.9-1.9c0.3-0.4,0.2-1,0.5-1.4c1.5-1.9,4-4.7,5.2-7.5c0.7-1.7,0.7-3.8,1.4-5.6
	c0.3-0.9,1.4-1.8,1.9-2.8c0.9-1.9,1-3.3,2.4-4.7c0.5,0,0.9,0,1.4,0c2.6,2.9,2.2,7.2,1.9,10.8c-0.1,1.3-0.3,2.5-0.5,3.8
	c-0.7,4-3.3,10.3-1.4,16c1.5,4.6,4,9,6.1,13.6c-3.8,7.1-18.3,4-25.4,3.3C538.9,797.2,540.7,796.2,541.3,794z M449.2,778.5
	c-2.3-0.3-8.7-0.1-11.8,0.9c-3.3,1.1-5.7,3.9-8.9,2.4c-1.4-1.6-1-4-0.9-5.6c0.3-4.7,3.5-9,3.3-14.1c2.8-2.7,2.9-8.1,3.8-12.7
	c2.1-2.3,7.6-3.7,11.8-2.4c3.1,0.6,2.7,3.8,5.6,5.2c1.7,0.8,3.9,0.2,5.6,0.9c1.6,0.6,6.1,4.2,6.1,6.6c0,1.4-0.6,1.8-1.4,2.8
	c-1,1.2-2,2.6-2.8,4.7c-0.9,2.4-1.9,5.4-2.8,8C454.6,775.7,452.6,778.9,449.2,778.5z"/>
<path d="M849.1,734.3c2.2,0.4,3.3,3.3,4.7,6.1c0.5,1,1.4,2.1,1.9,3.3c0.7,1.5,0.7,3.3,1.4,4.2c0.8,1.2,2.9,2.9,4.2,3.8
	c2.9,2,5.1,2.6,8.5,1.9c2-0.4,3.4-0.5,3.8-0.9c0.4-0.4,0.4-0.1,0.9-0.5c2.9-1.8,4-3.7,5.2-6.6c1.2-3,1.9-5.8,1.4-10.3
	c-1.5-3.9-6.3-7.6-10.8-11.8c-1.7-1.6-3.9-3.4-6.1-5.2c-0.6-0.5-0.9-0.9-1.4-1.4c-0.6-0.5-1.2-0.5-1.9-0.9c-1.1-0.8-2.2-2-3.3-2.3
	c-1.3-0.4-3.4-0.1-5.2-0.5c-1.7-0.3-3.2-1.2-4.7-1.4c-2.9-0.4-7.1-0.5-9.9,0c-0.6,0.1-0.9,0.8-1.4,0.9c-1.3,0.5-3.1,0.5-4.7,1.4
	c-0.3,0.2-0.9,1-1.4,1.4c-3,2.1-6.5,4.6-8.5,7.1c-2.5,3-2.8,6.5-2.4,10.3c-1.4,1.5-2.1,3.7-3.3,6.1c-1,2.1-2.6,4.2-2.8,6.6
	c-0.4,3.3,0.9,5.9,1.4,9.4c1.6,1.4,2.5,2.7,3.8,4.2s2.8,2.7,3.8,4.7c2.4,5.1,0.4,13.7,3.8,20.2c1.5,2.9,4.6,5.5,7.1,8
	c2.8,2.8,5.7,5.3,7.5,8c1,1.5,1.7,3.2,2.4,5.2s1.8,4.3,1.4,6.1c-0.7,2.8-5.1,4.1-6.1,7.1c-0.5,1.5-0.4,3.2-0.5,4.2
	c-0.1,1.2,0.3,2.3-0.5,4.2c-1.6,1.1-3.4,2.9-5.6,2.8c-0.4,0-3.6-1.6-4.2-1.9c-0.1-0.1-0.3-0.8-0.5-0.9c-2.8-2.3-2.2-6.7-3.8-9.9
	c0-0.1-0.4-0.8-0.5-0.9c-3-4.3-7-7.9-12.2-8.9c-7.1-1.5-7.9,1.5-14.1,3.8c-1.3,4.7-3.6,5.1-3.8,9.4c-0.1,5.3,2.9,5.7,4.7,9.9
	c0.4,1,0.1,2.1,0.5,3.3c0.2,0.8,1.2,1.6,1.4,2.3c0.3,1.1,0.1,2.4,0.5,3.3c0.1,0.2,0.8,0.7,0.9,0.9c0.3,0.7,0.1,1.3,0.5,1.9
	c0.6,1,2.1,2.2,3.8,3.8c2.1,2,4,3.7,6.1,5.2c1.2,0.8,2.4,1.8,3.3,2.4c1.3,0.8,2.4,1.9,3.3,2.3c0.5,0.3,1.5,0.4,1.9,0.5
	c2.1,0.7,4.3,1.3,6.6,1.4c2.1,0.1,5.7-0.4,8.9-0.9c2.9-0.5,7.9-1.9,9.4-2.8c2.9-1.8,6.8-3.5,8.5-5.6c0.3-0.3,0.2-1.1,0.5-1.4
	c2.1-2.3,5.6-4.9,8-6.1c0.6-0.3,1.4-0.1,1.9-0.5c1.9-1.5,2.7-4.2,4.7-5.6c1.9-1.4,4.3-1.5,6.1-2.8c0.9-0.7,2.4-2.9,2.8-3.7
	c0.1-0.2,0.8-0.3,0.9-0.5c0.2-0.4-0.1-1,0-1.4c0-0.2,0.8-0.7,0.9-0.9c0.3-1,0.2-2.3,0.5-3.3c0.5-2.1,1.3-4.4,1.4-6.1
	c0-0.1-0.5-0.4-0.5-0.9c0-0.2,0.2-3.6,0-4.7c-0.3-1.4-1.3-2.7-1.9-4.2c-1.5-3.9-2.4-8.5-3.3-12.2c-0.2-0.8-0.7-1.5-0.9-2.3
	c-0.4-1.7-0.3-3.4-0.9-5.2c-1.2-3.6-3.8-7.4-6.1-9.4c-1.1-1-2.1-1.1-3.3-1.4c-0.2-0.1-0.7-0.9-0.9-0.9c-3.2-1.1-5.2-0.6-7.1-2.8
	c-0.6-7.1-0.4-13.6-3.3-18.3c-1.3-2.1-3.5-2.8-4.2-5.2c-2.1-1.5-4.4-1.7-5.2-4.2c-0.5-1.6-0.4-5.6,0.5-7.1
	C844.4,735.1,847.5,734.1,849.1,734.3z"/>
<path d="M635.7,717.9c-0.5,0.7-0.4,1.5-0.9,2.4c-0.5,0.7-1.5,1.2-1.9,1.9c-0.3,0.7-0.2,1.2-0.5,1.9c-0.5,1.2-1.1,2.3-1.4,3.3
	c-0.5,1.5-1,2.6-1.4,3.8c-0.7,2.1-1.2,4.3-1.4,6.1c-0.4,3.3,0.2,6.7,0,10.3s-1.1,6.3-1.9,8.5c-0.8,2-1.3,3.9-1.9,5.2
	c-0.1,0.2-0.8,0.3-0.9,0.5c-1,1.9-1.3,3.9-1.9,5.2c-0.1,0.2-0.8,0.3-0.9,0.5c-0.4,0.9-0.5,2.3-0.9,3.3c-0.9,2-2.5,3.9-2.8,5.6
	c-0.8,4.1,1.1,8.2-0.9,10.8c3.2,5.2,2.1,10.6,0.9,14.6c-0.5,1.6-1,3.5-1.4,4.2c-0.7,1.3-1.8,2.8-2.8,4.2c-1.1,1.6-2.7,2.6-3.3,4.2
	c-0.6,1.5-0.8,4.2-0.9,6.1c-0.4,5.3,1.4,10.1,0.5,14.6c-0.3,1.5-1.7,2.7-2.3,4.2c-1.3,2.9-2,4.9-1.4,8c0.5,2.5,0.8,3.5,1.4,5.2
	c0.5,1.3,0.6,2.4,0.9,2.8c1.9,2.7,5.9,2.9,9.4,4.7c1.6-0.2,2.6-0.9,4.2-0.9c1.6-0.1,3.2,0.6,4.7,0.5c2.1-0.2,4.5-0.9,6.6-1.4
	c2.3-0.5,4.7-0.8,6.6-1.9c3.7,0.4,7.2-1.1,10.8-1.4c2.6-0.2,5,0.2,7.5,0c2.1-0.2,4-1.7,6.1-0.9c1.4-1.1,2.6-2.4,5.2-2.3
	c1.2-1.7,3.3-2,4.7-3.3c1.5-1.3,2.6-3.4,3.8-5.2c0.5-0.7,0.9-2,1.4-2.8c0,0,0.4-0.4,0.5-0.5c0.4-0.4,0.6-1,0.9-1.4
	c1.4-1.4,2.4-2.4,3.8-3.8c1.1-1.1,2-2.4,3.3-3.3c0.8-2.6,4.3-4,6.1-6.6c0.4-0.6,0.8-2.2,1.4-3.3c1.2-2.3,2-3.8,2.8-6.6
	c0.4-1.3,0.6-2.5,0.9-3.7c0.7-2.6,0.9-5.4,1.9-8c0.7-1.8,1.9-3.3,2.8-4.7c2.6-3.9,4.9-7.7,6.1-12.2c0.7-2.6,0.2-6.3,0-8
	c-0.2-2.1-0.1-4.5-0.5-6.1c-0.4-1.5-1.7-3.1-2.3-4.7c-0.8-1.8-1.4-3.8-1.9-5.6c-0.9-3.4-1.2-7-1.9-10.3c-0.1-0.7-0.8-1.2-0.9-1.9
	c-0.2-1.2-0.2-1.8-0.5-2.8c-1.2-4.7-1.9-5.5-4.2-8.5c-1.4-1.8-2.5-3.4-3.8-4.2c-1.6-1.1-3.3-2-5.2-2.8c-1.3-0.6-2.9-1-4.2-1.9
	c-2.1-1.3-4.2-3.7-5.6-5.6c-2-2.7-3-5.4-5.6-6.6c-0.2-0.1-0.3-0.8-0.5-0.9c-1.4-0.8-4.2-1.2-6.6-1.9c-0.2-0.1-0.7-0.9-0.9-0.9
	c-0.7-0.2-1.6,0.2-2.4,0c-1.2-0.3-2.5-0.9-3.8-0.9c-1.4-0.1-2.8,0.5-4.2,0.5c-1.5,0-3-0.6-4.2-0.5c-1.9,0.2-4.4,1.6-6.1,1.9
	c-1.7,0.3-3-0.1-4.7,0C638,715.6,636.7,716.6,635.7,717.9z M643.3,813.8c0.4-4,0.8-6.1,2.3-8.9c0.6-1.1,1.7-2.2,2.4-3.3
	c0.6-1.1,1.2-2.4,1.9-3.8c0.5-1,1.6-2.4,1.9-3.3c0.3-1.1,0.5-4.4,0.5-5.6c0-1.4-0.8-2.8-0.9-4.2c-0.1-1.1,0.5-2.4,0.5-3.8
	c0-1.2-0.6-2.4-0.5-3.3c0.2-1.4,1.3-3.2,1.9-4.7c0.2-0.7,0.3-1.1,0.5-1.4c0.4-0.9,0.4-2.3,0.9-3.8c1.2-3.5,3.1-6.4,3.3-9.4
	c0.3-4.7-2.7-9.1-0.5-11.8c2.9-2.8,12.2,3.2,13.2,5.6c0.6,1.4,0,3.4,0,4.7c0,0.8,0,2.4,0,4.7c0,1.1-0.2,2.6,0,3.8
	c0.1,0.6,0.8,1,0.9,1.4c0.3,0.6,0.1,1.3,0.5,1.9c0.8,1.1,2.2,1.9,3.3,3.3c1.5,1.9,2,2.9,2.3,7.1c0.3,3.5,0,7.7-2.3,10.8
	c-0.7,0.9-1.4,1.3-1.9,2.4c-2.9,6.1-1.4,12.8-2.3,17.4c-0.1,0.3-0.9,0.8-0.9,0.9c-0.1,0.4,0.2,1,0,1.4c-1.1,2.3-4.8,4.1-6.6,5.6
	c-6-0.1-8.4,2.2-11.8,5.2c-1.8,1.6-2.4,3.4-4.7,3.3C642.2,825.8,642.6,819.1,643.3,813.8z"/>
<path d="M366,800.1c1.2-3.5,3.5-6.1,3.3-9.4c-0.1-0.8-0.5-0.8-0.9-1.9c-0.2-0.6-0.2-1.8-0.5-2.4c-1.4-3.4-3-6.5-4.2-9.9
	c-0.3-0.7-0.8-1.3-0.9-1.9c-0.1-0.5,0.5-1.6,0.5-2.4c0-0.4-0.5-2-0.5-2.8c0.2-2.5,1.3-5.2,1.9-8s1.5-5.7,1.4-8.5
	c-0.1-2.3-1.2-5.1-1.9-7.5c-0.7-2.6-1.9-5-1.9-7.5c0-3.6,2.4-6.8,2.4-10.3c0-2.9-1.2-4.7-2.8-8c-2.6-0.8-4.7-2.6-7.5-3.3
	c-4.5-1.1-9.7,0-14.1,0.5c-1.9,0.2-4,0.1-5.6,0.5c-1,0.2-1.7,1-2.8,1.4c-1.1,0.4-2.3,0.6-3.3,0.9c-5.1,2-5.5,2.6-6.6,7.5
	c-0.4,1.5-0.2,3.3-0.9,4.7c-0.5,1-1.5,2-1.9,2.3s-1,0.1-1.4,0.5c-1.1,0.9-2.3,2-3.3,2.8c-0.6,0.5-1.4,0.6-1.9,0.9
	c-1.4,1.1-3.8,4.1-4.2,5.6c-1,3.2,0.2,7.2-0.9,10.8c-0.1,0.3-1.9,3.3-1.9,3.3c-0.4,0.4-0.1,0.4-0.5,0.9c-0.9,1.6-2.2,2.1-3.3,3.3
	c-0.7,0.8-1.3,2.2-1.9,2.8c-1.5,1.7-3.5,3.9-4.7,5.2c-0.4,0.4-0.6,1-0.9,1.4c-0.8,0.8-2.1,3.1-2.3,3.8c-0.9,3-0.6,6.7-0.9,9.9
	c-0.3,3.1-0.6,6.4-1.9,8.9c-0.4,0.8-1.6,2.5-1.9,2.8s-1.1,0.2-1.4,0.5c-1.2,1.2-2.1,2.6-3.3,3.8c-2.2,2.2-5.1,4-6.6,7
	c-1.1,2.2-1.5,5.1-1.9,7.5c-0.3,2.1,0.1,4.7-0.5,7.5c-0.1,0.7-0.9,2.2-1.4,3.3c-0.9,2.1-1.7,3.6-2.3,4.7c-0.6,1-0.9,1.7-1.4,2.3
	c-0.9,1.1-1.5,1.6-2.4,2.4c-3.6,3-5.3,6.5-6.1,11.8c-0.7,4.7-0.3,6.3,0.9,8.9c0.6,1.2,1.2,2.4,1.9,3.3c5.3,2.3,11.9,3.9,17.4,1.9
	c2.1-0.8,4.3-3.9,5.2-5.2c0,0,0.4-0.4,0.5-0.5c0.4-0.4,0.6-1,0.9-1.4c0.4-0.4,0.1-0.4,0.5-0.9c0.9-1.3,2.5-2.3,3.3-3.3
	c0.3-0.3,0.3-1.1,0.5-1.4c0,0,0.4-0.4,0.5-0.5c0.3-0.3,0.1-0.5,0.5-0.9c2.1-2.9,3.8-4.4,4.7-7.5c1-3.6,3.5-5.4,7-6.1
	c5-1,11.2,1.6,16,0.5c0.5-0.1,1.3-0.6,1.9-0.9c0.7-0.4,1.2-0.5,1.9-0.9c1.1-0.7,2.1-2.1,3.8-2.4c0.4-0.1,2,0.4,2.8,0.5
	c4.8,0.5,7.8,1.8,7,6.6c-0.1,0.8-0.8,1.1-0.9,1.9c-1,5.9,0.5,12.5,2.8,15.5c2.2,3,5,4.4,9.9,4.7c1.5,0.1,4.8-0.4,8-0.9
	c3.1-0.5,6.3-0.8,7.5-2.8c1.6-2.5-0.6-4.4,1.9-7.5c-0.1-3.8,1.8-5.5,2.3-8.5c0.2-1.3-0.1-2.8,0-4.2c0.5-7.4-1.4-12.9-3.8-17.9
	c-0.5-1.1-1.2-2.2-1.4-3.3c-0.3-1.3-0.5-4.8-0.5-5.2c0.2-1.9,2.3-4.9,2.8-6.6C365.8,802.1,365.7,800.9,366,800.1z M342,780.9
	c-0.6,3.2-4.3,4.9-3.8,8.9c0.1,0.8,0.1,2.1,0.5,3.8c0.9,3.7,4.5,6.6,0.5,10.8c-3.4,0.1-5.7-1.4-8.5-1.4c-6.6-0.1-12,4.9-18.3,3.8
	c-0.6-1.4-1.4-2.1-1.4-3.8c0-1.2,0.8-2.4,0.9-3.8c0.3-2.8,0.2-6,0.9-8.9c1.3-5.1,4.9-10.5,8-14.6c1.4-1.9,2.9-4.8,4.2-7.5
	c0.5-1.1,1-2.3,1.4-3.3s1-1.8,1.4-2.8c2-4.4,3.3-9,6.1-11.3c1.8-1.5,6.2-1.8,8,1.4c0.4,2.3-0.8,3.9-1.4,7c-0.4,2-0.9,5.9-0.5,9.4
	c0.3,2.2,1.6,4,1.9,6.1C342.3,776.5,342.4,779,342,780.9z"/>
<path d="M143.7,776.7c2.1-1.9,3.9-7,3.8-10.3c-0.1-2.4-1.7-5-2.3-7.5c-1-4.2-1.4-9-1.9-12.2c-0.6-3.7-0.6-4.3-1.9-6.6
	c-1.7-2.9-3.9-5.1-6.1-6.6c-0.5-0.3-0.6-0.6-0.9-0.9c-1.7-1.6-2.5-1.8-4.2-2.8c-4-2.2-7.5-5-10.8-7.5c-1.8-1.3-3.1-2.8-4.2-3.3
	c-1.9-0.8-6.4-1.4-8.5-1.9c-1.2-0.3-2.4-0.4-3.3-0.5c-8.5-0.6-11.1,6-17.4,8.9c-2.9,1.4-6.3,1.9-9.4,2.8c-2.5,0.7-5.3,1.7-7.1,2.4
	c-0.9,0.3-1.7,0.6-2.3,0.9c-0.6,0.3-1.1,1.4-1.9,1.9c-0.4,0.3-1.1,0.3-1.4,0.5c-4.8,3-6.9,7.8-7.1,15c-2.4,2-5.7,4.1-8,6.1
	c-1.2,1-2.8,2.5-3.3,3.3c-0.3,0.5-0.6,0.5-0.9,0.9c-1.1,1.2-1.7,2.4-2.4,3.3c-0.3,0.4-0.7,0.5-0.9,0.9c-1.6,2.6-0.9,3.3-1.4,7.1
	c0,0.1-0.9,1.2-0.9,1.4c-0.7,3.4,1,6,0.5,8.9c-0.3,1.7-1.7,3.2-2.8,5.2c-1.2,2-3,4.6-3.8,6.1c-0.9,1.7-0.9,3-1.4,4.7
	c-0.8,2.3-2.1,4.5-1.9,6.6c0.1,1.1,1.4,3.2,2.3,4.7c1.1,1.7,2.5,2.5,2.8,4.7c0.5,3.1-0.9,6.7-1.9,10.3c-0.6,2.4-1.3,5.1-1.9,7.5
	c-0.6,2.6-0.8,5.1-0.5,8c0.4,3.7,2.3,8.7,4.7,10.8c1.5,1.3,3.7,1.7,5.2,2.3c1.8,0.7,3.4,1.5,5.6,1.9c1.1,1.7,2.5,2.9,3.8,4.7
	c1.1,1.7,1.7,3.7,3.3,5.2c0.6,0.6,1.9,1.1,3.3,1.9c2.2,1.3,3.4,2.1,5.6,2.8c1.6,0.5,2.7,1,4.2,1.4c5.9,1.5,10.3-1.7,14.1-3.8
	c2.2-1.2,4.1-2,6.6-2.8c3.5-1.2,7.4-2.2,10.8-3.3c3.6-1.1,4.2-1.6,7.1-3.3s4.5-2.6,6.6-4.7c2-1.9,4-3.8,5.6-5.6
	c0.4-0.4,0.5-1.4,0.9-1.9s1.4-0.9,1.9-1.4c0.4-0.4,0.5-1.4,0.9-1.9c1.3-1.5,3.2-2.8,4.2-4.2c2.9-4,4.9-8.1,3.8-13.6
	c-0.2-0.9-1.7-2.5-1.9-2.8c-0.3-0.4-0.2-1-0.5-1.4c-1.9-2.2-4.1-3.2-7-4.2c-4.4-1.5-6.5-1.4-9.4-0.5c-5.5,1.9-10.6,7-12.7,11.8
	c-0.1,0.1-0.8,0.3-0.9,0.5s0.1,0.7,0,0.9c-0.1,0.1-0.8,0.3-0.9,0.5s0.1,0.7,0,0.9c-0.1,0.1-0.8,0.3-0.9,0.5c-1.3,1.6-2,2.3-4.2,2.8
	c-2.9,0.6-5.9-1.1-9.4-0.9c-2.1,0.1-4,1.3-6.1,1.4c-2.5,0.1-3.8-0.4-6.1-1.4c-0.7-5.1-3.1-8.5-4.7-12.7c1.6-2.6,2.1-4.3,2.8-7.1
	c0.7-2.5,1.3-5.2,0.9-8.5c-0.4-4.2-3.2-7.8-2.8-11.3c0.4-3.6,4.9-7.1,6.6-11.3c1.2-2.9,1.7-5.5,1.4-9.9c1.2-1.3,2.1-2.9,2.8-4.7
	c3.1-1.3,6.3-4.1,8.5-6.1c0.8-0.7,1-1,1.4-1.9c0.1-0.1,0.8-0.3,0.9-0.5c1.2-1.5,1.5-2.1,2.3-3.3c1-1.4,1.3-2,2.4-2.8
	c1.7-1.3,3.5-2.6,6.6-1.9c2.4,0.6,1.6,3.1,4.7,3.8c1.4,4.1,3.6,7.1,6.6,8.9c3.1,1.9,5.1,2.6,6.6,5.6c1.2,2.4,0.8,5.3,1.9,7.5
	c0.4,0.8,3.3,3.9,3.8,4.2c1.2,0.7,3.7,0.9,5.6,1.4c0.1,0,0.7,0.9,0.9,0.9c2.3,0.7,5.8,0.3,6.6,0c0.3-0.1,1.2-0.2,1.9-0.5
	c2.2-0.8,5.4-3.1,6.6-4.2C143,776.9,143.4,776.9,143.7,776.7z"/>
<path d="M259.3,755.5c-0.3-2.2-0.8-4.7-0.5-7c0.1-0.5,0.7-1.2,0.9-1.9c0.3-0.9,0.2-1.6,0.5-2.4c1-2.4,2.4-3.6,3.3-5.2
	c0.8-1.5,0.9-2.8,1.4-4.2c0.4-1,0.9-1.6,0.9-2.4c0.1-0.6-0.4-4-0.5-4.7c-0.3-1.9-4.6-6.5-5.6-7.1c-2-1.1-6.7-1.9-8.5-1.9
	c-4.7,0.2-8.4,3.6-12.2,5.2c-2.5,3.2-4.4,4.9-5.2,9.4c-0.2,1.4-0.5,2.6-0.5,3.8c0,2.7,1.2,5.3,0.9,8c-0.2,2.1-2,5-3.3,8
	c-0.6,1.3-0.8,2.8-1.4,4.2c-0.6,1.5-1.6,2.5-1.9,3.8c-0.3,1.5,0.1,2.6,0,4.2c-0.1,1.5-0.8,3.3-0.9,4.7c-0.4,3.2-0.1,7.2-1.4,9.4
	c-0.8,1.3-4,3.2-4.2,3.3c-2.1,0.6-4.5-0.5-6.6,0c-1.4,0.3-2.7,1.7-3.8,2.3c-1.6,1-2.2,1.7-4.2,1.9c-1.8,0.2-4-0.5-5.6-0.9
	c-3.3-0.8-6.2-2.1-9.4-2.8c-1.1-0.3-3.2,0.6-3.8-1.4c0.2-1.6,0.4-3.4,0.9-4.7c0.4-0.9,1.7-2,1.9-2.4s-0.2-1.1,0-1.4
	c1.4-2.3,4-3.9,5.2-6.6c0.2-0.5-0.2-1.3,0-1.9c0.1-0.2,0.9-0.7,0.9-0.9c1.3-5.1-0.6-10.8-0.9-15c-0.2-2.6,1.5-5.3,2.4-6.6
	c0.9-1.6,1.7-1.9,2.4-2.8c0.4-0.6,0.1-1.3,0.5-1.9c0.7-1.3,1.2-1.8,1.4-3.8c0.5-5.6-3-8.2-6.1-10.3c-4-2.8-9.7-2.6-15-0.5
	c-1.9-0.8-3.4-1-5.6-0.5c-4.9,1.1-12,8.4-12.7,13.2c-0.6,4.2,2,8.7,1.4,13.2s-3.6,6.3-3.8,10.3c-2.6,2.5-2.9,4.7-3.8,8.5
	c-0.3,1.2-0.9,2.1-0.9,3.3c-0.3,4.5,1.8,9.6,1.4,14.6c-0.3,4.7-3.2,10.8-4.2,14.1c-0.3,0.8-0.2,1.8-0.5,2.4
	c-0.1,0.1-0.8,0.3-0.9,0.5c-0.3,0.4-0.3,1.1-0.5,1.4c-0.5,0.8-1,1.6-1.4,2.4c-0.8,1.5-2,3.4-2.4,5.2c-1.2,5.8,1.9,11.8,0.5,17.4
	c-0.5,1.8-3.6,5.9-4.7,7.5c-1.1,1.7-2.8,3.2-3.3,4.7c-1.3,3.8-0.2,11.7,0.5,14.1c1.5,5.1,5,6.7,10.3,8c3.3,0.8,4.8,0.6,8.5,0.5
	c2.1-0.1,4.2,0.2,5.6,0c1.8-0.3,4.4-2.1,6.1-3.3c2.9-2,3.8-2.8,4.7-6.1c0.1-0.4,0.9-1.7,0.9-1.9c0.2-1.9-1.1-3.8-0.5-7
	c1.4-2,1.7-3,2.8-4.2c0.5-0.5,1.7-0.3,2.3-0.9c0.2-0.2,0.3-1.2,0.5-1.4c0.2-0.3,0.8-0.6,0.9-0.9c0.5-1.2-0.1-2.4,0-4.2
	c0.1-1.6,0.5-3.2,0.5-4.7c0-0.1-0.5-1.1-0.5-1.9c0.1-1.4,0.1-2.2,0-2.8c-0.1-0.4,0.5-0.9,0.5-0.9c0-1.2-0.6-1.4-0.5-2.4
	c0-0.1,0.9-0.7,0.9-0.9c0.2-0.6-0.2-1.3,0-1.9c1-2.6,3.8-3.3,6.1-3.8c0.4-0.1,0.4,0.5,0.5,0.5c2,0.1,3.6,1,6.1,0.9
	c1.1,0,2.1-0.6,3.8-0.9c1.3-0.3,3.1-0.1,4.2-0.5c1.1-0.4,2.1-1.3,3.3-1.9c3.9-1.8,8.4-2.7,10.8,2.3c-0.7,2.5-2.9,3.6-4.2,5.2
	c-3.1,3.7-3.9,5.5-3.3,11.3c0.2,1.7,0.2,3.8,0.5,5.2c0.4,2,1.7,3.6,1.9,5.7c0.1,0.9-0.4,2.4-0.5,3.3c-0.5,4-1.3,7-1.4,10.8
	c3.1,5,10.1,7.6,16.5,6.6c1.5-0.2,2.8-0.2,3.8-0.5c0,0,0.7-0.4,0.9-0.5c2.6-1.2,7.8-3.9,8.9-5.6c0.9-1.3,1.1-2.3,1.9-3.8
	c0.9-1.8,2.1-3.6,2.3-5.2c1.1-6.2-1.7-12.6-0.5-18.8c0.3-1.3,1.7-4,2.4-5.2c0.9-1.8,2.2-3.2,2.8-4.7c0.5-1.3-0.1-2.8,1.4-3.8
	c-0.9-2.9,0.4-5,0.5-7.5c0.1-5.2-2.3-10.1-1.9-16.4c0.3-5.1,2.5-9,4.2-12.2c1.7-3.1,2.8-4.9,3.8-8.5c0.2-0.8,0.8-1.6,0.9-2.3
	C260.5,762.9,259.8,759.7,259.3,755.5z"/>
<path fill="#FF6757" d="M709.8,1041.9"/>
<path d="M734.2,961.9c0.8,1.3,2,2.2,3.4,2.9c5.5-1,9.4-4.9,14.1-7.1c1.1-0.5,2.5-0.5,3.7-0.9c4.4-1.4,7.9-3.5,11.6-6.3
	c0.5-2.7,0.4-4.1-0.4-5.2c-2.2-3.1-8.4-0.2-10.3-3.4c-2.4-4,4.7-8.7-0.3-13.7c-0.6,0.4-1.4-0.3-1.9-0.2c-0.8,0.2-1.5,1.4-1.6,1.5
	c-1.7,0.6-3.3,0.5-4.7,1.4c-3,1.8-6,5.8-7.5,8.3c-0.6,0.9-1.4,1.9-2,2.9c-2.6,4.6-4.9,10.3-4.7,13.4c0,0.2-0.7,0.7-0.7,1
	c0,0.8,0.7,1.7,0.8,2.6C734.1,960.7,733.7,961.1,734.2,961.9z"/>
<path d="M796.1,1010c-0.3,0.5-0.9,0.3-1.2,0.8l-0.4-0.2c-2.4,3.4-5.4,5.7-9,6.5c-1.8,1.6-3.9,3.2-6.3,5.1c-0.9,0.8-2.1,1.3-3.1,2.1
	c-2.3,1.7-3.3,2.9-5,5.2c-0.7,0.9-1.4,1.5-1.9,2.2c-1.7,3-2.4,6.3-2.9,8.3c-0.3,1.2-1.5,2.3-0.7,3.6c2.2,0.4,4.5-0.2,6.8-0.4
	c0.5-0.1,1.2,0,1.8-0.1c0.5-0.1,1.1-0.6,1.6-0.6c0.4,0,1.4,0.5,2,0.5c2,0.1,2.4-0.6,4.1-1.2c2.5-0.9,3.1-1.3,5.4-3.3
	c1.1-0.9,2.2-2,3.1-3c2.2-2.5,3.3-5.2,4.3-7.7c0.5-1.2,1.6-2.4,2-3.5c1.5-3.8,2.1-8.2,2.4-12.1
	C797.9,1011.5,797.9,1010.4,796.1,1010z"/>
<path d="M335.3,473.6c0.3,1.9,0.3,4,0.6,5.7c0.3,1.6,1.2,3,1.7,4.7c0.2,0.8,0.3,1.8,0.6,2.6c0.6,2,0.5,5.5,1.2,8.3
	c0.5,2.2,1.5,4.4,2.2,6.7c1.9,6.3,2.2,14.5,7.7,18.1c3.7,0.1,6.5-0.4,9.9-1.2c1.2-0.3,2.5-0.7,3.1-0.6c2.3,0.5,3.7,3.3,4.8,5.7
	c1.1,2.4,1.8,5.6,2.2,8.3c-2.4,1.8-5.8,1.1-8.9,1.2c-1.5,0-3.1,0-4.7,0.1c-1.4,0.1-2.8,0.6-4.2,0.6c-4,0-7.9-1.3-11.5-1.3
	c-1.8,0-3.5,0.6-5.7,0.6c-3.4,0.1-8.2-0.9-11.5-0.8c-2.7,0.1-3,0.5-3.6,3.7c2.3,2.3,6.1,2.3,8.9,2.4c12.4,0.6,25.7-1.1,38.7-0.2
	c1.9,0.1,3.9,0.8,5.8,0.9c15,0.9,28.1-0.7,42.9-0.3c3.2,0.1,6.4,0.1,9.4,0.3c4.1,0.3,8.4,1.4,14.1,0.8c2.7-0.3,7-0.5,7.8-3.8
	c-3.1-2-7.5-0.6-11.5-0.8c-1.9-0.1-3.9-0.8-5.8-0.9c-4.3-0.3-7.8,0-12-0.3c-1-0.1-2.2-0.5-3.1-0.5c-2.7,0-5,0.8-7.3,0.7
	c-0.8-0.1-3-0.2-3.7-0.5c-2.6-1.1-3.6-4.4-4.8-6.7c-1.4-2.6-2.3-5.1-4.3-7.2c0.1-4.4-3.2-6.7-4.9-9.8c-0.5-1-0.6-2-1.1-3.1
	c-1-2-2-5-3.8-7.2c-0.3-0.4-0.7-0.5-1.1-1c-1.1-1.7-1.9-3.6-3.2-5.2c-5.9,0.3-11.1,1.3-16.2,2.4c-2.6-0.7-2.8-3.7-4.8-5.7
	c-1.4-1.4-2.9-5.3-4.3-7.8c-1.3-2.4-2.9-4.8-4.3-7.2c-1.4-2.5-2.5-4.9-3.8-7.2c-0.9-1.7-2.2-3.4-3.2-5.2c-1.1-1.8-1.7-4-2.7-5.2
	c-1.6-1.9-4.5-3.6-7.3-0.9C332,462.4,334.4,468.3,335.3,473.6z"/>
<path d="M621.3,1004.7c-1.1,0-2.3-0.1-3.3,0c-1.4,0.1-2.5,0.4-3.9,0.5c-1.3,0.1-2.6-0.2-3.8,0c-4.8,1-8.7,3.9-12.1,7
	c0,0.4-0.1,0.7-0.2,1.1c-6.7-11.4-12.8-21.4-13.6-22.8c-1.8-3.1-4.2-6.3-6.2-9.3c-4-6.2-7.9-12.4-11.2-19.2c0.7-2.8,3.7-2.4,6.1-2.6
	c2.2-0.2,4,0.3,6.3,0.5c5.2,0.3,10.7,3.2,14-1.9c0.4-2.4-1.2-4.4-2.1-6.3c-1.9-3.9-4.3-7.4-6.2-11.4c-1-2-1.6-3.7-2.6-5.5
	c-3.8-7.3-15.6-23-18.6-30.9c1.6-2.1,4.8-1.4,7.3-1.5c1.1-0.1,2,0.4,3.4,0.4c1,0,2.5-0.8,3.4-0.7c4.2,0.1,8.8,1.1,14.2,0.9
	c2.5-0.1,5-0.8,7.9-1c3.2-0.2,7,0.3,10.2,0c1.8-0.1,3.4-0.7,5-0.8c1.8-0.1,3.2,0.6,4.5,0.3c0.1,0,3.5-1.3,4.4-1.9
	c1.3-0.9,2.7-2.2,2-4.1c-2.8-2-5.6,0.1-8.5,0.5c-2.6,0.3-5.2-0.2-7.9-0.1c-0.8,0-1.8,0.7-2.8,0.7s-2.4-0.5-3.4-0.4
	c-3.3,0.3-6.7,1.1-10.1,1.1c-7.1,0.1-14.6-1-22.1-1.1c-8.3,0-15.7,0.8-23.7,1.3c-2.7,0.1-5.8-0.3-8.5-0.1c-2.8,0.2-5.4,1-7.9,1
	c-2.9,0-5.8-1.1-8.6-1.2c-3.4-0.1-6.6,0.6-10.2,0.6c-3-0.1-6.2-1.2-9.1-1.2c-2.2,0-4.7,0.8-6.7,0.9c-1.3,0.1-2.4-0.4-4-0.3
	c-1.3,0-2.9,0.8-3.9,0.8c-0.7,0-1.6-0.9-2.3-1c-2.4-0.4-5.8,0.2-8.5-0.1c-0.9-0.1-1.3-0.8-2.3-1c-2.9-0.5-6.1-0.3-9.1-0.6
	c-1.4-0.1-3.3-1.2-5.7,0.3c-1,4.9,2.5,5.7,6,6.5c2.3,0.5,4.8,0,8,0.7c0.5,0.1,1,1,1.7,1c1,0.1,1.8-0.7,2.8-0.7
	c2.5-0.1,6.3,1.8,9.7,1.2c0.6-0.1,1-0.6,1.1-0.6c2-0.3,4.8,0.2,7.9,0.1c3.9-0.1,8.2-1.2,11.9-0.6c2.9,0.5,4.5,2.9,7.1,4.7
	c0.8,0.6,1.9,0.6,2.3,1c1.7,1.6,2.8,3.9,4.3,5.4c0.9,0.9,2.2,1.3,2.9,2.1c0.8,0.8,1.1,1.9,1.9,2.7c1.1,1.2,2.4,2.3,3.6,3.8
	c0.3,0.4,7.5,10.2,7.9,10.6c1.5,1.7,4.2,2.3,4.8,4.8c-1,1.9-4,1.6-6.1,2c-6.1,1.1-19.4,0.3-22.7,4.9c-0.1,3,2.6,4.6,4.3,6.5
	c1.6,1.8,3.1,3.6,4.8,5.4c1.6,1.6,3.7,3,5.4,4.8c0.5,0.6,0.2,1.6,0.7,2.2c0.5,0.7,2.2,1.1,2.9,2.1c0.4,0.5,0.2,1.2,0.7,1.7
	c3.9,3.9,8.2,7.1,11.9,11.2c1.6,1.7,4,4.4,6,6.5c3.8,3.9,8.8,9.9,13.6,14.3c2.6,2.3,12.2,13.2,15.2,15.9c1.4,1.3,6.2,6.5,11.9,12.4
	c-0.6,2.9-1.2,5.9-2.1,8.9c-1.5,5.1-3.4,9.8-4.3,15.9c-0.4,2.6-0.6,5.3-0.9,7.8c-0.2,1.4-1,3-1.1,4.4c-0.1,1.5,0.5,2.4,0.1,3.3
	c-0.7,1.9-2.3,2.6-3.3,3.9c-0.5,0.2-0.9,0.7-1.2,1.1c0.2,2.1-0.4,4.3-0.6,6.4c-0.2,1.7-0.2,3.3-0.3,5.1c-0.1,2,0.1,4.2-0.1,6.1
	c-0.2,2.2-1.1,4.2-1.1,6.3c0,1.4,0.6,3.5,1.2,5c0.3,0.9,0.2,1.7,0.8,2.5c0.3,0.4,0.9,0.4,1.2,0.8c0.1,0.1,0.1,0.9,0.2,1
	c2.2,1.7,6.6,2.8,10,3.4c4.9,0.8,10.5-0.5,16.6-0.2c2.1,0.1,4.2,0.3,6.6,0.2c1.6-0.1,4,0.6,6.5,0.6c1.3,0,2.6,0,3.8,0
	c2.6,0,5.4-0.4,8.1-0.4c1.5,0,3.1,0.6,4.6,0.6c1.4,0,2.6-0.4,3.9-0.5c2.8-0.2,5.4-0.3,8.1-0.4c2.7-0.1,5.4,0.1,8,0
	c4.2-0.1,8.5-0.9,13-1.1c0.8,0,1.4,0.1,2.3,0.1c1.6,0,4.3-0.5,6.3-0.8c0.6-0.1,1.3-0.3,2-0.5c0.9-0.1,1.6,0.3,2.3,0.1
	c2.7-0.6,4.6-2.1,6.9-3.1c1.3-4.5,4-7.6,5.7-11.5c1.2,0,2.5,0,3.7,0.1c0.8-0.4,1.2-1,2.3-1.3c0.8-0.2,2.1,0.4,2.8,0.1
	c1.7-0.5,3.2-1.7,5.1-2.3c3.3-1,8.1-1.7,10.7-3.3c1-0.6,2.2-2.3,3.9-3.5c2.4-1.7,4.4-2.4,6-4.2c2.6-3.2,4.5-5.3,7-7.8
	c0.3-0.3,1.2-0.6,1.6-1c2.2-2.4,4-4.7,5.9-6.6c1.3-1.3,1.7-2.4,2.9-3.9c0.2-0.3,1.3-0.6,1.6-1c2.7-3.6,2.4-4.8,2.1-7.2
	c-0.2-1.1,0.6-2.4-1.1-2.8c-1.5-2.2-7.1,1.5-7.9-1.8c1.9-2.3,4.5-5.2,7.2-9.5c2.3-3.7,4.2-8,6.6-12.1c2.4-4.1,4.6-6.9,6.8-12.5
	c2.4-5.9,5-12.8,1.1-15.1c-2.6-1.6-5.5,0.1-8,1c-2.7,1-4.7,2.7-7.4,2.4c-1.6,0.6-2.9,2.2-5.2,1.1c0-3,2.7-6.4,3.9-9.8
	c0.4-1.1,0.4-2.8,0.8-4.3c1.3-5.4,3.6-11.1-0.5-13c-1.7-0.8-3.9,0.5-6.8,2.2c-0.9,0.5-1.9,1.7-2.7,2.2c-1.3,0.7-2.6,0.7-3.5,1.3
	c-1.2,0.8-2.5,2.6-3.2,3.2c-0.1,0.1-1-0.1-1.2,0.1c-0.3,0.1-0.2,0.8-0.4,1c-0.1,0.1-1-0.1-1.2,0.1c-0.9,0.6-1.8,1.6-2.7,2.2
	c0,0-0.6,0.2-0.7,0.3c-0.6,0.2-0.3,0.3-0.9,0.7c-2.2,1.5-5.3,1.8-7.5,2.4c-2.3,0.7-4.2,1.9-6.3,1.2c-1.8-6,0.1-11.3,2.1-18.7
	c0.8-3.1,1.7-6.6,2.7-9.8c1.7-5.3,6.2-15.7,1.9-18.2c-3.5-2-6.3,1.9-8.4,3.2c-0.6,0.4-1.6,0.5-2.1,0.8c-1.3,0.8-2.3,2.1-3.7,3
	c-0.6,0.4-1.6,0.5-2.1,0.8c-3.8,2.4-6.6,5.6-9.6,8.4c-2.3,2.2-5.2,6-7.8,5.7c-1.8-1.4-2.1-4.8-2.4-6.3c-0.3-1.6-0.6-3-0.9-4.4
	c-0.7-3.8-0.7-7.7-4.6-10.2c-4.4,1.4-8,5.1-11.7,9.2c-5.2,5.7-9.7,13.7-13.6,21.1c-1.3,2.5-2,6.7-5.1,7.5c-2.7-1.6-2.5-4.4-5.4-5.9
	c-2.3,0-3.3,1.6-4.8,3c-4,3.6-7.2,8.9-10,14.5C624.3,998.7,622.7,1001.8,621.3,1004.7z M589.4,1068c0.6-3,0.9-6.4,1.4-9.6
	c0.6-4,0.5-9,1.8-11.4c1.9-3.4,2.9-8.9,4.2-13.6c0.1-0.5,0.3-1,0.4-1.5c9,9.4,18.7,19,20,17.9c0.6-1.8-7.7-16.7-16.1-31.2
	c0.1-0.2,0.2-0.4,0.3-0.6c1.4-3,2.5-4.7,4.2-5.6c0.4-0.2,1,0.1,1.4-0.1c0.6-0.3,1.1-1.2,1.8-1.5s1.7-0.2,2.4-0.4
	c0.7-0.1,1.7-0.3,2.4-0.4c2.5-0.3,5.4-0.4,7.7-0.5c3.3-0.2,6.9-0.3,10.4-0.3c1.1,0,1.9,0.2,2.8,0.2c1.7-0.1,3.6,0,5.2-0.1
	c0.9-0.1,1.7-0.4,2.4-0.4c2.3,0.1,4.3,1,6.3,1.1c0.8,0,2-0.2,2.9-0.2c3.6-0.1,6.7-0.2,9.7-1c1.6,0.4,3.3,0.8,4.9,1.2
	c3.3-1.3,6.6-0.1,9.9,0c1.5,0.1,3.2-0.3,4.8-0.3c3.6,0,7,0.4,10.2,0.6c3.9,0.1,11.3-1.1,15.1,1.8c2.6,1.9,2.3,7.7,1.9,11.8
	c-0.4,3.2-1.6,6.2-2.4,9.8c-0.7,3.2-1,6.9-1.6,10.5c-1.2,8-2.9,16-4.6,21c-0.6,1.7-1.9,3.9-3,6.4c-0.5,1.1-0.7,2.3-1.3,3.4
	c-1.7,3.5-2.4,3.8-5,4.9c-3.6,1.6-8.1,1.9-11.1,3c-2.6-1.1-5,0-7.6,0.1c-0.7,0-1.5-0.5-2.2-0.5c-0.2,0-1.3,0.5-1.6,0.6
	c-1.3,0.1-2.9,0-4.2-0.1c-2.6-0.1-5.3-1.3-8.1-1.5c-3-0.2-7.6,0.6-10,0.4c-2.8-0.2-5.7-1.2-8.7-1.2c-1.5,0-2.9,0.7-4.4,0.8
	c-3.6,0.2-7-0.2-9.9,0c-1.6,0.1-3,0.8-4.4,0.8c-1.8,0.1-4-0.5-6-0.5c-3-0.1-6.4,0.4-8.6,0.3c-1.2-0.1-2.3-0.8-3.6-0.9
	c-2.4-0.2-4.6,0.4-6.1-0.1c-1.7-0.6-3.6-3.1-4.3-3.9c-0.3-0.4-1-0.4-1.2-0.8c-0.6-0.7-1.3-1.5-1.4-2.2
	C588.8,1072.7,589,1070.2,589.4,1068z M585.9,1082.7c0.8-0.4,0.8,0,1.3,0.3c2.8,1.7,5.3,3.5,9,3.6c2.9,0,6,0.3,9.3,0.4
	c5.3,0.1,12.6,0.6,16.9,0.3c3-0.2,6.1,0,9-0.2c1.6-0.1,2.8-0.3,4.3-0.4c3.1-0.1,6.1,0.2,9.3,0.4c3,0.1,6.2-0.3,9-0.2
	c3.3,0.2,6.5,1.7,9.5,1.8c2.1,0.1,4.1-0.5,6.4-1.3c6.5,1.1,11.8,0.1,16.7-0.7c1.6-0.3,3.4-1.3,4.8-0.3c1.5,5.7-2.7,6.8-6.5,7.4
	c-3.9,0.6-9.2,0.2-13.1-0.3c-3.3,2.1-7.2,0.7-11.4,0.5c-2.1-0.1-4.2,0.4-6.2,0.4c-6.3,0-13-0.3-18.8-0.3c-2.1,0-4.1,0.4-6.2,0.4
	c-2.4-0.1-4.6-0.8-6.9-0.7c-1.9,0-4,1-5.9,0.9c-2.8,0-5.5-1.1-8.2-1.1c-1.6,0-3.3,0.6-4.9,0.7c-1.8,0.1-4.1,0.2-5.7,0
	c-5.7-0.7-7.7-2.3-9.9-5.7C586.4,1086.8,585.1,1084.6,585.9,1082.7z M686.4,1101.8c-1,0.9-1.5,0.9-2.7,1.2c-1.9,0.6-4.4,0.6-6.3,0.8
	c-4.1,0.4-8.9,1.1-13.2,0.1c-2.7,1-5.4,1.9-9.6,0.5c-4.7,2.5-12.8-0.6-17.4,1.9c-3-1.8-5.9-0.7-8.3-0.6c-3,0.1-5.9,0-8.5-0.2
	c-1.7-0.1-3.3-0.7-5-0.7s-3.5,0.6-5.3,0.6c-1.5,0-3-0.6-4.6-0.6c-1.1,0-2.2,0.1-3.3,0.1c-3.1,0.2-6.7,0.2-10.7-0.7
	c-2.2-0.5-4.7-0.9-6.5-2.5c-0.9-2.1-1.6-4.4-0.5-7.7c2.2,0.4,3.4,2.8,5.3,3.6c1,0.4,3.2,0.9,4.9,1.2c3,0.6,5.3,0.5,7,0.3
	c2.1-0.2,3.3-0.1,4.8-0.3c0.7-0.1,1.8-0.4,2.4-0.4c2.1,0.1,4.2,1,6.3,1.1c0.8,0,1.7-0.3,2.4-0.3c1.5,0,2.9,0.1,3.8,0
	c4.8-0.9,10.3,0.4,15,0.3c2.7-0.1,5.7-0.5,7.7-0.5c3-0.1,5.4,0.1,8,0.1c1.8-0.1,3.6-0.6,5.3-0.6c3.4,0,6.8,1.5,10,1.5
	c2.6,0,5.2-1.4,7.9-1.4c1.7,0,3.5,0.7,5,0.7c2.8,0.1,5.2-1.1,7.6-0.1C687.9,1100.8,687,1101.2,686.4,1101.8z"/>
<path d="M153.4,273.2c-0.4,1.9,2.4,1.5,3.2,3c2.2,4.1,4.5,7.5,7.2,11.1c1.6,2,3.3,3.5,5,5.4c0.9,1,1.5,2.3,2.4,3.2
	c0.4,0.3,1.3,0.6,1.8,0.9c0.5,0.4,0.2,0.5,0.7,0.8c1.5,0.9,3.6,4.6,5.3,6.3c2.4,2.4,5.4,3.3,6.8,6.3c1.8,3.9,1,8.2,1.1,11.9
	c0.1,1.9,0,3.8,0.3,5.8c0.2,2,1.1,4.1,1.3,6c0.4,3.2,0.3,6.1,1.1,10.4c1,5.1,3,13.8,5.3,19.5c0.4,1.1,1.5,2.1,2,3.3
	c0.7,1.6,0.8,3.5,1.5,5c1.1,2.3,3.8,5.3,5.8,8.1c2.3,3.2,2.5,4.8-0.1,7.9c-1.7,0-3.5,0.9-5.5,1.2c-1.6,0.2-2.9-0.3-4.5-0.2
	c-1.2,0.2-2.6,1-4,1.2c-1.2,0.2-2.5-0.2-3.4,0c-3.1,0.9-7.1,3.5-8.1,5.8c-0.2,0.5,0.2,1.1-0.1,1.5c-0.8,1.4,0.4,4.5,0.9,8.1
	c1.2,1.4,3.4,0.9,5.3,1.4c2.1,0.5,4,1.5,6.8,1.4c1.5,0,3.4-0.1,5.3-0.1c2.5,0,5.3,0.2,7.3-0.2c0.8-0.2,2.3-1.1,3.4-1.5
	c3.4-1.2,5.1-2.3,7.6-4.2c1.4-1.1,3-2.2,4-3.1c1.5-1.6,2.4-3.8,3.7-5.5c0.3-0.4,0.5-0.3,0.8-0.7c0.5-0.9,2.4-3,3.7-4
	c1,1.5-0.4,3.3-1.1,4.7c-0.3,0.7-0.9,1.4-1.3,2.3c-0.8,1.9-2.1,4-3.6,6c-0.4,0.6-0.9,1.3-1.4,1.9c-1,1.2-1.8,1.9-2.9,3.3
	c-0.4,0.6-0.5,1.3-0.9,1.8c-1.1,1.2-2.6,1.7-3.5,3c-1,1.4-1.6,3.8-2.6,6.1c-1.6,4-3.8,9-0.2,15.7c1.2,2.2,1.9,1.9,3.6,3.8
	c0.2,3.3,1.6,6.9,3.3,9.3c2.4,0.6,5.5,1.4,8.1,1c2-0.3,6.3-1.7,9.6-3.8c0.8-0.5,1.6-1.8,2.6-2.7c4.5-4,10.2-8.3,15.4-12.4
	c0.6-0.5,1-1,1.5-1.4c1-0.7,3.4-2.2,4.4-3.3c0.1-0.2,0.1-0.9,0.2-1c0.2-0.2,0.8-0.1,0.9-0.3c2-2.6,2.2-7.1,3.6-9.4
	c1.5-2.6,5.1-4.6,5.9-6.6c0.5-1.4,0.2-5.5,0.1-7.9c-0.1-3-0.5-6-1.1-8.5c-0.2-1.8,1.3-2.8,1.6-4.4c0.2-0.7,0-2,0.1-3
	c0.3-2.1,0.1-5,1.3-7.2c1.8,2.5,4.5,4.9,6.7,7.8c0.4,0.5,0.2,1.3,0.5,1.8c0.6,0.9,3,3,4.3,4.6c1.1,1.4,1.2,2.5,2.5,5.1
	c0.6,1.2,2.5,3.7,3.7,5.8c1.5,2.6,3.2,5.3,4.8,7.9c0.8,1.2,1.8,2.4,2.5,3.6c0.9,1.4,1.4,2.9,2.2,4.2c2.7,4,5.2,6.4,7.8,11.4
	c0.5,0.9,0.4,2,0.8,2.7c0.4,0.6,1.1,1,1.4,1.5c0.5,0.8,0.7,1.8,1.3,2.6c0.4,0.6,1.1,0.9,1.4,1.5c0.9,1.4,1.3,3,2.2,4.2
	c0.9,1.1,2.7,2.1,3.9,3.2c0.5,0.4,0.2,0.5,0.7,0.8c0.8,0.5,1.9,1.8,3.2,2.5c1.3,0.7,2.7,1,4.3,1.2c2.6,0.4,5.8-0.9,7.8-3.3
	c0.6-0.7,1.7-3.1,1.5-4.8c-0.2-2-1.6-3.8-2.2-5.7c-0.4-1.3-0.4-2.9-0.7-4.2c-0.8-3-2.4-6-3.7-9.2c-1.1-2.8-2.3-5.9-3.6-8.7
	c-2.2-4.8-3.8-9.2-6.1-13.8c0,0.1-0.8,0-0.6-0.3c0.8-1.1-1.2-3.5-1.9-4.8c-1.1-2-2-3.6-3.1-5.4c-1.4-2.3-2.9-5.4-4.4-8
	c-0.5-0.9-1.3-1.5-1.7-2.4c-0.5-1.1-0.4-2.2-0.9-3.1c-0.7-1.3-2.2-2.2-3-3.5c-1-1.8-1.2-4-2.2-5.7c-0.9-1.5-2.8-2.7-3.7-4.3
	c-0.6-1-0.9-2.3-1.5-3.5c-0.7-1.3-1-2.4-2.2-4.2c-0.3-0.5-2.2-2-2.9-3.1c-0.8-1.3-1.1-3.1-1.8-4.4c-0.6-1.1-1.6-1.7-2.3-2.8
	c-1.5-2.3-2.7-4.3-4.4-6.5c-2.3-3.1-4.7-5.7-7.1-9.1c-0.7-1-1.2-2.4-2-3.3c-0.7-0.8-1.7-0.9-2.5-1.7c-1.2-1.2-2.1-3.2-3.4-4.9
	c-0.6-0.8-1.1-1.7-1.7-2.4c-1.2-1.4-2.9-2.7-4.2-4.1c-1.3-1.6-2.1-3.4-3.4-4.9c-1.1-1.2-2.6-2-3.9-3.2c-1.6-1.4-3.2-3-4.8-4.5
	c-1.7-1.6-4-4.1-6.2-6c-3.1-2.7-6.5-5.4-9.8-8.3c-0.3-0.3-0.5-0.9-0.8-1.2c-0.2-0.1-0.9,0-1-0.2c-0.5-0.4-1.1-1.5-1.6-2
	c-1.5-1.5-1.9-1.8-3.4-4.9c-1.7-3.4-3.2-8.7-5.2-12.6c-0.4-0.8-1.3-1.6-1.7-2.4c-1.1-2.4-1.4-5-2.5-6.6c-0.8-1.3-2.3-1.5-3.2-2.5
	c-1.1-1.3-6.4,0.6-7.7-0.1c-1.4-0.3-2.8,1.3-4.4,1.5c-3.2,0.4-7.4,0.6-12.7,1.8c-7.4,1.6-11.1,2-19.1,3.6
	c-4.5,0.9-11.4,2.1-15.7,4.7c-1.1,2.4-3.5,2.1-4.3,4.7C149.7,269.5,152.2,272.9,153.4,273.2z M218.2,425.6c-1.1,1.2-1.6,4.1-3.8,3.6
	c-1.4-3.8,0.2-7.2,1.1-9.6c0.4-1.2,0.5-2.4,1-3.2c0.9-1.4,2.6-2.2,3.8-3.6c0.6-0.6,0.8-1.7,1.3-2.3c0.3-0.4,0.9-0.5,1.2-0.8
	s0.3-0.8,0.6-1.2c2.2-2.9,4.1-5.8,6.4-8.2c0.2-3.6,2.4-6.7,3.3-10.3c0.5-2,0.8-4.1,1.1-6.2c0.1-1,0.4-2.1,0.5-3.1
	c0.1-1.1-0.9-2.9,1-3.2c0.3-0.1,0.6-0.2,0.9-0.3c1.5,2.5,1.6,6.5,2.5,10c0.2,0.7,0.7,0.8,0.8,1.2c0.6,1.7,1.4,6.8,1.4,7.9
	c0,0.4-0.6,1.3-0.8,2.2c-0.2,0.9,0,1.9-0.2,2.5c-0.1,0.2-0.7,0.5-0.8,0.7c-0.2,0.5,0.1,1,0,1.5c-0.9,2-1.8,3-3.1,4.4
	c-1.5,1.6-2.7,2.5-4.3,3.7c-2.5,1.8-3.9,3.5-5.4,5c-2.7,2.9-5.1,6.2-7.3,8.5C219,425.2,218.5,425.2,218.2,425.6z M243.1,429
	c-2.1,2-5,3.6-7.3,5.1c-0.1,0.1-0.4,1-0.6,1.2c-1.9,1.6-4.2,3.8-5.9,4.7c-3.5,1.7-7,2.3-8.9,1.2c-1.7-5,0.1-9.1,1.9-11.8
	c1.3-1.8,3.7-4.2,5.2-5.5c0.1-0.1,0.1-0.9,0.2-1c0.2-0.2,0.7-0.1,0.9-0.3c0.1-0.1,0-0.9,0.2-1c0.8-0.9,1.9-1.5,2.7-2.3
	c3.7-3.5,7.2-7.1,10.9-9.6c0.8-1.3,1.3-2.8,2.8-3.8c1.6,0.6,3.1,3.1,4,3.7c0.5,0.3,0.2,0.3,0.7,0.8c2,1.9,5.1,1.2,6.9,3.3
	C257,420,247.5,424.7,243.1,429z M264,370.9c-1.1,0.1-1.1-2.3-0.8-2.7c0.4-0.1,0.9-0.3,1.3-0.4C264.9,369.2,265.4,370.6,264,370.9z
	 M179.3,262.1c2.7-0.8,8.1-0.5,11-1.6s6.3-1.4,9.1-2.4c4.5-1.6,8-2.1,10.9-1.8c4.3,2.7,3.8,4.8,5.9,9.9c0.7,1.8,1.3,3.8,2.2,5.7
	c0.3,0.7,1.2,1.3,1.6,2c1,2,1.2,3.6,1.9,4.8c1.7,2.6,3.9,5.9,5.6,7.2c0.5,0.4,0.9,0.7,1.3,1.1c0.8,0.7,1.4,1.6,2.1,2.3
	c1.6,1.3,3.5,2.1,4.9,3.4c1.5,1.3,2.8,3.3,4.3,4.6c0.3,0.2,0.8,0.3,1.2,0.6c0.5,0.4,0.9,0.7,1.3,1.1c2.4,1.8,4.8,4.8,6.9,6.8
	c1.8,1.7,3.3,3,4.9,4.9c1.2,1.4,2.1,2.4,2.9,3.1c0.4,0.4,0.4,0.8,0.8,1.2c3.3,3.2,6.2,7.1,9.1,11c1.2,1.6,2.2,3.3,3.4,4.9
	c1.2,1.5,2.5,2.8,3.7,4.3c4.7,5.8,8.1,13.4,12.8,20.1c3.5,5,6.9,9.9,9.9,15.2c1,1.8,2.2,3.7,3.1,5.4c0.9,2,1.3,4.1,2.3,6.2
	c0.8,1.6,2,3.3,3,5c2,3.5,4.1,6.8,6,10.4c3.1,5.7,5.9,11.8,8,17.2c0.4,1.1,1.4,3,1.4,3c0.3,0.9,0.1,2.4,0.5,3.3
	c0.4,1,1.4,1.8,1.8,2.9c1,2.5,2.2,5.5,2.6,7c0.3,1-0.1,1.5,0.2,2.4c1,2.7,3.7,5.6,2.1,8.7c-3,1.3-5.3,0.1-7.2-1.3
	c-1.9-1.4-4-4-5.1-5.8c-0.4-0.6-0.3-1.6-0.7-2.2c-0.3-0.6-1.1-1-1.4-1.5c-0.8-1.3-1.4-2.5-2.1-3.8c-1.5-2.8-2.4-5.8-3.9-8.1
	c-1.4-2.1-3.7-3.9-5.3-6.2c-0.8-1.3-1.3-2.4-2.1-3.8c-0.7-1.2-1.8-2.4-2.6-3.6c-1.7-2.6-2.9-5.5-4.3-8c-0.7-1.2-1.8-2-2.4-3.2
	c-0.8-1.5-1-3.4-1.9-4.8c-1.2-1.8-3-3.3-4.4-5c-1.5-2-2.8-4.2-4.3-6.1c-2.9-3.8-6.8-6.7-8.3-11.7c1-2.1,6.2-1.9,5.4-5
	c-2.8-4-10.7,1.2-15.5,0.7c-2.4-4.3-0.7-10.9-2.6-16.8c-0.3-1-1.1-1.9-1.4-3c-1-4.1-0.9-8.1-2.3-11c-1.4-3.1-2.8-4.7-4.9-3.4
	c-2.4,1.4,0,4.9,1.1,8.5c1.3,4.3,2.3,10.4,2.7,13.9c0.2,1.8,0.3,3.5,0.6,5.2c0.4,2.6,1.1,5.3,1.4,7.9c0.1,1-0.4,1.7-0.2,2.5
	c0.4,1.7,1.6,3.7,2.2,5.7c0.7,2.6,1.4,5.6,2,8.2c0.6,2.7,1.2,5.4,0.8,7.6c0.5,0.9,1.5,0.9,1.7,2.4c0.2,5.4,1.2,11.2,0.4,16
	c-1.3,1.1-3.6,1.6-5.7,2.2c-2.6-1-5.2-2.7-6.9-5.3c-0.8-1.1-2.9-5.6-3.2-7.4c-0.4-2.2-2.1-6.3-2.7-9c-0.3-1.2,0-2.7-0.2-3.9
	c-0.6-3.2-2.8-7-3.1-8.8c-0.1-0.3,0.2-1.1-0.1-1.9c-1.1-3.3-2.7-5.5-4.2-7.5c-2.1-2.9-4.2-4.4-6.3-6.4c-2.7-2.6-4.1-4.8-6.3-7.9
	c-3.2-4.5-5.9-9.1-8.7-14.5c-0.3-3.3-1.2-5-4-5.2c-2.4,3.4-1.1,6.5,0.7,10.6c0.7,1.6,1.3,3.6,1.9,4.8c0.3,0.6,1,0.9,1.4,1.5
	c0.5,0.7,0.8,1.8,1.2,2.6c0.4,0.7,1.1,1.3,1.6,2c1.6,2.5,2.4,3.1,3.8,4.7c0.5,0.6,0.5,1.1,1,1.7c0.4,0.5,0.9,0.7,1.3,1.1
	c0.8,0.9,1.5,2,2.3,2.8c1.6,1.5,2.9,2.2,4,3.7c1.3,1.9,2.7,3.6,3.7,5.8c-4.5,3.6-11.9,0-14.1,5.2c0.6,2.9,3.5,1.4,4.5,3.6
	c-0.8,1.5-1.2,3.1-2.1,4.5c-1,1.5-2.5,2.5-3.7,4c-0.9,1.1-1.6,2.9-2.6,4.2c-0.3,0.4-0.9,0.5-1.2,0.9c-2,2.2-2.8,3.3-5.8,5.2
	c-1,0.6-2.7,1.6-3.8,2.1c-4.4,1.9-7.3,1.6-10.3,1.6c-0.8,0-1.5,0.2-2.4,0.2c-0.7,0-1.3-0.3-2.1-0.4c-3.8-0.3-7.1-0.2-7.6-2.6
	c-0.9-3.6,5.6-5.5,10.9-6.2c4-0.5,8,0.5,11.5-1c2.8-1.2,4.5-4,5.1-5.9s1-3.8,1.1-6.2c1.6-1.4,5.5-1.5,4.6-4.3
	c-0.8-2.8-4.2-0.6-5.6-2.3c-1.9-1.9-3.7,0.2-5.7-1.2c-2.1-5.3-5.3-9.6-6.8-14.6c-0.4-1.4-0.3-2.8-0.8-4.2c-0.5-1.5-1.4-2.8-1.8-4.3
	c-0.7-2.6-0.3-5.1-0.8-7.6c-0.2-0.8-0.9-1.4-1.1-2.1c-0.9-2.9,0.1-5.2-0.3-7.7c-0.2-1-0.8-2.2-0.9-3.1c-0.1-1.2,0.5-2.3,0.4-3.6
	c0-0.8-0.6-1.5-0.7-2.2c-0.1-0.6,0.4-1.4,0.4-2.1c0-2.7,0.5-5.7,0-8.3c-0.8-4.1-3.1-7.6-4.6-8.9c-1.3-1.1-2.2-2-3.3-2.9
	c-3-2.7-5.7-5.6-8.3-8.3c-1.5-1.5-2.8-2.7-4.2-4.1c-3.8-4.1-7.2-9.5-9.9-13.7c-0.1-0.2-0.6-1.1-1-1.7c-1.2-1.7-2.7-3.3-4-5.2
	C163.2,263.2,171.9,264.4,179.3,262.1z"/>
</svg>
