<?xml version="1.0" encoding="utf-8"?>
<!-- Generator: Adobe Illustrator 18.1.1, SVG Export Plug-In . SVG Version: 6.00 Build 0)  -->
<!DOCTYPE svg PUBLIC "-//W3C//DTD SVG 1.0//EN" "http://www.w3.org/TR/2001/REC-SVG-20010904/DTD/svg10.dtd">
<svg version="1.0" id="Layer_1" xmlns="http://www.w3.org/2000/svg" xmlns:xlink="http://www.w3.org/1999/xlink" x="0px" y="0px"
	 viewBox="0 0 146.8 53" enable-background="new 0 0 146.8 53" xml:space="preserve">
<g>
	<path fill="none" d="M37.5,11.5c0-0.2-0.1-0.4-0.2-0.7c-0.1-0.2-0.1-0.6-0.2-0.8c-0.1-0.2-0.4-0.6-0.6-0.7
		c-0.1-0.1-0.2-0.1-0.3-0.2c-0.1-0.1-0.2-0.3-0.4-0.5c-0.1-0.1-0.3-0.3-0.4-0.5c-0.2-0.3-0.3-0.6-0.5-0.9c-0.3-0.3-0.5-0.5-0.9-0.6
		c0,0,0-0.1-0.1-0.1c-0.5,0.1-1,0.5-1.6,0.7c-0.6,0.2-1.1,0.4-1.3,0.7c-0.3,0.3-0.5,1.1-0.6,1.5c-0.1,0.2-0.1,0.4-0.2,0.6
		c0,0.1-0.2,0.1-0.2,0.2c-0.1,0.1-0.1,0.3-0.2,0.4c-0.2,0.3-0.7,0.6-0.9,0.9c-0.1,0.1-0.1,0.2-0.2,0.3c0,0-0.1,0-0.2,0.1
		c0,0.1,0,0.2,0,0.2c0,0.1-0.2,0.2-0.2,0.2c-0.1,0.1-0.1,0.2-0.2,0.4c-0.1,0.5,0.1,0.8,0.1,1.3c0,0.1-0.1,0.4-0.1,0.6
		c0,0.2,0,0.5-0.1,0.6c-0.1,0.3-0.3,0.7-0.4,1c-0.1,0.2,0,0.6-0.1,0.9c-0.1,0.4-0.2,0.6-0.2,0.9c0.1,0.7,1.1,0.7,1.6,1.4
		c0.2,0.3,0.2,0.6,0.3,0.9c0.1,0.3,0.4,0.6,0.6,0.7c0.3,0.2,0.7,0.2,1,0.3c0.7-0.4,1.1-1.2,2-1.3c0.2,0,0.3,0.1,0.5,0.1
		c0.1,0,0.3-0.1,0.5-0.1c0.3,0,0.6,0.1,0.9-0.2c0.2-0.2,0.2-0.4,0.3-0.6c0.3-0.6,0.7-0.9,1-1.3c0.2-0.2,0.4-0.4,0.6-0.6
		c0,0,0.1,0,0.2-0.1c0.3-0.5,0.6-1.7,0.6-2.4c0-0.7-0.3-1.2-0.3-2C37.3,12.7,37.5,12.1,37.5,11.5z"/>
	<path fill="none" d="M52.1,36c-0.1-0.6,0-1.2,0.1-1.6c0.1-0.5,0.3-0.8,0.2-1.2c-0.3-0.5-1-0.5-1.3-0.2c-0.5,0.4-0.7,1.2-1,1.9
		c-0.1,0.2-0.2,0.3-0.2,0.5c-0.1,0.2-0.2,0.4-0.2,0.6c-0.2,0.5-0.5,0.9-0.7,1.3c-0.5,0.7-1.1,1.6-1.3,2.4c-0.1,0.5-0.1,1-0.2,1.5
		c0,0.2-0.2,0.4-0.2,0.6c0,0.3,0.1,0.4,0.2,0.6c1.1,0.2,2-0.6,3.1-0.6c0.5,0,0.9,0.2,1.4,0.2c0.7-0.7,0.1-1.2-0.1-1.8
		c-0.1-0.3-0.1-0.5-0.1-0.6c-0.1-0.7,0.5-1,0.6-1.5c0.1-0.3,0-0.7,0-1C52.3,36.7,52.1,36.4,52.1,36z"/>
	<path fill="none" d="M56,10.8c-0.1-0.2-0.4-0.7-0.6-0.8c0,0,0-0.1-0.1-0.2c-0.2-0.3-0.6-0.5-0.8-0.8c-0.1-0.2-0.2-0.6-0.3-0.8
		c0,0-0.1,0-0.2-0.1C54,8.1,54.1,8,54,8c-0.2-0.2-0.4-0.3-0.5-0.3c0,0,0-0.1-0.1-0.2c-0.2-0.1-0.5-0.2-0.6-0.2
		c-0.6-0.1-1.6,0.1-1.7,0.6C51,8,51.2,8.2,51.2,8.5c0.1,1-0.2,1.8-0.2,2.4c-0.3,0.2-0.3,0.6-0.4,0.9c0,0-0.1,0.1-0.2,0.2
		c-0.1,0.3-0.2,0.6-0.2,0.9c-0.1,0.6,0,1.1,0.1,1.6c0,0.5,0,0.9-0.1,1.3c0,0.4,0,0.9-0.2,1.3c-0.1,0.4-0.5,0.7-0.7,1.2
		c-0.1,0.2,0,0.3-0.1,0.6c-0.1,0.5-0.3,1.1,0,1.6c0.3,0,0.6,0,0.9-0.1c0.2-0.1,0.3-0.2,0.4-0.3c0.2-0.1,0.3-0.2,0.5-0.3
		c0.3-0.2,0.6-0.5,0.9-0.6c0.5-0.2,1.1-0.2,1.5-0.4c0.3-0.2,0.5-0.5,0.8-0.7c0.1-0.4,0.2-0.8,0.3-1.2c0.1-0.4,0.1-0.9,0.3-1.3
		c0.3-0.6,0.8-0.9,1-1.4c0.1-0.1,0.2-0.3,0.2-0.4c0-0.1,0-0.2,0-0.3c0.1-0.3,0.2-0.7,0.2-1c0-0.2-0.1-0.4-0.2-0.7
		C56.1,11.4,56.1,11,56,10.8z"/>
	<path fill="none" d="M89.6,40.6c-0.4-0.8-0.8-1.5-1-2.3c-0.3-1,0.1-2,0.2-2.7c0-0.2,0.1-0.4,0.1-0.6c0-0.6,0.1-1.3-0.3-1.8
		c-0.1,0-0.2,0-0.2,0c-0.2,0.2-0.2,0.5-0.4,0.8c-0.1,0.2-0.3,0.3-0.3,0.5c-0.1,0.3-0.1,0.7-0.2,0.9c-0.2,0.5-0.6,0.9-0.9,1.3
		c-0.1,0.1,0,0.2-0.1,0.2c-0.1,0.1-0.2,0.2-0.3,0.3c0,0.1,0,0.2-0.1,0.2c0,0-0.1,0.1-0.2,0.2c-0.3,0.8,0.1,1.8-0.2,2.6
		c-0.1,0.4-0.4,0.5-0.4,0.9C86.6,41.3,89,41.8,89.6,40.6z"/>
	<path fill="none" d="M95.6,15.3c0.6-0.1,1.1,0.1,1.7,0c0.2-1.1-0.5-2.1-0.5-3.2c0-0.5,0.2-0.9,0.3-1.3c0.1-0.4,0-0.8,0.2-1.2
		c-0.3-0.5-0.2-1.4-0.5-2c-0.1,0-0.2,0-0.2,0c0,0.3-0.2,0.3-0.3,0.5c0,0.1,0,0.3-0.1,0.5c0,0.2-0.1,0.3-0.2,0.5
		c-0.1,0.5,0,1-0.2,1.4c-0.1,0.2-0.4,0.5-0.5,0.6c-0.1,0.1,0,0.1-0.1,0.2c-0.2,0.3-0.4,0.5-0.6,0.8c-0.1,0.1,0,0.3-0.1,0.4
		c-0.1,0.3-0.3,0.7-0.4,1c-0.1,0.3,0,0.7-0.1,1.1c0,0.3-0.3,0.7-0.1,1.1C94.6,15.8,95.1,15.4,95.6,15.3z"/>
	<path fill="none" d="M103.5,45.6c0.4,0,0.5-0.3,0.8-0.6c0.6-0.5,1-0.9,2-0.9c0.3-0.3,0.9-0.6,1.1-0.9c0-0.1,0-0.2,0-0.2
		c0,0,0.1-0.1,0.2-0.2c0.2-0.8-0.1-1.9,0.4-2.9c0.1-0.2,0.2-0.2,0.3-0.4c0.4-0.5,0.4-1.2,0.4-1.8c-0.1-0.7-0.1-0.9-0.4-1.2
		c-0.2-0.2-0.4-0.4-0.6-0.6c-0.1-0.1,0-0.2-0.1-0.3c0-0.1-0.1-0.1-0.2-0.2c0-0.2,0-0.4,0-0.6c0-0.4,0-0.7,0-0.8c0-0.2,0.1-0.6,0-0.8
		c-0.2-0.4-1.7-1.4-2.2-0.9c-0.4,0.4,0.1,1.2,0.1,2c0,0.5-0.3,1-0.6,1.6c-0.1,0.2-0.1,0.5-0.2,0.6c0,0.1,0,0.1-0.1,0.2
		c-0.1,0.3-0.3,0.5-0.3,0.8c0,0.2,0.1,0.4,0.1,0.6c0,0.2-0.1,0.4-0.1,0.6c0,0.2,0.2,0.5,0.2,0.7c0,0.2,0,0.8-0.1,0.9
		c0,0.2-0.2,0.4-0.3,0.6c-0.1,0.2-0.2,0.4-0.3,0.6c-0.1,0.2-0.3,0.4-0.4,0.6c-0.3,0.5-0.3,0.8-0.4,1.5
		C102.7,44.4,102.7,45.6,103.5,45.6z"/>
	<path fill="none" d="M72.1,35.8c0.1-0.3,0.3-0.6,0.5-0.8c0.1-0.2,0.2-0.2,0.2-0.5c0-0.4-0.8-1-1-1.1c-0.3-0.1-0.7,0-0.9-0.2
		c-0.5-0.2-0.4-0.8-0.9-0.9c-0.7-0.2-1.6,0-2,0.4c-0.2,0.8-0.2,1.7-0.6,2.1c0,0.8-0.5,1.6-0.6,2.4c0,0.3-0.1,0.7,0.2,0.9
		c0.5,0.3,0.9-0.2,1.5-0.4c0.5-0.2,1.6-0.2,2-0.2c0.6,0.1,0.9-0.5,1.3-0.6C71.7,36.7,71.9,36.2,72.1,35.8z"/>
	<path d="M141.2,4.9c0,0,0.2,0,0.3,0c0.5,0.2,0.6,1,0.8,1.4c0.2,0.4,0.5,1,0.9,1.1c0,0,0.1,0.1,0.1,0.2c0.4,0.3,0.8,0.5,1.3,0.6
		c0.9,0.1,1.4-0.3,1.7-0.7c0.3-0.3,0.4-0.4,0.5-0.9c0-0.9-0.6-1.4-0.9-1.9c-0.2-0.2-0.3-0.3-0.4-0.6c-0.1-0.4-0.1-0.9-0.2-1.3
		c0-0.1-0.2-0.3-0.2-0.5c0-0.1,0-0.2-0.1-0.3c-0.2-0.5-0.6-0.9-0.9-1.1c0,0,0-0.1-0.1-0.2c-0.1-0.1-0.4-0.1-0.6-0.2
		c-0.2-0.1-0.4-0.2-0.6-0.2c-0.6-0.1-1.3-0.1-1.8-0.2c0,0-0.1,0-0.1,0c-0.2,0-0.7,0.1-1,0.2c-0.5,0.1-1.1,0.4-1.4,0.6
		c-0.1,0.1-0.4,0.2-0.5,0.2c-0.6,0.4-0.7,0.7-0.9,1.3c-0.1,0.2-0.2,0.4-0.2,0.6c-0.7,0.5-1.3,1.1-1.9,1.7c0.1,0.5-0.1,0.9-0.1,1.3
		c0,0.1,0.1,0.3,0.2,0.4c0.2,0.5,0.4,0.8,0.5,1.3c0,0.5-0.3,1.1-0.3,1.7c0,0.2,0.2,0.8,0.2,1c0,0.1,0.2,0.2,0.2,0.3
		c0.3,0.4,0.5,0.8,0.9,1c0.1,0.1,0.2,0.2,0.3,0.2c0.1,0.1,0.1,0.1,0.2,0.2c0.4,0.3,0.8,0.6,1,1.2c0.1,0.5,0,1,0.2,1.5
		c0.1,0.3,0.6,0.8,0.8,0.9c0.3,0.3,0.8,0.4,1.1,0.7c0.4,0.5,0.3,1.1,0.3,1.9c-0.3,0.2-0.4,0.6-0.8,0.8c-0.5,0.2-1,0.1-1.5-0.1
		c-0.3-0.5-0.5-1.1-0.9-1.3c-0.2-0.1-0.4-0.4-0.6-0.5c-0.2-0.2-0.4-0.2-0.7-0.3c-0.2-0.1-0.4-0.2-0.6-0.2c-0.2,0-0.4,0-0.7,0.1
		c-0.7,0.1-0.9,0.1-1.3,0.5c-0.2,0.2-0.4,0.4-0.5,0.6c-0.3,0.4-0.6,1-0.5,1.5c0.1,0.6,0.7,0.6,1,1.1c-0.1,0.5,0.2,0.8,0.4,1
		c0.3,0.4,0.5,0.7,0.9,1c0.3,0.3,0.7,0.6,0.9,0.6c0.5,0.2,1.5,0.3,2,0.2c0.3,0,0.7-0.3,1-0.3c0.3,0,0.7,0.2,1.1,0.3
		c0.4,0.1,0.8,0.3,1.2,0.2c0.4,0,0.7-0.2,1-0.4c0.4-0.2,0.7-0.4,0.9-0.6c0.3-0.2,0.5-0.8,0.6-1c0.2-0.4,0.2-0.7,0.4-0.9
		c0.1-0.1,0.1-0.2,0.2-0.2c0.3-0.3,0.6-0.6,0.8-0.9c0,0,0.1,0,0.2-0.1c0,0,0-0.1,0-0.2c0,0,0.1,0,0.2-0.1c0.4-0.7,0.6-1.8,0.3-2.6
		c-0.1-0.2-0.3-0.4-0.4-0.6c-0.1-0.1-0.1-0.2-0.2-0.3c-0.4-0.4-1-0.8-1.3-1.3c-0.3-0.7-0.2-2.2-0.6-2.8c-0.1-0.3-0.2-0.5-0.4-0.7
		c-0.1-0.1-0.2-0.4-0.3-0.5c-0.6-0.7-1.3-0.8-1.8-1.5c-0.1-0.1-0.2-0.6-0.3-0.6c-0.1-0.1-0.2-0.3-0.2-0.4c-0.1-0.4-0.1-1.8,0-2
		C140.2,5.3,141,4.7,141.2,4.9z"/>
	<path d="M88.8,15.1c-0.1,0.1-0.2,0.5-0.2,0.6c0,0-0.1,0.1-0.2,0.1c-0.2,0.3-0.2,0.7-0.4,1c-0.1,0.3-0.2,0.5-0.3,0.7
		c-0.1,0.4-0.1,0.8-0.2,1.3c0,0.2-0.2,0.4-0.2,0.6c-0.1,0.3-0.1,0.6-0.2,0.8c-0.1,0.2-0.3,0.5-0.5,0.7c-0.2,0.3-0.5,0.8-0.6,1.1
		c-0.1,0.6,0,1.2,0.1,1.8c0.1,0.2,0.4,0.5,0.6,0.6c0.6,0.2,2.2,0.1,3.1,0c0.4,0,0.7-0.4,0.9-0.6c0.1-0.1,0.3-0.2,0.4-0.2
		c0.4-0.4,0.5-1.1,0.2-1.8c0.1-0.4,0.6-0.6,0.9-0.9c0.1-0.2,0.1-0.5,0.2-0.6c0.1-0.2,0.2-0.3,0.4-0.5c0.9-0.6,1.5,0.2,2.7,0.2
		c0.5,0,0.9-0.4,1.5-0.2c0,1.7,0.1,2.8,0.5,3.9c0.3,0.2,0.7,0.5,1.1,0.6c1.3,0.1,3.6,0.1,3.8-0.9c0.1-0.6-0.6-1.1-0.6-1.7
		c0-0.1,0.1-0.5,0.2-0.7c0.1-0.5,0.3-0.9,0.4-1.3c0.4-1.3-0.1-2.8-0.4-3.9c-0.1-0.3-0.2-0.7-0.2-1c0-0.3-0.1-0.9-0.1-1
		c0-0.3,0.2-0.5,0.2-0.8c0-0.1,0-0.3,0.1-0.5c0.1-0.4,0-0.5,0-0.8c0-0.4,0-1-0.1-1.3c0-0.1-0.1-0.3-0.1-0.4
		c-0.1-0.2-0.3-0.3-0.4-0.5c-0.1-0.2-0.2-0.4-0.2-0.7c-0.1-0.7,0.1-1.1,0.2-1.4c0.2-0.4,0.4-0.5,0.6-0.8c0.4-0.5,0.3-1.2,0.2-1.8
		c0,0,0.1-0.1,0.1-0.2c0-0.2-0.3-0.5-0.2-0.6c0-0.3,0.2-0.4,0.2-0.8c-0.2-0.3-0.4-0.5-0.7-0.7c0-0.4-0.5-0.8-0.8-0.9
		c0,0,0-0.1-0.1-0.2c-0.1-0.1-0.4-0.1-0.5-0.2c0,0-0.1-0.1-0.2-0.2c-0.5-0.2-0.9-0.3-1.5-0.2c-0.4,0-1,0.4-1.5,0.4
		c-0.3,0-0.6-0.1-0.8-0.1c-0.4,0.1-0.9,0.4-1.3,0.7c-0.4,0.3-0.9,0.6-1.1,0.9c-0.1,0.1-0.1,0.3-0.2,0.5c0,0-0.1,0.1-0.2,0.2
		c-0.1,0.2-0.2,0.4-0.2,0.7c-0.2,0.8-0.3,1.6-0.5,2.3c-0.1,0.3-0.1,0.7-0.2,1C92.4,7.5,92,7.9,91.9,8c-0.1,0.1,0,0.2-0.1,0.2
		c-0.2,0.3-0.4,0.4-0.6,0.6c-0.2,0.3-0.4,0.6-0.6,0.9c-0.1,0.2-0.2,0.3-0.2,0.6c0,0.1-0.1,0.3-0.2,0.4c-0.1,0.3,0,0.6,0,0.9
		c0,0.3-0.2,0.6-0.2,0.9c-0.1,0.5-0.3,1-0.4,1.3c-0.1,0.1-0.1,0.3-0.2,0.4C89.4,14.7,89,14.8,88.8,15.1z M94.1,14.6
		c0.1-0.4,0-0.8,0.1-1.1c0.1-0.3,0.3-0.7,0.4-1c0-0.1,0-0.3,0.1-0.4c0.1-0.3,0.4-0.5,0.6-0.8c0.1-0.1,0-0.1,0.1-0.2
		c0.1-0.1,0.4-0.4,0.5-0.6c0.2-0.4,0.1-0.9,0.2-1.4c0-0.1,0.1-0.3,0.2-0.5c0-0.1,0-0.4,0.1-0.5c0.1-0.2,0.3-0.2,0.3-0.5
		c0.1,0,0.2,0,0.2,0c0.3,0.5,0.2,1.4,0.5,2c-0.2,0.4-0.1,0.8-0.2,1.2c-0.1,0.4-0.3,0.9-0.3,1.3c0,1.1,0.7,2.1,0.5,3.2
		c-0.6,0.1-1.1-0.1-1.7,0c-0.5,0.1-1,0.6-1.6,0.4C93.8,15.3,94.1,14.9,94.1,14.6z"/>
	<path d="M120.2,13.7c-0.2,0.5-0.4,1-0.7,1.4c-0.4,0.6-0.8,1.1-0.9,1.8c-0.1,0.6,0.2,1.3,0.1,2c-0.1,0.4-0.6,0.7-0.8,1
		c-0.1,0.2-0.2,0.4-0.3,0.6c-0.1,0.1-0.2,0.1-0.2,0.2c-0.1,0.2-0.2,0.5-0.2,0.8c0,0.4,0,0.8,0,1.4c0.3,0.5,0.6,1,1.3,1.1
		c0.2,0.1,0.3,0,0.5,0c0.2,0,0.5,0,0.7,0c0.4-0.1,0.8-0.3,1.2-0.3c0.2,0,0.7,0,0.9,0.1c0.1,0,0.2,0.1,0.4,0.2c0.4,0.1,0.7,0.1,1,0.2
		c0.2,0,0.3,0.1,0.5,0.2c0.1,0,0.3-0.1,0.4-0.1c0.5,0,0.9,0.1,1.4,0c0.4-0.2,0.8-0.4,1.1-0.5c0.1,0,0.4,0,0.5-0.1
		c0.6-0.2,0.8-0.7,1.5-0.6c0.4,0,0.4,0.1,0.6,0.2c0.2,0.1,0.4,0.2,0.6,0.2c0.4-0.1,0.8-1,0.9-1.7c0.1-0.7,0-1.5-0.2-2
		c-0.3-0.2-0.5-0.4-0.8-0.6c-0.7,0-1.2-0.3-2.1-0.1c-0.4,0.1-0.9,0.5-1.2,0.6c-0.5,0.2-0.8,0.1-1.1-0.1c-0.6-0.2-1.3-0.2-1.4-0.7
		c-0.1-0.4,0.2-0.7,0.3-1c0-0.3,0.3-0.6,0.4-1c0.1-0.6,0-1.3,0.4-1.7c0.9-0.3,1.5,0.2,2.3,0.2c1,0,1.8-0.6,3-0.4
		c0.5-0.5,1-0.9,1.1-1.6c0.1-0.5-0.1-1-0.2-1.2c-0.1-0.1-0.1-0.2-0.2-0.3c-0.3-0.4-0.5-0.6-0.9-0.8c-1.3-0.6-2.9,0.6-4.2-0.2
		c-0.1-0.5,0-0.8,0.1-1.2c0.1-0.8,0.2-1.6,0.4-2.2c0.1-0.2,0-0.4,0.1-0.6c0.1-0.4,0.6-0.6,1-0.6c0.2,0,0.4,0.2,0.7,0.3
		c0.3,0.1,0.7,0.1,1,0.1c0.4,0,0.9-0.5,1.4-0.5c0.2,0,0.4,0.1,0.6,0.2c0.7,0.2,1,0,1.3-0.4c0.2-0.2,0.3-0.4,0.5-0.7
		c0.1-0.2,0.3-0.5,0.3-0.6c0-0.1,0-0.2,0-0.3c0.1-0.4,0.3-0.6,0.2-0.9c0-0.3-0.2-0.6-0.5-1c-0.3-0.6-0.6-0.9-1.1-1.2
		c0,0-0.1-0.1-0.1-0.1c-0.4-0.4-1.2-0.2-2-0.2c-0.2,0-0.5,0-0.8,0.1c-0.2,0.1-0.4,0.2-0.6,0.2c-0.1,0-0.3-0.1-0.4-0.1
		c-0.2,0-0.3,0.1-0.5,0.1c-0.2,0-0.2-0.1-0.4-0.2c-0.5-0.2-1.1-0.2-1.6-0.2c-0.8,0-1.1,0.6-1.7,0.7c-0.4,0.1-0.8,0-1.1,0.1
		c-0.6,0.2-1,0.6-1,1.3c0,0.5,0.3,0.9,0.3,1.3c0,0.2,0,0.2-0.1,0.3c0,0.1,0,0.3-0.1,0.4c-0.1,0.5-0.3,0.9-0.5,1.3
		c-0.1,0.2-0.2,0.5-0.2,0.7c-0.1,0.8,0.3,1.7,0.1,2.5c0,0.1-0.2,0.3-0.3,0.5c-0.1,0.2-0.1,0.4-0.2,0.6c-0.2,0.4-0.5,0.6-0.6,0.9
		C119.7,12.3,120,12.9,120.2,13.7z"/>
	<path d="M105.8,6.7c0.9,0.2,2,0.1,2.8,0.4c0.3-0.1,0.9-0.4,1.1-0.2c0,0.8-0.9,1.2-0.9,2.2c0,0.5,0.3,0.9,0.4,1.4
		c0,0.4-0.1,0.7-0.1,0.9c0,0.6-0.2,0.8-0.3,1.2c-0.1,0.2-0.2,0.4-0.2,0.6c-0.1,0.2-0.1,0.2-0.2,0.4c0,0-0.1,0.1-0.2,0.2
		c-0.2,0.4-0.3,0.9-0.3,1.3c0,0.4,0.3,0.7,0.2,1.1c0,0.5-0.3,0.8-0.6,1.3c-0.1,0.2-0.1,0.5-0.2,0.7c-0.1,0.2-0.3,0.4-0.3,0.6
		c-0.2,0.9,0,1.9-0.1,2.8c0,0.2-0.2,0.3-0.2,0.6c-0.2,0.7,0.1,1.3,0.4,1.7c0.2,0.2,0.6,0.4,0.9,0.5c0.7,0.1,1.5-0.3,2.2-0.2
		c0.3-0.3,0.7-0.6,0.9-1c0.1-0.2,0.1-0.4,0.2-0.6c0,0,0.1-0.1,0.2-0.2c0.1-0.3,0.2-0.5,0.2-0.8c0-0.3-0.1-0.6-0.1-0.9
		c0-0.3,0.3-0.5,0.2-0.9c0.4-0.7,0.8-1.5,0.9-2.4c0.1-0.9-0.1-1.8,0-2.7c0-0.2,0.1-0.6,0.2-0.7c0.1-0.4,0.5-0.7,0.6-1
		c0.1-0.3,0.1-0.5,0.2-0.9c0-0.2,0.1-0.4,0.2-0.6c0-0.4,0-0.9,0-1.4c0-0.5,0.2-1.1,0.3-1.4c0.1-0.4,0.1-0.6,0.2-0.9
		c0.2-0.4,0.8-1,1.1-1c0.1,0,0.4,0.1,0.6,0.1c0.8,0.1,1-0.1,1.6-0.5c0,0,0.1,0,0.2,0c0,0,0-0.1,0.1-0.2c0,0,0.1,0,0.2,0
		c0,0,0.1-0.1,0.1-0.2c0.1-0.1,0.2-0.3,0.4-0.4c0.3-0.3,0.9-0.5,1.1-0.7c0,0,0.1-0.3,0.2-0.4c0.1-0.4,0.2-0.5,0.1-0.9
		c-0.1-0.2-0.1-0.3-0.2-0.4c-0.1-0.4-0.1-0.9-0.2-1c0,0,0-0.1-0.1-0.2c-0.1-0.1-0.2-0.1-0.3-0.2c-0.2-0.2-0.3-0.4-0.5-0.5
		c-0.1,0-0.2,0-0.2,0c0,0-0.1-0.1-0.2-0.2c-0.3-0.1-0.7,0.1-0.9-0.1c-0.4,0.4-1.1,0.2-1.5,0.3c-0.3,0.1-0.6,0.2-0.9,0.2
		c-0.2,0-0.5-0.2-0.8-0.2c-0.3-0.1-0.7,0-1-0.1c-0.2,0-0.4-0.2-0.6-0.2c-0.6-0.1-1,0-1.4,0.2c-0.2,0.1-0.4,0.1-0.6,0.2
		c-0.4,0.1-0.7,0.4-0.9,0.4c-0.4,0-0.8-0.3-1.3-0.4c-0.3,0-0.5,0.1-0.7,0.1c-0.3,0-0.4-0.2-0.7-0.2c-0.2,0.2-0.5,0.3-0.7,0.5
		c0,0,0,0.2-0.1,0.2c-0.2,0.2-0.3,0.3-0.4,0.6c-0.1,0.4,0.1,0.6,0.2,1.1c-0.2,0.5-0.7,1-0.7,1.7C105.4,5.9,105.6,6.3,105.8,6.7z"/>
	<path d="M69.9,17.5c0,0.2,0,0.6,0,0.8c0,0.2,0.2,0.3,0.2,0.5c0.1,0.7-0.2,1.4-0.4,1.7c-0.1,0.2-0.2,0.4-0.3,0.6
		c-0.1,0.1-0.2,0.1-0.2,0.2c-0.1,0.3-0.3,0.7-0.4,0.9c0,0.1-0.1,0.2-0.1,0.3c-0.3,1.1,0.2,1.5,0.9,2c0.7,0.5,1.2,0.6,2.2,0.5
		c0.4-0.1,0.7-0.1,0.9-0.2c0,0,0.1-0.1,0.2-0.2c0.1-0.1,0.2,0,0.3-0.1c0.6-0.4,1.1-1.2,1.4-1.9c0.1-0.3,0.3-0.6,0.3-0.8
		c0.1-0.5-0.2-1.2-0.1-1.9c0.1-0.3,0.5-0.9,0.6-1.1c0.1-0.2,0.2-0.4,0.3-0.5c0.2-0.2,0.9-0.4,1.2-0.4c0.3,0,0.5,0.2,0.8,0.4
		c0.3,0.2,0.8,0.4,1.1,0.4c0.6,0.1,0.8-0.3,1.2-0.2c-0.1,0.5-0.3,0.7-0.3,1.1c-0.1,0.5,0.1,1,0.1,1.3c-0.1,0.4-0.4,0.7-0.6,1
		c-0.2,0.4-0.4,0.8-0.3,1.3c0,0.3,0.4,0.8,0.7,1c0.2,0.2,0.9,0.4,1.4,0.4c0.3,0,0.8-0.1,0.9-0.2c0.1,0,0.3,0.1,0.3,0.1
		c0.2,0,0.4-0.1,0.6-0.2c0.3-0.1,0.6,0,0.7-0.1c0.4-0.2,0.6-0.7,0.9-0.9c0.2-0.6,0.4-1,0.6-1.6c0.2-0.8,0-1.5,0.1-2.4
		c0.1-0.8,0.4-1.2,0.6-1.8c0.1-0.2,0-0.4,0.1-0.6c0,0,0.1-0.2,0.2-0.2c0-0.1,0.1-0.2,0.1-0.3c0.3-1.3,0-2.8,0.3-4
		c0.1-0.2,0.2-0.5,0.3-0.7c0.2-0.4,0.3-0.8,0.5-1.1c0.1-0.2,0.2-0.4,0.3-0.5c0-0.1,0-0.2,0.1-0.2c0.2-0.3,0.3-0.6,0.4-0.9
		c0-0.1,0.1-0.2,0.2-0.2c0.1-0.4,0.2-0.6,0.3-0.9c0.2-0.6,0.3-1.1,0.4-1.8c0.1-0.9,0.2-1.6,0.2-2.4c0-0.4,0-0.9-0.1-1.2
		c0-0.1-0.2-0.3-0.2-0.4c-0.1-0.2-0.1-0.4-0.2-0.5c-0.2-0.2-0.8-0.4-1.3-0.4c-0.7,0-0.8,0.2-1.3,0.6c-0.4,0.3-0.6,0.5-0.9,0.9
		C85,2.8,84.8,2.9,84.8,3c-0.1,0.2,0,0.3-0.1,0.6c0,0.2-0.1,0.4-0.2,0.6c-0.1,0.9,0,1.7-0.2,2.5c-0.2,0.7-0.6,1.4-0.9,2.1
		c-0.3,0.6-0.5,1.3-0.8,1.9c-0.1,0.3-0.2,0.6-0.2,0.9c0,0.2-0.1,0.4-0.2,0.6c-0.1,0.4,0.1,0.9-0.4,1.2c-0.6-0.1-1,0.2-1.5,0.1
		c-0.3-0.1-0.5-0.3-0.7-0.4c-0.3-0.2-0.5-0.3-0.8-0.4c-0.7-0.1-1.2,0.2-1.8,0.2c-0.1-0.7,0.1-1.4,0-2.2c0-0.2-0.1-0.2-0.2-0.4
		c-0.1-0.1,0-0.3-0.1-0.5c-0.2-0.9,0.1-1.4,0.3-2c0.1-0.2,0.2-0.3,0.2-0.5c0.1-0.1,0.2-0.4,0.2-0.5c0.1-0.4,0.1-1.2,0.2-1.5
		c0-0.2,0-0.3,0-0.4c0-0.7,0.2-1.5-0.1-2C77.5,2.5,76.4,2,75.8,2c-1.2-0.1-1.6,0.4-2.1,0.7c-0.1,0.4-0.4,0.6-0.5,0.9
		c-0.2,0.6-0.1,1.2-0.2,1.8c-0.1,0.5-0.3,0.9-0.4,1.3c0,0-0.1,0.1-0.2,0.2c0,0.1,0,0.2,0,0.2c0,0-0.1,0.1-0.2,0.2
		c-0.3,0.7-0.6,1.4-0.5,2.1c0,0.3,0.1,0.8,0.1,1.2c0,0.6,0.2,1.2,0.1,1.8c0,0.2-0.2,0.4-0.3,0.6c-0.1,0.2-0.2,0.4-0.3,0.6
		c-0.2,0.4-0.5,0.7-0.7,1c-0.1,0.1,0,0.2-0.1,0.3c-0.1,0.2-0.2,0.4-0.2,0.6c0,0.1-0.1,0.2-0.2,0.2c-0.2,0.4-0.4,0.9-0.4,1.3
		C69.8,17.1,69.9,17.2,69.9,17.5z"/>
	<path d="M42.4,10.8C42.2,10.4,42,10,42,9.7c-0.2-0.9,0.2-1.8,0-2.8c0-0.1-0.1-0.2-0.2-0.2c0-0.1,0-0.3-0.1-0.4
		c-0.2-0.4-0.5-0.6-0.7-1c-0.2-0.2-0.4-0.2-0.6-0.3c-0.2-0.1-0.2-0.4-0.4-0.5c-0.1-0.1-0.2,0-0.3-0.1c-0.1,0-0.1-0.2-0.2-0.2
		c-0.2-0.1-0.5-0.1-0.7-0.2c-0.1-0.1-0.3-0.3-0.5-0.5C38.2,3.3,38,3.2,37.8,3c-0.5-0.5-0.9-0.9-1.7-1.1c-0.6-0.2-1.8-0.2-2.3-0.1
		c-0.3,0.1-0.7,0.2-1,0.4c-0.6,0.4-0.9,1.2-1.5,1.3c-0.4,0.1-0.9,0-1.3,0.2c-0.3,0.1-0.5,0.4-0.7,0.6c-0.2,0.3-0.2,0.7-0.6,0.9
		c-0.4,0.1-1,0.3-1.3,0.5c-0.8,0.6-1.4,1-1.6,2c0,0.3,0,0.6-0.1,0.8c-0.1,0.3-0.4,0.6-0.6,0.9c-0.2,0.3-0.4,0.6-0.6,0.9
		c-0.2,0.3-0.4,0.5-0.6,0.9c-0.1,0.2-0.3,0.5-0.3,0.6c-0.1,0.1-0.3,0.6-0.3,0.7c-0.2,0.9,0,2.1-0.2,3.1c-0.1,0.3-0.3,0.6-0.4,0.9
		c-0.3,0.6-0.4,1-0.5,1.7c-0.1,1,0.2,1.3,0.4,1.9c0.1,0.4,0.3,0.7,0.4,1.1c0.1,0.5,0,1.1,0.1,1.6c0,0.1,0.2,0.3,0.2,0.4
		c0.3,0.5,0.6,0.8,0.9,1.2c1.6,0.4,2.9,1,4,1.9c0.6,0,1.1,0.4,1.7,0.5c0.5,0,1.3-0.1,1.6-0.2c0.2-0.1,0.3-0.1,0.5-0.2
		c0.6-0.3,1.2-0.8,1.9-1c0.8-0.3,1.8-0.2,2.5-0.5c0.2-0.1,0.4-0.3,0.7-0.6c0.2-0.2,0.5-0.3,0.7-0.6c0.2-0.2,0.4-0.6,0.5-0.9
		c0.3-0.6,0.9-0.9,1.3-1.3c0.2-0.2,0.4-0.4,0.6-0.6c0.2-0.2,0.4-0.4,0.6-0.6c0.1-0.1,0.1-0.3,0.2-0.4c0.1-0.1,0.2-0.2,0.2-0.3
		c0.2-0.2,0.2-0.6,0.4-0.8c0-1.2-0.1-2.3,0.1-3.1c0.1-0.3,0.2-0.5,0.2-0.6c0.1-0.1,0-0.2,0.1-0.3c0.1-0.2,0.2-0.4,0.3-0.6
		c0.1-0.2,0.1-0.5,0.2-0.7c0-0.1,0.1-0.2,0.2-0.2c0-0.1,0-0.2,0.1-0.4c0-0.2,0-0.3,0-0.6c0-0.3,0.1-0.5,0.1-0.7
		C42.6,11.3,42.5,11,42.4,10.8z M37,17.6c0,0-0.1,0.1-0.2,0.1c-0.1,0.2-0.3,0.4-0.6,0.6c-0.4,0.3-0.7,0.7-1,1.3
		c-0.1,0.2-0.1,0.4-0.3,0.6c-0.3,0.3-0.6,0.1-0.9,0.2c-0.2,0-0.3,0.1-0.5,0.1c-0.2,0-0.3-0.1-0.5-0.1c-0.9,0.2-1.3,1-2,1.3
		c-0.3-0.2-0.7-0.1-1-0.3c-0.1-0.1-0.4-0.5-0.6-0.7c-0.2-0.3-0.1-0.7-0.3-0.9c-0.5-0.8-1.4-0.7-1.6-1.4c0-0.2,0.1-0.5,0.2-0.9
		c0-0.3,0-0.6,0.1-0.9c0.1-0.4,0.3-0.7,0.4-1c0-0.2,0.1-0.4,0.1-0.6c0-0.2,0.1-0.5,0.1-0.6c0-0.6-0.2-0.8-0.1-1.3
		c0-0.2,0.1-0.3,0.2-0.4c0-0.1,0.2-0.2,0.2-0.2c0-0.1,0-0.2,0-0.2c0,0,0.1,0,0.2-0.1c0.1-0.1,0.1-0.2,0.2-0.3
		c0.3-0.3,0.7-0.6,0.9-0.9c0.1-0.1,0.1-0.3,0.2-0.4c0.1-0.1,0.2-0.2,0.2-0.2c0.1-0.1,0.1-0.4,0.2-0.6c0.1-0.4,0.3-1.1,0.6-1.5
		c0.2-0.3,0.8-0.5,1.3-0.7c0.6-0.3,1.1-0.6,1.6-0.7c0.1,0,0.1,0.1,0.1,0.1c0.4,0,0.6,0.2,0.9,0.6c0.2,0.2,0.3,0.6,0.5,0.9
		c0.1,0.2,0.3,0.3,0.4,0.5c0.1,0.2,0.3,0.3,0.4,0.5c0.1,0.1,0.2,0.1,0.3,0.2c0.1,0.1,0.4,0.5,0.6,0.7c0.1,0.2,0.1,0.6,0.2,0.8
		c0.1,0.3,0.1,0.5,0.2,0.7c0,0.6-0.2,1.2-0.2,1.7c0,0.9,0.3,1.3,0.3,2C37.6,15.9,37.3,17.1,37,17.6z"/>
	<path d="M58.4,20.1c0.1-0.2,0.3-0.3,0.4-0.4c0.3-0.3,0.5-0.6,0.7-0.9c0.1-0.2,0.3-0.3,0.4-0.5c0.1-0.1,0-0.2,0.1-0.3
		c0-0.1,0.1-0.2,0.2-0.2c0.5-1,0.3-2.2,0.2-3.4c0.5-0.9,0.8-1.8,0.9-2.9c0-0.3,0.1-0.6,0.1-0.9c0-0.3-0.2-0.6-0.3-0.8
		c0-0.1,0-0.2-0.1-0.3C60.6,8.9,60,8.6,59.7,8c-0.2-0.4-0.3-1-0.3-1.5c-0.1-0.5,0-1.1-0.2-1.5c-0.3-0.6-1.5-1.2-2.2-1.5
		c-0.3-0.1-0.7-0.3-0.9-0.3c-0.5-0.1-1,0.1-1.4,0c-0.1,0-0.2-0.1-0.3-0.2C53.8,3,53.7,3,53.5,2.9c-0.1-0.1-0.3-0.1-0.4-0.2
		c-0.2-0.1-0.4-0.4-0.6-0.5c-0.1,0-0.4,0-0.6-0.1c-0.2-0.1-0.4-0.1-0.6-0.2c-0.9-0.2-1.5-0.2-2.2,0c-0.2,0-0.5,0.2-0.7,0.2
		c-0.3,0.1-0.6,0.1-0.8,0.2c-0.6,0.2-0.9,0.7-1.3,1.3c-0.3,0.5-0.3,0.9-0.4,1.5c-0.1,1,0,2,0.3,2.7c0.2,0.4,0.2,0.8,0.2,1.2
		c0,0.8-0.3,1.3-0.5,1.8c-0.3,0.7-0.5,1.2-0.7,2c-0.1,0.3-0.2,0.7-0.2,1c0,0.3,0.1,0.5,0.2,0.7c0.4,1.7-0.8,2.3-1.3,3.6
		c-0.1,0.2-0.1,0.7-0.2,1.1c0,0.4,0,0.8,0,1.1c0,0.6,0.2,1.1,0.2,1.7c-0.1,0.3-0.3,0.7-0.4,1c-0.1,0.4-0.3,0.9-0.2,1.3
		c0.1,0.4,0.8,0.8,1.2,0.9c0.4,0.2,1.1,0.3,1.7,0.3c0.5,0,0.7-0.1,1-0.2c0.4,0,0.8,0.1,1.2,0.1c0.5,0,0.9,0,1.3,0
		c0.5,0,1.5-0.2,1.8-0.3c0.5-0.2,0.9-0.5,1.3-0.9c0.4-0.3,0.7-0.6,1.1-0.7c0.4-0.1,1-0.2,1.3-0.2c0.4-0.1,0.4-0.2,0.6-0.3
		c0.1-0.1,0.3,0,0.4-0.1c0.2-0.1,0.4-0.4,0.6-0.6c0.3-0.3,0.6-0.5,0.7-0.7c0.3-0.4,0.5-0.9,0.6-1.3C58.3,20.4,58.3,20.2,58.4,20.1z
		 M56.1,13.5c0,0.1,0,0.2,0,0.3c0,0.1-0.2,0.2-0.2,0.4c-0.2,0.5-0.8,0.8-1,1.4c-0.2,0.4-0.2,0.8-0.3,1.3c-0.1,0.4-0.2,0.8-0.3,1.2
		c-0.3,0.2-0.5,0.5-0.8,0.7c-0.4,0.2-1,0.2-1.5,0.4c-0.3,0.1-0.7,0.4-0.9,0.6c-0.1,0.1-0.3,0.2-0.5,0.3c-0.1,0.1-0.2,0.3-0.4,0.3
		c-0.3,0.1-0.5,0.1-0.9,0.1c-0.3-0.5-0.1-1.1,0-1.6c0-0.2,0-0.4,0.1-0.6c0.2-0.5,0.6-0.8,0.7-1.2c0.1-0.4,0.1-0.9,0.2-1.3
		c0-0.5,0.1-0.9,0.1-1.3c0-0.5-0.2-1-0.1-1.6c0.1-0.4,0.1-0.6,0.2-0.9c0,0,0.1-0.1,0.2-0.2c0.1-0.3,0.1-0.7,0.4-0.9
		c0-0.7,0.3-1.5,0.2-2.4c0-0.3-0.2-0.5-0.1-0.7c0.2-0.5,1.2-0.6,1.7-0.6c0.1,0,0.5,0.1,0.6,0.2c0,0,0.1,0.1,0.1,0.2
		C53.7,7.7,53.9,7.8,54,8c0.1,0.1,0,0.2,0.1,0.2c0,0,0.1,0,0.2,0.1c0.1,0.2,0.2,0.6,0.3,0.8c0.2,0.3,0.5,0.5,0.8,0.8
		c0,0.1,0,0.1,0.1,0.2c0.1,0.1,0.5,0.6,0.6,0.8c0.1,0.2,0.1,0.6,0.2,0.9c0.1,0.3,0.2,0.5,0.2,0.7C56.3,12.8,56.2,13.1,56.1,13.5z"/>
	<path d="M2.4,22.7c0.4,0.3,0.7,0.6,1,0.9c0.1,0.3,0.2,0.7,0.3,0.8c0.1,0.1,0,0.1,0.1,0.2c0.1,0.1,0.7,0.5,0.9,0.6
		c0,0,0.1,0.1,0.2,0.2c0.3,0.2,0.4,0.1,0.7,0.2c0,0,0.1,0.1,0.2,0.2c0.2,0,0.5,0,0.7,0.1c1,0.1,1.7-0.1,2.5-0.3
		c1.1,0.6,2.5,0.8,3.6,0.5c0.2-0.1,0.5-0.1,0.6-0.2c0.3-0.1,0.5-0.4,0.8-0.6c0.3-0.2,0.6-0.4,0.9-0.6c0.5-0.2,1-0.4,1.3-0.6
		c0.1-0.1,0.2-0.2,0.3-0.2c0.6-0.4,1.3-1.1,1.5-1.6c0.3-0.7-0.1-1.7,0.2-2.4c0.1-0.4,0.5-0.7,0.7-1.1c0.1-0.2,0.1-0.4,0.2-0.6
		c0.3-0.7,0.3-1.3-0.2-1.8c-0.1-0.4-0.2-0.8-0.6-0.9c-0.5-0.2-0.9,0.2-1.4,0.2c-0.7-0.4-0.8-0.8-1.5-0.9c-0.6-0.1-1.1,0-1.4,0.2
		c-0.4,0.2-0.8,0.5-1.2,0.5c-0.3,0-0.5-0.2-0.7-0.3c-0.5-0.2-0.7-0.4-1.5-0.3c-0.4,0.2-0.6,0.5-0.8,0.9c-0.2,0.3-0.3,0.4-0.3,0.9
		c-0.1,0.8,0.1,1,0.4,1.4c0.2,0.4,0.5,0.6,0.7,0.9c0.2,0.4,0.6,0.7,0.9,0.7c0.7,0.1,1.2-0.5,2-0.4c0,0.6,0.1,1.2-0.1,1.7
		c-0.2,0.5-1.1,1.2-1.6,1.2c-0.3,0-0.6-0.3-0.9-0.4c-0.4-0.1-0.7-0.3-1.2-0.2c-0.5,0-0.8,0.3-1.2,0.3c-0.1,0-0.4,0-0.6-0.1
		c-0.2-0.1-0.3-0.3-0.6-0.6c-0.2-0.3-0.4-0.3-0.5-0.6C6.8,19.4,7.2,18.7,7,18c-0.1-0.3-0.4-0.7-0.6-0.9C6.3,17,6.3,17,6.2,16.8
		C6.1,16.5,6,16.2,6,15.8c0-0.5,0.5-0.8,0.7-1c0.5-0.5,1.2-1,1.3-1.7c0.1-0.4-0.1-0.7-0.1-1c0-0.3,0-0.7,0-1.2
		c0.2-0.4,0.6-0.6,0.9-0.9c0.4-0.1,0.9-0.3,1.2-0.5c0.2-0.1,0.5-0.3,0.6-0.5c0.1-0.2,0.1-0.5,0.2-0.7c0.2-0.6,0.3-0.9,0.8-1.2
		c0.2-0.1,0.6-0.2,0.8-0.2c0.4,0,0.7,0.4,1,0.6c0.3,0.2,0.8,0.5,1.2,0.5c0.6,0,0.7-0.4,1.5-0.2C16.5,8.4,16,9,16,9.6
		c0,0.3,0,0.7,0.1,1c0.1,0.2,0.5,0.6,0.9,0.8c0.8,0.4,2,0.5,2.8,0c0.2-0.4,0.4-0.6,0.6-0.9c0.2-0.3,0.5-0.6,0.6-0.9
		c0.1-0.4,0.1-1.4,0-1.8c0,0-0.1-0.1-0.2-0.2c0-0.1,0-0.2,0-0.3c-0.1-0.3-0.2-0.7-0.3-0.9c-0.4-0.7-1-0.9-1.7-1.3
		C18,4.9,17.8,4.4,17.4,4c-0.1-0.1-0.2,0-0.2-0.1c-0.1,0-0.1-0.2-0.2-0.2c-0.2-0.1-0.8-0.3-0.9-0.4c-0.3-0.1-0.5-0.1-0.8-0.2
		c0,0-0.1-0.1-0.1-0.2C15.1,3,15,3,15,3c-0.3-0.1-0.7-0.2-0.9-0.2c-0.5,0-0.8,0.4-1.3,0.5c-0.2,0-0.4-0.1-0.6-0.1
		c-0.1,0-0.2,0.1-0.2,0.1c-0.1,0-0.3-0.1-0.3-0.1c-0.7,0-1.5,0-1.9,0.1C9.4,3.3,8.7,3.7,8.5,3.9C8.2,4.1,8,4.4,7.9,4.6
		c0,0-0.1,0-0.2,0.1C7.5,5,7.4,5.5,7.3,5.8C7.1,6.3,6.9,6.3,6.5,6.6C6.3,6.8,6,7.1,5.8,7.2C5.5,7.4,5.3,7.7,5.1,7.8
		C5,7.9,4.8,8,4.7,8C4.5,8.2,4.4,8.5,4.3,8.7C4.1,8.9,3.9,9.1,3.9,9.2c-0.2,0.3-0.3,1-0.4,1.3c-0.1,0.6,0,0.9,0.1,1.4
		c-0.1,0.2-0.1,0.4-0.2,0.6c-0.1,0.1-0.3,0.2-0.4,0.4c0,0,0,0.1,0,0.2c0,0-0.1,0.1-0.2,0.1c-0.2,0.2-0.3,0.5-0.4,0.8
		C2.3,14,2.1,14.2,2,14.3C2,14.5,2,14.7,1.9,15c-0.2,0.6-0.5,0.8-0.5,1.6c0,0.3,0.1,0.3,0.2,0.4c0.1,0.5,0.2,1.1,0.2,1.7
		c0,0.3-0.3,0.6-0.3,0.9c-0.2,0.9,0,1.5,0.2,2.1C1.9,22,2.1,22.4,2.4,22.7z"/>
	<path d="M122.5,31.3c0.1-0.2,0.1-0.5,0.3-0.6c0.3,0,0.4,0.2,0.6,0.4c0.5,0.3,1.4,0.3,2,0.1c0.5-0.2,0.7-0.7,1.3-0.8
		c0.8-0.2,1.4,0.3,2,0.2c0,0,0.3-0.1,0.3-0.2c0.1,0,0.2,0,0.2-0.1c0.1-0.1,0-0.2,0.1-0.2c0.3-0.3,0.5-0.4,0.6-0.9
		c0.4-1.3-0.1-2.3-0.9-3.2c-0.5,0-0.7-0.2-1.2-0.2c-0.2,0-0.4,0.1-0.7,0.2c-0.3,0-0.6,0-0.9,0.1c-0.5,0.1-0.9,0.5-1.3,0.5
		c-0.4,0-0.9-0.3-1.3-0.4c-0.5-0.1-1-0.1-1.6-0.2c-0.6,0-1.3-0.1-1.9,0c-0.1,0-0.3,0.1-0.4,0.2c-0.6,0.1-1.1,0.1-1.7,0.2
		c-0.3,0.2-0.5,0.5-0.6,0.8c-0.1,0.1-0.2,0.1-0.2,0.2c0,0.1,0,0.4-0.1,0.6c-0.1,0.2-0.1,0.4-0.2,0.6c0,0.3,0.1,0.8,0.1,1.2
		c0,0.4,0.2,0.8,0.1,1.2c0,0.2-0.2,0.5-0.3,0.6c-0.2,0.3-0.4,0.6-0.5,0.9c-0.1,0.4-0.2,1.3-0.1,1.8c0.1,0.5,0.5,0.8,0.5,1.3
		c0,0.2-0.1,0.2-0.2,0.5c-0.1,0.2-0.1,0.3-0.2,0.5c-0.1,0.4-0.2,0.7-0.3,1c-0.1,0.1-0.2,0.3-0.2,0.4c-0.2,0.5-0.4,1.1-0.4,1.7
		c0,0.5,0.2,0.9,0.2,1.3c0,0.5-0.2,0.8-0.3,1c-0.1,0.2-0.1,0.4-0.2,0.6c-0.2,0.3-0.3,0.6-0.5,0.9c-0.4,0.7-0.8,1.3-0.9,1.9
		c0,0.4,0.2,0.9,0.2,1.3c-0.4,0.8-0.9,1.4-0.9,2c0,0.2,0,0.6,0.2,0.9c0.2,0.3,0.6,0.5,0.8,0.6c0.3,0.2,0.5,0.3,0.9,0.4
		c0,0,0.1,0.1,0.2,0.2c0.1,0,0.3,0,0.4,0.1c0.2,0.1,0.3,0.1,0.4,0.2c1,0.2,1.6,0,2.4-0.2c0.8-0.1,1.7-0.1,2.3,0.1
		c0.3,0.1,0.8,0.2,0.9,0.2c0.1,0,0.2-0.1,0.2-0.1c0.5,0,1.2,0.1,1.5-0.1c0.2-0.1,0.5-0.2,0.6-0.3c0.1-0.1,0.3-0.1,0.4-0.2
		c0.1-0.1,0.2-0.2,0.3-0.3c0.1-0.1,0.3-0.1,0.4-0.2c0.1-0.1,0.2-0.2,0.3-0.3c0.2-0.2,0.5-0.3,0.6-0.6c0.1-0.2,0.1-0.7,0.2-1
		c0-0.4,0.1-0.8,0-1c0.9-1.2-0.7-1.8-1.9-1.6c-0.1,0-0.6,0.2-0.6,0.2c-0.1,0.1-0.1,0-0.2,0.1c-0.4,0.2-0.9,0.6-1.3,0.6
		c-0.5,0-0.7-0.3-0.9-0.5c-0.1,0-0.2,0-0.3-0.1c-0.4-0.1-0.7-0.1-0.9-0.5c0.3-0.5,0.5-1.3,0.4-2c0-0.2-0.2-0.5-0.2-0.7
		c0-0.1,0.1-0.4,0.1-0.6c0.1-0.6,0.1-1.1,0.6-1.3c0.5-0.2,0.9,0.1,1.4,0.2c0.7,0.1,1.1,0,1.7-0.2c0.3-0.1,0.6-0.3,0.9-0.3
		c0.1,0,0.4,0.1,0.6,0.1c0.6,0.1,1.3,0.3,1.7,0.2c0.2,0,0.5-0.2,0.6-0.2c0.3-0.2,0.4-0.7,0.6-1.1c0.1-0.2,0.1-0.3,0.2-0.5
		c0-0.2-0.1-0.4-0.1-0.7c0-0.3,0-0.6,0-0.8c-0.1-0.5-0.7-1.3-0.9-1.4c-0.3-0.2-0.9-0.2-1.3-0.2c-0.8,0-1.5,0.5-2.2,0.4
		c-0.5,0-0.6-0.3-1.3-0.6c-0.3,0-1,0.1-1.3-0.2c0.3-1,0.3-2,0.6-3C121.8,32.1,122.3,31.6,122.5,31.3z"/>
	<path d="M73.4,51.1c0,0,0.1,0.1,0.2,0.1c0.4,0,0.7,0.2,0.9,0.2c0.3,0,0.6-0.1,0.9-0.2c0.3,0,0.7,0,1-0.1c0.7-0.1,1.3-0.3,1.9-0.3
		c0.3,0,0.8,0.2,1.1,0.2c0.2,0,0.6-0.1,0.9-0.2c0.3-0.1,0.8-0.1,0.9-0.2c0,0,0.1-0.1,0.1-0.2c0.1-0.1,0.2,0,0.2-0.1
		c0.2-0.2,0.3-0.5,0.4-0.7c0,0,0.1,0,0.2-0.1c0.4-0.6,0.5-1.3,0.8-1.9c0.2-0.4,0.2-0.6,0.5-0.9c0.6-0.5,1.4-0.3,2.3-0.2
		c0.6,0,1.1-0.1,1.3,0c0.2,0.1,0.3,0,0.5,0c0.4,0,0.9,0.1,1.1,0.2c0.2,0.4,0.4,0.7,0.4,1.1c0,0.7-0.4,1.2-0.3,1.9
		c0,0.1,0.4,0.6,0.5,0.7c0.2,0.2,0.6,0.3,0.9,0.4c0.3,0.1,0.7,0.2,1,0.2c1.3,0.2,1.4,0,2.1-0.6c0.4-0.3,0.8-0.6,0.9-0.9
		c0.1-0.2,0-0.5,0.1-0.7c0-0.2,0.2-0.5,0.2-0.7c0-0.2-0.1-0.4-0.1-0.6c0-0.5,0-0.8-0.1-1.1c-0.1-0.3-0.2-0.7-0.2-0.9
		c-0.1-1,0.2-1.8,0.2-2.6c0-0.3-0.1-0.6-0.2-0.9c-0.1-0.7-0.1-1.2-0.3-1.6c-0.2-0.5-0.4-1.1-0.6-1.5c-0.1-0.2,0-0.3-0.1-0.6
		c0-0.2-0.1-0.2-0.2-0.4c-0.1-0.8,0.2-1.4,0.3-1.9c0.1-0.2,0-0.5,0.1-0.7c0.1-0.2,0.2-0.4,0.2-0.6c0.2-0.7,0.1-1.7-0.1-2.4
		c-0.1-0.5-0.4-0.9-0.6-1.4c-0.2-1.1,0-2.4-0.2-3.1c-0.3-0.8-0.7-1.2-1.3-1.5c-0.5,0-0.9,0-1.4,0c-0.8,0.6-2.3,0.5-3.5,0.7
		c-0.5,0.5-1.2,0.8-1.4,1.3c-0.1,0.3-0.2,0.5-0.3,0.8c-0.1,0.3-0.3,0.7-0.4,1.1c-0.2,0.5-0.5,1.1-0.7,1.5c-0.1,0.2-0.1,0.4-0.2,0.6
		c0,0-0.1,0-0.2,0.1c-0.1,0.1,0,0.2-0.1,0.2c-0.2,0.3-0.6,0.6-0.7,0.9c0,0.1-0.1,0.1-0.2,0.2c-0.3,0.5-0.4,1.3-0.6,2
		c-0.1,0.2-0.1,0.3-0.2,0.5c-0.1,0.5,0,0.9-0.1,1.2c-0.1,0.5-0.4,1-0.6,1.5c-0.2,0.4-0.4,0.9-0.6,1.2c-0.2,0.2-0.4,0.4-0.6,0.6
		c-0.1,0.1-0.1,0.3-0.2,0.4c-0.1,0.1-0.2,0.2-0.3,0.3c-0.1,0.2-0.1,0.5-0.2,0.7c-0.1,0.2-0.2,0.5-0.2,0.7c0,0.4,0,0.8,0,1.2
		c0,0.5-0.3,1.5-0.5,1.7c0,0-0.1,0-0.2,0c0,0-0.1,0.1-0.1,0.2c-0.3,0.2-0.6,0.2-1,0.3c-0.5,0.1-1,0.3-1.5,0.2
		c-0.3,0-0.8-0.4-0.9-0.5c-0.1-0.1-0.2,0-0.2-0.1c-0.3-0.3-0.3-0.6-0.4-0.9c-0.2-0.5-0.3-0.6-0.7-0.9c-0.2-0.1-0.4-0.2-0.6-0.3
		c-0.1,0-0.2-0.1-0.2-0.2c-0.4-0.2-0.7-0.1-0.7-0.6c0-0.3,0.2-0.4,0.3-0.5c0.2-0.1,0.3-0.3,0.5-0.4c0,0,0.3,0,0.5,0
		c0.5-0.2,1.1-0.4,1.4-0.6c0.1,0,0.2,0,0.2-0.1c0.2-0.2,0.4-0.6,0.6-0.8c0.1-0.1,0.1-0.1,0.2-0.2c0.2-0.3,0.2-0.4,0.3-0.7
		c0-0.1,0.2-0.2,0.2-0.3c0.1-0.2,0.2-0.6,0.3-0.8c0.2-0.3,0.6-0.4,0.8-0.6c0.2-0.2,0.5-0.5,0.6-0.7c0.3-0.5,0.4-2,0.2-2.6
		c-0.2-0.7-0.9-1.2-1.1-2c-0.1-0.4,0-1.2,0-1.5c0.1-0.8,0.1-0.9-0.2-1.5c-0.4-0.7-0.7-1-1.3-1.5c-0.4-0.3-0.8-0.6-1-0.7
		c-0.4-0.2-1.3-0.1-2-0.3c-0.2-0.1-0.4-0.2-0.6-0.3c-0.2-0.1-0.4-0.1-0.6-0.2c0,0-0.1-0.1-0.2-0.2c-0.1,0-0.3,0-0.4,0
		c0,0-0.2-0.2-0.2-0.2c-0.4-0.1-1.1-0.1-1.3-0.1c-0.5,0-1,0.3-1.5,0.3c-0.6,0.1-1.3,0-1.7,0.2c-0.1,0-0.3,0.2-0.5,0.3
		c-0.6,0.3-0.8,0.5-1.2,0.9c-0.1,0.1-0.2,0.2-0.3,0.4c-0.1,0.1-0.1,0.4-0.2,0.5c0,0.4,0,0.8,0,1.2c-0.4,0.5-1.3,1-1.4,1.7
		c-0.1,0.7,0.1,1.1,0.2,1.5c0.1,0.5,0.2,1,0.4,1.4c-0.3,0.5-0.8,1-1,1.4c-0.3,0.5-0.7,0.9-0.7,1.4c-0.1,1.1,0,1.9-0.2,2.7
		c-0.2,0.9-0.6,1.5-0.9,2c-0.4,0.8-0.4,1.6-0.6,2.4c0.4,0.7,0.3,1.5,0.1,2c0,0.1,0,0.2-0.1,0.3c-0.3,0.5-0.9,0.9-0.9,1.6
		c0,0.3,0,0.8,0.1,1.1c0,0.1,0.2,0.2,0.3,0.4c0.1,0.1,0.2,0.4,0.3,0.5c0,0,0.1,0,0.2,0c0,0,0,0.1,0.1,0.2c0.4,0.3,1.3,0.4,2,0.4
		c0.6,0,1.8,0,2.1-0.2c0.3-0.1,0.7-0.7,0.7-1c0-0.3-0.1-0.5-0.2-0.7c-0.1-0.2-0.3-0.3-0.2-0.6c0-0.3,0.3-0.4,0.4-0.6
		C64,48.1,64,48,64,48c0.1-0.1,0.2-0.2,0.3-0.3c0.2-0.3,0.5-1.2,0.5-1.6c0-0.1-0.1-0.3-0.2-0.4c-0.2-0.6-0.2-0.8-0.2-1.5
		c0.2-0.2,0.3-0.6,0.5-0.7c0.3-0.1,0.7-0.2,1.1-0.2c0.1,0.2,0.2,0.2,0.2,0.4c0.1,0.2,0,0.5,0,0.6c0.1,0.3,0.3,0.6,0.3,0.7
		c0.1,0.1,0,0.2,0.1,0.3c0.2,0.3,0.6,0.5,0.8,0.6c0.3,0.2,0.3,0.2,0.4,0.6c0.1,0.4,0,0.4,0,0.7c0,0.1,0.1,0.2,0.1,0.2
		c0,0.4,0,0.9,0.1,1.2c0,0.1,0.2,0.2,0.2,0.4c0.1,0.2,0.1,0.3,0.2,0.5c0.2,0.4,0.9,0.8,1.3,1c0.2,0.1,0.4,0.2,0.7,0.3
		c0.6,0.2,1.4,0.4,1.9,0.5C72.7,51.2,73,51.1,73.4,51.1z M85.8,40.2c0.2-0.8-0.1-1.8,0.2-2.6c0-0.1,0.1-0.1,0.2-0.2
		c0-0.1,0-0.2,0.1-0.2c0.1-0.1,0.2-0.2,0.3-0.3c0.1-0.1,0-0.2,0.1-0.2c0.2-0.3,0.7-0.8,0.9-1.3c0.1-0.3,0.1-0.6,0.2-0.9
		c0.1-0.1,0.2-0.3,0.3-0.5c0.2-0.3,0.2-0.5,0.4-0.8c0.1,0,0.2,0,0.2,0c0.4,0.5,0.4,1.2,0.3,1.8c0,0.2,0,0.4-0.1,0.6
		c-0.1,0.7-0.5,1.7-0.2,2.7c0.3,0.8,0.7,1.5,1,2.3c-0.6,1.2-3.1,0.7-4.3,0.6C85.4,40.8,85.7,40.6,85.8,40.2z M70.3,37.6
		c-0.4,0-1.5,0-2,0.2c-0.6,0.2-1,0.7-1.5,0.4c-0.2-0.3-0.2-0.7-0.2-0.9c0-0.8,0.6-1.5,0.6-2.4c0.5-0.5,0.5-1.4,0.6-2.1
		c0.3-0.4,1.3-0.6,2-0.4c0.5,0.1,0.5,0.6,0.9,0.9c0.3,0.1,0.7,0,0.9,0.2c0.3,0.1,1,0.7,1,1.1c0,0.2-0.1,0.3-0.2,0.5
		c-0.2,0.2-0.3,0.4-0.5,0.8c-0.2,0.4-0.3,0.9-0.5,1.3C71.2,37.2,70.9,37.7,70.3,37.6z"/>
	<path d="M137.3,30.2c0.4,0.1,0.5,0.6,0.8,1c0.1,0.2,0.2,0.4,0.3,0.6c0.1,0.2,0.1,0.5,0.2,0.7c0.1,0.2,0.5,0.5,0.7,0.6
		c0.5,0.3,0.9,0.4,1.4,0.3c0.3-0.1,0.6-0.1,0.6-0.2c0.1-0.1,0.1,0,0.2-0.1c0.5-0.3,0.7-0.6,0.9-1.1c0.2-0.5,0.3-1,0.2-1.7
		c-0.3-0.7-1.1-1.3-1.8-2c-0.3-0.3-0.7-0.6-1-0.9c-0.1-0.1-0.2-0.2-0.2-0.2c-0.1-0.1-0.2-0.1-0.3-0.2c-0.2-0.1-0.4-0.3-0.6-0.4
		c-0.2-0.1-0.6,0-0.9-0.1c-0.3-0.1-0.5-0.2-0.8-0.2c-0.5-0.1-1.2-0.1-1.7,0c-0.1,0-0.2,0.1-0.2,0.2c-0.2,0.1-0.5,0.1-0.8,0.2
		c-0.1,0-0.1,0.2-0.2,0.2c-0.5,0.3-1.1,0.8-1.4,1.2c-0.4,0.5-0.5,1.1-0.4,1.7c-0.2,0.2-0.4,0.6-0.6,1c-0.2,0.3-0.4,0.7-0.5,1.1
		c-0.1,0.6,0.2,1,0.2,1.6c0.3,0.2,0.4,0.5,0.6,0.7c0.2,0.2,0.5,0.5,0.6,0.8c0.4,0.9,0.1,2.3,0.6,3.4c0.3,0.5,0.8,0.9,1.2,1.3
		c0.5,0.5,1,0.9,1.3,1.3c0.2,0.3,0.3,0.5,0.4,0.9c0.1,0.3,0.3,0.7,0.2,1c-0.1,0.5-0.8,0.7-1,1.2c-0.1,0.3-0.1,0.5-0.1,0.7
		c0,0.2,0,0.4-0.1,0.7c-0.3,0.2-0.6,0.5-0.9,0.5c-0.1,0-0.6-0.3-0.7-0.3c0,0-0.1-0.1-0.1-0.2c-0.5-0.4-0.4-1.1-0.6-1.7
		c0,0-0.1-0.1-0.1-0.2c-0.5-0.7-1.2-1.3-2-1.5c-1.2-0.2-1.3,0.3-2.4,0.6c-0.2,0.8-0.6,0.9-0.6,1.6c0,0.9,0.5,1,0.8,1.7
		c0.1,0.2,0,0.3,0.1,0.5c0,0.1,0.2,0.3,0.2,0.4c0.1,0.2,0,0.4,0.1,0.6c0,0,0.1,0.1,0.2,0.2c0.1,0.1,0,0.2,0.1,0.3
		c0.1,0.2,0.4,0.4,0.6,0.6c0.4,0.3,0.7,0.6,1,0.9c0.2,0.1,0.4,0.3,0.6,0.4c0.2,0.1,0.4,0.3,0.6,0.4c0.1,0,0.3,0.1,0.3,0.1
		c0.3,0.1,0.7,0.2,1.1,0.2c0.4,0,1-0.1,1.5-0.2c0.5-0.1,1.3-0.3,1.6-0.5c0.5-0.3,1.1-0.6,1.4-0.9c0-0.1,0-0.2,0.1-0.2
		c0.4-0.4,0.9-0.8,1.3-1c0.1-0.1,0.2,0,0.3-0.1c0.3-0.2,0.5-0.7,0.8-0.9c0.3-0.2,0.7-0.2,1-0.5c0.2-0.1,0.4-0.5,0.5-0.6
		c0,0,0.1,0,0.2-0.1c0-0.1,0-0.2,0-0.2c0,0,0.1-0.1,0.2-0.2c0.1-0.2,0-0.4,0.1-0.6c0.1-0.4,0.2-0.7,0.2-1c0,0-0.1-0.1-0.1-0.2
		c0,0,0-0.6,0-0.8c0-0.2-0.2-0.5-0.3-0.7c-0.2-0.7-0.4-1.4-0.6-2c0-0.1-0.1-0.3-0.2-0.4c-0.1-0.3-0.1-0.6-0.2-0.9
		c-0.2-0.6-0.6-1.2-1-1.6c-0.2-0.2-0.4-0.2-0.6-0.2c0,0-0.1-0.1-0.2-0.2c-0.5-0.2-0.9-0.1-1.2-0.5c-0.1-1.2-0.1-2.3-0.6-3.1
		c-0.2-0.4-0.6-0.5-0.7-0.9c-0.4-0.2-0.7-0.3-0.9-0.7c-0.1-0.3-0.1-0.9,0.1-1.2C136.5,30.4,137.1,30.2,137.3,30.2z"/>
	<path d="M101.6,27.5c-0.1,0.1-0.1,0.2-0.2,0.4c-0.1,0.1-0.3,0.2-0.3,0.3c-0.1,0.1,0,0.2-0.1,0.3c-0.1,0.2-0.2,0.4-0.2,0.5
		c-0.1,0.2-0.2,0.4-0.2,0.6c-0.1,0.3-0.2,0.7-0.2,1c-0.1,0.6,0,1.1,0,1.7c0,0.6-0.2,1.1-0.3,1.4c-0.1,0.3-0.2,0.7-0.3,0.9
		c0,0-0.1,0-0.2,0.1c-0.2,0.3-0.2,0.7-0.3,0.9c0,0-0.1,0-0.2,0.1c-0.1,0.2-0.1,0.4-0.2,0.6c-0.2,0.3-0.4,0.7-0.5,0.9
		c-0.1,0.7,0.2,1.4-0.2,1.8c0.5,0.9,0.4,1.8,0.2,2.4c-0.1,0.3-0.2,0.6-0.2,0.7c-0.1,0.2-0.3,0.5-0.5,0.7c-0.2,0.3-0.5,0.4-0.6,0.7
		c-0.1,0.3-0.1,0.7-0.2,1c-0.1,0.9,0.2,1.7,0.1,2.4c0,0.2-0.3,0.5-0.4,0.7c-0.2,0.5-0.3,0.8-0.2,1.3c0.1,0.4,0.1,0.6,0.2,0.9
		c0.1,0.2,0.1,0.4,0.2,0.5c0.3,0.4,1,0.5,1.6,0.8c0.3,0,0.4-0.1,0.7-0.2c0.3,0,0.5,0.1,0.8,0.1c0.4,0,0.8-0.2,1.1-0.2
		c0.4-0.1,0.8-0.1,1.1-0.3c0.6,0.1,1.2-0.2,1.8-0.2c0.4,0,0.8,0,1.3,0c0.3,0,0.7-0.3,1-0.2c0.2-0.2,0.4-0.4,0.9-0.4
		c0.2-0.3,0.5-0.3,0.8-0.6c0.2-0.2,0.4-0.6,0.6-0.9c0.1-0.1,0.1-0.3,0.2-0.5c0,0,0.1-0.1,0.1-0.1c0.1-0.1,0.1-0.2,0.2-0.2
		c0.2-0.2,0.4-0.4,0.6-0.6c0.2-0.2,0.3-0.4,0.6-0.6c0.1-0.4,0.7-0.7,1-1.1c0.1-0.1,0.1-0.4,0.2-0.6c0.2-0.4,0.3-0.6,0.5-1.1
		c0.1-0.2,0.1-0.4,0.2-0.6c0.1-0.4,0.2-0.9,0.3-1.3c0.1-0.3,0.3-0.6,0.5-0.8c0.4-0.7,0.8-1.3,1-2c0.1-0.4,0-1.1,0-1.3
		c0-0.3,0-0.8-0.1-1c-0.1-0.3-0.3-0.5-0.4-0.8c-0.1-0.3-0.2-0.6-0.3-0.9c-0.2-0.6-0.2-1.2-0.3-1.7c0-0.1-0.1-0.2-0.2-0.3
		c0-0.2,0-0.3-0.1-0.5c-0.2-0.8-0.3-0.9-0.7-1.4c-0.2-0.3-0.4-0.6-0.6-0.7c-0.3-0.2-0.5-0.3-0.9-0.5c-0.2-0.1-0.5-0.2-0.7-0.3
		c-0.4-0.2-0.7-0.6-0.9-0.9c-0.3-0.5-0.5-0.9-0.9-1.1c0,0,0-0.1-0.1-0.2c-0.2-0.1-0.7-0.2-1.1-0.3c0,0-0.1-0.1-0.2-0.2
		c-0.1,0-0.3,0-0.4,0c-0.2,0-0.4-0.1-0.6-0.2c-0.2,0-0.5,0.1-0.7,0.1c-0.3,0-0.5-0.1-0.7-0.1c-0.3,0-0.7,0.3-1,0.3
		c-0.3,0-0.5,0-0.8,0C102,27.1,101.7,27.3,101.6,27.5z M102.8,43.5c0.1-0.7,0.1-1,0.4-1.5c0.1-0.2,0.3-0.4,0.4-0.6
		c0.1-0.2,0.2-0.4,0.3-0.6c0.1-0.2,0.3-0.4,0.3-0.6c0.1-0.2,0.1-0.7,0.1-0.9c0-0.2-0.1-0.5-0.2-0.7c0-0.2,0.1-0.4,0.1-0.6
		c0-0.2-0.1-0.4-0.1-0.6c0-0.2,0.2-0.5,0.3-0.8c0-0.1,0.1-0.2,0.1-0.2c0.1-0.1,0.1-0.4,0.2-0.6c0.2-0.6,0.5-1.1,0.6-1.6
		c0-0.8-0.5-1.5-0.1-2c0.5-0.5,2,0.5,2.2,0.9c0.1,0.2,0,0.6,0,0.8c0,0.1,0,0.4,0,0.8c0,0.2,0,0.4,0,0.6c0,0.1,0.1,0.2,0.2,0.2
		c0,0.1,0,0.2,0.1,0.3c0.1,0.2,0.4,0.3,0.6,0.6c0.2,0.3,0.3,0.5,0.4,1.2c0.1,0.6,0,1.3-0.4,1.8c-0.1,0.1-0.2,0.2-0.3,0.4
		c-0.5,1-0.2,2.1-0.4,2.9c0,0-0.2,0.1-0.2,0.2c0,0.1,0,0.2,0,0.2c-0.2,0.4-0.8,0.7-1.1,0.9c-1,0-1.4,0.4-2,0.9
		c-0.3,0.3-0.4,0.6-0.8,0.6C102.7,45.6,102.7,44.4,102.8,43.5z"/>
	<path d="M56.4,41.3c0.2-0.6,0.6-1,0.5-1.6c0-0.1-0.1-0.1-0.2-0.3c0-0.1,0-0.3-0.1-0.4c-0.2-0.6-0.5-1.1-0.7-1.7
		c0-0.1-0.1-0.2-0.2-0.3c0-0.1,0.1-0.3,0.1-0.4c0-0.1-0.1-0.3-0.1-0.5c0-0.4,0.2-0.9,0.3-1.3c0.1-0.5,0.3-1,0.2-1.4
		c0-0.4-0.2-0.9-0.3-1.3c-0.1-0.4-0.3-0.8-0.3-1.3c0-0.6,0.4-1.1,0.4-1.7c0-0.5-0.2-0.8-0.5-1.3c-0.4-0.1-0.8-0.4-1.3-0.6
		c-0.7-0.2-1.6,0-2.4,0.1c-0.3,0-0.7,0-0.9,0.1c-0.2,0-0.3,0.2-0.5,0.2c-0.2,0.1-0.4,0.1-0.6,0.2c-0.8,0.3-0.9,0.4-1.1,1.3
		c-0.1,0.3,0,0.6-0.2,0.8c-0.1,0.2-0.2,0.3-0.3,0.4c-0.1,0.1-0.2,0-0.2,0.1c-0.2,0.1-0.4,0.3-0.6,0.5c-0.1,0.1-0.2,0.1-0.3,0.2
		c-0.2,0.2-0.6,0.7-0.7,0.9c-0.2,0.5,0,1.2-0.2,1.8c0,0-0.3,0.6-0.3,0.6c-0.1,0.1,0,0.1-0.1,0.2c-0.2,0.3-0.4,0.3-0.5,0.6
		c-0.1,0.1-0.2,0.4-0.3,0.5c-0.2,0.3-0.6,0.7-0.8,0.9c-0.1,0.1-0.1,0.2-0.2,0.2c-0.1,0.1-0.4,0.5-0.4,0.6c-0.2,0.5-0.1,1.1-0.2,1.7
		c-0.1,0.5-0.1,1.1-0.3,1.5c-0.1,0.1-0.3,0.4-0.3,0.5c-0.1,0-0.2,0-0.2,0.1c-0.2,0.2-0.4,0.4-0.6,0.6c-0.4,0.4-0.9,0.7-1.1,1.2
		C41.1,43,41,43.5,41,43.9c-0.1,0.4,0,0.8-0.1,1.3c0,0.1-0.2,0.4-0.2,0.6c-0.1,0.4-0.3,0.6-0.4,0.8c-0.1,0.2-0.1,0.3-0.2,0.4
		c-0.2,0.2-0.3,0.3-0.4,0.4c-0.6,0.5-0.9,1.1-1,2c-0.1,0.8-0.1,1,0.2,1.5c0.1,0.2,0.2,0.4,0.3,0.6c0.9,0.4,2,0.6,2.9,0.3
		c0.4-0.1,0.7-0.6,0.9-0.9c0,0,0.1-0.1,0.1-0.1c0.1-0.1,0.1-0.2,0.2-0.2c0.1-0.1,0-0.1,0.1-0.2c0.1-0.2,0.4-0.4,0.5-0.6
		c0-0.1,0-0.2,0.1-0.2c0,0,0.1-0.1,0.1-0.1c0.1-0.1,0-0.1,0.1-0.2c0.4-0.5,0.6-0.7,0.8-1.3c0.2-0.6,0.6-0.9,1.2-1
		c0.8-0.2,1.9,0.3,2.7,0.1c0.1,0,0.2-0.1,0.3-0.2c0.1-0.1,0.2-0.1,0.3-0.2c0.2-0.1,0.3-0.4,0.6-0.4c0.1,0,0.3,0.1,0.5,0.1
		c0.8,0.1,1.3,0.3,1.2,1.1c0,0.1-0.1,0.2-0.2,0.3c-0.2,1,0.1,2.1,0.5,2.6c0.4,0.5,0.8,0.7,1.7,0.8c0.2,0,0.8-0.1,1.3-0.2
		c0.5-0.1,1-0.1,1.3-0.5c0.3-0.4-0.1-0.7,0.3-1.3c0-0.6,0.3-0.9,0.4-1.4c0-0.2,0-0.5,0-0.7c0.1-1.2-0.2-2.2-0.6-3
		c-0.1-0.2-0.2-0.4-0.2-0.6c0-0.2-0.1-0.8-0.1-0.9c0-0.3,0.4-0.8,0.5-1.1C56.4,41.6,56.3,41.4,56.4,41.3z M52.4,38
		c-0.1,0.5-0.7,0.8-0.6,1.5c0,0.1,0,0.4,0.1,0.6c0.1,0.6,0.8,1.1,0.1,1.8c-0.6,0-0.9-0.2-1.4-0.2c-1.1,0-2,0.8-3.1,0.6
		c-0.1-0.2-0.2-0.3-0.2-0.6c0-0.2,0.1-0.4,0.2-0.6c0.1-0.5,0-1,0.2-1.5c0.2-0.9,0.8-1.8,1.3-2.4c0.2-0.3,0.5-0.8,0.7-1.3
		c0.1-0.2,0.2-0.4,0.2-0.6c0.1-0.2,0.2-0.3,0.2-0.5c0.3-0.7,0.6-1.5,1-1.9c0.3-0.2,1-0.3,1.3,0.2c0.1,0.4-0.1,0.7-0.2,1.2
		c-0.1,0.3-0.2,1-0.1,1.6c0,0.4,0.3,0.7,0.3,1C52.4,37.3,52.4,37.7,52.4,38z"/>
	<path d="M19.1,37.3c0.4-0.3,0.7-1.2,0.6-1.7c0-0.4-0.3-0.8-0.4-1.3c-0.2-0.7-0.2-1.5-0.3-2c-0.1-0.6-0.1-0.7-0.3-1.1
		c-0.3-0.5-0.6-0.9-1-1.1c-0.1-0.1-0.1-0.1-0.2-0.2c-0.3-0.3-0.4-0.3-0.7-0.5c-0.7-0.4-1.3-0.8-1.8-1.3c-0.3-0.2-0.5-0.5-0.7-0.6
		c-0.3-0.1-1.1-0.2-1.4-0.3c-0.2,0-0.4-0.1-0.6-0.1c-1.4-0.1-1.9,1-2.9,1.5C9,29,8.4,29.1,7.9,29.2c-0.4,0.1-0.9,0.3-1.2,0.4
		c-0.1,0.1-0.3,0.1-0.4,0.2C6.2,29.8,6.1,30,6,30.1c-0.1,0-0.2,0-0.2,0.1c-0.8,0.5-1.1,1.3-1.2,2.5c-0.4,0.3-1,0.7-1.3,1
		c-0.2,0.2-0.5,0.4-0.6,0.6c-0.1,0.1-0.1,0.1-0.2,0.2c-0.2,0.2-0.3,0.4-0.4,0.6C2.1,35,2,35,2,35.1c-0.3,0.4-0.1,0.6-0.2,1.2
		c0,0-0.2,0.2-0.2,0.2c-0.1,0.6,0.2,1,0.1,1.5c0,0.3-0.3,0.5-0.5,0.9c-0.2,0.3-0.5,0.8-0.6,1c-0.1,0.3-0.1,0.5-0.2,0.8
		C0.2,41.1,0,41.5,0,41.8c0,0.2,0.2,0.5,0.4,0.8c0.2,0.3,0.4,0.4,0.5,0.8c0.1,0.5-0.2,1.1-0.3,1.7c-0.1,0.4-0.2,0.9-0.3,1.3
		c-0.1,0.4-0.1,0.9-0.1,1.3c0.1,0.6,0.4,1.5,0.8,1.8c0.2,0.2,0.6,0.3,0.9,0.4c0.3,0.1,0.6,0.2,0.9,0.3C3,50.5,3.2,50.7,3.4,51
		c0.2,0.3,0.3,0.6,0.6,0.9C4,52,4.3,52.1,4.5,52.2c0.4,0.2,0.6,0.4,0.9,0.5c0.3,0.1,0.5,0.2,0.7,0.2c1,0.3,1.7-0.3,2.4-0.6
		c0.4-0.2,0.7-0.3,1.1-0.5c0.6-0.2,1.2-0.4,1.8-0.6c0.6-0.2,0.7-0.3,1.2-0.6c0.5-0.3,0.8-0.4,1.1-0.8c0.3-0.3,0.7-0.6,0.9-0.9
		c0.1-0.1,0.1-0.2,0.2-0.3c0.1-0.1,0.2-0.1,0.3-0.2c0.1-0.1,0.1-0.2,0.2-0.3c0.2-0.3,0.5-0.5,0.7-0.7c0.5-0.7,0.8-1.4,0.6-2.3
		c0-0.2-0.3-0.4-0.3-0.5c-0.1-0.1,0-0.2-0.1-0.2c-0.3-0.4-0.7-0.5-1.2-0.7c-0.7-0.2-1.1-0.2-1.6-0.1c-0.9,0.3-1.8,1.2-2.1,2
		c0,0-0.1,0-0.2,0.1c0,0,0,0.1,0,0.2c0,0-0.1,0.1-0.2,0.1c0,0,0,0.1,0,0.2c0,0-0.1,0.1-0.2,0.1c-0.2,0.3-0.3,0.4-0.7,0.5
		c-0.5,0.1-1-0.2-1.6-0.2c-0.4,0-0.7,0.2-1,0.2c-0.4,0-0.6-0.1-1-0.2C6.4,45.6,6,45,5.8,44.3c0.3-0.4,0.3-0.7,0.5-1.2
		c0.1-0.4,0.2-0.9,0.2-1.4c-0.1-0.7-0.5-1.3-0.5-1.9C6,39.3,6.7,38.7,7,38c0.2-0.5,0.3-0.9,0.2-1.7c0.2-0.2,0.4-0.5,0.5-0.8
		c0.5-0.2,1.1-0.7,1.4-1c0.1-0.1,0.2-0.2,0.2-0.3c0,0,0.1-0.1,0.2-0.1c0.2-0.3,0.3-0.3,0.4-0.6c0.2-0.2,0.2-0.3,0.4-0.5
		c0.3-0.2,0.6-0.4,1.1-0.3c0.4,0.1,0.3,0.5,0.8,0.6c0.2,0.7,0.6,1.2,1.1,1.5c0.5,0.3,0.9,0.4,1.1,0.9c0.2,0.4,0.1,0.9,0.3,1.3
		c0.1,0.1,0.6,0.7,0.6,0.7c0.2,0.1,0.6,0.2,0.9,0.2c0,0,0.1,0.1,0.2,0.2c0.4,0.1,1,0,1.1,0c0.1,0,0.2,0,0.3-0.1
		c0.4-0.1,0.9-0.5,1.1-0.7C19,37.4,19.1,37.4,19.1,37.3z"/>
	<path d="M38.5,33.8c0-0.4-0.1-0.8-0.1-1.2c0-0.1,0.1-0.2,0.2-0.3c0.1-0.2,0-0.3,0.1-0.4c0.2-0.4,0.4-0.6,0.6-0.9
		c0.1-0.2,0.2-0.5,0.2-0.7c0.1-0.2,0.1-0.3,0.2-0.4c0-0.1-0.1-0.7-0.1-0.8c0-0.3-0.8-1.1-0.9-1.2c-0.3-0.2-1.1-0.3-1.4-0.3
		c-0.8,0-1.4,0.6-2,0.9c-0.4,0.5-0.7,0.8-0.9,1.6c0,0.2-0.1,0.4-0.1,0.6c0,0.5,0.2,0.9,0.2,1.3c0,0.4-0.3,0.8-0.6,1.3
		c-0.1,0.2-0.1,0.5-0.2,0.7c-0.1,0.3-0.3,0.4-0.3,0.6c-0.1,0.2,0,0.4,0,0.7c0,0.3-0.1,0.6-0.2,0.8c-0.1,0.5,0,1.2-0.2,1.6
		c-0.1,0.2-0.7,0.5-0.7,0.6c-0.4,0.1-0.8-0.1-1.1,0c-0.2,0.1-0.4,0.3-0.6,0.4c-0.3,0.2-0.4,0.3-0.7,0.3c-0.3,0-0.7-0.1-0.9-0.2
		c-0.5-0.1-1-0.4-1.6-0.5c-0.2,0-0.5,0.1-0.6-0.2c0-0.3,0.1-0.6,0.2-0.8c0.1-0.1,0.3-0.3,0.3-0.4c0-0.1,0-0.2,0-0.2
		c0.2-0.4,0.7-0.7,0.9-1.1c0-0.1,0-0.2,0-0.3c0,0,0.1-0.1,0.2-0.2c0.2-0.9-0.1-1.8-0.2-2.5c0-0.4,0.3-0.9,0.4-1.1
		c0.2-0.3,0.3-0.3,0.4-0.5c0.1-0.1,0-0.2,0.1-0.3c0.1-0.2,0.2-0.3,0.2-0.6c0.1-0.9-0.5-1.4-1-1.7c-0.7-0.5-1.6-0.4-2.5-0.1
		c-0.3-0.1-0.6-0.2-0.9-0.1c-0.8,0.2-2,1.4-2.1,2.2c-0.1,0.7,0.3,1.5,0.2,2.2c-0.1,0.7-0.6,1-0.6,1.7c-0.4,0.4-0.5,0.8-0.6,1.4
		c0,0.2-0.1,0.3-0.2,0.6c0,0.8,0.3,1.6,0.2,2.4c-0.1,0.8-0.5,1.8-0.7,2.4c0,0.1,0,0.3-0.1,0.4c0,0-0.1,0.1-0.2,0.1
		c0,0.1,0,0.2-0.1,0.2c-0.1,0.1-0.2,0.3-0.2,0.4c-0.1,0.3-0.3,0.6-0.4,0.9c-0.2,1,0.3,2,0.1,2.9c-0.1,0.3-0.6,1-0.8,1.3
		c-0.2,0.3-0.5,0.5-0.6,0.8c-0.2,0.6,0,2,0.1,2.4c0.2,0.9,0.8,1.1,1.7,1.3c0.6,0.1,0.8,0.1,1.4,0.1c0.4,0,0.7,0,0.9,0
		c0.3,0,0.7-0.3,1-0.6c0.5-0.3,0.6-0.5,0.8-1c0-0.1,0.2-0.3,0.2-0.3c0-0.3-0.2-0.6-0.1-1.2c0.2-0.3,0.3-0.5,0.5-0.7
		c0.1-0.1,0.3-0.1,0.4-0.2c0,0,0.1-0.2,0.1-0.2c0,0,0.1-0.1,0.2-0.2c0.1-0.2,0-0.4,0-0.7c0-0.3,0.1-0.5,0.1-0.8c0,0-0.1-0.2-0.1-0.3
		c0-0.2,0-0.4,0-0.5c0-0.1,0.1-0.1,0.1-0.2c0-0.2-0.1-0.2-0.1-0.4c0,0,0.1-0.1,0.2-0.2c0-0.1,0-0.2,0-0.3c0.2-0.4,0.6-0.6,1-0.6
		c0.1,0,0.1,0.1,0.1,0.1c0.3,0,0.6,0.2,1,0.2c0.2,0,0.4-0.1,0.6-0.2c0.2,0,0.5,0,0.7-0.1c0.2-0.1,0.4-0.2,0.5-0.3
		c0.7-0.3,1.4-0.5,1.8,0.4c-0.1,0.4-0.5,0.6-0.7,0.9c-0.5,0.6-0.6,0.9-0.6,1.9c0,0.3,0,0.6,0.1,0.9c0.1,0.3,0.3,0.6,0.3,0.9
		c0,0.1-0.1,0.4-0.1,0.6c-0.1,0.7-0.2,1.2-0.2,1.8c0.5,0.8,1.7,1.3,2.8,1.1c0.2,0,0.5,0,0.6-0.1c0,0,0.1-0.1,0.2-0.1
		c0.4-0.2,1.3-0.7,1.5-0.9c0.1-0.2,0.2-0.4,0.3-0.6c0.2-0.3,0.3-0.6,0.4-0.9c0.2-1-0.3-2.1-0.1-3.2c0-0.2,0.3-0.7,0.4-0.9
		c0.2-0.3,0.4-0.5,0.5-0.8c0.1-0.2,0-0.5,0.2-0.6c-0.2-0.5,0.1-0.8,0.1-1.3c0-0.9-0.4-1.7-0.3-2.8c0.1-0.9,0.4-1.5,0.7-2
		c0.3-0.5,0.5-0.8,0.6-1.4c0-0.1,0.1-0.3,0.2-0.4C38.7,35,38.6,34.5,38.5,33.8z"/>
</g>
</svg>
