<?xml version="1.0" encoding="utf-8"?>
<!-- Generator: Adobe Illustrator 17.1.0, SVG Export Plug-In . SVG Version: 6.00 Build 0)  -->
<!DOCTYPE svg PUBLIC "-//W3C//DTD SVG 1.1//EN" "http://www.w3.org/Graphics/SVG/1.1/DTD/svg11.dtd">
<svg version="1.1" id="Layer_1" xmlns="http://www.w3.org/2000/svg" xmlns:xlink="http://www.w3.org/1999/xlink" x="0px" y="0px"
	 viewBox="0 0 612 792" enable-background="new 0 0 612 792" xml:space="preserve">
<g id="Layer_2" display="none">
	<rect x="-105.197" y="26.004" display="inline" width="867.771" height="703.598"/>
</g>
<g id="Layer_1_copy">
	<path opacity="0.28" enable-background="new    " d="M606.453,366.038c-0.882-1.563-1.964-2.989-3.201-4.286
		c9.01-5.86,14.192-15.968,12.23-26.804c-1.015-5.604-5.023-9.471-6.383-14.629c-1.663-6.255-5.123-12.481-10.125-16.64
		c-7.339-7.467-22.785-9.916-32.641-7.466c-4.822,1.198-9.419,2.896-13.818,5.223c-3.954,2.091-2.919,1.632-6.934-0.433
		c-3.569-1.835-7.572-2.659-11.573-2.659c-7.165,0.085-13.999,0.074-21.136,0.074c-4.16,0-8.253,1.082-11.905,3.056
		c-1.893,0.202-3.62,0.66-5.402,1.292c-2.476-1.155-5.053-2.079-7.776-2.412c-5.196-0.636-9.856,0.058-14.933,1.077
		c-3.755-0.648-7.555-1.678-11.398-1.678c-3.623,0-6.78,0.995-10.223,1.885c-3.85-0.775-8.943-1.127-12.818-0.515
		c-5.773,0.915-7.127,4.951-12.057,1.842c-3.287-2.073-7.348-3.623-11.124-4.481c-9.553-2.171-23.146,0.219-31.299,5.548
		c-4.778,3.123-13.661-4.025-20.564-3.741c-8.865,0.274-17.189,5.121-22.639,12.046c-5.632-6.096-14.569-9.395-22.807-9.395
		c-3.601,0-1.988-2.244-2.926-5.331c-0.8-2.633-2.156-5.089-3.967-7.161c-4.391-5.021-11.14-7.333-17.682-7.333
		c-3.995,0-7.912-0.543-11.93-0.543c-3.246,0-3.282-2.807-5.111-5.312c-3.634-9.12-10.235-19.602-20.742-21.12
		c-6.298-0.91-7.6-6.177-10.52-11.932c-3.875-7.638-5.364-16.398-8.782-24.541c-3.888-9.892-8.344-19.513-13.759-28.662
		c-2.961-8.135-9.898-19.402-15.625-25.887c-8.557-13.306-19.313-25.771-31.258-36.141c-3.178-2.754-6.172-4.741-7.733-8.719
		c-1.574-4.014-3.414-8.649-5.781-12.257c-6.158-9.559-18.604-12.717-29.21-9.847c-17.135,4.637-55.423,5.081-50.307,32.923
		c1.891,10.316,11.821,19.309,18.229,27.08c2.498,3.029,5.907,4.421,6.106,8.516c0.229,4.713,1.12,10.047,2.02,14.694
		c0.545,2.901,1.227,5.781,2.007,8.628c1.36,4.961-2.292,5.152-5.202,8.972c-4.611,6.053-5.35,13.661-3.772,20.91
		c1.254,5.723,3.534,10.538,8.453,14.044c3.139,2.238,6.856,3.479,10.67,3.891c0.464,0.143,2.537,6.647,2.951,7.428
		c6.628,12.504,14.433,21.974,30.18,19.388c12.196-1.945,24.794-12.762,33.127-21.472c3.728,7.183,9.019,13.573,15.843,17.99
		c0.82,4.011,5.985,20.67,2.75,22.086c-9.909,4.336-15.068,16.84-11.192,26.963c-5.026,4.001-3.507,5.504-9.368,3.002
		c-2.664-2.212-5.035-4.677-8.018-6.503c-9.03-5.528-20.878-5.821-30.678-2.376c-4.961,1.744-8.982,4.999-13.764,7.017
		c-5.673,2.39-8.798,7.743-14.251,10.277c-3.017,2.248-2.412,3.452-5.67,0.814c-1.855-1.502-3.893-2.75-6.029-3.808
		c-3.066-3.49-6.896-6.291-11.197-8.048c-3.982-1.626-8.056-2.938-12.244-3.899c-5.108-1.172-8.687,0.685-13.569,0.99
		c-10.245-0.621-20.278,1.752-27.847,9.057c-3.117,3.008-5.667,6.199-7.236,10.241c-3.48,2.945-7.301,5.252-9.905,9.121
		c-5.31,7.888-5.624,16.753-10.214,24.516c-5.677,9.6-4.325,19.319-5.477,29.658c-1.297,11.637,4.064,19.858,11.072,28.287
		c2.105,4.089,6.198,5.667,4.268,9.911c-1.941,4.268-5.402,6.628-8.082,10.472c-3,3.411-4.899,7.838-5.472,12.33
		c-0.809,2.428-1.158,5.006-1.14,7.561c-1.493,2.363-2.732,4.808-3.51,7.496c-1.338,4.619-2.917,8.803-2.407,13.754
		c0.249,2.671,1.077,5.246,2.252,7.647c-0.809,3.134-1.575,6.265-1.775,9.51c-0.759,12.344,5.274,25.545,17.325,30.135
		c4.513,6.78,12.99,10.811,20.629,12.932c10.566,2.768,17.206-2.429,26.519-5.258c4.645-1.411,9.096-2.715,13.275-5.249
		c3.715-0.395,6.177,2.744,10.367,4.495c8.602,3.596,21.205,4.306,29.685-0.024c3.867-1.974,6.868-6.619,10.428-3.942
		c5.328,4.007,11.966,6.133,18.62,6.133c3.634,0,7.758-0.416,11.157-1.701c1.482-0.56,3.133-1.429,4.507-2.152
		c3.279,1.674,6.873,2.81,10.497,3.456c14.317,2.551,22.766-4.104,31.342-14.252c7.036,11.272,19.977,14.09,32.292,11.694
		c2.149-0.349,4.268-0.843,6.316-1.596c3.707,1.526,7.709,2.275,11.699,2.498c6.19,0.347,13.06,0.345,18.82-2.139
		c1.51-0.656,12.295-8.781,9.266-0.384c-2.493,6.913-1.033,15.141,3.442,20.911c7.332,9.455,21.758,10.617,32.815,10.617
		c-7.165,17.965,13.481,31.237,23.798,42.581c7.001,7.823,14.351,15.358,21.651,22.899c4.772,4.93-3.464,17.04-4.358,22.74
		c-2.76,17.598-2.76,38.772,17.664,44.955c11.759,3.56,24.727,0.711,36.801,1.958c11.646,1.203,29.114,0.726,40.14-3.35
		c3.323-1.228,7.085-3.057,9.733-5.399c4.514-3.992,5.831-5.371,11.497-7.256c8.591-2.857,15.763-10.244,21.798-16.714
		c2.712-2.916,5.726-5.936,8.123-9.11c2.83-3.767,3.611-1.92,8.494-3.228c10.064-2.696,18.309-10.342,22.451-19.782
		c4.935-7.883,7.192-20.626,2.294-28.97c-3.069-5.229-8.51-9.231-14.406-10.582c-2.073-0.474-4.223-0.612-6.337-0.384
		c-3.136,0.337-3.347-1.659-5.72-3.562c10.758-8.068,11.14-24.947,1.366-34.009c-4.342-15.519-19.884-18.68-33.059-12.579
		c-2.804,1.299-5.312,3.184-7.502,5.351c-3.388,3.351-6.914,1.497-11.484,2.778c-2.932,0.822-5.657,2.255-8.077,4.092
		c-2.684-1.925-5.71-3.252-8.994-3.722c-8.031-1.149-15.603,3.11-21.23,8.48c-2.61,2.491-5.035,5.209-7.176,8.113
		c-3.171,4.301-4.794,4.523-9.26,7.259c-0.619-5.154-3.223-9.723-5.765-14.145c15.419-1.85,33.431-12.046,26.015-30.707
		c8.446,0.194,15.295-2.573,22.342-6.897c5.481,4.197,12.207,7.308,19.039,8.394c5.875,0.934,11.814-1.804,17.373-0.428
		c5.939,1.47,12.931,1.516,18.802-0.376c2.281-0.735,12.778-7.474,14.058-6.591c1.896,0.343,5.147,3.741,6.983,4.606
		c3.929,1.862,8.762,2.913,13.08,3.087c14.99,0.673,25.759-6.831,36.945-15.383c10.729-8.233,19.651-17.693,18.988-32.306
		c-0.314-6.91-2.522-13.845-4.838-20.33c-0.454-2.921-1.409-5.731-2.709-8.38c3.165-3.405,5.304-7.63,6.636-12.057
		c2.572-8.545,1.586-17.596-3.924-24.728c-2.406-3.115,1.622-4.457,3.698-7.529c1.507-2.23,2.754-4.643,3.711-7.158
		C611.651,394.761,615.54,377.969,606.453,366.038C605.852,364.973,607.539,367.463,606.453,366.038z"/>
	<path fill="#FFFFFF" d="M602.546,362.135c-0.882-1.563-1.964-2.989-3.201-4.286c9.01-5.86,14.192-15.968,12.23-26.804
		c-1.015-5.604-5.023-9.471-6.383-14.629c-1.663-6.255-5.123-12.481-10.125-16.64c-7.339-7.467-22.785-9.916-32.641-7.466
		c-4.822,1.198-9.419,2.896-13.818,5.223c-3.954,2.091-2.919,1.632-6.934-0.433c-3.569-1.835-7.572-2.659-11.572-2.659
		c-7.165,0.085-13.999,0.074-21.136,0.074c-4.16,0-8.253,1.082-11.905,3.056c-1.893,0.202-3.62,0.66-5.402,1.292
		c-2.476-1.155-5.053-2.079-7.776-2.412c-5.196-0.636-9.856,0.058-14.933,1.077c-3.755-0.648-7.555-1.678-11.398-1.678
		c-3.623,0-6.78,0.995-10.223,1.885c-3.85-0.775-8.943-1.127-12.818-0.515c-5.773,0.915-7.127,4.951-12.057,1.842
		c-3.287-2.073-7.348-3.623-11.124-4.481c-9.553-2.171-23.146,0.219-31.299,5.548c-4.778,3.123-13.661-4.025-20.563-3.741
		c-8.865,0.274-17.189,5.121-22.639,12.046c-5.632-6.096-14.569-9.395-22.807-9.395c-3.601,0-1.988-2.244-2.926-5.331
		c-0.8-2.633-2.156-5.089-3.967-7.161c-4.391-5.021-11.14-7.333-17.682-7.333c-3.995,0-7.912-0.543-11.93-0.543
		c-3.246,0-3.282-2.807-5.111-5.312c-3.634-9.12-10.235-19.602-20.742-21.12c-6.298-0.91-7.6-6.177-10.52-11.932
		c-3.875-7.638-5.364-16.398-8.782-24.541c-3.888-9.892-8.344-19.513-13.759-28.662c-2.961-8.135-9.898-19.402-15.625-25.887
		c-8.557-13.306-19.313-25.771-31.258-36.141c-3.178-2.754-6.172-4.741-7.733-8.719c-1.574-4.014-3.414-8.649-5.781-12.257
		c-6.162-9.565-18.614-12.739-29.23-9.866c-17.141,4.639-55.402,5.087-50.284,32.939c1.891,10.316,11.821,19.309,18.229,27.08
		c2.498,3.029,5.907,4.421,6.106,8.516c0.229,4.713,1.12,10.047,2.02,14.694c0.545,2.901,1.227,5.781,2.007,8.628
		c1.36,4.961-2.292,5.152-5.202,8.972c-4.611,6.053-5.35,13.661-3.772,20.91c1.254,5.723,3.534,10.538,8.453,14.044
		c3.139,2.238,6.856,3.479,10.67,3.891c0.464,0.143,2.537,6.647,2.951,7.428c6.628,12.504,14.433,21.974,30.18,19.388
		c12.196-1.945,24.794-12.762,33.127-21.472c3.728,7.183,9.019,13.573,15.843,17.99c0.82,4.011,5.985,20.67,2.75,22.086
		c-9.909,4.336-15.068,16.839-11.192,26.963c-5.026,4.001-3.507,5.504-9.368,3.002c-2.664-2.212-5.035-4.677-8.018-6.503
		c-9.03-5.528-20.878-5.821-30.678-2.376c-4.961,1.744-8.982,4.999-13.764,7.017c-5.673,2.39-8.798,7.743-14.251,10.277
		c-3.017,2.248-2.412,3.452-5.67,0.814c-1.855-1.502-3.893-2.75-6.029-3.808c-3.066-3.49-6.896-6.291-11.197-8.048
		c-3.982-1.626-8.056-2.938-12.244-3.899c-5.108-1.172-8.687,0.685-13.569,0.99c-10.245-0.621-20.278,1.752-27.847,9.057
		c-3.117,3.008-5.667,6.199-7.236,10.241c-3.48,2.945-7.301,5.252-9.905,9.121c-5.308,7.885-5.632,16.75-10.222,24.512
		c-5.677,9.6-4.325,19.32-5.477,29.658c-1.297,11.637,4.064,19.858,11.072,28.287c2.105,4.089,6.198,5.667,4.268,9.911
		c-1.938,4.262-5.4,6.634-8.078,10.476c-2.999,3.411-4.898,7.839-5.472,12.33c-0.809,2.428-1.158,5.006-1.14,7.561
		c-1.493,2.363-2.732,4.808-3.51,7.496c-1.338,4.619-2.917,8.803-2.407,13.754c0.249,2.672,1.077,5.246,2.252,7.647
		c-0.809,3.134-1.575,6.265-1.775,9.51c-0.759,12.344,5.274,25.545,17.325,30.135c4.513,6.78,12.99,10.811,20.629,12.932
		c10.566,2.768,17.206-2.429,26.519-5.258c4.645-1.411,9.096-2.715,13.275-5.249c3.715-0.395,6.177,2.744,10.367,4.495
		c8.602,3.596,21.205,4.306,29.685-0.024c3.867-1.974,6.868-6.619,10.428-3.942c5.328,4.007,11.966,6.133,18.62,6.133
		c3.634,0,7.758-0.416,11.157-1.701c1.482-0.56,3.133-1.429,4.507-2.152c3.279,1.674,6.873,2.81,10.497,3.456
		c14.317,2.551,22.766-4.104,31.342-14.252c7.036,11.272,19.977,14.09,32.292,11.694c2.149-0.349,4.268-0.843,6.316-1.596
		c3.707,1.526,7.709,2.275,11.699,2.498c6.19,0.347,13.06,0.345,18.82-2.139c1.51-0.656,12.295-8.781,9.266-0.384
		c-2.493,6.913-1.033,15.141,3.442,20.911c7.332,9.455,21.758,10.617,32.815,10.617c-7.165,17.965,13.481,31.237,23.798,42.581
		c7.001,7.823,14.351,15.358,21.651,22.899c4.772,4.93-3.464,17.04-4.358,22.74c-2.76,17.597-2.771,38.756,17.656,44.94
		c11.759,3.56,24.727,0.711,36.801,1.958c11.646,1.203,29.114,0.726,40.14-3.35c3.323-1.228,7.085-3.057,9.733-5.399
		c4.514-3.992,5.831-5.371,11.497-7.256c8.593-2.858,15.76-10.245,21.798-16.714c2.711-2.916,5.726-5.936,8.123-9.11
		c2.83-3.767,3.611-1.92,8.494-3.228c10.064-2.696,18.309-10.342,22.451-19.782c4.935-7.883,7.192-20.625,2.294-28.97
		c-3.069-5.229-8.51-9.231-14.406-10.582c-2.073-0.474-4.223-0.612-6.337-0.384c-3.136,0.337-3.347-1.659-5.72-3.562
		c10.758-8.068,11.14-24.947,1.366-34.009c-4.342-15.519-19.884-18.68-33.059-12.579c-2.804,1.299-5.312,3.184-7.502,5.351
		c-3.388,3.351-6.914,1.497-11.484,2.778c-2.932,0.822-5.657,2.255-8.077,4.092c-2.684-1.925-5.71-3.252-8.994-3.722
		c-8.031-1.149-15.603,3.11-21.23,8.48c-2.61,2.491-5.035,5.209-7.176,8.113c-3.171,4.301-4.794,4.523-9.26,7.259
		c-0.619-5.154-3.223-9.723-5.765-14.145c15.419-1.85,33.431-12.046,26.015-30.707c8.446,0.194,15.295-2.573,22.342-6.897
		c5.481,4.197,12.207,7.308,19.039,8.394c5.875,0.934,11.814-1.804,17.373-0.428c5.938,1.47,12.931,1.516,18.802-0.376
		c2.281-0.735,12.778-7.474,14.058-6.591c1.896,0.343,5.147,3.741,6.983,4.606c3.929,1.862,8.763,2.913,13.08,3.087
		c14.99,0.673,25.759-6.831,36.945-15.383c10.729-8.233,19.651-17.693,18.987-32.306c-0.314-6.91-2.522-13.845-4.838-20.33
		c-0.453-2.921-1.409-5.731-2.709-8.38c3.165-3.405,5.304-7.63,6.636-12.057c2.572-8.545,1.586-17.596-3.924-24.728
		c-2.406-3.115,1.622-4.457,3.698-7.529c1.507-2.23,2.754-4.643,3.711-7.158C607.729,390.845,611.628,374.059,602.546,362.135
		C601.945,361.069,603.631,363.56,602.546,362.135z"/>
</g>
<g id="Layer_1_1_">
	<path fill="none" d="M106.579,128.449c4.158,6.405,9.005,11.935,14.657,17.077c6.297,5.636,4.475,10.919,5.121,18.31
		c0.702,6.901,1.729,15.025,4.645,21.444c0.77,1.575,1.572,3.134,2.407,4.675c2.169,4.278,2.254,0.707,4.891,3.296
		c0.696,0.861,6.886,1.509,2.01,3.553c-2.424,1.016-1.44,4.019-2.719,6.164c-2.32,3.89-6.441,2.62-10.192,3.117
		c-0.978,0.128-10.819,2.81-6.208,5.131c2.449,1.233,6.293,0.789,8.951,0.72c7.563-0.198,10.231-5.951,14.835-10.416
		c4.787-4.643,0.199-3.534-0.426-6.609c1.48-3.438,6.682-1.338,9.231-3.376c-2.595-5.803-8.844-10.452-12.377-15.84
		c-1.839-2.785-4.981-7.731-2.643-11.058c2.861,0.143,5.331,8.379,6.808,10.663c5.26,8.136,12.852,13.566,14.571,23.616
		c0.691,4.062,1.366,8.111,3.21,11.904c2.274,4.679,9.327,7.162,9.212,0.012c-0.146-9.08-3.292-18.133-5.064-27.045
		c-0.999-5.024-1.104-10.133-2.576-15.078c-1.855-6.246,1.957-7.434,3.18-1.193c1.044,5.327,1.829,10.385,2.68,15.747
		c1.007,6.343,7.932-2.289,10.865,1.906c0.982,3.621-6.189,1.39-1.118,7.398c2.917,3.456,6.301,7.029,8.76,10.811
		c5.118,7.829,10.284,16.493,14.708,24.743c1.784,3.345,4.175,8.779,8.233,9.836c5.346,1.393,1.228-7.349,0.398-9.551
		c-7.093-18.804-17.808-35.499-27.946-52.835c-8.733-14.935-21.653-29.737-35.647-39.883c-4.974-3.722-6.649-19.906-13.264-19.379
		c-5.433,0.433-10.537,2.947-16.023,3.413c-4.692,0.399-12.749,1.043-16.413,4.256C104.369,125.519,105.622,126.854,106.579,128.449
		C108.363,131.197,106.497,128.313,106.579,128.449z"/>
	<path fill="none" d="M165.839,355.831c-0.342-7.305-5.83-8.785-8.639-14.709c-3.273-6.901-8.821-2.35-13.808,0.063
		c-3.185,1.541-3.44,4.281-4.602,7.264c-1.401,3.619-3.418,5.222-5.835,8.298c-3.954,5.048-1.078,11.188-3.823,17.011
		c-0.94,1.994-2.19,6.538-1.708,8.805c0.755,3.455,5.931,3.428,6.811,7.348c2.534,11.29,10.804,0.666,16.546,0.958
		c4.977,0.234,10.579-6.304,12.604-10.754c1.347-3.143,2.816-5.951,2.767-9.84c-0.139-1.7-0.448-3.369-0.926-5.006
		C164.535,361.883,165.99,359.155,165.839,355.831C165.796,354.914,165.94,358.056,165.839,355.831z"/>
	<path fill="none" d="M172.389,189.52c-0.274,0.723-0.102,1.309,0.515,1.76C173.894,191.022,174.024,189.012,172.389,189.52
		C172.205,189.782,172.677,189.43,172.389,189.52z"/>
	<path fill="none" d="M222.698,451.423c-0.363-2.841,2.933-10.891-0.376-12.142c-4.659-1.761-6.283,4.949-7.614,7.844
		c-3.881,8.549-9.365,14.751-10.449,24.282c-0.463,4.358-0.103,6.079,5.078,4.362c5.046-1.673,7.699-0.855,12.752-0.981
		c3.407-3.579-2.316-7.652-0.235-11.756C224.411,457.99,223.385,456.746,222.698,451.423
		C222.401,449.1,222.885,452.875,222.698,451.423z"/>
	<path fill="none" d="M238.073,353.064c-1.419-3.461-4.804-6.712-6.764-9.836c-1.956-3.166-5.684-4.697-9.508-3.713
		c-4.583,1.18-3.132,11.841-4.406,15.852c-1.918,6.039-1.384,11.282-2.062,17.677c-0.49,4.64-6.9,13.344-3.685,17.826
		c2.841,0.092,4.623-0.887,6.761-2.767c3.003-2.672,6.203-2.228,9.528-3.993c5.349-2.838,4.522-11.501,8.329-16.053
		C239.558,364.12,239.957,357.786,238.073,353.064C237.726,352.217,238.374,353.817,238.073,353.064z"/>
	<path fill="none" d="M369.317,469.561c-3.526-7.499-4.462-11.28-3.072-19.364c0.598-3.518,0.342-14.006-3.384-6.456
		c-2.169,4.468-4.329,8.456-7.061,12.6c-1.283,1.966-1.388,4.11-1.288,6.497c0.14,3.33-1.795,5.929-1.78,8.867
		C357.196,472.157,366.542,474.704,369.317,469.561C367.9,466.548,366.819,474.191,369.317,469.561z"/>
	<path fill="none" d="M392.678,370.586c3.535-0.554,7.266,2.408,6.48-3.092c-0.586-4.101-2.627-7.615-1.357-11.833
		c0.754-2.505,2.5-14.889-1.438-14.889c-0.393,4.916-3.262,11.605-6.368,15.666c-1.704,2.228-2.968,6.359-3.039,9.154
		C386.771,372.891,385.847,371.645,392.678,370.586C394.845,370.246,390.59,370.91,392.678,370.586z"/>
	<path fill="none" d="M163.146,216.574c-2.737-1.588-2.313-3.458-4.469,0.047c-3.034,2.064-6.482,4.997-8.892,7.756
		c-2.701,3.288-7.305,7.465-5.457,12.818c4.702,2.722,13.346-6.848,16.577-9.365c2.381-1.855,5.568-3.693,6.823-6.597
		C169.029,218.221,165.148,217.754,163.146,216.574C162.513,216.207,163.45,216.753,163.146,216.574z"/>
	<path fill="none" d="M151.947,217.659c7.036-5.219,7.305-14.857,2.97-22.315c-2.052,0.616-4.541,14.942-6.561,17.682
		c-3.24,4.393-10.161,10.154-7.955,16.382C142.74,229.899,149.903,219.183,151.947,217.659
		C153.005,216.874,150.335,218.861,151.947,217.659z"/>
	<path fill="none" d="M423.417,488.929c1.807,0.077,3.408-2.539,4.634-3.52c2.431-1.945,5.176-1.433,7.611-3.081
		c5.587-3.78,2.329-9.952,4.971-15.531c2.149-4.587,5.015-10.135,0.094-14.363c-3.737-3.21-0.384-7.966-1.937-11.766
		c-1.935-4.756-10.289-6.467-8.63,1.026c1.347,6.082-3.788,11.737-3.669,17.726c0.185,7.251-0.544,9.393-3.997,15.683
		C421.13,477.569,418.433,488.694,423.417,488.929C424.888,488.992,420.275,488.781,423.417,488.929z"/>
	<path fill="none" d="M300.775,450.505c0.569-1.533,2.796-3.254,2.767-4.918c-0.063-4.222-5.34-3.78-7.682-4.918
		c-3.384-1.64-3.186-4.557-8.045-3.511c-4.744,1.021-3.174,4.74-4.724,8.345c-1.155,2.686-6.919,18.388,1.22,13.945
		C292.13,455.18,297.009,460.525,300.775,450.505C301.283,449.139,300.19,452.063,300.775,450.505z"/>
	<path d="M570.649,330.015c1.345,1.288,2.609,0.7,3.574,3.544c1.145,3.376,3.47,6.97,6.868,8.399
		c7.854,3.304,14.567-5.275,8.934-11.788c-3.784-4.375-3.13-14.114-8.915-16.759c-6.856-3.245-15.228-3.126-21.827,0.613
		c-2.741,1.558-4.343,2.67-5.223,5.843c-1.505,5.203-7.024,6.327-8.078,11.839c-0.768,4.018,3.042,6.767,1.976,10.846
		c-1.01,3.866-1.07,6.098,0.872,9.587c1.656,2.905,4.322,4.694,6.801,6.815c3.494,2.988,1.629,7.21,4.177,10.478
		c2.169,2.782,6.71,3.711,7.622,7.282c1.082,4.241-0.612,9.067-5.775,8.643c-5.448-0.447-7.202-9.206-13.75-9.864
		c-3.894-0.377-7.294,1.262-9.532,4.309c-3.966,5.444-0.586,6.299,2.147,10.145c-0.893,7.875,12.375,13.217,18.269,10.689
		c6.816-2.923,14.415,5.561,20.068-4.097c2.238-3.824,5.551-8.108,7.456-11.518c5.983-10.585-4.725-12.387-6.457-20.744
		c-0.884-4.265-0.576-8.045-3.079-11.837c-2.37-3.607-7.196-5.061-8.932-8.965c-1.464-3.292-2.107-5.461-1.764-9.235
		C566.187,333.065,568.964,328.323,570.649,330.015C570.832,330.191,569.774,329.137,570.649,330.015z"/>
	<path d="M366.245,369.969c-2.878,4.222-3.877,9.423-4.914,14.446c-1.168,5.685-9.806,15.479-4.183,20.883
		c4.194,4.03,15.072,1.199,18.629-2.444c2.976-3.017-0.716-6.478,2.483-8.986c2.551-2,2.106-6.303,5.904-6.841
		c2.878-0.408,5.576,1.561,8.514,1.385c3.807-0.224,5.767-3.379,5.837,2.161c0.106,8.402,0.756,14.713,10.446,14.566
		c2.798-0.043,6.036-0.169,8.562-1.535c4.354-2.354-0.378-5.671-0.563-8.732c-0.152-2.559,1.52-5.576,2.147-7.994
		c1.374-5.13-0.34-10.401-1.53-15.371c-1.413-5.823-0.145-10.195,0-15.976c0.155-5.868-5.008-11.447-2.147-16.913
		c4.433-8.438,4.494-20.463-6.144-24.282c-6.822-2.629-17.023,0.488-22.418,4.895c-5.741,4.69-4.247,13.603-6.482,19.993
		c-1.672,4.916-7.495,8.059-8.294,13.529C370.916,359.646,370.24,364.105,366.245,369.969
		C365.894,370.484,366.971,368.903,366.245,369.969z M386.839,367.818c0.588-4.587,1.158-10.005,4.614-13.517
		c2.401-2.519,2.221-13.525,5.839-13.525c4.214,7.414-1.036,15.901,1.179,23.696c2.079,7.318-0.161,5.234-5.785,6.117
		C388.013,371.315,386.041,374.256,386.839,367.818C387.038,366.265,386.671,369.173,386.839,367.818z"/>
	<path d="M488.886,364.438c-1.624,3.433-3.911,6.587-5.433,10.036c-1.816,4.115,1.536,8.884-1.77,12.43
		c-3.958,4.245-9.225,15.724,0.142,17.8c3.228,1.501,7.544-1.476,10.869-1.138c3.055,0.31,6.059,1.757,9.108,2.056
		c4.154,0.487,7.56-0.992,11.382-2.151c2.567-0.791,6.216-3.709,9.028-2.541c7.449,3.093,7.964-8.181,6.023-13.135
		c-7.372-6.058-14.456,0.445-22.564-1.557c-4.712-1.163-3.053-4.767-1.382-8.045c1.808-3.546-0.138-9.824,5.579-9.056
		c6.456,0.866,24.43,2.184,21.597-9.332c-2.167-8.811-10.392-6.041-16.823-5.898c-6.212,0.138-4.497-4.347-3.801-8.809
		c0.519-3.326,0.499-10.308,5.414-10.174c3.172,0.078,4.905,2.57,8.519,0.985c3.313-1.454,6.99,0.673,9.771-1.076
		c4.901-3.085,6.307-10.342,3.526-14.963c-4.66-7.758-10.272-5.198-17.826-4.301c-3.672,0.375-7.287-1.393-11.07-1.542
		c-1.728,0.069-3.238,0.671-4.528,1.805c-2.155,1.472-3.94,0.599-6.229,1.27c-5.788,1.71-2.816,6.199-2.767,10.141
		c0.048,3.765-2.95,7.13-3.376,10.757c-0.668,5.404,1.197,8.853-1.842,13.829C487.436,356.596,487.194,358.93,488.886,364.438
		C487.965,366.386,487.934,361.339,488.886,364.438z"/>
	<path d="M432.64,337.084c3.63,0.892,7.464,0.479,11.062,1.534c1.89-0.761,5.608-2.338,3.71,1.537
		c-1.635,3.335-3.638,5.268-2.085,9.22c1.134,2.886,0.965,6.044,0.085,9.011c-1.351,4.554-5.298,8.741-3.665,13.706
		c1.13,3.438-1.414,7.045-2.643,10.172c-1.899,4.635-0.794,8.417-1.546,13.22c-1.179,8.103,1.086,11.472,10.09,9.773
		c7.281-1.373,7.941-7.49,8.353-13.766c0.443-7.019,4.62-12.089,4.219-19.861c-0.358-6.955,4.711-11.69,4.38-18.796
		c-0.189-4.065,0.873-14.726,6.455-15.739c2.315-0.439,4.397,1.141,6.756-0.257c1.544-0.914,2.183-1.341,3.381-1.894
		c8.308-3.693,9.903-19.743-1.229-19.077c-4.878,0.292-9.244,1.934-14.134,0.943c-2.662-0.542-6.866-1.762-9.469-1.343
		c-3.615,0.582-7.127,3.832-10.727,2.215c-3.77-1.694-8.743-1.623-11.151,1.588c-1.948,2.551-1.131,3.285-0.929,6.456
		C431.847,330.451,429.697,332.071,432.64,337.084C436.009,337.911,431.758,335.581,432.64,337.084z"/>
	<path d="M292.477,379.192c0.469,3.152,1.632,6.706,0.256,9.787c-1.539,3.445-4.01,5.787-4.87,9.581
		c-2.14,9.179,10.364,11.186,16.285,8.302c3.349-1.721,5.149-4.172,6.768-7.686c1.802-3.99-0.469-8.304,1.546-12.002
		c1.642-3.014,5.119-8.208,9.241-5.56c4.024,2.585,6.929,0.61,10.412,1.887c-0.847,3.446,0.009,8.787-1.863,11.6
		c-2.642,3.97-3.947,9.747,1.77,11.807c7.284,2.626,16.102,0.16,19.06-6.894c2.087-4.979,0.158-10.194,1.926-15.162
		c1.441-4.052,3.195-7.84,3.499-12.182c0.46-6.586,0.359-11.452,3.022-17.605c1.367-3.158,3.45-6.113,4.552-9.376
		c2.63-7.645,5.783-18.852,2.151-26.437c-4.489-9.271-15.977,0.961-16.593,7.689c-0.727,7.089-1.173,11.612-4.305,18.135
		c-2.075,4.333-3.701,8.807-4.61,13.521c-0.749,4.024-4.47,7.13-8.819,4.275c-4.474-2.937-6.605-1.278-11.467-1.812
		c-0.633-4.221-1.439-10.715-1.106-14.999c0.351-4.516,3.442-7.863,3.745-12.494c0.312-4.784,2.011-11.216-3.252-13.628
		c-5.285-2.422-10.569-1.543-13.553,3.424c-2.364,3.935-2.135,10.293-3.655,14.636c-1.978,4.803-2.81,9.031-2.459,14.45
		c0.462,7.279-1.637,9.16-4.914,15.363C293.306,371.418,291.89,375.23,292.477,379.192
		C292.614,380.11,292.337,378.244,292.477,379.192z"/>
	<path d="M184.895,353.064c-3.658-9.181,1.021-23.096-12.414-26.222c-5.47-1.273-7.652-8.091-14.027-8.886
		c-3.119-0.389-5.758-0.227-8.728,0.718c-3.447,1.096-4.611,5.072-7.854,6.115c-2.439,0.776-4.736-0.275-6.797,1.702
		c-2.73,2.618-2.179,4.148-6.063,5.547c-8.036,2.894-6.907,9.837-11.118,15.496c-2.439,3.245-6.63,7.499-7.373,11.679
		c-0.738,3.964,0.163,8.061-0.917,11.987c-0.752,2.65-2.434,4.905-3.043,7.65c-1.433,6.455,2.999,11.04,2.849,17.263
		c-0.198,8.187,7.471,9.322,13.369,12.155c6.158,2.958,10.758,7.375,18.078,5.784c6.531-1.42,11.686-5.058,18.5-6.289
		c4.359-0.787,7.6-4.635,9.562-8.284c2.937-5.392,9.83-7.637,11.806-13.858c1.749-5.504-0.156-11.65,2.331-17.181
		C185.361,363.32,187.095,358.566,184.895,353.064C184.29,351.545,185.293,354.059,184.895,353.064z M163.993,379.809
		c-2.118,3.345-7.535,10.509-11.366,10.757c-3.166,0.185-5.39,0.028-7.994,2.308c-2.782,2.437-5.874,4.215-8.763,0.544
		c-1.809-2.299-1.459-5.222-3.984-7.052c-3.607-2.613-4.597-2.646-3.853-7.182c1.09-6.388,1.071-15.48,3.693-20.898
		c0.828-1.885,3.627-3.483,4.914-5.227c1.832-2.57,2.299-5.72,3.555-8.652c1.925-4.494,12.351-9.749,16.11-4.873
		c3.234,4.172,7.7,8.452,8.919,13.525c1.178,4.938-0.582,9.601,0.587,14.685C166.66,371.443,165.983,376.54,163.993,379.809
		C163.918,379.926,165.269,377.713,163.993,379.809z"/>
	<path d="M247.293,389.333c2.651-4.381,6.788-6.928,7.665-12.342c0.543-3.349,0.031-6.765-0.291-10.102
		c1.855-3.555,3.14-7.393,3.693-11.37c0.919-6.88-3.375-7.756-5.843-13.217c-3.281-7.261,0.087-12.338-8.386-16.464
		c-4.77-2.323-9.588-2.406-14.638-3.165c-3.571-0.537-6.385-3.022-10.166-3.728c-5.341-1.051-14.646-0.385-18.101,4.437
		c-4.813,6.715-2.302,13.407-0.887,20.575c1.212,6.138-3.079,11.347-4.373,17.093c-1.233,5.46,1.47,10.075-1.863,15.176
		c-3.094,4.735-4.434,8.577-3.981,14.333c0.243,3.045,1.296,5.828-0.08,8.763c-1.121,2.39-2.802,6.185-0.403,8.343
		c4.33,3.893,8.778,3.084,14.008,2.871c5.467-0.243,11.649,1.511,16.901-0.921c2.639-1.215,4.614-3.329,6.964-4.962
		c2.722-1.891,6.433-0.856,8.93-2.671C242.244,397.767,243.615,395.542,247.293,389.333
		C247.663,388.72,246.992,389.841,247.293,389.333z M238.378,363.517c-1.427,4.725-4.836,8.113-6.14,13.217
		c-2.269,8.741-7.986,6.193-13.829,11.37c-6.025,5.3-8.996,1.239-6.452-5.531c1.388-3.723,2.939-5.384,3.376-9.528
		c0.398-3.755-0.645-7.72,0-11.37c1.084-6.116,4.611-10.759,3.993-17.522c-0.44-4.954,4.701-6.424,8.911-4.005
		c3.006,1.731,5.042,6.503,7.377,9.227C238.913,353.236,239.877,358.721,238.378,363.517
		C238.264,363.892,238.772,362.256,238.378,363.517z"/>
	<path d="M28.744,399.478c4.018,3.358,5.315,7.363,9.836,10.145c1.835,1.134,4.115,1.53,6.148,1.842
		c2.283,0.32,4.539,0.192,6.768-0.385c3.972-0.944,4.821,0.291,8.698,1.081c8.931,1.819,12.75-3.275,20.115-6.523
		c2.963-1.307,5.862-3.807,7.945-6.224c3.025-3.509,0.845-7.599,1.967-11.618c0.961-3.382,3.859-5.534,4.441-9.294
		c0.543-3.509-2.495-9.336-6.614-8.043c-4.649,1.459-4.52-2.178-8.585-2.948c-3.848-0.721-8.419,3.762-11.603,2.016
		c-5.903-3.236-12.787-0.885-11.393,7.15c0.477,2.751,2.896,4.544,4.249,6.826c3.15,5.312,7.033,0.626,11.366,1.23
		c-0.021,3.943,0.477,6.866-2.928,9.441c-3.732,2.821-5.556,0.292-9.414-0.643c-4.876-1.182-14.45,3.203-13.267-6.76
		c0.404-3.405,1.174-6.556-1.753-9.106c-1.992-1.748-2.5-5.136-0.743-7.228c1.893-2.253,4.682-3.828,6.174-6.416
		c1.572-2.726,0.468-7.598,0.408-10.638c1.918-3.485,5.227-3.746,8.302-5.531c2.813-1.64,2.263-3.924,3.474-6.592
		c3.943-8.691,10.443,2.608,15.898,0.361c7.171-2.954,1.364,10.744,7.369,13.917c8.504,4.488,15.951-3.228,15.374-11.66
		c-0.776-11.34-13.55-16.942-22.131-21.233c-2.029-0.966-4.917-1.09-6.942-0.059c-3.091,1.574-6.336,0.634-9.653,0.611
		c-5.468-0.038-11.83,2.595-13.496,8.186c-1.865,6.26-8.98,7.054-11.777,12.189c-1.606,2.949-3.075,4.898-3.945,8.277
		c-1.157,4.596,0.48,5.3-2.151,9.22c-1.647,2.578-7.703,11.835-5.528,15.437C29.749,383.782,20.497,392.558,28.744,399.478
		C30.192,400.688,27.627,398.541,28.744,399.478z"/>
	<path d="M497.493,433.292c2.276-3.975,1.947-0.842,5.797-0.192c4.997,0.844,6.096-2.642,10.19-3.497
		c3.095-0.656,6.036,1.533,8.911,0c3.26-1.719,4.71-6.728,3.941-10.392c-3.022-14.397-14.373-2.492-22.192-5.608
		c-6.753-2.691-22.546-3.386-26.937,2.787c-2.059,2.863-1.781,6.36-1.538,9.84c0.374,5.282-2.583,7.928-3.096,12.914
		c-0.329,3.2,2.736,8.567,1.701,11.028c-1.518,3.609-3.319,8.002-4.284,11.771c-1.133,4.429,0.901,8.251-1.082,12.539
		c-1.691,3.696-5.637,8.892-5.831,12.916c0.221,1.656,0.526,3.297,0.913,4.922c-1.179,2.498-3.323,5.08-3.384,7.986
		c-0.042,4.191,3.406,6.266,7.073,7.381c8.035,2.217,15.85-0.277,24.158,1.749c5.093,1.242,16.049-1.689,18.564-7.276
		c3.04-6.722,1.734-17.518-8.158-13.667c-2.821,1.098-5.883,4.708-9.023,2.479c-1.717-1.219-2.793-1.324-4.762-2.045
		c-3.151-1.153-0.487-3.799-0.222-6.207c0.403-3.653-1.812-8.464,0.749-11.812c2.111-2.76,9.813,0.465,13.422-0.72
		c6.537-2.112,16.6,3.702,17.518-7.073c0.325-3.389-0.295-9.628-3.993-11.37c-5.145-2.416-10.497,2.411-15.115,0.158
		c-2.131-1.04-6.72-0.907-8.246-2.308C494.385,443.666,494.327,438.73,497.493,433.292
		C498.047,432.324,496.9,434.311,497.493,433.292z"/>
	<path d="M306.006,510.44c7.879,0,16.02-0.207,23.966-0.617c9.868-0.411,11.09-7.352,14.573-15.146
		c2.376-5.316,22.545-4.272,22.925,2.854c0.226,4.197-3.396,8.709,2.204,11.043c3.644,1.519,9.21,3.173,12.592,0.401
		c8.718-7.143,3.732-13.883,4.207-23.462c0.235-4.738,0.402-8.493-0.266-13.194c-0.753-5.298-4.827-10.569-4.01-16.041
		c0.731-4.902,3.007-9.413,2.787-14.45c-0.256-5.848-3.187-10.626-3.211-16.634c-0.061-15.695-14.175-10.471-24.756-8.497
		c-4.28,4.326-6.092,6.794-8.294,12.604c-1.515,3.948-3.354,7.893-6.099,10.962c-7.01,7.841-3.147,20.736-11.389,28.088
		c-3.257,2.906-5.205,7.421-4.958,11.826c0.148,2.652-0.319,7.888-2.754,9.063c-3.312,1.458-8.184,4.265-12.075,1.943
		c-4.296-2.563-4.067-7.077-8.827-9.636c-9.129-4.564,3.233-6.398,6.76-8.603c2.378-1.427,3.902-4.159,4.918-6.76
		c1.694-4.329,5.465-5.46,7.689-9.224c5.053-8.739-4.646-15.155-3.388-23.67c1.774-12.594-14.343-15.002-22.744-17.518
		c-6.556-2.186-16.344-1.906-22.748,1.534c-3.723,2.044-6.76,5.063-6.76,9.379c0,3.77-2.633,4.095-4.682,6.919
		c-1.813,2.499-0.624,5.087,0.072,7.68c0.775,2.914,2.201,4.835,0.277,7.371c-1.973,2.601-5.147,5.84-5.499,9.229
		c-0.715,7.012-0.661,11.974-3.993,18.443c-1.533,2.964-1.783,6.324-2.463,9.528c1.656,2.586,1.388,6.564,0,9.22
		c-2.521,4.959-6.144,8.881-0.913,13.833c4.021,3.699,22.959,4.608,19.364-5.223c-1.562-4.14,1.587-4.834,2.958-8.577
		c1.385-3.781-2.74-12.411,1.652-14.476c6.181-1.81,4.319,1.34,6.452,5.539c1.984,3.756,4.922,3.871,4.922,8.615
		C284.495,507.588,295.427,510.034,306.006,510.44C306.045,510.44,304.585,510.386,306.006,510.44z M354.262,468.023
		c0.835-3.335-0.477-6.859,0.617-10.145c0.498-1.775,3.121-4.456,4.219-5.916c1.332-1.77,7.677-18.887,7.584-6.685
		c-0.026,3.383-0.939,6.44-1.53,9.73c-0.973,5.418,1.944,9.852,4.157,14.558c-2.78,5.147-12.127,2.595-16.597,2.151
		C353.04,470.405,353.556,469.175,354.262,468.023C355.086,464.733,353.903,469.417,354.262,468.023z M294.015,457.879
		c-4.853-0.573-14.503,5.513-14.142-1.534c0.256-4.593,3.331-18.199,7.943-19.19c2.893-0.621,5.027-0.05,6.689,2.309
		c1.853,2.631,5.886,1.507,8.221,4.402C305.143,446.861,298.319,458.4,294.015,457.879
		C292.528,457.703,296.271,458.152,294.015,457.879z"/>
	<path d="M555.586,428.983c3.302,0.604,3.714,6.682,5.219,8.919c2.318,3.399,6.156,4.148,9.919,3.369
		c6.857-1.419,6.904-11.551,2.953-15.457c-5.71-5.644-10.937-10.534-19.004-11.582c-6.755-0.855-18.029,3.188-18.524,11.392
		c-0.243,4.026-3.472,6.745-3.92,10.74c-0.509,4.688,1.876,7.177,4.692,10.325c2.929,3.274,1.778,8.229,2.663,12.197
		c1.103,4.946,5.831,7.89,9.081,11.395c1.752,1.889,4.475,6.378,3.857,9.109c-0.698,3.015-3.904,3.746-4.313,7.381
		c-0.302,2.846-1.909,5.635-5.314,4.06c-3.593-1.662-2.564-5.477-4.518-8.358c-5.298-7.628-15.151-7.961-19.185,0.603
		c-1.778,3.775,1.25,5.617,2.589,8.62c1.069,2.426,1.069,5.417,2.459,7.682c3.61,5.849,12.109,10.747,18.942,9.988
		c4.129-0.459,7.748-1.454,11.363-3.464c3.59-1.997,5.254-5.503,9.032-7.448c3.354-1.71,10.103-6.421,11.374-10.141
		c2.705-7.828-1.1-14.522-3.072-22.128c-1.062-4.144-2.008-9.021-6.76-10.449c-5.613-1.935-5.037-3.328-5.754-9.043
		c-0.545-4.347-2.716-7.708-6.41-9.897C549.674,434.853,551.407,428.227,555.586,428.983
		C556.995,429.24,554.571,428.799,555.586,428.983z"/>
	<path d="M416.043,418.225c-2.508,3.373-4.373,8.321-4.922,12.6c-0.526,4.262,0.374,8.143-1.218,12.299
		c-0.791,1.974-1.995,3.621-2.576,5.538c-1.396,4.609-3.321,7.476-3.558,12.75c-0.284,6.32,1.413,11.121-2.785,17.059
		c-3.977,5.62-1.204,9.934-2.463,16.288c-0.771,4.037-5.368,11.508,0.735,14.519c5.323,2.626,11.273,1.415,16.912,0.068
		c5.946-1.421,14.217-0.308,19.415-3.345c7.224-4.221,16.424-14.252,19.902-22.208c2.375-5.431,3.053-10.351,6.127-15.547
		c3.495-5.909,2.969-11.74,0.54-17.742c-2.127-5.112-2.072-10.781-4.104-15.888c-2.529-6.354-8.489-6.383-12.656-10.714
		c-3.892-4.045-5.151-7.159-10.594-8.751C429.9,413.696,419.125,414.002,416.043,418.225
		C415.715,418.666,416.676,417.359,416.043,418.225z M420.962,480.935c0.559-5.097,4.307-7.956,5.531-12.608
		c1.409-5.194-1.256-9.905,1.237-15.063c1.537-3.33,3.249-7.885,2.432-11.573c-0.596-2.688-0.884-6.116,2.961-4.937
		c5.783,1.773,5.775,4.908,5.669,10.058c-0.101,4.852,4.211,6.58,4.602,11.378c0.339,3.904-1.263,5.409-2.76,8.603
		c-1.748,3.698-0.733,7.544-1.534,11.374c-1.288,5.407-7.492,4.391-11.049,7.238C422.422,489.91,420.091,488.59,420.962,480.935
		C421.25,478.301,420.563,484.437,420.962,480.935z"/>
	<path d="M239.611,472.02c3.017-8.415-0.822-8.007-2.151-16.597c-1.234-6.4,2.789-12.225,0.917-19.06
		c-1.95-7.187,3.685-16.588-6.456-19.064c-4.288-1.043-18.774-0.284-20.697,5.139c-1.09,3.073-0.814,4.8-3.276,6.852
		c-2.892,2.317-6.381,4.168-6.417,8.385c-0.056,6.593-3.909,10.351-8.329,14.972c-4.693,4.765-0.477,12.966-5.223,17.518
		c-2.21,1.969-5.971,4.46-7.381,7.377c-1.678,3.46-0.388,7.478-1.917,10.806c-2.455,5.345-7.625,9.117-8.529,15.014
		c-1.235,7.993,9.376,14.211,15.202,7.671c2.139-2.402,3.817-5.197,5.7-7.663c2.317-3.146,3.371-8.068,7.682-8.907
		c3.847-0.755,8.103,1.766,11.683-0.312c2.764-1.562,11.139-4.044,10.145,2.463c-1.479,9.961,2.198,15.641,12.908,13.833
		c6.596-1.129,7.255-9.099,7.689-15.067c0.402-5.481-2.322-8.861-3.38-13.837C237.046,478.2,238.495,475.09,239.611,472.02
		C240.427,469.745,239.424,472.536,239.611,472.02z M223.935,459.417c-0.852,4.487-3.579,5.497-1.236,10.601
		c3.201,6.975-5.4,3.369-8.655,4.157c-2.538,0.614-8.508,4.232-10.082,0.992c-1.212-2.494,0.716-9.665,1.812-12.121
		c1.898-4.256,5.085-7.72,7.096-11.928c1.657-3.489,2.78-8.857,5.831-11.374c4.853-3.986,4.836,2.975,4.309,5.527
		C221.952,450.35,224.837,454.561,223.935,459.417C223.537,461.513,224.158,458.218,223.935,459.417z"/>
	<path d="M94.217,456.657c5.618-5.171,0.154-24.503-5.527-28.291c-6.928-4.562-12.273-10.384-20.906-11.066
		c-5.059-0.365-7.272,3.945-11.366,5.839c-4.566,2.129-9.353,2.429-13.533,5.226c-3.824,2.66-5.393,5.217-5.531,10.149
		c-3.579,2.983-6.728,5.222-9.532,8.911c-1.321,1.715-1.691,4.136-2.151,6.148c-0.585,2.628,1.143,5-0.398,7.461
		c-1.19,1.9-2.597,3.743-3.595,5.755c-1.761,3.498-2.714,7.061-0.617,10.457c3.076,4.946,0.653,9.363-0.609,14.747
		c-3.066,13.077,8.775,11.518,13.265,19.882c5.746,10.702,18.056,2.889,25.667,0.579c8.938-2.712,13.855-6.844,19.773-13.705
		c5.834-6.634,8.249-15.937-3.374-17.856c-8.161-1.347-10.293,7.923-14.979,11.356c-1.691,1.239-11.461,1.384-13.831,0.77
		c-5.355-1.386-4.188-9.899-3.164-13.631c1.327-4.776-2.802-10.727-0.602-14.667c2.4-4.299,4.965-6.775,4.599-12.075
		c2.211-2.551,6.92-5.224,8.298-8.294c0.771-1.612,3.746-4.748,5.514-5.428c4.31-1.657,6.026,4.577,8.079,6.745
		c1.456,1.537,3.506,2.098,4.988,3.56c1.87,1.846,1.249,4.332,2.321,6.494C80.244,462.105,89.806,460.677,94.217,456.657
		C95.591,455.392,94.042,456.817,94.217,456.657z"/>
	<path d="M169.832,442.816c-0.828-7.098,7.642-14.616,2.334-20.778c-7.517-8.726-20.882,1.444-18.875,11.399
		c1.083,5.374-3.692,10.497-4.053,15.828c-0.238,3.382-0.177,10.141-4.301,11.378c-4.023,1.154-24.792,5.296-21.207-3.689
		c1.147-2.878,3.675-4.968,4.606-7.994c1.412-4.094-1.229-8.956,0.525-12.918c1.149-2.594,3.505-4.379,3.78-7.367
		c0.541-5.868-6.334-8.867-11.203-7.869c-4.575,0.937-7.809,0.074-11.509,3.887c-4.695,4.837-1.451,8.073-2.182,13.819
		c-0.577,4.408-3.894,7.988-4.918,12.291c-1.551,6.525,0.774,12.274-1.765,18.974c-1.131,2.983-2.246,4.934-3.717,7.858
		c-2.374,4.72,1.66,10.12-1.129,14.666c-2.529,4.122-5.144,6.194-4.78,11.404c0.432,6.196,3.568,9.686,10.076,9.88
		c4.757,0.142,8.347-0.046,12.039-3.392c2.962-2.684,1.276-5.387,1.868-8.679c3.058-4.379,7.067-8.983,4.41-15.28
		c-1.066-2.526,2.958-4.701,4.809-4.701c5.345,0.293,8.284-0.958,13.336-2.251c7.802-1.997,2.765,4.668,1.088,7.278
		c-2.747,4.275,0.345,8.567,0.638,12.811c0.303,5.015-3.623,9.273,2.228,12.336c4.001,2.095,8.659,1.579,12.483-0.483
		c4.182-2.255,6.903-6.687,6.622-11.538c-0.411-7.119,0.393-9.477,2.946-15.679c2.434-6.046-0.386-11.893,0-18.135
		C164.506,457.285,170.921,452.045,169.832,442.816C169.66,441.344,170.16,445.595,169.832,442.816z"/>
	<path fill="#FF6757" d="M464.491,630.17"/>
	<path fill="#FF6757" d="M480.448,577.815c2.408,4.228,18.327-5.001,21.484-7.428c0.577-3.105-0.609-4.368-3.707-4.466
		c-4.748-0.15-3.297-3.087-2.455-6.287c2.082-7.911-8.481-0.453-9.962,1.51C482.968,564.91,477.664,572.944,480.448,577.815
		C480.943,578.685,480.135,577.269,480.448,577.815z"/>
	<path fill="#FF6757" d="M520.913,609.268c-2.48,3.608-9.325,6.541-13.099,9.305c-2.421,1.776-10.528,13.397-4.683,12.699
		c4.354-0.519,8.421-0.276,11.967-3.394C517.448,625.832,527.39,610.743,520.913,609.268
		C520.698,609.58,522.096,609.537,520.913,609.268z"/>
	<path fill="#FF6757" d="M219.544,258.44c0.852,5.159,1.553,11.22,3.344,16.15c2.802,7.715,1.754,15.742,12.258,13.288
		c3.891-0.893,5.247,2.669,6.104,5.968c1.399,5.383-4.576,3.465-8.309,3.65c-6.175,0.319-12.926,0.156-19.131-0.472
		c-2.66-0.269-4.211-0.553-4.769,2.302c2.148,2.131,6.7,1.673,9.358,1.685c8.605,0.038,16.992-0.166,25.553,0.38
		c9.346,0.577,18.685-0.468,28.033-0.203c3.634,0.108,19.274,3.453,20.477-1.76c-2.764-1.734-10.586-1.225-13.992-1.248
		c-3.908-0.026-10.819,1.205-14.412-0.259c-3.494-1.421-5.152-8.734-6.542-11.611c-2.18-4.513-5.076-8.763-7.545-13.111
		c-2.808-4.944-10.089,2.68-12.986-0.941c-3.018-3.772-5.066-8.493-7.517-12.636c-2.097-3.609-3.724-8.267-6.37-11.503
		C216.879,240.655,219.189,256.319,219.544,258.44C219.751,259.693,218.966,254.986,219.544,258.44z"/>
	<path fill="#FFFFFF" d="M391.129,664.546c9.952,1.169,20.6-0.347,30.732-0.088c5.103,0.13,32.629,2.641,30.639-5.115
		c-1.872-1.376-13.939,0.769-16.189,1.253c-5.827,1.255-14.022-1.259-20.224-1.117c-6.62,0.158-13.139,0.337-19.77,0.156
		c-2.599-0.075-5.816,0.213-8.329-0.617c-1.044-0.345-3.512-2.658-4.564-2.189C381.758,660.986,388.221,664.191,391.129,664.546
		C392.159,664.667,387.393,664.089,391.129,664.546z"/>
	<path fill="#FFFFFF" d="M445.236,667.755c-6.093-0.238-12.327-0.37-18.466-0.148c-6.373,0.202-13.879-1.139-20.059,0.082
		c-3.637,0.706-7.542-0.261-11.218-0.157c-2.167,0.061-4.128,0.335-6.304-0.069c-2.658-0.497-4.259-2.648-6.639-3.146
		c-2.705,8.405,8.898,6.905,13.724,7.014c7.47,0.147,15.5,1.295,22.792,0.388c4.153-0.516,31.16,1.446,31.116-4.018
		C448.531,667.426,446.882,667.444,445.236,667.755C444.237,667.716,447.047,667.813,445.236,667.755z"/>
	<path fill="#FFFFFF" d="M385.809,653.39c4.243,5.158,15.479,3.179,21.538,2.736c9.966-0.732,19.832,1.528,29.661,0.999
		c5.43-0.38,14.892,0.884,17.916-5.227c4.768-9.734,4.807-20.093,7.696-30.331c3.492-12.374-4.056-11.439-13.68-12.172
		c-9.801-0.747-20.47-1.265-30.184-0.456c-6.031,0.411-19.646-2.447-23.792,3.32c-5.253,7.308,11.427,15.718,9.038,23.109
		c-1.542,1.289-12.095-10.656-13.099-11.702C389.003,629.875,381.965,648.869,385.809,653.39
		C386.207,653.874,385.609,653.156,385.809,653.39z"/>
	<path fill="#FF6757" d="M406.59,605.809c-4.099-0.152-14.157,0.252-15.223,5.582c-3.529-6.014-6.92-12.21-10.876-17.962
		c-2.693-3.915-13.983-16.47-5.409-17.273c4.818-0.449,16.351,4.116,11.94-5.02c-3.148-6.424-6.575-12.777-10.503-18.756
		c-1.922-2.925-3.874-5.842-5.597-8.892c-2.28-4.035-1.615-4.408,2.973-4.64c7.151-0.389,14.961-0.503,22.192-0.273
		c1.558,0.049,15.472,0.615,13.843-4.286c-1.994-1.42-5.839,0.447-8.112,0.307c-4.452-0.272-8.817,0.793-13.309,0.864
		c-9.027,0.152-17.81-0.705-26.868-0.051c-7.562,0.546-15.285-0.575-22.694,0.143c-5.813,0.563-13.076,0.531-18.913,0.303
		c-2.538-0.11-19.66-4.252-18.222,0.326c2.207,7.023,26.912,2.153,32.102,2.988c5.353,0.845,11.143,9.112,14.407,12.912
		c1.656,1.888,7.745,7.891,8.279,10.074c-2.033,3.645-14.084,1.32-17.757,3.585c-3.35,2.066,7.425,11.409,8.845,13.395
		c4.122,5.76,11.122,10.732,16.077,16.177c5.153,5.663,10.521,11.274,15.922,16.709c1.551,1.561,3.11,3.099,4.624,4.699
		c4.514,4.77,3.912,6.404,1.92,12.609c-2.141,6.667-1.304,15.334-5.454,20.677c-1.947,0.881-2.489,15.565-1.869,18.037
		c1.911,7.617,9.687,6.89,16.453,6.562c15.698-0.761,31.554,1.59,47.24-0.777c2.414-0.364,5.18-0.391,7.35-1.514
		c4.063-2.103,3.373-8.799,8.322-8.511c5.993-3.061,12.395-4.287,18.416-8.023c4.756-2.951,10.96-10.344,14.157-14.726
		c5.806-7.695-6.012-5.772-3.085-9.348c4.746-5.799,9.296-13.643,12.074-20.644c0.958-2.394,4.609-11.802-1.947-10.172
		c-2.565,0.638-8.161,4.51-10.821,3.275c0-1.769,8.319-20.484,0.763-17.581c-4.716,1.812-8.336,5.395-12.254,7.85
		c-1.727,1.299-3.882,1.678-5.929,2.244c-6.227,1.732-4.966-3.115-3.688-8.05c0.522-2.014,8.563-24.187,1.756-21.986
		c-5.941,1.921-12.068,8.1-16.347,12.436c-8.015,8.121-1.997-19.623-13.861-8.104c-3.193,3.1-5.785,6.637-8.045,10.458
		c-1.333,2.254-3.692,10.004-6.6,10.776c-4.547-2.807-4.064-5.366-8.574,0.072C410.988,596.261,408.845,601.204,406.59,605.809
		C405.852,605.782,407.526,603.897,406.59,605.809z M385.762,647.215c1.598-8.123,2.688-15.574,5.125-23.545
		c0.999,1.041,11.572,12.991,13.099,11.702c2.389-7.39-14.293-15.804-9.038-23.108c4.141-5.756,17.766-2.933,23.792-3.321
		c9.718-0.804,20.378-0.289,30.184,0.454c3.442,0.261,12.499-1.456,14.092,2.738c1.912,5.031-1.132,11.11-1.821,16.064
		c-0.883,6.347-1.896,22.283-8.202,26.26c-5.237,3.303-15.393,3.592-21.362,2.151c-9.483-2.29-19.668,1.103-29.11-0.088
		c-4.342-0.548-9.786,0.818-13.945-0.607C383.531,654.18,385.051,650.791,385.762,647.215
		C386.144,645.272,385.481,648.628,385.762,647.215z M383.439,656.829c0.713-0.323,2.558,1.253,2.668,1.315
		c3.044,1.74,6.843,1.399,10.225,1.491c7.572,0.198,15.274-0.503,22.803-0.088c5.799,0.32,13.918,2.318,19.353,0.412
		c1.63,0.268,19.388-1.905,13.203,3.04c-3.224,2.578-12.985,2.008-16.793,1.557c-6.606-0.781-14.48-0.72-21.089-0.06
		C409.466,664.931,379.334,667.108,383.439,656.829C383.974,656.587,382.951,658.051,383.439,656.829z M449.167,669.32
		c-2.705,2.538-11.333,2.125-14.524,1.425c-5.342,2.056-12.554-1.141-17.651,1.593c-5.174-3.092-38.416,4.316-34.45-8.006
		c1.875,0.387,2.899,2.345,4.853,2.787c2.772,0.627,5.292,0.507,8.089,0.428c4.754-0.134,9.689-0.218,14.484-0.047
		c6.805,0.242,13.507-0.314,20.281-0.268c3.265,0.023,5.834,1.386,9.121,0.517c2.375-0.628,8.439-1.008,10.802-0.018
		C450.117,668.449,449.782,668.979,449.167,669.32C448.534,669.913,449.573,668.945,449.167,669.32z"/>
	<path fill="#FF6757" d="M100.588,127.325c-0.106,0.499,4.607,6.186,5.09,6.884c1.855,2.682,4.232,5.637,6.553,7.913
		c3.235,3.127,9.666,7.169,10.189,11.936c1.433,13.066,1.594,25.676,7.481,37.85c2.139,4.357,9.082,10.035,0.117,11.16
		c-8.303,1.038-14.043,0.954-12.491,10.75c3.007,3.676,14.782,1.885,18.416,0.609c6.52-2.319,8.019-7.606,12.904-11.519
		c1.366,2.094-3.663,8.283-4.785,9.743c-3.058,3.945-5.704,6.478-7.316,11.397c-1.809,5.521,2.017,9.298,3.69,13.945
		c2.528,7.027,11.045,2.403,14.755-0.814c3.968-3.493,8.174-7.026,12.506-10.044c2.917-2.032,2.7-5.095,4.485-8.118
		c2.481-4.236,4.16-4.086,3.911-9.473c-0.221-4.461-0.939-10.857,1.269-15.086c7.325,10.212,14.034,20.803,21.247,31.313
		c2.497,3.637,3.907,9.334,7.556,12.07c3.213,2.409,13.683,7.311,12.797-1.368c-1.138-10.548-8.174-23.326-13.295-32.396
		c-4.333-7.675-8.357-19.254-14.703-25.34c-7.31-7.01-11.052-18.414-18.775-25.437c-3.86-3.51-7.411-7.735-11.171-11.485
		c-3.787-3.777-8.848-6.672-11.908-10.889c-3.438-4.738-4.073-11.304-7.245-16.134c-2.572-3.978-8.886-0.845-12.339-0.494
		c-6.978,0.71-14.065,2.329-20.939,3.74C106.465,118.473,91.57,125.136,100.588,127.325
		C100.322,128.57,99.784,127.13,100.588,127.325z M142.911,227.062c-0.38,1.281-1.217,2.063-2.51,2.346
		c-2.214-6.221,4.718-11.995,7.956-16.382c2.038-2.761,4.48-17.045,6.56-17.682C163.563,210.185,151.388,216.831,142.911,227.062
		C142.208,227.87,143.137,226.789,142.911,227.062z M159.231,229.252c-2.411,2.329-15.81,13.723-15.35,4.883
		c0.241-4.647,4.775-8.448,7.696-11.245c2.524-2.409,6.03-4.672,7.848-7.587c1.553-2.488,2.874,0.578,4.186,1.775
		c2.509,2.316,6.654,1.604,2.938,5.987C164.459,225.529,161.536,227.031,159.231,229.252
		C157.849,230.587,162.111,226.476,159.231,229.252z M172.904,191.281c-1.149,0.131-0.494-1.767,0.363-2.026
		C173.767,190.08,173.646,190.756,172.904,191.281C172.217,191.359,173.817,191.042,172.904,191.281z M117.528,120.073
		c6.076-1.917,20.718-7.233,23.354,0.565c2.852,8.435,7.008,13.752,13.622,19.478c14.536,12.515,24.488,27.708,35.288,43.348
		c10.216,14.794,17.634,31.934,23.675,48.547c1.205,3.279,2.384,9.018-3.361,4.832c-3.341-2.442-5.803-7.808-7.381-11.512
		c-2.17-5.097-6.68-9.113-9.238-14.128c-2.072-4.061-4.324-7.582-7.098-11.137c-2.339-3.022-5.277-6.147-7.248-9.401
		c-1.621-2.677,4.467-5.743,1.038-6.446c-5.452-1.117-9.296,4.97-9.619-3.714c-0.164-4.419-1.196-11.067-3.106-15.12
		c-2.951-6.255-3.401,0.401-2.537,3.31c1.472,4.944,1.581,10.054,2.579,15.078c1.772,8.914,4.909,17.965,5.058,27.045
		c0.099,6.022-5.574,5.575-8.488,1.316c-1.965-2.88-3.119-7.332-3.817-10.703c-0.866-3.982-1.343-8.754-3.492-12.351
		c-2.588-4.332-6.777-7.419-9.689-11.564c-2.095-2.984-4.273-10.56-6.875-12.447c-3.949-2.865-0.386,8.294,0.267,9.605
		c3.147,6.499,10.399,10.337,13.318,16.847c-2.365,1.89-5.522,0.511-7.989,1.945c-2.776,1.613,2.721,3.071,0.331,6.724
		c-3.495,5.39-9.095,11.551-15.982,11.731c-2.659,0.07-6.503,0.516-8.953-0.718c-4.603-2.319,5.235-5.002,6.211-5.131
		c3.749-0.496,7.878,0.774,10.195-3.117c1.963-3.296,1.364-4.338,4.075-6.909c2.323-2.204-2.948-2.289-3.368-2.808
		c-1.217-0.435-2.47-0.704-3.759-0.808c-0.977-2.49-2.437-4.734-3.54-7.163c-3.306-7.281-4.003-16.018-4.372-23.767
		c-0.387-9.822-2.283-12.605-9.102-19.63c-5.381-5.544-9.896-11.494-14.193-17.908C107.178,120.612,112.957,121.523,117.528,120.073
		C119.284,119.519,112.657,121.619,117.528,120.073z"/>
</g>
</svg>
