<?xml version="1.0" encoding="utf-8"?>
<!-- Generator: Adobe Illustrator 18.1.1, SVG Export Plug-In . SVG Version: 6.00 Build 0)  -->
<!DOCTYPE svg PUBLIC "-//W3C//DTD SVG 1.0//EN" "http://www.w3.org/TR/2001/REC-SVG-20010904/DTD/svg10.dtd">
<svg version="1.0" id="Layer_1" xmlns="http://www.w3.org/2000/svg" xmlns:xlink="http://www.w3.org/1999/xlink" x="0px" y="0px"
	 viewBox="0 0 113.1 107.4" enable-background="new 0 0 113.1 107.4" xml:space="preserve">
<g id="XMLID_1_">
	<path fill="#FFFFFF" d="M33.3,6.6c0.5,0,0.9,0,1.4,0.2c0.4,0.1,0.8,0.2,1.2,0.1c0.2-0.1,0.5,0,0.7,0c0.4-0.2,0.7-0.6,1-0.9
		c0.7-0.8,1.5-1.3,2.4-1.8c0.1-0.1,0.2-0.1,0.3-0.2c0.5-0.4,1-0.7,1.7-0.8c0.2,0,0.3-0.2,0.4-0.3c0.3-0.1,0.5-0.2,0.8-0.3
		c0.4-0.1,0.8-0.2,1.2-0.4c0.3-0.1,0.5-0.3,0.8-0.3c0.6,0,1.1-0.2,1.7-0.2c1.2,0,2.3,0.3,3.5,0.7c0.7,0.2,1.3,0.6,1.9,1.1
		C53,4,53.6,4.6,54.1,5.4c0.3,0.5,0.7,0.9,1.4,1.1c0.5-0.2,1-0.5,1.4-0.9c0.7-0.7,1.6-1.1,2.3-1.8c0.1-0.1,0.2-0.1,0.2-0.1
		c0.5-0.1,1-0.4,1.5-0.7c0.8-0.4,1.6-0.7,2.4-1c0.6-0.2,1.3-0.4,1.9-0.4c0.4,0,0.8-0.2,1.3-0.2c0.4,0.1,0.8,0,1.3,0
		c0.4,0,0.7,0,1.1,0.2c0.1,0,0.3,0,0.4,0c0.3,0,0.7,0,1,0.1c0.8,0.2,1.7,0.3,2.5,0.6c1,0.4,2,1,2.9,1.7c0.8,0.6,1.3,1.4,1.7,2.2
		c0.4,0.8,0.7,1.6,0.9,2.5c0.1,0.3,0.2,0.7,0.2,1.1c0.1,0.9,0.6,1.2,1.4,1.4c0.3,0.1,0.7,0,1.1,0c0.2,0,0.4-0.1,0.6-0.1
		c0.6,0.2,1.2,0.1,1.8,0.3c0.6,0.1,1.2,0.2,1.8,0.3c0.2,0.1,0.4,0.1,0.7,0.2c1.2,0.4,2.4,1.1,3.4,2c0.7,0.6,1.2,1.5,1.7,2.3
		c0.6,1,1,2,1.2,3.1c0.1,0.3,0.1,0.6,0.1,1c0,0.2,0.1,0.4,0.4,0.5c0.8,0.2,1.5,0.5,2.3,0.5c0.5,0,1,0,1.5,0c1.8,0,3.3,0.6,4.8,1.5
		c0.7,0.4,1.3,1,1.7,1.7c0.8,1.4,1.4,2.9,1.7,4.5c0.1,0.6,0.1,1.2,0,1.9c0,0.6,0,1.2,0,1.8c0.5,0.7,1.2,1.1,2.2,1.3
		c1.2,0.3,2.1,1.1,2,2.6c0,0.5-0.2,1-0.5,1.5c-0.3,0.4-0.5,0.8-0.8,1.2c-0.3,0.3-0.5,0.7-0.7,1.1c0.1,0.2,0.2,0.4,0.4,0.5
		c0.2,0.1,0.5,0.3,0.7,0.5c1,0.8,1.5,1.8,2,2.9c0.1,0.3,0.2,0.7,0.2,1c0,0.8,0.2,1.5,0.2,2.2c-0.1,0.9,0,1.8-0.1,2.7
		c-0.1,1.2-0.4,2.4-1,3.5c-0.2,0.3-0.4,0.4-0.6,0.4c-0.2,0.2-0.4,0.5-0.7,0.7c0,0.1-0.1,0.1-0.1,0.1c-0.1,0.2-0.3,0.5-0.4,0.8
		c0,0.1,0,0.2-0.1,0.3c0.1,0.1,0.1,0.3,0.2,0.5c0.1,0.1,0.3,0.2,0.4,0.3c0.3,0.6,0.8,1,1.1,1.5c0.3,0.5,0.7,1,1.1,1.5
		c0.1,0.2,0.2,0.4,0.3,0.6c0.6,1.2,0.9,2.5,1,3.8c0.1,1-0.1,1.9-0.4,2.8c-0.3,1.1,0,1.4-0.6,2.4c-0.2,0.3-0.2,1.3-0.4,1.6l-0.1,0.8
		c-0.1,0.7,0.3,1.1,0.2,1.8c0.1,0.1,0.1,0.2,0.1,0.4c0.2,0.8,0.2,1.6,0.1,2.5c0,0.8-0.1,1.7-0.1,2.5c0,0.9-0.2,1.8-0.6,2.6
		c-0.5,1.4-1.2,2.8-1.9,4.1c-0.4,0.8-0.9,1.7-1.5,2.4c-0.8,1.1-1.5,2.1-2.6,3c-0.3,0.2-0.5,0.5-0.8,0.8c-1.1,1.1-2.3,2.1-3.6,2.9
		c-0.2,0.2-0.5,0.3-0.7,0.5c-1.1,0.8-2.2,1.4-3.5,1.8c-0.4,0.1-0.8,0.3-1.2,0.4c-0.8,0.1-1.6,0.3-2.3,0.2c-0.3,0-0.6,0-1,0
		c-0.2,0-0.5,0-0.8,0c-1-0.2-2.1-0.3-3-0.7c-0.4-0.1-0.7-0.3-1.1-0.4c-0.9-0.3-1.3-0.1-2,0.6c-0.2,0.3-0.5,0.6-0.4,1
		c-0.4,1.1-0.9,2.1-1.9,2.8c-0.6,0.4-1.1,0.9-1.7,1.4c-0.6,0.4-1.3,0.6-2,0.7c-1.5,0.1-2.8-0.4-4-1.1c-0.2-0.1-0.5-0.3-0.6-0.5
		c-0.2-0.5-0.7-0.8-0.9-1.3c-0.2-0.4-0.7-0.5-1.1-0.3c-0.1,0.1-0.3,0.1-0.4,0.2c-0.9,0.7-1.8,1.3-2.7,2c-0.3,0.2-0.7,0.5-1,0.6
		c-0.9,0.4-1.6,0.9-2.6,1.2c-0.3,0.1-0.6,0.2-0.9,0.4c-0.6,0.3-1.3,0.5-2,0.7c-0.2,0-0.4,0.1-0.6,0.2c-0.4,0.1-0.7,0.2-1.1,0.2
		c-0.2,0-0.3,0-0.5,0.1c-0.7,0.3-1.5,0.3-2.2,0.3c-0.5,0-1.1-0.1-1.7,0.1c-1.2,0-2.5,0.1-3.7-0.3c-0.4-0.1-0.7-0.2-1-0.2
		c-0.4,0-0.8-0.1-1.2-0.2c-0.8-0.2-1.6-0.4-2.5-0.7c-1-0.3-1.8-0.9-2.7-1.4c-0.1-0.1-0.3-0.2-0.4-0.3c-0.6-0.4-1-0.8-1.4-1.3
		c-0.3-0.5-0.8-0.9-1.2-1.3c-0.4-0.5-0.8-1-1.1-1.5c-0.2-0.3-0.3-0.7-0.4-1.1c-0.2-0.8-0.5-1.6-0.8-2.3c-0.2-0.5-0.5-0.8-1.1-0.9
		c-0.1,0-0.1,0-0.2-0.1c-0.5,0.3-1.1,0.4-1.6,0.5c-0.6,0.1-1.2,0.2-1.7,0.5c-0.6,0.2-1.2,0.2-1.8,0.4c0,0-0.1,0-0.1,0
		c-1.2,0-2.4,0-3.5-0.2c-0.2,0-0.3-0.1-0.5-0.1c-1-0.1-1.9-0.4-2.9-0.5c-0.2,0-0.4-0.1-0.5-0.2c-0.6-0.4-1.3-0.7-2-1.1
		c-0.9-0.7-1.7-1.4-2.2-2.5c-0.1-0.2-0.2-0.4-0.3-0.6c-0.4-0.5-0.5-1.1-0.5-1.7c0-0.3-0.1-0.5-0.2-0.8c-0.2-0.7-0.7-0.9-1.3-1
		c-0.4,0-0.8-0.1-1.2-0.1c-0.7,0-1.4-0.2-2.1-0.5c-0.2-0.1-0.5-0.2-0.8-0.2c-0.4,0-0.7-0.1-1-0.3c-0.3-0.2-0.7-0.4-1.1-0.6
		c-0.4-0.2-0.7-0.3-1-0.6c-0.1,0-0.1-0.1-0.2-0.1c-0.5-0.2-1-0.5-1.4-0.8c-0.4-0.4-0.9-0.7-1.3-1c-0.2-0.2-0.4-0.4-0.5-0.6
		c-0.5-0.6-0.9-1.2-1.2-1.9c-0.2-0.5-0.6-0.9-0.9-1.4c-0.1-0.2-0.3-0.5-0.4-0.7c-0.2-0.5-0.5-1.1-0.8-1.6c-0.2-0.2-0.2-0.5-0.3-0.7
		c-0.4-1-0.8-2-1-3.1c-0.2-0.7-0.5-1.4-0.8-2.1c-0.4-0.8-0.6-1.7-0.7-2.6C2,67,2,66.2,1.8,65.4c-0.1-0.2,0-0.5,0-0.8
		c0-0.6,0.1-1.2-0.1-1.9c0-0.2,0-0.3,0-0.5c0.2-0.6,0.2-1.2,0.2-1.8c0-0.3,0.1-0.6,0.2-1c0.2-0.5,0.3-1.1,0.5-1.6
		c0.1-0.5,0.3-1,0.4-1.6c0.1-0.5,0.2-1,0.6-1.4c0.2-0.2,0.3-0.5,0.4-0.8c0.3-0.8,0.8-1.5,1.3-2.2c0.1-0.1,0.1-0.2,0.2-0.2
		c0.6-1,1.4-1.9,2.2-2.6c0.6-0.5,1.1-0.9,1.6-1.4c0,0,0.1-0.1,0.2-0.1c0.6-0.2,1.1-0.6,1.6-0.9c0.5-0.2,0.9-0.5,1.3-0.7
		c0.4-0.1,0.6-0.5,0.9-0.8c0.1-0.2,0.2-0.5,0.4-0.7c0.1-0.2,0.1-0.4,0-0.7c-0.1-0.4-0.2-0.7-0.4-1.1c-0.2-0.4-0.3-0.7-0.3-1.1
		c-0.1-0.6-0.2-1.2-0.4-1.7c0-0.1,0-0.1,0-0.2c-0.1-1.1-0.3-2.2-0.2-3.2c0.1-0.5,0.1-0.9-0.1-1.4c0-0.2,0-0.5,0-0.7
		c0.1-0.6,0.2-1.2,0.3-1.7c0.1-0.5,0.3-1.1,0.5-1.6c0.2-0.5,0.4-1.1,0.7-1.5c0.4-0.6,0.9-1.2,1.5-1.7c0.2-0.1,0.4-0.3,0.6-0.4
		c0.3-0.2,0.5-0.4,0.8-0.5c0.7-0.3,1.4-0.6,2.1-1c0.2-0.1,0.5-0.3,0.6-0.5c-0.1-0.3-0.1-0.6-0.2-0.9c0-0.8-0.1-1.6-0.3-2.3
		c0-0.1,0-0.1,0-0.2c0.2-0.4,0-0.8,0-1.2c0-0.1,0-0.3,0-0.4c0.2-0.6,0.2-1.2,0.2-1.9c0-0.1,0.1-0.2,0.1-0.4c0.4-1.1,0.8-2.2,1.2-3.3
		c0.2-0.4,0.4-0.8,0.7-1.2c0.2-0.2,0.3-0.4,0.4-0.6c0.3-0.6,0.7-1.1,1.1-1.6c0.2-0.2,0.4-0.5,0.6-0.7c0.8-0.6,1.7-1.3,2.5-1.9
		c0.6-0.5,1.4-0.8,2-1.2c0.2-0.1,0.4-0.2,0.6-0.3c0.8-0.2,1.6-0.5,2.3-0.7c0.3-0.1,0.7-0.2,1.1-0.2C32.3,6.6,32.8,6.6,33.3,6.6z"/>
	<path d="M1.8,60.4c0,0.6,0,1.2-0.2,1.8c-0.1,0.2-0.1,0.3,0,0.5c0.2,0.6,0.1,1.2,0.1,1.9c0,0.3,0,0.5,0,0.8C2,66.2,2,67,2.1,67.9
		c0.1,0.9,0.3,1.8,0.7,2.6c0.3,0.7,0.6,1.4,0.8,2.1c0.2,1.1,0.6,2.1,1,3.1c0.1,0.2,0.2,0.5,0.3,0.7c0.3,0.5,0.6,1,0.8,1.6
		c0.1,0.2,0.2,0.5,0.4,0.7c0.3,0.5,0.7,0.9,0.9,1.4c0.3,0.7,0.8,1.3,1.2,1.9c0.1,0.2,0.3,0.4,0.5,0.6c0.4,0.3,0.9,0.7,1.3,1
		c0.4,0.3,0.9,0.7,1.4,0.8c0.1,0,0.1,0.1,0.2,0.1c0.3,0.3,0.7,0.4,1,0.6c0.4,0.2,0.8,0.4,1.1,0.6c0.3,0.2,0.6,0.4,1,0.3
		c0.3,0,0.5,0.1,0.8,0.2c0.6,0.3,1.4,0.5,2.1,0.5c0.4,0,0.8,0,1.2,0.1c0.6,0,1.1,0.3,1.3,1c0.1,0.2,0.1,0.5,0.2,0.8
		c0.1,0.6,0.2,1.2,0.5,1.7c0.1,0.2,0.2,0.4,0.3,0.6c0.4,1.1,1.3,1.8,2.2,2.5c0.6,0.4,1.3,0.8,2,1.1c0.2,0.1,0.4,0.2,0.5,0.2
		c1,0.1,1.9,0.4,2.9,0.5c0.2,0,0.3,0,0.5,0.1c1.2,0.2,2.4,0.1,3.5,0.2c0,0,0.1,0,0.1,0c0.6-0.2,1.2-0.2,1.8-0.4
		c0.5-0.2,1.1-0.3,1.7-0.5c0.6-0.1,1.1-0.3,1.6-0.5c0.1,0,0.2,0.1,0.2,0.1c0.5,0.1,0.8,0.5,1.1,0.9c0.3,0.8,0.6,1.5,0.8,2.3
		c0.1,0.4,0.2,0.8,0.4,1.1c0.3,0.5,0.7,1,1.1,1.5c0.4,0.4,0.9,0.8,1.2,1.3c0.4,0.6,0.9,1,1.4,1.3c0.1,0.1,0.3,0.2,0.4,0.3
		c0.8,0.6,1.7,1.1,2.7,1.4c0.8,0.3,1.6,0.5,2.5,0.7c0.4,0.1,0.8,0.2,1.2,0.2c0.4,0,0.7,0.1,1,0.2c1.2,0.4,2.5,0.3,3.7,0.3
		c0.5-0.2,1.1-0.1,1.7-0.1c0.8,0,1.5,0,2.2-0.3c0.1-0.1,0.3-0.1,0.5-0.1c0.4,0,0.7-0.1,1.1-0.2c0.2,0,0.4-0.1,0.6-0.2
		c0.7-0.1,1.4-0.4,2-0.7c0.3-0.1,0.6-0.3,0.9-0.4c1-0.2,1.8-0.8,2.6-1.2c0.3-0.2,0.7-0.4,1-0.6c0.9-0.6,1.8-1.3,2.7-2
		c0.1-0.1,0.3-0.2,0.4-0.2c0.4-0.2,0.9-0.1,1.1,0.3c0.3,0.5,0.7,0.8,0.9,1.3c0.1,0.2,0.3,0.4,0.6,0.5c1.2,0.7,2.5,1.2,4,1.1
		c0.7,0,1.4-0.3,2-0.7c0.6-0.4,1.1-0.9,1.7-1.4c1-0.7,1.5-1.7,1.9-2.8c0-0.4,0.2-0.7,0.4-1c0.6-0.7,1.1-0.9,2-0.6
		c0.4,0.1,0.8,0.2,1.1,0.4c1,0.4,2,0.5,3,0.7c0.2,0.1,0.5,0,0.8,0c0.3,0,0.7-0.1,1,0c0.8,0.1,1.6-0.2,2.3-0.2c0.4,0,0.8-0.2,1.2-0.4
		c1.2-0.5,2.4-1,3.5-1.8c0.2-0.2,0.5-0.3,0.7-0.5c1.3-0.8,2.5-1.8,3.6-2.9c0.3-0.3,0.5-0.5,0.8-0.8c1-0.9,1.8-1.9,2.6-3
		c0.6-0.8,1.1-1.6,1.5-2.4c0.7-1.4,1.3-2.7,1.9-4.1c0.3-0.8,0.6-1.7,0.6-2.6c0-0.8,0.1-1.6,0.1-2.5c0-0.8,0-1.6-0.1-2.5
		c0-0.1-0.1-0.3-0.1-0.4c0.1-0.7-0.3-1.1-0.2-1.8l0.1-0.8c0.2-0.2,0.3-1.3,0.4-1.6c0.6-1,0.3-1.3,0.6-2.4c0.2-0.9,0.4-1.9,0.4-2.8
		c-0.1-1.3-0.4-2.6-1-3.8c-0.1-0.2-0.2-0.4-0.3-0.6c-0.3-0.5-0.8-1-1.1-1.5c-0.3-0.5-0.8-0.9-1.1-1.5c-0.1-0.1-0.2-0.2-0.4-0.3
		c0-0.2-0.1-0.3-0.2-0.5c0-0.1,0.1-0.2,0.1-0.3c0.1-0.3,0.2-0.5,0.4-0.8c0,0,0.1-0.1,0.1-0.1c0.3-0.2,0.5-0.4,0.7-0.7
		c0.3,0,0.4-0.1,0.6-0.4c0.7-1.1,0.9-2.2,1-3.5c0.1-0.9,0-1.8,0.1-2.7c0.1-0.8-0.1-1.5-0.2-2.2c0-0.4-0.1-0.7-0.2-1
		c-0.5-1.1-1-2.1-2-2.9c-0.2-0.2-0.5-0.4-0.7-0.5c-0.2-0.1-0.3-0.3-0.4-0.5c0.2-0.4,0.4-0.7,0.7-1.1c0.3-0.4,0.6-0.8,0.8-1.2
		c0.3-0.5,0.4-1,0.5-1.5c0.1-1.5-0.8-2.4-2-2.6c-0.9-0.2-1.6-0.7-2.2-1.3c0-0.6,0-1.2,0-1.8c0-0.6,0.1-1.3,0-1.9
		c-0.3-1.6-0.8-3.1-1.7-4.5c-0.4-0.7-1-1.3-1.7-1.7c-1.5-0.9-3.1-1.5-4.8-1.5c-0.5,0-1,0-1.5,0c-0.8,0-1.6-0.2-2.3-0.5
		c-0.2-0.1-0.3-0.3-0.4-0.5c0-0.3,0-0.7-0.1-1c-0.2-1.1-0.7-2.1-1.2-3.1c-0.5-0.8-1-1.6-1.7-2.3c-1-0.9-2.1-1.5-3.4-2
		c-0.2-0.1-0.4-0.1-0.7-0.2c-0.6-0.1-1.2-0.2-1.8-0.3c-0.6-0.2-1.2-0.1-1.8-0.3c-0.2-0.1-0.4,0-0.6,0.1c-0.4,0-0.7,0.1-1.1,0
		c-0.8-0.2-1.4-0.5-1.4-1.4c0-0.4-0.1-0.7-0.2-1.1c-0.3-0.8-0.5-1.7-0.9-2.5c-0.5-0.8-1-1.6-1.7-2.2c-0.9-0.7-1.8-1.3-2.9-1.7
		c-0.8-0.3-1.7-0.4-2.5-0.6c-0.3-0.1-0.6,0-1-0.1c-0.1,0-0.3,0-0.4,0c-0.3-0.2-0.7-0.1-1.1-0.2c-0.4,0-0.9,0-1.3,0
		c-0.5-0.1-0.8,0.2-1.3,0.2c-0.7,0-1.3,0.2-1.9,0.4c-0.8,0.3-1.6,0.7-2.4,1c-0.5,0.2-1,0.5-1.5,0.7c-0.1,0-0.2,0.1-0.2,0.1
		c-0.7,0.7-1.6,1.1-2.3,1.8c-0.4,0.4-0.9,0.7-1.4,0.9c-0.7-0.1-1-0.6-1.4-1.1C53.6,4.6,53,4,52.3,3.4c-0.6-0.4-1.2-0.8-1.9-1.1
		c-1.1-0.4-2.3-0.6-3.5-0.7c-0.6,0-1.1,0.2-1.7,0.2c-0.3,0-0.5,0.2-0.8,0.3c-0.4,0.1-0.8,0.3-1.2,0.4c-0.3,0.1-0.6,0.2-0.8,0.3
		C42.3,3,42.2,3.1,42,3.2c-0.6,0.1-1.2,0.4-1.7,0.8c-0.1,0.1-0.2,0.1-0.3,0.2c-0.9,0.5-1.8,1-2.4,1.8c-0.3,0.3-0.6,0.6-1,0.9
		c-0.2,0-0.5-0.1-0.7,0c-0.4,0.2-0.8,0.1-1.2-0.1c-0.4-0.2-0.9-0.2-1.4-0.2c-0.5,0-1,0-1.6,0c-0.4,0-0.7,0-1.1,0.2
		c-0.8,0.2-1.6,0.5-2.3,0.7c-0.2,0.1-0.5,0.1-0.6,0.3c-0.6,0.5-1.4,0.8-2,1.2c-0.8,0.6-1.7,1.2-2.5,1.9c-0.2,0.2-0.4,0.4-0.6,0.7
		c-0.4,0.5-0.8,1.1-1.1,1.6c-0.1,0.2-0.3,0.5-0.4,0.6c-0.3,0.3-0.5,0.8-0.7,1.2c-0.4,1.1-0.8,2.2-1.2,3.3c0,0.1-0.1,0.2-0.1,0.4
		c0,0.6-0.1,1.2-0.2,1.9c0,0.1,0,0.3,0,0.4c0,0.4,0.2,0.8,0,1.2c0,0,0,0.1,0,0.2c0.2,0.8,0.2,1.6,0.3,2.3c0,0.3,0.1,0.6,0.2,0.9
		c-0.1,0.2-0.3,0.3-0.6,0.5c-0.7,0.3-1.4,0.6-2.1,1c-0.3,0.2-0.6,0.3-0.8,0.5c-0.2,0.1-0.4,0.3-0.6,0.4c-0.6,0.4-1.1,1-1.5,1.7
		c-0.3,0.5-0.5,1-0.7,1.5c-0.2,0.5-0.4,1.1-0.5,1.6c-0.1,0.6-0.2,1.2-0.3,1.7c-0.1,0.2-0.1,0.5,0,0.7c0.1,0.5,0.1,0.9,0.1,1.4
		c-0.1,1.1,0.1,2.2,0.2,3.2c0,0.1,0,0.1,0,0.2c0.2,0.5,0.3,1.1,0.4,1.7c0.1,0.4,0.2,0.8,0.3,1.1c0.2,0.4,0.3,0.7,0.4,1.1
		c0.1,0.2,0.1,0.5,0,0.7c-0.1,0.2-0.2,0.5-0.4,0.7c-0.2,0.3-0.5,0.7-0.9,0.8c-0.4,0.2-0.9,0.5-1.3,0.7c-0.6,0.2-1,0.7-1.6,0.9
		c-0.1,0-0.1,0.1-0.2,0.1c-0.5,0.5-1.1,1-1.6,1.4c-0.9,0.7-1.7,1.6-2.2,2.6c-0.1,0.1-0.1,0.2-0.2,0.2c-0.6,0.7-1,1.3-1.3,2.2
		c-0.1,0.3-0.2,0.6-0.4,0.8c-0.4,0.4-0.5,1-0.6,1.4c-0.1,0.6-0.3,1.1-0.4,1.6C2.4,58.4,2.2,59,2,59.5C1.9,59.8,1.8,60.1,1.8,60.4z
		 M3.8,78.3C3,76.6,2.2,74.9,1.7,73c-0.2-0.7-0.4-1.4-0.7-2.2c-0.3-0.7-0.4-1.5-0.5-2.3c-0.1-0.5-0.1-1-0.2-1.4
		c-0.1-0.4-0.2-0.8-0.1-1.3C0.2,65.4,0,65,0,64.5c0-0.8,0-1.5,0-2.3c0-0.3,0-0.6,0-0.9c0-0.9,0.3-1.7,0.4-2.6
		c0.2-1.4,0.9-2.7,1.2-4.1c0-0.1,0-0.1,0.1-0.2c0.5-0.9,0.9-1.8,1.4-2.6c0.4-0.7,1-1.3,1.4-2c0.1-0.1,0.1-0.2,0.2-0.2
		c0.6-0.6,1.2-1.3,1.8-1.9c0.4-0.4,0.9-0.8,1.4-1.1c0.6-0.3,1.1-0.7,1.6-1.1c0.6-0.4,1.2-0.7,1.8-0.9c0.2-0.1,0.4-0.2,0.5-0.4
		c-0.5-1.4-1-2.9-1.3-4.4c0-0.1-0.1-0.3-0.1-0.4c0.1-0.7-0.2-1.4-0.2-2.1c0-0.7,0-1.3,0-2c0-0.6,0-1.1,0.1-1.7
		c0-0.4,0.1-0.8,0.2-1.2c0.2-0.9,0.4-1.9,0.9-2.7c0.2-0.3,0.4-0.5,0.6-0.8c0.3-0.4,0.7-0.8,1-1.2c0.6-0.8,1.6-1.5,2.5-2
		c0.5-0.2,1-0.5,1.5-0.8c0.2-0.1,0.3-0.3,0.3-0.6c0-0.3-0.1-0.5-0.1-0.8c-0.1-0.5-0.2-1.1-0.2-1.6c0-0.8,0-1.5,0-2.3
		c0-0.9,0.3-1.8,0.5-2.7c0-0.2,0.1-0.4,0.1-0.6c0.2-0.6,0.4-1.2,0.8-1.8c0.4-0.5,0.6-1.1,0.9-1.6c1-2,2.5-3.5,4.2-4.7
		c0.2-0.1,0.4-0.2,0.5-0.3c0.5-0.6,1.1-0.9,1.8-1.2c0.3-0.2,0.7-0.3,1.1-0.5c0.2-0.1,0.3-0.1,0.5-0.2c0.8-0.4,1.7-0.6,2.6-0.8
		c0.8-0.2,1.7-0.4,2.5-0.3c0.1,0,0.1,0,0.2,0c1-0.3,1.9,0,2.8,0.2c0.2,0.1,0.4,0,0.6-0.1c0.1-0.1,0.3-0.2,0.4-0.3
		c0.2-0.1,0.3-0.3,0.4-0.4c0.5-0.4,1-0.8,1.6-1.2c0.9-0.6,1.8-1,2.7-1.4c0.8-0.4,1.6-0.7,2.5-1c0.8-0.3,1.7-0.4,2.5-0.6
		c0.2-0.1,0.4,0,0.6,0c0.3,0,0.6,0,0.9,0c0.3,0,0.6,0,0.9,0c0.6,0.1,1.2,0.3,1.8,0.4c0.8,0.2,1.5,0.6,2.2,0.9c0.6,0.3,1,0.7,1.5,1.1
		c0.3,0.3,0.6,0.6,0.9,0.9c0.2,0.2,0.4,0.3,0.6,0.5c0.3,0,0.5-0.2,0.8-0.3c0.4-0.3,0.8-0.7,1.2-1c0.1-0.1,0.3-0.2,0.4-0.3
		c0.9-0.5,1.7-0.9,2.6-1.3c0.9-0.4,1.8-0.6,2.7-0.8C64.8,0,66.3,0,67.8,0c0.6,0,1.2,0.1,1.8,0.1c0.9,0,1.8,0.2,2.6,0.3
		c0.5,0.1,1,0.4,1.4,0.6c0.5,0.2,1.1,0.5,1.6,0.7c0.7,0.3,1.4,0.8,2,1.4c0.3,0.3,0.6,0.7,0.9,1c0.1,0.1,0.2,0.1,0.2,0.2
		c0.6,1.3,1.4,2.4,1.6,3.9c0,0.2,0.1,0.4,0.2,0.7c0.1,0.2,0.1,0.4,0,0.6c-0.1,0.1,0.1,0.3,0.3,0.3c0.3,0,0.7,0,1,0
		c0.6,0,1.2,0,1.8,0.2c0.5,0.1,1.1,0.1,1.6,0.1c0.9,0,1.7,0.3,2.5,0.7c0.8,0.4,1.6,0.9,2.4,1.4c0.5,0.3,0.8,0.7,1.1,1.1
		c0.1,0.1,0.2,0.3,0.3,0.4c0.3,0.3,0.8,0.6,0.9,1.1c0.2,0.5,0.6,0.9,0.8,1.4c0.2,0.4,0.4,0.9,0.6,1.4c0.1,0.3,0.2,0.5,0.4,0.8
		c0.2,0.3,0.3,0.6,0.3,0.9c0,0.3,0.2,0.4,0.5,0.4c0.2,0,0.3,0,0.5,0c0.9-0.1,1.8,0.1,2.7,0.2c0.8,0.1,1.5,0.3,2.2,0.6
		c0.3,0.1,0.5,0.3,0.8,0.4c0.8,0.2,1.4,0.6,2.1,1.1c0.4,0.3,0.8,0.7,1.2,1.1c0,0,0.1,0.1,0.1,0.2c0.6,1.2,1.5,2.3,1.8,3.7
		c0,0.2,0.1,0.3,0.2,0.5c0.2,0.5,0.3,1,0.3,1.5c0,0.4,0,0.8,0.1,1.2c0.1,0.4,0.1,0.8,0,1.3c-0.1,0.2-0.1,0.5-0.1,0.8
		c0,0.2,0.2,0.4,0.3,0.4c0.2,0.1,0.5,0.1,0.8,0.2c0.5,0.1,0.9,0.3,1.3,0.6c0.4,0.2,0.7,0.5,1,0.8c0.8,0.8,1,1.7,0.8,2.7
		c-0.1,0.3-0.1,0.5-0.1,0.8c0,0.2-0.1,0.4-0.2,0.6c-0.1,0.1-0.2,0.3-0.3,0.5c-0.1,0.3-0.2,0.6-0.5,0.8c-0.1,0-0.1,0.1-0.1,0.2
		c-0.3,0.4-0.2,0.6,0.1,0.9c0.3,0.3,0.6,0.7,1,1c0.3,0.3,0.5,0.6,0.6,1c0,0.1,0,0.2,0.1,0.3c0.7,1,0.7,2.2,1,3.4c0,0.1,0,0.3,0,0.5
		c0,0.4,0,0.8,0.1,1.3c0.1,0.3,0.1,0.7,0,1c-0.2,0.6-0.2,1.1-0.2,1.7c0,0.7-0.2,1.3-0.4,1.9c-0.1,0.3-0.3,0.6-0.4,0.9
		c0,0-1.6,1.6-2,2c-0.4,0.4,0.2,1.2,0.6,1.7c0.3,0.5,0.7,0.8,1.1,1.2c0.6,0.7,1,1.4,1.3,2.3c0.3,0.9,0.5,1.8,0.8,2.7
		c0.1,0.5,0,1.1,0,1.6c0,0.2-0.1,0.3-0.1,0.5c0,0.5,0.1,1-0.1,1.5c-0.2,0.5-0.2,1-0.4,1.5c-0.1,0.5-0.3,0.9-0.5,1.4
		c-0.2,0.2-0.2,0.6-0.3,0.8l-0.1,1.2c0.1,0.4,0.1,0.7,0.2,1.1c0.2,0.7,0.4,1.3,0.6,2c0,0.1,0,0.2,0.1,0.3c0,0.2,0.1,0.4,0,0.6
		c-0.1,0.2-0.1,0.5-0.1,0.7c0,0.9-0.1,1.8-0.1,2.8c0,0.7-0.2,1.4-0.3,2.1c0,0.1,0,0.1-0.1,0.2c-0.5,1.2-0.9,2.4-1.5,3.5
		c-0.1,0.1-0.1,0.2-0.2,0.4c-0.5,0.7-0.8,1.5-1.3,2.2c-0.2,0.3-0.3,0.5-0.5,0.8c-0.2,0.4-0.7,0.7-0.7,1.2c-0.4,0.4-0.7,0.8-1.1,1.3
		c-0.2,0.2-0.4,0.4-0.6,0.6s-0.4,0.4-0.6,0.6c-0.3,0.5-0.8,0.9-1.3,1.2c-0.2,0.2-0.5,0.3-0.7,0.5c-0.5,0.5-1.1,0.9-1.7,1.4
		c-0.8,0.6-1.7,1.2-2.6,1.8c-0.1,0-0.1,0.1-0.2,0.1c-0.8,0.2-1.4,0.8-2.2,1c-0.5,0.2-1,0.5-1.6,0.6c-0.6,0.1-1.1,0.3-1.7,0.3
		c-0.2,0-0.4,0-0.6,0c-0.4,0.2-0.9,0.1-1.4,0.1c-0.8,0-1.7,0-2.5-0.2c-0.5-0.2-0.9-0.2-1.4-0.3c-0.4,0-0.8-0.2-1.1-0.3
		c-0.7-0.2-0.9-0.1-1.2,0.6c-0.1,0.2-0.2,0.5-0.3,0.7c-0.3,0.6-0.6,1.2-1.2,1.7c-0.4,0.7-1,1.1-1.5,1.7c-0.2,0.2-0.5,0.4-0.8,0.6
		c-0.5,0.2-1,0.6-1.6,0.7c-0.3,0.1-0.6,0.3-0.9,0.5c-0.5,0.3-1,0.3-1.5,0.2c-0.2-0.1-0.5-0.1-0.7-0.1c-0.7-0.1-1.3-0.2-2-0.6
		c-0.6-0.3-1.1-0.6-1.6-1c-0.4-0.4-0.9-0.6-1.4-0.9c-0.2-0.1-0.5-0.1-0.7,0.1c-0.2,0.1-0.4,0.3-0.6,0.5c-0.1,0.1-0.2,0.2-0.3,0.2
		c-0.8,0.4-1.5,0.8-2.3,1.3c-0.1,0.1-0.2,0.1-0.3,0.1c-0.7,0.6-1.6,0.8-2.4,1.1c-0.1,0-0.2,0.1-0.3,0.1c-0.5-0.1-0.9,0.2-1.4,0.4
		c-0.5,0.2-1.1,0.5-1.6,0.7c-0.5,0.1-1,0.2-1.5,0.2c-0.5,0-1.1-0.1-1.7,0.1c-0.2,0-0.3,0-0.5,0c-0.5,0-0.9,0-1.4,0.1
		c-0.1,0.1-0.3,0-0.5,0c-0.6,0-1.2,0-1.8,0.1c-0.4,0.1-0.9,0-1.4,0c-0.3,0-0.7-0.2-1-0.1c-0.4,0.1-0.7,0-1-0.1
		c-0.5-0.2-1-0.3-1.5-0.4c-0.8-0.2-2.3-0.7-3.1-1c-0.3-0.1-0.5-0.2-0.8-0.3c-0.5-0.1-1-0.3-1.4-0.6c-0.2-0.2-0.4-0.3-0.7-0.4
		c-1-0.5-1.8-1.2-2.5-2.1c-0.5-0.6-1-1.1-1.5-1.7c-0.4-0.4-0.6-0.8-0.9-1.3c-0.2-0.3-0.3-0.6-0.5-0.9c-0.2-0.3-0.3-0.6-0.3-0.9
		c0-0.2-0.1-0.3-0.1-0.5c-0.2-0.4-0.3-0.5-0.7-0.5c-0.5,0-1,0.2-1.5,0.3c-0.9,0.2-1.8,0.5-2.7,0.4c-0.1,0-0.3,0-0.4,0
		c-0.3,0.2-0.7,0.1-1.1,0.1c-0.4,0-0.8,0-1.2,0c-0.8,0-1.6-0.1-2.4-0.4c-0.1,0-0.1,0-0.2-0.1c-1.3-0.2-2.6-0.7-3.8-1.3
		c-0.5-0.3-1.1-0.4-1.6-0.8c-0.1-0.1-0.3-0.2-0.4-0.3c-0.7-0.7-1.3-1.4-2-2.1c-0.1-0.1-0.1-0.2-0.2-0.2c-0.5-1.1-1.1-2-1.4-3.2
		c0-0.1,0-0.2-0.1-0.3c-0.1-0.4-0.4-0.5-0.7-0.6c-0.2,0-0.3,0-0.5,0c-0.6,0-1.1-0.1-1.6-0.3c-0.1,0-0.2-0.1-0.3-0.1
		c-0.6,0.1-1.2-0.2-1.7-0.5c-0.5-0.2-1-0.4-1.5-0.7c-0.6-0.4-1.3-0.8-2-1.1c-1.5-0.7-2.7-1.7-3.7-2.9c-0.6-0.8-1.1-1.6-1.6-2.5
		C4.4,79.5,4.1,78.9,3.8,78.3z"/>
</g>
</svg>
