<?xml version="1.0" encoding="utf-8"?>
<!-- Generator: Adobe Illustrator 18.1.0, SVG Export Plug-In . SVG Version: 6.00 Build 0)  -->
<!DOCTYPE svg PUBLIC "-//W3C//DTD SVG 1.1//EN" "http://www.w3.org/Graphics/SVG/1.1/DTD/svg11.dtd">
<svg version="1.1" id="Layer_1" xmlns="http://www.w3.org/2000/svg" xmlns:xlink="http://www.w3.org/1999/xlink" x="0px" y="0px"
	 viewBox="109.3 14.4 100 95" enable-background="new 109.3 14.4 100 95" xml:space="preserve">
<g>
	<path fill="#FFFFFF" d="M176.7,98.2c-1.9,0-3.9,0.1-5.9,0.1c-0.9,0-1.7,0-2.6,0c-0.4,0-2-0.2-2.3,0c-0.1,0-0.2,0-0.3,0.1
		c-5.3,0-10.6,0.3-15.9,0.4c-1.4,0-2.9,0-4.4,0c-1.2,0-2.5,0.1-3.7,0.1c-1.1,0-2.2-0.1-3.3,0c-1,0.1-2.9,0.4-3.9-0.2
		c-0.4-0.2-1-0.6-1.2-1.1c-0.1-0.2-0.3-0.4-0.3-0.7c0,0,0-0.1-0.1-0.1c-0.4-0.8-0.1-2.1,0-3c0-0.5,0-1,0-1.4c0-1.5,0-3.1,0-4.6
		c0-1.5,0-3.1,0-4.6c0-0.7,0-1.4,0.1-2.1c0.1-1.1,0.2-2.5,0-3.6c0-1.4,0.1-2.9,0.1-4.3c0-1.6,0-3.2,0.5-4.7c0-0.1,0.3-0.4,0.3-0.5
		c0.3-0.2,0.5-0.4,0.7-0.7c0.6-0.3,1-0.5,1.6-0.7c0.5-0.3,1.5-0.2,2.1-0.2c0.9,0,1.8-0.1,2.7-0.1c1,0,2.1,0,3.1-0.1
		c0.9,0,2.3,0.2,3.1-0.2c5.4,0,10.8,0.1,16.2,0.1c2.6,0,5.2,0.1,7.8,0.1c1.4,0,2.7-0.1,4.1-0.1c1.1,0.1,2.2,0.3,3.4,0.3
		c0.2,0.1,0.3,0.1,0.5,0.2c0.2,0.2,0.4,0.3,0.6,0.5c0.3,0.2,0.4,0.5,0.5,0.7c0.6,0.6,0.3,2,0.3,2.7c0,0.7,0,1.4,0,2.1
		c0,1.5,0,3,0,4.5c0,1.6,0.1,3.2,0.1,4.7c0,0.6,0,1.2,0,1.8c0,0.5,0.2,1.4-0.1,1.9c0,2,0,4,0,6.1c0,1.8,0.2,4-1.2,5.3
		c-0.4,0.3-0.8,0.5-1.2,0.7c-0.2,0.1-0.5,0.1-0.7,0.1c-0.1,0-0.1,0-0.2,0C177.3,98.2,177,98.2,176.7,98.2z"/>
</g>
<g>
	<path d="M147.9,72.1c0.1,0,0.3,0.1,0.3,0.2c0.1,0.1,0.2,0.2,0.3,0.3c0,0.4-0.1,0.9-0.1,1.3c-0.2,0.2-0.4,0.6-0.7,0.8
		c0,0,0,0.1,0,0.1c0,0,0,0.1-0.1,0.1h-0.1c0,0.1-0.1,0.2-0.1,0.3c-0.1,0-0.2,0.1-0.3,0.1c-0.1,0.3-0.3,0.4-0.5,0.6
		c-0.1,0.1-0.3,0.2-0.3,0.4c0.4,0.1,0.8,0,1.2,0.1c0.4,0.4,0.8,0.5,1.2,0.9c0.2,0.3,0.3,0.6,0.5,0.8c0,0.3,0.1,0.5,0.1,0.7
		c0.1,0.9-0.2,1.8-0.3,2.6c-0.3,0.1-0.4,0.6-0.7,0.8c0,0,0,0.1,0,0.1c-0.1,0.1-0.3,0.2-0.3,0.3c-0.1,0.1-0.3,0.3-0.4,0.4
		c0,0-0.1,0-0.1,0c-1.8,1.8-5.3,0.8-6.2-1.4c0.1-0.3,1.9-1.6,1.9-1c0.2,0.4,0.6,0.6,0.9,0.9c0.6,0.5,1.2,0,1.9,0.1
		c0.4-0.4,0.7-0.7,0.9-1.2c0.2-0.5,0.3-1.6-0.1-2c-0.1-0.1-0.3-0.3-0.4-0.3c-0.4-0.3-0.8-0.1-1.3-0.2c-0.2,0-0.3-0.1-0.5-0.1
		c0,0,0,0-0.1,0.1c-0.1,0-0.1,0.1-0.3,0c-0.3-0.3-0.9-0.8-0.9-1.2c0-0.4,0.9-1.1,1.2-1.2c0.2-0.6,0.8-0.8,1.1-1.4
		c-0.7,0-1.4-0.1-2.1-0.1c-0.2,0-1.2,0.2-1.4,0.1c-0.8-0.2-0.4-1.4-0.3-1.9c0.9-0.3,1.9,0,2.8-0.1c0.4,0,0.7-0.1,1.1-0.1
		c0.6,0,1.1,0.2,1.7,0.1c0.1,0,0.1,0,0.3-0.1C147.8,72.1,147.9,72.1,147.9,72.1L147.9,72.1z"/>
	<path d="M155.1,79.2c0.1,0,0.3,0.1,0.3,0.1c0.1,0.1,0.2,0.1,0.3,0.2c0,0.3,0,0.6,0,0.9c-0.1,0.1-0.1,0.1-0.1,0.2
		c-1.4,0.1-2.8,0-4.3,0.1c-0.4-0.1-0.4-1-0.4-1.3c0.1-0.1,0.3-0.2,0.5-0.1c0.2,0,0.4,0.1,0.6,0c0.5,0,0.9-0.1,1.4-0.1
		c0.4,0,1.3,0.2,1.5,0C155,79.2,155.1,79.2,155.1,79.2L155.1,79.2z"/>
	<path d="M160.7,72c0.3-0.1,0.5,0,0.7,0.1c0.2,0.1,0.3,0.3,0.5,0.3c-0.2,0.9,0,1.9-0.1,2.8c0,0.6-0.1,1.2-0.1,1.9
		c0,0.9,0.2,1.7,0.1,2.6c-0.1,0.9-0.3,1.9-0.2,2.8c0,0.4,0.2,0.7,0.1,1.2c0,0.3-0.5,0.3-0.7,0.3c-0.6,0.1-0.5,0-0.9-0.3
		c0-0.1-0.2-0.2-0.3-0.3c0-0.4-0.4-1.3-0.1-1.6c0-2.3,0.4-4.6,0.1-6.8c-0.1-0.1-0.2,0-0.3,0.1c-0.1,0.1-0.1,0.2-0.3,0.2
		c0,0-0.1,0-0.1,0c-0.4,0.2-1.1,1.2-1.5,1.1c-0.9,0-0.3-2,0-2.3c0.1,0,0.2-0.1,0.3-0.1c0,0,0.1-0.1,0.1-0.1c0.7-0.7,1.7-1.3,2.4-2
		C160.6,72,160.7,72,160.7,72L160.7,72z"/>
	<path d="M168.8,72.1c0.5,0,0.9-0.2,1.3,0.1c0.1,0.9,0.1,1.9,0.1,2.8c0,0.2-0.1,0.5-0.1,0.6c0,0.3,0.1,0.5,0.1,0.7l0,0
		c0,1.1-0.1,2.2,0.1,3.2c0.7,0.1,1.4,0.1,2,0.4c0,0.6,0,1.1-0.2,1.7c-0.6,0.3-1.2,0-1.8,0.3c0,0.5,0.1,1.5-0.3,1.8
		c-0.6,0-1.3,0.1-1.8-0.2c0-0.5,0.1-1.1-0.1-1.6c-0.7-0.2-1.4,0-2.1,0.1c-0.7,0.1-1.7,0-2.4-0.3c0-0.4-0.3-1-0.3-1.4
		c0-0.1,0-0.1,0.1-0.2c0-0.3,0.2-0.7,0.5-0.9c0,0,0-0.1,0-0.1c0,0,0.1,0,0.1,0c0.1-0.1,0.4-0.6,0.4-0.8c0-0.1,0-0.2,0-0.3
		c0,0,0.1-0.1,0.1-0.1c0,0,0-0.1,0-0.1c0,0,0.4-0.5,0.4-0.5c0.1-0.1,0.5-0.7,0.5-0.9c0.1-0.1,0.2-0.5,0.2-0.7l0.1-0.1
		c0.1-0.1,0.1-0.4,0.1-0.6c0.1-0.4,0.5-0.8,0.7-1.1c0.3-0.6,0.6-1.3,1.1-1.7C168,72.3,168.4,72.3,168.8,72.1z M168.1,75.6
		c-0.3,0.7-0.7,1.3-1,2c-0.3,0.7-1.1,1.7-1.1,2.4c0.4,0.4,1.2,0,1.6,0.1c0.2,0,0.3,0,0.5-0.1c0.3-0.8-0.1-1.7,0-2.5
		c0.1-0.5,0.4-1.4,0.2-1.8L168.1,75.6z"/>
	<path d="M142.9,91.5c-0.1,0-0.3,0.1-0.5,0.1c0,0.1,0,0.2,0,0.3c0,0,0,0.1-0.1,0.1c0,0.4-0.1,0.9-0.1,1.3c-0.1,0-0.1,0.1-0.1,0.1
		c-0.1,0.1-0.3,0.1-0.5,0c-0.6,0-0.4-1.2-0.5-1.6c0-0.7,0-1.4,0-2l0,0c0-0.5-0.2-1.4,0.1-1.8c0.3-0.3,2.1,0,2.4,0.1
		c0,0,0.1,0.1,0.1,0.1c0.1,0,0.2,0,0.3,0c0,0,0.1,0.1,0.1,0.1c0.1,0.1,0.3,0.2,0.4,0.3c0.4,0,0.7,1.2,0.7,1.2c0,0.3,0,0.6,0,1
		c0,0.2-0.2,0.4-0.2,0.6c-0.1,0.1-0.3,0.3-0.5,0.4c-0.1,0-0.5,0.2-0.6,0.3c-0.4,0-0.6,0.2-1.1,0.2C143,91.5,143,91.5,142.9,91.5
		L142.9,91.5L142.9,91.5z M142.5,90.4c0.4,0,1,0.1,1.3-0.1c0.1-0.1,0.4-0.3,0.4-0.5l0,0l0,0v-0.1c0,0,0-0.1,0.1-0.1
		c0-0.1,0-0.1,0.1-0.1c0-0.4-0.1-0.9-0.5-1.1c-0.3,0-1.3-0.3-1.5,0c0,0.2,0.1,0.8-0.1,1c0,0.2,0,0.4,0,0.6
		C142.3,90.3,142.5,90.2,142.5,90.4L142.5,90.4z"/>
	<path d="M146.3,87.7C146.3,87.7,146.3,87.6,146.3,87.7C146.3,87.6,146.3,87.6,146.3,87.7c0.3-0.1,0.7,0,0.9,0.1
		c0.1,0,0.1,0.1,0.1,0.1c0,0.1,0,0.3,0.1,0.4c0,0.1,0,0.1,0.1,0.3c0,1.3,0,2.6,0,3.9c0.4,0.4,1.5-0.2,2,0.1c0.2,0.1,0.2,0.6,0.1,0.8
		c0,0.1-0.3,0.3-0.3,0.4c-0.5,0.2-1.1,0-1.6,0c-0.5,0-0.9,0-1.4,0c-0.4-0.4-0.1-1.7-0.1-2.2c0.1-1,0-2,0-3
		C146.2,87.9,146.2,87.8,146.3,87.7L146.3,87.7z"/>
	<path d="M151.9,87.8c0.4-0.1,0.8-0.1,1.2-0.1c0.1,0.1,0.1,0.1,0.1,0.1c0.1,0.2,0.4,0.6,0.4,0.8c0,0,0,0.1,0,0.1
		c0.1,0.2,0.1,0.5,0.3,0.8c0,0.1,0,0.2,0,0.3c0,0.3,0.2,0.6,0.3,0.9c0,0,0,0.1,0,0.1c0,0.1,0.1,0.2,0.1,0.3c0,0.3,0.2,1.1,0.5,1.3
		c0,0,0,0.1,0,0.1c0.1,0.3,0.3,0.4,0.3,0.7c-0.2,0.2-0.7,0.1-1,0.1c-0.2-0.4-0.2-1.1-0.5-1.4c-0.7,0.1-1.5,0.1-2.2,0.1
		c-0.1,0.1-0.2,0.3-0.2,0.5c0,0-0.1,0.1-0.1,0.1c-0.1,0.2-0.1,0.4-0.3,0.6c-0.1,0-0.2,0.1-0.3,0.1c-0.2,0-0.6,0.1-0.8-0.1
		c0-0.1,0-0.1,0-0.1c0-0.1,0.2-0.3,0.2-0.4c0,0,0-0.1,0-0.1l0,0l0,0c0-0.3,0.1-0.5,0.2-0.7c0.2-0.4,0.2-1.1,0.5-1.4
		c0-0.3,0.3-0.6,0.3-0.9c0,0,0-0.1,0-0.1l0,0l0,0c0-0.6,0.3-1.1,0.5-1.6C151.6,88,151.7,87.9,151.9,87.8z M153.2,91
		c0-0.2-0.1-0.6-0.2-0.8v-0.1c0,0,0-0.1-0.1-0.1c0,0,0-0.1,0-0.1c0-0.1-0.1-0.2-0.1-0.3c0,0,0-0.1,0-0.1c-0.1-0.2-0.2-0.4-0.3-0.7
		c0,0-0.1,0-0.1,0c0,0.1,0,0.3-0.1,0.4c0,0.1,0,0.2,0,0.3c0,0,0,0.1-0.1,0.1c0,0.2-0.2,0.3-0.1,0.5c-0.2,0.2-0.3,0.6-0.3,0.9
		C152.2,91.2,152.7,91,153.2,91C153,91.1,153.1,91.1,153.2,91z"/>
	<path d="M158.9,87.8c0.1,0,0.1,0,0.1-0.1c0.1,0,0.1,0,0.2,0.1c0,0.4-0.4,0.9-0.6,1.2c-0.1,0.1-0.1,0.1-0.2,0.2c0,0.1,0,0.2,0,0.3
		c0,0-0.1,0.1-0.1,0.1c0,0,0,0.1,0,0.1l0,0l0,0c0,0-0.1,0.3-0.1,0.3l0,0l0,0c0,0.1-0.1,0.3-0.2,0.3c-0.1,0.3-0.2,0.6-0.5,0.8
		c0,0.3,0.2,2.1,0,2.3c-0.1,0-1.2,0-1-0.3c0.1,0,0.1-1.5,0.1-1.6v0c0-0.1,0-0.2,0-0.3c0-0.1-0.1-0.1-0.1-0.2
		c-0.1-0.1-0.1-0.1-0.1-0.1c0-0.1-0.1-0.2-0.1-0.3c0,0-0.1-0.1-0.1-0.1v-0.2c-0.1-0.1-0.2-0.3-0.3-0.5c0,0-0.1-0.1-0.1-0.1
		c-0.3-0.5-0.5-1.1-0.7-1.6c0.1-0.1,1,0,1.2,0c0.3,0.3,0.3,0.7,0.6,1c0,0.1,0.2,0.2,0.3,0.3c0,0,0.2,0.4,0.1,0.3
		c0,0,0.1,0.1,0.1,0.1v0.1c0,0.1,0.1,0,0.2,0c0-0.1,0.1-0.2,0.1-0.3l0.1-0.1c0.1-0.6,0.4-1.1,0.8-1.6c0.1,0,0.1,0,0.1,0
		c0.2-0.1,0.3,0,0.5-0.1C159.1,87.8,158.8,87.8,158.9,87.8L158.9,87.8z"/>
	<path d="M162.8,87.6c0.1,0,0.3,0,0.4,0.1c0,0.3,0.1,0.5,0.1,0.8c-0.8,0.3-1.7-0.1-2.5,0.2c-0.1,0.2,0,0.7,0,0.9
		c0.2,0.1,1.9-0.1,1.9,0.3c0,0.1,0,0.2,0,0.3c0,1-1.2,0.2-1.8,0.5c0,0.4,0,0.8,0.1,1.2c0.1,0.6-0.1,0.4,0.4,0.5
		c0.5,0.1,1.9-0.3,2.2,0.2c0,0.1,0,0.3-0.1,0.4c0,0,0,0.3-0.1,0.3c-0.2,0.2-1.4,0-1.7,0c-0.5,0-1.1,0-1.6,0
		c-0.1-0.1-0.2-0.2-0.2-0.3c-0.2-0.7,0.1-1.8,0.1-2.6c0-0.9,0-1.7,0-2.6c0-0.1,0.1-0.1,0.1-0.1C160.4,87.3,162.4,87.6,162.8,87.6z"
		/>
	<path d="M167.4,91.1c-0.1,0-0.3,0.1-0.4,0.2c0,0.2,0.2,0.3,0.3,0.5c0,0.1,0.1,0.2,0.1,0.3c0,0.4,1,0.8,1,1.2
		c-0.2,0.2-1,0.1-1.3,0.1c-0.1-0.1-0.1-0.1-0.1-0.1c0-0.1-0.1-0.1-0.1-0.1c-0.1,0-0.1-0.1-0.1-0.1c0,0-0.1-0.1-0.1-0.1
		c0-0.1-0.1-0.2-0.1-0.3c-0.2-0.1-0.5-0.6-0.5-0.8c-0.1-0.1-0.2-0.2-0.3-0.4c-0.9,0-0.1,1.4-0.5,1.9c-0.2,0-0.4,0-0.6,0.1
		c-0.2,0-0.4,0-0.5-0.1c0-0.5,0.1-1,0.1-1.4l0,0c0-1.3-0.2-2.8,0.1-4c0-0.1,0.1-0.1,0.1-0.1c0.6,0,1.6-0.3,2.2,0c0.1,0,0.2,0,0.3,0
		c0,0,0.1,0.1,0.1,0.1c0.2,0.1,0.4,0.2,0.7,0.3c0.1,0.1,0.2,0.2,0.3,0.3c0.1,0.2,0.2,0.5,0.3,0.6c0,0.2,0,0.4,0,0.6
		c-0.1,0.1-0.1,0.7-0.3,0.7c-0.1,0.1-0.1,0.1-0.1,0.2c-0.1,0.1-0.3,0.3-0.4,0.4c-0.1,0-0.2,0.1-0.3,0.1
		C167.5,91,167.5,91,167.4,91.1C167.4,91.1,167.4,91.1,167.4,91.1L167.4,91.1z M165.5,90.6c0.3,0,1,0,1.2-0.3
		c0.1-0.1,0.5-0.4,0.5-0.5c0.1-0.3-0.1-0.5-0.1-0.9c-0.3-0.2-0.6-0.2-1-0.3c0.1,0-0.7-0.1-0.7,0.1c-0.2,0.2-0.1,1.2-0.1,1.4
		C165.4,90.3,165.5,90.4,165.5,90.6L165.5,90.6z"/>
	<path d="M171.9,88.8c-0.4,0.4-0.1,0.2-0.5,0.2c0,0,0-0.1,0-0.1c-0.1-0.1-0.2-0.2-0.3-0.3c-0.3,0-0.6,0-0.9,0
		c-0.1,0.1-0.2,0.2-0.1,0.5c0,0,0.2,0.4,0.3,0.4c0,0,0.1,0,0.1,0c0,0,0.1,0.1,0.1,0.1c0.2,0.1,0.3,0.2,0.4,0.3
		c0.2,0,0.6,0.4,0.7,0.5l0.1,0.1c0,0.1,0.1,0.1,0.1,0.1c0.1,0.1,0.2,0.2,0.3,0.3c0,0.1,0.1,0.2,0.1,0.3c0,0.1,0,0.3,0.1,0.4
		c0,0.2,0,0.4,0,0.7c0,0.1-0.1,0.2-0.1,0.3c0,0,0,0.1,0,0.1c-0.1,0.1-0.2,0.2-0.1,0.3c-0.1,0.1-0.3,0.2-0.3,0.3
		c-0.2,0.2-0.5,0.2-0.7,0.4c0,0-0.1,0-0.1,0c-0.1,0-0.2,0.1-0.3,0.1c-0.3,0.1-0.5-0.1-0.8-0.1c-0.4-0.2-1.3-0.5-1.1-1.1
		c0,0,0.1-0.1,0.1-0.1c0-0.1,0.1-0.1,0.1-0.1c0.1-0.1,0.1-0.1,0.1-0.1c0.1,0.1,0.3,0.3,0.4,0.4h0.1c0,0,0.1,0,0.1,0.1
		c0.1,0,0.1,0.1,0.3,0.1c0,0,0,0,0.1,0c0.1,0,0.1,0,0.3,0.1c0.2,0,0.3,0,0.4-0.1c0.1,0,0.2-0.1,0.3-0.1c0.1-0.1,0.1-0.2,0.2-0.3
		c0.1-0.1,0.1-0.3,0-0.4l0,0c0,0,0,0,0-0.1c0,0-0.1-0.1-0.1-0.1c-0.1-0.1-0.2-0.3-0.3-0.4c-0.1,0-0.3-0.2-0.3-0.2
		c-0.1,0-0.7-0.6-0.7-0.7c0,0,0-0.1,0-0.1c-0.6-0.1-1-1.3-0.9-1.8c0,0,0-0.1,0.1-0.1c0-0.1,0.1-0.3,0.1-0.4c0.1-0.1,0.2-0.1,0.3-0.2
		c0.1,0,0.2-0.2,0.3-0.2c0.7,0,1.2-0.1,1.8,0.3l0,0l0,0c0.1,0.1,0.1,0.1,0.3,0.2C172.5,88.5,172.2,88.6,171.9,88.8L171.9,88.8z"/>
</g>
<g>
	<path fill="#FFFFFF" d="M140.4,49.5c0.1,0.3,0.1,0.7,0.1,1c0.1,0.3,0.1,0.6,0.1,0.9c0.1,0.3,0.1,0.7,0.1,1.1
		c0.1,0.7,0.2,1.3,0.4,1.9c0,0.1,0,0.1,0,0.2c0,0.1,0,0.2,0.1,0.3c-0.8-0.1-1.5-0.1-2.3,0c-0.6,0-1.2,0-1.8,0
		c-0.2,0-0.3-0.1-0.3-0.3c-0.1-0.7-0.3-1.4-0.5-2.1c-0.1-0.8-0.5-1.5-0.8-2.2c-0.1-0.3-0.3-0.8-0.3-1.1c-0.1-0.3,0.1-0.4,0.3-0.5
		c0.2-0.1,0.4-0.3,0.5-0.4c0.1-0.1,0.1-0.1,0.1-0.1c-0.1-0.1-0.1-0.1-0.2-0.1c-0.2,0.1-0.4,0.1-0.6,0.3c-0.5,0.3-1,0.5-1.6,0.4
		c-0.5,0-1-0.2-1.4-0.5c-0.5-0.3-0.9-0.6-1.2-1c-0.1-0.1-0.1-0.3-0.3-0.3c0-0.1,0-0.1,0-0.1c0.2-0.2,0.2-0.5,0.2-0.7
		c0-0.1,0-0.1,0-0.2c0.1-0.6,0.1-1.2,0.2-1.9c0.1-0.4,0-0.9,0.3-1.3c0.1-0.2,0.3-0.4,0.5-0.4c0.1,0,0.1,0,0.2-0.1
		c0.2-0.1,0.5-0.3,0.8-0.3c0.5-0.1,0.9-0.1,1.2,0.2c0.3,0.3,1,0.2,1.3-0.1c0.1-0.1,0.2-0.1,0.3,0c0.2,0.1,0.4,0.2,0.6,0.2
		c0.5-0.1,1-0.1,1.4-0.1c0.3,0,0.5,0,0.8-0.1c0.1-0.1,0.2-0.1,0.3-0.1c0.1,0,0.2-0.1,0.3-0.2c0.3-0.3,0.3-0.8,0.4-1.2
		c0-0.8,0-1.5,0-2.2c0-0.1,0-0.1,0-0.2c-0.1-0.5-0.3-1.1-0.5-1.6c-0.2-0.3-0.1-0.7-0.2-1c0-0.1-0.1-0.2,0-0.3
		c0.2-0.2,0.3-0.5,0.4-0.8c0.3-0.4,0.6-0.8,1-1.1c0.3-0.2,0.6-0.4,1-0.5c0.3-0.1,0.7-0.2,1-0.3c0.6-0.3,1.3-0.3,1.9-0.3
		c0.5,0,1-0.1,1.5-0.1c0.3-0.1,0.8,0,1.1,0c0.4,0,0.9,0,1.3-0.1c0.3,0,0.5-0.1,0.8-0.1c0.3,0,0.6-0.1,0.9,0c0,0.1-0.1,0.1-0.1,0.1
		c-0.5,0.3-0.6,0.9-0.8,1.4c-0.1,0.5-0.3,1.1-0.4,1.7c-0.1,0.7-0.3,1.4-0.3,2.1c-0.1,0.7-0.1,1.4-0.3,2.1c0,0.2-0.1,0.5-0.1,0.7
		c-0.1,0.4-0.4,0.8-0.9,0.8c-0.8,0-1.5-0.1-2.3-0.2c-0.6-0.1-1.3-0.1-1.9,0c-0.5,0.1-1,0.4-1.2,1c-0.1,0.3-0.1,0.5,0.1,0.7
		c0.2,0.4,0.2,0.4-0.2,0.5c-0.5,0.1-1,0.5-1.4,0.9c-0.1,0.1,0,0.1-0.1,0.2c0-0.1,0-0.2-0.1-0.3c-0.2-0.5-0.5-0.9-0.8-1.3
		c-0.1-0.1-0.2-0.1-0.4,0c-0.1,0.1-0.1,0.2,0,0.3c0.3,0.5,0.7,1,0.9,1.6c0.1,0.1,0.1,0.1,0.2,0.2c0,0.1-0.1,0.2-0.1,0.3
		c-0.1,0.7,0,1.3,0,2v0.1c-0.1,0-0.3,0-0.3,0.1c-0.2,0.1-0.3,0-0.3-0.1c-0.1-0.2-0.1-0.4-0.1-0.6c-0.1-0.3-0.1-0.7-0.3-1
		c-0.1-0.3-0.3-0.8-0.5-1.1c-0.2-0.3-0.3-0.8-0.7-1c-0.1-0.1-0.1-0.1-0.2-0.2c-0.1-0.1-0.2-0.1-0.3-0.1s-0.1,0-0.1,0.1
		c0,0.1,0.1,0.1,0.1,0.1c0.2,0.2,0.4,0.3,0.5,0.6c0.3,0.5,0.5,1.1,0.8,1.6c0.2,0.5,0.3,1,0.4,1.4c0.1,0.3,0.1,0.5,0,0.8
		c0,0,0,0.1,0,0.1c-0.1,0.4-0.1,0.8,0,1.3c0,0.2,0.1,0.3,0.2,0.5C139.4,49.1,139.9,49.4,140.4,49.5z M134.3,42.9
		c-0.2,0-0.4,0-0.7,0.1c-0.4,0.1-0.7,0.5-1,0.8c-0.1,0.1-0.2,0.3-0.2,0.4c-0.1,0.3-0.1,0.5,0,0.8c0.1,0.8,0.8,1.3,1.6,1.4
		c0.2,0,0.5,0,0.7,0c0.3,0,0.6-0.1,0.9-0.3c0.7-0.6,0.8-1.7,0.3-2.5c-0.1-0.2-0.3-0.4-0.6-0.5C134.9,43,134.7,42.9,134.3,42.9z"/>
	<path fill="#FFFFFF" d="M149.1,55.6c0.1-0.1,0.1-0.3,0.1-0.5c-0.3,0-0.5-0.1-0.8-0.1c0,0.1,0.1,0.1,0.1,0.1c0,0.4,0.2,0.8,0.1,1.2
		h0.1"/>
	<path fill="#FFFFFF" d="M167.9,56c-0.1-0.3-0.2-0.7-0.3-1c-0.1-0.3-0.2-0.5-0.3-0.8c-0.2-0.6-0.3-1.2-0.4-1.9
		c-0.1-0.5-0.3-1.1-0.5-1.6c-0.1-0.4-0.3-0.8-0.3-1.2c-0.1-0.4-0.1-0.8-0.2-1.2c-0.1-0.5-0.1-1-0.1-1.4c0-0.2-0.1-0.3-0.3-0.2
		c-0.4,0.1-0.8,0.1-1.2,0.1c-0.5,0.1-1,0-1.5,0c-1,0-1.9,0.1-2.9,0.1c-0.8,0-1.7,0-2.5,0.1c-0.2,0-0.3,0.1-0.1,0.3s0.3,0.4,0.3,0.5
		c0.3,0.5,0.6,1,0.8,1.4c0.1,0.1,0.1,0.2,0.2,0.3v-0.1c0-0.1-0.1-0.1-0.1-0.2s0.2-0.1,0.3-0.1c0.4,0.1,0.8,0,1.2,0
		c0.3-0.1,0.6-0.1,1-0.1c1,0,2,0,3,0c0.2,0,0.4,0,0.5,0c0.2,0,0.3-0.1,0.3-0.4c0-0.5,0-1,0-1.6c0-0.1-0.1-0.1-0.1-0.2
		c-0.1-0.1-0.1-0.2,0.1-0.2s0.4,0,0.7,0c-0.4,0.3-0.3,0.8-0.3,1.2c0,0.2,0,0.5,0,0.7c0,0.3,0.2,0.5,0.5,0.5c0.1,0,0.2,0.1,0.2,0.1
		c0.1,0.1,0.1,0.2,0,0.3c-0.1,0.1-0.1,0-0.2,0c-0.1,0-0.2-0.1-0.3-0.1c-0.2-0.1-0.3-0.1-0.5,0c-0.2,0.1-0.4,0.2-0.6,0.2
		c-0.3,0-0.8,0-1.1,0c-1.1,0-2.3,0-3.4,0.1c-0.4,0-0.8,0-1.2,0v0.1c0.2,0.4,0.4,0.8,0.6,1.2c0.1,0.1,0.1,0.2,0.1,0.3
		c0.1,0.8-0.1,1.4-0.8,1.9c-0.5,0.3-1.4,0.5-2.1,0c-0.5-0.5-1.1-1-1.4-1.6c0-0.1-0.1-0.1-0.1-0.1c-0.1,0-0.1,0.1-0.1,0.1
		c-0.2,0.5-0.5,0.9-0.7,1.4c-0.5,0.9-1,1.9-1.4,2.7c-0.1,0.3-0.3,0.6-0.5,0.9h0.1c0.1-0.1,0.1-0.1,0.2-0.1c0.3,0.1,0.6,0.1,0.9,0.1
		c0.4,0,0.8-0.1,1.2-0.1c1.4,0,2.9-0.1,4.3,0.1c0.8,0.1,1.4,0.1,2.2,0.1c1.2,0,2.3,0,3.4,0c1,0,2.1,0,3.2,0c0.1,0,0.1,0,0.1,0
		s0.1,0,0.1,0c0.1,0.1,0.2,0.1,0.2,0.1C168.1,56.5,168,56.3,167.9,56z M167.5,55.2c-1,0-1.9,0-2.9,0.1c-1,0.1-1.9-0.1-2.8-0.1
		c-0.3,0-0.8,0-1.1,0c-2.3,0.1-4.6,0.1-6.9,0.1c-0.1,0-0.3,0-0.5-0.1c-0.1,0-0.1-0.1-0.1-0.2c0.1-0.1,0.1-0.2,0.3-0.2
		c0.5,0,1,0,1.6,0c0.7,0,1.5,0,2.3,0c0.3,0,0.6,0.1,0.9,0c0.8,0,1.5-0.1,2.2-0.1c0.6,0,1.3,0.1,1.9,0.1c0.1,0,0.1,0,0.3,0
		c0.8,0,1.6,0,2.5,0c0.7,0,1.4-0.1,2.1-0.1c0.1,0,0.2,0,0.3,0.1C167.7,55.2,167.7,55.2,167.5,55.2z"/>
	<path fill="#FFFFFF" d="M181.2,40.6c0.3,0.1,0.8,0.1,1.1,0.1c0.8,0,1.5,0.1,2.3,0.1c0.3,0,0.8,0,1.1-0.1c0.2,0.3,0.4,0.6,0.6,0.9
		c0.5,0.7,0.6,1.4,0.5,2.3c-0.1,0.5-0.2,1.1-0.4,1.6c-0.2,0.6-0.7,1-1.2,1.3c-0.3,0.2-0.8,0.4-1.2,0.5c-0.3,0.1-0.5,0-0.8-0.1
		c-0.3,0-0.7-0.1-1-0.3c-0.1-0.1-0.2-0.1-0.3-0.1c-0.1,0-0.2,0-0.2,0.1c0,0.1,0.1,0.1,0.1,0.2c0.1,0.1,0.3,0.2,0.5,0.3
		c0.1,0.1,0.2,0.1,0.3,0.1c0.2,0.1,0.2,0.1,0.1,0.3c-0.2,0.4-0.4,0.8-0.6,1.2c-0.2,0.5-0.3,1-0.4,1.5c-0.1,0.7-0.3,1.4-0.5,2.1
		c-0.1,0.3-0.1,0.8-0.2,1.2c0,0.3-0.1,0.6-0.3,0.8c-0.2,0.1-0.4,0.1-0.7,0.1c-0.7-0.1-1.4-0.1-2.1,0c-0.4,0.1-0.8,0.1-1.2,0.1
		c-0.4,0-0.8,0-1.2,0c-0.6,0-1.2-0.1-1.8-0.1c-0.1,0-0.1,0-0.2,0c-0.1-0.3-0.2-0.6-0.3-0.9c-0.1-0.3-0.2-0.5-0.3-0.9
		c-0.1-0.4-0.2-0.8-0.3-1.1c-0.1-0.4-0.3-0.8-0.4-1.3c-0.1-0.3-0.1-0.5-0.1-0.8c0-0.1-0.1-0.2-0.1-0.3c0.3-0.1,0.7,0.1,1,0.1
		c0.9,0,1.8,0,2.7-0.1c0.3,0,0.7,0,1-0.1c0.3-0.1,0.5-0.1,0.8-0.2c0.3-0.2,0.4-0.5,0.5-0.8c0.1-0.5,0.1-1,0.2-1.4
		c0.1-0.3,0.1-0.7,0.1-1c0-0.6,0.1-1.2,0.3-1.9c0.1-0.4,0.3-0.8,0.5-1.2c0.4-0.9,1-1.6,1.7-2.1C181.1,40.8,181.2,40.7,181.2,40.6z
		 M183.2,45.4c0.1,0,0.3,0,0.4,0c0.6,0,1.2-0.5,1.4-1.1c0.1-0.3,0.1-0.7,0-1c-0.1-0.3-0.3-0.5-0.5-0.8c-0.2-0.2-0.4-0.3-0.7-0.4
		c-0.7-0.4-1.4-0.3-2,0.1c-0.7,0.4-0.9,1.6-0.3,2.3C181.9,45.2,182.5,45.5,183.2,45.4z"/>
	<path fill="#FFFFFF" d="M157.4,31.2c0.5,0.7,1.2,1.2,1.8,1.9c0.6,0.7,1.4,1.2,2.1,1.9c0.3,0.3,0.7,0.6,1,0.9
		c0.1,0.1,0.1,0.3,0.1,0.4c-0.1,0.4-0.1,0.8-0.2,1.2c-0.1,0.6-0.1,1.2-0.2,1.8v0.1c0.1,0.7-0.1,1.3-0.1,2c0,0.1-0.1,0.3-0.1,0.4
		s-0.1,0.2-0.3,0.2c-0.5,0-1-0.1-1.4-0.1c-0.4-0.1-0.8-0.1-1.3-0.1s-1-0.1-1.4-0.1c-0.1,0-0.1-0.1-0.1-0.2c0-0.6-0.1-1.2-0.1-1.8
		c-0.1-0.6-0.1-1.2-0.2-1.9c-0.1-0.5-0.2-1-0.3-1.4c-0.1-0.4-0.1-0.8-0.1-1.2c-0.1-0.8-0.2-1.5-0.4-2.3c-0.1-0.5-0.3-1.1-0.8-1.4
		c0,0-0.1-0.1-0.1-0.1c0.4-0.1,0.8-0.1,1.2,0C156.8,31.3,157.1,31.3,157.4,31.2z"/>
	<path fill="#FFFFFF" d="M186.2,40.5c0.2-0.1,0.5-0.1,0.7-0.3c0.1,0.1,0.3,0.1,0.5,0.1c0.5,0.1,1.1,0.3,1.5,0.7
		c0.5,0.4,0.7,1,0.8,1.6c0.1,0.7-0.1,1.3-0.2,2c-0.1,0.3-0.2,0.7-0.3,1c-0.1,0.4-0.5,0.7-0.8,1c-0.3,0.3-0.6,0.5-1,0.7
		c-0.5,0.3-0.8,0.7-1,1.2c-0.4,1-0.8,2-1.1,3c-0.2,0.8-0.4,1.5-0.5,2.3c0,0.2,0,0.4-0.1,0.5c-0.1,0.1-0.2,0.3-0.3,0.3
		c-0.8,0-1.6,0.1-2.5,0c-0.2,0-0.3-0.1-0.2-0.3c0.1-0.3,0.1-0.7,0.1-1c0.1-0.4,0.1-0.8,0.3-1.2c0.1-0.1,0.1-0.3,0.1-0.5
		c0.1-0.4,0.2-0.8,0.3-1.2c0.1-0.7,0.3-1.4,0.7-2c0.1-0.2,0.2-0.4,0.3-0.5c0.1-0.1,0.2-0.2,0.4-0.1c0.1,0.1,0.2-0.1,0.3-0.1
		c0.6-0.1,1.2-0.3,1.6-0.8c0.3-0.2,0.5-0.5,0.8-0.8s0.3-0.6,0.5-1c0.2-0.6,0.3-1.3,0.3-2c-0.1-0.5-0.2-1.1-0.5-1.6
		C186.6,41.1,186.3,40.8,186.2,40.5z"/>
	<path fill="#FFFFFF" d="M174.4,56.7c0-0.1,0-0.3,0-0.5c0-0.4-0.1-0.8-0.3-1.1c0.1-0.1,0.3,0,0.3,0c0.3,0.1,0.5,0.1,0.8,0
		c0.7,0,1.3,0.1,2,0.1c0.5,0,1-0.1,1.6-0.1c0.4-0.1,0.8-0.1,1.2,0c0.3,0.1,0.6,0.1,1,0c0.2-0.1,0.3,0,0.4,0.3c0.1,0.3,0,0.5,0,0.8
		c0,0.3-0.1,0.4-0.4,0.4c-0.4,0-0.8-0.1-1.2-0.1c-0.8,0-1.6,0.1-2.5,0.1c-0.3,0-0.5,0-0.8,0c-0.2,0-0.4,0-0.7,0
		c-0.3,0.1-0.8,0.1-1.1,0.1C174.6,56.5,174.5,56.5,174.4,56.7z"/>
	<path fill="#FFFFFF" d="M141.5,56.3c0.1-0.1,0.1-0.1,0.1-0.1c-0.1-0.3-0.2-0.7-0.3-1c-0.5,0-1,0-1.5,0c-0.8,0-1.6,0.1-2.5,0
		c-0.5,0-0.4,0-0.5,0.3c0,0.1,0,0.1-0.1,0.1c0,0.1,0,0.2,0.1,0.3c0.2,0.3,0.5,0.3,0.8,0.3c0.2,0,0.5-0.1,0.7-0.1
		c0.4,0.1,0.9,0,1.3,0C140.4,56.3,140.9,56.2,141.5,56.3L141.5,56.3z"/>
	<path fill="#FFFFFF" d="M183.6,56.2c-0.4-0.1-0.9,0.1-1.4,0.1c-0.1,0-0.1,0-0.2,0c-0.2,0-0.3-0.1-0.3-0.3c0-0.3,0-0.5,0-0.8
		c0-0.2,0.1-0.3,0.3-0.3c0.1,0,0.1,0,0.1,0c0.7,0.1,1.4,0.1,2.1,0.1c0.1,0,0.3-0.1,0.5,0c0.3,0,0.7,0.3,0.6,0.7c0,0.1,0,0.1,0,0.1
		c0,0.2-0.1,0.3-0.3,0.3C184.6,56.2,184.2,56.3,183.6,56.2z"/>
	<path fill="#FFFFFF" d="M186.6,38.3c-0.1-0.1-0.3-0.1-0.5-0.1c-0.1-0.1-0.2-0.1-0.1-0.3c0.2-0.6-0.1-1.1-0.3-1.6
		c-0.1-0.1-0.1-0.2-0.1-0.3c-0.1-0.1-0.1-0.1,0-0.3c0.1-0.3,0.3-0.5,0.5-0.8c0.1,0.5,0.3,1,0.3,1.4c0,0.3,0.1,0.7,0.1,1
		c0,0.2,0,0.4,0,0.6C186.5,38,186.5,38.2,186.6,38.3z"/>
	<path fill="#FFFFFF" d="M169,33.9c0,0.4,0,0.8,0.1,1.2c0.1,0.5,0.1,0.9,0.2,1.4c0,0.1,0,0.1,0,0.1c-0.1,0.5,0.1,1.2,0.1,1.7
		c0.1,0.6,0.1,1.2,0.2,1.8c0.1,0.2,0,0.5,0.1,0.8c0,0.3,0.1,0.5,0.1,0.8c0,0.1,0.1,0.1,0.1,0.3s0.1,0.3-0.1,0.3
		c-0.2,0.1-0.3,0.3-0.3,0.5c0,0.1,0,0.1,0,0.2c0.1,0.4,0,0.5-0.4,0.5c-0.4,0.1-0.8,0.1-1.2,0.2c-0.3,0.1-0.8,0.3-1.1,0.5
		c-0.3,0.3-0.5,0.6-0.8,1c-0.1,0.3-0.2,0.5-0.2,0.8c0,0.1-0.1,0.2-0.2,0.2s-0.3,0-0.5,0c-0.3,0-0.5,0-0.8,0.1c-0.1,0-0.2,0-0.3,0
		c-0.2-0.1-0.4,0-0.5,0c-0.1,0-0.1,0.1-0.2,0.1c-1,0-2.1,0.1-3.2,0c-0.3,0-0.5,0-0.7,0.1s-0.3,0.1-0.5,0c-0.3-0.1-0.5,0-0.8,0
		c-0.3,0.1-0.5,0-0.8,0.1c-0.1,0-0.3-0.1-0.3-0.3c-0.3-0.5-0.5-1-0.9-1.4c-0.2-0.3-0.3-0.5-0.5-0.8c-0.1-0.1-0.1-0.3,0.1-0.3
		c0.3-0.1,0.8-0.3,1.2-0.4c1-0.1,1.9-0.3,2.8-0.3c0.6-0.1,1.2-0.1,1.8-0.2c0.2,0,0.4-0.1,0.7-0.1c0.2,0,0.3-0.1,0.3-0.3
		c0.1-0.6,0-1.2,0.1-1.9c0.1-0.6,0-1.2,0.1-1.8c0.1-0.5,0.1-1.1,0.2-1.6c0.1-0.5,0.2-1.1,0.3-1.7c0.1-0.5,0.3-1,0.4-1.4
		c0.2-0.5,0.4-1,0.6-1.4c0.1-0.1,0.1-0.2,0.2-0.2c0.1,0,0.1,0.1,0.2,0.3c0,0.3-0.1,0.5-0.1,0.8c-0.1,0.3-0.1,0.6-0.2,1
		c-0.1,0.3-0.1,0.8-0.1,1.1c0,0.2,0.1,0.4,0.1,0.5c0.1,0.1,0.3,0.2,0.5,0.1c0.3-0.1,0.5-0.3,0.7-0.6c0.3-0.3,0.5-0.8,0.9-1.1
		c0.3-0.4,0.7-0.9,1-1.3c0.1-0.2,0.4-0.3,0.6-0.3c0.2-0.1,0.3-0.2,0.5-0.3c0.3-0.1,0.3-0.1,0.4,0.1C168.8,33,168.9,33.5,169,33.9z"
		/>
	<path fill="#FFFFFF" d="M183.5,38c-0.6,0-1.2,0-1.9,0c-0.1,0-0.2-0.1-0.3-0.1c-0.3-0.3-0.5-0.7-0.5-1.1c0-0.3-0.1-0.5,0-0.8
		c0.1-0.5,0.1-1,0.3-1.4c0.1-0.2,0.1-0.5,0-0.7c-0.1-0.2-0.1-0.4-0.1-0.6c0-0.2,0-0.4,0-0.5c0-0.3,0.2-0.7,0.4-1
		c0.1-0.2,0.3-0.5,0.4-0.7c0.1-0.1,0.1-0.3-0.1-0.4c-0.5-0.5-0.4-1.2-0.2-1.8c0.1-0.2,0.2-0.4,0.3-0.6c0.1-0.3,0.1-0.5-0.1-0.7
		c-0.3-0.3-0.4-0.5-0.5-1c-0.1-0.2-0.1-0.5-0.1-0.7c0-0.1-0.1-0.3-0.3-0.3c-0.1,0-0.1,0-0.2,0c-0.8,0-1.6,0-2.5,0
		c-1,0-1.7,0.5-2.1,1.4c-0.2,0.4-0.4,0.9-0.4,1.4c0,0.1,0,0.2-0.1,0.3c0,0.1-0.1,0.2-0.3,0.1c-0.3-0.3-0.5-0.9-0.3-1.3
		c0.1-0.1,0.1-0.3,0-0.5c-0.2-0.5-0.3-0.9-0.1-1.4c0.2-0.3,0.5-0.5,0.8-0.5c0.4-0.1,0.5-0.3,0.8-0.6c0.2-0.4,0.5-0.6,1-0.7
		c0.1,0,0.3,0,0.3,0.1c0.2,0.1,0.4,0.1,0.6-0.1c0.5-0.4,1-0.5,1.6-0.7c0.1,0,0.3,0,0.4,0.1c0.3,0.1,0.7,0.1,1,0.3
		c0.3,0.3,0.6,0.5,1,0.6c0.2,0.1,0.4,0.1,0.6,0.1c0.5,0.1,1.3,0.5,1.4,1.3c0,0.2,0.1,0.5,0.1,0.7c0,0.3-0.1,0.7-0.2,1
		c-0.1,0.3,0,0.5,0.3,0.7c0.8,0.6,1.2,1.4,1.1,2.5c0,0.2,0,0.4,0.2,0.6c0.4,0.3,0.5,0.8,0.6,1.3c0.1,0.4,0.1,0.8-0.1,1.2
		c-0.1,0.3-0.2,0.6-0.3,0.9c-0.1,0.3-0.4,0.7-0.6,1c-0.2,0.3-0.2,0.5-0.1,0.8c0.2,0.3,0.4,0.7,0.4,1.1c0,0.2,0,0.4,0,0.5
		c-0.1,0.2-0.1,0.3-0.3,0.3C184.7,38,184.1,38,183.5,38L183.5,38z"/>
	<path fill="#FFFFFF" d="M154,40c0,0.1,0,0.3,0,0.5c0,0.2-0.1,0.3-0.3,0.2c-0.3-0.1-0.5-0.1-0.8-0.1c-0.4-0.1-0.8-0.1-1.2-0.2
		c-0.4-0.1-0.9-0.2-1.3-0.3c-0.2-0.1-0.5-0.1-0.7-0.1c-0.3-0.1-0.3-0.1-0.2-0.3c0.2-0.8,0.3-1.4,0.4-2.2c0.1-0.8,0.3-1.5,0.4-2.3
		c0.1-0.2,0.1-0.4,0.1-0.6c0-0.1,0-0.2-0.1-0.2c-0.1,0-0.1,0.1-0.2,0.2c-0.1,0.8-0.3,1.6-0.5,2.3c-0.1,0.7-0.2,1.4-0.3,2
		c0,0.3-0.1,0.5-0.1,0.8s-0.3,0.3-0.5,0.3c-0.1,0-0.2-0.1-0.1-0.3c0.1-0.7,0.1-1.4,0.2-2.1c0.1-0.7,0.2-1.4,0.3-2.1
		c0.1-0.8,0.3-1.5,0.5-2.3c0.1-0.3,0.2-0.7,0.3-1c0.2-0.3,0.5-0.5,0.8-0.6c0.2-0.1,0.4,0,0.5,0.1c0.5,0.3,1.2,0.3,1.7,0.2
		c0.5,0,1-0.1,1.4-0.4c0.1-0.1,0.3-0.1,0.4,0c0.3,0.2,0.5,0.5,0.7,0.9c0.3,0.7,0.3,1.4,0.5,2.1c0.1,0.3,0.2,0.8,0.2,1.1
		c0,0.6,0.2,1.2,0.3,1.8c0.1,0.5,0.1,0.9,0.1,1.4c0.1,0.8,0.1,1.5,0.1,2.3c0,0.3,0,0.3-0.3,0.3c-0.8-0.1-1.5-0.1-2.3-0.1
		c-0.3,0-0.7,0.1-1,0.2h-0.1c-0.5,0.1-0.9,0.4-1.2,0.8c-0.1,0.1-0.2,0.3-0.3,0.3c-0.1,0.1-0.1,0.1-0.3,0.1c-0.6-0.1-1.3-0.2-1.9-0.3
		c-0.5-0.1-0.9-0.1-1.4-0.2c-0.5-0.1-0.7-0.6-0.5-1c0.1-0.2,0.1-0.3,0.2-0.5c0.3-0.4,0.7-0.6,1.2-0.5c0.8,0.1,1.6,0.2,2.3,0.4
		c0.5,0.1,1,0.2,1.5,0.3c0.3,0.1,0.7,0.2,1,0.2c0.3,0.1,0.5,0,0.5-0.3c0-0.2,0-0.4,0-0.5c-0.1-0.5,0-1.1-0.1-1.6
		c-0.1-0.8-0.1-1.5-0.1-2.3c-0.1-0.5-0.1-0.9-0.1-1.4c0-0.1,0-0.3-0.1-0.5c0-0.1-0.1-0.2-0.2-0.1c-0.1,0-0.1,0.1-0.1,0.2
		c0,0.4,0.1,0.8,0.1,1.2c0.1,0.3,0.1,0.5,0.1,0.8c0,0.4,0.1,0.8,0.1,1.2c0,0.6,0.1,1.2,0.1,1.8C154,39.6,154,39.8,154,40L154,40z"/>
	<path fill="#FFFFFF" d="M151,46c-0.5,0.1-1.1-0.1-1.7-0.1c-0.4,0-0.8-0.1-1.2-0.1c-0.3,0-0.6-0.1-0.9-0.1c-0.3-0.1-0.5,0.1-0.5,0.4
		c0.1,0.8,0.3,1.5,0.3,2.3c0.1,0.5,0.1,1,0.2,1.5c0.1,0.4,0.1,0.8,0.2,1.2c0.1,0.7,0.2,1.4,0.4,2.1c0.1,0.5,0.2,1,0.3,1.6
		c0.1,0.7,0.3,1.4,0.2,2.1c-0.1,0.6-0.5,1-1.1,1.1c-0.5,0-1-0.1-1.4-0.4c-0.2-0.1-0.3-0.3-0.3-0.5c-0.2-0.5-0.3-1-0.5-1.6
		c-0.1-0.4-0.2-0.9-0.3-1.3c-0.1-0.6-0.3-1.2-0.3-1.9c-0.1-0.4-0.1-0.8-0.3-1.2c-0.1-0.3-0.1-0.7-0.1-1c0-0.2-0.1-0.4-0.1-0.6
		c-0.1-0.8-0.2-1.5-0.4-2.3c-0.1-0.6-0.1-1.3,0-1.9c0.1-0.2,0-0.5,0-0.7c0-0.3,0.1-0.7,0.2-1c0.3-0.5,0.7-1,1.3-1.1
		c0.5-0.1,1-0.1,1.6-0.1c0.6,0,1.2,0.1,1.8,0.2c0.2,0.1,0.4,0,0.6,0.1c0.8,0.2,1.6,0.3,2.3,0.5c0.3,0.1,0.3,0.1,0.3,0.4
		c0,0.7,0,1.4,0.3,2c0.1,0.1,0.1,0.2,0.1,0.3c0.1,0.1,0,0.2-0.1,0.2C151.6,46,151.3,46,151,46z"/>
	<path fill="#FFFFFF" d="M178.1,46.3c-0.1-0.1-0.2-0.1-0.3-0.1c-0.5,0-1.1,0-1.6-0.1c-0.7-0.1-1.4,0.1-2,0.1c-0.3,0-0.5,0-0.8-0.1
		c-0.4-0.1-0.6-0.3-0.8-0.6c-0.2-0.6-0.5-1.3-0.7-1.9c-0.1-0.3-0.1-0.3,0.2-0.4c0.3-0.1,0.7-0.1,1-0.1c0.8-0.1,1.6-0.1,2.3-0.1
		c0.2,0,0.4,0,0.6,0c0.6,0,1.2,0,1.8,0c0.1,0,0.2,0,0.3-0.1c0.1,0,0.1-0.1,0.1-0.1c0-0.1-0.1-0.1-0.1-0.1c-0.3,0-0.6-0.1-1,0
		c-0.3,0.1-0.7,0-1,0c-0.2,0-0.4,0-0.5-0.1c-0.1-0.1-0.1-0.1-0.1-0.1c0.1-0.5,0.2-1,0.3-1.4c0.1-0.5,0.1-1,0.3-1.4
		c0.1-0.4,0.1-0.8,0.3-1.2c0.1-0.5,0.2-1,0.3-1.4c0-0.3,0.1-0.5,0.1-0.8c0.1-0.3,0.1-0.6,0.1-1c0-0.2,0.1-0.4,0.1-0.7
		c0-0.1,0.1-0.2,0.2-0.1c0.1,0.1,0.2,0.1,0.3,0.1c0.3,0.1,0.6-0.1,0.8-0.3c0.1-0.1,0.1-0.2,0.2-0.3c0.1-0.1,0.1-0.2,0.2-0.1
		c0.1,0,0.1,0.1,0.1,0.2c0.1,0.2,0.1,0.4,0.3,0.6c0.3,0.3,0.6,0.4,1,0.4c0.3,0,0.3,0,0.2,0.3c0,0.1,0,0.3,0,0.4s-0.1,0.3-0.1,0.4
		c-0.1,0.6-0.1,1.2,0.2,1.8l0,0c0.1,0.1,0.1,0.1,0.1,0.2c-0.1,0.1-0.1,0.1-0.3,0.1c-0.2,0-0.3,0.1-0.5,0.1s-0.3,0.3-0.4,0.5
		c-0.1,0.3-0.1,0.7,0.1,1c0.2,0.4,0.5,0.6,1,0.7c0,0,0.1,0,0.1,0.1c-0.1,0.1-0.1,0.1-0.2,0.1c-0.4,0.3-0.8,0.7-1,1s-0.5,0.7-0.7,1.1
		s-0.3,0.8-0.4,1.2c-0.1,0.4-0.2,0.8-0.3,1.2C178.2,45.6,178.1,45.9,178.1,46.3z"/>
	<path fill="#FFFFFF" d="M170.4,41.9c-0.1,0-0.2,0-0.2-0.1c0-0.1,0-0.1,0-0.2c0-0.6-0.1-1.2-0.1-1.8c-0.1-0.8-0.2-1.6-0.3-2.3
		c-0.1-0.4,0-0.8-0.1-1.2c0-0.1,0.1-0.2,0.2-0.3c0.3-0.2,0.6-0.3,1-0.4c0.8-0.3,1.6-0.6,2.5-1c0.8-0.3,1.6-0.6,2.3-1
		c0.3-0.1,0.6-0.3,0.9-0.5l0.1-0.1c0.1,0,0.1-0.1,0.1,0c0.1,0.1,0,0.1,0,0.1c-0.1,0.2-0.1,0.4-0.1,0.6c0.1,0.4,0,0.8-0.1,1.3
		c-0.1,0.8-0.3,1.5-0.4,2.3c-0.1,0.5-0.3,1.1-0.3,1.6c-0.1,0.5-0.2,1.2-0.3,1.7c-0.1,0.2-0.1,0.4-0.1,0.6c0,0.1-0.1,0.1-0.2,0.1
		c-0.6,0.1-1.2,0.1-1.8,0.2c-0.5,0.1-1,0.1-1.5,0.1C171.4,41.7,170.9,41.7,170.4,41.9z"/>
	<path fill="#FFFFFF" d="M172.9,57.9c-0.5,0-1.1-0.1-1.4-0.5c-0.3-0.3-0.4-0.5-0.5-0.9c-0.1-0.5-0.3-0.9-0.5-1.4
		c-0.2-0.6-0.5-1.2-0.6-1.8c-0.1-0.5-0.3-0.9-0.3-1.3c-0.1-0.3-0.1-0.5-0.1-0.8c-0.1-0.5-0.1-1-0.3-1.4c-0.1-0.4-0.2-0.8-0.3-1.2
		c-0.1-0.3-0.1-0.6-0.2-0.9s-0.1-0.5-0.1-0.8c-0.1-0.2,0-0.4,0-0.5c0.1-0.3,0.1-0.5,0.2-0.8c0.2-0.9,0.6-1.6,1.5-2
		c0.3-0.1,0.5-0.2,0.9-0.2c0.1,0,0.3,0.1,0.3,0.2c0.3,0.6,0.5,1.2,0.8,1.9c0.1,0.1,0.1,0.3,0.1,0.4s0,0.3-0.1,0.3
		c-0.3,0.1-0.5,0.3-0.6,0.6c-0.1,0.2-0.1,0.4-0.1,0.7c0.1,0.5,0.2,1.1,0.4,1.6c0.1,0.3,0.2,0.6,0.3,1c0.1,0.5,0.3,1,0.4,1.5
		c0.3,0.8,0.5,1.5,0.7,2.3c0.1,0.3,0.3,0.8,0.3,1.1c0.1,0.4,0.2,0.8,0.3,1.2c0.1,0.3,0.1,0.7,0.1,1s-0.4,0.7-0.8,0.7
		C173.1,57.9,173,57.9,172.9,57.9z"/>
	<path fill="#FFFFFF" d="M161,42.3c-0.7,0.3-1.4,0.2-2.2,0.3c-0.1,0-0.2,0-0.3,0.1c-0.5,0.1-1,0.1-1.5,0.2c-0.4,0.1-0.8,0.1-1.2,0.3
		c-0.2,0.1-0.5,0.2-0.7,0.3c-0.3,0.1-0.3,0.3-0.2,0.7c0.2,0.5,0.5,0.8,0.8,1.3c0.3,0.6,0.8,1.3,1.1,1.9c0.2,0.3,0.5,0.6,0.6,1
		c0.1,0.3,0.3,0.6,0.5,1c0.3,0.4,0.5,0.9,0.8,1.3c0.1,0.2,0.2,0.4,0.3,0.6c0.3,0.8-0.2,1.8-1.2,1.9c-0.5,0.1-0.9-0.1-1.2-0.4
		c-0.3-0.3-0.6-0.5-0.8-0.9c-0.3-0.3-0.4-0.8-0.6-1.2c-0.3-0.6-0.7-1.2-1-1.9c-0.5-0.7-0.9-1.4-1.3-2.2c-0.3-0.5-0.5-1-0.8-1.6
		c-0.1-0.2-0.1-0.5-0.1-0.8c0-0.1,0-0.2,0-0.3c-0.1-0.5,0.1-1,0.5-1.4c0.4-0.3,0.9-0.6,1.4-0.6c0.8,0,1.6,0,2.4,0
		c0.8,0.1,1.5,0,2.2,0.1c0.8,0.1,1.6,0.1,2.3,0.3C160.9,42.3,160.9,42.3,161,42.3z"/>
	<path fill="#FFFFFF" d="M142.8,42.7c0.2,0,0.5,0,0.7,0c0.2,0.1,0.3,0.1,0.1,0.3c-0.1,0.1-0.2,0.3-0.3,0.4c-0.1,0.1-0.1,0.2-0.1,0.3
		c-0.1,0.5-0.1,1-0.2,1.6c-0.1,0.9,0.1,1.7,0.2,2.6c0.1,0.5,0.1,1,0.3,1.5c0.1,0.2,0.1,0.5,0.1,0.7c0.1,1,0.4,2,0.5,3
		c0.1,0.5,0.2,1,0.3,1.4c0.1,0.7,0.3,1.3,0.5,1.9c0.1,0.2,0.1,0.5,0.1,0.8c0,0.1-0.1,0.3-0.2,0.3c-0.3,0.2-0.8,0.3-1.1,0.3
		c-0.5-0.1-0.9-0.3-1.2-0.7c-0.3-0.4-0.3-1-0.5-1.4c0-0.1,0-0.3-0.1-0.4c-0.1-0.3-0.1-0.8-0.2-1.1c-0.1-0.5-0.2-1.2-0.3-1.7
		c-0.1-0.8-0.2-1.6-0.4-2.5c-0.2-1-0.3-1.9-0.5-2.8c-0.1-0.9-0.1-1.8-0.1-2.6c0-0.7,0.3-1.2,0.9-1.6c0.3-0.2,0.7-0.3,1-0.3
		C142.4,42.6,142.6,42.7,142.8,42.7z"/>
	<path fill="#FFFFFF" d="M155.7,28.8c0,0.3,0,0.5-0.1,0.9c-0.1,0.4-0.3,0.7-0.5,1c-0.3,0.3-0.8,0.6-1.2,0.8
		c-0.8,0.3-1.7,0.3-2.5-0.1c-0.4-0.2-0.8-0.3-1.2-0.6c-0.3-0.2-0.5-0.5-0.7-0.9c-0.2-0.4-0.2-0.8-0.3-1.2c-0.1-0.7,0.1-1.3,0.3-1.9
		c0.1-0.5,0.3-0.9,0.6-1.2c0.1-0.2,0.4-0.3,0.6-0.2c0.6,0.1,1.2,0.1,1.8,0c0.3-0.1,0.5,0,0.8,0.1c1.2,0.3,1.9,1.2,2.2,2.4
		C155.7,28,155.7,28.4,155.7,28.8z M151.7,29.2c0.1,0,0.3,0,0.3-0.1c0-0.1-0.1-0.2-0.3-0.2c-0.1,0-0.1,0-0.3-0.1
		c-0.1,0-0.2-0.1-0.3-0.1c-0.1,0-0.1-0.1-0.1-0.1c0-0.1,0-0.3,0.1-0.5c0.1-0.3,0.3-0.5,0.4-0.8c0-0.1,0.1-0.1,0-0.1
		c-0.1-0.1-0.1,0-0.1,0l-0.1,0.1c-0.3,0.3-0.5,0.7-0.6,1.2c0,0.1-0.1,0.2-0.1,0.3c0,0.2,0.1,0.3,0.3,0.5
		C151.2,29.1,151.4,29.1,151.7,29.2z"/>
	<path fill="#FFFFFF" d="M163.1,29.4c0.1-1,0.3-1.9,1.1-2.5c0.3-0.3,0.8-0.6,1.3-0.7c0.5-0.1,1.2-0.1,1.7,0.1
		c0.3,0.1,0.5,0.2,0.8,0.3c0.5,0.2,0.8,0.6,1,1.2c0.1,0.5,0.3,1.1,0.5,1.6c0.1,0.3,0.1,0.6,0.2,0.9c0,0.1,0,0.2,0,0.3
		c-0.2,0.5-0.4,0.9-0.8,1.2c-0.4,0.3-0.8,0.5-1.3,0.8c-0.5,0.3-1.2,0.3-1.8,0.1c-0.8-0.2-1.4-0.5-1.9-1.2c-0.3-0.4-0.5-0.8-0.6-1.4
		C163.2,29.8,163.1,29.6,163.1,29.4z M164.8,29.7c0,0.1,0,0.1,0,0.2c0,0.3,0.3,0.5,0.6,0.4c0.1,0,0.1-0.1,0.1-0.1
		c0-0.1-0.1-0.1-0.1-0.2c0,0-0.1,0-0.1-0.1c-0.1-0.1-0.2-0.2-0.2-0.3c0.1-0.3,0.1-0.5,0.3-0.8c0-0.1,0.1-0.1,0.1-0.1
		c0-0.1,0-0.1-0.1-0.2s-0.1,0-0.2,0c-0.1,0.1-0.2,0.1-0.2,0.3C164.8,29,164.8,29.4,164.8,29.7z"/>
	<path fill="#FFFFFF" d="M175.8,29c0-0.7,0.1-1.4,0.4-2c0.4-0.7,0.9-1.1,1.7-1.1c0.2,0,0.4,0,0.6-0.1c0.1-0.1,0.3,0,0.5,0
		c0.4,0.1,0.9,0,1.3,0c0.2,0,0.3,0.1,0.3,0.3c0.1,0.3,0.1,0.5,0.2,0.8c0.1,0.3,0.3,0.5,0.5,0.8c0.1,0.1,0.1,0.2,0.1,0.4
		c-0.2,0.3-0.4,0.7-0.5,1.1c-0.1,0.5-0.1,0.9,0.2,1.3c0.2,0.3,0.2,0.5,0,0.8c-0.2,0.3-0.3,0.5-0.4,0.8c-0.1,0.3-0.4,0.5-0.8,0.5
		c-0.5,0.1-0.9,0.1-1.4,0c-0.3,0-0.5-0.1-0.8-0.3c-0.6-0.3-1.1-0.7-1.5-1.2c-0.1-0.2-0.2-0.4-0.3-0.6
		C175.9,30.1,175.8,29.6,175.8,29z M177.4,29.2c0,0.3,0.3,0.5,0.5,0.5c0.1,0,0.2-0.1,0.2-0.1c0-0.1-0.1-0.1-0.1-0.1
		c-0.3-0.1-0.3-0.2-0.1-0.5c0.1-0.3,0.3-0.6,0.5-0.9c0.1-0.1,0.1-0.1,0-0.2s-0.1,0-0.2,0.1c-0.1,0-0.1,0.1-0.1,0.1
		c-0.1,0.3-0.3,0.5-0.4,0.8C177.5,28.9,177.4,29,177.4,29.2z"/>
	<path fill="#FFFFFF" d="M170.4,27.5c0.2,0,0.4,0.1,0.5,0.1c0.1,0.1,0.3,0.1,0.4,0.1c0.5,0,1,0.2,1.4,0.3c0.3,0.1,0.5,0.1,0.8,0.2
		c0.3,0.1,0.5,0.1,0.8,0.2c0.1,0,0.1,0.1,0.1,0.1c0.2,0.3,0.4,0.5,0.7,0.6c0.2,0.1,0.1,0.3,0.2,0.5c0.1,0.5,0.1,1,0.5,1.4
		c0.2,0.3,0.5,0.5,0.7,0.8c0.2,0.2,0.2,0.2,0,0.4c-0.4,0.4-0.9,0.6-1.4,0.8c-0.5,0.2-0.9,0.4-1.4,0.6c-0.5,0.1-0.9,0.4-1.4,0.5
		c-0.5,0.1-0.9,0.3-1.3,0.5c-0.5,0.1-0.9,0.3-1.4,0.5c-0.1,0.1-0.1,0-0.2-0.1c-0.1-0.2-0.1-0.5-0.1-0.8c0-0.5-0.1-1-0.2-1.5
		c-0.1-0.3,0-0.5,0.3-0.5c0.5-0.2,1.1-0.3,1.6-0.5c0.5-0.2,1-0.3,1.4-0.5c0.3-0.1,0.5-0.1,0.8-0.3c0.1-0.1,0.2-0.1,0.2-0.2
		c0-0.1-0.1-0.2-0.2-0.3c-0.2-0.1-0.4-0.2-0.6-0.2c-0.5-0.1-1-0.2-1.4-0.3c-0.3-0.1-0.5-0.1-0.8-0.2c-0.1-0.1-0.2-0.2-0.2-0.3
		c0-0.2,0-0.3,0-0.5c0-0.3,0-0.5-0.1-0.8c-0.1-0.2,0-0.4,0-0.5C170.3,27.5,170.3,27.5,170.4,27.5z"/>
	<path fill="#FFFFFF" d="M170.1,57.8c-0.6-0.1-1.1-0.3-1.4-0.8c-0.1-0.3-0.2-0.7-0.3-1c-0.3-0.7-0.5-1.4-0.8-2.1
		c-0.1-0.4-0.2-0.9-0.3-1.4c-0.2-0.8-0.4-1.5-0.7-2.2c-0.2-0.5-0.3-1-0.3-1.4c-0.1-0.5-0.2-1.1-0.3-1.6c0-0.2,0-0.3,0-0.5
		c0.1-0.2,0-0.5,0.1-0.7c0.1-0.5,0.3-1,0.8-1.4c0.4-0.3,0.8-0.5,1.3-0.6c0.1-0.1,0.3-0.1,0.5-0.1c0.1,0,0.2,0.1,0.1,0.2
		c0,0.1-0.1,0.1-0.1,0.2c-0.3,0.4-0.4,0.9-0.5,1.4c-0.1,0.5-0.1,0.9-0.1,1.4c0,0.3,0.1,0.6,0.1,1c0.1,0.4,0.1,0.8,0.2,1.2
		c0.1,0.5,0.2,1,0.3,1.5c0.1,0.5,0.1,1,0.3,1.4c0.1,0.3,0.1,0.6,0.3,0.9c0.1,0.4,0.2,0.8,0.3,1.2c0.3,1,0.7,2.1,1.2,3
		c0.1,0.1,0.1,0.3-0.1,0.3C170.5,57.7,170.3,57.8,170.1,57.8z"/>
	<path fill="#FFFFFF" d="M150.6,57.5c-0.7,0-1.3-0.8-1.2-1.4c0.1-0.8,0.4-1.4,0.7-2.1c0.1-0.4,0.3-0.9,0.5-1.3
		c0.3-0.9,0.8-1.8,1.1-2.7c0.3-0.7,0.7-1.4,1-2.1c0.1-0.2,0.2-0.3,0.3-0.1c0.2,0.3,0.3,0.5,0.5,0.8c0.4,0.5,0.7,1.2,1,1.8
		c0.2,0.4,0.1,0.8-0.1,1.1c-0.3,0.7-0.7,1.4-1,2.1c-0.2,0.5-0.5,1-0.7,1.4c-0.3,0.7-0.8,1.4-1.2,2C151.2,57.3,150.9,57.5,150.6,57.5
		z"/>
	<path fill="#FFFFFF" d="M162.9,27c0.1,0,0.2,0.1,0.2,0.2c-0.1,0.3-0.1,0.8-0.1,1.1c0,0.2-0.1,0.3-0.1,0.5c-0.1,0.1-0.1,0.3-0.3,0.3
		c-0.3,0.1-0.6,0.3-1,0.3c-0.2,0.1-0.4,0.2-0.6,0.3c-0.2,0.1-0.2,0.5-0.1,0.6c0.3,0.3,0.7,0.7,1.1,1c0.4,0.3,0.8,0.7,1.2,1
		c0.1,0.1,0.1,0.3,0.1,0.4c-0.3,0.7-0.5,1.4-0.8,2.2c-0.1,0.2-0.1,0.2-0.3,0.1c-0.3-0.3-0.8-0.7-1.1-1c-1-0.8-1.9-1.7-2.7-2.6
		c-0.2-0.2-0.4-0.5-0.6-0.7c-0.2-0.3-0.1-0.6-0.1-1c0.1-0.6,0.5-1,1-1.3c0.7-0.3,1.4-0.6,2.1-1c0.5-0.2,1.1-0.4,1.6-0.6
		C162.5,27.1,162.7,27.1,162.9,27z"/>
	<path fill="#FFFFFF" d="M156,28.8c0.1-0.5,0-1.1-0.2-1.6c-0.1-0.2-0.1-0.4-0.3-0.5c-0.2-0.3-0.3-0.6-0.6-0.8
		c-0.5-0.4-1-0.7-1.6-0.9c-0.5-0.1-0.8,0-1.2,0.1c-0.4,0-0.8,0.1-1.2-0.1c-0.1-0.1-0.2-0.1-0.3-0.3c-0.3-0.5-0.3-1-0.2-1.5
		c0.1-0.3,0.3-0.5,0.5-0.8c0.1-0.1,0.2-0.2,0.3-0.2c0.3-0.1,0.4,0,0.5,0.3c0,0.1,0,0.3,0.1,0.3c0,0.1,0,0.3,0.1,0.3
		c0.1,0.1,0.3,0,0.4-0.1c0.1-0.1,0.2-0.2,0.3-0.3c0.2-0.1,0.4-0.1,0.5-0.1s0.2,0.1,0.2,0.3c0.1,0.4,0.2,0.5,0.6,0.5
		c0.6,0,1,0.3,1.4,0.8c0.2,0.3,0.5,0.6,0.8,1c0.4,0.5,0.7,1.1,0.8,1.8c0,0.2,0,0.4,0.1,0.6c0,0.1,0,0.1,0,0.2
		c-0.1,0.7-0.3,1.3-0.8,1.8c-0.1,0.1-0.1,0.1-0.1,0.1s-0.1-0.1-0.1-0.2C156,29.2,156,29,156,28.8z"/>
	<path fill="#FFFFFF" d="M172.2,49.3c-0.1-0.1-0.1-0.1-0.1-0.2c0-0.3-0.1-0.6-0.1-0.9c-0.1-0.3-0.1-0.5-0.1-0.8
		c0-0.3,0.2-0.5,0.5-0.8c0.2-0.1,0.4-0.1,0.7-0.1c0.5,0,0.9,0.1,1.4,0.1c1-0.1,2.1,0,3.2-0.1c0.2,0,0.3-0.1,0.5,0.1
		c0.1,0.3-0.1,0.8-0.1,1.1s-0.1,0.7-0.3,1c-0.1,0.1-0.2,0.3-0.4,0.3c-0.9,0-1.8,0-2.7,0.1c-0.7,0.1-1.4,0-2.1,0
		C172.3,49.1,172.2,49.1,172.2,49.3z"/>
	<path fill="#FFFFFF" d="M151.5,49.3c0.1,0.1,0,0.1,0,0.2c-0.3,0.5-0.5,1-0.7,1.6c-0.3,0.5-0.5,1.2-0.7,1.7
		c-0.2,0.5-0.4,1.1-0.6,1.6c-0.1,0.1,0,0.2-0.1,0.3c-0.1-0.1-0.1-0.1-0.2-0.1c-0.3,0-0.5,0-0.8,0c0-0.4-0.1-0.8-0.2-1.2
		c-0.1-0.3-0.1-0.7-0.2-1c-0.1-0.4-0.2-0.9-0.3-1.3c-0.1-0.5-0.2-1-0.3-1.6v-0.1c0.1-0.1,0.1-0.1,0.3-0.1c0.9,0,1.8,0,2.7,0
		C150.9,49.5,151.2,49.6,151.5,49.3z"/>
	<path fill="#FFFFFF" d="M169.8,27.5c0,0.3,0,0.7,0,1c0,0.1,0,0.1-0.1,0.1s-0.1-0.1-0.1-0.1c-0.1-0.3-0.2-0.7-0.3-1
		c-0.1-0.4-0.4-0.7-0.8-1c-0.7-0.5-1.4-0.8-2.3-0.7c-0.3,0-0.5,0-0.8,0c-0.4,0.1-0.8,0.3-1.2,0.5c-0.3,0.2-0.5,0.4-0.8,0.7
		c-0.1,0.1-0.1,0.1-0.1,0.1s-0.1-0.1-0.1-0.1c0-0.1,0.1-0.3,0.1-0.5c0.1-0.3,0.2-0.5,0.3-0.8c0.1-0.2,0.1-0.4,0.2-0.6
		c0.1-0.1,0.1-0.1,0.3,0c0.2,0.2,0.4,0.2,0.5-0.1c0.1-0.3,0.3-0.6,0.5-0.9c0.1-0.1,0.1-0.1,0.2-0.1c0.1,0,0.1,0.1,0.1,0.2
		s0.1,0.1,0.1,0.2c0.1,0.1,0.2,0.1,0.3,0c0.1-0.1,0.1-0.1,0.2-0.2c0.1-0.1,0.1-0.1,0.2-0.2c0.1-0.1,0.2-0.1,0.3,0.1
		c0.1,0.1,0.1,0.1,0.1,0.2c0.1,0.3,0.3,0.3,0.5,0.1c0.1,0,0.1-0.1,0.1-0.1c0.3-0.1,0.5-0.1,0.6,0.3s0.1,0.5,0.5,0.5
		c0.1,0,0.2,0,0.2,0.1c0.1,0.2,0.3,0.3,0.4,0.5c0.1,0.1,0.1,0.3,0.1,0.5c0.1,0.3,0.1,0.5,0.1,0.8C169.8,27,169.8,27.3,169.8,27.5z"
		/>
	<path fill="#FFFFFF" d="M147.5,49.1c-0.1-0.2-0.1-0.4-0.1-0.5c-0.1-0.4-0.1-0.8-0.1-1.2c0-0.3-0.1-0.5-0.1-0.8
		c0.1-0.1,0.3-0.1,0.5,0c0.1,0.1,0.3,0.1,0.5,0.1c0.8-0.1,1.4,0.1,2.2,0.1c0.4,0,0.7,0.2,0.8,0.6c0.1,0.4,0.1,0.9,0.1,1.3
		c-0.1,0.4-0.2,0.5-0.6,0.5h-0.1c-0.3-0.1-0.5-0.1-0.8-0.1C149,49.1,148.3,49.1,147.5,49.1z"/>
	<path fill="#FFFFFF" d="M146.4,42.1c-0.5,0-1,0.1-1.4,0.1c-0.2,0-0.4,0.1-0.5,0.1c-0.3,0.1-0.5,0.1-0.8,0c-0.2,0-0.4,0-0.6-0.1
		c-0.3-0.1-0.8-0.5-0.8-0.8c0-0.3,0.1-0.5,0.3-0.7c0.5-0.4,1-0.5,1.6-0.4c0.9,0.1,1.8,0.2,2.6,0.3c0.1,0,0.2,0,0.3,0
		c0.1,0,0.2,0.1,0.1,0.2c-0.1,0.3-0.1,0.5-0.1,0.8c0,0.3-0.1,0.3-0.3,0.3C146.7,42.1,146.6,42.1,146.4,42.1
		C146.4,42.1,146.4,42.1,146.4,42.1z"/>
	<path fill="#FFFFFF" d="M184.1,39.5c0,0.3,0.1,0.5-0.1,0.7c-0.1,0.1-0.1,0.1-0.3,0.1c-0.3,0-0.5,0-0.8-0.1c-0.1-0.1-0.3,0-0.5,0
		c-0.5,0-1,0.1-1.4-0.1c-0.4-0.1-0.8-0.2-1.1-0.6c-0.1-0.3-0.1-0.5-0.1-0.8c0.1-0.2,0.3-0.3,0.4-0.3c0.3-0.1,0.8-0.2,1.2-0.2
		c0.5,0,1.1,0,1.6,0c0.3,0,0.5,0.1,0.7,0.4C184.1,38.9,184.1,39.2,184.1,39.5z"/>
	<path fill="#FFFFFF" d="M184.7,40.3c-0.3,0-0.3,0-0.2-0.3c0.1-0.5,0.1-1-0.1-1.4c-0.1-0.3-0.1-0.3,0.2-0.3c0.4,0,0.8,0,1.2,0.1
		c0.2,0.1,0.5,0.1,0.8,0.1c0.4,0.1,0.7,0.7,0.7,1c0,0.2-0.1,0.3-0.3,0.4c-0.3,0.2-0.8,0.3-1.2,0.3S184.9,40.3,184.7,40.3z"/>
	<path fill="#FFFFFF" d="M169.7,42.8c0-0.1,0.1-0.3,0.2-0.3c0.5-0.3,1-0.4,1.5-0.5c0.5-0.1,1-0.1,1.5-0.1c0.3-0.1,0.4,0,0.5,0.2
		c0.1,0.2,0.3,0.3,0.3,0.5c0.1,0.1,0,0.1-0.1,0.2c-0.4,0.1-0.8,0.1-1.2,0.1c-0.8,0.1-1.6,0.1-2.5,0.4c-0.3,0.1-0.3,0-0.3-0.3
		C169.7,43,169.7,42.9,169.7,42.8z"/>
	<path fill="#FFFFFF" d="M164.4,35c0.1-0.7,0.1-1.4,0.3-2.1c0.1-0.2,0.1-0.3,0.3-0.2c0.4,0.2,0.9,0.2,1.3,0.3
		c0.2,0.1,0.3,0.1,0.1,0.3c-0.3,0.4-0.6,0.8-0.9,1.2c-0.3,0.3-0.5,0.7-0.8,1c-0.1,0.1-0.1,0.1-0.1,0.1c-0.1,0.1-0.2,0-0.3-0.1
		C164.4,35.3,164.4,35.1,164.4,35z"/>
	<path fill="#FFFFFF" d="M140.4,49.1c-0.3-0.1-0.5-0.1-0.8-0.3c-0.3-0.2-0.5-0.4-0.5-0.8c0-0.3,0-0.6,0-0.9c0-0.1,0.1-0.3,0.1-0.3
		c0.2-0.1,0.4-0.2,0.6-0.3c0,0.3,0.1,0.6,0.1,1c0.1,0.4,0.1,0.9,0.1,1.4C140.4,48.9,140.4,49,140.4,49.1z"/>
	<path fill="#FFFFFF" d="M180.2,34.5c-0.3,0-0.5-0.1-0.6-0.3c-0.2-0.3-0.3-0.5-0.3-0.8c0-0.1,0.1-0.2,0.2-0.2
		c0.1-0.1,0.3-0.1,0.5-0.1c0.1,0,0.2,0,0.3-0.1c0.1-0.1,0.2,0,0.2,0.1c0.1,0.3,0.1,0.8,0.2,1.1c0.1,0.1-0.1,0.3-0.3,0.3
		C180.4,34.5,180.3,34.5,180.2,34.5z"/>
	<path fill="#FFFFFF" d="M172.5,31.1L172.5,31.1h-0.1c-0.4,0.1-0.9,0.3-1.3,0.3c-0.4,0-0.8,0.1-1.2,0l0,0c-0.1,0-0.1,0-0.1-0.1
		c-0.1,0.2-0.2,0.3-0.3,0.4c-0.1,0.1-0.1,0.1-0.1,0.2c-0.1,0.1-0.1,0.2,0,0.3c0.1,0.1,0.1,0.1,0.1,0.1c0.4-0.1,0.8-0.2,1.2-0.4
		c0.3-0.1,0.5-0.2,0.8-0.3C171.6,31.4,172.1,31.2,172.5,31.1L172.5,31.1z"/>
	<path fill="#FFFFFF" d="M177,33.4c0-0.3,0.1-0.5,0.3-0.7c0.1-0.1,0.1-0.1,0.3-0.1c0.3,0.1,0.5,0.3,0.9,0.3c0.1,0.1,0.1,0.2,0.1,0.3
		c-0.1,0.2-0.2,0.4-0.3,0.7c-0.1,0.1-0.3,0.2-0.5,0.1c-0.2-0.1-0.5-0.2-0.6-0.4C177.1,33.6,177,33.5,177,33.4z"/>
	<path fill="#FFFFFF" d="M151.8,48.9c-0.1-0.1-0.2-0.3-0.2-0.4c0.1-0.2,0-0.4-0.1-0.6c-0.1-0.5,0.2-1,0.7-1.1
		c0.1,0.1,0.2,0.3,0.2,0.4c0,0.1,0,0.2-0.1,0.3c-0.2,0.3-0.3,0.8-0.5,1.2C152,48.7,151.9,48.8,151.8,48.9z"/>
	<path fill="#FFFFFF" d="M174.8,41.6c0.1,0,0.1,0,0.2,0c0.2,0,0.3,0.1,0.2,0.3c-0.1,0.2-0.1,0.4-0.1,0.5c0,0.1-0.1,0.2-0.2,0.2
		c-0.1,0-0.3,0-0.4,0s-0.2-0.1-0.2-0.1c-0.1-0.2-0.1-0.4-0.3-0.6c-0.1-0.1,0-0.2,0.1-0.2C174.3,41.7,174.6,41.6,174.8,41.6z"/>
	<path fill="#FFFFFF" d="M162.2,31.2c0.3-0.1,0.7,0,1-0.1c0.2,0.2,0.3,0.4,0.5,0.6c0.1,0.1,0,0.3-0.1,0.4c-0.1,0.1-0.3,0-0.3-0.1
		C162.9,31.8,162.7,31.6,162.2,31.2C162.2,31.4,162.2,31.3,162.2,31.2z"/>
	<path fill="#FFFFFF" d="M151.8,46.5c-0.3,0.3-0.3,0.3-0.7,0C151.3,46.5,151.5,46.5,151.8,46.5z"/>
	<path fill="#FFFFFF" d="M149.3,55.1C149.3,55,149.3,55,149.3,55.1C149.4,55.1,149.4,55.1,149.3,55.1z"/>
	<path fill="#FFFFFF" d="M133,40c-0.1-0.7,0.1-1.4,0.2-2.3c0.1-0.4,0-0.8,0.1-1.2c0-0.1,0-0.2-0.1-0.2c-0.1,0-0.1,0.1-0.1,0.1
		c-0.1,0.2-0.1,0.5-0.1,0.8c-0.1,1-0.2,1.9-0.1,2.9c0,0.4,0,0.8-0.1,1.2c-0.1,0.3-0.2,0.4-0.4,0.4c-0.4,0-0.5-0.1-0.6-0.3
		c-0.1-0.2-0.1-0.5-0.1-0.8c0-0.5-0.1-0.9-0.1-1.4c0-0.3,0-0.6,0-1c0-0.3,0-0.6,0.1-1c0-0.5,0.1-1.1,0.3-1.6
		c0.3-0.8,0.4-1.6,0.8-2.3c0.1-0.2,0-0.4-0.1-0.5c-0.5-0.5-0.8-1.3-0.8-2.1c0-0.7,0.1-1.3,0.5-1.9c0.2-0.3,0.2-0.7,0.1-1
		c-0.1-0.1-0.1-0.2-0.1-0.3c0-0.1,0.1-0.1,0.1-0.1c0.1,0,0.1,0,0.2,0.1c0.3,0.1,0.6,0.2,0.9,0.2c0.5,0,1.2,0,1.7-0.1
		c0.2-0.1,0.4,0,0.5,0.1c0.3,0.1,0.6,0.1,0.9,0.1c0.1,0,0.3-0.1,0.3-0.1c0.3-0.1,0.5-0.3,0.9-0.4c0.2-0.1,0.3-0.1,0.3,0.2
		c0,0.4,0.1,0.9-0.1,1.3c-0.1,0.3,0,0.6,0.1,0.9c0.1,0.4,0.2,0.8,0.2,1.2c0,0.6,0,1.2,0,1.9c0,0.4,0.1,0.8,0.3,1.2
		c0.2,0.6,0.4,1.3,0.4,2c0,0.3,0.1,0.5,0.2,0.7c0.3,0.8,0.5,1.5,0.5,2.3c0,0.6,0,1.2-0.1,1.8c-0.1,0.2-0.1,0.4-0.3,0.6
		c-0.1,0.1-0.3,0.2-0.4,0.2c-0.7,0-1.3,0.1-2,0.1c-0.2,0-0.3-0.1-0.5-0.2c-0.1-0.2-0.1-0.4,0.1-0.6c0.2-0.1,0.4-0.2,0.7-0.2
		c0.1,0,0.2,0,0.3,0s0.1,0,0.1-0.1c0-0.1-0.1-0.1-0.1-0.1s-0.1,0-0.1,0c-0.1,0-0.3,0-0.4,0c-0.3,0-0.5-0.2-0.5-0.5
		c-0.1-0.8-0.1-1.6,0.1-2.3c0.2-0.5,0.5-1,1-1.2c0.1-0.1,0.2-0.1,0.1-0.3s-0.2-0.1-0.3-0.1c-0.2,0.1-0.3,0.1-0.4,0.3
		c-0.1,0.1-0.3,0.3-0.5,0.5c-0.1,0.1-0.1,0.1-0.1,0.1c-0.1-0.1-0.1-0.1-0.1-0.2c0-0.1,0-0.2,0.1-0.3c0-0.1,0-0.2-0.1-0.2
		c-0.1,0-0.1,0.1-0.2,0.2c0,0.1,0,0.3-0.1,0.5c-0.1,0.5-0.1,1.1,0,1.7c0,0.2,0,0.4,0,0.6c-0.1,0.5-0.1,1-0.1,1.5
		c0,0.2,0,0.3-0.1,0.5c-0.2,0.4-0.3,0.5-0.8,0.5c-0.1,0-0.2-0.1-0.3-0.3c-0.1-0.3-0.2-0.6-0.3-1c-0.1-0.7-0.1-1.4,0-2.1
		c0.1-0.4,0-0.8,0-1.2c0-0.2-0.1-0.3-0.1-0.5c0-0.1-0.1-0.2-0.2-0.2c-0.1,0-0.1,0.1-0.1,0.2c0.1,0.5,0,1.1,0.1,1.6
		c0,0.2,0,0.3-0.1,0.5c-0.1,0.5-0.1,1.2,0,1.7c0,0.2,0.1,0.3,0.1,0.5c0,0.1-0.1,0.2-0.2,0.3c-0.2,0-0.4,0-0.7,0
		c-0.1,0-0.2-0.1-0.2-0.2C133,40.8,133,40.4,133,40z M133.2,30.9c0.1,0.3,0.3,0.7,0.6,0.9c0.1,0.1,0.2,0.1,0.3,0
		c0.2-0.1,0.4-0.3,0.5-0.5c0.2-0.3,0.1-0.6-0.3-0.7c-0.3-0.1-0.6,0-1,0C133.2,30.5,133.2,30.7,133.2,30.9z"/>
	<path fill="#FFFFFF" d="M129.8,47.1c-0.4,0-0.8-0.3-0.9-0.6c-0.1-0.2,0-0.5,0.1-0.7c0.2-0.4,0.3-0.8,0.3-1.2c0.1-0.7,0.1-1.3,0.3-2
		c0.1-0.3,0.2-0.7,0.4-1c0.1-0.1,0.1-0.1,0.2-0.1c0.2,0.1,0.5,0.1,0.7,0.1c0.3,0,0.5,0.2,0.7,0.3c0.1,0.1,0,0.1,0,0.1
		c-0.4,0.5-0.5,1.2-0.5,1.9c0,0.6,0,1.3-0.1,1.9c-0.1,0.4-0.3,0.8-0.7,1c-0.1,0.1-0.1,0.1-0.2,0.1C129.9,47.1,129.9,47.1,129.8,47.1
		z"/>
	<path fill="#FFFFFF" d="M131,40.8c0.1,0.5-0.1,0.5-0.5,0.4c-0.3-0.1-0.3-0.3-0.1-0.5c0.1-0.2,0.3-0.3,0.5-0.3
		c0.1-0.1,0.2,0,0.2,0.2C131,40.7,131,40.8,131,40.8z"/>
	<path fill="#FFFFFF" d="M132.9,44.7c-0.1-0.6,0.5-1.1,1-1.3c0.3-0.1,0.6-0.1,0.9-0.1c0.2,0.1,0.4,0.1,0.6,0.3
		c0.5,0.5,0.5,1.6-0.1,2.1c-0.3,0.3-0.8,0.4-1.3,0.3c-0.3-0.1-0.5-0.1-0.8-0.3s-0.3-0.3-0.4-0.6C132.9,45,132.9,44.8,132.9,44.7z
		 M135.4,44.5c0-0.5-0.4-0.8-1-0.9c-0.6,0-1,0.4-1.1,0.9c-0.1,0.5,0.3,1,1,1C134.9,45.5,135.4,45.1,135.4,44.5z"/>
	<path fill="#FFFFFF" d="M183.2,45c-0.5,0.1-0.8-0.1-1.2-0.5c-0.4-0.4-0.4-0.9-0.3-1.4c0.1-0.3,0.3-0.5,0.6-0.6
		c0.8-0.5,2,0.1,2.3,0.9c0.2,0.5,0,1.2-0.5,1.4C183.9,45,183.5,45,183.2,45z M183,42.8c-0.1,0-0.3,0.1-0.4,0.1
		c-0.5,0.2-0.6,0.4-0.5,1c0.1,0.5,0.7,1,1.4,0.8c0.5-0.1,0.9-0.9,0.4-1.4C183.6,42.8,183.3,42.8,183,42.8z"/>
	<path fill="#FFFFFF" d="M134,30.8c0.1,0,0.1,0,0.3,0.1c0.1,0,0.2,0.1,0.1,0.3c-0.1,0.1-0.2,0.2-0.3,0.3c-0.1,0.1-0.2,0-0.3-0.1
		c0,0,0-0.1-0.1-0.1c-0.1-0.1-0.2-0.2-0.1-0.3C133.6,30.8,133.8,30.8,134,30.8z"/>
	<path fill="#FFFFFF" d="M135,44.4c0,0.3-0.3,0.7-0.6,0.7c-0.3,0-0.6-0.3-0.6-0.5c0-0.3,0.3-0.6,0.6-0.6C134.8,44,135,44.1,135,44.4
		z"/>
	<path fill="#FFFFFF" d="M183.1,44.3c-0.3,0-0.5-0.1-0.7-0.5c-0.1-0.2-0.1-0.3,0.1-0.5c0.4-0.5,1-0.2,1.2,0.2c0.1,0.1,0,0.3-0.1,0.3
		C183.6,44.1,183.4,44.3,183.1,44.3z"/>
</g>
</svg>
