<?xml version="1.0" encoding="utf-8"?>
<!-- Generator: Adobe Illustrator 18.1.0, SVG Export Plug-In . SVG Version: 6.00 Build 0)  -->
<!DOCTYPE svg PUBLIC "-//W3C//DTD SVG 1.1//EN" "http://www.w3.org/Graphics/SVG/1.1/DTD/svg11.dtd">
<svg version="1.1" id="Layer_1" xmlns="http://www.w3.org/2000/svg" xmlns:xlink="http://www.w3.org/1999/xlink" x="0px" y="0px"
	 viewBox="107.8 7.6 100 46.4" enable-background="new 107.8 7.6 100 46.4" xml:space="preserve">
<g opacity="0.7">
	<path d="M171.7,40.4C171.7,40.4,171.7,40.3,171.7,40.4c-0.1-0.1-0.1-0.2-0.1-0.2c0-0.1-0.2-0.2-0.2-0.3c0-0.1,0-0.1,0-0.2
		c-0.1-0.2-0.2-0.5-0.3-0.8c-0.1,0-0.1,0-0.2,0c0,0.2-0.1,0.3-0.2,0.5c0,0.1,0,0.3,0,0.4c0,0,0,0.1-0.1,0.1c0,0.2-0.2,0.3-0.1,0.5
		c-0.2,0.2-0.3,0.7-0.3,1c0.4,0.2,1,0,1.4,0c-0.2,0.1,0,0,0.1,0C171.9,41.1,171.8,40.7,171.7,40.4L171.7,40.4z"/>
	<path d="M184,38.8c-0.1,0-0.1,0-0.2,0c-0.1,0-0.1-0.2-0.3-0.2c-0.3,0-1.2,0.1-1.5,0c-0.1,0.1-0.1,0.1-0.1,0.1c0,0.7,0.2,1.4,0.2,2
		c0,0.4-0.3,1.7,0,2c0.1,0,0.2,0,0.3,0c0.1-0.1,0.8-0.2,0.9-0.2c0.4-0.4,0.8-0.5,1-1.1c0.1-0.2,0.1-0.4,0.2-0.6
		c0-0.6-0.2-1.1-0.2-1.7C184.1,39,184,38.9,184,38.8z"/>
	<path d="M178.3,39.9c0.1-0.4-0.2-0.6-0.2-1c-0.4-0.2-0.7-0.2-1.1-0.4c0.1,0-0.8-0.1-0.8,0.1c-0.3,0.3-0.1,1.3-0.1,1.7
		c0.1,0.2,0.1,0.4,0.2,0.5c0.3,0,1.2-0.1,1.4-0.3C177.9,40.4,178.3,40.1,178.3,39.9z"/>
	<path d="M183.5,22.3c-0.1-0.1-0.3-0.2-0.4-0.2c-0.2-0.2-1.4-0.3-1.4-0.3c-0.3,0.1-0.6,0.2-0.8,0.5c-0.1,0.1-0.2,0.5-0.4,0.5
		c0,0.3-0.5,0.9-0.6,1.1c-0.2,0.9-0.4,1.7-0.4,2.6h-0.1c0,0.6-0.1,1.4,0.2,2c0,0.1,0.5,1.4,0.6,1.4c0,0.1,0.3,0.2,0.4,0.4
		c0.1,0.3,0.6,0.6,0.9,0.6c0.4,0.2,1.2,0.3,1.5-0.1c0,0,0.1-0.2,0.2-0.2c0.5,0.1,0.6-0.7,1.1-0.9c0.4-0.4,0.3-1.4,0.4-1.9
		c0.1-0.7,0.2-1.5,0.1-2.2c0-0.7-0.3-1.2-0.5-1.8C184.2,23.5,183.5,22.6,183.5,22.3z"/>
	<path d="M204.1,29.3c-0.1-2.5,0-4.9,0-7.4c0-1,0-1.9,0-2.9c0-1.1,0.5-3.7-0.4-4.6c-0.2-0.3-0.3-0.6-0.6-0.8
		c-0.2-0.2-0.5-0.4-0.7-0.6c-0.8-0.4-1.6-0.3-2.5-0.3c-0.8,0-1.6-0.2-2.3-0.2c-1.9-0.1-3.8,0.1-5.7,0.1c-7.1,0-14.1-0.1-21.2-0.1
		c-1.6,0-3.3-0.2-4.9-0.1c-1.8,0.1-3.6,0.2-5.4,0.3c-1.8,0.1-3.6,0.1-5.4,0.2c-1.5,0-2.7,0.4-4,1.1c-0.4,0.4-1,0.8-1.2,1.3
		c-0.6,1.8-0.6,3.6-0.6,5.5c0,1.7-0.1,3.4-0.1,5c0.3,1.3,0.1,2.8,0,4.2c0,0.8-0.1,1.6-0.1,2.4c0,1.8,0,3.5,0,5.3
		c0.1,1.8,0.1,3.6,0.1,5.3c0,0.6,0,1.1,0,1.7c-0.1,1-0.5,2.5,0,3.5c0.1,0,0.1,0.1,0.1,0.1c0.1,0.3,0.2,0.5,0.4,0.8
		c0.3,0.5,0.9,1,1.4,1.2c1.1,0.7,3.3,0.3,4.5,0.2c1.3-0.1,2.5-0.1,3.8,0c1.4,0.1,2.8-0.1,4.3-0.1c1.7,0,3.4,0.1,5.1,0.1
		c6.1-0.1,12.2-0.4,18.3-0.4c0.1-0.1,0.2-0.1,0.3-0.1c0.3-0.3,2.1,0,2.6,0c1,0,2,0,3,0c2.3,0,4.5-0.1,6.8-0.1c0.5,0,0.8,0,0.8-0.7
		c0.3,0,0.7-0.1,1-0.2c0.5-0.2,1-0.5,1.4-0.8c1.7-1.6,1.4-4.3,1.4-6.4C204.2,37.5,204.3,33.4,204.1,29.3z M155.8,30.6
		c0.2-0.3,2.2-1.8,2.2-1.1c0.2,0.4,0.7,0.8,1,1.1c0.7,0.5,1.4,0,2.2,0.1c0.7-0.7,1.4-1.5,1.2-2.7c0-0.4-0.1-0.8-0.3-1
		c-0.1-0.2-0.3-0.3-0.5-0.4c-0.5-0.3-0.9-0.2-1.4-0.2c-0.2,0-0.3-0.2-0.5-0.2c0,0,0,0-0.2,0.1c-0.1,0-0.2,0.1-0.3,0
		c-0.3-0.3-1.1-0.9-1.1-1.4c0-0.4,1-1.3,1.4-1.4c0.3-0.6,0.9-1,1.2-1.6c-0.8,0-1.6-0.1-2.5-0.1c-0.2,0-1.4,0.2-1.6,0.1
		c-0.9-0.2-0.5-1.7-0.4-2.2c1-0.4,2.1,0,3.2-0.1c1.1-0.1,2.3,0.2,3.3,0c0.1,0,0.2,0,0.3-0.1c0.2,0.1,0.2,0.1,0.3,0.1
		c0.2,0,0.3,0.1,0.4,0.2c0.1,0.1,0.2,0.2,0.3,0.3c0,0.5-0.2,1-0.2,1.5c-0.3,0.3-0.4,0.6-0.8,0.9c0,0.1,0,0.1,0,0.2
		c0,0,0,0.1-0.1,0.1H163c0,0.1-0.2,0.2-0.2,0.3c-0.1,0-0.2,0.2-0.3,0.2c-0.1,0.5-0.8,0.6-1,1.1c0.4,0.1,1,0,1.4,0.2
		c0.4,0.4,1,0.6,1.3,1c0.2,0.3,0.3,0.7,0.6,0.9c0,0.3,0.2,0.6,0.2,0.8c0.1,1-0.2,2-0.4,3c-0.3,0.2-0.5,0.7-0.8,0.9
		c0,0.1,0,0.1,0,0.2c-0.3,0.3-0.5,0.6-0.8,0.8c-0.1,0-0.1,0-0.2,0C160.9,34.2,156.8,33.1,155.8,30.6z M166.6,43.8
		c-0.5,0-0.9,0.2-1.5,0.1c-0.3-0.1-0.8-0.5-1.1-0.5c-0.3-0.3-0.7-0.7-0.9-1.1c0-0.1,0-0.1,0-0.2c0,0,0-0.1-0.1-0.1
		c0,0-0.1-0.1-0.1-0.2c0-0.6-0.1-1.4,0-2c0.1-0.3,0.4-0.6,0.4-1c0.1-0.2,0.2-0.2,0.2-0.3c0,0,0,0,0-0.1c0.1-0.1,0.2-0.2,0.2-0.2
		c0-0.2,0.3-0.5,0.5-0.5c0.1-0.1,0.1-0.1,0.2-0.2c0-0.1,0.1-0.1,0.2-0.1c0,0,0.1,0,0.1-0.1c0.6,0,1-0.5,1.7-0.2
		c0.2,0,0.6,0.2,0.8,0.3c0.3,0.3,0.7,0.3,0.5,0.8c-0.1,0.1-0.1,0.1-0.2,0.2c0,0.2-0.3,0.4-0.4,0.5c0,0-0.4-0.1-0.4-0.2
		c-0.2,0-0.4-0.2-0.5-0.2c-0.6-0.1-1,0.1-1.4,0.5c0,0.1,0,0.1,0,0.2c-0.1,0.1-0.1,0.1-0.2,0.2c0,0.1,0,0.1,0,0.2
		c0,0.3-0.3,0.6-0.3,0.9c0,0.5,0.2,0.9,0.2,1.3c-0.2,0.4-0.2,0.5-0.1,0.5l0.1,0.1c0.1,0,0.1,0.1,0.1,0.2c0.2,0,0.3,0.2,0.5,0.2
		c0.2,0.1,0.5,0.1,0.8,0c0.2-0.1,1-0.5,1.2-0.5c0.2,0.1,0.2,0.2,0.4,0.3c0.2,0.2,0.2,0.2,0.3,0.4C167.5,43.3,166.9,43.4,166.6,43.8z
		 M172.9,44c-0.2-0.4-0.3-1.3-0.6-1.6c-0.8,0.2-1.7,0.1-2.5,0.1c-0.1,0.1-0.2,0.4-0.2,0.5c0,0-0.1,0.1-0.2,0.2
		c-0.1,0.2-0.1,0.5-0.3,0.7c-0.1,0-0.2,0.1-0.3,0.2c-0.2,0-0.7,0.1-0.9-0.1c0-0.1,0-0.2,0-0.2c0-0.2,0.2-0.3,0.2-0.5
		c0-0.1,0-0.1,0-0.2c-0.1-0.3,0.1-0.6,0.2-0.8c0.2-0.4,0.3-1.3,0.6-1.6c0-0.4,0.3-0.7,0.3-1.1c0-0.1,0-0.1,0-0.2
		c0-0.7,0.3-1.3,0.6-1.8c0.2,0.1,0.4,0.1,0.5-0.1c0.4-0.1,0.9-0.1,1.4-0.1c0.2,0.2,0.6,0.8,0.6,1.1c0,0.1,0,0.1,0,0.2
		c0.1,0.3,0.2,0.6,0.3,0.9c0,0.1,0,0.2,0,0.3c0,0.3,0.2,0.7,0.4,1c0,0.1,0,0.1,0,0.2c0,0.1,0.1,0.2,0.2,0.3c0,0.4,0.3,1.2,0.5,1.5
		c0,0.1,0,0.1,0,0.2c0.2,0.3,0.3,0.5,0.3,0.8C173.8,44.1,173.2,44,172.9,44z M174.5,32.3c-0.3,0-0.5,0.5-0.8,0.6
		c-0.3,0.2-0.9,0.2-1.1,0.5c-0.1,0.1-0.2,0.2-0.4,0.2c-0.8,0.3-1.8-0.1-2.5-0.3c-0.6-0.2-1-0.6-1.6-0.9c-0.1,0-0.3-0.1-0.4-0.2
		c0-0.1-0.1-0.2-0.2-0.3c0-0.1-0.2-0.2-0.3-0.2c-0.1-0.2-0.1-0.5-0.3-0.7c0-0.5,1.8-1.1,2.1-0.9c0.1,0,0.2,0.1,0.2,0.2
		c0,0,0.2,0.3,0.2,0.4c0.2,0.2,0.4,0.4,0.6,0.6c0.2,0.1,0.4,0.2,0.6,0.3c0.1,0,0.2,0,0.3,0.1c0.1,0,0.2,0.1,0.2,0
		c0.3,0,0.6-0.3,0.8-0.4c0.4-0.2,0.6-0.6,0.9-0.8c0-0.2,0.3-0.9,0.5-1c0-0.2-0.1-0.7,0.1-0.9c0-0.3-0.1-0.5-0.2-0.8
		c0-0.2,0-0.4-0.1-0.6c-0.2-0.6-1.3-0.8-1.8-0.6c-0.7,0.2-1,0.9-1.7,1.1c-0.5,0-0.8,0-1.3-0.1c-0.4,0-0.7-0.2-0.8-0.5
		c0-1.1,0.2-2.2,0.4-3.3c0.1-0.6,0-1.2,0.2-1.7c0.1-0.5,0.3-1,0.3-1.5c0.1-0.3,0.4-0.6,0.6-0.8c1-0.3,2.2-0.1,3.3-0.4
		c0.6,0,1.3-0.2,1.9,0c0.3,0.4,0.5,1.1,0.5,1.7c-0.4,0.4-1.2,0.5-1.8,0.5c-0.7,0-1.9-0.2-2.5,0.1c-0.2,0.2-0.4,0.4-0.3,0.7
		c0,0.7-0.3,1.3-0.3,2c0.2,0.1,0.5,0,0.6-0.1c0.2-0.2,0.4-0.2,0.6-0.2c0.3-0.2,1.2-0.2,1.5,0c0,0,0.1,0.1,0.2,0.2
		c0.3,0,0.5,0.2,0.8,0.2c0.1,0.1,0.2,0.1,0.2,0.2c0.2,0.1,0.3,0.1,0.5,0.2c1.1,1.1,1.7,2.5,1.7,3.9c-0.1,0-0.1,0.1-0.2,0.2
		c0,0.4,0,1-0.2,1.4c-0.1,0.1-0.1,0.1-0.2,0.2c0,0.1,0,0.2,0,0.3c-0.2,0.3-0.5,0.7-0.5,1.1C174.8,31.9,174.5,32,174.5,32.3z
		 M178.1,44c-0.1-0.1-0.1-0.1-0.2-0.2c0-0.1-0.1-0.2-0.1-0.2c-0.1-0.1-0.1-0.1-0.1-0.2c-0.1-0.1-0.1-0.1-0.2-0.2
		c0-0.1-0.2-0.2-0.2-0.3c-0.2-0.2-0.5-0.7-0.5-0.9c-0.2-0.1-0.3-0.3-0.4-0.5c-1.1,0-0.1,1.7-0.6,2.2c-0.2,0-0.5,0-0.7,0.1
		c-0.2,0-0.5,0-0.6-0.2c0-0.6,0.1-1.1,0.1-1.7c0-1.5-0.2-3.2,0.1-4.6c0-0.6,2.5-0.1,3-0.2c0,0,0.1,0.1,0.2,0.2
		c0.3,0.1,0.5,0.3,0.8,0.4c0.3,0.3,0.4,0.7,0.7,1c0,0.2,0,0.5,0,0.7c-0.1,0.2-0.1,0.8-0.3,0.8c-0.1,0.1-0.1,0.2-0.1,0.2
		c-0.2,0.2-0.3,0.3-0.5,0.5c-0.1,0-0.2,0.1-0.3,0.2c0.3,0.2,0.3,0.2,0.2,0.2c-0.2,0-0.3,0.1-0.5,0.2c0,0.2,0.2,0.4,0.4,0.5
		c0,0.1,0.1,0.2,0.2,0.3c0,0.4,1.1,0.9,1.1,1.4C179.4,44.2,178.4,44,178.1,44z M185.5,41.3c0,0.1,0,0.1,0,0.2
		c-0.3,0.5-0.6,1.1-1,1.5c-0.1,0-0.1,0-0.2,0c0,0.1-0.1,0.1-0.2,0.2c-0.1,0-0.1,0-0.2,0c-0.1,0-0.3,0.1-0.3,0.2
		c-0.3,0-0.6,0.1-0.8,0.2c-0.6,0-1.3,0-1.9,0c-1.1-0.1-0.6-1.1-0.8-2c0.4-0.2,0.3-0.6,0.3-0.9c0-1.1,0-2.1,0-3.2
		c0.5-0.3,1.7,0,2.3,0c0.4,0,0.9,0.3,1.3,0.3c0.1,0.1,0.1,0.1,0.2,0.2c0.7,0.4,0.8,0.8,1.1,1.4c0,0.1,0,0.1,0,0.2c0,0,0,0.1,0.1,0.1
		c0,0.3,0.1,0.6,0.1,0.9C185.6,40.8,185.5,41.1,185.5,41.3z M184,32.9c-0.7,0.4-1.8,0.5-2.6,0.4c-0.4,0-1.2-0.2-1.4-0.5
		c-0.7-0.3-1.2-1.8-1.5-2.4c-0.3-0.3-0.1-1-0.5-1.4c-0.2-1.1-0.2-2.3-0.2-3.4c0-0.7,0-1.8,0.3-2.5c0-0.6,0.8-1.6,1.1-2
		c0.4-0.4,1-1,1.5-1.1c0.4,0,0.6-0.2,0.9-0.2l-0.2-0.2c0.1,0,0.1,0,0.2,0c0.1,0,0.2,0,0.3-0.1c0.5,0,0.9,0.2,1.4,0.2
		c0.1,0.1,0.1,0.1,0.2,0.2c0.2,0,0.5,0.1,0.6,0.2c0,0.1,0.1,0.2,0.2,0.3c0.1,0,0.1,0,0.2,0c0.4,0.4,0.9,0.6,1.2,1.2
		c0,0.1,0,0.1,0,0.2c0.7,0.7,0.4,1.7,0.8,2.5c0,0.2,0.2,0.2,0.2,0.4c0.3,1.5,0.1,3.3-0.3,4.8C186,31.1,185.2,31.8,184,32.9z
		 M190.6,42.7c0,0.1-0.1,0.2-0.2,0.3c0,0.1,0,0.1,0,0.2c-0.1,0.1-0.2,0.2-0.2,0.3c-0.1,0.1-0.3,0.3-0.3,0.4
		c-0.2,0.2-0.6,0.3-0.8,0.5c-0.1,0-0.1,0-0.2,0c-0.1,0-0.2,0.1-0.3,0.2c-0.3,0.1-0.6-0.2-0.9-0.2c-0.4-0.2-1.6-0.6-1.2-1.3
		c0,0,0.1-0.1,0.2-0.2c0-0.1,0.1-0.2,0.1-0.2c0.1-0.1,0.1-0.1,0.2-0.2c0.2,0.2,0.3,0.3,0.5,0.5h0.1c0,0,0.1,0,0.1,0.1
		c0.1,0,0.2,0.2,0.3,0.2c0,0,0.1,0,0.1,0c0.3,0,0.6,0.2,0.8,0c0.1,0,0.2-0.2,0.3-0.2c0.1-0.1,0.2-0.2,0.2-0.3c0.1-0.2,0.1-0.3,0-0.5
		c0,0,0,0,0-0.1c-0.1-0.1-0.5-0.4-0.5-0.6c-0.2,0-1.1-0.8-1.1-1c0-0.1,0-0.1,0-0.2c-0.7-0.1-1.1-1.5-1-2c0,0,0-0.1,0.1-0.1
		c0.1-0.2,0.1-0.3,0.2-0.5c0.2-0.1,0.5-0.3,0.7-0.5c0.8,0,1.4-0.1,2.1,0.3c0.1,0.1,0.2,0.2,0.3,0.2c0.6,0.6-0.2,0.4-0.2,0.8
		c-0.5,0.5-0.1,0.2-0.6,0.2c0-0.1,0-0.1,0-0.2c-0.1-0.1-0.2-0.2-0.3-0.3c-0.3,0-0.7,0-1,0c-0.2,0.2-0.2,0.3-0.1,0.5
		c0.1,0.1,0.3,0.5,0.4,0.5c0.1,0,0.1,0,0.2,0c0.2,0.2,0.4,0.3,0.6,0.5c0.2,0,0.8,0.4,0.9,0.6c0,0.1,0.1,0.1,0.1,0.2
		c0.1,0.1,0.2,0.2,0.3,0.3c0,0.1,0.2,0.2,0.2,0.3c0,0.1,0,0.4,0.1,0.5C190.6,42.2,190.6,42.5,190.6,42.7z M196.9,27.8
		c-0.7,0.5-1.8,0.2-2.6,0.4c-0.2,0.8,0.1,1.6,0.1,2.4c-0.2,0.2-0.5,0.4-0.9,0.3c-0.4,0-0.8,0-1.1,0.1c-0.2-0.2-0.5-0.3-0.8-0.5
		c0-0.8,0-1.5-0.2-2.3c-0.8-0.3-1.5,0.2-2.4-0.2c-0.4-0.6-0.3-1.4-0.5-2c0.7-0.7,2.1-0.2,3-0.5c0.2-0.9-0.2-1.7,0.2-2.6
		c0.1-0.2,0.2-0.2,0.5-0.2c0.3,0.1,0.5,0.1,0.8,0.1c0.2-0.1,0.5-0.1,0.7,0c0.3,0,0.5,0.1,0.6,0.2c0.2,0.8,0,1.6,0,2.4
		c0.6,0.8,1.9,0,2.7,0.5C197.1,26.4,197.1,27.2,196.9,27.8z"/>
</g>
<path opacity="0.7" d="M144.8,24.5c0.1-0.6,0.1-1.3,0-1.9c0.1-0.2,0-0.5-0.1-0.7c-0.1-0.1,0-0.3-0.2-0.5c0.1-0.2-0.1-0.3-0.1-0.5
	c-0.3-0.6-0.9-1.1-1.2-1.8c-0.1-0.2-0.3-0.2-0.5-0.3c-0.6-0.3-1.4-0.5-1.7-1.3c0-0.1-0.1-0.1-0.2-0.2c-0.2-0.1-0.3-0.3-0.4-0.5
	c-0.2-0.3-0.3-0.6-0.7-0.7c-0.2-0.1-0.3-0.2-0.4-0.3c-0.3-0.5-0.7-0.8-1.3-1c-0.3-0.5-0.7-0.9-1-1.4c-0.1-0.2-0.3-0.2-0.5-0.3
	c-0.6-0.3-1.4-0.5-1.7-1.3c0-0.1-0.1-0.1-0.2-0.2c-0.2-0.1-0.3-0.3-0.4-0.5c-0.2-0.3-0.3-0.6-0.7-0.7c-0.2-0.1-0.3-0.2-0.4-0.3
	c-0.3-0.6-0.9-0.9-1.5-1.1c-0.6-0.2-1.1-0.3-1.7-0.3c-0.1,0-0.2,0-0.2,0c-0.6-0.1-1.1-0.1-1.8-0.1c-0.3,0-0.5-0.1-0.8,0.1
	c-0.1,0-0.2,0-0.3,0c-0.3-0.1-0.7-0.2-1,0c-0.1,0-0.2,0-0.2,0.1c-0.1,0-0.2,0-0.3,0c-1.4,0-2.8,0.2-4.1,0.1c-0.1,0-0.2,0-0.3,0.1
	c-0.2,0-0.3,0-0.5,0.1c-0.5-0.1-1,0-1.5,0.1c-0.2,0-0.5,0-0.6,0.2c-0.1,0-0.2,0-0.2,0.1c-0.5,0-1,0.2-1.4,0.6
	c-0.1,0.1-0.1,0.1-0.2,0.1c-0.5-0.1-0.9,0.4-1.1,1c-0.1,0.1-0.1,0.2-0.2,0.3c-0.2,0.6-0.3,1.1-0.4,1.7c-0.1,0.7,0,1.5,0,2.2
	c0,1.1-0.1,2.2-0.1,3.4c0,0.2,0,0.3,0.1,0.5c0,0.4-0.1,0.7,0,1.1c0.1,1.1,0,2.2,0.1,3.3c0.1,0.7-0.1,1.5,0,2.2
	c0,0.6,0.1,1.2-0.1,1.8c-0.1,0.5-0.1,1-0.1,1.4c0,0.7,0.1,1.4,0.1,2.2c0.1,1.2,0,2.4,0.2,3.6c0.2,0.9,0.6,2.7,1.3,3.3
	c0.6,0.5,1.3,0.9,1.7,1.5c0,0,0,0,0.1,0c0.1,0.1,0.1,0.1,0.1,0.1c0.1,0.2,0.3,0.3,0.5,0.4c0.2,0.1,0.3,0.2,0.4,0.5
	c0.2,0.7,0.6,1.3,1,1.9c0.5,0.6,1.1,1,1.9,1.1c0.1,0,0.2,0,0.2,0c0.1,0.1,0.2,0.2,0.3,0.3c0.6,0.5,1.3,0.9,1.7,1.5c0,0,0,0,0.1,0
	c0.1,0.1,0.1,0.1,0.1,0.1c0.1,0.2,0.3,0.3,0.5,0.4c0.2,0.1,0.3,0.2,0.4,0.5c0.2,0.7,0.6,1.3,1,1.9c0.5,0.6,1.1,1,1.9,1.1
	c0.5,0.1,0.9,0,1.3-0.1c1.7-0.1,3.3,0.1,4.9-0.1c1-0.1,2.1-0.1,3.1-0.1c0.4,0,0.8-0.1,1.1-0.2c0.1,0,0.2,0,0.3,0
	c0.8,0.1,1.7-0.1,2.5-0.2c1-0.2,1.8-0.7,2.4-1.7c0.2-0.5,0.6-0.9,0.5-1.5c0-0.1,0.1-0.2,0.1-0.3c0.2-0.4,0.1-0.8,0.1-1.2
	c0.1-0.2,0.1-0.4,0.1-0.6c0.1-0.7-0.1-2.4,0-3.2c0-0.1,0-0.1,0-0.2c0-0.2,0-0.3,0-0.5c0.2-0.6,0.1-1.2,0.2-1.8
	c0.1-1.4,0.1-2.8,0.1-4.2c0-0.2,0-0.5,0-0.7c0.2-0.2,0.1-0.5,0.1-0.8s-0.1-0.6-0.1-0.9c0.1-0.3,0.1-0.7,0.1-1.1c0-1.4,0-2.9,0-4.4
	C144.8,25.5,144.9,25.1,144.8,24.5z M141.9,19c0.1-0.1,0.2,0,0.2,0c0.8,0.3,1.2,1,1.4,1.8c0.1,0.2,0.1,0.5,0.1,0.7
	c-0.1,1.8-0.1,3.5-0.2,5.3c-0.1,1.8-0.1,3.6-0.4,5.4c-0.1,0.9-0.1,1.8-0.2,2.8c-0.1,1.5-0.2,3-0.2,4.5c0,0.1,0.1,0.2-0.1,0.2
	c-0.1,0-0.2-0.1-0.2-0.2c0.1-1.8,0.1-3.6,0.1-5.4c0-1.5,0.2-3.1,0.1-4.6c-0.1-1,0.1-1.9,0-2.8c-0.1-1.3,0-2.5-0.1-3.7
	c-0.1-1-0.1-2.1-0.3-3.1c-0.1-0.2-0.1-0.3-0.2-0.5C141.9,19.2,141.8,19.1,141.9,19z M141.6,30.7c0.2-2.2,0.2-4.5,0.2-6.8
	c0-0.4,0-0.9,0.2-1.3c0,1,0,2.1,0,3c0,1.9,0,3.9,0,5.9c0,0.9-0.1,1.7-0.1,2.6c0,0.5,0,1,0.1,1.5c0.1,0.6,0.1,1.1,0,1.6
	c-0.1,0.8-0.1,1.5,0.1,2.3c0.1,0.6-0.1,1.1-0.1,1.7c0,0.5,0,2-0.1,2.5c-0.1,0.7-0.3,1.4-0.9,1.9c-0.7,0.6-1.5,0.8-2.4,0.7
	c-0.5-0.1-0.9-0.1-1.4-0.1c-0.1,0-0.2,0-0.2,0c-0.1,0-0.1-0.1-0.1-0.2c0-0.1,0.1-0.1,0.2-0.1c0.7,0,1.5-0.1,2.2-0.3
	c1.1-0.4,1.9-2.6,2-3.8c0.1-1,0.1-1.9,0.1-2.9c0.1-1.7,0.2-3.4,0.2-5.2C141.5,33,141.5,31.8,141.6,30.7z M139.6,28.6
	c0.1-0.6,0.1-1.3,0.2-1.9c0.1-0.8,0.1-1.7,0.1-2.5c0.1-0.7,0-1.5,0.1-2.3c0.1-0.4-0.1-0.8-0.1-1.2c0-0.9,0-1.7,0.1-2.6
	c0.1-0.3,0.1-0.6-0.1-0.9c-0.1-0.1-0.1-0.3-0.1-0.5c0.2,0.2,0.3,0.3,0.4,0.6c0.3,0.9,0.3,1.7,0.2,2.6c-0.1,1.3-0.1,2.6-0.2,4
	c-0.1,0.7,0,1.4-0.2,2.1c0,0.1,0,0.2,0,0.2c0,1-0.1,2-0.3,3c-0.1,0.3,0,0.6,0,0.9C139.7,29.6,139.6,29.1,139.6,28.6z M139.6,37.4
	c0.1-0.6,0-1.3,0.1-1.9c0-0.3,0.1-0.6,0.1-0.9c0-0.1,0.1-0.2,0.3-0.3c0,0.6,0,1.3,0,1.8c0,0.7,0.1,1.4,0,2.1
	c-0.1,1.4,0.2,2.8-0.3,4.1c-0.5,1.3-1.8,2.9-3,2.6c-0.1,0-0.1-0.1-0.2-0.1c0.2-0.2,0.6-0.2,0.8-0.3c0.6-0.3,1.1-0.6,1.5-1.1
	c0.3-0.4,0.4-1.9,0.5-2.4C139.4,39.9,139.5,38.7,139.6,37.4z M135.8,44.6c-1.1,0-2.2,0.1-3.3,0.1c-0.9,0-1.8-0.1-2.7-0.1
	c0.5,0,1-0.1,1.6-0.1c1.4,0,2.7-0.3,4.1-0.2c0.7,0.1,1.3-0.2,1.9-0.5c0.3-0.1,0.6-1.4,0.9-1.5c0.1-0.1,0.1-0.1,0.3-0.1
	c0,0.3-0.2,1.5-0.4,1.6C137.5,44.3,136.6,44.6,135.8,44.6z M138.3,20.1c-0.2,2.8-0.1,5.5-0.2,8.3c0,0.4-0.1,0.8-0.1,1.2
	c0-4.6-0.2-9.2-0.1-14c0.3,0.7,0.3,1.5,0.3,2.2C138.3,18.6,138.4,19.3,138.3,20.1z M127,41.7c-0.9,0.1-1.8,0-2.8,0.1
	c-0.4,0-0.8,0-1.2,0.1c-0.7,0.1-1.5-0.1-2.1-0.4c-0.2-0.1-0.4-0.3-0.6-0.5c1.2,0,2.4,0,3.6,0.2c0.5,0.1,1,0,1.5,0.1
	c2.5,0.1,5,0.2,7.5,0.2c0.9,0,1.6-0.1,2.2-0.7c0.2-0.2,0.4-0.5,0.6-0.7c0.1,0.2,0,0.3-0.1,0.5c-0.8,0.9-1.8,1.3-3,1.3
	C130.9,41.6,128.9,41.6,127,41.7z M129.8,42.9c-0.7,0.1-1.5,0.1-2.2,0C128.3,42.8,129,42.9,129.8,42.9z M135.5,24.9
	c0.3-2.2,0.2-4.5,0.2-6.8c0-0.4,0-0.9,0.2-1.3c0,1,0,2.1,0,3c0,1.9,0,3.9,0,5.9c0,0.9-0.1,1.7-0.1,2.6c0,0.5,0,1,0.1,1.5
	c0.1,0.6,0.1,1.1,0,1.6c-0.1,0.8-0.1,1.5,0.1,2.3c0.1,0.6-0.1,1.1-0.1,1.7c0,0.5,0,2-0.1,2.5c-0.1,0.7-0.3,1.4-0.9,1.9
	c-0.7,0.6-1.5,0.8-2.4,0.7c-0.5-0.1-0.9-0.1-1.4-0.1c-0.1,0-0.2,0-0.3,0c-0.1,0-0.1-0.1-0.1-0.2c0-0.1,0.1-0.1,0.2-0.1
	c0.7,0,1.5-0.1,2.2-0.3c1.1-0.4,1.9-2.6,2-3.8c0.1-1,0.1-1.9,0.1-2.9c0.1-1.7,0.2-3.4,0.2-5.2C135.4,27.2,135.4,26,135.5,24.9z
	 M132.6,42.6c0.8-0.1,1.5-0.1,2.4-0.2c0.9-0.2,1.7-0.7,2.2-1.5c0.1-0.1,0.2-0.2,0.3-0.3c0.1,0.1,0.1,0.2,0.1,0.3
	c-0.3,1-1.4,1.7-2.4,1.8c-1,0.1-2,0.2-3,0.2c-0.1,0-0.3,0.1-0.5-0.1C131.9,42.6,132.2,42.6,132.6,42.6z M137.5,36.1
	c0,0.6-0.2,2.3-0.2,2.9c0,1.1-0.8,2.2-1.8,2.6c-0.1,0-0.1,0.1-0.2,0c0.2-0.2,0.3-0.4,0.6-0.6c0.6-0.5,0.9-1,1-1.8
	c0.2-1.4,0.2-3.7,0.3-5.1c0.1-1.2,0.1-2.5,0.2-3.7c0-1.2,0.1-2.4,0.1-3.6c0-0.2,0.1-0.3,0.2-0.6c0,0.4,0.1,0.7,0.1,1.1
	c0,0.4-0.1,0.7-0.1,1.1C137.5,31.1,137.5,33.6,137.5,36.1z M135.8,13.2c0.1-0.1,0.2,0,0.2,0c0.8,0.3,1.2,1,1.4,1.8
	c0.1,0.2,0.1,0.5,0.1,0.7c-0.1,1.8-0.1,3.5-0.2,5.3c-0.1,1.8-0.1,3.6-0.4,5.4c-0.1,0.9-0.1,1.8-0.2,2.8c-0.1,1.5-0.2,3-0.2,4.5
	c0,0.1,0.1,0.2-0.1,0.2c-0.1,0-0.2-0.1-0.2-0.2c0.1-1.8,0.1-3.6,0.1-5.4c0-1.5,0.2-3.1,0.1-4.6c-0.1-1,0.1-1.9,0-2.9
	c-0.1-1.3,0-2.5-0.1-3.7c-0.1-1-0.1-2.1-0.3-3.1c-0.1-0.2-0.1-0.3-0.2-0.5C135.8,13.4,135.7,13.2,135.8,13.2z M133.8,11
	c0.2,0.2,0.3,0.4,0.4,0.6c0.3,0.9,0.3,1.7,0.2,2.6c-0.1,1.3-0.1,2.6-0.2,4c-0.1,0.7,0,1.4-0.2,2.1c0,0.1,0,0.2,0,0.2
	c0,1-0.1,2-0.3,3c-0.1,0.3,0,0.6,0,0.9c-0.1-0.5-0.2-1-0.1-1.5c0.1-0.6,0.1-1.3,0.2-1.9c0.1-0.8,0.1-1.7,0.1-2.5
	c0.1-0.7,0-1.5,0.1-2.3c0.1-0.4-0.1-0.8-0.1-1.2c0-0.9,0-1.7,0.1-2.6c0.1-0.3,0.1-0.6-0.1-0.9C133.8,11.3,133.8,11.1,133.8,11z
	 M131.2,38.9c0.6-0.3,1.1-0.6,1.5-1.1c0.3-0.4,0.4-1.9,0.5-2.4c0.1-1.3,0.2-2.5,0.4-3.8c0.1-0.6,0-1.3,0.1-1.9
	c0-0.3,0.1-0.6,0.1-0.9c0-0.1,0.1-0.2,0.3-0.3c0,0.6,0,1.3,0,1.8c0,0.7,0.1,1.4,0,2.1c-0.1,1.4,0.2,2.8-0.3,4.1s-1.8,2.9-3,2.6
	c-0.1,0-0.1-0.1-0.2-0.1C130.7,39,131,39,131.2,38.9z M129.7,38.7c-1.1,0-2.2,0.1-3.3,0.1c-0.9,0-1.8-0.1-2.7-0.1
	c0.5,0,1-0.1,1.5-0.1c1.4,0,2.7-0.3,4.1-0.2c0.7,0.1,1.3-0.2,1.9-0.5c0.3-0.1,0.6-1.4,0.9-1.5c0.1-0.1,0.1-0.1,0.3-0.1
	c0,0.3-0.2,1.5-0.4,1.6C131.3,38.5,130.6,38.8,129.7,38.7z M116.5,36.1c-0.7-0.6-0.9-1.5-0.9-2.3c-0.1-1.6-0.3-3.3-0.2-4.9
	c0-0.5,0-1,0.1-1.5c0.1-0.4,0-0.8,0-1.2c0-0.8,0-1.5,0-2.4c0.1-1.3-0.1-2.5-0.1-3.8c0-0.6-0.1-1.2-0.1-1.8c0-1.7-0.1-3.3,0.1-4.9
	c0.1-0.7,0.1-1.5,0.5-2.1c0.3-0.7,0.9-1.1,1.7-1.4c0.7-0.2,1.4-0.4,2.2-0.4c1.9-0.1,3.8-0.1,5.8-0.3c0.7-0.1,1.4-0.1,2.1-0.1
	c1.1,0.1,2.2-0.1,3.3,0.1c0.7,0.1,1.4,0.3,1.9,1c0.4,0.5,0.5,1.1,0.5,1.8c0,1-0.1,1.9-0.1,2.9c0.1,0.7,0.1,1.4,0.1,2.1
	c-0.1,1.5,0.1,3-0.1,4.4c-0.3,1.8-0.1,3.6-0.2,5.4c-0.1,1.9-0.2,4-0.2,5.9c0,0.7-0.1,1.3-0.1,2c-0.1,0.6-0.3,0.9-0.7,1.3
	c-0.7,0.7-1.7,2.1-2.6,1.9c-0.9,0-1.7,0-2.5,0.2c-0.1,0-0.2,0-0.2,0c-2.3-0.1-4.6,0.3-6.9,0.2c-0.3,0-0.6,0-0.9,0
	C117.8,38.4,117.2,36.8,116.5,36.1z M118.9,39.7c-0.1-0.1-0.3-0.1-0.4-0.3c0-0.1-0.1-0.1-0.1-0.2c0.5,0.1,1-0.1,1.5,0.1
	c0.3,0.1,0.8,0.1,1.2,0.1c0.6,0.1,1.3,0.1,1.9,0.1c2.8,0.2,5.5,0.1,8.3,0.2c0.6,0,1.1-0.2,1.6-0.5c0.5-0.3,0.9-0.8,1.1-1.4
	c0.3-0.7,0.3-2.4,0.3-3.2c0-1.7,0-3.3,0-5c0-0.9-0.1-1.8,0-2.8c0.1-2,0.1-4,0.1-6c0.1-1.2,0.2-2.5,0.3-3.7c0.1-0.5,0.1-1,0.1-1.5
	c0.1-1,0-2.1,0.2-3c0.3,0.3,0.3,0.7,0.3,1.1c0.1,0.6-0.1,1.3-0.1,1.9c0,0.7,0.1,1.5,0.1,2.2c0,1.7,0,3.3-0.1,4.9
	c-0.1,0.9-0.2,1.7-0.2,2.6c-0.1,1,0,1.9-0.1,2.9c-0.1,2.4-0.2,4.7-0.2,7.1c0,0.6-0.2,2.2-0.2,2.8c-0.1,0.4-0.4,0.6-0.7,0.9
	c-0.6,0.5-1.3,0.9-2.1,0.8c-0.1,0-0.3,0-0.4,0c-0.9,0-1.8,0.1-2.8,0.2c-0.1,0-0.1,0-0.1,0c-1.5-0.1-3.1,0.2-4.6,0.2
	c-0.9,0-1.7,0.1-2.5,0.1C120.5,40.5,119.6,40.4,118.9,39.7z M119.9,41.3c0.3,0,0.6,0.3,0.8,0.5c0.6,0.5,1.3,0.5,1.9,0.5
	c1.4-0.1,2.9,0,4.3-0.1c0.6,0,1.2-0.1,1.8,0.1c-0.4,0.1-0.7,0.1-1.1,0.2c-1.1,0.1-2.2,0.1-3.4,0.1c-0.5,0-1,0.1-1.5,0.1
	C121.6,42.8,120.3,42.3,119.9,41.3z M123.9,43.6c1.4,0,2.9,0.1,4.4-0.1c1-0.1,2.1-0.1,3.1-0.1c0.4,0,0.8-0.1,1.1-0.2
	c0.1,0,0.2,0,0.3,0c0.8,0.1,1.7-0.1,2.5-0.2c1-0.2,1.8-0.7,2.4-1.7c0.3-0.5,0.6-0.9,0.5-1.5c0-0.1,0.1-0.2,0.1-0.3
	c0.2-0.4,0.1-0.8,0.1-1.2c0.1-0.2,0.1-0.4,0.1-0.6c0.1-0.7-0.1-2.4,0-3.2c0-0.1,0-0.1,0-0.2c0-0.2,0-0.3,0-0.5
	c0.2-0.6,0.1-1.2,0.2-1.8c0.1-1.4,0.1-2.8,0.1-4.2c0-0.2,0-0.5,0-0.7c0.2-0.2,0.1-0.5,0.1-0.8s-0.1-0.6-0.1-0.9
	c0.1-0.3,0.1-0.7,0.1-1.1c0-1.4,0-2.9,0-4.4c0-0.5,0.1-1,0.1-1.4c0.1-0.6,0.1-1.3,0-1.9c0.1-0.2,0-0.5-0.1-0.7
	c-0.1-0.1,0-0.3-0.2-0.5c0-0.1,0-0.1,0-0.1c0.2,0.1,0.3,0.3,0.5,0.5c0.4,0.5,0.5,1.1,0.5,1.8c0,1-0.1,1.9-0.1,2.9
	c0.1,0.7,0.1,1.4,0.1,2.1c-0.1,1.5,0.1,3-0.1,4.4c-0.3,1.8-0.1,3.6-0.2,5.4c-0.1,1.9-0.2,4-0.2,5.9c0,0.7-0.1,1.3-0.1,2
	c-0.1,0.6-0.3,0.9-0.7,1.3c-0.7,0.7-1.7,2.1-2.6,1.9c-0.9,0-1.7,0-2.5,0.2c-0.1,0-0.2,0-0.2,0c-2.3-0.1-4.6,0.3-6.9,0.2
	c-0.3,0-0.6,0-0.9,0C124.5,44.2,124.1,43.9,123.9,43.6z M125.1,45.5c-0.1-0.1-0.3-0.1-0.4-0.3c0-0.1-0.1-0.1-0.1-0.2
	c0.5,0.1,1-0.1,1.5,0.1c0.3,0.1,0.8,0.1,1.1,0.1c0.6,0.1,1.3,0.1,1.9,0.1c2.8,0.2,5.5,0.1,8.3,0.2c0.6,0,1.1-0.2,1.6-0.5
	s0.9-0.8,1.1-1.4c0.3-0.7,0.3-2.4,0.3-3.2c0-1.7,0-3.3,0-5c0-0.9-0.1-1.8,0-2.8c0.1-2,0.1-4,0.1-6c0.1-1.2,0.2-2.5,0.3-3.7
	c0.1-0.5,0.1-1,0.1-1.5c0.1-1,0-2.1,0.2-3c0.3,0.3,0.3,0.7,0.3,1.1c0.1,0.6-0.1,1.3-0.1,1.9c0,0.7,0.1,1.5,0.1,2.2
	c0,1.7,0,3.3-0.1,4.9c-0.1,0.9-0.2,1.7-0.2,2.6c-0.1,1,0,1.9-0.1,2.9c-0.1,2.4-0.2,4.7-0.2,7.1c0,0.6-0.2,2.2-0.2,2.8
	c-0.1,0.4-0.4,0.6-0.7,0.9c-0.6,0.5-1.3,0.9-2.1,0.8c-1-0.1-2.1,0.1-3.2,0.2c-0.1,0-0.1,0-0.1,0c-1.5-0.1-3.1,0.2-4.6,0.2
	c-0.9,0-1.7,0.1-2.5,0.1C126.6,46.3,125.8,46.2,125.1,45.5z M130.3,48.3c-0.5,0-1,0.1-1.5,0.1c-1.1,0.1-2.4-0.3-2.8-1.3
	c0.3,0,0.6,0.3,0.8,0.5c0.6,0.5,1.3,0.5,1.9,0.5c1.4-0.1,2.9,0,4.3-0.1c0.6,0,1.2-0.1,1.8,0.1c-0.4,0.1-0.7,0.1-1.1,0.2
	C132.5,48.3,131.4,48.3,130.3,48.3z M133.6,48.7c0.7-0.1,1.5,0,2.2,0C135.1,48.7,134.4,48.8,133.6,48.7z M133.2,47.5
	c-0.9,0.1-1.8,0-2.8,0.1c-0.4,0-0.8,0-1.2,0.1c-0.7,0.1-1.5-0.1-2.1-0.4c-0.2-0.1-0.4-0.3-0.6-0.5c1.2,0,2.4,0,3.6,0.2
	c0.5,0.1,1,0,1.5,0.1c2.5,0.1,5,0.2,7.5,0.2c0.9,0,1.6-0.1,2.2-0.7c0.2-0.2,0.4-0.5,0.6-0.7c0.1,0.2,0,0.3-0.1,0.5
	c-0.8,0.9-1.8,1.3-3,1.3C136.9,47.4,135,47.4,133.2,47.5z M143.5,46.6c-0.3,1-1.4,1.7-2.4,1.8c-1,0.1-2,0.2-3,0.2
	c-0.1,0-0.3,0.1-0.5-0.1c0.4-0.1,0.7-0.1,1.1-0.1c0.8-0.1,1.5-0.1,2.4-0.2c0.9-0.2,1.7-0.7,2.2-1.5c0.1-0.1,0.2-0.2,0.3-0.3
	C143.6,46.4,143.5,46.5,143.5,46.6z M143.6,33.3c0,0.4,0,0.7-0.1,1.1c0,2.5-0.1,5-0.1,7.5c0,0.6-0.2,2.3-0.2,2.9
	c0,1.1-0.8,2.2-1.8,2.6c-0.1,0-0.1,0.1-0.2,0c0.2-0.2,0.3-0.4,0.6-0.6c0.6-0.5,0.9-1,1-1.8c0.2-1.4,0.2-3.7,0.3-5.1
	c0.1-1.2,0.1-2.5,0.2-3.7c0-1.2,0.1-2.4,0.1-3.6c0-0.2,0.1-0.3,0.2-0.6C143.6,32.5,143.6,32.9,143.6,33.3z M144.4,25.9
	c-0.2,2.8-0.1,5.5-0.2,8.3c0,0.4-0.1,0.8-0.1,1.2c0-4.6-0.2-9.2-0.1-14c0.3,0.7,0.3,1.5,0.3,2.2C144.4,24.4,144.4,25.1,144.4,25.9z"
	/>
</svg>
