<?xml version="1.0" encoding="utf-8"?>
<!-- Generator: Adobe Illustrator 18.1.0, SVG Export Plug-In . SVG Version: 6.00 Build 0)  -->
<!DOCTYPE svg PUBLIC "-//W3C//DTD SVG 1.0//EN" "http://www.w3.org/TR/2001/REC-SVG-20010904/DTD/svg10.dtd">
<svg version="1.0" id="Layer_1" xmlns="http://www.w3.org/2000/svg" xmlns:xlink="http://www.w3.org/1999/xlink" x="0px" y="0px"
	 viewBox="0 0 1551.6 1170.2" enable-background="new 0 0 1551.6 1170.2" xml:space="preserve">
<g>
	<path fill="#FFFFFF" d="M364.4,755.9c-6.9,3.4-14.4,4.2-21.7,6.4c-7.1,2.1-14.1,3.9-21.5,3.8c-15-0.2-33-0.6-47.2-5.9
		c-12.9-4.8-26-14.9-32-27.3c-3.1-6.4-4.9-11.5-6.4-18.5c-1.8-8-5.9-10.4-13.6-10.9c-3.7-0.2-7.4,0-11-0.6
		c-4.3-0.7-7.7-2.8-11.7-3.9c-2.5-0.7-5.1-0.2-7.6-1.1c-3.6-1.2-7.1-4.2-10.5-5.9c-11.6-5.9-25.2-13-33.4-23.4
		c-9.2-11.8-15-25.6-22.4-38.4c-8-13.9-10.4-30.4-16.4-45.2c-2.8-7-4.4-14.2-5.2-21.7c-0.8-7.9-2.3-15.7-2.1-23.6
		c0.1-4-0.7-7.7-0.9-11.7c-0.1-3.1,1.3-6.2,1.5-9.3c0.3-3.4-0.1-6.9,0.6-10.3c0.9-4.3,2.6-8.5,3.7-12.7c3.7-13.9,7.7-27.4,15.6-39.5
		c8.3-12.8,18-23,29.6-33c5.3-4.6,10.7-7.7,17-11c6-3.2,12.8-5.3,16.7-11.3c4.4-6.7,2.8-10.7,0-17.8c-2.7-6.8-4.2-14.8-5.7-22
		c-1.6-7.4-1.6-16-1.3-23.6c0.2-4.2-0.7-8.2-0.7-12.4c0.1-4.1,1.6-8.4,2.4-12.5c3-15.6,8.8-29.2,21.9-38.7
		c6.4-4.7,13.3-7.8,20.5-11.1c3.2-1.5,5.7-2.3,6.3-5.7c0.6-2.9-1-9.6-1.3-12.7c-1.2-13.3-2.9-27.4,1.5-40.5
		c2.7-7.9,5.2-16.1,8.5-23.8c2.6-6.1,7.4-11.9,11-17.5c8.7-13.4,22.3-22.3,35.8-30.3c13.7-8.1,28.1-12.2,44.2-12.1
		c7.5,0.1,14.4,2.4,21.7,2c5.3-0.3,6.5-0.8,10.3-4.7c2.6-2.7,5.1-5.5,8-7.8c9.8-7.7,23-14.9,34.8-18.2c6.6-1.9,12.7-4.7,19.6-5.7
		c8.5-1.3,16.7-0.4,25,1.8c15.1,3.9,25.6,12.6,34.7,24.8c4.3,5.7,8,8.6,14.6,4.4c6.2-4,12.3-9.2,18.1-13.8
		c6.1-4.8,13.3-7.4,20.4-10.5c7.4-3.3,15.1-7,23.2-8.2c13.6-1.9,27.5-1.7,41,0.7c15.4,2.6,31.2,8.3,42.2,20
		c11.1,11.8,13.1,25.9,17.6,40.6c1.5,4.8,5.4,7.3,10.3,8.1c3.4,0.6,6.6-0.6,10-0.6c4.9,0.1,10.5,1.4,15.4,2.3
		c15.7,3,29.2,6.9,41.6,17.5c10.6,9.1,18.4,24,21.8,37.5c2,8-0.5,12.2,8.6,14.8c8.5,2.4,16.7,1.6,25.4,2.2c14.4,1,31.4,7,41.1,18
		c9.6,10.9,16.3,28.9,16.7,43.4c0.2,6.6-2.6,17.8,0.9,23.2c4,6,11.7,6.8,17.7,9.1c12.7,4.9,13.7,19.7,7.3,30.1
		c-2.8,4.6-12.6,13.1-8.6,18.4c1.5,2,4.6,3.2,6.5,4.9c3.3,2.8,6.1,6,8.5,9.7c9.3,14.2,9.3,30,8.8,46.5c-0.2,7.6-2,40-15.2,36.1
		c-3.4-1-6-4-9-5.8c-2.7-1.6-5.6-2.7-8.3-4.2c-6.4-3.6-12.2-8.2-18.4-12c-11.1-6.8-24.3-10.7-34.3-19.2c-4.8-4.1-11.3-4.8-16.6-8.3
		c-2.8-1.9-5.4-4.2-8.5-5.6c-3.8-1.8-6.9-1.2-8.6-5.2c-2.5-6-0.1-12.2-2.1-18.1c-2.2-6.7-6.2-14-10.7-19.5c-4-4.9-9.5-9.7-14.7-13.3
		c-2.1-1.4-7.2-2.8-8.7-4.7c-2.5-3,0.3-4.8,2.2-7.5c3.1-4.4,6.5-10,4.2-15.5c-0.6-1.4-3.7-6.2-5.5-6.4c-2.9-0.3-5.2,4-6.2,6.1
		c-2.8,6.3-3.3,12.1-8.9,16.7c-2.8,2.3-6.6,3.6-5.4,8c0.9,3.2,5.1,5.6,7.9,6.9c5.9,2.8,11.6,3.1,16.8,7.4
		c5.9,4.9,10.2,11.1,13.2,18.1c5.8,13.5,7.9,31.5,3.5,45.6c-2.4,7.7-4.4,15.4-7.6,22.8c-2.5,5.9-9.5,14.1-6.3,20.8
		c3.1,6.4,9.7,9.9,11.3,17.4c1.5,6.7-0.3,14.3-4.3,19.9c-3.4,4.8-9.1,9.1-14.9,10.2c-4.3,0.8-15.8-1.4-17.3,4.3
		c-0.8,3,2.4,7.9,3.1,10.8c0.9,3.5,1.1,7.1,1,10.7c-0.3,7.5-2.6,15-5.8,21.8c-6.3,13.4-18.9,23.2-33.1,27.1c-3.5,1-7.1,2-10.7,2.7
		c-3.7,0.7-7.5-0.1-11.1,0.4c-8.9,1.4-0.9,9.4,0.6,13.9c4.4,13.8,0.2,31.7-14,37.4c-5.6,2.2-12.8-0.2-17.9-3.2
		c-3.9-2.3-9.7-9.2-15.1-5.4c-6.1,4.3,6.2,12.2,9.9,13.8c5.9,2.6,15.3,6.4,21.8,6.3c13.8-0.2,24-11.2,27.8-23.7
		c2.4-7.8,2.2-14,1-21.9c-0.7-4.6-1-5.8,3.1-7.5c3.6-1.5,7.8-1.6,11.5-3c6.6-2.4,13.8-6.8,19.7-10.6c5.9-3.7,10.5-9.1,14.1-15
		c2.9-4.8,4.3-11.3,11.1-9.2c8,2.5,15.5,4.4,23.9,5.9c16.4,2.9,32.6,6.9,48.8,10.7c15.3,3.7,30.4,8.5,45.9,11.4
		c7.2,1.4,14.5,2.9,21.6,4.9c8.1,2.3,14.6,1.5,15.8,11.3c0.9,7.6,0.4,15.4,0.1,23c-0.3,8-0.3,15.5-2.8,23.2
		c-5.1,15.7-12.7,31.8-21.6,45.8c-16.7,26.2-41.5,47.9-68.3,63.5c-13.4,7.8-27.8,11.9-43.2,12.1c-7.1,0.1-13.1,0-20-1.3
		c-8.2-1.6-15.8-4.8-23.9-6.7c-15.3-3.4-16.4,14.9-22.7,24c-4.4,6.3-11,11.1-17,15.8c-6.1,4.8-12.5,7.4-20.3,7.4c-7.1,0-14-2-20.4-5
		c-7.2-3.4-10.1-7.3-14.9-13.3c-4.1-5.2-7.1-7.8-13.5-3.8c-7.5,4.6-14.3,10.5-21.5,15.5c-5.4,3.7-11.7,7-17.8,9.5
		c-7.3,3.1-15.2,6.5-22.9,8.8c-13.3,3.8-26.5,6.4-40.3,6.3c-8.3-0.1-16.3,1.5-24.8,0.8c-7.8-0.7-16-2.5-23.7-3.9
		c-15.4-2.8-28.9-8.6-41.8-17.2c-5.5-3.7-8.9-7.3-13-12.4c-4.8-6-10.8-10.9-14.9-17.5C376.3,777.8,378.7,761.3,364.4,755.9
		C360.5,757.8,365.3,756.2,364.4,755.9z"/>
	<path fill="#FF6757" d="M736.6,535.5c3.5-5.2,9.2-5.2,14.4-7.4c6.7-2.9,9.4-8.7,12.8-14.7c7.9-13.5,5.7-25.4-3-37.7
		c-4.3-6-0.5-10.4,2.7-16.6c3.5-6.8,5.4-14,7.2-21.4c1-4.2,1-14,5.8-14.9c3.3-0.6,8.7,2.7,11,4.6c4.3,3.6,7.5,7.2,12.5,10.2
		c6.7,4,13.6,7.7,20.5,11.4c13.6,7.3,26.9,15.5,40.3,23.2c26.2,14.9,52.3,30.6,77.9,46.5c13.7,8.5,26.9,16.6,41.8,22.7
		c14.6,6,29.2,11.6,43.6,18c6.8,3,13.8,5.8,20.8,8.3c5.5,2,13.8,8.1,18.1,2.2c1.9-2.6,2.3-5,4.8-7.4c2.3-2.2,5.2-4.1,7.8-6
		c6.1-4.3,12.4-7.3,18.9-10.8c11.1-5.9,21-19.6,28-29.7c8-11.5,13.9-24.3,19.1-37.2c2.2-5.3,4.1-9.4,4.4-15.3c0.1-3.2,1-5.5,1.6-8.6
		c0.7-3.6,0.2-7.4,2.1-10.8c2.4-4.4,7.3-6.1,11.7-3.3c5.5,3.6,7.8,12.6,9,18.7c2.9,14.8-1,28.8-3.7,43.3c-1.3,7-3.2,13.9-4.6,20.8
		c-1.2,6-4.8,13.7-3.7,19.7c2.4,12.6,24.4,14.2,34.2,16.3c13.5,2.8,25.1,8.1,37.1,14.8c5.4,3,10.6,6.9,10.9,13.7
		c0.2,5.3-2.6,13.6-5.3,18.3c-6.7,11.8-19.2,10.7-31,11.9c-5.9,0.6-13.4-0.1-19.2-1.2c-7-1.3-14.3-2.8-21.1-5
		c-4.7-1.5-13.2-3.7-13.8-9.6c-0.6-6.1,5.8-11.3,10.7-13.6c6.7-3.1,13.1-0.8,19.8,0.2c6,0.9,12.2,1.7,18.3,2.7
		c4.5,0.7,10-0.5,11.6-5.5c2.3-7.1-9.9-7.9-14.4-8.5c-14.2-2-33.9-5.4-46.8,2.4c-5.1,3.1-9.3,7.7-11.8,13.2c-2.8,6,1,11.9-3.4,16.8
		c-4.5,4.9-9.1,9.2-10.2,16.2c-0.8,5.5,5.3,12.5,2.3,17.1c-3.5,5.4-9.8,7.4-12.6,13.6c-1.1,2.5-2.2,5.5-2.6,8.2
		c-0.4,2.8,1.6,6.7,0,8.9c-1.2,1.7-5.4,1.4-7.2,2c-3.4,1.1-5.4,2.9-7.6,5.5c-4.2,4.8-5.8,7.2-12.5,5c-12.2-3.9-24.4-10-33.5-19.2
		c-4.5-4.5-10.3-8.2-13.7-13.6c-1.5-2.4-2-4.1-4.1-6c-2.8-2.5-6.2-4.3-9-6.9c-4.9-4.7-9.8-9.6-15.5-13.3c-6-3.9-13.5-6.1-20.2-8.6
		c-11.3-4.2-23.6-7.5-35.4-10.7c-6.1-1.7-11.6-4.4-17.8-5.8c-7.4-1.8-14.7-3.2-22.1-5.4c-13.5-4.1-28.1-5.7-41.9-8.6
		c-7.4-1.6-14.4-4-21.7-5.9c-6.8-1.7-13.9-2.4-20.4-4.8c-12.8-4.8-27.2-4.2-40.3-8.5c-6.3-2.1-12.9-4-19.5-5.2
		c-3-0.6-6.2-0.2-9.2-0.8c-3.8-0.8-6.9-2.5-10.8-2.9c-4.9-0.4-10.5,1.2-11.3-5.4c-0.4-2.8,0.7-5.5,0.6-8.3
		C737.8,543.1,736.8,539.3,736.6,535.5C738.7,532.3,736.7,537.5,736.6,535.5z"/>
	<path fill="#FF6757" d="M1137.7,624.9c2.1-1.9,4.1-4.2,6.5-5.7c3.4-2.1,3.7-1.4,7-0.3c2.3,0.7,4.1,2.2,6.5,2.7
		c2.6,0.5,5.1,0.2,7.7,1.1c5.6,1.7,10.9,4,16.5,5.7c4.6,1.3,8.5,0.2,13.3,0.3c5.1,0.1,9.9,1.6,15,1.1c6.5-0.7,13.3-1.9,19.6-3.5
		c2.2-0.6,4.4-1.1,6.4-2.2c2.4-1.3,4.3-4.3,6.6-5.3c5.4-2.3,4.4,4.1,3.9,7.6c-1.6,11.2-10.8,16.2-20.2,20.7
		c-11.8,5.7-23.2,6.2-36.1,5.6c-11.4-0.5-23.2-3.8-34.2-6.8C1144,642.5,1137.3,638.5,1137.7,624.9
		C1141,621.8,1137.6,626.7,1137.7,624.9z"/>
	<path fill="#FF6757" d="M1124.1,668c2.8-6,8.5-17.4,16.2-15.4c4.2,1.1,8.7,3.8,12.9,5.3c4.9,1.7,10,2.8,15.1,3.8
		c7.9,1.4,16,2.8,23.7,3c5.7,0.2,10.3,1.6,16.3,0.8c2.7-0.3,11-2.5,12.6-0.2c4,5.4-11.2,15.6-15.2,16.8c-9.6,2.9-21.5,1.9-31.4,1.9
		c-10.4,0-21.5,0.4-31.8-0.9C1134.1,682.1,1125,677.2,1124.1,668C1127.2,661.2,1124.5,672.5,1124.1,668z"/>
	<path fill="#FF6757" d="M1118.4,684.6c6.9,3.9,13.6,8.3,21.2,10.6c7.1,2.1,14.6-0.1,22,0.6c3.8,0.4,6.9,0.1,10.7,0.1
		c1.5,0,2.7-0.1,4.1,0.6c3,1.5,2.4,1.4,1.7,3.8c-1.5,5.3-10.1,11.4-14.9,13c-15.1,5-29.4,0-43.8-4c-7-1.9-11.6-2.6-12.3-10.5
		C1106.3,690.1,1111.1,688.1,1118.4,684.6C1122.9,687.1,1114.7,686.4,1118.4,684.6z"/>
	<path d="M1231.4,660.3c2.9,5.7,4.5,11.7,0.7,17.6c-3.5,5.5-10.7,12.2-16.5,14.9c-3.6,1.6-7.1,2.8-11,3.3c-2.6,0.3-5.3-0.2-7.5,1.5
		c-2.5,2-4,6.4-6,9c-2.3,3-4.6,6.3-7.4,8.9c-4.6,4.4-10.1,9.3-16.6,10.1c-8.5,1-16.9,1-25.5,0.8c-7.8-0.2-15.1-3.1-22.6-5.3
		c-7-2-14.3-3.8-19.5-9.3c-4-4.2-5.1-10.5-10.8-13.1c-3-1.3-6.6-1.5-9.8-2.5c-4.2-1.4-8.4-3.2-12.5-4.8c-14.5-5.6-26-16-37.1-26.8
		c-11-10.6-20.3-22.7-34.9-28.7c-15.6-6.5-32.6-9.9-48.6-15.3c-7.6-2.6-15.3-4.1-22.9-6.3c-3.6-1-7.3-2.6-11.1-2.8
		c-6.4-0.3-5.2,2.9-5,8.1c0.3,7.6-0.9,15.7-1.1,23.5c-0.2,8.4-0.5,17.1-3.6,25c-5.6,14-12,26.7-19.2,39.9
		c-6.8,12.6-16.1,22-25.5,32.7c-9.5,10.8-20.8,19.6-32.6,27.7c-12.6,8.7-25.8,16.7-40.5,21.5c-7,2.2-14.6,2.6-21.7,3.7
		c-7.6,1.2-17.2,0.5-24.6-1.3c-4-0.9-7.8-1.6-11.8-2.3c-3.4-0.6-6.6-2.2-9.9-2.7c-6-0.7-6.8,4.5-8.9,9.1
		c-5.1,11-15.2,23.3-25.9,29.3c-3.8,2.2-7.7,3.5-11.7,5.1c-3.2,1.3-6.1,3.8-9.5,4.7c-6.3,1.7-16.5-0.8-22.5-3.1
		c-6.7-2.5-12.1-6.8-17.9-10.9c-2.3-1.6-7.3-5.4-10.2-5.6c-3.7-0.2-6.5,3.4-9.3,5.4c-6.2,4.3-13.5,7.2-20,10.9
		c-6.2,3.5-12.5,6.9-19.5,8.5c-6.9,1.6-12.8,4.8-19.6,7.2c-8,2.8-16.8,2.4-25.1,3.3c-6.4,0.7-13.2,1-19.7,1.1c-3.9,0-7.6,0.7-11.5,1
		c-4.6,0.4-9-1.1-13.5-1.2c-12.7-0.3-26.2-4-38.3-8.7c-12.3-4.8-24.5-9.3-34.9-17.8c-12.2-10-22.4-22.8-30-36.5
		c-2.2-3.9-2.8-12.7-7-14.6c-5.1-2.3-15.7,2.7-20.8,3.8c-28.8,6.3-62.2,0.4-87.6-14.9c-13-7.9-22.1-22.4-27.7-36.1
		c-2.5-6.2-2.2-12.7-9.9-13.7c-6.8-0.9-13.3-2.2-20-3.6c-6.4-1.4-13.3-5.1-18.9-8.4c-7.4-4.3-15.3-7.8-22.5-12.4
		c-12.6-8.2-22-19.5-29.3-32.5c-7.6-13.4-14.5-27.5-19.7-42c-5.5-15.2-10.7-31.4-12.9-47.4c-2.2-15.6-3.3-30.7-2.8-46.6
		c0.6-17.1,6.5-32.4,10.9-48.7c3.8-14.1,14.8-30.4,24.7-41.1c10.8-11.7,22.1-20.9,35.8-29.1c3.2-1.9,6.7-3.3,10.1-5
		c3.9-1.9,4.8-2.1,3.8-6.3c-2.2-9-5.9-17.6-8.1-26.6c-3.7-14.6-3.3-32.1-1.6-47c2-17.7,8.6-31.4,20.3-44.6c4.8-5.4,10.6-9.4,17-12.7
		c2.9-1.5,5.8-2.8,8.6-4.5c4.7-2.7,4.7-4.1,4-9.5c-2.3-16.9-2.5-31.7,1.8-48.3c3.5-13.5,10.4-26.9,18.1-38.5
		c8.3-12.6,20-20.6,31.4-30c10.7-8.9,25.5-14.4,38.9-17.6c7.6-1.8,14.5-2.2,22.2-2.6c4.7-0.3,8-1.1,12.8-0.2c4,0.8,7.7,3.1,11.6,1.4
		c5.6-2.3,10.3-8.8,15.5-12.2c6.8-4.6,14.2-8.1,21.7-11.5c14.8-6.6,30.1-12.6,46.5-12.3c14.4,0.3,31.3,5.6,42.6,14.8
		c3.9,3.2,9.7,12.9,15,13.9c5.4,1,14.1-9.4,18.7-11.9c14.8-8.2,30.2-14.9,47.1-17.1c16-2,34.1-1.6,49.9,1
		c13.6,2.2,30.5,9.6,40.5,19.3c11.1,10.6,17.9,24.1,21.1,39c0.3,1.5,1.2,3.2,1.4,4.8c0.1,0.7,0.1,4.2,0.3,4.6c1.6,2.5,3.8,2,6.7,2.1
		c8.2,0.3,16.1,1.9,24.3,2.2c30.1,1,55.4,27.1,65.1,53.8c1,2.8,2.7,5.2,3.9,7.9c1.5,3.5,0.7,6.4,4.7,7.7c2.6,0.8,5.9,0,8.6,0.1
		c4.6,0.2,9.1,0.9,13.7,1.7c14.2,2.4,30.2,8,41.1,17.7c10.3,9.2,16.5,23.1,21,36c2.3,6.6,2.2,12.5,3,19.4c0.4,3.8,0.6,6.5,0,10.3
		c-0.4,2.6-1.7,6.1,0.5,8.2c2.1,2.1,8.1,2,10.9,3.2c2.6,1.1,5.1,2.8,7.4,4.6c5.8,4.5,10.8,10.3,11.2,18c0.3,5.3-0.9,12.1-3.3,16.7
		c-2.2,4.5-8.9,11.5-6.6,16.5c2.8,6,10,9.4,13,15.8c3,6.5,5.3,12.4,6.6,19.6c2.7,14.6,2.7,28.9,0.2,43.6c-1.3,7.4-4.3,13.8-7.8,20.5
		c-1.8,3.6-4.4,6.1-2.1,9.6c1.3,2,7.5,5.7,9.7,6.9c5.6,2.9,11.7,5,17.3,8.3c7.4,4.4,14.7,9,22.1,13.5c12.6,7.6,23.5,15.9,37.6,20.6
		c15.4,5.1,29.8,13.2,45,18.8c6.8,2.5,13.6,5.3,20.3,8c3.1,1.3,7.1,4,10.7,2.9c3.4-1.1,7.2-5.4,10.1-7.5c5.7-4.2,12-7.3,17.8-11.4
		c6.3-4.4,11.4-10.4,16.5-16.1c5-5.6,10.2-11,14-17.5c4.1-6.9,6.8-14.8,10.5-21.9c7.5-14.3,6.9-30.2,12.8-44.8
		c4.8-11.9,23.5-10.7,32.2-4c4.8,3.6,7.7,10.5,10.1,15.7c3.4,7.3,6.2,15.2,5.4,23.5c-1.3,14.9-4.6,30.4-8.3,45
		c-1.3,5.1-7.8,19.9-4.9,24.8c2.9,5,15.9,4.6,20.7,5.7c14.2,3.2,29.2,7.8,41.5,15.8c5.7,3.7,11.9,8.3,15.7,14.1
		c5.1,7.8,2.5,13.8,1.7,22.1c-0.6,6.9,5.2,8.1,7.4,13.8c2.4,6.1,0.9,12.9,0.1,19.2C1257.7,648.7,1243.2,652.5,1231.4,660.3
		C1232.2,661.9,1233.1,659.2,1231.4,660.3z M364.4,755.9c6.8,2.6,8.8,5.4,11.4,12.2c2.8,7.5,3.9,15.6,8.5,22.3
		c4.1,6.1,9.6,10.7,14.2,16.4c4.5,5.6,8.5,9.4,14.4,13.4c12.9,8.7,27.9,14.9,43.5,16.7c7.8,0.9,15.4,3.2,23.2,3.6
		c8.7,0.4,17-0.9,25.7-0.8c13.2,0.1,27.9-3.1,40.3-7.6c13.2-4.8,27.1-10.2,38.7-18.3c6.8-4.8,13.3-10.7,20.5-14.7
		c7-3.9,9.8,0.5,14,5.7c4.5,5.6,6.9,8.8,13.7,11.9c7.2,3.3,14.9,5.4,22.9,4.9c7.3-0.5,13.2-3.6,18.8-8.2c6.3-5.1,12.9-9.9,17.2-16.8
		c3.4-5.5,3.9-12.5,8-17.3c5.1-6,10.1-6,17.2-3.7c14.8,4.7,28.4,7.6,43.9,6.9c15.1-0.7,29.9-5.9,42.6-14
		c26.1-16.8,50.4-37,66.6-63.8c8.5-14,16.4-30.1,20.9-45.8c2.1-7.3,1.8-14.7,2.1-22.2c0.3-8,1.7-17.8-0.7-25.6
		c-2-6.5-10.6-6.3-16.3-7.9c-8-2.3-16.2-3.6-24.3-5.2c-15.4-3.2-30.4-8.5-45.9-11.6c-16.4-3.3-32.5-7.7-49.1-10.6
		c-3.7-0.6-7.4-1.2-11-2.1c-3.2-0.8-6.6-2.9-9.7-3.4c-6.8-1.1-8.2,6.6-11.3,11.3c-3.4,5.2-7.7,9.9-13,13.2
		c-6.6,4.2-14.6,9.1-22.1,11.3c-2.8,0.8-8.1,0.9-10.6,2.7c-2.6,1.9-2.1,3.9-1.7,7c1.3,8.6,1.3,15.5-1.7,23.9
		c-4.3,12.4-16.4,23.5-30.3,21.2c-6.5-1.1-14.7-3.7-20.6-6.8c-4.3-2.3-15.6-12-5.3-13.3c6.1-0.8,9.1,4.6,14.3,7
		c6.7,3.2,12.7,3.9,19.2,0.5c12.3-6.4,15.3-25.9,10.1-37.8c-1.2-2.7-4.8-5.3-4.2-8.5c0.6-3.2,3-3.2,5.6-3.3
		c7.9-0.3,15.2-1.5,22.9-3.9c14.1-4.6,25.9-15,31.7-28.6c2.8-6.6,4.8-13.7,4.9-20.9c0.1-4-0.5-8-1.7-11.9c-0.9-2.9-3.9-6.9-1.8-9.8
		c2.9-4.3,13.2-2,17.6-3c6.5-1.5,12.6-6.9,15.7-12.7c3.1-5.7,4.1-13.3,2-19.5c-2.3-6.6-11.4-11.8-11.6-18.8
		c-0.2-6.3,5.9-13.7,8.2-19.4c3.2-7.8,5.6-16.1,7.8-24.2c1.9-7.1,0.5-14.1,0.1-21.2c-0.5-8-2.4-15.5-5.9-22.8
		c-2.9-6-7-11.5-12.2-15.8c-5.7-4.7-12.5-4.8-18.7-8.4c-2.4-1.4-6.9-4.6-6.5-8c0.3-2.9,3.9-4.3,5.9-5.9c6.3-5.1,5.8-12,9.7-18.5
		c3.7-6.2,9.2-3.4,11.2,2.8c2.2,6.8-3.2,11.8-6.3,17.1c-3.7,6.4,4.6,7.1,9.2,10.6c5.9,4.4,11.8,9.5,16,15.5c3.5,5,8.1,12.7,9.2,18.7
		c0.9,5.2-1.7,13.7,2.4,18.2c1.7,1.9,6.2,2.2,8.6,3.5c3.3,1.8,6.1,4.4,9.4,6.3c2.7,1.6,5.4,2.5,8.3,3.5c3.9,1.4,5.5,3.2,8.6,5.7
		c5,4.1,12.2,6.5,17.9,9.8c5.2,3,10.7,5.1,16,8.4c5.7,3.4,10.8,7.7,16.6,10.9c3.4,1.9,6.8,3.3,10.1,5.5c2.7,1.8,5.8,4.9,9.2,5
		c6.1,0,8.7-9.4,10.2-14.1c2.5-8.2,2.9-16.7,3.1-25.2c0.3-16.7-0.3-32.7-10.9-46.6c-1.9-2.5-4.1-4.8-6.5-6.8c-2-1.7-6.5-3.6-7.4-6.3
		c-2-5.5,9-15.1,11.4-20.2c5.5-11.9,0.5-23.8-11.7-27.7c-5.1-1.6-13.3-3.6-15.9-9.1c-3.1-6.6,0.4-18.9-0.5-26.4
		c-1.7-13.9-7.9-30.9-18-40.9c-10.6-10.6-27.5-15.9-42.1-16.5c-7.9-0.3-15.2,0.1-22.8-2.1c-3.9-1.1-6.2-1.3-7.4-5.3
		c-1.1-3.7-0.7-8-1.8-11.8c-4.2-14-12.2-28.3-23.9-37.4c-13.2-10.2-28-13.7-44.2-16.1c-3.3-0.5-6.7-1.4-10-1.4
		c-4.2-0.1-7.5,1.3-11.7,0.1c-6-1.7-7.9-4.9-9-10.7c-2.7-14.1-8.1-29.1-18.8-39.2c-11.4-10.8-27.4-17-42.9-18.7
		c-13.6-1.5-27.4-2.7-41,0.2c-14.7,3.1-31.3,10.9-43.2,19.7c-5.7,4.2-11.1,9.4-17.2,13c-7.5,4.4-11.4-2.2-15.4-7.9
		c-8.7-12.3-22.1-19.8-36.6-22.8c-15.3-3.2-29.6,0-43.9,5.7c-11.3,4.5-24.1,10.7-33.4,18.8c-2.9,2.5-5.2,5.6-8,8.1
		c-2.9,2.7-4.9,2.8-8.7,3c-8.1,0.5-16.2-1.9-24.6-2c-8.5-0.1-15.2,1.5-23.2,4c-7.7,2.4-13.3,5.3-20.2,9.3
		c-14,8.1-27.3,18.1-35.6,32.2c-3.1,5.2-7.2,9.7-9.5,15.4c-3.3,8.1-7.1,17-9.1,25.5c-1.4,6.1-2.3,13.8-1.7,20
		c0.3,2.9-0.4,5.4-0.4,8.2c-0.1,4.2,1.6,9,1.8,13.3c0.1,2.1,1.9,8.3,1.3,10.2c-0.9,2.8-5.6,4.1-7.8,5.1c-7.9,3.6-15.3,7.3-22.2,12.8
		c-12.3,9.7-16.5,24.3-19.4,39c-0.8,4.2-1.9,8.1-1.7,12.4c0.2,3.4,0.6,6.6,0.5,10c-0.3,8.1-0.2,17.1,1.6,25
		c1.6,6.8,2.8,14.1,5.4,20.6c1.1,2.9,3.8,7.2,3.5,10.4c-0.2,3-2.9,6.9-4.8,9.2c-4,4.9-11,7.1-16.4,9.9c-7.2,3.8-12.8,7.9-19,13.1
		c-11.1,9.4-21.3,20.6-28.4,33.4c-1.5,2.7-2.2,5.7-3.6,8.4c-1.7,3.5-4.3,5.9-5.4,9.8c-2.2,7.2-3.7,14.6-5.7,21.9
		c-1,3.4-2.5,6.8-3.1,10.3c-0.5,3.4,0,6.9-0.4,10.3c-0.4,3.2-1.5,5.9-1.3,9.1c0.3,4.6,0.8,8.9,0.7,13.5c-0.1,7.3,1.5,14.8,2.3,22.1
		c0.9,8.1,3,15.5,6.1,23c6.2,14.9,8.9,30.6,16.6,44.9c6.8,12.6,12.8,26.7,22.3,37.7c9.2,10.7,23.3,16.8,35.3,23.5
		c2.4,1.4,4.7,3.4,7.4,4.3c3.1,1.1,6.2,0.7,9.4,1.8c8.6,3.1,16,2.5,24.8,4c6.9,1.2,8.9,6,10.1,12.4c1.3,7.2,4,13.2,7.5,19.6
		c6.1,11.1,20.6,21.3,32.5,24.9c14.7,4.4,31.2,5.1,46.5,5.3c6.4,0.1,12.9-1.5,19-3.4C349.1,760.3,357.1,759.4,364.4,755.9
		C365.3,756.2,360.5,757.8,364.4,755.9z M736.6,535.5c0.2,3.5,0.9,6.7,1.3,10.1c0.3,2.9-0.7,5.6-0.5,8.5c0.5,8.2,7.9,5.6,13.7,6.6
		c3,0.5,5.6,2,8.5,2.6c3,0.6,6.2,0.3,9.2,0.8c6.6,1.2,13.1,3.2,19.5,5.2c13.5,4.4,28,4.1,41.2,8.9c6.1,2.2,13.1,2.8,19.5,4.4
		c7.3,1.9,14.3,4.3,21.7,5.9c14.2,3,29.4,4.6,43.2,9c6.9,2.2,13.8,3.4,20.8,5c6.5,1.6,12.6,4.2,19,6.1c11.7,3.6,24.2,6.2,35.3,10.8
		c6.3,2.7,13.2,4.4,19,8.1c6.1,3.9,11.1,9.2,16.4,14.1c4.4,4.1,8.6,6,11.6,11.2c3.6,6.2,10.1,10.4,15.1,15.4
		c4.6,4.7,10.1,8.3,15.9,11.4c5.2,2.7,12.2,5.8,17.9,7.3c5.5,1.5,7.4-0.5,10.7-4.5c2.2-2.6,4-4.7,7.3-6c1.9-0.8,7-0.7,8.2-2.4
		c1.5-2-0.2-5.4-0.1-7.8c0.2-3,1.5-6.6,2.7-9.3c1.1-2.6,2.6-4.6,4.6-6.5c2.2-2.2,7.8-5.1,8.9-7.9c1.7-4.1-3.9-10.6-3.6-15.1
		c0.5-7.3,6-12.5,10.5-17.4c4.3-4.7,0.7-10,3-15.8c2.7-6.7,7.9-12.2,14.3-15.4c12.5-6.3,31.4-3.1,44.7-1.2c4.8,0.7,15,1.1,14.5,7.5
		c-0.6,6.3-7.5,7.2-12.3,6.3c-5.8-1.1-11.8-1.6-17.6-2.4c-6.7-1-13.2-3.3-19.8-0.2c-4.8,2.2-10.5,6.9-10.6,12.6
		c-0.2,7,9.4,9.3,14.8,10.9c6.5,1.9,13.3,3.4,19.9,4.6c6.1,1.2,14,1.8,20.2,1.2c11.9-1.3,24.1-0.4,30.4-12.7
		c2.3-4.6,5-12.3,4.8-17.4c-0.3-7.3-6.2-11.2-12-14.3c-12-6.6-23.5-11.6-37.1-14.4c-9.7-2-31.8-3.9-33.2-17
		c-0.6-5.6,2.5-12.1,3.6-17.6c1.5-7.4,3.5-14.7,4.9-22.1c2.8-14.9,6.8-29.4,3.5-44.6c-1.2-5.6-3.4-13.1-7.9-16.8
		c-4.3-3.6-10-2.2-12.5,2.6c-1.6,3-1.5,6.7-2.1,9.9c-0.6,2.9-1.4,5.4-1.6,8.4c-0.4,7-2.5,11.7-4.9,18.1c-4.6,12.4-11,24.8-18.6,35.6
		c-7.3,10.4-17.4,24.4-29.1,30.2c-6.3,3.1-12.1,6.2-17.8,10.3c-2.4,1.7-4.9,3.4-7.1,5.3c-2.7,2.4-3.5,5.2-5.5,8.1
		c-4.2,5.8-11.4,0.3-16.8-1.7c-7.9-2.9-15.7-5.9-23.4-9.4c-14.3-6.5-29.1-12-43.6-18c-28.8-11.9-53.4-31.7-80.8-46.4
		c-26.9-14.4-52.2-31.8-79.2-46.1c-6.2-3.3-12.3-6.6-18.3-10.2c-5.3-3.1-8.8-7-13.4-10.8c-2.3-1.9-7.8-5.3-11-4.6
		c-4.9,1.1-4.9,11.5-6,16c-1.7,6.6-3.3,13.1-6.3,19.2c-1.7,3.3-3.8,6.6-5,10.1c-1.3,3.9-0.6,4.4,1.6,7.6
		c9.6,13.6,10.3,25.5,1.7,39.9c-3,5-5.1,9.4-10.6,12.1C746.5,530.3,740.2,530,736.6,535.5C736.7,537.5,738.7,532.3,736.6,535.5z
		 M1137.7,624.9c-0.1,5.8-0.3,9.4,3.7,13.9c3.9,4.3,8.3,5.2,13.7,6.8c11.3,3.2,23.7,6.7,35.4,7.2c13,0.5,24.2,0.1,36.1-5.6
		c9.5-4.6,18.6-9.5,20.2-20.7c0.5-3.5,1.6-9.9-3.9-7.6c-1.9,0.8-3.7,3.6-5.6,4.8c-2.3,1.4-4.8,2.1-7.3,2.8
		c-6.3,1.6-13.2,2.9-19.6,3.5c-5.1,0.5-9.9-1-15-1.1c-4.8-0.1-8.7,1-13.3-0.3c-5.3-1.5-10.3-3.4-15.4-5.3c-4.8-1.7-9.6-1.2-14.3-3.5
		c-3.6-1.8-4.5-2.6-8.1-0.3C1141.7,620.7,1139.8,622.9,1137.7,624.9C1137.6,626.7,1141,621.8,1137.7,624.9z M1124.1,668
		c2.1,20.1,35.1,16,48.9,16c10.2,0,21.8,0.8,31.7-1.6c4-1,20.8-11.8,16.3-17.1c-1.7-2-8.7-0.4-11.3,0c-5.9,0.8-10.5,0.8-16.3-0.2
		c-3.6-0.6-6.4,0-10.1-1c-4.6-1.3-9-1.2-13.7-2.2c-9.9-2.1-18.9-6-28.5-8.8c-3-0.9-2.5-1.3-5.7,0c-1.8,0.8-3.4,2.4-4.7,3.8
		C1127.8,660.1,1125.9,664.1,1124.1,668C1124.5,672.5,1127.2,661.2,1124.1,668z M1118.4,684.6c-6.6,3.2-11.9,5.1-11.5,13.1
		c0.4,7.9,3.9,9.5,11.3,11.3c7.3,1.8,14,5.4,21.6,6c7.2,0.6,16.5,0.5,23.4-1.7c5.2-1.7,11.9-7.1,14.3-12.2c1.3-2.7,2.2-2.2-0.2-4.3
		c-1-0.8-2.8-1.1-4-1.2c-3.5-0.2-6.9,0.6-10.5,0.2c-7.3-0.8-14.9,1.4-22-0.4C1132.7,693.5,1125.6,688.6,1118.4,684.6
		C1114.7,686.4,1122.9,687.1,1118.4,684.6z"/>
</g>
<g>
</g>
<g>
</g>
<g>
</g>
<g>
</g>
<g>
</g>
</svg>
