<?xml version="1.0" encoding="utf-8"?>
<!-- Generator: Adobe Illustrator 18.1.0, SVG Export Plug-In . SVG Version: 6.00 Build 0)  -->
<!DOCTYPE svg PUBLIC "-//W3C//DTD SVG 1.1//EN" "http://www.w3.org/Graphics/SVG/1.1/DTD/svg11.dtd">
<svg version="1.1" id="Layer_1" xmlns="http://www.w3.org/2000/svg" xmlns:xlink="http://www.w3.org/1999/xlink" x="0px" y="0px"
	 viewBox="107.8 3.7 100 87.9" enable-background="new 107.8 3.7 100 87.9" xml:space="preserve">
<g>
	<path fill="#FFFFFF" d="M179.4,87.4c-1.9,0-3.9,0.1-5.9,0.1c-0.9,0-1.7,0-2.6,0c-0.4,0-2-0.2-2.3,0c-0.1,0-0.2,0-0.3,0.1
		c-5.3,0-10.6,0.3-15.9,0.4c-1.4,0-2.9,0-4.4,0c-1.2,0-2.5,0.1-3.7,0.1c-1.1,0-2.2-0.1-3.3,0c-1,0.1-2.9,0.4-3.9-0.2
		c-0.4-0.2-1-0.6-1.2-1.1c-0.1-0.2-0.3-0.4-0.3-0.7c0,0,0-0.1-0.1-0.1c-0.4-0.8-0.1-2.1,0-3c0-0.5,0-1,0-1.4c0-1.5,0-3.1,0-4.6
		c0-1.5,0-3.1,0-4.6c0-0.7,0-1.4,0.1-2.1c0.1-1.1,0.2-2.5,0-3.6c0-1.4,0.1-2.9,0.1-4.3c0-1.6,0-3.2,0.5-4.7c0.2-0.5,0.7-0.8,1.1-1.1
		c1.1-0.6,2.2-0.9,3.4-0.9c1.5,0,3.1-0.1,4.6-0.1c1.6-0.1,3.1-0.1,4.7-0.2c1.4-0.1,2.8,0.1,4.2,0.1c6.1-0.1,12.2,0.1,18.4,0.1
		c1.6,0,3.3-0.1,5-0.1c0.7,0,1.4,0.2,2,0.2c0.8,0,1.4-0.1,2.2,0.3c0.2,0.2,0.4,0.3,0.6,0.5c0.3,0.2,0.4,0.5,0.5,0.7
		c0.7,0.7,0.3,3,0.3,3.9c0,0.8,0,1.7,0,2.5c0,2.1-0.1,4.3,0,6.4c0.2,3.6,0,7.1,0,10.7c0,1.8,0.2,4.2-1.2,5.5
		c-0.4,0.3-0.8,0.5-1.2,0.7c-0.3,0.1-0.6,0.1-0.9,0.1C180.1,87.4,179.8,87.4,179.4,87.4z"/>
</g>
<g>
	<path d="M148.2,61.2c0.1,0,0.3,0.1,0.3,0.2c0.1,0.1,0.2,0.2,0.3,0.3c0,0.4-0.1,0.9-0.1,1.3c-0.2,0.2-0.4,0.6-0.7,0.8
		c0,0,0,0.1,0,0.1c0,0,0,0.1-0.1,0.1h-0.1c0,0.1-0.1,0.2-0.1,0.3c-0.1,0-0.2,0.1-0.3,0.1c-0.1,0.4-0.7,0.5-0.9,1
		c0.4,0.1,0.8,0,1.2,0.1c0.4,0.4,0.8,0.5,1.2,0.9c0.2,0.3,0.3,0.6,0.5,0.8c0,0.3,0.1,0.5,0.1,0.7c0.1,0.9-0.2,1.8-0.3,2.6
		c-0.3,0.1-0.4,0.6-0.7,0.8c0,0,0,0.1,0,0.1c-0.2,0.2-0.4,0.5-0.7,0.7c0,0-0.1,0-0.1,0c-1.8,1.8-5.3,0.8-6.2-1.4
		c0.1-0.3,1.9-1.6,1.9-1c0.2,0.3,0.6,0.7,0.9,0.9c0.6,0.5,1.2,0,1.9,0.1c0.6-0.6,1.3-1.3,1.1-2.3c0-0.3-0.1-0.7-0.3-0.9
		c-0.1-0.1-0.3-0.3-0.4-0.3c-0.4-0.3-0.8-0.1-1.3-0.2c-0.2,0-0.3-0.1-0.5-0.1c0,0,0,0-0.1,0.1c-0.1,0-0.1,0.1-0.3,0
		c-0.3-0.3-0.9-0.8-0.9-1.2c0-0.4,0.9-1.1,1.2-1.2c0.2-0.6,0.8-0.8,1.1-1.4c-0.7,0-1.4-0.1-2.1-0.1c-0.2,0-1.2,0.2-1.4,0.1
		c-0.8-0.2-0.4-1.4-0.3-1.9c0.9-0.3,1.9,0,2.8-0.1c0.9-0.1,2,0.2,2.8,0c0.1,0,0.1,0,0.3-0.1C148,61.2,148.1,61.2,148.2,61.2
		L148.2,61.2z"/>
	<path d="M156,61.2c0.6,0,1.1-0.1,1.6,0c0.3,0.4,0.4,1,0.4,1.4c-0.4,0.4-1,0.4-1.5,0.5c-0.6,0-1.6-0.2-2.1,0.1
		c-0.2,0.1-0.3,0.3-0.3,0.6c0,0.6-0.3,1.1-0.3,1.7c0.2,0.1,0.4,0,0.5-0.1c0.1-0.1,0.3-0.2,0.5-0.2c0.3-0.1,1-0.1,1.3,0
		c0,0,0.1,0.1,0.1,0.1c0.2,0,0.4,0.2,0.7,0.2c0.1,0.1,0.1,0.1,0.2,0.1c0.1,0,0.3,0.1,0.4,0.1c0.9,0.9,1.4,2.1,1.4,3.4
		c-0.1,0-0.1,0.1-0.1,0.1c0,0.3,0,0.9-0.1,1.2c0,0-0.1,0.1-0.1,0.1c0,0.1,0,0.2,0,0.3c-0.2,0.3-0.5,0.6-0.5,1
		c-0.1,0.1-0.4,0.2-0.4,0.5c-0.3,0-0.5,0.4-0.7,0.5c-0.2,0.1-0.8,0.2-0.9,0.5c-0.1,0.1-0.2,0.1-0.3,0.1c-0.7,0.2-1.5-0.1-2.2-0.3
		c-0.6-0.1-0.9-0.5-1.4-0.8c-0.1,0-0.2-0.1-0.3-0.1c0-0.1-0.1-0.2-0.1-0.3c0-0.1-0.2-0.2-0.3-0.2c-0.1-0.2-0.1-0.4-0.3-0.6
		c0-0.4,1.5-0.9,1.8-0.8c0.1,0,0.1,0.1,0.2,0.1c0,0,0.2,0.3,0.2,0.3c0.2,0.2,0.4,0.4,0.5,0.5c0.1,0.1,0.3,0.2,0.5,0.3
		c0.1,0,0.1,0,0.3,0.1c0.1,0,0.1,0.1,0.2,0c0.3,0,0.5-0.3,0.7-0.3c0.3-0.2,0.5-0.5,0.8-0.7c0-0.2,0.3-0.7,0.4-0.9
		c0-0.2-0.1-0.6,0.1-0.8c0-0.3-0.1-0.5-0.2-0.7c0-0.2,0-0.4-0.1-0.5c-0.2-0.5-1.2-0.7-1.6-0.5c-0.6,0.1-0.9,0.8-1.4,0.9
		c-0.4,0-0.7,0-1.1-0.1c-0.3,0-0.6-0.2-0.7-0.4c0-1,0.2-1.9,0.3-2.8c0.1-0.5,0-1,0.1-1.5c0.1-0.4,0.3-0.8,0.3-1.3
		c0.1-0.3,0.3-0.5,0.5-0.7C154.1,61.2,155.1,61.4,156,61.2z"/>
	<path d="M163.9,61.4c0,0,0.1,0,0.1,0c0.1,0,0.1,0,0.3-0.1c0.4,0,0.8,0.1,1.2,0.1c0,0,0.1,0.1,0.1,0.1c0.2,0,0.4,0.1,0.5,0.2
		c0,0.1,0.1,0.2,0.2,0.3c0,0,0.1,0,0.1,0c0.3,0.4,0.8,0.5,1.1,1.1c0,0,0,0.1,0,0.1c0.6,0.6,0.4,1.5,0.7,2.2c0,0.1,0.1,0.2,0.1,0.3
		c0.3,1.3,0.1,2.9-0.3,4.2c-0.3,1.4-1.1,2-2,3c-0.6,0.3-1.6,0.4-2.2,0.3c-0.3,0-1-0.2-1.2-0.4c-0.6-0.3-1-1.5-1.3-2.1
		c-0.2-0.2-0.1-0.9-0.4-1.2c-0.2-1-0.1-2-0.1-3c0-0.6,0-1.6,0.3-2.2c0-0.5,0.7-1.4,1-1.7c0.3-0.4,0.8-0.8,1.3-1
		c0.3,0,0.5-0.2,0.8-0.2L163.9,61.4z M164.1,63.3c-0.3,0.1-0.5,0.2-0.7,0.4c-0.1,0.1-0.2,0.4-0.3,0.4c0,0.3-0.4,0.8-0.5,1
		c-0.2,0.7-0.3,1.5-0.3,2.2h-0.1c0,0.5-0.1,1.2,0.1,1.7c0,0.1,0.4,1.2,0.5,1.2c0,0.1,0.3,0.2,0.3,0.3c0.1,0.2,0.5,0.5,0.8,0.5
		c0.4,0.2,1,0.2,1.3-0.1c0,0,0.1-0.1,0.1-0.1c0.5,0,0.6-0.6,0.9-0.8c0.3-0.3,0.3-1.2,0.4-1.6c0.1-0.6,0.1-1.3,0.1-1.9
		c0-0.6-0.2-1-0.4-1.6c-0.1-0.3-0.7-1.1-0.7-1.3c-0.1-0.1-0.2-0.1-0.3-0.1C165.1,63.4,164,63.2,164.1,63.3L164.1,63.3z"/>
	<path d="M173.8,63.9c0.2-0.1,0.4-0.1,0.6,0c0.3,0,0.4,0.1,0.5,0.2c0.1,0.7,0,1.4,0,2.1c0.5,0.7,1.6,0,2.3,0.5
		c0.1,0.5,0.1,1.2,0,1.7c-0.6,0.5-1.5,0.2-2.2,0.3c-0.1,0.7,0.1,1.4,0.1,2c-0.2,0.2-0.5,0.3-0.8,0.3c-0.3,0-0.7,0-1,0.1
		c-0.2-0.2-0.5-0.3-0.7-0.5c0-0.7,0-1.3-0.2-2c-0.7-0.3-1.3,0.1-2-0.1c-0.3-0.5-0.3-1.2-0.4-1.8c0.6-0.6,1.8-0.2,2.6-0.5
		c0.2-0.8-0.2-1.5,0.1-2.2c0.1-0.1,0.2-0.2,0.4-0.2C173.3,64,173.5,63.9,173.8,63.9z"/>
	<path d="M149,81L149,81c0.1,0.1,0.1,0.1,0.1,0.2c0.2,0,0.3,0.1,0.5,0.1c0.2,0.1,0.4,0.1,0.7,0c0.2-0.1,0.8-0.5,1.1-0.5
		c0.1,0.1,0.2,0.2,0.3,0.3c0.1,0.1,0.2,0.2,0.3,0.3c-0.2,0.4-0.7,0.5-1,0.9c-0.5,0-0.8,0.2-1.3,0.1c-0.3-0.1-0.7-0.4-0.9-0.4
		c-0.3-0.3-0.6-0.6-0.8-1c0,0,0-0.1,0-0.1c0,0,0-0.1-0.1-0.1c0,0-0.1-0.1-0.1-0.1c0-0.5-0.1-1.2,0-1.7c0.1-0.3,0.4-0.6,0.4-0.9
		c0.1-0.1,0.1-0.2,0.2-0.3c0,0,0-0.2,0-0.1c0.1-0.1,0.1-0.1,0.2-0.2c0-0.2,0.2-0.4,0.4-0.4c0.1-0.1,0.1-0.1,0.1-0.1
		c0-0.1,0.1-0.1,0.1-0.1c0,0,0.1,0,0.1-0.1c0.5,0,0.9-0.5,1.4-0.2c0.2,0,0.5,0.2,0.7,0.3c0.2,0.2,0.6,0.3,0.4,0.7
		c0,0-0.1,0.1-0.1,0.1c0,0.1-0.2,0.3-0.3,0.4c0,0-0.3-0.1-0.3-0.2c-0.1,0-0.4-0.2-0.5-0.2c-0.6-0.1-0.9,0.1-1.2,0.5c0,0,0,0.1,0,0.1
		c0,0-0.1,0.1-0.1,0.1c0,0,0,0.1,0,0.1c0,0.2-0.2,0.5-0.3,0.8c0,0.4,0.2,0.7,0.2,1.1C148.9,80.8,148.9,80.9,149,81L149,81z"/>
	<path d="M154.2,77c0.4-0.1,0.8-0.1,1.2-0.1c0.2,0.2,0.5,0.7,0.5,0.9c0,0,0,0.1,0,0.1c0.1,0.2,0.1,0.5,0.3,0.8c0,0.1,0,0.2,0,0.3
		c0,0.3,0.2,0.6,0.3,0.9c0,0,0,0.1,0,0.1c0,0.1,0.1,0.2,0.1,0.3c0,0.3,0.2,1.1,0.5,1.3c0,0,0,0.1,0,0.1c0.1,0.3,0.3,0.4,0.3,0.7
		c-0.2,0.2-0.7,0.1-1,0.1c-0.2-0.4-0.2-1.1-0.5-1.4c-0.7,0.1-1.5,0.1-2.2,0.1c-0.1,0.1-0.2,0.3-0.2,0.5c0,0-0.1,0.1-0.1,0.1
		c-0.1,0.2-0.1,0.4-0.3,0.6c-0.1,0-0.2,0.1-0.3,0.1c-0.2,0-0.6,0.1-0.8-0.1c0-0.1,0-0.1,0-0.1c0-0.1,0.2-0.3,0.2-0.4
		c0,0,0-0.1,0-0.1l0,0l0,0c0-0.3,0.1-0.5,0.2-0.7c0.2-0.4,0.2-1.1,0.5-1.4c0-0.3,0.3-0.6,0.3-0.9c0,0,0-0.1,0-0.1l0,0l0,0
		c0-0.6,0.3-1.1,0.5-1.6C153.9,77.1,154.1,77.1,154.2,77z M155.5,80.2c0-0.2-0.1-0.6-0.2-0.8v-0.1c0,0,0-0.1-0.1-0.1
		c0,0,0-0.1,0-0.1c0-0.1-0.1-0.2-0.1-0.3c0,0,0-0.1,0-0.1c-0.1-0.2-0.2-0.4-0.3-0.7c0,0-0.1,0-0.1,0c0,0.1,0,0.3-0.1,0.4
		c0,0.1,0,0.2,0,0.3c0,0,0,0.1-0.1,0.1c0,0.2-0.2,0.3-0.1,0.5c-0.2,0.2-0.3,0.6-0.3,0.9C154.5,80.4,155.1,80.2,155.5,80.2
		C155.3,80.2,155.5,80.2,155.5,80.2z"/>
	<path d="M161.2,80.2c-0.1,0-0.3,0.1-0.4,0.2c0,0.2,0.2,0.3,0.3,0.5c0,0.1,0.1,0.2,0.1,0.3c0,0.4,1,0.8,1,1.2
		c-0.2,0.2-1,0.1-1.3,0.1c-0.1-0.1-0.1-0.1-0.1-0.1c0-0.1-0.1-0.1-0.1-0.1c-0.1,0-0.1-0.1-0.1-0.1c0,0-0.1-0.1-0.1-0.1
		c0-0.1-0.1-0.2-0.1-0.3c-0.2-0.1-0.5-0.6-0.5-0.8c-0.1-0.1-0.2-0.2-0.3-0.4c-0.9,0-0.1,1.5-0.5,1.9c-0.2,0-0.4,0-0.6,0.1
		c-0.2,0-0.4,0-0.5-0.1c0-0.5,0.1-1,0.1-1.4l0,0c0-1.3-0.2-2.8,0.1-4c0-0.5,2.2-0.1,2.6-0.1c0,0,0.1,0.1,0.1,0.1
		c0.2,0.1,0.4,0.2,0.7,0.3c0.3,0.3,0.4,0.6,0.6,0.9c0,0.2,0,0.4,0,0.6c-0.1,0.1-0.1,0.7-0.3,0.7c-0.1,0.1-0.1,0.1-0.1,0.2
		c-0.1,0.1-0.3,0.3-0.4,0.4c-0.1,0-0.2,0.1-0.3,0.1C161.3,80.2,161.3,80.2,161.2,80.2C161.2,80.2,161.2,80.3,161.2,80.2L161.2,80.2z
		 M159.3,79.7c0.3,0,1,0,1.2-0.3c0.1-0.1,0.5-0.4,0.5-0.5c0.1-0.3-0.1-0.5-0.1-0.9c-0.3-0.2-0.6-0.2-1-0.3c0.1,0-0.7-0.1-0.7,0.1
		c-0.2,0.2-0.1,1.2-0.1,1.4C159.3,79.5,159.3,79.6,159.3,79.7L159.3,79.7z"/>
	<path d="M163,79.7c0-0.9,0-1.8,0-2.8c0.4-0.2,1.5,0,2,0c0.4,0,0.8,0.3,1.1,0.3c0,0,0.1,0.1,0.1,0.1c0.6,0.3,0.7,0.7,1,1.2
		c0,0,0,0.1,0,0.1c0,0,0,0.1,0.1,0.1c0,0.3,0.1,0.5,0.1,0.8c0,0.2-0.1,0.4-0.1,0.7c0,0,0,0.1,0,0.1c-0.2,0.5-0.5,0.9-0.9,1.3
		c0,0-0.1,0-0.1,0c0,0-0.1,0.1-0.1,0.1c0,0-0.1,0-0.1,0c-0.1,0-0.3,0.1-0.3,0.2c-0.2,0-0.5,0.1-0.7,0.2c-0.5,0-1.1,0-1.6,0
		c-1-0.1-0.5-0.9-0.7-1.7C163.1,80.2,163,79.9,163,79.7L163,79.7z M164.3,77.8C164.3,77.8,164.2,77.8,164.3,77.8
		C164.2,77.9,164.2,77.9,164.3,77.8c-0.1,0.7,0.1,1.3,0.1,1.8l0,0l0,0c0,0.3-0.2,1.5,0,1.7c0.1,0,0.1,0,0.3,0
		c0.1-0.1,0.7-0.1,0.8-0.1c0.3-0.3,0.7-0.5,0.9-1c0.1-0.1,0.1-0.3,0.1-0.5c0-0.5-0.2-1-0.2-1.4c-0.1-0.1-0.1-0.2-0.2-0.3
		c0,0-0.1,0-0.1,0c-0.1,0-0.1-0.2-0.3-0.2C165.3,77.8,164.5,77.9,164.3,77.8L164.3,77.8z"/>
	<path d="M171.1,78c-0.4,0.4-0.1,0.2-0.5,0.2c0,0,0-0.1,0-0.1c-0.1-0.1-0.2-0.2-0.3-0.3c-0.3,0-0.6,0-0.9,0
		c-0.1,0.1-0.2,0.2-0.1,0.5c0,0,0.2,0.4,0.3,0.4c0,0,0.1,0,0.1,0c0.2,0.2,0.4,0.3,0.5,0.5c0.2,0,0.7,0.4,0.8,0.5
		c0,0.1,0.1,0.1,0.1,0.1c0.1,0.1,0.2,0.2,0.3,0.3c0,0.1,0.1,0.2,0.1,0.3c0,0.1,0,0.3,0.1,0.4c0,0.2,0,0.4,0,0.7
		c0,0.1-0.1,0.2-0.1,0.3c0,0,0,0.1,0,0.1c-0.1,0.1-0.2,0.2-0.1,0.3c-0.1,0.1-0.3,0.2-0.3,0.3c-0.2,0.2-0.5,0.2-0.7,0.4
		c0,0-0.1,0-0.1,0c-0.1,0-0.2,0.1-0.3,0.1c-0.3,0.1-0.5-0.1-0.8-0.1c-0.4-0.2-1.3-0.5-1.1-1.1c0,0,0.1-0.1,0.1-0.1
		c0-0.1,0.1-0.1,0.1-0.1c0.1-0.1,0.1-0.1,0.1-0.1c0.1,0.1,0.3,0.3,0.4,0.4h0.1c0,0,0.1,0,0.1,0.1c0.1,0,0.1,0.1,0.3,0.1
		c0,0,0,0,0.1,0c0.2,0,0.5,0.2,0.7,0c0.1,0,0.2-0.1,0.3-0.1c0.1-0.1,0.1-0.2,0.2-0.3c0.1-0.1,0.1-0.3,0-0.4l0,0c0,0,0,0,0-0.1
		c-0.1-0.1-0.4-0.4-0.4-0.5c-0.1,0-1-0.7-1-0.9c0,0,0-0.1,0-0.1c-0.6-0.1-1-1.3-0.9-1.8c0,0,0-0.1,0.1-0.1c0-0.1,0.1-0.3,0.1-0.4
		c0.2-0.1,0.4-0.3,0.6-0.4c0.7,0,1.2-0.1,1.8,0.3l0,0l0,0c0.1,0.1,0.1,0.1,0.3,0.2C171.8,77.8,171.1,77.7,171.1,78L171.1,78z"/>
</g>
<path fill="none" d="M162.1,42.5c1.1-0.1,2.1-0.1,3.2-0.2c1.1-0.1,2.2-0.8,2.5-1.9c0-0.1,0.1-0.2-0.1-0.4c-0.1,0.1-0.2,0.2-0.3,0.4
	c-0.5,0.9-1.4,1.4-2.4,1.6c-0.8,0.2-1.6,0.2-2.5,0.2c-0.4,0.1-0.7,0.1-1.1,0.1C161.8,42.6,161.9,42.5,162.1,42.5z"/>
<path fill="none" d="M165.4,35.8c-0.1,1.2-1,3.6-2.1,4c-0.8,0.3-1.6,0.4-2.4,0.4c-0.1,0-0.2-0.1-0.2,0.1c0,0.1,0.1,0.2,0.1,0.2
	s0.2,0,0.3,0c0.5,0,1,0,1.4,0.1c1,0.1,1.8-0.1,2.5-0.8c0.6-0.5,0.8-1.3,0.9-2c0-0.5,0.1-2.1,0.1-2.6c0-0.6,0.2-1.2,0.1-1.8
	c-0.1-0.8-0.2-1.6-0.1-2.4c0.1-0.5,0.1-1.1,0-1.7c-0.1-0.5-0.1-1.1-0.1-1.6c0-0.9,0.1-1.8,0.1-2.8c0-2,0-4.1,0-6.2
	c0-1.1,0-2.2,0-3.2c-0.1,0.4-0.2,0.9-0.2,1.3c0,2.4,0.1,4.8-0.2,7.1c-0.1,1.2-0.2,2.4-0.2,3.6c0,1.8-0.1,3.6-0.2,5.4
	C165.4,33.7,165.4,34.8,165.4,35.8z"/>
<path fill="none" d="M159.8,42.7c-0.8,0-1.6-0.1-2.4,0C158.2,42.7,159,42.7,159.8,42.7z"/>
<path fill="none" d="M168.9,41.8c-0.1-0.1-0.2,0.1-0.3,0.1c-0.3,0.2-0.5,1.5-0.9,1.6c-0.7,0.3-1.3,0.5-2,0.5
	c-1.4-0.1-2.8,0.2-4.3,0.2c-0.5,0-1.1,0.1-1.7,0.1c1,0.1,1.9,0.1,2.8,0.1c1.1,0,2.3-0.1,3.4-0.1c0.9,0,1.7-0.3,2.5-0.9
	C168.8,43.3,168.9,42.1,168.9,41.8z"/>
<path fill="none" d="M163.9,36.1c0.5-1.4,0.2-2.9,0.3-4.3c0-0.7,0-1.5,0-2.2c0-0.6,0-1.3,0-1.9c-0.2,0.1-0.2,0.2-0.3,0.3
	c0,0.3-0.1,0.6-0.1,0.9c-0.1,0.7,0,1.3-0.1,2c-0.1,1.3-0.2,2.7-0.4,4c-0.1,0.5-0.2,2-0.5,2.5c-0.4,0.5-1,0.9-1.6,1.2
	c-0.2,0.1-0.5,0.1-0.8,0.4c0.1,0.1,0.2,0.1,0.2,0.1C161.9,39.2,163.4,37.5,163.9,36.1z"/>
<path fill="none" d="M167.9,26.5c0-0.4-0.1-0.8-0.1-1.2c-0.1,0.2-0.2,0.4-0.2,0.6c-0.1,1.3-0.1,2.5-0.1,3.7c0,1.3-0.1,2.7-0.2,3.9
	c-0.1,1.4-0.1,4-0.3,5.4c-0.1,0.8-0.4,1.4-1,1.9c-0.2,0.2-0.4,0.4-0.6,0.6c0.1,0.1,0.2,0.1,0.2,0c1.1-0.4,1.9-1.6,1.9-2.7
	c0-0.7,0.2-2.4,0.2-3.1c0-2.7,0-5.2,0.1-7.9C167.9,27.2,167.9,26.9,167.9,26.5z"/>
<path fill="none" d="M171.8,41.9c-0.1,1.2-1,3.6-2.1,4c-0.8,0.3-1.6,0.4-2.4,0.4c-0.1,0-0.2-0.1-0.2,0.1c0,0.1,0.1,0.2,0.1,0.2
	c0.1,0,0.2,0,0.2,0c0.5,0,1,0,1.4,0.1c1,0.1,1.8-0.1,2.5-0.8c0.6-0.5,0.8-1.3,0.9-2c0-0.5,0.1-2.1,0.1-2.6c0-0.6,0.2-1.2,0.1-1.8
	c-0.1-0.8-0.2-1.6-0.1-2.4c0.1-0.5,0.1-1.1,0-1.7c-0.1-0.5-0.1-1.1-0.1-1.6c0-0.9,0.1-1.8,0.1-2.8c0-2,0-4.1,0-6.2
	c0-1.1,0-2.2,0-3.2c-0.1,0.4-0.2,0.9-0.2,1.3c0,2.4,0,4.8-0.2,7.1c-0.1,1.2-0.2,2.4-0.2,3.6c0,1.8-0.1,3.6-0.2,5.4
	C171.9,39.8,171.8,40.9,171.8,41.9z"/>
<path fill="none" d="M169.3,43.3c-0.4,0.5-1,0.9-1.6,1.2c-0.2,0.1-0.5,0.1-0.8,0.3c0.1,0.1,0.2,0.1,0.2,0.1c1.3,0.3,2.7-1.4,3.2-2.8
	c0.5-1.4,0.2-2.9,0.3-4.3c0-0.7,0-1.5,0-2.2c0-0.6,0-1.3,0-1.9c-0.2,0.1-0.2,0.2-0.3,0.3c0,0.3-0.1,0.6-0.1,0.9
	c-0.1,0.7,0,1.3-0.1,2c-0.1,1.3-0.2,2.7-0.4,4C169.7,41.4,169.5,42.9,169.3,43.3z"/>
<path fill="none" d="M172.7,18.3c0.3,1.1,0.2,2.2,0.4,3.3c0.1,1.3,0,2.6,0.1,3.9c0.1,1-0.1,2,0,3c0.1,1.6-0.1,3.3-0.1,4.9
	c0,1.9,0.1,3.8-0.1,5.7c0,0.1,0.1,0.2,0.2,0.2s0.1-0.1,0.1-0.2c0.1-1.6,0.2-3.1,0.2-4.7c0.1-1,0-1.9,0.2-2.9
	c0.3-1.9,0.4-3.7,0.4-5.7c0.1-1.9,0.1-3.7,0.2-5.5c0-0.2-0.1-0.5-0.1-0.8c-0.2-0.8-0.5-1.6-1.4-1.9c-0.1-0.1-0.2-0.1-0.2,0
	c-0.1,0.1,0,0.2,0,0.2C172.6,18,172.7,18.1,172.7,18.3z"/>
<path fill="none" d="M170.3,28.3c0.2-1,0.4-2.1,0.3-3.1c0-0.1,0-0.2,0-0.2c0.2-0.7,0.2-1.5,0.2-2.2c0.1-1.4,0.1-2.8,0.2-4.2
	c0.1-0.9,0.1-1.8-0.2-2.7c-0.1-0.2-0.2-0.4-0.4-0.7c0,0.2-0.1,0.4,0.1,0.5c0.1,0.3,0.1,0.6,0.1,0.9c-0.1,0.9-0.1,1.8-0.1,2.8
	c0,0.4,0.1,0.8,0.1,1.3c-0.1,0.8,0,1.6-0.1,2.4c-0.1,0.8,0,1.7-0.1,2.6c-0.1,0.7-0.1,1.4-0.2,2c-0.1,0.5,0.1,1,0.1,1.6
	C170.3,28.9,170.2,28.6,170.3,28.3z"/>
<path fill="none" d="M162.5,35.7c-0.1-0.1-0.2,0.1-0.3,0.1c-0.3,0.2-0.5,1.5-0.9,1.6c-0.7,0.3-1.3,0.5-2,0.5
	c-1.4-0.1-2.8,0.2-4.3,0.2c-0.5,0-1.1,0.1-1.6,0.1c1,0.1,1.9,0.1,2.8,0.1c1.1,0,2.3-0.1,3.4-0.1c0.9,0,1.7-0.3,2.5-0.9
	C162.3,37.2,162.5,36,162.5,35.7z"/>
<path fill="none" d="M168.4,14c-0.1,5,0.1,9.8,0.1,14.7c0.1-0.4,0.1-0.8,0.1-1.3c0-2.9-0.1-5.8,0.2-8.7c0.1-0.8,0-1.6,0-2.4
	C168.8,15.6,168.8,14.8,168.4,14z"/>
<path fill="none" d="M157.3,46.2c0.9-0.1,1.8-0.1,2.7-0.1c1.6,0,3.3-0.3,4.8-0.2c0.1,0,0.1,0,0.1,0c1.1-0.1,2.2-0.3,3.3-0.2
	c0.8,0.1,1.6-0.3,2.2-0.8c0.3-0.2,0.7-0.5,0.7-0.9c0.1-0.6,0.3-2.3,0.2-3c-0.1-2.5,0.1-4.9,0.2-7.4c0.1-1,0-2,0.1-3
	c0.1-0.9,0.2-1.8,0.2-2.7c0.1-1.7,0.1-3.4,0.1-5.2c0-0.8-0.1-1.6-0.1-2.4c0-0.7,0.1-1.3,0.1-2c-0.1-0.4,0-0.8-0.4-1.1
	c-0.2,1.1-0.1,2.1-0.2,3.2c0,0.5,0,1-0.1,1.6c-0.1,1.3-0.3,2.6-0.3,3.9c-0.1,2.1-0.1,4.2-0.1,6.3c0,1,0.1,1.9,0,2.9
	c0,1.7,0,3.5,0,5.3c0,0.8-0.1,2.6-0.4,3.3c-0.2,0.6-0.6,1.1-1.1,1.4c-0.5,0.4-1,0.5-1.7,0.5c-2.9-0.1-5.8,0-8.7-0.2
	c-0.7-0.1-1.3-0.1-2-0.1c-0.4-0.1-0.8,0.1-1.2-0.1c-0.5-0.2-1-0.1-1.6-0.1c0.1,0.1,0.1,0.1,0.1,0.2c0.1,0.2,0.3,0.2,0.4,0.3
	C155.6,46.1,156.4,46.2,157.3,46.2z"/>
<path fill="none" d="M165,48.1c-0.7-0.2-1.3-0.1-1.9-0.1c-1.5,0.1-3,0-4.5,0.1c-0.7,0-1.4,0-2-0.5c-0.2-0.2-0.4-0.5-0.8-0.5
	c0.5,1.1,1.7,1.5,3,1.4c0.5-0.1,1-0.1,1.6-0.1c1.2,0,2.4-0.1,3.6-0.1C164.2,48.2,164.6,48.2,165,48.1z"/>
<path fill="none" d="M172.5,46.1c0.1-0.2,0.2-0.3,0.1-0.5c-0.2,0.3-0.4,0.5-0.7,0.7c-0.7,0.7-1.5,0.7-2.4,0.7
	c-2.7,0-5.3-0.1-7.9-0.2c-0.5,0-1,0.1-1.6-0.1c-1.3-0.2-2.5-0.1-3.8-0.2c0.2,0.2,0.4,0.4,0.6,0.5c0.7,0.4,1.4,0.5,2.2,0.4
	c0.4-0.1,0.8-0.1,1.3-0.1c1,0,1.9,0,2.9-0.1c2-0.1,4-0.1,6-0.1C170.6,47.4,171.6,47.1,172.5,46.1z"/>
<path fill="none" d="M174.1,32c-0.1,1.3-0.1,2.5-0.1,3.7c0,1.3-0.1,2.7-0.2,3.9c-0.1,1.4-0.1,4-0.3,5.4c-0.1,0.8-0.4,1.4-1,1.9
	c-0.2,0.2-0.4,0.4-0.6,0.6c0.1,0.1,0.2,0.1,0.2,0c1.1-0.4,1.9-1.6,1.9-2.7c0-0.7,0.2-2.4,0.2-3.1c0-2.7,0-5.2,0.1-7.9
	c0-0.4,0-0.8,0.1-1.2c0-0.4-0.1-0.8-0.1-1.2C174.2,31.6,174.1,31.8,174.1,32z"/>
<path fill="none" d="M175.1,22.4c0-0.7,0-1.5-0.4-2.3c-0.1,5,0.1,9.8,0.1,14.7c0.1-0.4,0.1-0.8,0.1-1.3c0-2.9-0.1-5.8,0.2-8.7
	C175.2,24,175.1,23.2,175.1,22.4z"/>
<path fill="none" d="M173.9,46.6c-0.5,0.9-1.4,1.4-2.4,1.6c-0.8,0.2-1.6,0.2-2.5,0.2c-0.4,0.1-0.7,0.1-1.1,0.1
	c0.2,0.2,0.4,0.1,0.5,0.1c1.1-0.1,2.1-0.1,3.2-0.2c1.1-0.1,2.2-0.8,2.5-1.9c0-0.1,0.1-0.2-0.1-0.4C174.1,46.3,174,46.5,173.9,46.6z"
	/>
<path fill="none" d="M155.7,43.9c2.4,0.1,4.8-0.4,7.2-0.2c0.1,0,0.2,0,0.2,0c0.8-0.2,1.7-0.2,2.7-0.2c1,0.1,1.9-1.3,2.7-2
	c0.4-0.4,0.7-0.7,0.7-1.3c0.1-0.7,0.1-1.4,0.1-2.1c0.1-2,0.1-4.2,0.2-6.2c0.1-1.9-0.1-3.8,0.2-5.7c0.2-1.5,0.1-3.1,0.1-4.6
	c0-0.7,0-1.4-0.1-2.2c-0.1-1,0.1-2,0.1-3c0-0.7-0.1-1.3-0.5-1.9c-0.1-0.2-0.3-0.4-0.5-0.5c0,0.1,0,0.1,0,0.1c0.1,0.1,0,0.4,0.2,0.5
	c0.1,0.2,0.1,0.5,0.1,0.7c0.1,0.7,0.1,1.3,0,2c0.1,0.5-0.1,1-0.1,1.5c0,1.5,0,3.1,0,4.6c0,0.4,0,0.7-0.1,1.1
	c-0.1,0.3-0.1,0.6,0.1,0.9c0.1,0.3,0.1,0.5-0.1,0.8c0,0.2,0,0.5,0,0.8c0.1,1.4,0,3-0.1,4.4c0,0.7,0.1,1.3-0.2,1.9c0,0.2,0,0.3,0,0.5
	c0,0.1,0,0.1,0,0.2c-0.1,0.7,0.1,2.5,0,3.3c0,0.2,0,0.4-0.1,0.6c-0.1,0.4,0,0.8-0.1,1.3c0,0.1-0.1,0.2-0.1,0.4
	c0.1,0.6-0.3,1.1-0.5,1.6c-0.5,1-1.4,1.6-2.5,1.7c-0.8,0.1-1.7,0.2-2.6,0.2c-0.1,0-0.2,0-0.3,0c-0.4,0.1-0.8,0.2-1.2,0.2
	c-1.1,0-2.2-0.1-3.3,0.1c-1.5,0.2-3.1,0.1-4.6,0.1c0.3,0.4,0.7,0.6,1.1,0.6C155,43.9,155.3,43.9,155.7,43.9z"/>
<path fill="#FFFFFF" d="M175.6,23.4c0.1-0.7,0.1-1.3,0-2c0.1-0.2,0-0.5-0.1-0.7c-0.1-0.1,0-0.4-0.2-0.5c0.1-0.2-0.1-0.3-0.1-0.5
	c-0.4-0.7-0.9-1.2-1.3-1.9c-0.1-0.2-0.3-0.2-0.5-0.4c-0.7-0.4-1.5-0.5-1.8-1.4c0-0.1-0.1-0.1-0.2-0.2c-0.2-0.1-0.3-0.3-0.4-0.5
	c-0.2-0.4-0.4-0.7-0.8-0.8c-0.2-0.1-0.4-0.2-0.4-0.3c-0.3-0.5-0.8-0.8-1.3-1c-0.4-0.5-0.8-1-1.1-1.5c-0.1-0.2-0.3-0.2-0.5-0.4
	c-0.7-0.4-1.5-0.5-1.8-1.4c0-0.1-0.1-0.1-0.2-0.2c-0.2-0.1-0.3-0.3-0.4-0.5c-0.2-0.4-0.4-0.7-0.8-0.8c-0.2-0.1-0.4-0.2-0.4-0.3
	c-0.4-0.6-0.9-0.9-1.6-1.1c-0.6-0.2-1.1-0.4-1.8-0.3c-0.1,0-0.2,0-0.2,0c-0.6-0.1-1.2-0.1-1.9-0.1c-0.3,0-0.5-0.1-0.8,0.1
	c-0.1,0-0.2,0-0.4,0c-0.4-0.1-0.7-0.2-1,0c-0.1,0-0.2,0-0.2,0.1c-0.1,0-0.2,0-0.3,0c-1.4,0-2.9,0.2-4.3,0.1c-0.1,0-0.2,0-0.3,0.1
	c-0.2,0-0.3,0-0.5,0.1c-0.5-0.1-1.1,0-1.6,0.1c-0.2,0-0.5,0-0.7,0.2c-0.1,0-0.2,0-0.2,0.1c-0.5,0-1,0.2-1.4,0.6
	c-0.1,0.1-0.1,0.1-0.2,0.1c-0.5-0.1-0.9,0.4-1.1,1.1c-0.1,0.1-0.1,0.2-0.2,0.4c-0.2,0.6-0.4,1.2-0.4,1.8c-0.1,0.8,0,1.6,0,2.4
	c0,1.2-0.1,2.4-0.1,3.6c0,0.2,0,0.3,0.1,0.5c0,0.4-0.1,0.8,0,1.2c0.1,1.1,0,2.4,0.1,3.5c0.1,0.8-0.1,1.6,0,2.4
	c0,0.6,0.1,1.3-0.1,1.9c-0.1,0.5-0.1,1-0.1,1.5c0,0.8,0.1,1.5,0.1,2.3c0.1,1.3,0,2.5,0.2,3.7c0.2,1,0.6,2.8,1.3,3.5
	c0.6,0.5,1.3,0.9,1.7,1.6c0,0,0,0,0.1,0c0.1,0.1,0.1,0.1,0.1,0.1c0.1,0.2,0.3,0.3,0.5,0.4c0.2,0.1,0.4,0.2,0.4,0.5
	c0.2,0.8,0.6,1.4,1.1,2c0.5,0.7,1.1,1.1,2,1.2c0.1,0,0.2,0,0.2,0c0.1,0.1,0.2,0.2,0.3,0.4c0.6,0.5,1.3,0.9,1.7,1.6c0,0,0,0,0.1,0
	c0.1,0.1,0.1,0.1,0.1,0.1c0.1,0.2,0.3,0.3,0.5,0.4c0.2,0.1,0.4,0.2,0.4,0.5c0.2,0.8,0.6,1.4,1.1,2c0.5,0.7,1.1,1.1,2,1.2
	c0.5,0.1,0.9,0,1.4-0.1c1.7-0.1,3.4,0.1,5.2-0.1c1.1-0.1,2.2-0.1,3.3-0.1c0.4,0,0.8-0.1,1.2-0.2c0.1,0,0.2,0,0.3,0
	c0.8,0.1,1.7-0.1,2.6-0.2c1.1-0.2,1.9-0.8,2.5-1.7c0.2-0.5,0.7-0.9,0.5-1.6c0-0.1,0.1-0.2,0.1-0.4c0.2-0.4,0.1-0.8,0.1-1.3
	c0.1-0.2,0.1-0.4,0.1-0.6c0.1-0.7-0.1-2.5,0-3.3c0-0.1,0-0.1,0-0.2c0-0.2,0-0.3,0-0.5c0.2-0.6,0.1-1.3,0.2-1.9
	c0.1-1.4,0.1-3,0.1-4.4c0-0.2,0-0.5,0-0.8c0.2-0.2,0.1-0.5,0.1-0.8c-0.1-0.3-0.1-0.6-0.1-0.9c0.1-0.4,0.1-0.7,0.1-1.1
	c0-1.5,0-3.1,0-4.6C175.6,24.4,175.7,23.9,175.6,23.4z M172.6,17.6c0.1-0.1,0.2,0,0.2,0c0.8,0.4,1.3,1,1.4,1.9
	c0.1,0.2,0.1,0.5,0.1,0.8c-0.1,1.9-0.1,3.7-0.2,5.5c-0.1,1.9-0.1,3.8-0.4,5.7c-0.1,1-0.1,1.9-0.2,2.9c-0.1,1.6-0.2,3.1-0.2,4.7
	c0,0.1,0.1,0.2-0.1,0.2c-0.1,0-0.2-0.1-0.2-0.2c0.1-1.9,0.1-3.8,0.1-5.7c0-1.6,0.2-3.3,0.1-4.9c-0.1-1,0.1-2,0-3
	c-0.1-1.3,0-2.7-0.1-3.9c-0.1-1.1-0.1-2.2-0.4-3.3c-0.1-0.2-0.1-0.3-0.2-0.5C172.5,17.7,172.4,17.7,172.6,17.6z M172.2,29.9
	c0.2-2.4,0.2-4.7,0.2-7.1c0-0.4,0-0.9,0.2-1.3c0,1.1,0,2.2,0,3.2c0,2,0,4.1,0,6.2c0,0.9-0.1,1.8-0.1,2.8c0,0.5,0,1.1,0.1,1.6
	c0.1,0.6,0.1,1.1,0,1.7c-0.1,0.8-0.1,1.6,0.1,2.4c0.1,0.6-0.1,1.2-0.1,1.8c0,0.5,0,2.1-0.1,2.6c-0.1,0.8-0.3,1.5-0.9,2
	c-0.7,0.7-1.6,0.8-2.5,0.8c-0.5-0.1-1-0.1-1.4-0.1c-0.1,0-0.2,0-0.2,0s-0.1-0.1-0.1-0.2c0-0.1,0.1-0.1,0.2-0.1
	c0.8,0,1.6-0.1,2.4-0.4c1.1-0.4,2-2.7,2.1-4c0.1-1,0.1-2,0.1-3.1c0.1-1.8,0.2-3.6,0.2-5.4C172.1,32.2,172.1,31,172.2,29.9z
	 M170.1,27.7c0.1-0.7,0.1-1.4,0.2-2c0.1-0.8,0.1-1.7,0.1-2.6c0.1-0.8,0-1.6,0.1-2.4c0.1-0.4-0.1-0.8-0.1-1.3c0-0.9,0-1.8,0.1-2.8
	c0.1-0.3,0.1-0.6-0.1-0.9c-0.1-0.1-0.1-0.3-0.1-0.5c0.2,0.2,0.3,0.4,0.4,0.7c0.4,0.9,0.3,1.8,0.2,2.7c-0.1,1.4-0.1,2.8-0.2,4.2
	c-0.1,0.7,0,1.5-0.2,2.2c0,0.1,0,0.2,0,0.2c0,1.1-0.1,2.1-0.3,3.1c-0.1,0.3,0,0.7,0,1C170.2,28.7,170.1,28.1,170.1,27.7z
	 M170.1,36.9c0.1-0.7,0-1.3,0.1-2c0-0.3,0.1-0.6,0.1-0.9c0-0.1,0.1-0.2,0.3-0.3c0,0.7,0,1.3,0,1.9c0,0.7,0.1,1.5,0,2.2
	c-0.1,1.4,0.2,3-0.3,4.3c-0.5,1.4-1.9,3.1-3.2,2.8c-0.1,0-0.1-0.1-0.2-0.1c0.2-0.2,0.6-0.2,0.8-0.3c0.6-0.3,1.2-0.7,1.6-1.2
	c0.3-0.4,0.4-2,0.5-2.5C169.9,39.5,170,38.2,170.1,36.9z M166.1,44.4c-1.1,0-2.3,0.1-3.4,0.1c-1,0-1.9-0.1-2.8-0.1
	c0.5,0,1.1-0.1,1.7-0.1c1.4,0,2.8-0.4,4.3-0.2c0.7,0.1,1.4-0.2,2-0.5c0.3-0.1,0.6-1.4,0.9-1.6c0.1-0.1,0.1-0.1,0.3-0.1
	c0,0.3-0.2,1.6-0.4,1.7C167.9,44.1,167,44.4,166.1,44.4z M168.8,18.7c-0.2,2.9-0.1,5.8-0.2,8.7c0,0.4-0.1,0.8-0.1,1.3
	c0-4.9-0.2-9.7-0.1-14.7c0.4,0.8,0.4,1.6,0.4,2.3C168.8,17.1,168.8,17.9,168.8,18.7z M156.9,41.4c-1,0.1-1.9,0-2.9,0.1
	c-0.4,0-0.8,0-1.3,0.1c-0.8,0.1-1.6-0.1-2.2-0.4c-0.2-0.1-0.4-0.4-0.6-0.5c1.3,0,2.5,0,3.8,0.2c0.5,0.1,1,0,1.6,0.1
	c2.7,0.1,5.2,0.2,7.9,0.2c0.9,0,1.7-0.1,2.4-0.7c0.2-0.2,0.4-0.5,0.7-0.7c0.1,0.2,0,0.4-0.1,0.5c-0.8,1-1.9,1.3-3.1,1.3
	C160.9,41.3,158.9,41.3,156.9,41.4z M159.8,42.7c-0.8,0.1-1.6,0.1-2.4,0C158.2,42.5,159,42.7,159.8,42.7z M165.8,23.7
	c0.3-2.4,0.2-4.7,0.2-7.1c0-0.4,0-0.9,0.2-1.3c0,1.1,0,2.2,0,3.2c0,2,0,4.1,0,6.2c0,0.9-0.1,1.8-0.1,2.8c0,0.5,0,1.1,0.1,1.6
	c0.1,0.6,0.1,1.1,0,1.7c-0.1,0.8-0.1,1.6,0.1,2.4c0.1,0.6-0.1,1.2-0.1,1.8c0,0.5,0,2.1-0.1,2.6c-0.1,0.8-0.3,1.5-0.9,2
	c-0.7,0.7-1.6,0.8-2.5,0.8c-0.5-0.1-1-0.1-1.4-0.1c-0.1,0-0.2,0-0.3,0c-0.1,0-0.1-0.1-0.1-0.2c0-0.1,0.1-0.1,0.2-0.1
	c0.8,0,1.6-0.1,2.4-0.4c1.1-0.4,2-2.7,2.1-4c0.1-1,0.1-2,0.1-3.1c0.1-1.8,0.2-3.6,0.2-5.4C165.7,26.2,165.7,25,165.8,23.7z
	 M162.7,42.3c0.8-0.1,1.6-0.1,2.5-0.2c1-0.2,1.8-0.7,2.4-1.6c0.1-0.1,0.2-0.2,0.3-0.4c0.1,0.1,0.1,0.2,0.1,0.4
	c-0.3,1.1-1.4,1.8-2.5,1.9c-1.1,0.1-2.1,0.2-3.2,0.2c-0.1,0-0.3,0.1-0.5-0.1C162,42.4,162.4,42.4,162.7,42.3z M167.9,35.6
	c0,0.7-0.2,2.4-0.2,3.1c0,1.1-0.8,2.3-1.9,2.7c-0.1,0-0.1,0.1-0.2,0c0.2-0.2,0.4-0.4,0.6-0.6c0.6-0.5,0.9-1.1,1-1.9
	c0.2-1.4,0.2-3.9,0.3-5.4c0.1-1.3,0.1-2.6,0.2-3.9c0-1.3,0.1-2.5,0.1-3.7c0-0.2,0.1-0.4,0.2-0.6c0,0.4,0.1,0.8,0.1,1.2
	c0,0.4-0.1,0.8-0.1,1.2C167.9,30.3,167.9,32.9,167.9,35.6z M166.1,11.5c0.1-0.1,0.2,0,0.2,0c0.8,0.4,1.3,1,1.4,1.9
	c0.1,0.2,0.1,0.5,0.1,0.8c-0.1,1.9-0.1,3.7-0.2,5.5s-0.1,3.8-0.4,5.7c-0.1,1-0.1,1.9-0.2,2.9c-0.1,1.6-0.2,3.1-0.2,4.7
	c0,0.1,0.1,0.2-0.1,0.2c-0.1,0-0.2-0.1-0.2-0.2c0.1-1.9,0.1-3.8,0.1-5.7c0-1.6,0.2-3.3,0.1-4.9c-0.1-1,0.1-2,0-3
	c-0.1-1.3,0-2.7-0.1-3.9c-0.1-1.1-0.1-2.2-0.4-3.3c-0.1-0.2-0.1-0.3-0.2-0.5C166.1,11.6,166,11.5,166.1,11.5z M164,9.1
	c0.2,0.2,0.3,0.4,0.4,0.7c0.4,0.9,0.3,1.8,0.2,2.7c-0.1,1.4-0.1,2.8-0.2,4.2c-0.1,0.7,0,1.5-0.2,2.2c0,0.1,0,0.2,0,0.2
	c0,1.1-0.1,2.1-0.3,3.1c-0.1,0.3,0,0.7,0,1c-0.1-0.5-0.2-1.1-0.1-1.6c0.1-0.7,0.1-1.4,0.2-2c0.1-0.8,0.1-1.7,0.1-2.6
	c0.1-0.8,0-1.6,0.1-2.4c0.1-0.4-0.1-0.8-0.1-1.3c0-0.9,0-1.8,0.1-2.8c0.1-0.3,0.1-0.6-0.1-0.9C164,9.5,164,9.3,164,9.1z M161.3,38.4
	c0.6-0.3,1.2-0.7,1.6-1.2c0.3-0.4,0.4-2,0.5-2.5c0.1-1.3,0.2-2.7,0.4-4c0.1-0.7,0-1.3,0.1-2c0-0.3,0.1-0.6,0.1-0.9
	c0-0.1,0.1-0.2,0.3-0.3c0,0.7,0,1.3,0,1.9c0,0.7,0.1,1.5,0,2.2c-0.1,1.4,0.2,3-0.3,4.3s-1.9,3.1-3.2,2.8c-0.1,0-0.1-0.1-0.2-0.1
	C160.7,38.6,161,38.6,161.3,38.4z M159.7,38.3c-1.1,0-2.3,0.1-3.4,0.1c-1,0-1.9-0.1-2.8-0.1c0.5,0,1.1-0.1,1.6-0.1
	c1.4,0,2.8-0.4,4.3-0.2c0.7,0.1,1.4-0.2,2-0.5c0.3-0.1,0.6-1.4,0.9-1.6c0.1-0.1,0.1-0.1,0.3-0.1c0,0.3-0.2,1.6-0.4,1.7
	C161.4,38,160.6,38.3,159.7,38.3z M145.8,35.6c-0.7-0.7-0.9-1.6-0.9-2.4c-0.1-1.7-0.3-3.4-0.2-5.1c0-0.5,0-1.1,0.1-1.6
	c0.1-0.4,0-0.8,0-1.3c0-0.8,0-1.6,0-2.5c0.1-1.3-0.1-2.7-0.1-4c0-0.7-0.1-1.3-0.1-1.9c0-1.7-0.1-3.4,0.1-5.2
	c0.1-0.8,0.1-1.6,0.5-2.2c0.4-0.7,1-1.2,1.7-1.4c0.8-0.2,1.5-0.4,2.3-0.4c2-0.1,4-0.1,6.1-0.3c0.7-0.1,1.5-0.1,2.2-0.1
	c1.1,0.1,2.4-0.1,3.5,0.1c0.8,0.1,1.5,0.4,2,1c0.4,0.5,0.5,1.2,0.5,1.9c0,1-0.1,2-0.1,3c0.1,0.7,0.1,1.4,0.1,2.2
	c-0.1,1.6,0.1,3.1-0.1,4.6c-0.3,1.9-0.1,3.8-0.2,5.7c-0.1,2-0.2,4.2-0.2,6.2c0,0.7-0.1,1.4-0.1,2.1c-0.1,0.6-0.4,1-0.7,1.3
	c-0.8,0.7-1.7,2.2-2.7,2c-1,0-1.8,0-2.7,0.2c-0.1,0-0.2,0-0.2,0c-2.4-0.1-4.8,0.4-7.2,0.2c-0.3,0-0.7,0-1,0
	C147.2,37.9,146.5,36.2,145.8,35.6z M148.4,39.4c-0.1-0.1-0.3-0.1-0.4-0.3c0-0.1-0.1-0.1-0.1-0.2c0.5,0.1,1.1-0.1,1.6,0.1
	c0.4,0.1,0.8,0.1,1.3,0.1c0.7,0.1,1.3,0.1,2,0.1c2.9,0.2,5.8,0.1,8.7,0.2c0.7,0,1.2-0.2,1.7-0.5c0.5-0.4,0.9-0.8,1.1-1.4
	c0.3-0.7,0.4-2.5,0.4-3.3c0-1.7,0-3.5,0-5.3c0-1-0.1-1.9,0-2.9c0.1-2.1,0.1-4.2,0.1-6.3c0.1-1.3,0.2-2.6,0.3-3.9
	c0.1-0.5,0.1-1,0.1-1.6c0.1-1.1,0-2.2,0.2-3.2c0.4,0.3,0.4,0.7,0.4,1.1c0.1,0.7-0.1,1.3-0.1,2c0,0.8,0.1,1.6,0.1,2.4
	c0,1.7,0,3.4-0.1,5.2c-0.1,0.9-0.2,1.8-0.2,2.8c-0.1,1,0,2-0.1,3c-0.1,2.5-0.2,4.9-0.2,7.4c0,0.6-0.2,2.3-0.2,3
	c-0.1,0.4-0.4,0.7-0.7,0.9c-0.7,0.5-1.4,0.9-2.2,0.8c-0.1,0-0.3,0-0.4,0c-1,0-1.9,0.1-2.9,0.2c-0.1,0-0.1,0-0.1,0
	c-1.6-0.1-3.3,0.2-4.8,0.2c-0.9,0-1.8,0.1-2.7,0.1C150,40.1,149.1,40,148.4,39.4z M149.4,41c0.4,0,0.6,0.3,0.8,0.5
	c0.6,0.5,1.3,0.5,2,0.5c1.5-0.1,3,0,4.5-0.1c0.6,0,1.3-0.1,1.9,0.1c-0.4,0.1-0.8,0.1-1.1,0.2c-1.2,0.1-2.4,0.1-3.6,0.1
	c-0.5,0-1,0.1-1.6,0.1C151.2,42.5,149.8,42.1,149.4,41z M153.6,43.4c1.5,0,3.1,0.1,4.6-0.1c1.1-0.1,2.2-0.1,3.3-0.1
	c0.4,0,0.8-0.1,1.2-0.2c0.1,0,0.2,0,0.3,0c0.8,0.1,1.7-0.1,2.6-0.2c1.1-0.2,1.9-0.8,2.5-1.7c0.3-0.5,0.7-0.9,0.5-1.6
	c0-0.1,0.1-0.2,0.1-0.4c0.2-0.4,0.1-0.8,0.1-1.3c0.1-0.2,0.1-0.4,0.1-0.6c0.1-0.7-0.1-2.5,0-3.3c0-0.1,0-0.1,0-0.2
	c0-0.2,0-0.3,0-0.5c0.2-0.6,0.1-1.3,0.2-1.9c0.1-1.4,0.1-3,0.1-4.4c0-0.2,0-0.5,0-0.8c0.2-0.2,0.1-0.5,0.1-0.8
	c-0.1-0.3-0.1-0.6-0.1-0.9c0.1-0.4,0.1-0.7,0.1-1.1c0-1.5,0-3.1,0-4.6c0-0.5,0.1-1,0.1-1.5c0.1-0.7,0.1-1.3,0-2
	c0.1-0.2,0-0.5-0.1-0.7c-0.1-0.1,0-0.4-0.2-0.5c0-0.1,0-0.1,0-0.1c0.2,0.1,0.4,0.3,0.5,0.5c0.4,0.5,0.5,1.2,0.5,1.9c0,1-0.1,2-0.1,3
	c0.1,0.7,0.1,1.4,0.1,2.2c-0.1,1.6,0.1,3.1-0.1,4.6c-0.3,1.9-0.1,3.8-0.2,5.7c-0.1,2-0.2,4.2-0.2,6.2c0,0.7-0.1,1.4-0.1,2.1
	c-0.1,0.6-0.4,1-0.7,1.3c-0.8,0.7-1.7,2.2-2.7,2c-1,0-1.8,0-2.7,0.2c-0.1,0-0.2,0-0.2,0c-2.4-0.1-4.8,0.3-7.2,0.2c-0.3,0-0.7,0-1,0
	C154.2,44,153.9,43.7,153.6,43.4z M154.8,45.4c-0.1-0.1-0.3-0.1-0.4-0.3c0-0.1-0.1-0.1-0.1-0.2c0.5,0.1,1.1-0.1,1.6,0.1
	c0.4,0.1,0.8,0.1,1.2,0.1c0.7,0.1,1.3,0.1,2,0.1c2.9,0.2,5.8,0.1,8.7,0.2c0.7,0,1.2-0.2,1.7-0.5c0.5-0.4,0.9-0.8,1.1-1.4
	c0.3-0.7,0.4-2.5,0.4-3.3c0-1.7,0-3.5,0-5.3c0-1-0.1-1.9,0-2.9c0.1-2.1,0.1-4.2,0.1-6.3c0.1-1.3,0.2-2.6,0.3-3.9
	c0.1-0.5,0.1-1,0.1-1.6c0.1-1.1,0-2.2,0.2-3.2c0.4,0.3,0.4,0.7,0.4,1.1c0.1,0.7-0.1,1.3-0.1,2c0,0.8,0.1,1.6,0.1,2.4
	c0,1.7,0,3.4-0.1,5.2c-0.1,0.9-0.2,1.8-0.2,2.7c-0.1,1,0,2-0.1,3c-0.1,2.5-0.2,4.9-0.2,7.4c0,0.6-0.2,2.3-0.2,3
	c-0.1,0.4-0.4,0.7-0.7,0.9c-0.7,0.5-1.4,0.9-2.2,0.8c-1.1-0.1-2.2,0.1-3.3,0.2c-0.1,0-0.1,0-0.1,0c-1.6-0.1-3.3,0.2-4.8,0.2
	c-0.9,0-1.8,0.1-2.7,0.1C156.4,46.2,155.6,46.1,154.8,45.4z M160.3,48.3c-0.5,0-1,0.1-1.6,0.1c-1.1,0.1-2.5-0.3-3-1.4
	c0.4,0,0.6,0.3,0.8,0.5c0.6,0.5,1.3,0.5,2,0.5c1.5-0.1,3,0,4.5-0.1c0.6,0,1.3-0.1,1.9,0.1c-0.4,0.1-0.8,0.1-1.1,0.2
	C162.7,48.3,161.5,48.3,160.3,48.3z M163.8,48.8c0.8-0.1,1.6,0,2.4,0C165.4,48.8,164.6,48.9,163.8,48.8z M163.3,47.5
	c-1,0.1-1.9,0-2.9,0.1c-0.4,0-0.8,0-1.3,0.1c-0.8,0.1-1.6-0.1-2.2-0.4c-0.2-0.1-0.4-0.4-0.6-0.5c1.3,0,2.5,0,3.8,0.2
	c0.5,0.1,1,0,1.6,0.1c2.7,0.1,5.3,0.2,7.9,0.2c0.9,0,1.7-0.1,2.4-0.7c0.2-0.2,0.4-0.5,0.7-0.7c0.1,0.2,0,0.4-0.1,0.5
	c-0.8,1-1.9,1.3-3.1,1.3C167.3,47.4,165.3,47.4,163.3,47.5z M174.2,46.5c-0.3,1.1-1.4,1.8-2.5,1.9c-1.1,0.1-2.1,0.2-3.2,0.2
	c-0.1,0-0.3,0.1-0.5-0.1c0.4-0.1,0.8-0.1,1.1-0.1c0.8-0.1,1.6-0.1,2.5-0.2c1-0.2,1.8-0.7,2.4-1.6c0.1-0.1,0.2-0.2,0.3-0.4
	C174.3,46.3,174.2,46.5,174.2,46.5z M174.4,32.6c0,0.4,0,0.8-0.1,1.2c0,2.7-0.1,5.2-0.1,7.9c0,0.7-0.2,2.4-0.2,3.1
	c0,1.1-0.8,2.3-1.9,2.7c-0.1,0-0.1,0.1-0.2,0c0.2-0.2,0.4-0.4,0.6-0.6c0.6-0.5,0.9-1.1,1-1.9c0.2-1.4,0.2-3.9,0.3-5.4
	c0.1-1.3,0.1-2.6,0.2-3.9c0-1.3,0.1-2.5,0.1-3.7c0-0.2,0.1-0.4,0.2-0.6C174.3,31.8,174.4,32.2,174.4,32.6z M175.1,24.8
	c-0.2,2.9-0.1,5.8-0.2,8.7c0,0.4-0.1,0.8-0.1,1.3c0-4.9-0.2-9.7-0.1-14.7c0.4,0.8,0.4,1.6,0.4,2.3C175.1,23.2,175.2,24,175.1,24.8z"
	/>
</svg>
