<?xml version="1.0" encoding="utf-8"?>
<!-- Generator: Adobe Illustrator 18.1.0, SVG Export Plug-In . SVG Version: 6.00 Build 0)  -->
<!DOCTYPE svg PUBLIC "-//W3C//DTD SVG 1.1//EN" "http://www.w3.org/Graphics/SVG/1.1/DTD/svg11.dtd">
<svg version="1.1" id="Layer_1" xmlns="http://www.w3.org/2000/svg" xmlns:xlink="http://www.w3.org/1999/xlink" x="0px" y="0px"
	 viewBox="109.3 21.9 100 94" enable-background="new 109.3 21.9 100 94" xml:space="preserve">
<g opacity="0.7">
	<path d="M188.8,92.9c0.1-0.4-0.1-0.6-0.1-0.9c-0.3-0.2-0.7-0.2-1.1-0.4c0.1,0-0.7-0.1-0.7,0.1c-0.2,0.2-0.1,1.2-0.1,1.5
		c0.1,0.2,0.1,0.4,0.1,0.5c0.3,0,1.1,0,1.3-0.3C188.5,93.4,188.8,93.1,188.8,92.9z"/>
	<path d="M162.2,91.6c0,0.2,0.1,0.9-0.1,1.1c0,0.2,0,0.4,0,0.6c0,0.2,0.2,0.2,0.2,0.4c0.4,0,1,0.1,1.4-0.1c0.1-0.1,0.4-0.3,0.4-0.5
		V93c0,0,0-0.1,0.1-0.1c0-0.1,0-0.1,0.1-0.1c0-0.4-0.1-0.9-0.5-1.2C163.5,91.6,162.5,91.3,162.2,91.6z"/>
	<path d="M173.6,93.4C173.6,93.4,173.6,93.3,173.6,93.4c-0.1-0.1-0.1-0.2-0.1-0.2c0-0.1-0.1-0.2-0.1-0.3c0,0,0-0.1,0-0.1
		c-0.1-0.2-0.2-0.5-0.3-0.7c0,0-0.1,0-0.1,0c0,0.2,0,0.3-0.1,0.4c0,0.1,0,0.2,0,0.4c0,0,0,0.1-0.1,0.1c0,0.2-0.2,0.3-0.1,0.5
		c-0.2,0.2-0.3,0.7-0.3,0.9c0.4,0.2,0.9,0,1.3,0c-0.1,0.1,0,0,0.1,0C173.8,94,173.7,93.7,173.6,93.4L173.6,93.4z"/>
	<path d="M199.4,96.7c0.2-0.4,0.1-1.2,0.1-1.6c0-0.5,0-1.1,0-1.6c0-1.4-0.1-2.8-0.1-4.2c0-1.3,0-2.6,0-4c0-0.6,0-1.2,0-1.9
		c0-0.6,0.2-1.9-0.3-2.4c-0.1-0.2-0.2-0.5-0.5-0.6c-0.2-0.2-0.3-0.3-0.5-0.5c-0.1-0.1-0.2-0.1-0.4-0.2c-1,0-2-0.2-2.9-0.2
		c-1.2-0.1-21,0-22.2,0.1c-2.3,0-4.6-0.1-6.8-0.1c-4.8,0.1-9.5-0.1-14.3-0.1c-0.7,0.3-1.9,0.1-2.7,0.2c-0.9,0-1.8,0-2.7,0.1
		c-0.8,0-23,0.1-23.8,0.1c-0.5,0-1.4-0.1-1.9,0.2c-0.5,0.2-1,0.4-1.4,0.6c-0.2,0.2-0.4,0.4-0.6,0.6c0,0.1-0.3,0.3-0.3,0.4
		c-0.5,1.4-0.4,2.7-0.4,4.2c0,1.3-0.1,2.6-0.1,3.8c0.2,1,0.1,2.2,0,3.2c0,0.6-0.1,1.2-0.1,1.8c0,1.3,0,2.7,0,4.1c0,1.4,0,2.7,0,4.1
		c0,0.4,0,0.9,0,1.3c0,0.8-0.4,1.9,0,2.7c0.1,0,0.1,0.1,0.1,0.1c0.1,0.2,0.2,0.4,0.3,0.6c0.2,0.4,0.7,0.7,1,0.9
		c0.8,0.5,2.5,0.2,3.4,0.2c1-0.1,23.3,0,24.3,0c1.1,0,2.2-0.1,3.2-0.1c1.3,0,2.6,0.1,3.9,0c4.6,0,9.3-0.3,14-0.3
		c0.1-0.1,0.2-0.1,0.2-0.1c0.2-0.2,1.6,0,2,0c0.8,0,1.5,0,2.3,0c1.7,0,22-0.1,23.8-0.1c0.3,0,0.6,0,0.6-0.5c0.1,0,0.1,0,0.2,0
		c0.2-0.1,0.4-0.1,0.6-0.1c0.4-0.2,0.7-0.4,1.1-0.6c1.2-1.2,1.1-3.1,1.1-4.7C199.4,100.3,199.4,98.5,199.4,96.7z M134.6,95.9
		c0.2-0.2,0.4-0.2,0.6-0.2c0.2,0,0.5,0.1,0.7,0c0.6,0,1.1-0.2,1.7-0.1c0.4,0,1.6,0.3,1.9,0c0.1,0.2,0.2,0.2,0.2,0.2
		c0.2,0,0.3,0.1,0.4,0.1c0.2,0.1,0.2,0.2,0.3,0.2c0,0.4,0,0.7,0,1c-0.1,0.1-0.1,0.2-0.2,0.2c-1.7,0.2-3.5,0-5.2,0.2
		C134.6,97.3,134.6,96.3,134.6,95.9z M125.3,97.5c0.2,0.4,0.7,0.8,1,1.1c0.8,0.6,1.5,0,2.3,0.1c0.4-0.4,0.9-0.8,1.1-1.4
		c0.2-0.7,0.4-1.9-0.2-2.4c-0.1-0.2-0.3-0.3-0.5-0.4c-0.5-0.3-1-0.2-1.5-0.2c-0.2,0-0.4-0.2-0.6-0.2c0,0,0,0-0.2,0.1
		c-0.1,0-0.2,0.1-0.3,0c-0.3-0.3-1.2-0.9-1.1-1.4c0-0.4,1.1-1.3,1.4-1.5c0.3-0.7,1-1,1.3-1.7c-0.9,0-1.7-0.1-2.6-0.1
		c-0.2,0-1.5,0.2-1.7,0.1c-0.9-0.2-0.5-1.8-0.4-2.3c1-0.4,2.3,0,3.4-0.1c0.5,0,0.9-0.1,1.4-0.1c0.7,0,1.4,0.2,2.1,0.1
		c0.1,0,0.2,0,0.3-0.1c0.2,0.1,0.2,0.1,0.3,0.1c0.2,0,0.3,0.1,0.4,0.2c0.1,0.1,0.2,0.2,0.3,0.3c0,0.5-0.2,1.1-0.2,1.6
		c-0.3,0.3-0.5,0.7-0.8,1c0,0.1,0,0.1,0,0.2c0,0,0,0.1-0.1,0.1h-0.1c0,0.1-0.2,0.2-0.2,0.3c-0.1,0-0.2,0.2-0.3,0.2
		c-0.1,0.3-0.4,0.5-0.6,0.7c-0.2,0.1-0.3,0.2-0.4,0.5c0.5,0.2,1-0.1,1.4,0.2c0.4,0.4,1,0.6,1.4,1.1c0.2,0.3,0.3,0.7,0.6,1
		c0,0.3,0.2,0.6,0.2,0.9c0.2,1.1-0.2,2.2-0.4,3.2c-0.3,0.2-0.5,0.7-0.8,1c0,0.1,0,0.1,0,0.2c-0.1,0.1-0.3,0.3-0.3,0.4
		c-0.2,0.2-0.3,0.3-0.5,0.5c-0.1,0-0.1,0-0.2,0c-2.1,2.1-6.5,1-7.6-1.7C123.1,98.4,125.3,96.8,125.3,97.5z M165.5,93.7
		c0,0.2-0.2,0.4-0.2,0.6c-0.2,0.2-0.3,0.3-0.5,0.4c-0.1,0-0.5,0.2-0.6,0.3c-0.4,0-0.7,0.2-1.1,0.2c-0.1-0.5-0.1-0.5-0.1-0.5
		c-0.2,0-0.3,0.1-0.5,0.1c0,0.1,0,0.2,0,0.3c0,0,0,0.1-0.1,0.1c0,0.5-0.1,1-0.1,1.4c-0.1,0-0.1,0.1-0.1,0.1c-0.1,0.1-0.4,0.1-0.5,0
		c-0.7,0-0.5-1.2-0.5-1.8c0-0.7,0-1.5,0-2.2c0-0.6-0.2-1.5,0.1-2c0.3-0.3,2.2,0,2.6,0.1c0,0,0.1,0.1,0.1,0.1c0.1,0,0.2,0,0.3,0
		c0,0,0.1,0.1,0.1,0.1c0.1,0.1,0.3,0.2,0.4,0.3c0.4,0,0.7,1.3,0.8,1.3C165.5,93.1,165.5,93.4,165.5,93.7z M169.9,96.7
		c0,0.1-0.3,0.3-0.3,0.4c-0.5,0.2-1.2,0-1.8,0c-0.5,0-1,0-1.5,0c-0.4-0.4-0.1-1.8-0.1-2.4c0.1-1.1,0-2.2,0-3.3
		c0.1-0.5,0.1-0.6,0.1-0.8c0.1-0.1,0.1-0.1,0.1-0.1c0.2,0,0.6,0,0.8,0.1c0.1,0,0.1,0.1,0.1,0.1c0,0.1,0,0.3,0.1,0.4
		c0,0.1,0,0.1,0.1,0.3c0,1.4,0,2.8,0,4.2c0.4,0.4,1.7-0.3,2.1,0.1C169.9,96,169.9,96.5,169.9,96.7z M174.7,96.7
		c-0.2-0.4-0.3-1.2-0.6-1.5c-0.7,0.1-1.6,0.1-2.3,0.1c-0.1,0.1-0.2,0.3-0.2,0.5c0,0-0.1,0.1-0.1,0.1c-0.1,0.2-0.1,0.5-0.3,0.6
		c-0.1,0-0.2,0.1-0.3,0.1c-0.2,0-0.7,0.1-0.8-0.1c0-0.1,0-0.1,0-0.1c0-0.2,0.2-0.3,0.2-0.4c0,0,0-0.1,0-0.1c0-0.3,0.1-0.5,0.2-0.8
		c0.2-0.4,0.3-1.2,0.6-1.5c0-0.3,0.3-0.7,0.3-1c0,0,0-0.1,0-0.1c0-0.6,0.3-1.2,0.6-1.7c0.2,0.2,0.3,0.1,0.5-0.1
		c0.4-0.1,0.9-0.1,1.3-0.1c0.1,0.1,0.1,0.1,0.1,0.1c0.1,0.2,0.4,0.6,0.4,0.8c0,0,0,0.1,0,0.1c0.1,0.3,0.2,0.6,0.3,0.8
		c0,0.1,0,0.2,0,0.3c0,0.3,0.2,0.7,0.4,0.9c0,0,0,0.1,0,0.1c0,0.1,0.1,0.2,0.1,0.3c0,0.4,0.2,1.1,0.5,1.4c0,0,0,0.1,0,0.1
		c0.1,0.3,0.3,0.4,0.3,0.8C175.6,96.9,175,96.7,174.7,96.7z M179.7,92.2c-0.1,0.1-0.1,0.1-0.2,0.2c0,0.1,0,0.2,0,0.3
		c0,0-0.1,0.1-0.1,0.1c0,0,0,0.1,0,0.1c0,0-0.1,0.3-0.1,0.3c0,0.1-0.1,0.3-0.2,0.3c-0.1,0.3-0.3,0.6-0.5,0.8c0,0.4,0.2,2.2,0,2.5
		c-0.1,0-1.3,0-1.1-0.3c0.1,0,0.1-1.6,0.1-1.8c0-0.1,0-0.2,0-0.4c0-0.1-0.1-0.1-0.1-0.2c-0.1-0.1-0.1-0.1-0.1-0.1
		c0-0.1-0.1-0.2-0.1-0.3c0,0-0.1-0.1-0.1-0.1v-0.2c-0.1-0.1-0.2-0.3-0.3-0.5c0,0-0.1-0.1-0.1-0.1c-0.3-0.6-0.6-1.2-0.8-1.8
		c0.1-0.2,1.1,0,1.3,0c0.3,0.3,0.3,0.8,0.6,1.1c0,0.1,0.2,0.2,0.3,0.3c0,0,0.2,0.4,0.1,0.4c0,0,0.1,0.1,0.1,0.1v0.1
		c0,0.1,0.2,0.1,0.2,0c0-0.1,0.1-0.2,0.1-0.3l0.1-0.1c0.1-0.6,0.5-1.2,0.8-1.7c0.1,0,0.1,0,0.1,0c0.2-0.1,0.3,0,0.5-0.1
		c0,0-0.3,0-0.2,0c0.1,0,0.1,0,0.1-0.1c0.1,0,0.1,0,0.2,0.1C180.3,91.2,179.8,91.8,179.7,92.2z M142.8,90.5c-0.2-0.1-0.2,0-0.3,0.1
		c-0.1,0.2-0.2,0.2-0.3,0.2c-0.1,0-0.1,0-0.2,0c-0.5,0.2-1.3,1.5-1.8,1.3c-1.1,0-0.4-2.4,0-2.8c0.1,0,0.2-0.1,0.3-0.2
		c0,0,0.1-0.1,0.2-0.2c0.9-0.9,2.1-1.5,3-2.4c0.1,0.3,0.2,0.3,0.2,0.3c0.3-0.1,0.6,0,0.8,0.1c0.2,0.2,0.4,0.3,0.6,0.4
		c-0.2,1.1,0,2.3-0.1,3.5c-0.1,0.8-0.1,1.5-0.1,2.3c0,1.1,0.2,2.1,0.1,3.2c-0.1,1.1-0.3,2.3-0.2,3.4c0,0.5,0.3,0.9,0.1,1.4
		c0,0.4-0.6,0.4-0.9,0.4c-0.7,0.1-0.7,0-1.1-0.4c0-0.1-0.3-0.3-0.3-0.3c0-0.5-0.5-1.5-0.2-1.9C142.7,96.1,143.2,93.3,142.8,90.5z
		 M184.7,96.7c-0.2,0.2-1.5,0-1.8,0c-0.6,0-1.1,0-1.7,0c-0.1-0.1-0.2-0.2-0.2-0.4c-0.2-0.7,0.1-2,0.1-2.7c0-0.9,0-1.8,0-2.7
		c0-0.1,0.1-0.1,0.1-0.1c0.4-0.4,2.6-0.1,3-0.1c0.1,0,0.3,0,0.4,0.1c0,0.3,0.1,0.5,0.1,0.8c-0.9,0.3-1.8-0.1-2.7,0.2
		c-0.1,0.3,0,0.7,0,1c0.3,0.1,2-0.1,2,0.3c0,0.1,0,0.2,0,0.3c0,1.1-1.3,0.2-2,0.6c0,0.5,0,0.9,0.1,1.3c0.1,0.6-0.1,0.4,0.4,0.5
		c0.5,0.1,2.1-0.3,2.3,0.2c0,0.1,0,0.3-0.1,0.4C184.8,96.3,184.8,96.7,184.7,96.7z M188.7,96.7c-0.1-0.1-0.1-0.1-0.1-0.1
		c0-0.1-0.1-0.1-0.1-0.1c-0.1-0.1-0.1-0.1-0.1-0.1c0,0-0.1-0.1-0.1-0.1c0-0.1-0.1-0.2-0.1-0.3c-0.2-0.1-0.5-0.6-0.5-0.8
		c-0.1-0.1-0.3-0.3-0.4-0.4c-1,0-0.1,1.5-0.6,2c-0.2,0-0.4,0-0.6,0.1c-0.2,0-0.4,0-0.6-0.1c0-0.5,0.1-1,0.1-1.5c0-1.4-0.2-3,0.1-4.3
		c0-0.1,0.1-0.1,0.1-0.1c0.7,0,1.7-0.3,2.3,0c0.1,0,0.2,0,0.4,0c0,0,0.1,0.1,0.1,0.1c0.2,0.1,0.5,0.2,0.7,0.4
		c0.1,0.1,0.2,0.2,0.3,0.3c0.1,0.2,0.2,0.5,0.4,0.6c0,0.2,0,0.4,0,0.6c-0.1,0.2-0.1,0.7-0.3,0.7c-0.1,0.1-0.1,0.1-0.1,0.2
		c-0.1,0.1-0.3,0.3-0.4,0.4c-0.1,0-0.2,0.1-0.3,0.1c0.2,0.1,0.2,0.1,0.1,0.2c-0.2,0-0.3,0.1-0.4,0.2c0,0.2,0.2,0.4,0.4,0.5
		c0,0.1,0.1,0.2,0.1,0.3c0,0.4,1.1,0.8,1.1,1.3C189.9,96.9,189,96.7,188.7,96.7z M152.9,101c0-0.6,0.1-1.3-0.1-1.9
		c-0.9-0.3-1.7,0.1-2.6,0.2c-0.9,0.1-2,0-2.9-0.3c0-0.5-0.3-1.2-0.3-1.8c0-0.1,0-0.2,0.1-0.2c0-0.4,0.3-0.8,0.6-1.1
		c0-0.1,0-0.1,0-0.2c0.1,0,0.1,0,0.2,0c0.1-0.1,0.5-0.8,0.5-1c0-0.1,0-0.2,0-0.3c0,0,0.2-0.1,0.2-0.2c0-0.1,0-0.1,0-0.2
		c0,0.1,0.5-0.6,0.5-0.6c0.1-0.2,0.6-0.9,0.6-1c0.2-0.2,0.2-0.6,0.2-0.8l0.1-0.1c0.2-0.2,0.1-0.5,0.2-0.8c0.2-0.5,0.6-0.9,0.8-1.4
		c0.4-0.7,0.8-1.6,1.3-2.1c0.5,0,1,0,1.4-0.2c0.6,0,1.1-0.2,1.6,0.2c0.1,1.1,0.2,2.3,0.1,3.4c0,0.3-0.1,0.6-0.2,0.8
		c0,0.3,0.2,0.6,0.2,0.9c0,1.3-0.1,2.7,0.1,3.9c0.8,0.2,1.7,0.1,2.4,0.5c0,0.7,0,1.4-0.2,2.1c-0.7,0.4-1.5,0-2.2,0.3
		c0,0.6,0.1,1.8-0.4,2.2C154.4,101.3,153.5,101.4,152.9,101z M194.5,95.5c0,0.1-0.1,0.2-0.1,0.3c0,0,0,0.1,0,0.1
		c-0.1,0.1-0.2,0.2-0.1,0.3c-0.1,0.1-0.3,0.3-0.3,0.4c-0.2,0.2-0.5,0.2-0.7,0.4c0,0-0.1,0-0.1,0c-0.1,0-0.2,0.1-0.3,0.1
		c-0.3,0.1-0.6-0.1-0.8-0.1c-0.4-0.2-1.4-0.6-1.1-1.2c0,0,0.1-0.1,0.1-0.1c0-0.1,0.1-0.1,0.1-0.1c0.1-0.1,0.1-0.1,0.1-0.1
		c0.1,0.1,0.3,0.3,0.4,0.4h0.1c0,0,0.1,0,0.1,0.1c0.1,0,0.2,0.1,0.3,0.1c0,0,0,0,0.1,0c0.1,0,0.1,0,0.4,0.1c0.2,0,0.4,0,0.4-0.1
		c0.1,0,0.2-0.1,0.3-0.1c0.1-0.1,0.1-0.2,0.2-0.3c0.1-0.1,0.1-0.3,0-0.4c0,0,0,0,0-0.1c0,0-0.1-0.1-0.1-0.1
		c-0.1-0.1-0.2-0.3-0.3-0.4c-0.1,0-0.4-0.2-0.4-0.2c-0.1,0-0.7-0.6-0.7-0.7c0,0,0-0.1,0-0.1c-0.7-0.1-1-1.4-0.9-1.9
		c0,0,0-0.1,0.1-0.1c0-0.1,0.1-0.3,0.1-0.4c0.1-0.1,0.3-0.1,0.4-0.2c0.1,0,0.2-0.2,0.3-0.2c0.7,0,1.3-0.1,2,0.3
		c0.1,0.1,0.1,0.1,0.3,0.2c0.4,0.4,0.1,0.5-0.2,0.8c-0.5,0.5-0.1,0.2-0.6,0.2c0,0,0-0.1,0-0.1c-0.1-0.1-0.2-0.2-0.3-0.3
		c-0.3,0-0.6,0-0.9,0c-0.2,0.2-0.2,0.3-0.1,0.5c0.1,0.1,0.3,0.4,0.4,0.4c0,0,0.1,0,0.1,0c0,0,0.1,0.1,0.1,0.1
		c0.2,0.1,0.3,0.2,0.4,0.4c0.2,0,0.7,0.4,0.8,0.5l0.1,0.1c0,0.1,0.1,0.1,0.1,0.1c0.1,0.1,0.2,0.2,0.3,0.3c0,0.1,0.1,0.2,0.1,0.3
		c0,0.1,0,0.3,0.1,0.4C194.5,95.1,194.5,95.3,194.5,95.5z"/>
	<path d="M153.1,91.4l-0.2-0.2c-0.4,0.8-0.9,1.6-1.3,2.4c-0.4,0.9-1.3,2.1-1.3,3c0.4,0.4,1.5,0,2,0.2c0.2,0,0.4,0,0.6-0.1
		c0.3-1-0.1-2.1,0-3.1C153,93.1,153.4,91.9,153.1,91.4z"/>
</g>
<g opacity="0.7">
	<path d="M136.8,64.4c0.1,0.5,0.1,0.9,0.2,1.3c0.1,0.4,0.1,0.8,0.2,1.2c0.1,0.5,0.2,0.9,0.2,1.5c0.1,0.9,0.3,1.7,0.5,2.5
		c0,0.1,0,0.2,0,0.3s0,0.3,0.1,0.4c-1-0.1-2-0.1-3,0c-0.8,0-1.6,0-2.4,0c-0.3,0-0.4-0.1-0.5-0.5c-0.2-0.9-0.5-1.8-0.6-2.8
		c-0.2-1-0.6-2-1-2.9c-0.2-0.5-0.4-1-0.5-1.5c-0.1-0.4,0.1-0.5,0.5-0.7c0.3-0.1,0.5-0.4,0.7-0.5c0.1-0.1,0.1-0.2,0.1-0.2
		c-0.1-0.1-0.2-0.1-0.3-0.1c-0.3,0.1-0.5,0.2-0.8,0.4c-0.6,0.4-1.4,0.6-2.1,0.5c-0.7,0-1.4-0.3-1.9-0.6c-0.6-0.4-1.2-0.8-1.6-1.4
		c-0.2-0.2-0.2-0.4-0.4-0.5c0-0.1,0-0.1,0-0.1c0.3-0.3,0.3-0.6,0.3-0.9c0-0.1,0-0.2,0-0.3c0.1-0.8,0.2-1.6,0.3-2.5
		c0.1-0.5,0-1.2,0.4-1.7c0.2-0.3,0.4-0.5,0.7-0.5c0.1,0,0.2,0,0.3-0.1c0.3-0.2,0.6-0.4,1-0.5c0.6-0.1,1.2-0.2,1.6,0.3
		c0.5,0.4,1.3,0.3,1.7-0.1c0.2-0.2,0.3-0.2,0.5,0c0.3,0.2,0.5,0.3,0.8,0.3c0.6-0.1,1.3-0.2,1.8-0.2c0.4,0,0.7,0,1-0.2
		c0.1-0.1,0.3-0.1,0.4-0.2c0.2,0,0.3-0.1,0.4-0.3c0.4-0.5,0.5-1,0.5-1.6c0-1,0-2,0-2.9c0-0.1,0-0.2,0-0.3c-0.2-0.7-0.4-1.5-0.7-2.1
		c-0.3-0.5-0.1-0.9-0.3-1.4c0-0.1-0.1-0.3,0-0.4c0.3-0.3,0.4-0.7,0.5-1c0.5-0.5,0.8-1.1,1.4-1.5c0.5-0.3,0.8-0.5,1.4-0.7
		c0.5-0.2,0.9-0.3,1.4-0.5c0.8-0.4,1.7-0.4,2.5-0.4c0.6,0,1.4-0.1,2-0.2c0.5-0.1,1,0,1.5,0c0.5,0,1.2,0,1.7-0.1c0.4,0,0.7-0.2,1-0.2
		c0.4,0,0.8-0.1,1.2,0c0,0.1-0.1,0.1-0.1,0.2c-0.6,0.5-0.8,1.2-1.1,1.8c-0.2,0.7-0.5,1.5-0.5,2.3c-0.2,0.9-0.4,1.9-0.5,2.8
		c-0.2,0.9-0.2,1.8-0.4,2.8c0,0.3-0.1,0.6-0.1,0.9c-0.1,0.5-0.5,1-1.2,1c-1,0-2-0.2-3-0.3c-0.8-0.1-1.7-0.2-2.5,0
		c-0.7,0.2-1.3,0.5-1.5,1.3c-0.1,0.4-0.1,0.6,0.1,0.9c0.3,0.5,0.3,0.5-0.3,0.6c-0.7,0.2-1.4,0.6-1.9,1.2c-0.1,0.1,0,0.2-0.2,0.3
		c0-0.2,0-0.3-0.1-0.5c-0.3-0.6-0.6-1.2-1-1.7c-0.1-0.2-0.3-0.2-0.5,0c-0.2,0.1-0.1,0.3,0,0.4c0.5,0.6,0.9,1.4,1.2,2.1
		c0.1,0.2,0.1,0.2,0.3,0.3c0,0.2-0.1,0.3-0.2,0.5c-0.1,0.9,0,1.7,0,2.6v0.1c-0.2,0-0.4,0-0.5,0.1c-0.3,0.1-0.4,0-0.5-0.2
		c-0.1-0.3-0.2-0.5-0.2-0.8c-0.1-0.5-0.2-0.9-0.4-1.4s-0.5-1-0.6-1.5c-0.3-0.5-0.5-1-0.9-1.4c-0.1-0.1-0.2-0.2-0.3-0.3
		c-0.1-0.2-0.3-0.2-0.4-0.2c-0.1,0-0.2,0-0.2,0.1c0,0.1,0.1,0.2,0.1,0.2c0.3,0.3,0.5,0.5,0.7,0.8c0.5,0.7,0.7,1.5,1,2.2
		c0.3,0.6,0.4,1.3,0.5,1.9c0.1,0.4,0.2,0.7,0,1.1c0,0,0,0.1,0,0.2c-0.1,0.5-0.1,1.1,0,1.7c0,0.3,0.1,0.5,0.3,0.7
		C135.4,64,136,64.3,136.8,64.4z M128.7,55.7c-0.3,0-0.5,0-0.9,0.1c-0.5,0.2-0.9,0.6-1.3,1.1c-0.2,0.2-0.3,0.4-0.3,0.5
		c-0.1,0.4-0.1,0.7,0,1.1c0.2,1.1,1,1.7,2.1,1.8c0.3,0,0.6,0,0.9,0c0.5,0,0.8-0.2,1.2-0.5c0.9-0.8,1.1-2.3,0.4-3.3
		c-0.2-0.3-0.5-0.5-0.8-0.6C129.5,55.8,129.1,55.7,128.7,55.7z"/>
	<path d="M148.3,72.6c0.1-0.2,0.2-0.5,0.2-0.6c-0.4,0-0.7-0.2-1.1-0.1c0,0.1,0.1,0.1,0.1,0.2c0,0.5,0.3,1,0.2,1.5h0.1"/>
	<path d="M173.2,73.1c-0.1-0.5-0.3-0.9-0.5-1.4c-0.2-0.4-0.3-0.7-0.4-1.1c-0.3-0.8-0.4-1.6-0.5-2.5c-0.2-0.7-0.4-1.5-0.6-2.2
		c-0.2-0.5-0.4-1.1-0.5-1.6s-0.2-1.1-0.3-1.5c-0.1-0.6-0.2-1.3-0.2-1.9c0-0.3-0.1-0.4-0.4-0.3c-0.5,0.1-1.1,0.1-1.6,0.2
		c-0.6,0.1-1.4,0-2,0c-1.3,0-2.5,0.1-3.8,0.2c-1.1,0-2.3,0-3.4,0.2c-0.3,0-0.4,0.1-0.2,0.4c0.2,0.3,0.4,0.5,0.5,0.7
		c0.4,0.6,0.8,1.3,1.1,1.9c0.1,0.1,0.1,0.3,0.3,0.4v-0.1c0-0.1-0.2-0.2-0.1-0.3c0.1-0.1,0.3-0.1,0.4-0.1c0.5,0.1,1.1,0,1.5,0
		c0.5-0.1,0.8-0.1,1.3-0.1c1.4,0,2.6,0,4,0c0.3,0,0.5,0,0.7,0c0.3,0,0.5-0.2,0.5-0.5c0-0.7,0-1.4,0-2.1c0-0.1-0.1-0.2-0.1-0.3
		c-0.1-0.2-0.1-0.3,0.2-0.3c0.3,0,0.5,0,0.9,0c-0.5,0.5-0.4,1-0.4,1.5c0,0.3,0,0.6,0,0.9c0,0.4,0.3,0.6,0.6,0.7
		c0.2,0,0.3,0.1,0.3,0.2c0.1,0.1,0.1,0.3,0,0.4c-0.1,0.1-0.2,0-0.3,0s-0.3-0.1-0.4-0.2c-0.3-0.2-0.5-0.2-0.7,0
		c-0.3,0.2-0.5,0.3-0.8,0.3c-0.5,0-1,0-1.5,0c-1.5,0-3,0-4.5,0.1c-0.5,0-1.1,0-1.6,0v0.1c0.3,0.5,0.5,1.1,0.8,1.6
		c0.1,0.2,0.2,0.3,0.2,0.5c0.1,1-0.1,1.9-1.1,2.5c-0.7,0.5-1.9,0.6-2.7,0c-0.7-0.6-1.5-1.3-1.9-2.1c0-0.1-0.1-0.2-0.2-0.2
		c-0.1,0-0.2,0.1-0.2,0.2c-0.3,0.6-0.6,1.2-0.9,1.8c-0.6,1.2-1.3,2.5-1.8,3.6c-0.2,0.5-0.5,0.8-0.7,1.2h0.1c0.1-0.1,0.2-0.1,0.3-0.1
		c0.4,0.1,0.8,0.1,1.2,0.1c0.5,0,1.1-0.1,1.6-0.1c1.9,0,3.8-0.1,5.6,0.1c1,0.1,1.9,0.1,2.9,0.1c1.5,0,3,0,4.5,0c1.4,0,2.8,0,4.2,0
		c0.1,0,0.1,0,0.2,0s0.1,0,0.2,0c0.2,0.1,0.3,0.1,0.3,0.2C173.5,73.8,173.3,73.4,173.2,73.1z M172.6,72.1c-1.3,0-2.5,0-3.8,0.1
		c-1.3,0.1-2.5-0.1-3.7-0.2c-0.5,0-1,0-1.5,0c-3.1,0.1-6.1,0.1-9.2,0.1c-0.2,0-0.5,0-0.6-0.1c-0.2,0-0.2-0.1-0.1-0.3
		s0.2-0.3,0.5-0.3c0.6,0,1.3,0,2.1,0c0.9,0,2,0,3.1,0c0.4,0,0.8,0.1,1.2,0c1,0,2-0.1,2.9-0.1c0.8,0,1.7,0.1,2.5,0.2
		c0.1,0,0.2,0,0.4,0c1.1,0,2.2,0,3.3,0c0.9,0,1.9-0.1,2.8-0.1c0.2,0,0.3,0,0.4,0.2C173,72,172.9,72.1,172.6,72.1z"/>
	<path d="M190.9,52.6c0.5,0.1,1,0.1,1.5,0.1c1,0,2,0.1,3,0.1c0.5,0,1,0,1.5-0.1c0.3,0.5,0.5,0.8,0.8,1.2c0.6,0.9,0.8,1.9,0.7,3
		c-0.1,0.7-0.3,1.5-0.5,2.2c-0.3,0.8-0.9,1.3-1.5,1.7c-0.5,0.3-1,0.5-1.5,0.6c-0.4,0.1-0.6,0-1-0.1c-0.5,0-0.9-0.2-1.4-0.4
		c-0.1-0.1-0.3-0.1-0.4-0.1c-0.1,0-0.3,0-0.3,0.2c0,0.1,0.1,0.2,0.1,0.3c0.2,0.2,0.5,0.3,0.6,0.4c0.2,0.1,0.3,0.1,0.5,0.2
		c0.3,0.1,0.3,0.2,0.2,0.4c-0.3,0.5-0.5,1.1-0.8,1.6c-0.3,0.6-0.5,1.4-0.5,2c-0.2,0.9-0.4,1.9-0.6,2.8c-0.2,0.5-0.2,1-0.3,1.5
		c0,0.4-0.1,0.8-0.5,1c-0.3,0.2-0.5,0.2-0.9,0.1c-0.9-0.1-1.8-0.1-2.7,0c-0.5,0.1-1.1,0.1-1.5,0.1c-0.5,0-1.1,0-1.6,0
		c-0.8,0-1.5-0.1-2.4-0.1c-0.1,0-0.2,0-0.3,0c-0.1-0.4-0.3-0.8-0.4-1.2c-0.2-0.4-0.3-0.7-0.4-1.2c-0.1-0.5-0.3-1-0.5-1.5
		c-0.2-0.5-0.4-1.1-0.5-1.7c-0.1-0.4-0.2-0.6-0.2-1c0-0.2-0.1-0.3-0.2-0.4c0.5-0.1,0.9,0.1,1.4,0.1c1.2,0,2.4,0,3.5-0.1
		c0.5,0,0.9,0,1.4-0.1c0.4-0.1,0.7-0.1,1-0.3c0.4-0.3,0.5-0.6,0.6-1c0.2-0.6,0.2-1.3,0.3-1.9c0.1-0.5,0.2-0.9,0.2-1.4
		c0-0.8,0.2-1.6,0.4-2.5c0.1-0.5,0.4-1.1,0.6-1.6c0.5-1.2,1.3-2.1,2.3-2.8C190.7,52.9,190.8,52.8,190.9,52.6z M193.4,59.1
		c0.2,0,0.4,0,0.5,0c0.8,0,1.6-0.6,1.9-1.5c0.1-0.5,0.2-0.9,0-1.4c-0.1-0.5-0.4-0.7-0.6-1.1c-0.3-0.3-0.5-0.4-0.9-0.5
		c-0.9-0.5-1.8-0.4-2.6,0.2c-0.9,0.5-1.2,2.2-0.5,3.1C191.8,58.7,192.5,59.2,193.4,59.1z"/>
	<path d="M159.3,40.2c0.7,0.9,1.5,1.6,2.4,2.5c0.8,0.9,1.8,1.6,2.7,2.5c0.5,0.4,0.9,0.8,1.3,1.2c0.2,0.2,0.2,0.4,0.2,0.5
		c-0.2,0.5-0.2,1.1-0.3,1.5c-0.1,0.8-0.2,1.5-0.3,2.4v0.1c0.1,0.9-0.2,1.7-0.2,2.6c0,0.2-0.1,0.4-0.1,0.5c0,0.2-0.2,0.3-0.4,0.3
		c-0.6,0-1.3-0.1-1.9-0.2c-0.5-0.1-1.1-0.2-1.7-0.2c-0.6,0-1.3-0.2-1.8-0.2c-0.2,0-0.2-0.1-0.2-0.3c0-0.8-0.1-1.5-0.1-2.4
		c-0.1-0.8-0.1-1.6-0.3-2.5c-0.1-0.6-0.3-1.3-0.4-1.9c-0.1-0.5-0.1-1.1-0.2-1.5c-0.2-1-0.3-2-0.5-3c-0.2-0.7-0.5-1.5-1.1-1.9
		c0,0-0.1-0.1-0.1-0.2c0.5-0.1,1.1-0.1,1.5,0C158.5,40.3,158.9,40.3,159.3,40.2z"/>
	<path d="M197.4,52.5c0.3-0.1,0.6-0.2,0.9-0.4c0.2,0.2,0.5,0.2,0.6,0.2c0.7,0.2,1.5,0.4,2,0.9c0.6,0.5,0.9,1.3,1.1,2.1
		c0.1,0.9-0.1,1.7-0.3,2.6c-0.1,0.5-0.3,0.9-0.5,1.4c-0.2,0.5-0.6,0.9-1.1,1.3c-0.4,0.4-0.8,0.6-1.3,0.9c-0.6,0.4-1,0.9-1.3,1.6
		c-0.5,1.4-1,2.6-1.5,4c-0.3,1-0.5,2-0.7,3c0,0.3,0,0.5-0.1,0.7s-0.3,0.4-0.5,0.4c-1.1,0-2.2,0.1-3.4,0c-0.3,0-0.4-0.1-0.3-0.4
		c0.1-0.5,0.1-0.9,0.2-1.4c0.1-0.5,0.2-1.1,0.4-1.5c0.1-0.2,0.1-0.5,0.2-0.6c0.2-0.5,0.3-1.1,0.4-1.6c0.2-0.9,0.5-1.8,0.9-2.6
		c0.2-0.3,0.3-0.5,0.5-0.7s0.3-0.3,0.5-0.2c0.2,0.1,0.3-0.1,0.5-0.1c0.8-0.1,1.5-0.5,2.2-1c0.4-0.3,0.7-0.6,1-1.1
		c0.3-0.5,0.5-0.8,0.6-1.4c0.3-0.8,0.4-1.7,0.4-2.6c-0.1-0.7-0.3-1.5-0.6-2.1C198,53.3,197.6,53,197.4,52.5z"/>
	<path d="M181.8,74c0-0.2,0-0.5,0-0.6c0-0.5-0.2-1-0.5-1.5c0.2-0.1,0.4,0,0.5,0c0.4,0.1,0.7,0.1,1,0c0.9,0,1.7,0.1,2.6,0.1
		c0.7,0,1.4-0.1,2.1-0.2c0.5-0.1,1-0.1,1.5,0c0.5,0.1,0.8,0.2,1.3,0c0.3-0.1,0.5,0,0.5,0.4s0,0.6,0,1s-0.2,0.5-0.5,0.5
		c-0.5,0-1-0.1-1.5-0.1c-1.1,0-2.2,0.2-3.3,0.2c-0.4,0-0.6,0-1,0c-0.3,0-0.5,0-0.9,0c-0.5,0.1-1,0.1-1.5,0.1
		C182,73.8,181.9,73.8,181.8,74z"/>
	<path d="M138.2,73.4c0.1-0.1,0.1-0.1,0.2-0.1c-0.2-0.5-0.3-0.9-0.4-1.4c-0.6,0-1.4,0-2,0c-1.1,0-2.2,0.1-3.3,0
		c-0.6,0-0.5,0-0.6,0.5c0,0.1,0,0.1-0.1,0.2c0,0.2,0,0.3,0.1,0.5c0.3,0.4,0.6,0.4,1.1,0.4c0.3,0,0.6-0.1,0.9-0.1
		c0.5,0.1,1.2,0,1.7,0C136.7,73.4,137.4,73.3,138.2,73.4L138.2,73.4z"/>
	<path d="M194,73.3c-0.5-0.1-1.2,0.2-1.9,0.2c-0.1,0-0.2,0-0.3,0c-0.3,0-0.4-0.1-0.4-0.4c0-0.4,0-0.6,0-1c0-0.3,0.1-0.4,0.4-0.4
		c0.1,0,0.2,0,0.2,0c0.9,0.2,1.8,0.1,2.8,0.1c0.2,0,0.5-0.1,0.6,0c0.5,0,0.9,0.5,0.8,0.9c0,0.1,0,0.1,0,0.2c0,0.3-0.1,0.4-0.4,0.4
		C195.3,73.3,194.8,73.4,194,73.3z"/>
	<path d="M198,49.6c-0.2-0.1-0.5-0.1-0.6-0.2c-0.2-0.1-0.3-0.2-0.2-0.4c0.3-0.8-0.1-1.5-0.4-2.2c-0.1-0.2-0.2-0.3-0.2-0.5
		c-0.1-0.1-0.1-0.2,0-0.4c0.2-0.4,0.5-0.7,0.7-1c0.2,0.6,0.4,1.3,0.4,1.9c0,0.5,0.2,0.9,0.2,1.4c0,0.3,0,0.5,0,0.8
		C197.9,49.2,197.9,49.4,198,49.6z"/>
	<path d="M174.6,43.8c0,0.5,0,1.1,0.2,1.6c0.1,0.6,0.2,1.2,0.3,1.8c0,0.1,0,0.1,0,0.2c-0.1,0.7,0.1,1.5,0.2,2.3
		c0.1,0.8,0.2,1.5,0.3,2.4c0.1,0.3,0,0.6,0.1,1c0,0.4,0.1,0.6,0.2,1c0,0.1,0.1,0.2,0.1,0.4s0.1,0.4-0.2,0.5
		c-0.3,0.1-0.4,0.4-0.4,0.7c0,0.1,0,0.2,0,0.3c0.1,0.5,0,0.6-0.5,0.7c-0.5,0.1-1.1,0.1-1.5,0.3c-0.5,0.2-1,0.5-1.5,0.7
		c-0.5,0.4-0.7,0.8-1,1.3c-0.2,0.4-0.3,0.7-0.3,1.1c0,0.2-0.1,0.3-0.3,0.3s-0.5,0-0.6,0c-0.4,0-0.7,0-1.1,0.1c-0.2,0-0.3,0-0.5,0
		c-0.3-0.1-0.5,0-0.7,0c-0.1,0-0.2,0.1-0.3,0.1c-1.4,0-2.8,0.1-4.2,0c-0.4,0-0.6,0-0.9,0.1c-0.3,0.1-0.5,0.1-0.7,0
		c-0.4-0.1-0.6,0-1,0c-0.4,0.1-0.7,0-1.1,0.1c-0.2,0-0.4-0.2-0.5-0.4c-0.4-0.6-0.7-1.4-1.2-1.9c-0.3-0.4-0.5-0.7-0.6-1.1
		c-0.1-0.2-0.1-0.4,0.2-0.5c0.5-0.2,1-0.5,1.5-0.5c1.3-0.2,2.5-0.4,3.7-0.5c0.8-0.1,1.6-0.2,2.4-0.3c0.3,0,0.5-0.1,0.9-0.1
		c0.3,0,0.5-0.2,0.5-0.5c0.1-0.8,0-1.6,0.2-2.5c0.2-0.8,0-1.5,0.2-2.4c0.1-0.7,0.2-1.5,0.3-2.2c0.1-0.7,0.3-1.5,0.4-2.3
		c0.1-0.6,0.4-1.3,0.5-1.9c0.3-0.6,0.5-1.3,0.8-1.8c0.1-0.1,0.1-0.3,0.3-0.3s0.2,0.2,0.3,0.4c0,0.4-0.1,0.7-0.2,1.1
		c-0.1,0.5-0.2,0.8-0.3,1.3c-0.1,0.5-0.1,1-0.1,1.5c0,0.3,0.1,0.5,0.2,0.7c0.2,0.2,0.4,0.3,0.6,0.2c0.4-0.2,0.6-0.5,0.9-0.8
		c0.4-0.5,0.7-1,1.2-1.5c0.5-0.5,0.9-1.2,1.4-1.7c0.2-0.3,0.5-0.4,0.8-0.5c0.3-0.1,0.5-0.3,0.7-0.5c0.4-0.2,0.5-0.2,0.5,0.2
		C174.4,42.6,174.5,43.2,174.6,43.8z"/>
	<path d="M193.9,49.2c-0.8,0-1.6,0-2.5,0c-0.2,0-0.3-0.1-0.5-0.2c-0.5-0.5-0.6-0.9-0.6-1.5c0-0.4-0.1-0.7,0-1.1
		c0.2-0.6,0.1-1.3,0.4-1.8c0.2-0.3,0.1-0.6,0-0.9c-0.2-0.3-0.2-0.5-0.2-0.8s0-0.5,0-0.7c0-0.5,0.3-0.9,0.5-1.3
		c0.2-0.3,0.4-0.6,0.5-0.9c0.1-0.2,0.1-0.4-0.1-0.5c-0.6-0.7-0.5-1.5-0.3-2.4c0.1-0.3,0.3-0.5,0.5-0.8c0.2-0.4,0.2-0.6-0.1-0.9
		c-0.4-0.4-0.5-0.7-0.7-1.3c-0.1-0.3-0.1-0.6-0.2-0.9c0-0.2-0.2-0.4-0.5-0.5c-0.1,0-0.2,0-0.3,0c-1.1,0-2.2,0-3.3,0
		c-1.4,0-2.3,0.6-2.8,1.8c-0.3,0.5-0.5,1.2-0.5,1.9c0,0.2,0,0.3-0.1,0.5c0,0.2-0.2,0.3-0.4,0.1c-0.5-0.4-0.7-1.2-0.4-1.7
		c0.1-0.2,0.1-0.4,0-0.6c-0.3-0.6-0.5-1.2-0.1-1.8c0.3-0.4,0.6-0.7,1-0.7c0.5-0.1,0.7-0.4,1-0.8c0.3-0.5,0.7-0.8,1.4-0.9
		c0.2,0,0.4,0,0.5,0.1c0.3,0.1,0.5,0.1,0.8-0.2c0.6-0.5,1.4-0.7,2.1-0.9c0.2,0,0.4,0,0.5,0.1c0.5,0.1,0.9,0.1,1.3,0.5
		c0.4,0.4,0.8,0.6,1.3,0.8c0.3,0.1,0.5,0.2,0.8,0.2c0.7,0.1,1.7,0.7,1.8,1.7c0,0.3,0.2,0.6,0.2,0.9c0,0.5-0.2,0.9-0.3,1.3
		c-0.1,0.5,0,0.6,0.4,0.9c1.1,0.8,1.5,1.9,1.5,3.3c0,0.3,0,0.5,0.3,0.8c0.5,0.5,0.6,1.1,0.8,1.7c0.1,0.5,0.1,1.1-0.1,1.6
		c-0.1,0.5-0.3,0.8-0.5,1.2c-0.2,0.5-0.5,0.9-0.8,1.4c-0.3,0.4-0.3,0.6-0.1,1c0.3,0.5,0.5,0.9,0.5,1.5c0,0.3,0,0.5,0,0.7
		c-0.1,0.3-0.2,0.4-0.5,0.4C195.5,49.2,194.7,49.2,193.9,49.2L193.9,49.2z"/>
	<path d="M154.8,51.9c0,0.2,0,0.5,0,0.6c0,0.3-0.1,0.4-0.4,0.3c-0.4-0.1-0.7-0.2-1-0.2c-0.5-0.1-1.1-0.2-1.5-0.3
		c-0.5-0.1-1.2-0.3-1.7-0.5c-0.3-0.1-0.6-0.1-0.9-0.2c-0.4-0.1-0.4-0.2-0.3-0.5c0.3-1,0.4-1.9,0.5-2.9c0.2-1,0.4-2,0.5-3
		c0.1-0.3,0.1-0.5,0.1-0.8c0-0.2,0-0.3-0.2-0.3s-0.2,0.1-0.3,0.3c-0.2,1-0.5,2.1-0.6,3.1c-0.2,0.9-0.3,1.8-0.5,2.6
		c0,0.4-0.1,0.6-0.2,1c-0.1,0.4-0.4,0.5-0.6,0.4c-0.2,0-0.3-0.2-0.2-0.4c0.2-0.9,0.1-1.8,0.3-2.7c0.2-0.9,0.3-1.8,0.5-2.7
		c0.2-1,0.5-2,0.6-3c0.1-0.5,0.3-0.9,0.5-1.3c0.3-0.5,0.6-0.7,1.1-0.8c0.3-0.1,0.5,0,0.7,0.1c0.7,0.4,1.5,0.4,2.3,0.3
		c0.6,0,1.3-0.2,1.8-0.5c0.2-0.1,0.4-0.1,0.5,0c0.5,0.3,0.7,0.7,0.9,1.2c0.4,0.9,0.5,1.9,0.6,2.8c0.1,0.5,0.3,1,0.3,1.5
		c0,0.8,0.3,1.6,0.4,2.4c0.1,0.6,0.1,1.2,0.2,1.8c0.2,1,0.1,2,0.2,3c0,0.4,0,0.5-0.4,0.4c-1-0.1-2-0.1-3.1-0.1
		c-0.5,0-0.9,0.1-1.3,0.3h-0.1c-0.7,0.1-1.2,0.5-1.6,1c-0.1,0.2-0.3,0.4-0.4,0.5c-0.1,0.2-0.2,0.2-0.4,0.1c-0.8-0.2-1.7-0.3-2.5-0.5
		c-0.6-0.2-1.2-0.2-1.8-0.3c-0.6-0.2-0.9-0.8-0.7-1.3c0.1-0.3,0.2-0.5,0.3-0.7c0.4-0.5,0.9-0.8,1.5-0.7c1.1,0.1,2.1,0.3,3.1,0.5
		c0.6,0.2,1.3,0.3,2,0.4c0.5,0.1,0.9,0.3,1.4,0.3c0.5,0.1,0.6,0,0.7-0.5c0-0.3,0-0.5,0-0.7c-0.2-0.7,0-1.5-0.2-2.2
		c-0.2-1-0.1-2-0.2-3c-0.1-0.6-0.1-1.2-0.1-1.8c0-0.2,0-0.5-0.1-0.6c0-0.1-0.1-0.3-0.3-0.2c-0.2,0-0.1,0.2-0.1,0.3
		c0,0.5,0.1,1,0.1,1.5c0.1,0.4,0.1,0.7,0.1,1c0,0.5,0.1,1,0.1,1.5c0,0.8,0.1,1.6,0.2,2.4C154.8,51.3,154.8,51.6,154.8,51.9
		L154.8,51.9z"/>
	<path d="M150.8,59.9c-0.6,0.1-1.5-0.1-2.3-0.2c-0.5,0-1.1-0.1-1.6-0.1c-0.4,0-0.8-0.1-1.2-0.2c-0.5-0.2-0.7,0.1-0.6,0.5
		c0.2,1,0.4,2,0.5,3.1c0.1,0.6,0.2,1.4,0.3,2c0.1,0.5,0.1,1.1,0.3,1.6c0.2,0.9,0.3,1.9,0.5,2.8c0.2,0.7,0.3,1.4,0.4,2.1
		c0.2,0.9,0.4,1.8,0.3,2.7c-0.1,0.8-0.6,1.4-1.5,1.5c-0.7,0-1.4-0.2-1.9-0.5c-0.3-0.2-0.4-0.5-0.5-0.6c-0.3-0.7-0.5-1.4-0.6-2.1
		c-0.2-0.5-0.3-1.2-0.4-1.7c-0.2-0.8-0.4-1.6-0.5-2.5c-0.1-0.5-0.2-1.1-0.4-1.6c-0.1-0.5-0.2-0.9-0.2-1.4c0-0.3-0.1-0.5-0.2-0.8
		c-0.2-1-0.3-2-0.5-3c-0.2-0.8-0.2-1.7,0-2.5c0.1-0.3,0-0.6,0-0.9c0-0.5,0.1-0.9,0.3-1.3c0.4-0.6,0.9-1.3,1.7-1.5
		c0.7-0.1,1.4-0.2,2.1-0.2c0.8,0,1.5,0.1,2.4,0.3c0.3,0.1,0.5,0,0.8,0.1c1,0.3,2.1,0.5,3.1,0.6c0.5,0.1,0.5,0.1,0.5,0.5
		c0,0.9,0,1.8,0.5,2.6c0.1,0.1,0.1,0.3,0.2,0.4c0.1,0.2,0,0.3-0.2,0.3C151.6,59.9,151.2,59.9,150.8,59.9z"/>
	<path d="M186.7,60.2c-0.1-0.2-0.3-0.1-0.5-0.1c-0.7,0-1.5,0-2.1-0.1c-0.9-0.1-1.8,0.1-2.6,0.1c-0.4,0-0.7,0-1-0.1
		c-0.5-0.1-0.8-0.4-1-0.8c-0.3-0.8-0.6-1.7-0.9-2.5c-0.1-0.4-0.1-0.5,0.3-0.5c0.5-0.1,0.9-0.1,1.4-0.2c1-0.2,2.1-0.1,3.1-0.2
		c0.3,0,0.5,0,0.8,0c0.8,0,1.6,0,2.4,0c0.1,0,0.3,0,0.4-0.1c0.1,0,0.2-0.1,0.2-0.2c0-0.1-0.1-0.2-0.2-0.2c-0.5,0-0.8-0.1-1.3,0
		c-0.5,0.1-0.9,0-1.4,0c-0.3,0-0.5,0-0.7-0.2c-0.1-0.1-0.2-0.1-0.1-0.2c0.1-0.6,0.3-1.3,0.4-1.8c0.1-0.6,0.2-1.3,0.4-1.9
		c0.1-0.5,0.2-1.1,0.4-1.6c0.2-0.6,0.3-1.3,0.4-1.9c0-0.4,0.2-0.7,0.2-1.1c0.1-0.5,0.2-0.8,0.2-1.3c0-0.3,0.2-0.5,0.2-0.9
		c0-0.2,0.1-0.3,0.3-0.2c0.2,0.1,0.3,0.1,0.5,0.2c0.5,0.1,0.8-0.1,1.1-0.5c0.1-0.2,0.2-0.3,0.3-0.5c0.1-0.1,0.1-0.3,0.3-0.2
		c0.2,0,0.2,0.2,0.2,0.3c0.1,0.3,0.2,0.5,0.4,0.8c0.4,0.5,0.8,0.5,1.4,0.5c0.4,0,0.4,0,0.3,0.4c0,0.2,0,0.4,0,0.5
		c0,0.2-0.1,0.4-0.1,0.5c-0.2,0.8-0.2,1.6,0.3,2.4l0,0c0.1,0.1,0.2,0.2,0.2,0.3c-0.1,0.1-0.2,0.2-0.4,0.2c-0.3,0-0.5,0.1-0.7,0.2
		c-0.3,0.1-0.5,0.4-0.5,0.6c-0.1,0.5-0.1,0.9,0.2,1.4c0.3,0.5,0.7,0.8,1.4,0.9c0,0,0.1,0,0.1,0.1c-0.1,0.1-0.2,0.1-0.3,0.2
		c-0.5,0.5-1,0.9-1.4,1.4c-0.4,0.5-0.7,0.9-0.9,1.5c-0.2,0.5-0.5,1-0.5,1.5s-0.3,1-0.4,1.5C186.9,59.2,186.7,59.7,186.7,60.2z"/>
	<path d="M176.5,54.3c-0.2,0-0.3,0-0.3-0.2c0-0.1,0-0.2,0-0.3c0-0.8-0.1-1.6-0.2-2.4c-0.1-1.1-0.3-2.1-0.5-3.1c-0.1-0.5,0-1-0.1-1.5
		c0-0.2,0.1-0.3,0.3-0.4c0.4-0.3,0.8-0.4,1.3-0.5c1.1-0.5,2.2-0.8,3.3-1.3c1-0.5,2.1-0.8,3.1-1.3c0.5-0.2,0.8-0.4,1.2-0.6l0.1-0.1
		c0.1,0,0.1-0.1,0.2,0c0.1,0.1,0,0.1,0,0.2c-0.1,0.3-0.2,0.5-0.1,0.8c0.1,0.5,0,1.1-0.1,1.7c-0.2,1-0.5,2-0.5,3
		c-0.1,0.7-0.4,1.5-0.5,2.1c-0.2,0.7-0.3,1.5-0.5,2.3c-0.1,0.3-0.2,0.5-0.2,0.8c0,0.2-0.1,0.2-0.3,0.2c-0.8,0.1-1.6,0.2-2.4,0.3
		c-0.6,0.1-1.3,0.2-2,0.2C177.8,54.2,177.1,54.2,176.5,54.3z"/>
	<path d="M179.9,75.6c-0.7,0-1.5-0.2-1.9-0.7c-0.4-0.4-0.5-0.7-0.6-1.2c-0.2-0.6-0.5-1.2-0.7-1.8c-0.3-0.8-0.6-1.5-0.8-2.4
		c-0.1-0.6-0.4-1.2-0.5-1.7c-0.1-0.4-0.2-0.7-0.2-1.1c-0.1-0.6-0.2-1.3-0.4-1.8c-0.1-0.5-0.3-1-0.4-1.5c-0.1-0.4-0.2-0.8-0.3-1.2
		c-0.1-0.4-0.1-0.7-0.2-1.1c-0.1-0.3,0-0.5,0-0.7c0.1-0.4,0.2-0.6,0.3-1c0.3-1.2,0.8-2.2,2-2.6c0.4-0.2,0.7-0.3,1.2-0.3
		c0.2,0,0.4,0.1,0.4,0.3c0.4,0.8,0.7,1.6,1,2.5c0.1,0.2,0.1,0.4,0.2,0.5c0.1,0.2,0,0.4-0.2,0.5c-0.4,0.2-0.6,0.5-0.8,0.8
		c-0.2,0.3-0.2,0.5-0.2,0.9c0.2,0.7,0.3,1.5,0.5,2.2c0.1,0.5,0.3,0.8,0.4,1.3c0.2,0.6,0.4,1.4,0.5,2c0.4,1,0.6,2,0.9,3
		c0.2,0.5,0.4,1,0.5,1.5c0.1,0.5,0.3,1.1,0.5,1.6c0.1,0.5,0.2,0.9,0.1,1.4c-0.1,0.5-0.5,0.9-1.1,0.9C180,75.6,180,75.6,179.9,75.6z"
		/>
	<path d="M164,55c-0.9,0.5-1.9,0.3-2.9,0.4c-0.2,0-0.3,0-0.5,0.1c-0.6,0.2-1.4,0.2-2,0.3c-0.5,0.1-1.1,0.2-1.5,0.4
		c-0.3,0.1-0.6,0.3-0.9,0.4c-0.4,0.2-0.5,0.5-0.3,0.9c0.3,0.6,0.7,1.1,1.1,1.7c0.5,0.8,1,1.7,1.5,2.5c0.3,0.5,0.6,0.8,0.8,1.4
		c0.2,0.5,0.5,0.8,0.6,1.3c0.4,0.5,0.7,1.2,1,1.7c0.2,0.3,0.3,0.5,0.4,0.8c0.4,1-0.3,2.4-1.5,2.5c-0.6,0.1-1.2-0.1-1.6-0.5
		c-0.4-0.4-0.8-0.7-1.1-1.2c-0.4-0.5-0.5-1-0.8-1.5c-0.5-0.8-0.9-1.6-1.4-2.5c-0.6-0.9-1.2-1.9-1.7-2.9c-0.4-0.7-0.6-1.4-1-2.1
		c-0.2-0.3-0.2-0.6-0.2-1c0-0.2,0-0.3,0-0.5c-0.1-0.7,0.2-1.4,0.7-1.8c0.5-0.5,1.2-0.8,1.9-0.8c1.1,0,2.2,0,3.2,0c1,0.1,2,0,2.9,0.2
		c1,0.1,2.1,0.1,3.1,0.4C164,54.9,164,54.9,164,55z"/>
	<path d="M139.9,55.4c0.3,0,0.6,0,0.9,0c0.3,0.1,0.4,0.2,0.2,0.4c-0.1,0.2-0.3,0.4-0.5,0.5c-0.1,0.2-0.2,0.3-0.2,0.5
		c-0.2,0.7-0.2,1.4-0.3,2.1c-0.2,1.2,0.1,2.3,0.3,3.5c0.1,0.6,0.2,1.4,0.4,2c0.1,0.3,0.2,0.6,0.2,0.9c0.1,1.4,0.5,2.6,0.7,4
		c0.1,0.6,0.3,1.3,0.4,1.9c0.2,0.9,0.4,1.7,0.6,2.5c0.1,0.3,0.1,0.6,0.2,1c0,0.2-0.1,0.4-0.3,0.5c-0.5,0.3-1,0.5-1.5,0.4
		c-0.6-0.1-1.2-0.4-1.5-0.9s-0.5-1.3-0.6-1.9c0-0.2,0-0.4-0.1-0.5c-0.2-0.5-0.2-1-0.3-1.5c-0.2-0.7-0.3-1.5-0.5-2.3
		c-0.2-1.1-0.3-2.2-0.5-3.3c-0.3-1.3-0.4-2.5-0.6-3.7c-0.2-1.2-0.2-2.4-0.2-3.5c0-0.9,0.5-1.6,1.2-2.1c0.4-0.3,0.9-0.5,1.4-0.5
		C139.4,55.3,139.7,55.4,139.9,55.4z"/>
	<path d="M156.9,37.1c0,0.4,0,0.7-0.1,1.2c-0.1,0.5-0.4,0.9-0.7,1.3c-0.5,0.5-1,0.8-1.5,1c-1.1,0.5-2.3,0.4-3.4-0.1
		c-0.5-0.3-1.1-0.5-1.5-0.8c-0.5-0.3-0.7-0.7-0.9-1.2c-0.3-0.5-0.3-1.1-0.4-1.6c-0.1-0.9,0.1-1.7,0.4-2.5c0.2-0.6,0.5-1.2,0.8-1.6
		c0.2-0.3,0.5-0.4,0.8-0.3c0.8,0.2,1.5,0.2,2.4,0c0.4-0.1,0.7,0,1.1,0.2c1.5,0.5,2.5,1.6,2.9,3.2C156.9,36,156.9,36.4,156.9,37.1z
		 M151.7,37.5c0.2,0,0.4,0,0.4-0.2c0-0.2-0.2-0.3-0.4-0.3c-0.1,0-0.2,0-0.4-0.1c-0.2,0-0.3-0.1-0.5-0.1c-0.1,0-0.2-0.1-0.2-0.2
		c0-0.2,0-0.5,0.1-0.6c0.2-0.4,0.4-0.7,0.5-1.1c0-0.1,0.1-0.2,0-0.2c-0.1-0.1-0.2,0-0.2,0l-0.1,0.1c-0.4,0.5-0.6,0.9-0.8,1.5
		c0,0.1-0.1,0.3-0.1,0.4c0,0.3,0.2,0.5,0.5,0.6C151,37.4,151.3,37.4,151.7,37.5z"/>
	<path d="M166.9,37.8c0.1-1.3,0.5-2.5,1.5-3.4c0.5-0.5,1.1-0.8,1.7-0.9c0.7-0.2,1.5-0.1,2.3,0.1c0.4,0.1,0.7,0.3,1,0.4
		c0.6,0.3,1.1,0.8,1.3,1.5c0.2,0.7,0.5,1.5,0.6,2.2c0.1,0.4,0.2,0.8,0.3,1.2c0,0.1,0,0.3,0,0.4c-0.3,0.6-0.5,1.2-1.1,1.5
		c-0.5,0.5-1.1,0.7-1.7,1.1c-0.7,0.4-1.5,0.4-2.4,0.1c-1-0.3-1.9-0.7-2.5-1.6c-0.4-0.5-0.6-1.1-0.8-1.8
		C167,38.3,166.9,38.1,166.9,37.8z M169,38.1c0,0.1,0,0.2,0,0.3c0,0.5,0.4,0.7,0.8,0.5c0.1,0,0.2-0.1,0.2-0.2c0-0.2-0.1-0.2-0.2-0.3
		c0,0-0.1,0-0.1-0.1c-0.2-0.1-0.3-0.3-0.3-0.5c0.1-0.4,0.1-0.7,0.4-1c0-0.1,0.1-0.1,0.1-0.2s0-0.2-0.1-0.3c-0.1-0.1-0.2,0-0.3,0
		c-0.1,0.1-0.3,0.2-0.3,0.4C169,37.3,169,37.8,169,38.1z"/>
	<path d="M183.7,37.3c0-0.9,0.1-1.8,0.5-2.6c0.5-0.9,1.2-1.5,2.3-1.5c0.3,0,0.5,0,0.8-0.1c0.2-0.1,0.5,0,0.6,0c0.5,0.1,1.2,0,1.7,0
		c0.3,0,0.4,0.1,0.5,0.4c0.1,0.4,0.1,0.6,0.3,1c0.1,0.5,0.4,0.7,0.6,1c0.2,0.2,0.2,0.3,0.1,0.5c-0.3,0.5-0.5,0.9-0.6,1.5
		c-0.2,0.6-0.1,1.2,0.3,1.7c0.3,0.4,0.3,0.7,0,1.1c-0.3,0.4-0.5,0.7-0.5,1.1c-0.2,0.5-0.5,0.6-1,0.7c-0.6,0.1-1.2,0.1-1.8,0
		c-0.4,0-0.7-0.2-1.1-0.4c-0.8-0.4-1.5-0.9-2-1.6c-0.2-0.3-0.3-0.5-0.4-0.8C183.8,38.7,183.7,38.1,183.7,37.3z M185.8,37.6
		c0,0.4,0.4,0.7,0.7,0.6c0.2,0,0.3-0.1,0.3-0.2c0-0.2-0.1-0.2-0.2-0.2c-0.4-0.2-0.4-0.3-0.2-0.6s0.4-0.8,0.6-1.2
		c0.1-0.1,0.1-0.2,0-0.3c-0.1-0.1-0.2,0-0.3,0.1c-0.1,0-0.1,0.1-0.1,0.2c-0.2,0.4-0.4,0.7-0.5,1.1C186,37.1,185.8,37.3,185.8,37.6z"
		/>
	<path d="M176.5,35.2c0.3,0,0.5,0.1,0.7,0.2s0.4,0.2,0.5,0.2c0.6,0,1.3,0.3,1.9,0.5c0.4,0.1,0.7,0.2,1,0.3c0.4,0.1,0.7,0.2,1.1,0.3
		c0.1,0,0.2,0.1,0.2,0.2c0.3,0.4,0.5,0.6,0.9,0.8c0.3,0.2,0.2,0.5,0.3,0.7c0.1,0.6,0.2,1.4,0.6,1.9c0.3,0.4,0.6,0.6,0.9,1
		c0.3,0.3,0.3,0.3,0,0.5c-0.5,0.5-1.2,0.8-1.9,1.1c-0.6,0.3-1.2,0.5-1.8,0.8c-0.6,0.2-1.2,0.5-1.8,0.7s-1.2,0.5-1.7,0.6
		c-0.6,0.2-1.2,0.5-1.8,0.7c-0.2,0.1-0.2,0-0.3-0.1c-0.1-0.3-0.2-0.6-0.2-1c0-0.7-0.2-1.4-0.3-2c-0.1-0.5,0-0.6,0.4-0.7
		c0.7-0.3,1.5-0.5,2.1-0.7c0.6-0.3,1.3-0.5,1.9-0.7c0.4-0.2,0.7-0.2,1-0.4c0.1-0.1,0.3-0.1,0.3-0.3s-0.1-0.3-0.3-0.4
		c-0.3-0.1-0.5-0.3-0.8-0.3c-0.6-0.2-1.3-0.3-1.9-0.5c-0.4-0.1-0.6-0.2-1-0.3c-0.2-0.1-0.3-0.3-0.3-0.5c0-0.3,0-0.5,0-0.7
		c0-0.4,0-0.7-0.1-1.1c-0.1-0.3,0-0.5,0-0.7C176.3,35.2,176.4,35.2,176.5,35.2z"/>
	<path d="M176,75.4c-0.8-0.1-1.5-0.4-1.8-1.1c-0.2-0.5-0.3-0.9-0.5-1.3c-0.4-0.9-0.6-1.9-1-2.8c-0.2-0.5-0.3-1.2-0.4-1.8
		c-0.3-1-0.5-2-0.9-2.9c-0.3-0.6-0.4-1.3-0.5-1.9c-0.1-0.7-0.3-1.5-0.4-2.2c0-0.3,0-0.5,0-0.7c0.1-0.3,0-0.6,0.1-0.9
		c0.2-0.7,0.5-1.4,1.1-1.9c0.5-0.4,1.1-0.6,1.7-0.8c0.2-0.1,0.5-0.2,0.6-0.2s0.3,0.1,0.2,0.3c0,0.1-0.1,0.2-0.2,0.3
		c-0.4,0.5-0.5,1.2-0.7,1.8s-0.2,1.2-0.2,1.8c0,0.5,0.1,0.8,0.2,1.3c0.1,0.5,0.2,1.1,0.3,1.5c0.1,0.6,0.3,1.3,0.4,2
		c0.1,0.6,0.2,1.3,0.4,1.9c0.1,0.5,0.2,0.8,0.4,1.2c0.2,0.5,0.3,1.1,0.5,1.6c0.5,1.4,0.9,2.7,1.5,4c0.1,0.2,0.1,0.4-0.2,0.5
		C176.7,75.3,176.4,75.4,176,75.4z"/>
	<path d="M150.2,75.1c-0.9,0-1.7-1-1.5-1.8c0.2-1,0.5-1.9,0.9-2.8c0.2-0.5,0.5-1.2,0.6-1.7c0.5-1.2,1-2.4,1.5-3.5
		c0.5-0.9,0.9-1.8,1.3-2.7c0.1-0.3,0.3-0.4,0.5-0.1c0.3,0.4,0.5,0.6,0.6,1c0.5,0.7,0.9,1.5,1.4,2.4c0.3,0.5,0.2,1-0.1,1.5
		c-0.5,0.9-0.9,1.8-1.4,2.7c-0.3,0.6-0.6,1.3-0.9,1.9c-0.5,0.9-1,1.8-1.6,2.6C151,74.8,150.7,75.1,150.2,75.1z"/>
	<path d="M166.5,34.7c0.2,0,0.3,0.2,0.3,0.3c-0.2,0.5-0.1,1-0.1,1.5c0,0.3-0.1,0.5-0.1,0.7c-0.1,0.2-0.2,0.4-0.5,0.5
		c-0.5,0.2-0.8,0.4-1.3,0.5c-0.3,0.1-0.5,0.3-0.8,0.4c-0.3,0.2-0.3,0.6-0.1,0.8c0.5,0.5,0.9,0.9,1.5,1.3c0.5,0.5,1,0.9,1.6,1.3
		c0.2,0.2,0.2,0.4,0.1,0.5c-0.4,0.9-0.7,1.9-1,2.9c-0.1,0.3-0.2,0.3-0.4,0.1c-0.5-0.5-1-0.9-1.5-1.4c-1.3-1.1-2.5-2.3-3.6-3.5
		c-0.3-0.3-0.5-0.6-0.8-0.9c-0.3-0.5-0.2-0.8-0.2-1.3c0.1-0.8,0.6-1.4,1.4-1.7c0.9-0.5,1.8-0.8,2.7-1.3c0.7-0.3,1.5-0.5,2.2-0.8
		C166,34.8,166.3,34.8,166.5,34.7z"/>
	<path d="M157.4,37c0.1-0.7,0-1.5-0.3-2.2c-0.1-0.3-0.2-0.5-0.4-0.7c-0.3-0.4-0.5-0.8-0.8-1.1c-0.6-0.5-1.3-0.9-2.1-1.2
		c-0.6-0.2-1.1,0-1.6,0.1c-0.5,0-1.1,0.1-1.6-0.2c-0.2-0.1-0.3-0.2-0.4-0.4c-0.4-0.6-0.5-1.3-0.3-2c0.1-0.5,0.4-0.7,0.6-1.1
		c0.1-0.2,0.3-0.3,0.5-0.3c0.4-0.1,0.5,0,0.6,0.4c0,0.2,0,0.4,0.1,0.5c0,0.2,0,0.4,0.2,0.5c0.2,0.1,0.4,0,0.5-0.2
		c0.2-0.1,0.3-0.3,0.5-0.4c0.3-0.2,0.5-0.1,0.7-0.1c0.2,0,0.3,0.2,0.3,0.4c0.2,0.5,0.3,0.7,0.8,0.7c0.8,0,1.4,0.5,1.8,1.1
		c0.3,0.5,0.7,0.8,1,1.3c0.5,0.7,0.9,1.5,1,2.4c0,0.3,0,0.5,0.1,0.8c0,0.1,0,0.2,0,0.3c-0.1,0.9-0.4,1.7-1,2.4
		c-0.1,0.1-0.1,0.2-0.2,0.2c-0.1,0-0.1-0.2-0.1-0.3C157.4,37.5,157.4,37.2,157.4,37z"/>
	<path d="M178.9,64.3c-0.1-0.1-0.1-0.2-0.1-0.3c0-0.4-0.1-0.8-0.2-1.2c-0.1-0.4-0.2-0.7-0.2-1.1c0-0.5,0.3-0.7,0.6-1
		c0.3-0.2,0.5-0.2,0.9-0.2c0.6,0,1.2,0.2,1.8,0.1c1.4-0.1,2.8,0,4.2-0.1c0.3,0,0.5-0.1,0.7,0.1c0.1,0.5-0.1,1-0.1,1.5
		s-0.1,0.9-0.4,1.3c-0.1,0.2-0.3,0.5-0.5,0.5c-1.2,0-2.4,0-3.5,0.1c-0.9,0.1-1.9,0-2.8,0C179,64,178.9,64,178.9,64.3z"/>
	<path d="M151.5,64.3c0.1,0.1,0,0.2,0,0.3c-0.4,0.6-0.6,1.4-0.9,2.1c-0.4,0.7-0.6,1.5-0.9,2.3c-0.3,0.7-0.5,1.5-0.8,2.2
		c-0.1,0.1,0,0.3-0.1,0.5c-0.1-0.1-0.2-0.1-0.3-0.1c-0.4,0-0.7,0-1,0c0-0.5-0.2-1-0.3-1.5c-0.1-0.5-0.2-0.9-0.3-1.3
		c-0.1-0.5-0.3-1.2-0.4-1.7c-0.1-0.7-0.3-1.4-0.4-2.1v-0.1c0.1-0.1,0.2-0.1,0.4-0.1c1.2,0,2.4,0,3.5,0
		C150.6,64.5,151,64.6,151.5,64.3z"/>
	<path d="M175.7,35.3c0,0.5,0,0.9,0,1.3c0,0.1,0,0.2-0.1,0.2s-0.1-0.1-0.1-0.2c-0.2-0.5-0.3-0.9-0.5-1.4c-0.2-0.5-0.5-0.9-1-1.3
		c-0.9-0.7-1.9-1-3-0.9c-0.4,0-0.6,0-1,0c-0.5,0.1-1.1,0.4-1.5,0.7c-0.4,0.3-0.7,0.5-1.1,0.9c-0.1,0.1-0.1,0.1-0.2,0.1
		c-0.1,0-0.1-0.1-0.1-0.2c0-0.2,0.1-0.5,0.2-0.6c0.2-0.4,0.3-0.7,0.4-1.1c0.1-0.3,0.2-0.5,0.3-0.8c0.1-0.2,0.2-0.2,0.4,0
		c0.3,0.3,0.5,0.3,0.7-0.2c0.2-0.5,0.5-0.8,0.6-1.2c0.1-0.1,0.2-0.2,0.3-0.2c0.2,0,0.2,0.2,0.2,0.3c0,0.1,0.1,0.2,0.2,0.3
		c0.2,0.1,0.3,0.1,0.5,0c0.1-0.1,0.2-0.2,0.3-0.3c0.1-0.1,0.2-0.2,0.3-0.3c0.2-0.1,0.3-0.1,0.5,0.1c0.1,0.1,0.1,0.2,0.2,0.3
		c0.2,0.4,0.4,0.4,0.7,0.2c0.1,0,0.2-0.1,0.2-0.1c0.5-0.2,0.7-0.1,0.8,0.5c0.1,0.5,0.2,0.6,0.7,0.6c0.1,0,0.3,0,0.3,0.1
		c0.2,0.3,0.4,0.5,0.5,0.6c0.2,0.2,0.1,0.5,0.1,0.6c0.1,0.4,0.2,0.6,0.2,1C175.7,34.6,175.7,35,175.7,35.3z"/>
	<path d="M146.1,64c-0.1-0.3-0.1-0.5-0.1-0.7c-0.1-0.5-0.2-1-0.2-1.5c0-0.4-0.1-0.6-0.1-1c0.2-0.1,0.5-0.1,0.6,0
		c0.2,0.1,0.5,0.1,0.6,0.1c1-0.1,1.9,0.1,2.9,0.1c0.5,0,0.9,0.3,1,0.8c0.1,0.5,0.1,1.2,0.1,1.7c-0.1,0.5-0.3,0.7-0.8,0.6h-0.1
		c-0.4-0.1-0.7-0.1-1.1-0.1C148.1,63.9,147.1,64,146.1,64z"/>
	<path d="M144.7,54.6c-0.6,0-1.3,0.1-1.8,0.1c-0.3,0-0.5,0.1-0.7,0.2c-0.4,0.1-0.7,0.1-1.1,0c-0.3,0-0.5,0-0.8-0.1
		c-0.4-0.1-1-0.6-1-1c0-0.4,0.2-0.6,0.5-0.9c0.6-0.5,1.4-0.6,2.2-0.5c1.2,0.1,2.4,0.3,3.5,0.5c0.1,0,0.3,0,0.4,0
		c0.2,0,0.3,0.1,0.2,0.3c-0.1,0.4-0.1,0.7-0.1,1.1s-0.1,0.5-0.5,0.5C145.1,54.7,144.9,54.7,144.7,54.6
		C144.7,54.7,144.7,54.6,144.7,54.6z"/>
	<path d="M194.7,51.2c0,0.4,0.1,0.6-0.2,0.9c-0.1,0.1-0.2,0.2-0.4,0.2c-0.4,0-0.6,0-1-0.1c-0.2-0.1-0.4,0-0.6,0
		c-0.6,0-1.3,0.1-1.9-0.1c-0.5-0.1-1.1-0.3-1.5-0.8c-0.2-0.4-0.2-0.7-0.1-1.1c0.1-0.3,0.4-0.4,0.5-0.4c0.5-0.2,1-0.3,1.5-0.3
		c0.7,0,1.5,0,2.2,0c0.5,0,0.6,0.2,0.9,0.5C194.6,50.4,194.7,50.8,194.7,51.2z"/>
	<path d="M195.4,52.2c-0.4,0-0.4,0-0.3-0.4c0.1-0.6,0.1-1.3-0.2-1.8c-0.2-0.4-0.2-0.5,0.3-0.5c0.5,0,1,0,1.5,0.1
		c0.3,0.1,0.6,0.1,1,0.2c0.5,0.2,0.9,0.9,0.9,1.3c0,0.3-0.2,0.5-0.5,0.5c-0.5,0.3-1,0.5-1.5,0.5C196.1,52.2,195.8,52.2,195.4,52.2z"
		/>
	<path d="M175.6,55.6c0-0.2,0.1-0.4,0.3-0.5c0.6-0.5,1.3-0.5,2-0.6c0.6-0.1,1.4-0.1,2-0.2c0.4-0.1,0.5,0,0.7,0.3s0.4,0.5,0.5,0.7
		c0.1,0.2,0,0.2-0.2,0.3c-0.5,0.1-1.1,0.1-1.6,0.1c-1.1,0.1-2.2,0.2-3.3,0.5c-0.4,0.1-0.5,0-0.5-0.4
		C175.6,55.8,175.6,55.7,175.6,55.6z"/>
	<path d="M168.6,45.2c0.1-0.9,0.1-1.9,0.5-2.8c0.1-0.3,0.2-0.4,0.5-0.3c0.5,0.3,1.2,0.3,1.7,0.4c0.3,0.1,0.4,0.2,0.2,0.5
		c-0.4,0.5-0.8,1-1.2,1.5c-0.4,0.5-0.6,0.9-1,1.3c-0.1,0.1-0.1,0.1-0.2,0.2c-0.2,0.1-0.3,0-0.4-0.2S168.6,45.4,168.6,45.2z"/>
	<path d="M136.8,63.9c-0.4-0.1-0.6-0.2-1-0.4c-0.4-0.3-0.6-0.5-0.6-1.1c0-0.4,0-0.8,0-1.2c0-0.2,0.1-0.4,0.2-0.4
		c0.3-0.2,0.5-0.3,0.8-0.4c0,0.5,0.2,0.8,0.2,1.3c0.1,0.5,0.1,1.2,0.2,1.8C136.7,63.7,136.8,63.8,136.8,63.9z"/>
	<path d="M189.5,44.5c-0.4,0-0.6-0.1-0.8-0.4c-0.3-0.4-0.4-0.7-0.4-1.1c0-0.2,0.1-0.3,0.3-0.3c0.2-0.1,0.5-0.1,0.6-0.1
		c0.2,0,0.3,0,0.5-0.1s0.3,0,0.3,0.2c0.1,0.5,0.1,1,0.3,1.5c0.1,0.1-0.2,0.4-0.4,0.4C189.7,44.5,189.6,44.5,189.5,44.5z"/>
	<path d="M179.2,40.1L179.2,40.1H179c-0.5,0.2-1.2,0.4-1.7,0.4c-0.5,0-1.1,0.1-1.5,0l0,0c-0.1,0-0.2,0-0.2-0.1
		c-0.1,0.3-0.3,0.5-0.5,0.5c-0.1,0.1-0.2,0.2-0.2,0.3c-0.1,0.1-0.1,0.3,0,0.5c0.1,0.1,0.1,0.1,0.2,0.1c0.5-0.2,1.1-0.3,1.5-0.5
		c0.4-0.2,0.7-0.3,1.1-0.4C178.1,40.4,178.7,40.2,179.2,40.1L179.2,40.1z"/>
	<path d="M185.2,43.2c0-0.4,0.2-0.6,0.4-0.9c0.1-0.1,0.2-0.2,0.4-0.1c0.4,0.2,0.7,0.4,1.2,0.5c0.2,0.1,0.2,0.3,0.1,0.4
		c-0.1,0.3-0.3,0.5-0.5,0.9c-0.1,0.2-0.4,0.3-0.6,0.2c-0.3-0.1-0.6-0.3-0.8-0.5C185.3,43.4,185.2,43.2,185.2,43.2z"/>
	<path d="M151.9,63.6c-0.2-0.1-0.3-0.4-0.3-0.5c0.1-0.3,0-0.5-0.1-0.8c-0.1-0.7,0.3-1.4,0.9-1.5c0.2,0.2,0.3,0.4,0.3,0.5
		c0,0.1,0,0.3-0.1,0.4c-0.3,0.5-0.5,1-0.6,1.5C152,63.3,151.9,63.5,151.9,63.6z"/>
	<path d="M182.3,54c0.1,0,0.2,0,0.3,0c0.3,0,0.4,0.1,0.3,0.4c-0.1,0.3-0.1,0.5-0.2,0.7c0,0.2-0.1,0.3-0.3,0.3s-0.4,0-0.5,0
		s-0.3-0.1-0.3-0.2c-0.1-0.3-0.2-0.5-0.4-0.8c-0.1-0.2,0-0.3,0.1-0.3C181.7,54.1,182,54,182.3,54z"/>
	<path d="M165.7,40.2c0.5-0.1,0.9,0,1.4-0.1c0.3,0.3,0.5,0.5,0.6,0.8c0.1,0.2,0,0.5-0.2,0.5s-0.4,0-0.5-0.1
		C166.6,41.1,166.2,40.7,165.7,40.2C165.7,40.4,165.6,40.3,165.7,40.2z"/>
	<path d="M151.8,60.4c-0.4,0.4-0.5,0.4-0.9,0C151.1,60.4,151.5,60.4,151.8,60.4z"/>
	<path d="M148.5,71.9C148.5,71.8,148.5,71.8,148.5,71.9C148.6,71.9,148.6,71.9,148.5,71.9z"/>
	<path d="M126.8,51.9c-0.1-0.9,0.1-1.9,0.3-3c0.1-0.5,0-1.1,0.1-1.6c0-0.1,0-0.3-0.2-0.3c-0.2,0-0.2,0.1-0.2,0.2
		c-0.1,0.3-0.1,0.6-0.2,1c-0.1,1.3-0.3,2.5-0.2,3.8c0,0.5,0,1.1-0.1,1.6c-0.1,0.4-0.3,0.5-0.5,0.5c-0.5,0-0.7-0.1-0.8-0.5
		c-0.1-0.3-0.1-0.6-0.1-1c0-0.6-0.1-1.2-0.2-1.8c0-0.5,0-0.8,0-1.3c0-0.5,0-0.8,0.1-1.3c0-0.7,0.2-1.5,0.4-2.1c0.4-1,0.5-2.1,1-3.1
		c0.1-0.3,0-0.5-0.2-0.7c-0.7-0.7-1-1.7-1-2.7c0-0.9,0.2-1.7,0.6-2.5c0.3-0.5,0.3-0.9,0.1-1.4c-0.1-0.2-0.1-0.3-0.1-0.5
		s0.1-0.2,0.2-0.2c0.1,0,0.2,0,0.3,0.1c0.4,0.2,0.8,0.3,1.2,0.3c0.7,0,1.5,0,2.3-0.2c0.3-0.1,0.5,0,0.7,0.1c0.4,0.1,0.8,0.1,1.2,0.2
		c0.2,0,0.4-0.1,0.5-0.2c0.4-0.2,0.7-0.5,1.2-0.5c0.3-0.1,0.4-0.1,0.4,0.3c0,0.5,0.1,1.2-0.1,1.7c-0.1,0.5,0,0.8,0.1,1.2
		c0.2,0.5,0.3,1.1,0.3,1.6c0,0.8,0,1.6,0,2.5c0,0.5,0.2,1.1,0.4,1.5c0.3,0.8,0.5,1.7,0.5,2.6c0,0.4,0.2,0.6,0.3,0.9
		c0.5,1,0.6,2,0.6,3.1c0,0.8,0,1.6-0.2,2.4c-0.1,0.3-0.2,0.5-0.4,0.8c-0.1,0.2-0.4,0.3-0.5,0.3c-0.9,0-1.7,0.2-2.6,0.2
		c-0.3,0-0.5-0.1-0.6-0.3c-0.2-0.3-0.2-0.5,0.2-0.8c0.3-0.2,0.5-0.3,0.9-0.3c0.1,0,0.3,0,0.4,0c0.1,0,0.2,0,0.2-0.2
		c0-0.1-0.1-0.2-0.2-0.2c-0.1,0-0.1,0-0.2,0c-0.2,0-0.4,0-0.5,0c-0.4,0-0.7-0.3-0.7-0.6c-0.2-1-0.2-2.1,0.2-3
		c0.3-0.6,0.6-1.3,1.4-1.5c0.1-0.1,0.3-0.2,0.2-0.4c-0.1-0.2-0.3-0.2-0.4-0.2c-0.3,0.1-0.5,0.2-0.5,0.4c-0.2,0.2-0.5,0.5-0.6,0.6
		c-0.1,0.1-0.1,0.2-0.2,0.1c-0.1-0.1-0.1-0.2-0.1-0.3c0-0.1,0-0.3,0.1-0.4c0-0.2,0-0.3-0.2-0.3s-0.2,0.2-0.3,0.3
		c0,0.2,0,0.5-0.1,0.6c-0.2,0.7-0.1,1.5,0,2.3c0,0.3,0,0.5,0,0.8c-0.1,0.6-0.1,1.3-0.1,2c0,0.3,0,0.5-0.1,0.7
		c-0.3,0.5-0.5,0.7-1.1,0.6c-0.2,0-0.3-0.2-0.4-0.4c-0.2-0.4-0.3-0.8-0.4-1.3c-0.2-0.9-0.1-1.8,0-2.7c0.1-0.5,0-1.1,0-1.6
		c0-0.3-0.1-0.5-0.1-0.7c0-0.2-0.1-0.3-0.3-0.3s-0.2,0.2-0.2,0.3c0.1,0.7,0,1.5,0.1,2.2c0,0.3,0,0.5-0.1,0.7c-0.1,0.7-0.1,1.5,0,2.3
		c0,0.3,0.1,0.5,0.1,0.7c0,0.2-0.1,0.3-0.3,0.4c-0.3,0-0.5,0-0.9,0c-0.2,0-0.3-0.1-0.3-0.3C126.8,52.9,126.8,52.4,126.8,51.9z
		 M127.1,39.8c0.1,0.5,0.4,0.9,0.8,1.2c0.2,0.1,0.3,0.1,0.5,0c0.3-0.2,0.5-0.5,0.7-0.7c0.3-0.5,0.1-0.8-0.5-0.9
		c-0.5-0.1-0.8,0-1.3,0C127.2,39.3,127.1,39.5,127.1,39.8z"/>
	<path d="M122.7,61.3c-0.5,0-1-0.4-1.2-0.8c-0.1-0.3,0-0.6,0.1-0.9c0.3-0.5,0.4-1.1,0.4-1.6c0.1-0.9,0.1-1.7,0.4-2.6
		c0.1-0.5,0.3-0.9,0.5-1.4c0.1-0.1,0.1-0.2,0.3-0.1c0.3,0.2,0.6,0.2,0.9,0.2c0.4,0,0.6,0.3,0.9,0.5c0.1,0.1,0,0.1,0,0.2
		c-0.5,0.7-0.6,1.6-0.6,2.5s0,1.7-0.1,2.5c-0.1,0.5-0.4,1.1-0.9,1.4c-0.1,0.1-0.2,0.1-0.3,0.2C122.8,61.3,122.8,61.3,122.7,61.3z"/>
	<path d="M124.3,53c0.1,0.7-0.2,0.7-0.7,0.5c-0.4-0.1-0.4-0.4-0.2-0.6c0.2-0.3,0.4-0.4,0.6-0.5c0.2-0.1,0.3,0,0.3,0.3
		C124.3,52.8,124.3,52.9,124.3,53z"/>
	<path d="M126.8,58.1c-0.1-0.8,0.6-1.5,1.4-1.7c0.5-0.2,0.8-0.2,1.2-0.1c0.3,0.1,0.5,0.2,0.8,0.4c0.6,0.7,0.6,2.1-0.1,2.7
		c-0.5,0.4-1.1,0.5-1.7,0.5c-0.4-0.1-0.7-0.2-1-0.4c-0.3-0.2-0.5-0.5-0.5-0.8C126.8,58.5,126.8,58.2,126.8,58.1z M130.1,57.8
		c0-0.7-0.5-1.1-1.3-1.2c-0.8,0-1.4,0.5-1.5,1.2c-0.1,0.7,0.5,1.3,1.3,1.3C129.5,59.2,130,58.6,130.1,57.8z"/>
	<path d="M193.5,58.5c-0.6,0.1-1.1-0.2-1.5-0.6c-0.5-0.5-0.5-1.2-0.4-1.8c0.1-0.4,0.5-0.6,0.8-0.8c1.1-0.6,2.6,0.1,3,1.2
		c0.3,0.7,0,1.5-0.6,1.9C194.3,58.5,193.9,58.5,193.5,58.5z M193.1,55.5c-0.2,0-0.4,0.1-0.5,0.1c-0.6,0.3-0.8,0.5-0.7,1.3
		c0.2,0.6,0.9,1.3,1.9,1c0.7-0.2,1.2-1.2,0.5-1.9C194.1,55.6,193.6,55.5,193.1,55.5z"/>
	<path d="M128.2,39.7c0.1,0,0.2,0,0.4,0.1c0.2,0,0.3,0.2,0.2,0.4c-0.1,0.2-0.3,0.3-0.5,0.5c-0.1,0.1-0.3,0-0.4-0.1
		c0,0,0-0.1-0.1-0.1c-0.1-0.2-0.3-0.3-0.2-0.5C127.8,39.7,127.9,39.7,128.2,39.7z"/>
	<path d="M129.6,57.7c0,0.5-0.4,0.9-0.8,0.9c-0.5,0-0.8-0.4-0.8-0.7c0-0.5,0.4-0.8,0.8-0.8C129.3,57.2,129.6,57.3,129.6,57.7z"/>
	<path d="M193.3,57.5c-0.4,0-0.7-0.2-0.9-0.6c-0.1-0.3-0.1-0.5,0.1-0.6c0.5-0.6,1.4-0.3,1.6,0.3c0.1,0.2,0,0.4-0.1,0.5
		C194,57.3,193.7,57.5,193.3,57.5z"/>
</g>
</svg>
