<?xml version="1.0" encoding="utf-8"?>
<!-- Generator: Adobe Illustrator 18.1.1, SVG Export Plug-In . SVG Version: 6.00 Build 0)  -->
<!DOCTYPE svg PUBLIC "-//W3C//DTD SVG 1.0//EN" "http://www.w3.org/TR/2001/REC-SVG-20010904/DTD/svg10.dtd">
<svg version="1.0" id="Layer_1" xmlns="http://www.w3.org/2000/svg" xmlns:xlink="http://www.w3.org/1999/xlink" x="0px" y="0px"
	 viewBox="0 0 81.7 64" enable-background="new 0 0 81.7 64" xml:space="preserve">
<path d="M40.9,64c-4.4,0-8.8,0-13.3-0.1c-0.6,0-1.3-0.1-1.9-0.3c-2.1-0.6-4.2-1.4-6.3-2c-5-1.4-9.2-4.3-12.8-8.2
	c-0.2-0.2-0.5-0.5-0.6-0.7C3.8,49.4,1.6,46,0.6,42.1C0.2,40.9,0,39.8,0,38.6c0-2.2-0.1-4.4,0.2-6.6c0.5-5.1,1.8-9.9,4.5-14.2
	c2.1-3.2,4.8-5.9,7.3-8.7c1.7-1.2,3.3-2.6,5.1-3.6c3.5-2,7.1-3.6,10.9-4.9c0.9-0.3,1.8-0.5,2.8-0.6c1.9,0,6,0,7.9-0.1
	c0.4,0.2,3.1,0.4,3.5,0.6c1.9,1,4.3,1.1,6.1,2.4c1.7,1.2,3.6,1.9,5.4,2.8c1.4,0.7,2.7,1.5,4,2.4c1.5,1.1,3,2.2,4.6,3.1
	c1.8,1,3.2,2.5,4.9,3.6c1.7,1.1,3.5,2.1,5,3.4c0.5,0.4,0.9,0.9,1.5,1.1c1.8,0.8,3,2.2,4.3,3.5c1.6,1.6,2.7,3.5,3.3,5.6
	c0.7,2.3,0.8,4.5-0.4,6.8c-1.5,2.9-3.2,5.7-5.5,8.1c-0.4,0.5-0.8,0.9-1.3,1.3c-3.9,2.8-7.5,6.1-11.9,8.2C61,53.5,60,54.2,59,55
	c-2.9,2.6-6.4,4.5-9.7,6.5c-1.9,1.1-3.9,1.9-6.1,2.1C42.4,63.6,41.6,63.8,40.9,64z"/>
</svg>
