<?xml version="1.0" encoding="utf-8"?>
<!-- Generator: Adobe Illustrator 17.1.0, SVG Export Plug-In . SVG Version: 6.00 Build 0)  -->
<!DOCTYPE svg PUBLIC "-//W3C//DTD SVG 1.1//EN" "http://www.w3.org/Graphics/SVG/1.1/DTD/svg11.dtd">
<svg version="1.1" id="Layer_1" xmlns="http://www.w3.org/2000/svg" xmlns:xlink="http://www.w3.org/1999/xlink" x="0px" y="0px"
	 viewBox="7.4 95.3 597.4 601.9" enable-background="new 7.4 95.3 597.4 601.9" xml:space="preserve">
<path fill="#FFFFFF" d="M487.8,153.2c-5.1,8-15.1,10.9-21.8,16.9c-8.1,7.2-17.2,5.8-27.4,4.4c-18.5-2.6-37.2-7.4-54.8-12.6
	c-9.6-2.8-19.1-6.8-29-8.4c-10.3-1.6-21-1.9-31.4-1.7c-9,0.2-20.3,1.5-28.8,4.6c-3.9,1.5-7.4,3.9-11.4,5.1c-4.7,1.4-10,0.7-14.6,2.5
	c-8.7,3.5-16.6,5.5-23.9,12.1c-1.9,1.7-1.1,2-2.3,3.5c-1,1.3-2.9,1.8-3.9,3.2c-2.9,4-2.8,9.9-7.6,11.9c-9.6,4.1-14.8,11.1-21.5,18.5
	c-3.6,4-7.8,7.4-11.5,11.4c-1.3,1.4-3.4,3.3-4.3,4.9c-0.9,1.4-0.1,4-1.7,5.1c-6.2,1.9-16.4,8.8-10.1,16c5.5,6.2,14.4,10.2,22.5,8.2
	c9.1-2.2,17-7.5,26.2-9.6c1.6-0.4,11.4-3.7,11.7-1.9c0.4,1.8-6.7,7.1-7.9,8.4c-3.6,3.7-6,5.1-10.8,6.8c-3.1,1.1-6,3.9-9.1,4.5
	c-3.8,0.8-7.6,4.8-11.1,6.6c-3.4,1.8-6.2,4-9.2,6.2c-3.3,2.3-8.9,0-12.4-0.7c-5.3-1-9.9,0.5-15.2,1.2c-10.5,1.4-19.3,8-28.7,12.4
	c-9.3,4.3-19.7,0.8-29.4,0.2c-5.1-0.3-10.3,0-15.4,0.1c-2.5,0-5,0-7.5,0.3c-2.4,0.3-4.1,1.8-6.2,2.2c-10.1,2.4-14.1,1.9-16.2,12.9
	c-1.9,10.2,1.2,16.1,12.2,17.7c8.9,1.3,20.2-3.9,23.6,7.4c0.9,2.9,3,6.4,3.3,9.3c0.5,4.3,6.4,6.4,8.1,10.2c3.6,2.2,7.5,3.7,11.1,6.1
	c4.4,2.9,9.5,1.8,14.3,1.3c2.7-0.3,5.5-0.3,8.2,0.4c0.3,2.2-0.1,4.4-0.7,6.5c-1.2,5-2.6,9.8-3.5,14.8c-0.8,4.5-1.6,9.4-0.8,14
	c0.6,3.4,4.4,10.8-0.8,10.6c-4.3-0.2-8.5-1.5-12.9-1.5c-5.6,0.1-10.5,2.4-15.7,4.1c-4.4,1.4-8.9,3.8-13.6,3.9
	c-4.6,0.1-9.3-3.8-13.6-3.2c-2,0.3-1.2-0.9-2.6-1.3c-1.9-0.4-4,0.2-5.9-0.2c-4.9-1-9.3-1.9-14.3-1.5c-8.5,0.7-17.7,2.4-24.2,8.3
	c-3.4,3.1-5.9,7.1-9.2,10.3c-2.4,2.3-6.6,6-7.1,9.7c-0.4,3.1,1.2,6.9,2.8,9.5c1.1,1.8,5.8,4.1,6,4.8c0.7,2.2,8,4.4,10.2,5
	c4.7,1.4,9.9,1.4,14.8,1.7c7.8,0.5,17.3,0.7,23.2,6.7c0.8,0.8,3.4,4,3.5,5c0.5,3.5,7.9,8.8,10.5,10.9c15.4,12.8,36.8,11.7,52.8,0.9
	c8.8-5.9,14.8-2.7,18.9,6c3.3,7,7.5,14.3,12.6,20.2c6.3,7.4,14.3,13,20.7,20.4c-1.1,8.4,5.2,13.2,0.9,21.7
	c-4.5,8.7-8.8,17.8-13.8,26.2c-4.4,7.4-18.4,11.5-19.1,20.9c-0.7,9.1,0.8,16.9,7.4,23.8c3.2,3.3,7,5.9,10.2,9.2
	c1.6,1.6,2.9,3.5,4.4,5.2c0.8,0.9,3.6,1.9,3.9,3c0.7,2,8.8,4.7,10.9,5.9c2.7,1.5,5.2,3.1,7.9,4.6c7.7,4.4,15.9,6.8,24.2,9.5
	c5,1.6,9.3,4.7,14.2,6.5c5,1.7,10.4,1.8,15.5,2.6c4.1,0.6,8.3,1.4,12.5,2.2c6,1.2,12-0.2,18,1.1c9.4,2,18.8,0,28.3-0.8
	c11.1-0.9,22.1-3.8,33-5.8c19.9-3.7,39.1-7.7,56.9-18.1c3.8-2.2,7.4-6.8,11.7-7.7c4.3-1,7-6.4,10.3-9.1c2.8-2.3,5.8-4.4,8.5-7.3
	c3.6-3.9,6.6-9,10.6-12.5c4.3-3.7,8.3-13,9.1-18.6c1.2-9.1-1-17.7-10.3-21c-3.8-1.4-7.9-2.2-11.8-3.4c-3.3-0.9-3.3,1.1-5.1-2.2
	c-1.1-2-2.5-3.8-4-5.5c-3.1-3.4-6.7-6.2-9.6-9.8c-3.2-4.1-7.9-7-10.9-11.1c-1.9-2.6,1.4-9.7,0.6-13.6c-0.4-2.3-1.3-4.4-2.3-6.4
	c0.9-2.2,2.4-3.9,4.1-5.4c8.4-7.8,13.9-18.2,19.2-28.3c8.2-15.9,16.4-32.5,20.4-49.9c0.9-3.7,2-7.4,2.9-11.1
	c0.8-3.4,0.1-5.4,3.9-6.4c2.6-0.7,5.2-0.9,7.8-1.7c2.9-1,6.5-4.9,9.6-2c1.7,1.6,1.8,5.9,3.2,8c8.4,12.6,32.4,15.5,46.1,14.7
	c3.2-0.2,7.9-1.5,11-2.4c3.7-1.1,5.3-4.7,8.4-6.6c1.3-0.8,3-0.3,4.4-1.4c1.1-0.8,2.2-1.8,3.5-2.1c2.7-0.7,6.3-3.4,8.8-4.8
	c11.7-6,21.5-23.7,11.1-34.4c-4.7-4.6-10.7-7-17.4-7.1c-9.3-0.2-16.8,4.7-25.8,6.1c-3.7,0.6-6.1-1.6-9.2-2.9
	c-4.2-1.7-8.6-3-12.9-4.5c-9.2-3.3-18.7-6.2-28.6-6c-3.9,0.1-7.9,0.7-11.5,2.4c-2.3,1.1-7,6.3-8.6,2.1c-3.3-8.5-2.3-18.8-4.9-27.6
	c7.8-0.4,22,0,27.2-7c2.5-3.4,3.9-7.5,5.1-11.5c0.7-2.4,1.2-4.8,1.7-7.3c1-4.8,0.8-5.2,5.6-6.6c7.8-2.2,19.7-2.4,24.3-10
	c4.2-7-10.5-15.3-15.9-16.6c-9.7-2.3-19.2-2-29.1-1.2c-5.4,0.5-10.8,2.2-16.2,1.3c-5.1-0.8-8.6-5-13.4-6.5c-3.7-1.2-7.3-5.2-11-6.9
	c-4.4-2.1,0.2-8,1.7-11.2c2.1-4.4,3.6-8.9,7.5-12.2c4.1-3.4,9.2-5.3,13.8-8c4.4-2.5,7.8-6.1,11.7-9.4c3.6-3,10.9-2.1,15.5-2.8
	c10.3-1.6,20.1-4.4,30.3-6.4c11.1-2.1,22.3-4.2,33.6-5.3c7.4-0.7,11.3,12.1,14.1,17.7c4.4,8.8,10.6,17.4,15.8,25.7
	c5.5,8.9,9,17.7,13.1,27.2c7.9,18.3,4.7,39.4,11.2,58c7,20.2,5.7,42.6,4.1,63.5c-1.6,21.7-6,43.7-11,64.9
	c-2.4,10.3-3.8,20.7-7.2,30.8c-3.3,9.9-7.7,20.2-12.1,29.7c-4.3,9.5-8.7,18.3-13.8,27.3c-3.6,6.2-7.6,12-11.2,18.3
	c-4.6,7.9-11.2,15.6-16.8,22.8c-6.5,8.3-13.1,18.8-21.7,25.1c-7.1,5.2-13.5,11.4-20.6,16.8c-7,5.2-14.2,9.9-21.5,14.7
	c-7.5,5-16.8,10-25.5,12.5c-11.1,3.2-20,12.1-30.9,16.4c-8.8,3.4-19.4,3.6-28.6,5.6c-11.5,2.5-23.6,2.9-35.3,2.9
	c-11.8,0-23.5-0.8-35.3-0.2c-5.9,0.3-11.9,0.8-17.8-0.1c-5.4-0.8-12.4-0.7-17.5-2.7c-9.8-3.9-22.3-2.2-32.8-4.5
	c-4.9-1.1-9.6-2.7-14.5-3.9c-5.9-1.5-11.8-2.9-17.5-4.8c-9.1-3-17.9-7.8-26.4-12.3c-10.3-5.5-21.4-9.4-31.7-14.5
	c-9-4.5-18.8-8.6-26.5-15.3c-3.1-2.7-6.6-4.6-9.7-7.4c-4.8-4.3-8.9-9.2-13.6-13.6c-8-7.6-15.6-15.5-23.8-22.9
	c-3.8-3.4-7.6-7-11.1-10.8c-3.8-4-6.6-9.8-10.6-13.2c-3.3-2.9-5.9-8.1-8.6-11.8c-2-2.7-3.8-5.7-5.5-8.7c-2.5-4.2-4.6-8.5-6.5-13
	c-1.4-3.3-6-10.2-5.7-13.5c0.4-4.3-2.8-8.7-3.9-12.8c-1.2-4.8-2-9.5-4.5-13.8c-4.7-8.4-6.7-18.3-10.4-27.1
	c-3.6-8.7-2.6-20.1-4.1-29.3c-1.7-10.2-1.8-20.7-2.1-30.9c-0.2-8.6,0.1-17.4,0.4-25.9c0.5-12.2,0.5-24.4,1.3-36.6
	c0.7-10.6,4.4-20.2,5.8-30.6c1.5-10.3,4.9-20,7.6-30c2.8-10.3,7.4-20.3,12-29.9c5-10.5,9.4-21.2,15.2-31.3
	c9.3-15.8,19.7-29.4,32.4-42.8c4-4.2,7.9-8.6,12-12.7c3-3,6.3-4.6,9.2-7.5c5.9-5.9,14.2-12.7,22-15.6c4.5-1.7,7.1-5,11.1-7.4
	c3.9-2.3,8.5-3.1,12.3-5.7c7.8-5.3,16.3-7,25.2-10c4.3-1.5,8.2-3.7,12.3-5.4c4.7-1.9,9.5-5.6,14.3-6.6c5.1-1,9.3-3.3,14.1-4.6
	c2.2-0.6,4.1,0.5,6.2-0.6c2.6-1.4,6-1.6,8.9-2.2c4.2-0.9,8.7-3,12.7-3.6c4.9-0.7,8.5-0.2,13.3-2.3c3.7-1.6,10.3-1.9,14.5-2.3
	c6.3-0.6,12.7-0.6,19-0.9c7.5-0.3,15,0.2,22.4,1.5c4.4,0.8,8.6,2.2,13.1,2.8c4.6,0.6,8.8-0.3,13.4-0.2c18.7,0.4,36.4,6,54,12.1
	c7.9,2.7,15.1,5.7,23.4,7.1c8.9,1.6,18.3,3,26.8,6.3c9.2,3.5,17.5,8.6,26.5,12.6C475.1,140.4,486.6,145.4,487.8,153.2
	C485.1,157.3,486.8,147,487.8,153.2z"/>
<path fill="#FFFFFF" d="M544,209.5c-9.6-0.1-19,3.3-28.4,5c-11.5,2.1-24.2,2.9-35.3,6.6c-8.9,3-17,2.1-24.3,8.4
	c-6.4,5.6-14.2,8.5-20.7,14.2c-1.4,1.2-3.4,1.8-4.5,3.2c-0.7,0.9-0.3,1.8-1.3,2.6c-2.2,1.8-3,7.5-4.5,10.1
	c-3.2,5.6-5.3,10.6-8.6,15.2c-2,2.8-3.8,7.2-6.5,9.3c-2.9,2.2-3.6,6.9-6.5,9.9c-6.3,6.6-11.9,12.9-18.9,18.8
	c-7.1,6-15.7,9-23.7,13.1c-3.8,1.9-26.9,10.6-22.6,1c3.8-8.6,10.8-13.4,16.3-20.6c7.8-0.5,15.8-11.3,21-16.3
	c2.8-2.7,3.8-7.9,5.3-11.5c2-4.7,3.6-9.7,4.1-14.8c0.7-8.2-18.6-6.8-24.3-7.3c-10.1-0.8-20-3.7-29.9-5.7c-4.7-1-9.5-3.3-14.2-3.5
	c-5.9-0.3-11.9,0.6-17.7,1.8c-7,1.5-14.1,3.2-20.7,6c-3.7,1.5-7.1,3.5-10.1,6c-3.1,2.5-7.2,3.4-10.3,5.9c-5.1,4-9.6,8.1-14.9,11.6
	c-6.5,4.3-13.7,3.6-21.3,1.9c3.1-7.1,12.1-13.9,17.4-19.3c6.2-6.4,13.7-13.5,20.8-18.8c4.5-3.4,11.1-5.2,16.6-7.5
	c9.4-3.9,19.1-5.9,28.6-9.6c7.8-3.1,14.1-1.9,13.6-12.1c-3.7-1-9.6,3-13.2,4.1c-5.1,1.5-10.3,2.9-15.4,4.4
	c-8.9,2.7-17.7,5.8-25.9,9.7c-7.8,3.8-16.7,7.2-25.1,9.6c-3.8,1.1-7.7,1.4-11.6,2.1c-2.4,0.4-6.9,3.4-8.8,3.1
	c-6.7-0.9-15.2,8.5-21.9,6c-2.2-0.8-8.3-3.7-7.1-6.4c1.2-2.9,5.5-4.5,8-6c8.5-5.1,17.6-9.1,26.2-14.1c5.3-3.1,11.4-6,17.2-7.6
	c8.8-2.5,16.2-6.7,24.9-9.3c7.9-2.4,16.3-2.7,24.3-4.6c5.2-1.3,10.4-2.8,15.5-4.6c2.4,0,4.7,0,7.1,0c0.6-2.4,1.5-4.7,1.9-7.1
	c-10.1-2.2-20.3,3.4-30.1,4.9c-9.2,1.5-18.3,2.6-26.8,6.1c-6.9,2.8-14.3,5.3-20.7,7.8c-8.6,3.4-17.4,9.7-26.5,11.6
	c0.7-3.3,5.1-5.5,7.1-8c2.5-3.1,5.2-7.9,9-9.4c9-3.6,17.4-8.5,26.8-11.6c2.8-0.9,9.6-1.1,11.5-3.4c0.8-0.9,6.9-2.8,8.3-3
	c4.2-0.6,7-2.6,11.1-3.9c4.5-1.5,9.9-2,14-4.6c4.3-2.7,2.1-5.4-2.2-4.8c-5.2,0.7-10.1,1.5-15.1,3.3c-9.6,3.4-19.3,6.2-28.7,9.9
	c-3.4,1.3-10.6,2.7-5.5-2.8c2.9-3.1,6.1-6.1,9.6-8.6c8.2-5.7,17.5-6.6,26.7-8.8c10-2.4,18.8-5.9,29.1-7c5.1-0.5,10.3-0.8,15.5-0.8
	c3.6,0,9-0.4,12.3,0.7c8.1,2.7,19.3-1.3,26.5,4.6c2.3,1.9,7.2,2,10.2,3.1c5.5,2.1,11.6,3.3,17.3,4.6c10.7,2.4,20.7,5.7,31.6,7.5
	c10.8,1.7,22.1,5.5,33,3.3c8.1-1.7,15.8-7.8,22.4-12.6c5.1-3.5,11.4-12.3,17.8-13.9c3.7-0.9,10.9,8.9,13.2,11.4
	c5.1,5.3,8.4,10.9,12.3,16.7c2.3,3.5,5.5,6.4,7.9,10.1C535.4,200.3,541.6,203.3,544,209.5C539.2,209.4,541.9,203.9,544,209.5z"/>
<path fill="#FFFFFF" d="M377.8,265.7c-0.1,4.8-2.4,8.9-4.7,13c-1.3,2.3-3,7.7-5.6,8.7c-2.5,1-5.9,6.7-8.5,8.6
	c-3.4,2.5-6.8,4.9-10.3,7.3c-3.4,2.4-5.7,6.2-9.7,7.8c-4.7-1.4-8-5.3-12.3-7.1c-9.5-4-20.3-3.6-30.3-3.1c-17.8,1-34.7,6.1-45.4,20.5
	c-4.7,6.4-9.4,14.9-8.9,23.2c0.7,10.4,12.8,15.1,21.6,14.5c4-0.3,9.1-1.2,12.5-3.5c3.8-2.6,6.3-7.4,9.7-10.6c7-6.3,17-12.2,26.6-8.9
	c8.7,3.1,13.3,7.8,15.4,16.7c1.2,5.2,0.9,10.5,0.1,15.7c-0.7,4.1-3.3,6.9-4.2,10.7c-0.8,3.5-7.5,6.1-10,8.5
	c-3.7,3.3-8.3,5.6-12.7,7.8c-8.6,4.3-17,8.5-20.9,17.7c-6.9,16.1-8.5,39.4,7.8,50.5c6.5,4.5,13.4,4.5,21.1,3.5
	c9.1-1.2,14.9-10.5,17.2-18.8c2.3-8.4,1.8-16.9,4.6-25.3c2.1-6.3,8.7-13.6,14.8-16c4-1.5,6.4-6.3,9-9.4c3.7-4.4,6.6-7.6,8.3-13
	c2.7-8.7,4.7-16.8,4.8-26c0.1-4.3-0.2-8.7-1.4-12.8c-1.2-3.8-4.5-6.5-5.6-10.4c-1-3.7,9-5.8,12-6.9c4.6-1.9,8.4-4.6,12.9-6.8
	c8.6-4.1,16.1-14.9,22.7-21.6c1.7-1.7,3-5.2,5.6-3.4c1.6,1.1,2.7,2.9,4,4.3c1.3,1.5,2.7,1.5,4,2.7c2,1.8,3.5,4.2,5.4,6
	c5.4,5.3,8.3,12.7,12.2,19.1c5.2,8.4,6.9,18.6,8.9,27.9c0.7,3.4,3.2,11.5,1.1,14.7c-0.7,1.1-5.8,1.4-7,1.8c-2.9,0.9-2.2,1.9-5.2,0.6
	c-2.3-1-4.6-1.7-7-2.3c-5.6-1.3-12.5-2-18.1-0.1c-7.8,2.5-15.3,6.4-20.3,12.6c-4.5,5.6,1.4,13.3,6.7,14.7c8.8,2.5,16.8,0.6,26,0.3
	c9.1-0.3,13,6.3,19.5,11.2c1.5,1.2,3.3,2,5,2.8c-0.7,2.3-1.2,4.7-1.8,7.1c-1.1,4.6-2.9,8.9-4,13.5c-1.3,5.4-3.3,10.4-5.2,15.7
	c-1.7,4.6-4.7,9.6-5.6,14.4c-1.4,7.4-7.9,14.7-11.2,21.7c-1.9,4-5,7.3-6.9,11.3c-2.5,5.4-9,9.6-13.2,14
	c-5.8,6.2-11.6,11.6-18.1,16.8c-6.5,5.2-13.8,13.1-22,15.6c-8.2,2.5-16,5.9-24.5,7.2c-11.2,1.7-22.5,2.5-33.7,3.8
	c-9.9,1.1-20.5-1.4-30.2-2.7c-11.1-1.5-20.9-5.1-31.7-7.7c-13.3-3.2-26.3-12.3-36.6-20c-8.1-6-15.6-11.5-22-19.5
	c-3.1-3.9-19.9-24.8-13.1-27.6c6.8-2.9,19.4-3.1,24.3-9.3c2-2.5,4.4-5.1,6.3-7.9c1.7-2.3,2.6-2.6,3.1-5.6c0.4-2.8,1-5.8,2.4-8.3
	c3.5-6.3,15.4-7,21.8-6.8c4.5,0.2,8.5-1.5,13-1.6c3.2-0.1,10.6-1.2,12-4.9c0.5-1.2,2.5-1.8,3.5-2.7c1.9-1.9,1.2-2.8,2-5
	c1.2-3.3,1-4.9-2.3-7.5c-7.9-6.1-19.1-7-28.3-10.2c-5.7-2-10.2-1.7-16-2.3c-4.7-0.5-8.8-1.6-13.7-1.4c-8.7,0.3-19.2,1.9-25.8,8.1
	c-5.7,5.4-11.3,1.3-17-1c-7.7-3.1-6.6-21.6-5.4-28.3c0.7-4.2,1.3-8.9,2.3-13c1.1-4.7,7.3-0.9,10.4-0.1c11.6,3,21.6,2.3,32.9-1.2
	c4.5-1.4,11.9-3,15.1-7.4c7.1-9.8-8.1-13.7-13.8-15.9c-5.5-2.1-12.8,0.3-18.8-1.9c0.4-3.6,2.9-6.4,3.7-9.9c1.2-5.4-1.4-9.7-5.2-13.3
	c-1.4-1.3-5.1-3.3-4.3-5.5c0.5-1.5,2.7-4.2,3.6-5.7c4-6.7,10.4-12.8,16.4-17.8c1.7-1.4,4.4-2.2,5.8-3.5c1-1,5.2-3.4,5.5-4.5
	c0.5-1.6,10.2-7.2,12-7.1c-5.1,9.1,4.1,12.4,11.1,13.3c8.2,1,15.2,1.2,21.9-4.2c6.4-5.1,12.3-9.5,19.5-13.5c3.2-1.8,5.7-4.5,9-6.2
	c3.6-1.8,8.2-2.5,11.4-4.8c1.8-1.3,5.5-1.4,7.7-2.4c3.2-1.4,6.5-1.9,10-2.3c8.1-0.8,15,0.6,22.9,2.3c7.3,1.6,15.1,4.1,22.4,5
	C359.6,263.6,369,262.6,377.8,265.7C377.7,271.6,372.7,263.9,377.8,265.7z M318.3,476.6c-4-2-11.2-2.5-15.6-1.6
	c-5,1-9.6,3.9-12.6,8.1c-6.3,8.7-3.7,14.9,2.9,22c5.8,6.3,19.6,8.2,25.9,1.4C325.3,499.5,328.2,481.4,318.3,476.6
	C317.3,476.2,320.3,477.6,318.3,476.6z"/>
<path fill="#FFFFFF" d="M510.4,300.7c-8.1,4.7-18.4,3.3-26.7,7.5c-6.1,3.1-3.7,6.2-5,12c-1,4.6-1.2,11.3-5.6,14.1
	c-3.8,2.4-9.6,3.1-14,3.8c-3.8,0.6-6.9,2.1-8.5-1.8c-1.4-3.3-3-6.5-4.7-9.6c-5.4-10-10.8-19.1-18.7-27.3c-1.8-1.9-4.3-2.4-6-4
	c-2.3-2.1-5.3-4.9-3.6-8c1.5-2.6,3.8-4.6,4.9-7.5c4.6-0.6,8-3,12.1,0.6c4.3,3.8,8.2,7.1,13.7,9.3c5,2,10.5,2.8,15.9,2.1
	c6.3-0.9,12.9-0.4,19.1-2C490.5,288.1,509,291.6,510.4,300.7C501.3,306,509.9,297.2,510.4,300.7z"/>
<path fill="#FFFFFF" d="M184.4,286.4c-1.1,2.6-3,4.7-5,6.6c-1.8,1.7-3.4,4.4-4.7,5.7c-0.8,0.8-2.5,1-2.9,2.9
	c-0.4,1.9-2.5,2.1-3.6,3.6c-1,1.3-1.4,2.9-2.2,4.3c-2.3,3.9-5.8,1.5-8.8,0.1c-5.2-2.3-10.9-1.1-16.2,0.2c-2.5,0.6-7.4,0.5-7.9,3.9
	c-0.7,5,5.3,2.8,7.9,2.5c5-0.5,9.2-1.7,14.1,0.1c4.6,1.7,10.7,4.1,14.5,7.2c9.2,7.4-1.3,11-0.2,19.2c1.3,9.9,16.8,6.3,23.3,7.1
	c2.8,0.4,10.1,1.9,11.6,4.5c0.3,3.9-3.9,5.5-6.8,6.6c-8.5,3-17.3,4.8-26.5,3.3c-4.7-0.7-10.2-1.5-14.5-3.5c-2-0.9-3.4-2.7-5.2-3.9
	c-1.8-1.2-4.4-1.4-5.8-3.2c-7.5-0.4-17.6,2.2-24.3-1.9c-1.3-0.8-2.2-1.9-2.8-3.2c-2.2-0.5-4.1-1.7-5.7-3.3
	c-3.6-3.6-5.1-7.8-6.7-12.6c-2.6-7.6-9.4-15.6-18.5-13.7c-5.1,1.1-9.5,1.4-14.6-0.1c-4.8-1.4-3.6-7.3-2.4-11.3
	c1.8-5.7,5.4-4.4,10.5-5.7c6-1.5,10.5-2.7,16.9-2.3c5.6,0.4,11.1,0.1,16.7,0.3c5.8,0.3,11.4,1.6,17.2,1.5
	c10.1-0.2,19.5-7.5,28.2-11.9C166.5,286.3,177.3,283.4,184.4,286.4C182.4,291.1,177.9,283.7,184.4,286.4z M156.5,327.8
	c-2.2,4.8-4.9,9.3-6.2,14.4c-0.9,3.5-1.7,5.1,2,6.6c3.1,1.2,3.9,0.6,4.8-2C158.7,342,166.5,328.6,156.5,327.8
	C153.7,333.9,167.4,328.6,156.5,327.8z"/>
<path fill="#FFFFFF" d="M569.3,389.3c1,8.4-2.8,13.7-8.7,19.1c-2.6,2.4-5.6,3.4-8.8,4.9c-5.3,2.4-8.1,3.8-12,8.3
	c-10.5,12.1-35,5.8-47.1-0.4c-3-1.5-7.2-4.3-8.8-7.3c-2-3.7-1-8.3-4.9-11c-3.7-2.5-8.5,0.4-11.8,2.2c-4.9,2.6-9.1,3-14.4,1.1
	c-4.4-1.6-6.5-2.2-10-5.7c-2.4-2.4-5.8-4.9-9-6.2c-3.8-1.6-7.2-2.9-11.4-1.9c-4.2,1-8.6-0.4-12.3,0.5c-3.9,0.9-8.3,1-11.6-1.6
	c-1.3-4.1,2.9-6.9,5.5-9.3c6.5-6.1,18.1-5.8,26.4-4.3c7,1.3,14,1,20.8,2.3c7.5,1.4,10.4,4,16.4-2c5.5-5.5,15.4-3.9,22.3-2.3
	c10.9,2.5,22.4,6.5,32.6,11.1c5.9,2.6,10.6-0.5,16.3-1.6c4.7-0.9,9.5-2.4,14-4.1c4.6-1.8,10.4,1.6,13.8,4.9
	C567.7,387.1,568.5,388.1,569.3,389.3C570.7,401.5,566.2,384.6,569.3,389.3z M452.2,390.6c-1.6,4.2-2,10.6,4.5,7.9
	c2.2-0.9,1.3-3,1.3-5.1C458,390,455.2,390.3,452.2,390.6C451.5,392.5,454.5,390.4,452.2,390.6z"/>
<path fill="#FFFFFF" d="M251.6,423.6c-1.9,3.7-5.4,7.2-9.8,7.4c-4.5,0.2-8.3,2.4-12.7,2.5c-11,0.1-19.2,0.4-28.4,6.7
	c-3,2-4.5,8.3-5.1,11.9c-0.7,3.7-3.9,7.6-6.6,10.4c-3.1,3.1-7.9,3.1-11.7,5c-4.6,2.3-9.7,2.9-14.7,3.2c-3.5,0.2-19.4-2.4-20.7,1.5
	c-0.2,0.4-3.5,2.8-4.2,2.9c-3.8,0.3-7.2,4.8-11.1,5.7c-7.3,1.7-18.3,2.4-25.1-1.5c-7-4-12-9.3-16.8-16.2c-5.7-8.1-12.8-10.1-22-12.4
	c-10.3-2.6-20.4,0.4-30-5.3c-8.1-4.8-5.5-11.4,0.8-16.3c2.5-2,5.3-3.6,7.9-5.5c1.2-0.9,0.5-3.4,0.7-4.6c0.4-2.3,6.5-3,8.4-3.6
	c10-2.8,19.7-1.9,29.7,0.5c10.3,2.5,16.9,6.5,27.9,2.4c9.3-3.5,17.4-7.3,27.6-4.9c10.5,2.4,20.2,6.8,30.6,9.6
	c12.2-6.4,24-14.6,38.6-12.6C219.3,412.3,240.1,413.8,251.6,423.6C250.1,426.6,246.1,418.9,251.6,423.6z"/>
<path fill="#FFFFFF" d="M204.4,535.5c2.8-2.4,17.1,8.9,20.1,10.4c8.9,4.3,19.6,7,29.1,9.7c8.3,2.3,17.3,2.9,25.8,4.1
	c12.2,1.7,24.1,0.9,36.3-0.3c10.4-1,20.6-2.1,31-3.6c4.9-0.7,8.2-3.8,12.9-4.8c5.4-1.2,9.2-4.1,13.9-6.9c6.7-3.9,14.2-8.8,19.5-14.5
	c2.6-2.9,6.8-5.1,8.8-8.3c3.5,1,0.6,9.1-0.9,11.3c-1.9,2.6-2.1,5.7-4,8.5c-2.1,3.1-4.6,5.9-7.9,7.7c-8.6,4.8-17.8,8.3-26.6,12.6
	c-8.1,4.1-18.9,7.1-27.9,7.6c-5.1,0.3-10.3,0.3-15.4-0.2c-6.3-0.6-12.2,1.3-18.5,1.2c-10.7-0.2-21.2-3.6-31.9-3.5
	c-5.2,0.1-9.8-0.5-15-1.2c-2-0.3-4-0.2-6-0.4c-2.6-0.2-3.9-1.9-6.2-2.8c-3.6-1.4-6.8-2.2-10.3-3.9c-2.9-1.4-4.9-2.7-7.5-4.1
	c-3.8-1.9-5.9-4.9-9.2-7.2c-3.3-2.2-7.3-4.4-9.1-8.1C204.6,537.7,204.4,536.6,204.4,535.5C206.4,533.8,204.1,541.4,204.4,535.5z"/>
<path fill="#FFFFFF" d="M183.1,591.8c4.9-9.4,8.4-19.6,13.2-29.1c2.3-4.6,4.8-9.1,8.1-13c4.8,1,8.6,6.1,12.7,8.7
	c13.8,8.6,29.8,14,46.2,15.3c5.8,0.4,11.6,0.2,17.3,0.9c5.4,0.7,10.2,2.6,15.7,2.7c5,0.1,9.4-1.2,14.3-1.6
	c6.4-0.5,12.8,0.8,19.2,0.5c10.1-0.4,20.3-2.4,29.9-5.6c9.7-3.2,18.4-9.9,28.2-13.2c7.6-2.6,14.5-8,17.1-15.9c3.8,0,8.1,8.1,11,11
	c3.5,3.5,6.5,6.8,9.7,10.6c5,5.8,11.1,15.9,5.5,22.6c-2.5,3-5.5,5.7-8.3,8.4c-1.5,1.4-2.8,2.9-4.2,4.3c-1.7,1.7-4.1,1.7-5.6,3.5
	c-4.5,5.4-14.5,9.7-20.8,13c-7.5,4-15.3,8-22.9,10.6c-4.7,1.5-8.9,2.8-13.6,3.9c-4.1,1-9.1,1.4-12.9,2.6c-7.9,2.5-14.9,4.3-23.3,4.5
	c-7.2,0.2-14.5-0.7-21.7-0.6c-7.4,0.1-14.9,0.2-22.3-0.9c-5.9-0.9-11.5-2.6-17.4-3.7c-3.2-0.6-6.4-0.5-8.7-2.2
	c-2.4-1.7-5.4-2.2-8.1-3c-1.8-0.6-4.1-0.7-5.8-1.3c-2.5-0.9-3.9-2.6-6.7-3c-5.8-0.8-9.9-4.4-14.8-7.3c-5.2-3.1-10.7-6.2-15.4-10.1
	C193.4,600.1,186.9,597.6,183.1,591.8C186.8,584.7,186.5,597,183.1,591.8z"/>
<path fill="#FFFFFF" d="M438.6,571.7c7.7,1.4,16.2,2.2,15.7,12.1c-0.4,8.1-5.1,16.7-9.9,22.8c-6,7.6-14.2,15.1-22.2,20.4
	c-6.4,4.2-13.2,10.2-19.8,13.2c-7.4,3.6-17.8,8.1-26.1,9.5c-4.1,0.7-7.8,2.6-12,3.1c-6.3,0.8-12.5,1.6-18.8,2.9
	c-8.1,1.7-15.2,4-23.5,5c-11.3,1.4-21.9,2.1-33.3,1.1c-5.8-0.5-11.6-0.7-17.4-1.2c-4.7-0.4-10.1-3.4-14.7-2.9
	c-4.2,0.4-9.6-2.8-13.6-4.1c-1.3-0.4-4.7-0.9-5.2-2.4c-0.5-1.6-3.9-0.9-5.2-2c-3-2.4-9.1-2.9-12.7-4.7c-4.8-2.4-9.5-5.1-14.3-7.6
	c-2.7-1.4-6-3.7-8.7-4.8c-5-2-8.2-7.4-12.7-10.7c-2.4-1.8-7.8-4.2-8.4-7.4c-0.7-3.7-4.2-5.7-5.5-8.7c-1.6-3.9-0.5-8.8,1.9-12.1
	c3-4.1,6.7,3.9,8.6,6.2c5.7,7.1,15.7,10.5,22.6,16.6c4.3,3.8,11.1,8.7,16.8,10c10.5,2.4,19.7,8.6,30.1,10.9
	c11.4,2.5,22.2,4.2,33.8,5.4c9.3,0.9,18.7,0.7,27.9,0.5c6.4-0.1,12.8,0,19.1-0.6c5.3-0.5,10-2.7,15.2-3.7c10.4-2,20.3-4.3,30.2-8.2
	c10.3-4.1,22.9-9.1,31.2-16.5c4.4-1,6.9-4.7,10.6-7c4.3-2.6,7.3-5.6,11.1-9.1C437.8,590,443,583.3,438.6,571.7
	C445.4,573,440.7,577.2,438.6,571.7z"/>
</svg>
