<?xml version="1.0" encoding="utf-8"?>
<!-- Generator: Adobe Illustrator 17.1.0, SVG Export Plug-In . SVG Version: 6.00 Build 0)  -->
<!DOCTYPE svg PUBLIC "-//W3C//DTD SVG 1.1//EN" "http://www.w3.org/Graphics/SVG/1.1/DTD/svg11.dtd">
<svg version="1.1" xmlns="http://www.w3.org/2000/svg" xmlns:xlink="http://www.w3.org/1999/xlink" x="0px" y="0px"
	 viewBox="0 0 110.087 110.989" enable-background="new 0 0 110.087 110.989" xml:space="preserve">
<g id="Layer_2">
</g>
<g id="Layer_1">
	<g>
		<path fill-rule="evenodd" clip-rule="evenodd" fill="#FFFFFF" d="M87.739,11.817c-0.924,1.431-2.713,1.964-3.919,3.045
			c-1.452,1.302-3.097,1.047-4.925,0.796c-3.326-0.462-6.689-1.333-9.855-2.268c-1.726-0.509-3.434-1.229-5.217-1.511
			c-1.844-0.292-3.784-0.348-5.648-0.302c-1.622,0.04-3.653,0.269-5.175,0.832c-0.705,0.261-1.328,0.697-2.049,0.918
			c-0.848,0.259-1.8,0.117-2.619,0.449c-1.567,0.636-2.993,0.992-4.291,2.175c-0.333,0.304-0.196,0.359-0.405,0.637
			c-0.185,0.24-0.517,0.332-0.698,0.581c-0.517,0.712-0.51,1.782-1.367,2.146c-1.73,0.734-2.659,2.002-3.869,3.323
			c-0.656,0.717-1.406,1.339-2.064,2.053c-0.229,0.248-0.612,0.594-0.779,0.876c-0.153,0.258-0.018,0.727-0.298,0.911
			c-1.115,0.347-2.951,1.588-1.823,2.87c0.989,1.123,2.584,1.831,4.055,1.47c1.645-0.403,3.051-1.357,4.708-1.725
			c0.283-0.063,2.044-0.664,2.113-0.346c0.069,0.316-1.206,1.286-1.415,1.503c-0.65,0.674-1.077,0.919-1.937,1.232
			c-0.561,0.206-1.079,0.695-1.634,0.815c-0.68,0.147-1.368,0.869-2.003,1.193c-0.619,0.316-1.107,0.726-1.662,1.113
			c-0.602,0.42-1.597-0.003-2.237-0.123c-0.953-0.179-1.788,0.092-2.726,0.219c-1.884,0.256-3.466,1.438-5.165,2.223
			c-1.674,0.773-3.541,0.139-5.286,0.03c-0.925-0.057-1.849-0.003-2.775,0.009c-0.451,0.006-0.904,0.006-1.353,0.056
			c-0.438,0.049-0.735,0.322-1.109,0.4c-1.822,0.424-2.541,0.344-2.909,2.328c-0.339,1.832,0.207,2.896,2.189,3.186
			c1.598,0.234,3.636-0.709,4.245,1.329c0.158,0.53,0.536,1.147,0.602,1.673c0.097,0.772,1.144,1.159,1.46,1.841
			c0.654,0.394,1.35,0.672,1.99,1.096c0.783,0.518,1.706,0.325,2.581,0.237c0.494-0.049,0.994-0.062,1.479,0.063
			c0.053,0.393-0.026,0.796-0.12,1.175c-0.222,0.891-0.476,1.758-0.627,2.666c-0.136,0.812-0.28,1.694-0.137,2.515
			c0.106,0.607,0.793,1.949-0.144,1.907c-0.78-0.035-1.53-0.277-2.316-0.265c-1,0.016-1.891,0.43-2.826,0.732
			c-0.79,0.254-1.595,0.683-2.44,0.696c-0.829,0.013-1.669-0.686-2.444-0.582c-0.367,0.049-0.209-0.168-0.466-0.233
			c-0.344-0.078-0.712,0.029-1.064-0.044c-0.873-0.181-1.681-0.345-2.579-0.275c-1.526,0.12-3.192,0.433-4.355,1.497
			c-0.615,0.563-1.062,1.273-1.661,1.847c-0.436,0.421-1.192,1.078-1.279,1.745c-0.075,0.551,0.217,1.242,0.498,1.703
			c0.195,0.321,1.04,0.732,1.077,0.857c0.118,0.403,1.446,0.795,1.828,0.907c0.853,0.25,1.784,0.255,2.664,0.313
			c1.4,0.092,3.12,0.129,4.176,1.197c0.143,0.145,0.609,0.725,0.633,0.907c0.084,0.628,1.428,1.576,1.892,1.962
			c2.777,2.309,6.615,2.105,9.498,0.164c1.58-1.064,2.671-0.477,3.406,1.087c0.592,1.259,1.353,2.576,2.262,3.639
			c1.136,1.328,2.581,2.347,3.717,3.671c-0.203,1.516,0.935,2.383,0.154,3.899c-0.805,1.564-1.584,3.202-2.481,4.712
			c-0.793,1.34-3.306,2.065-3.442,3.76c-0.132,1.641,0.138,3.041,1.334,4.287c0.571,0.595,1.26,1.063,1.834,1.655
			c0.285,0.295,0.515,0.632,0.786,0.937c0.146,0.164,0.643,0.349,0.709,0.536c0.125,0.353,1.59,0.849,1.963,1.06
			c0.48,0.272,0.944,0.562,1.423,0.832c1.387,0.783,2.856,1.225,4.353,1.711c0.894,0.292,1.673,0.854,2.561,1.164
			c0.897,0.314,1.863,0.321,2.793,0.466c0.731,0.109,1.501,0.258,2.25,0.404c1.071,0.209,2.16-0.031,3.24,0.194
			c1.698,0.355,3.381-0.003,5.096-0.136c1.989-0.155,3.978-0.681,5.938-1.044c3.579-0.669,7.034-1.392,10.24-3.258
			c0.69-0.403,1.323-1.216,2.11-1.388c0.779-0.171,1.268-1.153,1.845-1.637c0.499-0.422,1.052-0.792,1.533-1.314
			c0.648-0.702,1.191-1.618,1.905-2.242c0.77-0.673,1.499-2.342,1.63-3.337c0.217-1.643-0.181-3.181-1.853-3.772
			c-0.69-0.244-1.42-0.4-2.123-0.604c-0.585-0.17-0.602,0.193-0.92-0.404c-0.193-0.361-0.445-0.686-0.721-0.987
			c-0.559-0.607-1.21-1.121-1.723-1.77c-0.583-0.738-1.428-1.263-1.969-1.996c-0.348-0.47,0.243-1.746,0.116-2.442
			c-0.074-0.405-0.228-0.783-0.412-1.149c0.157-0.388,0.438-0.694,0.74-0.974c1.519-1.407,2.503-3.277,3.449-5.098
			c1.482-2.852,2.952-5.848,3.677-8.978c0.155-0.668,0.356-1.326,0.515-1.993c0.144-0.605,0.023-0.975,0.693-1.147
			c0.463-0.119,0.944-0.157,1.399-0.311c0.515-0.175,1.167-0.888,1.733-0.365c0.303,0.28,0.322,1.063,0.572,1.439
			c1.506,2.261,5.832,2.782,8.284,2.651c0.581-0.035,1.419-0.263,1.984-0.434c0.664-0.202,0.957-0.85,1.506-1.196
			c0.238-0.15,0.537-0.058,0.784-0.245c0.195-0.148,0.389-0.319,0.631-0.385c0.478-0.13,1.129-0.619,1.59-0.855
			c2.111-1.077,3.867-4.269,1.999-6.195c-0.846-0.835-1.922-1.255-3.129-1.276c-1.675-0.029-3.028,0.851-4.637,1.105
			c-0.663,0.105-1.093-0.293-1.66-0.526c-0.76-0.313-1.553-0.541-2.328-0.815c-1.657-0.587-3.369-1.114-5.146-1.079
			c-0.706,0.014-1.426,0.119-2.07,0.424c-0.407,0.193-1.258,1.131-1.555,0.378c-0.602-1.525-0.407-3.377-0.888-4.96
			c1.399-0.069,3.965,0.008,4.885-1.261c0.441-0.609,0.71-1.355,0.91-2.073c0.12-0.431,0.218-0.869,0.308-1.308
			c0.177-0.868,0.14-0.943,1.002-1.182c1.41-0.39,3.544-0.433,4.365-1.796c0.761-1.263-1.89-2.761-2.867-2.988
			c-1.739-0.406-3.458-0.368-5.228-0.213c-0.963,0.085-1.936,0.396-2.908,0.232c-0.909-0.152-1.551-0.901-2.407-1.167
			c-0.67-0.209-1.306-0.927-1.982-1.246c-0.786-0.372,0.044-1.442,0.314-2.008c0.384-0.8,0.653-1.608,1.358-2.195
			c0.737-0.614,1.651-0.959,2.476-1.431c0.795-0.454,1.404-1.101,2.099-1.684c0.643-0.54,1.961-0.37,2.797-0.5
			c1.859-0.29,3.614-0.789,5.45-1.144c1.993-0.385,4.018-0.758,6.039-0.96c1.333-0.133,2.041,2.177,2.543,3.182
			c0.788,1.575,1.907,3.121,2.842,4.615c0.989,1.593,1.627,3.181,2.36,4.893c1.414,3.3,0.853,7.09,2.014,10.441
			c1.259,3.631,1.031,7.669,0.744,11.43c-0.295,3.895-1.086,7.864-1.971,11.669c-0.431,1.852-0.675,3.73-1.288,5.536
			c-0.602,1.774-1.392,3.633-2.171,5.339c-0.778,1.703-1.564,3.3-2.482,4.919c-0.648,1.115-1.367,2.162-2.021,3.296
			c-0.825,1.43-2.015,2.802-3.029,4.107c-1.164,1.498-2.353,3.379-3.906,4.51c-1.282,0.935-2.427,2.059-3.707,3.017
			c-1.257,0.94-2.563,1.777-3.86,2.64c-1.348,0.894-3.026,1.797-4.584,2.249c-2.004,0.581-3.601,2.185-5.554,2.945
			c-1.588,0.618-3.482,0.642-5.15,1.006c-2.064,0.451-4.237,0.519-6.342,0.52c-2.12,0.001-4.228-0.143-6.348-0.041
			c-1.064,0.051-2.144,0.141-3.203-0.016c-0.97-0.144-2.237-0.129-3.144-0.49c-1.764-0.701-4.014-0.4-5.895-0.815
			c-0.878-0.194-1.726-0.486-2.61-0.704c-1.057-0.261-2.118-0.516-3.153-0.857c-1.644-0.542-3.223-1.412-4.748-2.221
			c-1.854-0.984-3.853-1.686-5.707-2.617c-1.617-0.812-3.386-1.553-4.766-2.745c-0.566-0.489-1.185-0.834-1.749-1.335
			c-0.863-0.766-1.609-1.65-2.444-2.444c-1.439-1.366-2.806-2.788-4.285-4.114c-0.691-0.62-1.359-1.262-1.999-1.936
			c-0.679-0.719-1.195-1.761-1.915-2.382c-0.602-0.52-1.064-1.46-1.542-2.114c-0.356-0.488-0.687-1.034-0.992-1.556
			c-0.443-0.759-0.822-1.533-1.172-2.339c-0.259-0.597-1.078-1.831-1.017-2.421c0.079-0.774-0.507-1.56-0.694-2.3
			c-0.216-0.857-0.365-1.701-0.802-2.48c-0.848-1.511-1.203-3.283-1.868-4.88c-0.649-1.56-0.469-3.619-0.741-5.277
			C1.407,61.737,1.377,59.851,1.34,58c-0.031-1.548,0.014-3.134,0.076-4.659c0.09-2.193,0.091-4.395,0.231-6.585
			c0.122-1.911,0.785-3.628,1.052-5.502c0.263-1.844,0.874-3.605,1.365-5.398c0.507-1.854,1.329-3.656,2.153-5.386
			c0.897-1.883,1.695-3.814,2.742-5.622c1.668-2.848,3.545-5.288,5.827-7.705c0.719-0.762,1.416-1.545,2.156-2.287
			c0.534-0.536,1.126-0.819,1.649-1.342c1.054-1.055,2.556-2.284,3.961-2.808c0.814-0.304,1.276-0.906,2-1.332
			c0.703-0.417,1.522-0.565,2.206-1.026c1.41-0.95,2.931-1.254,4.538-1.801c0.768-0.262,1.467-0.661,2.215-0.971
			c0.838-0.347,1.702-1.01,2.581-1.191c0.912-0.188,1.664-0.6,2.541-0.829c0.39-0.102,0.729,0.086,1.113-0.114
			c0.476-0.248,1.086-0.288,1.606-0.398c0.747-0.158,1.563-0.544,2.285-0.652c0.879-0.128,1.529-0.043,2.391-0.41
			c0.665-0.283,1.852-0.338,2.613-0.405c1.13-0.099,2.277-0.111,3.411-0.153c1.351-0.049,2.703,0.04,4.035,0.269
			c0.796,0.138,1.547,0.4,2.36,0.497c0.834,0.099,1.59-0.046,2.412-0.031c3.368,0.065,6.554,1.083,9.713,2.176
			c1.416,0.49,2.724,1.019,4.209,1.286c1.607,0.288,3.294,0.548,4.822,1.135c1.653,0.636,3.152,1.544,4.762,2.268
			C85.467,9.521,87.526,10.425,87.739,11.817C87.265,12.552,87.567,10.696,87.739,11.817z"/>
		<path fill-rule="evenodd" clip-rule="evenodd" fill="#FFFFFF" d="M97.862,21.941c-1.731-0.023-3.414,0.588-5.105,0.9
			c-2.061,0.381-4.362,0.514-6.346,1.189c-1.594,0.542-3.061,0.373-4.376,1.517c-1.147,1.01-2.559,1.524-3.723,2.561
			c-0.248,0.218-0.607,0.317-0.814,0.582c-0.129,0.164-0.062,0.329-0.241,0.474c-0.403,0.328-0.536,1.342-0.809,1.819
			c-0.577,1.007-0.961,1.913-1.553,2.74c-0.358,0.499-0.688,1.295-1.167,1.672c-0.513,0.404-0.645,1.239-1.165,1.788
			c-1.128,1.191-2.143,2.325-3.394,3.38c-1.278,1.078-2.826,1.626-4.27,2.357c-0.691,0.35-4.836,1.908-4.063,0.177
			c0.692-1.552,1.941-2.402,2.929-3.703c1.402-0.086,2.836-2.035,3.771-2.934c0.504-0.485,0.688-1.427,0.954-2.066
			c0.355-0.85,0.656-1.742,0.73-2.666c0.118-1.471-3.351-1.224-4.379-1.307c-1.812-0.146-3.599-0.662-5.382-1.025
			c-0.845-0.172-1.704-0.585-2.556-0.632c-1.068-0.059-2.138,0.103-3.179,0.328c-1.258,0.271-2.533,0.583-3.726,1.072
			c-0.661,0.271-1.27,0.634-1.823,1.086c-0.556,0.451-1.294,0.613-1.861,1.061c-0.917,0.725-1.721,1.458-2.677,2.079
			c-1.178,0.773-2.468,0.654-3.84,0.35c0.555-1.274,2.169-2.497,3.126-3.479c1.115-1.145,2.461-2.424,3.74-3.386
			c0.807-0.605,1.994-0.927,2.992-1.341c1.695-0.703,3.442-1.055,5.146-1.727c1.4-0.552,2.535-0.344,2.45-2.169
			c-0.658-0.186-1.735,0.547-2.37,0.738c-0.922,0.276-1.854,0.52-2.776,0.796c-1.599,0.478-3.184,1.041-4.659,1.75
			c-1.408,0.677-3.01,1.287-4.508,1.721c-0.676,0.198-1.39,0.246-2.081,0.37c-0.434,0.078-1.237,0.608-1.585,0.559
			c-1.208-0.17-2.726,1.521-3.943,1.082c-0.402-0.145-1.487-0.667-1.284-1.145c0.222-0.524,0.983-0.803,1.438-1.079
			c1.525-0.926,3.165-1.642,4.71-2.531c0.953-0.549,2.044-1.076,3.086-1.376c1.576-0.454,2.92-1.21,4.488-1.679
			c1.423-0.426,2.935-0.48,4.378-0.826c0.94-0.225,1.865-0.51,2.78-0.822c0.426,0,0.853,0,1.279,0
			c0.102-0.431,0.276-0.841,0.348-1.28c-1.808-0.394-3.649,0.603-5.411,0.884c-1.651,0.263-3.286,0.475-4.827,1.095
			c-1.237,0.496-2.575,0.95-3.725,1.396c-1.55,0.616-3.137,1.753-4.771,2.095c0.126-0.601,0.915-0.986,1.28-1.443
			c0.441-0.551,0.931-1.418,1.612-1.69c1.626-0.65,3.122-1.531,4.818-2.082c0.509-0.165,1.731-0.197,2.07-0.605
			c0.136-0.164,1.241-0.504,1.498-0.541c0.752-0.109,1.264-0.471,1.991-0.706c0.815-0.265,1.777-0.365,2.51-0.83
			c0.77-0.489,0.373-0.965-0.392-0.857c-0.944,0.133-1.809,0.272-2.715,0.59c-1.722,0.603-3.469,1.121-5.166,1.786
			c-0.618,0.242-1.899,0.481-0.992-0.499c0.516-0.558,1.099-1.106,1.722-1.541c1.468-1.026,3.142-1.183,4.796-1.588
			c1.792-0.429,3.381-1.07,5.232-1.265c0.926-0.098,1.858-0.136,2.788-0.14c0.651-0.003,1.612-0.07,2.218,0.13
			c1.466,0.483,3.479-0.24,4.771,0.819c0.421,0.345,1.296,0.36,1.84,0.564c0.99,0.372,2.084,0.585,3.114,0.82
			c1.926,0.439,3.715,1.032,5.678,1.342c1.934,0.306,3.971,0.99,5.94,0.586c1.458-0.299,2.837-1.412,4.026-2.274
			c0.922-0.636,2.056-2.216,3.21-2.499c0.664-0.163,1.953,1.6,2.381,2.049c0.91,0.952,1.514,1.967,2.206,3.011
			c0.422,0.636,0.998,1.155,1.427,1.819C96.304,20.3,97.43,20.834,97.862,21.941C96.993,21.929,97.474,20.946,97.862,21.941z"/>
		<path fill-rule="evenodd" clip-rule="evenodd" fill="#FFFFFF" d="M67.956,32.065c-0.018,0.857-0.437,1.608-0.852,2.331
			c-0.237,0.413-0.54,1.379-1.015,1.567c-0.442,0.175-1.069,1.205-1.525,1.545c-0.605,0.45-1.227,0.878-1.845,1.306
			c-0.616,0.425-1.025,1.116-1.746,1.396c-0.853-0.246-1.431-0.95-2.209-1.279c-1.7-0.716-3.647-0.653-5.452-0.551
			c-3.201,0.182-6.239,1.106-8.163,3.691c-0.852,1.146-1.69,2.689-1.596,4.181c0.117,1.866,2.31,2.708,3.889,2.608
			c0.711-0.045,1.638-0.216,2.246-0.621c0.69-0.46,1.13-1.337,1.75-1.902c1.253-1.142,3.057-2.201,4.784-1.595
			c1.571,0.551,2.397,1.401,2.766,3c0.217,0.937,0.16,1.882,0.01,2.825c-0.118,0.731-0.599,1.244-0.75,1.918
			c-0.143,0.636-1.352,1.106-1.807,1.521c-0.66,0.602-1.495,1.009-2.288,1.403c-1.544,0.767-3.055,1.531-3.767,3.187
			c-1.248,2.895-1.533,7.081,1.396,9.076c1.174,0.802,2.407,0.809,3.794,0.628c1.629-0.212,2.676-1.885,3.087-3.373
			c0.417-1.509,0.32-3.047,0.82-4.558c0.372-1.125,1.56-2.451,2.66-2.87c0.724-0.276,1.151-1.129,1.623-1.696
			c0.662-0.793,1.184-1.364,1.485-2.341c0.48-1.561,0.839-3.014,0.863-4.673c0.011-0.766-0.029-1.557-0.252-2.295
			c-0.209-0.688-0.815-1.172-0.999-1.865c-0.176-0.663,1.619-1.035,2.157-1.25c0.836-0.335,1.515-0.836,2.316-1.217
			c1.538-0.731,2.888-2.684,4.081-3.877c0.305-0.305,0.545-0.931,1.016-0.617c0.296,0.197,0.483,0.516,0.712,0.778
			c0.232,0.266,0.484,0.267,0.722,0.484c0.358,0.324,0.626,0.747,0.973,1.087c0.967,0.948,1.497,2.287,2.201,3.428
			c0.932,1.509,1.243,3.34,1.597,5.027c0.129,0.613,0.579,2.067,0.202,2.645c-0.131,0.201-1.036,0.253-1.264,0.325
			c-0.515,0.162-0.392,0.347-0.94,0.108c-0.406-0.177-0.831-0.311-1.263-0.408c-1.004-0.226-2.251-0.351-3.247-0.025
			c-1.395,0.456-2.748,1.147-3.649,2.265c-0.818,1.014,0.258,2.398,1.202,2.653c1.59,0.442,3.023,0.105,4.669,0.048
			c1.64-0.057,2.347,1.128,3.506,2.007c0.275,0.209,0.588,0.364,0.901,0.505c-0.127,0.421-0.218,0.852-0.319,1.279
			c-0.194,0.824-0.524,1.6-0.728,2.421c-0.241,0.972-0.589,1.877-0.932,2.816c-0.305,0.833-0.837,1.731-1.006,2.599
			c-0.257,1.324-1.427,2.64-2.014,3.904c-0.337,0.725-0.904,1.311-1.24,2.038c-0.448,0.969-1.623,1.721-2.373,2.515
			c-1.049,1.11-2.092,2.093-3.258,3.025c-1.175,0.93-2.474,2.348-3.955,2.804c-1.473,0.453-2.877,1.053-4.41,1.291
			c-2.01,0.313-4.045,0.444-6.065,0.675c-1.778,0.205-3.679-0.248-5.441-0.48c-2.002-0.264-3.751-0.918-5.695-1.379
			c-2.397-0.568-4.729-2.214-6.578-3.589c-1.455-1.082-2.813-2.07-3.964-3.503c-0.564-0.701-3.575-4.453-2.358-4.967
			c1.231-0.52,3.484-0.549,4.371-1.674c0.356-0.45,0.784-0.914,1.141-1.416c0.297-0.418,0.47-0.474,0.551-1.002
			c0.077-0.506,0.172-1.037,0.428-1.488c0.638-1.128,2.77-1.263,3.918-1.218c0.811,0.032,1.527-0.262,2.344-0.292
			c0.577-0.021,1.9-0.214,2.15-0.873c0.084-0.221,0.453-0.318,0.622-0.485c0.338-0.333,0.219-0.511,0.367-0.906
			c0.218-0.596,0.188-0.888-0.413-1.35c-1.43-1.099-3.434-1.266-5.093-1.839c-1.023-0.353-1.834-0.3-2.873-0.419
			c-0.849-0.096-1.581-0.283-2.459-0.25c-1.567,0.058-3.447,0.336-4.634,1.462c-1.018,0.967-2.041,0.229-3.052-0.175
			c-1.384-0.552-1.179-3.892-0.97-5.091c0.133-0.763,0.229-1.599,0.412-2.346c0.206-0.84,1.321-0.157,1.876-0.015
			c2.093,0.534,3.878,0.409,5.918-0.218c0.81-0.248,2.147-0.533,2.723-1.323c1.286-1.762-1.456-2.46-2.491-2.867
			c-0.984-0.378-2.31,0.058-3.375-0.349c0.077-0.641,0.528-1.15,0.666-1.774c0.213-0.963-0.254-1.747-0.93-2.385
			c-0.244-0.23-0.913-0.598-0.772-0.998c0.096-0.273,0.492-0.757,0.65-1.019c0.723-1.199,1.877-2.304,2.943-3.201
			c0.303-0.255,0.789-0.389,1.052-0.63c0.185-0.173,0.927-0.62,0.99-0.817c0.092-0.288,1.839-1.298,2.152-1.277
			c-0.912,1.637,0.732,2.234,1.989,2.384c1.468,0.175,2.728,0.209,3.938-0.761c1.155-0.926,2.217-1.707,3.499-2.437
			c0.572-0.328,1.023-0.812,1.614-1.116c0.642-0.329,1.482-0.447,2.057-0.868c0.317-0.232,0.983-0.249,1.384-0.427
			c0.582-0.258,1.175-0.35,1.803-0.415c1.453-0.151,2.697,0.105,4.114,0.412c1.309,0.284,2.718,0.736,4.038,0.899
			C64.694,31.685,66.38,31.504,67.956,32.065C67.935,33.109,67.042,31.74,67.956,32.065z M57.251,69.999
			c-0.725-0.354-2.016-0.454-2.8-0.294c-0.902,0.185-1.724,0.706-2.267,1.451c-1.137,1.56-0.66,2.682,0.527,3.962
			c1.05,1.131,3.529,1.468,4.658,0.243C58.513,74.12,59.035,70.863,57.251,69.999C57.081,69.916,57.624,70.18,57.251,69.999z"/>
		<path fill-rule="evenodd" clip-rule="evenodd" fill="#FFFFFF" d="M91.811,38.348c-1.461,0.853-3.302,0.6-4.804,1.352
			c-1.106,0.553-0.67,1.121-0.904,2.166c-0.184,0.823-0.221,2.026-1.016,2.533c-0.688,0.439-1.721,0.555-2.512,0.686
			c-0.681,0.113-1.241,0.377-1.537-0.317c-0.252-0.589-0.536-1.164-0.843-1.726c-0.979-1.796-1.94-3.44-3.361-4.904
			c-0.332-0.342-0.768-0.427-1.082-0.721c-0.412-0.383-0.954-0.888-0.646-1.437c0.266-0.473,0.69-0.836,0.878-1.355
			c0.831-0.1,1.436-0.547,2.18,0.113c0.78,0.691,1.483,1.274,2.468,1.668c0.906,0.363,1.894,0.511,2.863,0.381
			c1.141-0.153,2.319-0.074,3.427-0.358C88.232,36.091,91.558,36.707,91.811,38.348C90.171,39.306,91.716,37.728,91.811,38.348z"/>
		<path fill-rule="evenodd" clip-rule="evenodd" fill="#FFFFFF" d="M33.163,35.787c-0.195,0.468-0.538,0.844-0.902,1.186
			c-0.317,0.297-0.62,0.798-0.842,1.026c-0.149,0.149-0.448,0.174-0.519,0.521c-0.07,0.343-0.455,0.386-0.645,0.642
			c-0.174,0.232-0.244,0.52-0.389,0.768c-0.407,0.696-1.037,0.261-1.59,0.02c-0.93-0.406-1.957-0.189-2.908,0.027
			c-0.453,0.103-1.325,0.097-1.416,0.71c-0.134,0.905,0.955,0.497,1.416,0.454c0.899-0.082,1.654-0.307,2.54,0.02
			c0.83,0.307,1.92,0.742,2.612,1.301c1.656,1.337-0.231,1.974-0.033,3.45c0.242,1.772,3.026,1.132,4.189,1.28
			c0.501,0.064,1.821,0.338,2.094,0.814c0.062,0.696-0.695,0.996-1.227,1.183c-1.529,0.535-3.108,0.861-4.766,0.602
			c-0.84-0.131-1.836-0.271-2.617-0.622c-0.364-0.161-0.606-0.48-0.931-0.697c-0.324-0.217-0.796-0.258-1.047-0.583
			c-1.341-0.073-3.17,0.4-4.38-0.348c-0.226-0.139-0.404-0.338-0.509-0.583c-0.396-0.095-0.734-0.299-1.019-0.587
			c-0.64-0.648-0.924-1.409-1.213-2.258c-0.466-1.369-1.698-2.811-3.336-2.465c-0.917,0.194-1.715,0.258-2.629-0.016
			c-0.867-0.26-0.651-1.319-0.433-2.024c0.317-1.026,0.969-0.794,1.882-1.028c1.073-0.272,1.889-0.49,3.04-0.412
			c1.006,0.068,2.005,0.019,3.011,0.062c1.036,0.046,2.057,0.286,3.098,0.267c1.82-0.033,3.502-1.357,5.066-2.139
			C29.957,35.761,31.885,35.235,33.163,35.787C32.815,36.624,32.001,35.286,33.163,35.787z M28.16,43.235
			c-0.401,0.855-0.874,1.676-1.116,2.596c-0.168,0.638-0.298,0.921,0.362,1.183c0.55,0.219,0.704,0.116,0.857-0.359
			C28.546,45.776,29.943,43.367,28.16,43.235C27.652,44.318,30.108,43.379,28.16,43.235z"/>
		<path fill-rule="evenodd" clip-rule="evenodd" fill="#FFFFFF" d="M102.401,54.29c0.175,1.51-0.507,2.457-1.557,3.43
			c-0.461,0.428-1.003,0.61-1.586,0.875c-0.958,0.435-1.456,0.691-2.152,1.497c-1.886,2.184-6.294,1.042-8.479-0.064
			c-0.539-0.273-1.288-0.776-1.588-1.317c-0.361-0.658-0.177-1.496-0.887-1.973c-0.664-0.446-1.527,0.071-2.118,0.389
			c-0.882,0.474-1.643,0.535-2.588,0.193c-0.791-0.287-1.177-0.393-1.8-1.019c-0.429-0.432-1.05-0.876-1.621-1.109
			c-0.692-0.281-1.297-0.518-2.043-0.345c-0.761,0.177-1.544-0.068-2.221,0.082c-0.699,0.155-1.489,0.177-2.082-0.292
			c-0.225-0.739,0.523-1.24,0.984-1.677c1.163-1.103,3.256-1.043,4.753-0.766c1.257,0.233,2.517,0.187,3.748,0.41
			c1.352,0.244,1.863,0.725,2.95-0.351c0.996-0.986,2.763-0.699,4.014-0.409c1.966,0.455,4.025,1.177,5.863,2.004
			c1.057,0.475,1.908-0.089,2.937-0.291c0.843-0.165,1.716-0.424,2.518-0.731c0.824-0.316,1.87,0.291,2.483,0.887
			C102.11,53.887,102.267,54.08,102.401,54.29C102.655,56.483,101.856,53.437,102.401,54.29z M81.339,54.523
			c-0.285,0.762-0.366,1.908,0.812,1.413c0.392-0.164,0.235-0.548,0.235-0.91C82.386,54.416,81.884,54.476,81.339,54.523
			C81.208,54.872,81.763,54.487,81.339,54.523z"/>
		<path fill-rule="evenodd" clip-rule="evenodd" fill="#FFFFFF" d="M45.266,60.456c-0.341,0.665-0.975,1.302-1.763,1.33
			c-0.811,0.029-1.488,0.44-2.276,0.445c-1.973,0.012-3.456,0.069-5.101,1.204c-0.532,0.367-0.802,1.486-0.925,2.142
			c-0.124,0.658-0.699,1.376-1.195,1.877c-0.558,0.564-1.418,0.56-2.098,0.895c-0.823,0.405-1.742,0.513-2.649,0.574
			c-0.627,0.043-3.484-0.427-3.719,0.265c-0.027,0.08-0.627,0.511-0.751,0.521c-0.683,0.052-1.294,0.855-2.005,1.022
			c-1.321,0.311-3.295,0.439-4.514-0.266c-1.259-0.727-2.152-1.666-3.025-2.909c-1.027-1.464-2.296-1.816-3.964-2.236
			c-1.846-0.466-3.664,0.08-5.404-0.946c-1.459-0.861-0.987-2.046,0.15-2.935c0.455-0.356,0.956-0.641,1.422-0.981
			c0.211-0.167,0.096-0.609,0.131-0.829c0.065-0.415,1.164-0.541,1.509-0.639c1.799-0.512,3.539-0.342,5.344,0.09
			c1.854,0.444,3.048,1.171,5.015,0.43c1.665-0.627,3.131-1.308,4.956-0.888c1.891,0.435,3.636,1.228,5.504,1.721
			c2.196-1.144,4.321-2.625,6.949-2.269C39.453,58.425,43.182,58.689,45.266,60.456C44.989,60.996,44.274,59.616,45.266,60.456z"/>
		<path fill-rule="evenodd" clip-rule="evenodd" fill="#FFFFFF" d="M36.771,80.588c0.507-0.424,3.077,1.603,3.607,1.862
			c1.603,0.771,3.519,1.263,5.236,1.745c1.499,0.418,3.11,0.516,4.642,0.729c2.196,0.305,4.328,0.166,6.525-0.047
			c1.873-0.182,3.707-0.375,5.569-0.64c0.888-0.126,1.47-0.677,2.315-0.866c0.969-0.217,1.66-0.737,2.504-1.236
			c1.202-0.71,2.562-1.59,3.505-2.611c0.475-0.514,1.216-0.911,1.589-1.496c0.634,0.175,0.11,1.645-0.17,2.033
			c-0.337,0.467-0.384,1.018-0.726,1.52c-0.383,0.561-0.821,1.053-1.422,1.387c-1.541,0.858-3.204,1.493-4.781,2.274
			c-1.462,0.729-3.396,1.273-5.023,1.365c-0.923,0.052-1.848,0.055-2.767-0.038c-1.136-0.115-2.194,0.238-3.328,0.222
			c-1.929-0.028-3.811-0.65-5.738-0.628c-0.938,0.011-1.766-0.086-2.692-0.223c-0.361-0.053-0.726-0.04-1.088-0.071
			c-0.474-0.041-0.701-0.349-1.122-0.51c-0.647-0.249-1.223-0.402-1.861-0.699c-0.524-0.244-0.889-0.494-1.358-0.731
			c-0.676-0.342-1.055-0.878-1.659-1.292c-0.586-0.402-1.318-0.789-1.635-1.462C36.802,80.99,36.762,80.794,36.771,80.588
			C37.128,80.289,36.719,81.651,36.771,80.588z"/>
		<path fill-rule="evenodd" clip-rule="evenodd" fill="#FFFFFF" d="M32.931,90.711c0.89-1.691,1.512-3.517,2.374-5.227
			c0.414-0.821,0.863-1.636,1.465-2.336c0.872,0.186,1.548,1.102,2.28,1.557c2.491,1.548,5.359,2.521,8.31,2.75
			c1.035,0.079,2.078,0.031,3.109,0.156c0.964,0.117,1.832,0.469,2.816,0.485c0.897,0.015,1.696-0.221,2.569-0.293
			c1.146-0.094,2.304,0.147,3.457,0.098c1.825-0.078,3.648-0.44,5.381-1.016c1.749-0.581,3.306-1.776,5.068-2.381
			c1.372-0.471,2.602-1.435,3.084-2.867c0.692,0,1.462,1.466,1.977,1.978c0.634,0.63,1.161,1.223,1.742,1.901
			c0.9,1.052,1.994,2.857,0.995,4.073c-0.45,0.548-0.981,1.025-1.493,1.514c-0.263,0.252-0.505,0.524-0.762,0.782
			c-0.302,0.303-0.737,0.309-1.007,0.631c-0.809,0.964-2.61,1.746-3.733,2.346c-1.346,0.718-2.752,1.447-4.119,1.902
			c-0.839,0.275-1.595,0.495-2.443,0.697c-0.739,0.179-1.633,0.248-2.328,0.466c-1.426,0.445-2.688,0.782-4.189,0.814
			c-1.296,0.032-2.608-0.124-3.911-0.11c-1.337,0.015-2.687,0.032-4.014-0.163c-1.06-0.156-2.076-0.472-3.13-0.658
			c-0.572-0.101-1.15-0.085-1.567-0.39c-0.427-0.311-0.966-0.389-1.458-0.541c-0.329-0.102-0.746-0.123-1.047-0.233
			c-0.452-0.167-0.698-0.472-1.203-0.544c-1.048-0.149-1.782-0.786-2.67-1.306c-0.943-0.553-1.921-1.116-2.767-1.814
			C34.786,92.215,33.616,91.757,32.931,90.711C33.597,89.446,33.546,91.65,32.931,90.711z"/>
		<path fill-rule="evenodd" clip-rule="evenodd" fill="#FFFFFF" d="M78.896,87.105c1.389,0.251,2.914,0.401,2.831,2.183
			c-0.068,1.457-0.926,3-1.785,4.101c-1.071,1.362-2.56,2.719-3.997,3.673c-1.148,0.762-2.368,1.83-3.568,2.378
			c-1.327,0.65-3.198,1.454-4.697,1.717c-0.744,0.131-1.412,0.47-2.157,0.565c-1.133,0.144-2.252,0.285-3.373,0.513
			c-1.464,0.298-2.728,0.711-4.235,0.898c-2.037,0.253-3.941,0.369-5.992,0.19c-1.044-0.091-2.093-0.119-3.137-0.218
			c-0.848-0.08-1.815-0.607-2.648-0.523c-0.753,0.076-1.731-0.512-2.448-0.737c-0.225-0.071-0.848-0.163-0.931-0.427
			c-0.09-0.284-0.699-0.162-0.942-0.354c-0.543-0.428-1.629-0.526-2.285-0.848c-0.87-0.428-1.712-0.91-2.568-1.366
			c-0.487-0.259-1.075-0.665-1.573-0.861c-0.906-0.357-1.474-1.324-2.29-1.922c-0.438-0.321-1.4-0.749-1.515-1.339
			c-0.129-0.663-0.756-1.028-0.983-1.57c-0.291-0.693-0.086-1.584,0.343-2.174c0.541-0.744,1.2,0.697,1.539,1.116
			c1.033,1.276,2.83,1.891,4.061,2.984c0.77,0.684,1.99,1.57,3.025,1.804c1.884,0.426,3.536,1.555,5.42,1.964
			c2.055,0.446,3.985,0.751,6.079,0.963c1.681,0.17,3.36,0.122,5.015,0.093c1.146-0.02,2.297,0.003,3.439-0.11
			c0.96-0.095,1.803-0.487,2.743-0.669c1.875-0.362,3.654-0.773,5.436-1.481c1.848-0.734,4.114-1.636,5.605-2.977
			c0.796-0.177,1.247-0.854,1.911-1.255c0.768-0.464,1.312-1.006,2.005-1.635C78.758,90.388,79.683,89.183,78.896,87.105
			C80.126,87.328,79.267,88.084,78.896,87.105z"/>
	</g>
	<g>
	</g>
	<g>
	</g>
	<g>
	</g>
	<g>
	</g>
	<g>
	</g>
	<g>
	</g>
</g>
</svg>
