<svg xmlns="http://www.w3.org/2000/svg" width="13.22665" height="13.00141" viewBox="0 0 13.22665 13.00141">
  <defs>
    <style>
      .a {
        fill: #fff;
      }
    </style>
  </defs>
  <title>shopping_cart_diappear</title>
  <g>
    <path class="a" d="M0.82767,6.44238A3.64144,3.64144,0,0,1,.30466,6.28a0.5498,0.5498,0,0,1-.28675-0.6398,0.55608,0.55608,0,0,1,.60666-0.343,2.01749,2.01749,0,0,1,.541.20035,0.58136,0.58136,0,0,1,.26331.65218A0.531,0.531,0,0,1,.82767,6.44238Z"/>
    <path class="a" d="M12.42058,5.1701a0.4975,0.4975,0,0,1-.47728-0.78489,0.84715,0.84715,0,0,1,.93945-0.39738,0.51532,0.51532,0,0,1,.3338.53815A0.8434,0.8434,0,0,1,12.42058,5.1701Z"/>
    <path class="a" d="M5.87692,0.6203a0.55293,0.55293,0,0,1,.415-0.61474,0.55655,0.55655,0,0,1,.60814.42582,1.05439,1.05439,0,0,1-.0143.45705,0.43825,0.43825,0,0,1-.434.39819A0.53973,0.53973,0,0,1,5.933.89922,1.717,1.717,0,0,1,5.87692.6203Z"/>
    <path class="a" d="M11.564,12.08346a0.9563,0.9563,0,0,1-.76568-0.68678,0.46172,0.46172,0,0,1,.554-0.50223,0.88919,0.88919,0,0,1,.65148.5242A0.446,0.446,0,0,1,11.564,12.08346Z"/>
    <path class="a" d="M4.6075,12.3412a0.61532,0.61532,0,0,1-.57343.66006,0.52653,0.52653,0,0,1-.48528-0.53709A0.7125,0.7125,0,0,1,4.139,11.85275,0.50055,0.50055,0,0,1,4.6075,12.3412Z"/>
  </g>
</svg>
