<svg xmlns="http://www.w3.org/2000/svg" width="13.22665" height="13.00141" viewBox="0 0 13.22665 13.00141">
  <defs>
    <style>
      .a {
        fill: #fff;
      }
    </style>
  </defs>
  <title>shopping_cart_diappear</title>
  <g>
    <path class="a" d="M9.28648,6.95792a2.68834,2.68834,0,0,1-.52192-0.18211,0.55143,0.55143,0,0,1-.04508-0.85675,5.96014,5.96014,0,0,1,1.65393-.8353c0.13065-.032.26924-0.03022,0.40346-0.049a0.50484,0.50484,0,0,1,.57939.29035,0.73687,0.73687,0,0,1-.15031.75477,0.83606,0.83606,0,0,1-.18942.1328c-0.41535.21084-.82941,0.42482-1.25146,0.62152A2.79107,2.79107,0,0,1,9.28648,6.95792Z"/>
    <path class="a" d="M2.75183,5.97241a4.51442,4.51442,0,0,1,.662.13912,4.37088,4.37088,0,0,0,.88158.256,0.82253,0.82253,0,0,1,.53143.67916,0.46157,0.46157,0,0,1-.48879.461,3.56108,3.56108,0,0,1-.67757-0.12194c-0.39089-.0943-0.782-0.19059-1.16594-0.3092a1.33,1.33,0,0,1-.39259-0.235,0.46791,0.46791,0,0,1-.18955-0.5123,0.52027,0.52027,0,0,1,.47678-0.35563C2.46592,5.96625,2.544,5.97241,2.75183,5.97241Z"/>
    <path class="a" d="M10.81555,10.33751a0.50726,0.50726,0,0,1-.67414.57408,1.20822,1.20822,0,0,1-.36072-0.18327c-0.4289-.36328-0.85532-0.7305-1.265-1.1151a0.47444,0.47444,0,0,1-.05123-0.72059,0.499,0.499,0,0,1,.606-0.20716,0.71719,0.71719,0,0,1,.25807.13159c0.42611,0.367.85624,0.73067,1.26139,1.12A1.32335,1.32335,0,0,1,10.81555,10.33751Z"/>
    <path class="a" d="M7.4042,3.80736a4.9954,4.9954,0,0,1-.00444.58132,0.52871,0.52871,0,0,1-.45748.39244,0.42234,0.42234,0,0,1-.50737-0.18843,0.65893,0.65893,0,0,1-.09448-0.26582c-0.07536-.51494-0.14469-1.0308-0.21137-1.547a1.95806,1.95806,0,0,1-.01363-0.349,0.44681,0.44681,0,0,1,.33829-0.42729,0.4931,0.4931,0,0,1,.58456.13712,1.29176,1.29176,0,0,1,.23274.45885C7.348,2.997,7.38456,3.40226,7.43739,3.80435Z"/>
    <path class="a" d="M6.3804,10.02291a3.2981,3.2981,0,0,1-.21951.51593,8.71039,8.71039,0,0,1-.569.80247,0.67907,0.67907,0,0,1-.30677.24814,0.53964,0.53964,0,0,1-.59676-0.10653,0.53039,0.53039,0,0,1-.11581-0.58676A4.64679,4.64679,0,0,1,4.818,10.37722c0.192-.31217.40954-0.60853,0.60456-0.91894a0.51608,0.51608,0,0,1,.91712.14147A1.97057,1.97057,0,0,1,6.3804,10.02291Z"/>
  </g>
</svg>
