<?xml version="1.0" encoding="utf-8"?>
<!-- Generator: Adobe Illustrator 18.1.1, SVG Export Plug-In . SVG Version: 6.00 Build 0)  -->
<!DOCTYPE svg PUBLIC "-//W3C//DTD SVG 1.0//EN" "http://www.w3.org/TR/2001/REC-SVG-20010904/DTD/svg10.dtd">
<svg version="1.0" id="Layer_1" xmlns="http://www.w3.org/2000/svg" xmlns:xlink="http://www.w3.org/1999/xlink" x="0px" y="0px"
	 viewBox="0 0 130.4 131" enable-background="new 0 0 130.4 131" xml:space="preserve">
<g>
	<path fill="#FFFFFF" d="M98.2,66.8c-0.3-0.8-0.7-1.6-1-2.4c-0.5-1.5-1.3-2.7-2.4-3.8c-0.7-0.6-1.4-1.1-2.2-1.5
		c-1.9-0.8-3.9-0.7-5.9-0.1c-0.7,0.2-1.5,0.5-2.2,0.8c-0.4,0.1-0.7,0.1-0.9-0.2c-0.2-0.3-0.1-0.7,0.2-0.9c0.2-0.2,0.4-0.3,0.6-0.5
		c0-0.6,0-1.3,0-1.9c0-0.2,0-0.4-0.1-0.5c-0.2-0.6-0.4-1.1-0.7-1.7c0-0.1-0.1-0.2-0.2-0.3c-1.1-1.3-2.5-1.7-4.1-1.5
		c-0.8,0.1-1.5,0.4-2.3,0.7c-0.4,0.1-0.8,0.2-1.2,0.1c-0.3-0.1-0.6-0.1-0.9-0.1c-0.4,0-0.8-0.1-1.2-0.1c-0.7,0-0.8,0.2-0.7,0.8
		c0,0.3,0.1,0.5,0.1,0.7c-0.1,0.1-0.3,0.2-0.4,0.3c-0.9,0.7-1.6,1.6-1.7,2.8c-0.1,1,0.1,2,0.6,2.9c0.4,0.7,0.2,1.2-0.6,1.4
		c-0.1,0-0.3,0-0.5,0.1c-1,0.2-1.9,0.5-2.8,0.9c-0.9,0.4-1.7,0.8-2.5,1.3c-1,0.6-2.1,0.6-3.2,0.6c-0.8,0-1.5,0-2.3,0
		c-1.2,0.1-2.5,0.3-3.7,0.4c-1.4,0.1-2.8,0.3-4.2,0.5c-0.2,0-0.3,0.1-0.5,0.1c-0.6,0.2-1.3,0.4-1.9,0.5c-1,0.3-2,0.4-3,0.8
		c-1.8,0.6-3.7,1.2-5.5,2c-0.5,0.2-0.9,0.6-1.4,0.9c-0.3,0.2-0.4,0.6-0.5,1c-0.1,0.7,0.4,1.2,1.1,1.1c0.9-0.1,1.7-0.4,2.5-0.7
		c1-0.3,2-0.6,2.9-0.9c1.4-0.5,2.8-0.9,4.2-1c0.4,0,0.8,0,1.3,0c2-0.2,4-0.4,6-0.6c1.8-0.2,1.4,0,2.6-1.4c0.2-0.2,0.4-0.5,0.6-0.7
		c0.2-0.2,0.7-0.2,0.9,0c0.2,0.2,0.3,0.6,0.1,0.9c-0.1,0.2-0.2,0.3-0.3,0.4c-0.7,0.7-1.3,1.4-2,2.2c-0.6,0.7-1.2,1.3-1.7,2
		c-0.7,1-1.3,2-2,2.9c-1.2,1.6-2.3,3.3-3.1,5.2c-0.2,0.5-0.4,0.9-0.7,1.3c-0.1,0.2-0.3,0.4-0.5,0.6c-0.3-0.1-0.5-0.1-0.7-0.1
		c-1.7-0.4-3.4-0.5-5.1-0.2c-1,0.2-1.9,0.4-2.9,0.7c-1.5,0.4-3,0.9-4.1,2c-0.7,0.7-1.5,1.4-2,2.2c-0.8,1.3-1.5,2.7-2.1,4.1
		c-0.4,1-0.8,2.1-1.1,3.2c-0.5,2.6-1.1,5.1-1.2,7.8c0,1.1-0.1,2.2,0.1,3.3c0.2,1.2,0.4,2.4,0.6,3.6c0.1,0.6,0.2,1.2,0.4,1.8
		c0.1,0.3,0.3,0.6,0.5,0.9c0.6,0.8,1.1,0.9,2,0.5c0.4-0.2,0.7-0.4,0.9-0.7c0.6-0.8,0.9-1.6,1.1-2.5c0.3-1.8,0.5-3.7,0.5-5.6
		c0-0.5-0.1-1,0-1.4c0.3-1.9,0.6-3.7,1.2-5.5c0.3-0.8,0.7-1.5,1-2.3c0.7-1.8,1.8-3.3,3.2-4.7c1-1,2.2-1.4,3.7-1.4
		c0.7,0,1.4,0,2.1,0.1c0.6,0.1,1.2,0.1,1.8,0.3c0.6,0.1,1,0.4,1.5,0.8c0.2,0.2,0.2,0.3,0.2,0.6c-0.3,1.3-0.6,2.6-0.9,3.9
		c-0.4,1.8-1,3.6-1.3,5.4c-0.4,1.8-0.7,3.7-1,5.6c-0.2,1-0.2,2.1-0.1,3.1c0.1,1.1,0.4,2.2,0.8,3.3c0.2,0.5,0.3,1,0.7,1.4
		c0.7,0.8,1.4,1.6,2.1,2.2c1.5,1.2,3.2,2,5.1,2.5c1,0.3,2.1,0.4,3.1-0.1c0.2-0.1,0.3-0.2,0.5-0.2c1.5-0.3,2.3-2.1,2-3.5
		c0-0.3-0.2-0.5-0.4-0.6c-0.5-0.2-0.9-0.4-1.4-0.6c-1.1-0.3-2.3-0.6-3.3-1.2c-1.2-0.8-2.3-1.7-2.8-3.1c-0.1-0.3-0.2-0.7-0.3-1.1
		c-0.5-1.4-0.4-2.7-0.2-4.1c0.2-1.4,0.6-2.8,1-4.1c0.6-1.9,1.2-3.8,2.1-5.6c0.3-0.7,0.6-1.4,1-2.1c0.6-1,1.2-1.9,1.7-2.9
		c0.7-1.2,1.3-2.4,2-3.5c1-1.8,2.1-3.5,3.2-5.3c0.4-0.7,0.9-1.4,1.5-1.9c0.3-0.3,0.6-0.6,0.9-1c0.6-0.6,1.2-1.3,1.9-1.9
		c1.7-1.5,3.5-3,5.3-4.4c0.6-0.5,1.1-1.1,1.7-1.5c1.2-0.9,2.4-1.9,3.7-2.7c0.9-0.6,1.9-1.1,2.9-1.6c1-0.5,2.1-0.6,3.2-0.8
		c1.2-0.2,2.4-0.1,3.5,0.2c1.4,0.3,2.4,1.2,2.9,2.5c0.2,0.6,0.4,1.1,0.6,1.7c0.2,0.6,0.5,1.3,0.4,1.9c-0.1,0.9,0.1,1.7,0.2,2.5
		c0.1,0.6,0.4,1.1,1.2,1.3c0.5,0.1,1,0.1,1.6,0.1c0.6,0,0.9-0.3,1-0.8c0.1-0.4,0.2-0.8,0.1-1.2c-0.1-1.1-0.4-2.1-0.6-3.2
		C98.5,67.7,98.3,67.3,98.2,66.8z"/>
	<path fill="#FFFFFF" d="M130.4,62.1c0-0.2-0.2-0.2-0.2-0.4c0-0.9,0.3-2.2,0.2-2.8c0-0.1-0.2-0.2-0.2-0.1c-0.1-1.2-0.1-2.3-0.2-3.5
		c-0.1-0.9-0.4-2.4-0.4-2.7c0-0.1-0.2-0.1-0.2-0.1c0-0.4,0.1-0.8,0-1.1c-0.1-0.6-0.7-1.5-0.8-1.8c-0.1-0.3,0-0.6-0.1-0.8
		c-0.3-0.9-0.6-1.8-0.9-2.7c-0.7-1.8-1.1-3.7-1.7-5.5c-0.2-0.7-0.4-1.5-0.7-2c-0.1-0.2-0.3-0.3-0.3-0.5c-0.2-0.5-0.2-1-0.3-1.5
		c-0.1-0.2-0.3-0.3-0.3-0.5c-0.1-0.3,0-0.6-0.1-0.8c-0.1-0.2-0.2-0.3-0.3-0.5c-0.1-0.2-0.1-0.5-0.2-0.7c-0.5-1.1-1-1.9-1.5-2.9
		c-0.5-1-1.3-1.9-1.9-2.5c-0.1-0.1-0.1-0.3-0.2-0.4c-0.1-0.1-0.4-0.1-0.4-0.2c-0.2-0.2-0.2-0.5-0.4-0.8c-0.1-0.2-0.5-0.4-0.6-0.6
		c-0.3-0.4-0.7-1-1-1.4c-1.4-1.8-3-3.4-4.1-5.6c-0.8-0.6-1.5-1.4-2.2-2.1c-0.4-0.4-0.7-0.6-1.1-1c-0.3-0.3-0.7-0.5-0.9-0.7
		c-0.1-0.1-0.1-0.3-0.2-0.4c-1.1-1.1-2.2-2.1-3.2-3.2c-0.1-0.1-0.2-0.1-0.3-0.2c-0.1-0.1-0.1-0.3-0.2-0.4c-0.8-1-1.7-1.3-2.6-2
		c-0.1-0.1-0.2-0.4-0.3-0.5c-0.2-0.2-0.4-0.2-0.6-0.3c-0.6-0.4-1.3-0.9-1.8-1.2c-0.1-0.1-0.2-0.2-0.3-0.2c-0.4-0.2-0.8-0.3-1.2-0.5
		c-0.4-0.2-0.7-0.4-1.1-0.7c-0.4-0.2-0.7-0.6-1.2-0.7c-1.1-0.2-2.1-0.5-3-1c-0.1,0-0.1-0.2-0.2-0.3c-0.1-0.1-0.3,0-0.4-0.1
		c-0.8-0.4-1.6-0.4-2.2-1c-0.9,0.1-1.6-0.4-2.4-0.5c-0.9-0.2-1.8-0.1-2.7-0.2c-0.8-0.1-1.7-0.2-2.6-0.4C82.3,2.2,81.9,2,81.4,2
		c-0.5,0-1,0.1-1.5,0.1c-0.8-0.1-1.6-0.4-2.4-0.5c-0.4-0.1-0.9,0-1.3-0.1C75.8,1.4,75.4,1.1,75,1c-0.8-0.2-1.6-0.4-2.4-0.5
		c-0.4-0.1-0.9,0-1.4-0.1C70.8,0.3,70.4,0.1,70,0c-0.5,0-1,0.1-1.5,0.1C68,0.1,67.5,0,67,0c-1.8,0.1-3.5,0.6-5.3,0.7
		c-0.6,0-1.1-0.2-1.7-0.2c-0.5,0-1.1,0.1-1.7,0.1c-1.3,0-3.2-0.3-4.2,0.1c-1.6,0.6-3.5,0.4-5.2,0.8c-0.9,0.2-1.8,0.7-2.6,1
		c-1,0.4-2,0.5-3,0.8c-0.4,0.1-0.7,0.2-1.1,0.4c0.1,0.1,0.2,0.3,0.3,0.4c0.2,0.3,0.3,0.6,0.5,0.9c0.4,0.6,0.8,1.1,1.1,1.6
		c0.1,0.2,0.2,0.5,0.4,0.7c0.2,0.2,0.4,0.8,0.6,1.1c0.2,0.3,0.4,0.6,0.5,0.9c0.2,0.3,0.3,0.6,0.5,1c0.2,0.3,0.4,0.6,0.6,1
		c0.4,0.6,0.7,1.2,1.1,1.7c0,0,0.2,0.1,0.2,0.1c0,0.1,0,0.2,0.1,0.3c0.1,0.1,0.2,0.1,0.3,0.2c0.1,0.2,0.2,0.5,0.3,0.7
		c0.1,0.2,0.2,0.4,0.4,0.6c0.1,0.1,0.1,0.2,0.2,0.3c0.1,0.1,0.2,0.1,0.2,0.2c0.1,0.2,0.2,0.5,0.3,0.7c0.2,0.3,0.5,0.5,0.7,0.8
		c0.1,0.1,0.2,0.5,0.3,0.8c0.1,0.2,0.3,0.4,0.5,0.7c0.1,0.2,0.3,0.5,0.4,0.8c0.6,1,1.1,1.7,1.8,3c0.3,0.6,0.7,1.2,0.6,1.6
		c0,0.2-0.3,0.4-0.6,0.7c-0.1,0.1-0.3,0.2-0.5,0.2c-0.1,0.1-0.2,0.2-0.3,0.3c-0.4,0.2-1,0.5-1.5,0.7c-0.1,0.1-0.3,0.1-0.4,0.2
		c-0.1,0-0.1,0.2-0.2,0.2c-0.9,0.5-2.9,0.8-3.9,1.6c0.1,0.4,0.4,0.7,0.6,1.1c0.8,1.3,1.5,2.6,2.4,3.8c0.2,0.3,0.4,0.6,0.7,1
		c0.3,0.5,0.7,1,1,1.5c0.2,0.3,0.3,0.5,0.5,0.8c0.4,0.5,0.8,1.3,1.2,1.8c0,0.1,0.1,0.2,0.2,0.3c0.1,0.1,0.1,0.1,0.2,0.1
		c0.1,0.1,0.1,0.2,0.2,0.3c0.1,0.1,0.2,0.1,0.2,0.2c0.1,0.1,0.2,0.1,0.2,0.2c0.1,0.1,0,0.2,0.1,0.3c0.2,0.3,0.5,0.6,0.7,0.9
		c0.2,0.4,0.4,0.8,0.7,1.2c0.1,0.1,0.2,0.1,0.2,0.2c0.2,0.3,0.3,0.6,0.5,0.8c0.2,0.3,0.5,0.7,0.7,1c0.2,0.3,0.4,0.8,0.6,1.1
		c0.2,0.3,0.4,0.4,0.6,0.7c0.1,0.2,0.2,0.5,0.3,0.7c0,0.1,0.2,0.2,0.2,0.3c0.1,0.1,0.1,0.3,0.1,0.4c0.1,0.2,0.3,0.4,0.4,0.5
		c0.1,0.2,0.2,0.4,0.4,0.6c0.4,0.6,0.8,1.1,1.2,1.8c0.2,0.4,0.4,0.7,0.6,1.1c0.2,0.3,0.5,0.8,0.8,1.3c0.5,1,1.2,2.1,1.7,3
		c0,0.1,0.1,0.1,0.1,0.2c0.1,0.2,0.1,0.4,0.3,0.7c0.1,0.1,0.1,0.3,0.2,0.4c0.1,0.2,0.4,0.5,0.6,0.7c0.1,0.1,0,0.2,0,0.3
		c0.1,0.5,0.9,1.1,0.7,1.7c-0.2,0-0.2,0.2-0.3,0.2c-0.3,0-0.6-0.1-1-0.1c-0.2-0.2-0.3-0.3-0.5-0.5c-0.1-0.2-0.3-0.4-0.4-0.6
		c-0.1-0.2-0.3-0.3-0.5-0.5c-0.2-0.2-0.2-0.4-0.4-0.6c-0.2-0.2-0.4-0.3-0.6-0.5c-0.1-0.1-0.1-0.2-0.3-0.3c-0.1-0.1-0.2-0.1-0.3-0.2
		c-0.2-0.2-0.2-0.4-0.4-0.6c-0.2-0.3-0.6-0.5-0.9-0.8c-0.1-0.2-0.2-0.4-0.3-0.5c-0.1-0.1-0.3-0.3-0.5-0.5c-0.1-0.1-0.2,0-0.3-0.1
		c-0.2-0.2-0.4-0.5-0.6-0.8c-0.1-0.2-0.3-0.3-0.4-0.5c-0.1-0.1-0.2-0.1-0.3-0.2c-0.1-0.1-0.1-0.2-0.2-0.3c-0.2-0.2-0.4-0.4-0.7-0.7
		c-0.1-0.1-0.1-0.2-0.2-0.3c-0.1-0.2-0.3-0.2-0.4-0.4c-0.2-0.2-0.3-0.4-0.4-0.6c-0.2-0.3-0.5-0.6-0.9-1c-0.3-0.4-0.7-0.8-1-1.2
		c-0.1-0.1-0.2-0.1-0.2-0.2c-0.1-0.2-0.2-0.5-0.4-0.6c-0.2-0.1-0.3-0.2-0.5-0.3c-0.2-0.4-0.4-0.5-0.6-0.8c-0.1-0.2-0.3-0.1-0.5-0.3
		c-0.2-0.2-0.4-0.4-0.6-0.6c-0.2-0.2-0.3-0.4-0.6-0.5c-0.1-0.4-0.5-0.6-0.8-0.9c-0.1-0.1-0.2-0.4-0.3-0.5c-0.1-0.1-0.2-0.3-0.4-0.3
		c-0.2-0.6-0.7-1-1.1-1.5c0-0.1-0.1-0.1-0.2-0.2c-0.1-0.2-0.4-0.4-0.6-0.7c-0.2-0.3-0.4-0.7-0.7-1.1c-0.1-0.2-0.3-0.3-0.3-0.5
		c-0.1-0.2-0.4-0.1-0.5-0.3c-0.1-0.4-0.5-0.7-0.8-1c-0.2-0.2-0.2-0.3-0.4-0.6c-0.1-0.1-0.3-0.2-0.4-0.4c-0.1-0.1-0.1-0.3-0.2-0.4
		c0,0-0.2-0.1-0.2-0.1c0-0.1,0-0.2-0.1-0.2c-0.2-0.3-0.6-0.5-0.8-0.7c-0.1-0.3-0.2-0.5-0.4-0.7c-0.3-0.4-0.7-0.6-1.1-1.1
		c-0.2-0.2-0.3-0.5-0.6-0.8c-0.2-0.2-0.4-0.4-0.6-0.7c-0.1-0.1-0.1-0.2-0.1-0.3c0,0-0.2-0.1-0.2-0.1c-0.1-0.1-0.1-0.2-0.1-0.3
		c0,0-0.1,0-0.2-0.1c-0.1-0.1-0.2-0.2-0.3-0.3c-0.1-0.1-0.1-0.3-0.3-0.5c-0.1-0.1-0.2-0.2-0.3-0.3c-0.4-0.5-0.8-1-1.2-1.5
		c-0.1-0.1-0.2-0.2-0.3-0.3c-0.3-0.3-0.6-0.8-0.9-1.2c-0.3-0.4-0.5-0.7-0.8-1.1c-0.1-0.1-0.1-0.2-0.2-0.3c-0.2-0.2-0.4-0.2-0.5-0.5
		c0-0.1,0-0.3,0-0.4c0-0.1,0.1-0.2,0.1-0.3c0-0.3,0.1-0.5,0.1-0.7c0.5-0.1,0.8-0.5,1.2-0.7c0.3-0.2,0.7-0.2,1.1-0.3
		c0.7-0.2,1.2-0.6,1.9-0.9c0.4-0.2,0.8-0.2,1.1-0.4c0.2-0.2,0.4-0.5,0.7-0.7c-0.2-0.5-0.5-1-0.8-1.4c-0.3-0.5-0.5-1-0.9-1.2
		c-0.2-0.3-0.3-0.7-0.4-1c-0.1-0.2-0.4-0.4-0.5-0.7c-0.1-0.1-0.1-0.3-0.2-0.4c-0.2-0.3-0.5-0.8-0.7-1.2c-0.2-0.2-0.3-0.4-0.5-0.6
		c-0.1-0.2-0.1-0.4-0.3-0.5c-0.1-0.2-0.1-0.4-0.1-0.5c-0.1-0.2-0.2-0.1-0.3-0.2c-0.2-0.2,0-0.3-0.2-0.6c-0.1-0.1-0.3-0.1-0.4-0.3
		c0-0.4-0.5-0.8-0.4-1.1c-0.2-0.2-0.3-0.3-0.5-0.5c0,0-0.1-0.1-0.1-0.1c-0.3-0.4-0.8-0.6-0.7-1.4c-0.3-0.1-0.4-0.4-0.6-0.7
		c0-0.1-0.1-0.1-0.1-0.2c0,0,0,0-0.1,0c-0.2,0.1-0.3,0.4-0.5,0.5C33.1,8,32.8,8,32.6,8.1c-0.2,0.1-0.4,0.3-0.5,0.3
		c-0.7,0.4-1.5,0.8-2.1,1.1c-0.6,0.4-0.9,0.7-1.4,1c-0.5,0.3-1.1,0.4-1.6,0.6c-1.4,0.7-2.5,1.4-3.6,2.3c-0.8,0.6-1.9,1.4-2.5,2
		c-0.6,0.6-1.5,1.2-2,1.7c-0.6,0.4-1,0.9-1.5,1.3c-0.6,0.8-1.6,1.3-2.1,1.9C15.2,20.6,15,21,15,21c-0.1,0.1-0.2,0.1-0.3,0.2
		c-1,1.2-2.2,2.5-3,3.6c-0.2,0.3-0.2,0.6-0.4,0.9c0,0-0.2,0-0.3,0c-0.3,0.2-0.4,0.7-0.4,0.9c0,0-0.2,0.1-0.3,0.2
		c-0.3,0.5-0.6,0.7-0.8,1.1c-0.2,0.3-0.3,0.6-0.4,0.9c-0.2,0.3-0.4,0.5-0.6,0.8c-0.2,0.3-0.3,0.6-0.4,0.9c-1.2,2.2-2.4,4.5-3.2,7.1
		c-0.6,1.9-1.3,3.9-1.9,5.7c-0.2,0.7-0.6,1.4-0.7,1.9c-0.1,0.3,0.1,0.8,0,1.1c0,0.4-0.2,0.6-0.3,0.9c-0.1,0.3-0.1,0.6-0.1,1
		c-0.1,0.3-0.2,0.6-0.3,0.9c-0.1,0.3-0.3,0.6-0.3,0.9c0,0.3,0.1,0.7,0,1.1c0,0.3-0.3,0.6-0.3,0.9c-0.1,0.4,0.1,0.8,0,1.3
		c-0.1,0.7-0.2,1.3-0.3,2c0,0-0.2,0.2-0.2,0.3c-0.1,0.7,0.1,1.2,0.1,1.8C0.3,58.6,0,60,0,61.4c0,1,0.1,2.2,0.3,3.2
		c0.1,0.6,0.3,1.1,0.3,1.6c0.1,0.5-0.1,1.1-0.1,1.7c0.1,1.1,0.2,2.3,0.3,3.4C0.9,72.2,1,73.6,1.1,74c0,0-0.1,0-0.1,0.2
		c0.1,1,0.4,2.3,0.6,3.4c0.3,1.3,0.6,3,0.7,4.1c0,0.4,0.2,0.8,0.2,0.8c0.4,1.7,0.7,3.3,1.2,4.8c0.3,1,0.5,2,0.9,2.9
		c0.2,0.4,0.5,0.8,0.7,1.2c0.3,0.5,0.4,1,0.6,1.5c0.2,0.4,0.5,0.8,0.7,1.2c0.2,0.4,0.4,0.9,0.6,1.3c0.1,0.2,0.4,0.2,0.5,0.4
		c0.1,0.2,0.1,0.6,0.2,0.8c0.3,0.7,0.7,1.5,1,2C9,98.7,9,99,9.2,99.2c0.2,0.5,0.5,0.8,0.7,1.2c0.5,0.9,0.8,1.8,1.3,2.6
		c0.1,0.2,0.3,0.2,0.5,0.4c0.2,0.2,0.2,0.5,0.4,0.6c0.5,0.7,0.9,1.6,1.2,2.1c0.4,0.4,0.7,1.1,1,1.5c0.1,0.2,0.5,0.3,0.6,0.5
		c0.1,0.1,0.1,0.3,0.2,0.4c0.5,0.5,1,0.9,1.4,1.3c0.8,0.8,1.5,1.6,2.3,2.3c1.2,1.1,2.4,2.2,3.6,3c0.1,0.1,0.3,0,0.4,0.1
		c0.4,0.2,0.6,0.6,0.9,0.8c0.1,0.1,0.3,0,0.4,0.1c0.1,0,0.2,0.2,0.3,0.2c1.6,1.1,2.9,2.4,4.4,3.5c0.8,0.6,1.6,1.3,2.5,1.9
		c0.9,0.6,1.9,1,2.7,1.7c0.9,0.1,1.6,0.4,2.4,0.5c1.1,1.1,3.3,0.8,4.4,1.9c1.1,0,2,0.6,3,0.9c0.5,0.1,1.1,0.2,1.6,0.3
		c1.2,0.4,2.5,0.8,3.6,1.2c0.3,0.1,0.6,0.1,0.9,0.2c1,0.3,1.9,0.9,2.8,1.2c0.3,0.1,0.7-0.1,1.1,0c0.1,0,0.3,0.2,0.4,0.2
		c0.2,0.1,0.3,0,0.6,0.1c1.6,0.3,3.1,0.3,4.5,0.5c0.1,0,0.3,0.2,0.4,0.2c0.7,0.1,1.2,0,1.8,0c1.6,0.1,3.1,0.1,4.7,0.1
		c0.4,0,0.7,0.1,1.1,0.1c0.4,0,0.9-0.2,1.4-0.2c0.8,0,1.5,0.3,2.3,0.3c0.7,0,1.5-0.2,2.2-0.3c0.7-0.1,1.4-0.2,2-0.3
		c3.3-0.4,6.2-0.8,8.7-1.2c1.6-0.2,3.2-0.3,4.5-0.7c0.7-0.2,1.5-0.7,2.2-1c1.1-0.4,2.3-0.7,3.1-1c0.2-0.1,0.3-0.2,0.5-0.3
		c0.3-0.2,0.7-0.4,1-0.6c0.8-0.4,1.7-0.5,2.4-0.9c0.4-0.2,0.6-0.5,1-0.8c0.5-0.4,1.2-0.9,1.6-1.2c0.2-0.2,0.4-0.4,0.5-0.5
		c0.6-0.5,1.3-0.8,1.8-1.1c0.4-0.2,0.7-0.4,0.9-0.5c0.1-0.1,0.2-0.1,0.4-0.2c0.8-0.4,1.2-0.8,1.8-1.2c0.7-0.5,1.2-0.8,1.7-1.2
		c0.4-0.4,0.8-0.6,1.1-0.8c0.4-0.3,0.7-0.6,1-0.8c0.2-0.1,0.3-0.3,0.5-0.5c0.7-0.6,1.4-1.2,2-1.8c0,0,0-0.2,0.1-0.3
		c0.1-0.1,0.3-0.1,0.4-0.2c0.4-0.3,0.5-0.8,0.8-1.1c0.2-0.2,0.5-0.2,0.6-0.4c0.3-0.3,0.5-0.8,0.8-1.1c0.1-0.2,0.3-0.2,0.5-0.3
		c0.1-0.1,0.2-0.4,0.3-0.6c0.8-1,1.8-2.1,2.5-3.1c0.1-0.2,0.1-0.4,0.2-0.6c0.2-0.3,0.5-0.6,0.6-0.8c0.1-0.2,0.1-0.2,0.2-0.3
		c0.7-1,1.2-2,1.7-3c0.6-1.2,1.3-2.5,1.9-3.6c0.3-0.6,0.6-1.3,0.9-1.8c0.3-0.5,0.5-0.8,0.7-1.2c0.1-0.2,0.1-0.5,0.2-0.7
		c0.3-0.9,0.8-1.7,1-2.6c0.3-0.5,0.8-0.9,0.6-1.7c0.7-0.9,0.7-2.2,1-3.2c0.1-0.2,0.3-0.4,0.3-0.6c0.5-1.4,0.6-2.8,1-4.2
		c0.1-0.4,0.3-0.9,0.4-1.3c0.1-0.5,0.3-1,0.4-1.4c0.1-0.6-0.1-1.1-0.1-1.7c0-0.5,0.2-0.9,0.2-1.4c0-0.5-0.1-0.9,0-1.4
		c0-0.5,0.2-0.9,0.2-1.4c0.1-0.5,0-1,0.1-1.5c0-0.4,0.2-1,0.2-1.4c0-0.3-0.1-0.6-0.1-0.8c0-0.2,0.2-0.5,0.2-0.7c0-0.2,0-0.6,0-0.8
		c0-0.4,0.2-0.6,0.2-0.7c0.1-1,0-2.1,0-3.2C130.3,64.1,130.5,62.7,130.4,62.1z M97.7,35.2c0.3-0.3,0.8-0.8,1.2-1.2
		c0.5-0.2,1,0.1,1.4,0.2c0.4,0.1,0.8,0.1,1.1,0.3c0.3,0.1,1.3,1,1.3,1.4c0,0.5-0.4,0.8-0.9,1.1c-0.3,0.4-0.7,0.6-1.1,1
		c-0.7,0.7-1.3,2.1-2.5,1.7c0,0-0.1-0.2-0.1-0.2c0,0-0.2,0-0.2,0c-0.3-0.2-0.4-0.8-0.7-1.1c-0.3-0.4-0.9-0.8-0.9-1.2
		C96.2,36.7,97.2,35.8,97.7,35.2z M85.5,42.4c0.1-0.3,0.4-0.9,0.8-1.2c0.1-0.1,0.3-0.1,0.4-0.3c0.5-0.6,0.8-1.4,1.7-1.6
		c0.8,0.4,1.3,0.5,2,1.1c0.6,0.5,0.8,0.7,0.4,1.5c-0.1,0.2-0.2,0.5-0.3,0.7c-0.3,0.5-0.9,0.8-1.1,1.4c-0.1,0.1,0,0.1-0.1,0.2
		c-0.2,0.3-0.8,1.5-1.3,1.6c-0.5,0.1-1.5-0.8-2-1.3c-0.3-0.2-0.9-0.6-0.9-1C84.8,42.8,85.2,42.7,85.5,42.4z M99.8,74.1
		c-0.4,0.4-0.9,0.7-1.5,0.7c-0.9,0.1-1.8,0-2.7-0.4c-1-0.4-1.5-1.3-1.7-2.3c-0.2-1.2-0.3-2.4-0.5-3.6c-0.1-0.9-0.5-1.8-0.9-2.6
		c-0.3-0.6-0.8-0.9-1.4-1.1c-0.8-0.3-1.5-0.4-2.3-0.4c-1.2,0-2.4,0.1-3.5,0.6c-1.3,0.7-2.7,1.3-3.9,2.2c-1,0.7-2,1.4-3,2.2
		c-0.6,0.5-1.2,1.1-1.8,1.7c-1.4,1.1-2.7,2.3-4.1,3.4c-1.1,0.9-2,2-3,3c-0.1,0.1-0.3,0.3-0.5,0.4c-0.6,0.6-1.1,1.1-1.5,1.8
		c-0.9,1.6-2,3.2-2.9,4.8c-0.5,0.8-0.9,1.7-1.4,2.5c-0.5,0.9-1,1.8-1.6,2.7c-0.6,0.9-1.1,1.9-1.5,2.9c-0.9,1.9-1.7,3.9-2.3,6
		c-0.3,1.1-0.6,2.1-0.9,3.2c-0.2,0.9-0.2,1.8-0.2,2.7c0,0.7,0.3,1.4,0.5,2.1c0.2,0.6,0.4,1.1,0.8,1.6c0.7,0.8,1.6,1.2,2.5,1.6
		c0.6,0.2,1.3,0.4,2,0.6c0.5,0.1,0.9,0.3,1.3,0.5c1.1,0.5,1.6,1.5,1.5,2.7c-0.1,2-1.2,3.5-3,4.3c-1.2,0.5-2.5,0.6-3.8,0.3
		c-1.6-0.3-3.2-0.9-4.6-1.8c-1.3-0.7-2.5-1.7-3.6-2.8c-0.6-0.6-1-1.4-1.2-2.2c-0.3-1-0.6-2.1-0.9-3.1c-0.1-0.4-0.1-0.7-0.1-1.1
		c-0.1-1.7,0.1-3.3,0.4-4.9c0.3-1.4,0.5-2.8,0.8-4.2c0.4-1.8,0.9-3.6,1.3-5.4c0.3-1.1,0.5-2.1,0.7-3.2c-0.6-0.4-1.3-0.3-2-0.4
		c-0.7-0.1-1.4-0.1-2-0.1c-1,0-1.9,0.3-2.7,1c-1.5,1.4-2.4,3-3.2,4.8c-0.8,1.7-1.2,3.6-1.6,5.4c-0.2,0.8-0.2,1.6-0.2,2.4
		c0,1.1-0.1,2.1-0.2,3.1c0,0.7-0.1,1.3-0.1,2c-0.2,1.7-0.7,3.3-2,4.5c-0.9,0.9-2.1,1.2-3.4,0.9c-0.6-0.1-1.1-0.6-1.5-1.2
		c-0.3-0.6-0.6-1.3-0.8-2c-0.4-1.7-0.8-3.4-1-5.1c-0.1-1.1-0.1-2.2-0.1-3.3c0.1-2.6,0.7-5.2,1.2-7.8c0.3-1.5,0.8-2.9,1.4-4.2
		c0.6-1.2,1.2-2.4,1.9-3.6c0.5-0.8,1.1-1.5,1.8-2.2c1.2-1.4,2.9-2.1,4.6-2.7c1.1-0.3,2.1-0.6,3.2-0.9c1.8-0.4,3.6-0.2,5.4,0
		c0.2,0,0.4,0,0.6,0.1c0.2-0.4,0.4-0.8,0.6-1.2c0.5-1.3,1.2-2.5,2-3.6c1.3-1.8,2.5-3.6,3.8-5.4c-0.1,0-0.3,0-0.4,0
		c-1.7,0.2-3.4,0.3-5.1,0.5c-0.4,0-0.8,0-1.2,0c-1.6,0.1-3.1,0.6-4.6,1.1c-1.1,0.3-2.2,0.7-3.3,1c-0.5,0.1-1,0.2-1.5,0.4
		c-0.9,0.3-1.7,0-2.3-0.5c-0.7-0.5-0.8-1.2-0.8-2c0.1-1.3,0.9-2.1,1.9-2.7c1.1-0.6,2.4-1.1,3.6-1.5c0.5-0.1,1-0.4,1.5-0.5
		c1-0.3,2-0.6,2.9-0.9c0.5-0.2,1.1-0.3,1.6-0.5c0.1,0,0.1-0.1,0.2-0.1c2.1-0.5,4.3-0.8,6.4-1c1-0.1,1.9-0.1,2.9-0.3
		c1-0.1,2-0.1,3-0.1c1.1,0,2.1,0,3-0.6c0.5-0.3,1.1-0.6,1.7-0.9c0.9-0.4,1.8-0.7,2.7-1c0.2-0.1,0.4-0.2,0.7-0.3
		c-0.1-0.3-0.1-0.5-0.2-0.8c-0.5-1.7-0.4-3.4,0.8-4.9c0.3-0.3,0.5-0.7,0.8-1c-0.1-0.2-0.2-0.4-0.2-0.6c-0.3-1,0.1-1.7,1.1-1.9
		c0.8-0.1,1.5,0.1,2.2,0.2c0.3,0,0.6,0.1,0.9,0.1c0.5,0.1,0.9,0,1.3-0.1c0.7-0.2,1.4-0.5,2.2-0.7c0.4-0.1,0.8,0,1.3,0
		c2.3,0,3.8,1.1,5,3c0.1,0.1,0.1,0.2,0.2,0.3c0.3,0.9,0.7,1.8,0.6,2.8c0,0.2,0,0.4,0.1,0.6c0.2-0.1,0.4-0.2,0.7-0.2
		c1.3-0.2,2.7-0.5,4-0.3c0.4,0.1,0.7,0.1,1.1,0.2c0.7,0.2,1.4,0.4,2,0.7c0.4,0.2,0.8,0.4,1.1,0.6c1.4,1.2,2.6,2.6,3.3,4.3
		c0.7,1.5,1.3,3.1,1.8,4.7c0.3,1.2,0.6,2.5,0.7,3.7C100.7,72.5,100.4,73.4,99.8,74.1z M102.9,56.8c-0.3,0.1-0.5,0-0.8,0
		c-0.2,0-0.4-0.2-0.6-0.2c-0.4-0.1-0.9,0-1.2,0c-0.2,0-0.4-0.3-0.7-0.3c-0.3-0.1-0.5,0-0.7-0.1c-0.5-0.2-1-0.4-1.2-0.7
		c-0.1-0.6,0.2-1.1,0.4-1.6c0.2-0.5,0.3-1,0.5-1.5c1.1-0.8,2-0.1,3,0.1c0.6,0.1,1.1-0.1,1.6,0.2C104,53.3,103.9,56.4,102.9,56.8z
		 M102.4,47.4c-0.2,0.1-0.5,0.4-0.7,0.6c-0.2,0.1-0.4,0.1-0.6,0.2c-1,0.5-1.3,1.2-2.1,0.5c-0.1-0.1-0.1-0.1-0.1-0.2
		c-0.3-0.3-0.7-1-1.1-1.4c-0.6,0.1-1,0.5-1.4,0.8c-0.5,0.3-1.1,0.7-1.6,0.6c-0.8-0.1-1.3-1.2-1.7-2c-0.1-0.3-0.3-0.6-0.3-0.9
		c0.1-0.3,0.4-0.5,0.7-0.8c0.1-0.1,0.2-0.2,0.4-0.4c0.4-0.4,0.8-0.4,1.5-0.8c0.6-0.4,0.8-1.1,1.6-1c0.2,0,1.1,0.7,1.4,0.9
		c0.1,0.1,0.1,0.3,0.2,0.4c0.1,0.1,0.4,0.4,0.6,0.6c1.3-0.2,1.7-1.1,3.1-1.3c0.5,0.3,0.5,1,0.8,1.5c0.1,0.3,0.4,0.5,0.5,0.8
		c0.2,0.3,0.3,0.6,0.4,0.9C103.7,46.9,103,47,102.4,47.4z M108.4,62.9c-0.5,0-1.1,0.2-1.7,0.2c-0.5,0-1,0.2-1.3-0.1
		c0.1-1.3,0.2-2.5,0.4-3.7c0.2-0.3,1-0.4,1.7-0.4c0.4,0,0.9,0.2,1.1-0.1c0.4,0.4,1,0,1.3,0.1c0.4,0.1,1,0.5,1.1,0.9
		c0.2,0.5-0.1,0.9-0.1,1.4c0,0.6,0.3,0.9,0.3,1.4C110.6,63.3,109.4,62.8,108.4,62.9z M111.9,53.5c-0.2,0.1-0.5,0.2-0.7,0.3
		c-0.5,0.2-1.3,0.6-2,0.7c-0.4-0.4-0.7-0.9-1-1.5c-0.3-0.5-0.5-1.1-0.7-1.8c1.3-1,3.5-1.3,4.8-2.3c0.1,0,0.1,0,0.2,0
		c0.1,0.2,0.3,0.1,0.4,0.1c0.2,0.1,0.2,0.3,0.4,0.5c0.3,0.4,0.3,0.6,0.5,1.4c0,0,0.1,0.1,0.1,0.3c0,0.1-0.1,0.2-0.1,0.3
		c0.1,0.4,0.5,0.7,0.5,1.1C114.3,53.3,113.1,53.2,111.9,53.5z M114.2,42.3c0,0.1-0.2,0.4-0.3,0.6c-0.1,0.1-0.3,0.2-0.5,0.3
		c-0.2,0.2-0.3,0.4-0.5,0.7c-0.1,0.1-0.3,0.2-0.4,0.3c-0.3,0.5-0.4,1.2-0.9,1.3c-0.6,0.1-1.1-0.6-1.7-1c-0.6-0.4-1.2-0.6-1.4-1.2
		c0-0.2,0.3-0.2,0.5-0.4c0.2-0.2,0.5-0.5,0.8-0.8c0.5-0.5,1-1.1,1.5-1.7c0.2-0.2,0.4-0.6,0.8-0.6c0.6-0.1,1,0.3,1.3,0.8
		c0.6,0,0.9,0.4,1.3,0.7C114.8,41.6,114.4,42,114.2,42.3z M121.4,50.3c-0.3,0.3-0.7-0.2-1.1-0.3c-0.6,0.1-1.2-0.2-1.9-0.2
		c-0.9,0.1-1.8,0.8-2.5,0.2c-0.1-0.4,0.1-0.7,0.2-1.1c0-0.6-0.1-1.2,0-1.8c0.2-0.2,0.6-0.1,1-0.2c0.1,0,0.3-0.2,0.4-0.2
		c0.7-0.1,1.1,0,1.7,0c0.7,0,1.5-0.2,2,0c0.4,0.4,0.3,1.3,0.4,2C121.6,49.2,121.8,50,121.4,50.3z"/>
</g>
<g>
</g>
<g>
</g>
<g>
</g>
<g>
</g>
<g>
</g>
</svg>
