<?xml version="1.0" encoding="utf-8"?>
<!-- Generator: Adobe Illustrator 18.1.1, SVG Export Plug-In . SVG Version: 6.00 Build 0)  -->
<!DOCTYPE svg PUBLIC "-//W3C//DTD SVG 1.1//EN" "http://www.w3.org/Graphics/SVG/1.1/DTD/svg11.dtd">
<svg version="1.1" id="Layer_1" xmlns="http://www.w3.org/2000/svg" xmlns:xlink="http://www.w3.org/1999/xlink" x="0px" y="0px"
	 viewBox="0 0 125 125" enable-background="new 0 0 125 125" xml:space="preserve">
<g>
	<path fill="#78433F" d="M118.2,38.8c0,0.6,0,1.1,0,1.7c0,0.5,0,0.9-0.2,1.4c-0.1,0.3-0.1,0.6-0.2,0.9c-0.1,0.7-0.1,1.4-0.4,2.1
		c-0.2,0.3-0.1,0.8-0.1,1.2c-0.1,0.7,0,1.4-0.3,2.1c-0.1,0.2-0.1,0.5-0.1,0.7c-0.1,0.8,0,1.6-0.4,2.3c-0.1,0.3-0.1,0.6-0.1,0.9
		c0,0.6,0,1.1-0.3,1.6c0,0.1-0.1,0.1-0.1,0.2c-0.1,0.7-0.1,1.4-0.2,2.1c-0.1,0.6-0.3,1.2-0.4,1.9c-0.1,0.8-0.1,1.6-0.4,2.3
		c-0.1,0.4-0.1,0.8-0.1,1.2c0,0.3,0,0.7-0.1,0.9c-0.4,0.9-0.3,1.9-0.4,2.8c-0.1,0.8-0.1,1.6-0.4,2.3c-0.2,0.7-0.2,1.4-0.4,2.1
		c-0.3,0.9-0.5,1.8-0.6,2.8c-0.1,0.6-0.5,1.2-0.6,1.8c0,0.1-0.1,0.3-0.2,0.4c-0.4,0.5-1,0.9-1.1,1.5s-0.4,1-0.5,1.6
		c-0.2,1.1-0.8,1.9-1.7,2.5c-0.4,0.3-0.8,0.5-1.1,0.8c-1,1.1-2.2,1.8-3.3,2.8c-1.5,0.8-2.7,2.2-4.3,3c-0.8,0.4-1.4,1-2.1,1.5
		c-1.2,0.9-2.5,1.7-3.9,2.4c-0.4,0.2-0.9,0.4-1.2,0.8c-0.7,0.7-1.4,1.3-2.2,1.8c-1.5,1.3-3.3,2.3-4.9,3.4c-2.2,1.5-4.5,2.7-6.6,4.2
		c-3.3,2.4-6.8,4.6-10.3,7c-0.7,0.5-1.5,0.9-2.2,1.4c-1.1,0.8-2.2,1.5-3.3,2.3c-0.8,0.6-1.5,1.2-2.4,1.6c-0.1,0-0.1,0.1-0.2,0.1
		c-0.8,0.9-2,1.3-2.9,2.1c-0.9,0.7-2,1.3-2.9,2.1c-0.5,0.5-1.1,0.9-1.8,1.2c-1.6,0.8-3.1,2-4.6,3c-0.5,0.3-1.1,0.7-1.6,1
		c-1,0.5-2,0.9-3,1.5c-0.6,0.4-1.4,0.5-2,0.7c-1,0.4-1.9,0-2.7-0.4c-0.2-0.1-0.4-0.3-0.6-0.5c-1.3-1.4-2.9-2.5-4.3-3.8
		c-1.9-1.9-3.8-3.8-5.8-5.8c-0.2-0.2-0.4-0.5-0.6-0.8c-1.4-1.8-3-3.3-4.7-4.7c-0.5-0.4-1-0.8-1.4-1.2c-0.7-0.7-1.5-1.5-2.2-2.2
		c-0.3-0.3-0.7-0.7-1-1.1c-0.5-0.9-1.3-1.6-2-2.4c-0.6-0.6-1.3-1.2-1.7-2c-0.2-0.3-0.5-0.6-0.8-0.9c-0.9-1-1.9-1.9-2.7-3.1
		c-0.2-0.3-0.5-0.6-0.8-0.9c-0.6-0.6-1.3-1.2-1.8-1.9c-0.6-0.7-1.1-1.6-1.1-2.6c0-0.4-0.1-0.8-0.2-1.2c0-0.5,0.1-0.9-0.3-1.3
		C7.2,87.8,7,87.5,7,87.1s-0.1-0.8-0.1-1.2c-0.1-6.2,0-12.5,0.1-18.7c0-0.2,0-0.3,0-0.5c0.7-1.6,0.3-3.3,0.4-5
		c0.1-2.9,0.1-5.8,0.1-8.6c0-0.6,0.2-1.1,0.5-1.5c0.4-0.6,0.8-1.1,1.5-1.5c0.8-0.4,1.5-1,2.2-1.5c0.2-0.1,0.4-0.2,0.6-0.4
		c0.6-0.5,1.1-1,1.6-1.4c0.6-0.4,1.3-0.7,1.8-1.1c0.8-0.6,1.7-0.9,2.3-1.6c0.1-0.2,0.4-0.2,0.6-0.3c0.8-0.5,1.7-0.9,2.5-1.4
		c0.2-0.1,0.5-0.2,0.6-0.3c0.7-0.7,1.5-1.2,2.4-1.6c0.8-0.5,1.6-1.1,2.5-1.5c0.2-0.1,0.4-0.3,0.6-0.4c1.2-0.7,2.3-1.7,3.5-2.4
		s2.5-1.5,3.7-2.2c1.3-0.8,2.4-1.8,3.8-2.5c0.3-0.2,0.5-0.4,0.8-0.5c0.9-0.5,1.8-1,2.8-1.4c0.9-0.5,1.7-1.1,2.7-1.6
		c1.6-0.8,3.1-1.7,4.6-2.6c0.8-0.5,1.7-0.9,2.5-1.5c0.7-0.5,1.5-0.9,2.3-1.3c0.5-0.2,0.9-0.6,1.4-0.9c0.7-0.5,1.4-1,2.2-1.4
		c0.6-0.3,1.2-0.7,1.8-1.1c0.7-0.5,1.5-0.9,2.3-1.3c1.7-0.9,3.4-1.7,4.9-2.9c0.5-0.4,1.2-0.4,1.7-0.8c0.5-0.4,1.1-0.7,1.6-1
		c1-0.2,2.2-0.8,3.2-1.5c0.6-0.4,1.3-0.7,1.8-1.1c0.5-0.4,1.2-0.4,1.7-0.7c0.8-0.5,1.7-0.8,2.5-1.4c0.8-0.6,1.7-0.9,2.5-1.3
		c0.5-0.4,1-0.4,1.5-0.5c1.4-0.2,2.5,0.2,3.5,1.1c0.7,0.7,1.5,1.3,2.2,1.9c0.7,0.6,1.3,1.2,1.9,1.8c0.2,0.2,0.4,0.5,0.7,0.7
		c1.1,0.6,1.8,1.5,2.7,2.3c0.8,0.7,1.6,1.6,2.5,2.2c0.7,0.5,1.3,1.2,1.9,1.8c1.3,1.3,2.6,2.6,3.9,3.9c0.2,0.2,0.4,0.5,0.6,0.8
		c0.4,0.5,0.8,1,1.4,1.3c0.3,0.2,0.6,0.5,0.9,0.7c1.6,1.6,3.2,3.1,4.8,4.7c1.8,1.7,3.5,3.5,5.3,5.2c0.2,0.2,0.3,0.4,0.5,0.5
		c1.1,0.6,1.7,1.6,2.2,2.7C118.1,38.6,118.1,38.7,118.2,38.8z"/>
	<path fill="#EB594F" d="M116.4,38.3c0,0.4-0.1,0.8-0.3,1c-1.7,1.1-3.3,2.2-5,3.3c-2.2,1.4-4.5,2.7-6.7,4.1c-0.7,0.4-1.3,1-2.1,1.1
		c-0.2,0-0.4,0.3-0.6,0.4c-2.1,1.4-4.2,2.8-6.4,4.2c-0.3,0.2-0.7,0.5-1,0.7s-0.5,0.4-0.8,0.6c-0.8,0.5-1.7,0.9-2.4,1.6
		c-0.6,0.6-1.5,0.9-2.1,1.6c-0.2,0.2-0.5,0.4-0.8,0.5c-2.6,1.5-5.1,3-7.5,4.7c-1.4,1-2.9,1.9-4.5,2.8c-0.2,0.1-0.5,0.2-0.6,0.3
		c-1.3,1.1-2.8,1.9-4.1,2.9c-1.2,0.9-2.3,1.9-3.7,2.6c-0.2,0.1-0.4,0.2-0.6,0.4c-0.7,0.7-1.5,1.2-2.4,1.6c-0.1,0.1-0.3,0.2-0.4,0.3
		c-1,0.9-2.2,1.5-3.3,2.3c-1.8,1.3-3.7,2.6-5.4,3.9c-0.2,0.1-0.4,0.3-0.6,0.4c-1.7,0.7-3.1,2.1-4.7,3.1c-1,0.6-1.9,1.4-2.9,2
		c-0.8,0.4-1.4,1.1-2.1,1.6c-0.2,0.1-0.5,0-0.7,0c-0.1,0-0.1-0.1-0.2-0.1c-1.6-1.4-3.3-2.7-4.8-4.3c-2.3-2.4-4.8-4.7-7.2-7.1
		c-0.2-0.2-0.4-0.5-0.7-0.7c-1.7-1.2-3.1-2.7-4.6-4.2c-1.4-1.4-2.8-2.7-4.1-4c-0.1-0.1-0.1-0.1-0.2-0.2c-1.9-1.2-3.3-3-4.9-4.5
		c-0.5-0.5-1-1-1.6-1.5c-0.5-0.5-1-1-1.6-1.4c-0.5-0.3-0.9-0.9-1.4-1.3c-0.9-0.8-1.7-1.7-2.7-2.3c-0.6-0.4-1.1-0.9-1.5-1.5
		C9,52.8,9,52.4,9.3,52.1s0.6-0.8,1-1c1.8-1,3.4-2.3,5.2-3.4c1.9-1.3,3.9-2.4,5.9-3.6c0.2-0.1,0.4-0.2,0.6-0.4
		c0.7-0.7,1.5-1.1,2.4-1.6c0.8-0.5,1.6-1.1,2.5-1.5c0.1-0.1,0.3-0.2,0.4-0.3c0.9-0.9,2.1-1.5,3.2-2.1c0.2-0.1,0.4-0.2,0.6-0.3
		c1.4-1,2.9-1.9,4.4-2.9c2.3-1.5,4.5-3,7-4.1c0.4-0.2,0.7-0.3,1-0.6c0.7-0.6,1.5-0.9,2.3-1.3c1.4-0.7,2.7-1.4,3.9-2.3
		c0.1-0.1,0.3-0.2,0.4-0.3c1-0.6,2-1,2.9-1.6c0.9-0.7,1.9-1.2,2.8-1.8c1.5-1,3-1.8,4.4-2.8c0.4-0.3,0.9-0.4,1.3-0.6
		c0.4-0.2,0.9-0.4,1.2-0.7c0.4-0.4,0.9-0.6,1.5-0.8c0.6-0.1,1.2-0.5,1.7-0.9c1.2-0.9,2.4-1.6,3.7-2.2c0.9-0.5,1.8-0.9,2.7-1.5
		c0.8-0.5,1.7-0.9,2.5-1.3c2-1.1,4.1-2.2,6.1-3.3c0.7-0.4,1.4-0.7,2.1-1.1c0.3-0.1,0.6-0.2,0.9-0.2c0.2,0,0.5,0,0.7,0.2
		c0.5,0.4,1,0.9,1.5,1.2c0.6,0.3,1.1,0.7,1.5,1.1c0.5,0.4,0.9,0.9,1.4,1.4c0.3,0.3,0.7,0.6,1.1,0.9c0.1,0.1,0.3,0.2,0.4,0.3
		c1.2,1.1,2.5,2.2,3.8,3.3c1.8,1.6,3.5,3.3,5.2,5c2.6,2.8,5.3,5.3,8,8c1.7,1.8,3.5,3.5,5.3,5.2c0.7,0.7,1.3,1.4,2.1,1.9
		c0.6,0.4,1,1,1.5,1.5C116.3,37.9,116.3,38.2,116.4,38.3z"/>
	<path fill="#EB594F" d="M42.8,120.3c-0.1,0-0.1,0.1-0.2,0.1c-0.3,0.1-0.7-0.1-0.7-0.4c0-0.6,0.1-1.3,0.1-1.9
		c0.5-0.9,0.4-1.9,0.4-2.8c0-0.7,0-1.4,0.3-2.1c0.1-0.3,0.1-0.6,0.2-0.9c0-0.7,0.1-1.4,0.1-2.2c0.5-1.1,0.3-2.4,0.4-3.5
		c0-0.2,0-0.3,0.1-0.5c0.4-0.8,0.4-1.7,0.4-2.6c0.1-0.9,0-1.8,0.4-2.6c0-0.6,0.1-1.3,0.1-1.9s0-1.1,0.3-1.6c0.1-0.3,0.1-0.6,0.1-0.9
		c0-1,0-1.9,0-2.9c0-0.5,0.1-0.9,0.3-1.4c0.1-0.3,0.2-0.6,0.2-0.9c0-0.7,0-1.4,0.1-2.2c0-0.7,0.3-1.3,0.8-1.7
		c0.9-0.8,1.6-1.8,2.7-2.3c1.3-1,2.7-1.7,3.9-2.8c0.7-0.6,1.5-0.9,2.2-1.4c1.1-0.7,2.3-1.5,3.3-2.4c0.8-0.7,1.7-1.2,2.6-1.7
		c1.5-0.9,3.4-2.1,4.9-3.4c0.2-0.2,0.4-0.3,0.6-0.4c2.1-1.2,3.9-2.7,6-3.9c0.2-0.1,0.4-0.3,0.6-0.4c0.9-0.9,2.1-1.5,3.1-2.2
		c1.4-0.9,2.9-1.7,4.3-2.6c0.5-0.3,0.9-0.7,1.4-1c0.4-0.3,0.8-0.5,1.2-0.8c0.9-0.6,1.8-1.1,2.6-1.7c0.9-0.6,1.7-1.2,2.7-1.6
		c0.9-0.4,1.6-1,2.4-1.6c1-0.7,2.1-1.4,3.1-2.2s2.1-1.4,3.2-2.2c1-0.8,2.1-1.4,3.2-2c0.3-0.2,0.5-0.3,0.8-0.6c0.7-0.6,1.4-1,2.2-1.4
		c0.7-0.3,1.2-0.7,1.8-1.1c1.6-1.1,3.2-2,4.9-3c0.7-0.5,1.5-0.9,2.3-1.3c0.7-0.4,1.3-0.9,2-1.4s1.5-0.9,2.3-1.2
		c0.2-0.1,0.5,0.2,0.5,0.4c0,0.6,0.1,1.3-0.2,1.9c-0.2,0.4-0.2,0.8-0.3,1.2c0,0.7,0,1.4-0.4,2.1c0,0.7-0.1,1.4-0.1,2.2
		c0,0.7,0,1.4-0.3,2.1c-0.1,0.3-0.1,0.6-0.1,0.9c0,0.5,0,1-0.3,1.4c-0.1,0.1-0.1,0.3-0.1,0.5c-0.1,0.7,0,1.4-0.2,2.1
		c-0.1,0.7-0.4,1.4-0.4,2.1c-0.1,0.6-0.3,1.2-0.4,1.9c-0.1,0.6-0.1,1.1-0.4,1.6c-0.1,0.1-0.1,0.3-0.1,0.5c-0.1,0.9-0.1,1.7-0.4,2.6
		c-0.2,0.4-0.1,0.9-0.1,1.4c0,0.8,0.1,1.6-0.3,2.3c-0.1,0.2-0.1,0.5-0.1,0.7c0,1.3-0.6,2.5-0.6,3.8c0,0.1-0.1,0.3-0.2,0.4
		c-0.2,0.6-0.6,1.1-1.1,1.5c-0.2,0.1-0.4,0.3-0.6,0.4c-0.7,0.4-1.4,0.8-2,1.3s-1.1,1-1.7,1.3c-0.2,0.1-0.4,0.3-0.5,0.5
		c-0.6,0.7-1.4,1-2.1,1.6c-0.6,0.5-1.2,1-2,1.3c-0.3,0.1-0.6,0.3-0.8,0.5c-1.6,1.3-3.4,2.4-5.1,3.6c-1,0.7-2.1,1.5-3.1,2.2
		c-1.7,1.3-3.5,2.5-5.3,3.6c-0.3,0.2-0.5,0.4-0.8,0.6c-0.4,0.4-0.8,0.8-1.2,1.2c-0.2,0.2-0.5,0.4-0.8,0.5c-1.2,0.4-2.1,1.1-3.1,1.8
		c-0.8,0.6-1.5,1.1-2.3,1.6c-1.1,0.7-2.1,1.5-3.2,2.1c-0.3,0.2-0.6,0.5-0.9,0.8s-0.6,0.5-1,0.5c-0.2,0-0.3,0.1-0.4,0.2
		c-1.5,1.3-3.2,2.1-4.8,3.1c-1.2,0.8-2.4,1.5-3.6,2.3c-0.3,0.2-0.7,0.4-1,0.6c-1.8,1-3.5,2.2-5.2,3.4c-0.7,0.4-1.2,1-1.8,1.6
		c-0.4,0.3-0.7,0.6-1.1,0.8c-1.3,0.6-2.3,1.6-3.5,2.4c-0.6,0.7-1.5,1-2.1,1.6c-1.6,0.8-3.1,2-4.6,2.9
		C44.3,119.8,44.4,119.8,42.8,120.3z M109.6,60.4c0-1.3,0-2,0-2.7c0-0.2,0-0.3-0.1-0.5c-0.4-0.5-0.8-1-1.5-1.1c-1.3,0-2.6-0.1-3.8,0
		c-0.8,0-1.5,0.5-2,1.2c-0.4,0.6-0.8,1.2-0.8,2c0,0.3-0.1,0.6-0.3,0.9c-0.1,0.1-0.1,0.1-0.2,0.1c-0.1,0.1-0.3,0-0.3-0.2
		c-0.2-0.4-0.3-0.7-0.5-1.1c-0.1-0.3-0.3-0.6-0.5-0.8c-0.5-0.5-1-0.8-1.7-0.5c-0.4,0.1-0.8,0.2-1.1,0.4c-0.5,0.2-1,0.4-1.5,0.8
		c-0.9,0.7-1.7,1.4-2.6,2.2c-0.2,0.1-0.3,0.4-0.3,0.6c0,0.6,0,1.1,0,1.7c0,0.6,0.2,1.2,0.4,1.9c0.3,0.8,0.7,1.6,1,2.4
		c0.5,1.6,1.5,3,2.6,4.2c0.8,0.9,1.9,1.2,3,0.9c0.5-0.1,0.9-0.3,1.4-0.3c0.3,0,0.6-0.2,0.9-0.4c0.4-0.4,0.9-0.5,1.5-0.5
		c1,0,1.9,0,2.9,0c0.4,0,0.8-0.2,1-0.5c0.3-0.3,0.5-0.6,0.7-1c0.4-0.6,0.4-1.4,0.7-2c0.1-0.4,0.2-0.8,0.2-1.2
		c0.1-0.3,0.1-0.7,0.2-0.9c0.3-0.5,0.3-1.1,0.3-1.6c0-0.4,0-0.8,0.1-1.2C109.7,62.1,109.5,61,109.6,60.4z M53.1,90.2
		c0-0.6-0.1-1.2-0.1-1.9c0-0.4-0.6-0.9-1-0.9c-1.3-0.1-2.3,0.2-3.2,1.1c-0.2,0.2-0.5,0.4-0.7,0.7c-0.5,0.6-0.8,1.3-0.8,2.2
		c-0.1,0.8,0.3,1.4,0.4,2.1c0,0.5,0.4,0.9,0.7,1.2c0.5,0.4,1,0.5,1.5,0.3c0.9-0.3,1.6-1,2.4-1.6c0.3-0.3,0.6-0.7,0.6-1.2
		C53,91.5,53,90.9,53.1,90.2z M49.1,110.4c0.5-0.2,1-0.3,1.5-0.5s0.9-0.4,1.1-0.9c0.3-0.6,0.8-1.2,0.8-2c0-0.6,0-1.1,0-1.7
		c0-0.5-0.4-0.9-0.8-1.1c-0.3-0.2-0.6-0.3-0.9-0.4c-0.3-0.1-0.6-0.1-0.9,0c-0.4,0.1-0.8,0.2-1.1,0.3c-0.4,0.2-0.9,0.3-1.3,0.5
		c-0.3,0.1-0.5,0.4-0.6,0.7c-0.2,0.6-0.4,1.2-0.5,1.8c-0.1,0.7,0.1,1.2,0.5,1.7C47.5,109.7,48.2,110.1,49.1,110.4z M53,98.5
		c0-0.2,0-0.4,0-0.5s0-0.2,0-0.2c0-0.5-0.6-1-1.1-1.1c-1.3-0.3-2.5,0.2-3.6,0.7c-0.1,0.1-0.3,0.2-0.3,0.3c-0.5,0.7-0.7,1.4-0.6,2.2
		c0.1,0.5,0.3,1.1,0.4,1.6c0,0.1,0.2,0.3,0.3,0.3c0.3,0.2,0.5,0.4,0.8,0.4c0.4,0.1,0.8,0.2,1.2,0c1.2-0.4,2.1-1,2.6-2.2
		C52.9,99.5,52.9,98.9,53,98.5z"/>
	<path fill="#EB594F" d="M39.6,119.1c-0.1-0.1-0.5-0.3-0.9-0.6c-1.8-1.6-3.5-3.3-5.1-5c-2.2-2.4-4.6-4.7-6.9-7c-0.7-0.7-1.4-1.4-2-2
		c-0.3-0.3-0.5-0.6-0.8-0.9c-2.4-2.2-4.6-4.7-6.9-7c-1.8-1.8-3.6-3.6-5.5-5.4c-0.9-0.9-1.8-1.8-2.7-2.8c-0.6-0.6-0.9-1.3-0.9-2.2
		c0-0.2,0-0.5,0-0.7C8,81.1,7.8,76.7,8,72.3c0-0.6,0-1.1,0-1.7c0-0.3,0-0.7,0.1-0.9c0.3-0.6,0.2-1.2,0.3-1.9c0.1-3.8,0.1-7.7,0-11.5
		c0-0.2,0-0.5,0.1-0.7c0-0.4,0.6-0.7,0.9-0.5c1,0.6,1.9,1.4,2.8,2.2c0.5,0.4,0.9,0.9,1.4,1.3c1.5,1.4,2.9,2.9,4.6,4.2
		c0.7,0.5,1.3,1.2,1.9,1.8c1.1,1.1,2.2,2.3,3.6,3.2c1,1,2,1.9,2.9,2.9c0.5,0.6,1.1,1.1,1.6,1.8c0.4,0.6,1,1.1,1.6,1.4
		c0.9,0.5,1.5,1.5,2.4,1.9c0.2,0.1,0.3,0.4,0.4,0.6c0.9,1,1.8,2,2.9,2.8c0.3,0.2,0.6,0.6,0.8,0.9c1,1.2,1.6,1.8,3.1,3
		c0.1,0.1,0.3,0.2,0.4,0.3c0.4,0.7,1.1,1.1,1.7,1.7c0.5,0.5,1,1.1,1.5,1.5c0.8,0.6,1.1,1.3,1.3,2.2c0.1,0.5,0.2,0.9,0,1.4
		c-0.3,0.2-0.3,0.3-0.4,0.5c-0.1,0.8-0.2,1.6-0.2,2.4c0,0.7-0.4,1.4-0.4,2.1c0,0.6,0,1.3,0,1.9c0,0.9,0,1.8-0.4,2.6
		c-0.1,0.8-0.1,1.6-0.2,2.4c-0.1,0.9,0,1.8-0.4,2.6c-0.1,0.3-0.1,0.6-0.1,0.9s0,0.7-0.1,0.9c-0.6,1.3-0.3,2.7-0.4,4
		c-0.1,0.7,0.1,1.4-0.3,2.1c-0.1,0.3-0.1,0.6-0.1,0.9c0,0.4,0,0.8-0.1,1.2c-0.4,0.9-0.4,1.9-0.4,2.8c0,0.6-0.3,1.1-0.5,1.6
		C40.4,119.5,40.2,119.5,39.6,119.1z"/>
	<path fill="#A35652" d="M109.4,77c0.3,0.4,0.3,0.8,0,1.2c-0.2,0.3-0.4,0.5-0.6,0.7c-0.8,0.7-1.4,1.5-2.4,2
		c-0.1,0.1-0.3,0.2-0.4,0.3c-1.3,1.4-2.8,2.3-4.3,3.4c-1.1,0.9-2.3,1.7-3.5,2.5s-2.3,1.6-3.6,2.3c-0.1,0.1-0.3,0.1-0.4,0.3
		c-0.6,0.6-1.5,1-2.1,1.6c-0.9,0.8-1.9,1.4-2.9,2.1c-0.9,0.7-1.8,1.4-2.8,1.9c-0.6,0.3-1.1,0.7-1.6,1c-0.6,0.5-1.3,0.9-2,1.3
		c-1.3,0.6-2.4,1.5-3.6,2.4c-1,0.7-2.1,1.5-3.1,2.2c-0.8,0.6-1.8,1-2.5,1.8c-0.1,0.1-0.1,0.1-0.2,0.1c-1.4,0.7-2.6,1.8-4,2.6
		c-0.7,0.5-1.5,0.8-2.3,1.3c-0.7,0.5-1.4,1.1-2.2,1.5c-1.1,0.6-2.1,1.2-2.9,2.1c-0.1,0.1-0.2,0.2-0.4,0.3c-1.5,0.7-2.6,1.8-4,2.7
		c-1.3,0.9-2.7,1.7-4,2.6c-1.5,1-3,1.8-4.4,2.8c-0.3,0.2-0.6,0.3-0.8,0.5c-1,0.9-2.2,1.6-3.5,2.1c-0.1,0-0.1,0.1-0.2,0.1
		c-0.9,0.6-2.1,0.8-3.1,1.1c-0.1,0-0.3-0.1-0.3-0.3c0-0.2,0-0.5,0.1-0.7c0.2-0.5,0.7-0.9,1.2-1.1c1.6-0.5,3-1.4,4.4-2.3
		c1-0.7,2.1-1.1,3-1.9c0.2-0.2,0.6-0.3,0.8-0.5c1.1-1,2.4-1.6,3.4-2.6c0.6-0.5,1.1-0.9,1.8-1.2c0.5-0.3,1-0.5,1.4-0.9
		c1.4-1.5,3.2-2.4,4.8-3.6c0.8-0.3,1.2-1.1,2.1-1.1c0.3-0.3,0.6-0.5,0.9-0.8c0.7-0.7,1.5-1.2,2.4-1.5c0.5-0.2,0.9-0.4,1.2-0.7
		c0.5-0.4,1-0.8,1.6-1.1c0.6-0.3,1.1-0.7,1.6-1c0.7-0.4,1.3-0.9,2-1.3s1.3-0.9,2-1.3c1-0.6,1.8-1.4,2.7-1.9c1.2-0.8,2.4-1.5,3.5-2.5
		c0.2-0.2,0.4-0.3,0.6-0.4c1.3-0.7,2.6-1.5,3.8-2.5c0.8-0.7,1.7-1.2,2.6-1.7c0.5-0.3,1-0.6,1.4-0.9c1.1-0.7,2.2-1.3,3.1-2.3
		c0.1-0.1,0.1-0.1,0.2-0.2c1.6-0.8,2.9-2,4.3-3c0.7-0.5,1.5-0.9,2.1-1.5c0.2-0.2,0.5-0.3,0.8-0.5c0.8-0.5,1.6-1,2.3-1.7
		c0.3-0.3,0.7-0.6,1.1-0.8c0.8-0.5,1.6-1,2.3-1.7C107.9,77.9,108.7,77.5,109.4,77z"/>
	<path fill="#A35652" d="M9.1,90.5c0.9,0.9,1.9,1.7,2.8,2.6c0.8,0.7,1.4,1.5,2.3,2.1c0.5,0.8,1.3,1.3,2.1,1.9c0.4,0.3,0.8,0.6,1,1
		c0.6,1,1.4,1.7,2.2,2.5c1.2,1.2,2.4,2.6,3.8,3.6c0.1,0.1,0.2,0.2,0.3,0.3c0.8,1.3,2.1,2.2,3.1,3.3c1,1.1,2.1,2.2,3.2,3.2
		c0.7,0.7,1.5,1.4,2,2.3c0.2,0.3,0.5,0.6,0.8,0.9c0.5,0.4,1,0.8,1.4,1.3s0.8,1,1.3,1.4c0.3,0.3,0.5,0.6,0.9,0.8
		c1.4,0.9,2.5,2.2,3.7,3.3c0.5,0.4,0.6,1.4,0.3,2c-0.1,0.1-0.3,0.2-0.4,0.2c-0.2-0.1-0.4-0.2-0.6-0.4c-0.8-0.8-1.6-1.6-2.4-2.4
		c-0.5-0.4-0.9-0.9-1.5-1.2c-1.3-0.9-2.3-2-3.3-3.1c-1.6-1.6-3.3-3.3-4.9-4.9c-0.6-0.6-1.1-1.1-1.8-1.6c-0.9-0.6-1.6-1.4-2.2-2.2
		c-0.3-0.5-0.7-0.9-1.1-1.2c-1.3-1.3-2.6-2.6-3.8-4c-1.1-1.4-2.3-2.7-3.5-3.9c-0.3-0.3-0.5-0.6-0.8-0.9c-0.4-0.5-0.8-1-1.2-1.5
		c-0.5-0.5-1-1-1.4-1.7c-0.3-0.5-0.9-0.9-1.3-1.4c-0.5-0.5-1-1-1.3-1.7C8.8,91.1,8.8,90.7,9.1,90.5z"/>
	<path fill="#FADFD7" d="M102.5,59c0.4-0.4,0.7-0.8,1.1-1.3c0.3-0.3,0.6-0.5,1-0.5c1-0.1,2.1-0.1,3.1,0c0.3,0,0.8,0.5,0.8,0.8
		c0,0.9,0.2,1.9-0.2,2.8c-0.2,0.4-0.1,0.9-0.1,1.4c0,0.9-0.1,1.7-0.4,2.6c-0.2,0.4-0.1,0.9-0.2,1.4s-0.4,0.9-0.4,1.4
		c0,0.7-0.3,1.2-0.6,1.8c-0.4,0.7-0.9,1.3-1.9,1.2c-0.3,0-0.6,0-1,0c-0.5,0-1,0.1-1.4-0.3c-0.6-0.5-0.9-1.1-0.9-1.9
		c0-0.9-0.2-1.9,0.2-2.8c0.1-0.3,0.1-0.6,0.1-0.9c0.1-0.9,0.1-1.8,0.2-2.6c0.1-0.5,0.4-1,0.3-1.6C102.3,60,102.4,59.5,102.5,59z"/>
	<path fill="#FADFD7" d="M100.4,66.2c0,0.8,0,1.6,0,2.4c0,0.6,0.1,1.1,0.3,1.6c0.2,0.5-0.1,1.2-0.6,1.3c-0.3,0-0.6,0-1,0.1
		c-1.1,0.2-1.8-0.4-2.4-1.2c-0.5-0.8-1-1.6-1.6-2.4c-0.5-0.7-0.7-1.4-1-2.2c-0.3-0.8-0.6-1.5-0.5-2.3c0-0.4-0.1-0.8-0.2-1.2
		c0-0.1,0-0.3,0.1-0.4c1.2-1.5,2.6-2.6,4.4-3.2c0.1,0,0.3,0,0.4,0.1c0.2,0.1,0.4,0.3,0.5,0.5c0.2,1,0.8,1.9,1.2,2.8
		c0.3,0.6,0.4,1.2,0.4,1.8C100.5,64.8,100.5,65.5,100.4,66.2L100.4,66.2z"/>
	<path fill="#FADFD7" d="M48.6,92c0-0.8,0.1-1.5,0.5-2.2c0.5-0.8,1.2-1.2,2.1-1.5c0.4-0.1,0.8,0.1,0.9,0.6c0.1,0.4,0.2,0.8,0.3,1.1
		c-0.3,0.7-0.2,1.4-0.4,2.1c-0.1,0.3-0.3,0.5-0.6,0.7c-0.6,0.4-1.2,0.7-1.9,1c-0.1,0-0.5-0.2-0.6-0.4c-0.1-0.1-0.1-0.3-0.2-0.4
		C48.7,92.7,48.7,92.3,48.6,92z"/>
	<path fill="#FADFD7" d="M47.6,107.1c0-0.3,0.1-0.6,0.1-0.8c0-0.2,0.1-0.5,0.3-0.6c0.7-0.4,1.4-0.6,2.2-0.6s1.3,0.7,1.2,1.4
		c-0.1,0.5-0.3,1.1-0.5,1.6c0,0.1-0.1,0.1-0.1,0.2c-0.6,0.5-1.3,0.9-2.2,0.6c-0.5-0.1-0.8-0.5-0.9-1
		C47.6,107.7,47.6,107.3,47.6,107.1z"/>
	<path fill="#FADFD7" d="M48.6,99.7c0-0.3,0-0.5,0.1-0.8c0-0.2,0.1-0.3,0.2-0.4c0.6-0.9,1.7-1.2,2.7-0.9c0.1,0,0.3,0.2,0.3,0.3
		c0,0.4,0.1,0.8,0,1.2c-0.1,0.4-0.3,0.7-0.5,1.1c-0.1,0.2-0.3,0.4-0.5,0.5c-0.3,0.2-0.7,0.4-1.1,0.5c-0.4,0.2-1.1-0.2-1.1-0.6
		C48.6,100.3,48.6,100,48.6,99.7z"/>
	<path fill="#EB594F" d="M109.6,60.4c-0.1,0.5,0.1,1.7-0.3,2.8c-0.1,0.4-0.1,0.8-0.1,1.2c0,0.6,0,1.1-0.3,1.6
		c-0.1,0.3-0.1,0.6-0.2,0.9c-0.1,0.4-0.1,0.8-0.2,1.2c-0.3,0.7-0.3,1.4-0.7,2c-0.2,0.3-0.4,0.7-0.7,1c-0.3,0.3-0.6,0.5-1,0.5
		c-1,0-1.9,0-2.9,0c-0.6,0-1.1,0.1-1.5,0.5c-0.2,0.2-0.5,0.4-0.9,0.4c-0.5,0.1-0.9,0.2-1.4,0.3c-1.2,0.3-2.2,0-3-0.9
		c-1.1-1.2-2.1-2.6-2.6-4.2c-0.2-0.8-0.7-1.6-1-2.4c-0.2-0.6-0.4-1.2-0.4-1.9c0-0.6,0-1.1,0-1.7c0-0.2,0.1-0.5,0.3-0.6
		c0.8-0.7,1.7-1.5,2.6-2.2c0.4-0.3,1-0.5,1.5-0.8c0.4-0.2,0.8-0.2,1.1-0.4c0.7-0.3,1.3,0,1.7,0.5c0.2,0.2,0.4,0.5,0.5,0.8
		c0.2,0.4,0.3,0.7,0.5,1.1c0.1,0.2,0.2,0.2,0.3,0.2c0.1,0,0.1-0.1,0.2-0.1c0.2-0.2,0.3-0.5,0.3-0.9c-0.1-0.8,0.3-1.4,0.8-2
		c0.5-0.7,1.2-1.1,2-1.2c1.3-0.1,2.6,0,3.8,0c0.7,0,1.1,0.5,1.5,1.1c0.1,0.1,0.1,0.3,0.1,0.5C109.6,58.4,109.6,59.2,109.6,60.4z
		 M102.5,59c0,0.5-0.1,1-0.1,1.5c0,0.6-0.3,1.1-0.3,1.6c-0.1,0.9-0.1,1.8-0.2,2.6c0,0.3,0,0.7-0.1,0.9c-0.4,0.9-0.3,1.9-0.2,2.8
		c0,0.7,0.3,1.4,0.9,1.9c0.4,0.4,0.9,0.3,1.4,0.3c0.3,0,0.6-0.1,1,0c1,0.1,1.5-0.4,1.9-1.2c0.3-0.6,0.6-1.1,0.6-1.8
		c0-0.5,0.3-0.9,0.4-1.4s0-1,0.2-1.4c0.3-0.8,0.3-1.7,0.4-2.6c0-0.5,0-1,0.1-1.4c0.4-0.9,0.2-1.9,0.2-2.8c0-0.3-0.5-0.8-0.8-0.8
		c-1-0.1-2.1-0.2-3.1,0c-0.4,0-0.8,0.2-1,0.5C103.2,58.1,102.8,58.6,102.5,59z M100.4,66.2L100.4,66.2c0.1-0.7,0.1-1.4,0.1-2.2
		c0-0.6-0.1-1.2-0.4-1.8c-0.4-0.9-1-1.8-1.2-2.8c0-0.2-0.3-0.4-0.5-0.5c-0.1-0.1-0.3-0.2-0.4-0.2c-1.8,0.6-3.2,1.7-4.4,3.2
		c-0.1,0.1-0.2,0.3-0.1,0.4c0.1,0.4,0.2,0.8,0.2,1.2c-0.1,0.8,0.2,1.5,0.5,2.3c0.3,0.8,0.5,1.5,1,2.2c0.5,0.8,1,1.6,1.6,2.4
		s1.3,1.4,2.4,1.2c0.3,0,0.6,0,1-0.1c0.5-0.1,0.9-0.8,0.6-1.3c-0.2-0.5-0.3-1.1-0.3-1.6C100.4,67.8,100.4,67,100.4,66.2z"/>
	<path fill="#FADFD7" d="M53.1,90.2c0,0.7-0.1,1.3-0.1,1.9c0,0.5-0.3,1-0.6,1.2c-0.7,0.6-1.4,1.2-2.4,1.6c-0.6,0.2-1.1,0.1-1.5-0.3
		c-0.4-0.3-0.7-0.6-0.7-1.2c-0.1-0.7-0.4-1.3-0.4-2.1c0.1-0.8,0.3-1.5,0.8-2.2c0.2-0.3,0.4-0.5,0.7-0.7c0.9-0.9,2-1.2,3.2-1.1
		c0.4,0,0.9,0.5,1,0.9C53,89,53,89.6,53.1,90.2z M48.6,92c0,0.3,0,0.7,0.1,1.1c0,0.2,0.1,0.3,0.2,0.4c0.1,0.1,0.5,0.4,0.6,0.4
		c0.7-0.3,1.3-0.5,1.9-1c0.3-0.2,0.5-0.4,0.6-0.7c0.2-0.7,0-1.4,0.4-2.1c-0.1-0.4-0.2-0.8-0.3-1.1c-0.1-0.4-0.5-0.7-0.9-0.6
		c-0.9,0.2-1.6,0.6-2.1,1.5C48.7,90.5,48.6,91.2,48.6,92z"/>
	<path fill="#FADFD7" d="M49.1,110.4c-0.9-0.3-1.6-0.7-2.2-1.4c-0.4-0.5-0.6-1.1-0.5-1.7s0.3-1.2,0.5-1.8c0.1-0.3,0.4-0.5,0.6-0.7
		c0.4-0.2,0.9-0.4,1.3-0.5c0.4-0.1,0.7-0.3,1.1-0.3c0.3-0.1,0.6-0.1,0.9,0c0.3,0.1,0.6,0.2,0.9,0.4c0.4,0.3,0.7,0.6,0.8,1.1
		c0,0.6,0,1.1,0,1.7c0,0.7-0.4,1.3-0.8,2c-0.2,0.4-0.7,0.7-1.1,0.9C50.1,110.1,49.6,110.2,49.1,110.4z M47.6,107.1
		c0,0.2,0,0.5,0.1,0.9c0.1,0.5,0.5,0.8,0.9,1c0.8,0.2,1.5-0.1,2.2-0.6c0.1,0,0.1-0.1,0.1-0.2c0.2-0.5,0.4-1,0.5-1.6
		c0.1-0.7-0.4-1.4-1.2-1.4s-1.6,0.2-2.2,0.6c-0.2,0.1-0.3,0.3-0.3,0.6C47.7,106.6,47.6,106.8,47.6,107.1z"/>
	<path fill="#FADFD7" d="M53,98.5c0,0.5,0,1-0.2,1.6c-0.5,1.2-1.5,1.8-2.6,2.2c-0.3,0.1-0.8,0-1.2,0c-0.3-0.1-0.6-0.3-0.8-0.4
		c-0.1-0.1-0.3-0.2-0.3-0.3c-0.2-0.5-0.4-1-0.4-1.6c-0.1-0.8,0.1-1.6,0.6-2.2c0.1-0.1,0.2-0.3,0.3-0.3c1.2-0.5,2.3-1,3.6-0.7
		c0.5,0.1,1,0.7,1.1,1.1c0,0.1,0,0.2,0,0.2C53,98.1,53,98.2,53,98.5z M48.6,99.7c0,0.3,0.1,0.6,0.1,0.9c0.1,0.4,0.8,0.8,1.1,0.6
		c0.4-0.2,0.7-0.3,1.1-0.5c0.2-0.1,0.4-0.3,0.5-0.5c0.2-0.3,0.4-0.7,0.5-1.1s0-0.8,0-1.2c0-0.1-0.2-0.3-0.3-0.3
		c-1.1-0.3-2.1,0-2.7,0.9c-0.1,0.1-0.2,0.3-0.2,0.4C48.6,99.2,48.6,99.4,48.6,99.7z"/>
	<g>
		<path fill="#FADFD7" d="M80.5,45.7c0.1,0.2,0.2,0.5,0.5,0.5c0.6,0.2,1.2,0.5,1.9,0.4c0.4,0,0.7,0.1,1.1,0.2c0.1,0,0.2,0.1,0.3,0.2
			c0.4,0.3,0.8,0.7,1,1.2c0.2,0.6,0.5,1.1,0.6,1.7c0.1,0.5,0.3,1,0.6,1.5c0.2,0.3,0.3,0.6,0.5,0.9c0.2,0.3,0.2,0.6,0.2,0.9
			c0,0.2,0,0.5,0,0.7c0,0.4-0.2,0.8-0.4,1.2c-0.8,1.1-1.7,2-2.8,2.9c-0.3,0.2-0.6,0.4-0.9,0.5c-0.3,0.2-0.7,0.2-1,0.2s-0.6,0-0.9,0
			c-1.3-0.1-2.5-0.2-3.8-0.3c-0.4,0-0.7-0.1-1-0.3c-0.4-0.2-0.8-0.4-1.1-0.6c-0.4-0.2-0.7-0.5-1.1-0.6c-0.4-0.2-0.8-0.2-1.2-0.4
			c-0.4-0.1-0.7-0.2-1.1-0.1c-0.2,0.1-0.5,0.1-0.7,0.1c-0.6,0-1.1,0.2-1.6,0.3s-1-0.1-1.4,0.1c-0.9,0.2-1.8,0.2-2.7,0.1
			c-0.5,0-1,0.1-1.4,0.3c-1.2,0.9-2.6,1.5-3.5,2.9c-0.2,0.3-0.5,0.6-0.8,0.7c-0.5,0.3-1,0.7-1.5,1.1c-0.5,0.3-1,0.7-1.5,0.9
			c-0.7,0.3-1.3,0.9-2,1.3c-0.6,0.4-1.3,0.7-1.8,1.2c-0.5,0.4-1.1,0.6-1.8,0.7c-0.4,0-0.8,0.2-1.2,0.2c-0.5,0-1-0.1-1.5,0
			c-0.8,0-1.5-0.4-2.2-0.7c-0.3-0.1-0.6-0.4-0.9-0.5c-0.5-0.3-0.9-0.7-1.1-1.1c-0.6-0.9-0.6-1.1-1-2.3c0-0.5-0.4-0.9-0.3-1.4
			c0-0.4-0.3-0.8-0.3-1.2c0-0.6-0.4-1.1-0.8-1.3c-0.6-0.3-1-0.8-1.5-1.3c-0.4-0.4-0.6-0.9-0.7-1.4c-0.3-1-0.4-2-0.3-3
			c0.1-0.6,0.4-1.1,0.8-1.4c0.8-0.5,1.5-1.2,2.3-1.8c0.3-0.2,0.6-0.4,1-0.5s0.7-0.4,1-0.7c0.3-0.4,0.4-0.9,0.5-1.3
			c0,0,0-0.1-0.1-0.2c-0.3-0.5-0.8-0.8-1.4-0.7c-0.4,0-0.7,0.2-1.1,0.2c-0.7,0-1.5,0-2.2-0.1c-0.6-0.1-1.1-0.4-1.5-0.9
			c-0.1-0.2-0.2-0.4-0.4-0.6c-0.3-0.4-0.7-0.6-1.2-0.7c-0.4-0.1-0.7-0.1-1.1-0.1c-0.3,0-0.6-0.2-0.8-0.4c-0.6-0.6-0.8-1.3-0.8-2.1
			c0-1.1,0.4-2,1.2-2.7c0.5-0.5,1-0.8,1.7-1c0.4-0.1,0.7-0.2,1.1,0c0.6,0.2,1.2,0.3,1.7,0.7c0.4,0.3,0.8,0.5,1.3,0.6
			c0.7,0.4,1.5,0.4,2.3,0.2c0.4-0.1,0.7-0.2,1.1-0.1c1,0,2.1,0.1,3.1,0.1c0.2,0,0.5,0.1,0.7,0.2c0.3,0.2,0.5,0.3,0.8,0.3
			c0.8,0,1.6,0,2.4,0c0.2,0,0.5,0,0.7-0.1c0.6-0.2,1.2-0.1,1.8,0.1c0.2,0.1,0.5,0.2,0.7,0.2c0.8,0.2,1.6-0.1,2.2-0.6
			c0.4-0.4,0.8-0.7,1.2-1.2c0.6-0.8,1.5-1.2,2.3-1.7c0.2-0.1,0.3-0.2,0.5-0.2c0.7,0,1.2-0.2,1.6-0.6c0.2-0.2,0.5-0.3,0.8-0.5
			c0.5-0.3,1-0.5,1.4-0.9c0.2-0.2,0.4-0.3,0.6-0.4c1.2-0.5,2.3-1.3,3.5-1.9c0.8-0.4,1.6-0.9,2.3-1.4c0.4-0.3,0.9-0.4,1.4-0.4
			s1.1,0.1,1.6,0.1c0.2,0,0.4,0,0.5-0.1c0.5-0.4,1.2-0.6,1.6-1.1c0.3-0.3,0.6-0.4,0.9-0.5c0.3-0.2,0.7-0.2,1,0
			c0.2,0.1,0.3,0.2,0.5,0.2c0.7,0.2,1.1,0.6,1.5,1.2c0.2,0.3,0.2,0.7,0.1,1c-0.2,0.5-0.4,1-0.8,1.4c-0.1,0.1-0.2,0.3-0.4,0.4
			c-0.3,0.3-0.7,0.5-1,0.8c-0.2,0.1-0.1,0.5,0,0.6c0.3,0.3,0.7,0.5,1,0.8c0.3,0.2,0.5,0.5,0.5,0.9c0,0.3,0.2,0.6,0.2,0.9
			c0.1,0.4,0.2,0.7,0.4,1c0.4,0.6,0.7,1.3,0.6,2c0,0.4,0.1,0.7,0.4,1c0.1,0.1,0.3,0.3,0.4,0.4c0.1,0.1,0.2,0.3,0.2,0.5
			c0,0.8,0,1.6-0.1,2.4c0,0.2-0.2,0.4-0.3,0.7C81.4,44.6,80.9,45.1,80.5,45.7z M74.4,50.9c0.1-0.1,0.2-0.3,0.4-0.4
			c0.1-0.1,0.2-0.2,0.2-0.3s0.1-0.2,0-0.3c0-0.1-0.3-0.3-0.4-0.3s-0.3,0-0.3,0.1c-0.3,0.2-0.7,0.5-1,0.8c-0.5,0.5-1,0.8-1.6,1.1
			c-0.4,0.2-0.7,0.4-1.1,0.7s-0.7,0.6-1.1,0.9c-0.2,0.2-0.4,0.4-0.7,0.6l-0.1,0.1c0,0.1,0,0.2,0.1,0.3s0.2,0.2,0.3,0.1
			c0.7-0.2,1.2-0.6,1.7-1c0.2-0.1,0.4-0.2,0.7-0.2c0.7,0,1.3,0,2,0.1c0.1,0,0.2,0.1,0.3,0.2c0.1,0.1,0.1,0.2,0.1,0.3
			c0.2,0.4,0.5,0.7,1,0.7c0.1,0,0.1,0,0.2,0c1.2,0,1,0.1,1.5,0.9c0.1,0.2,0.3,0.4,0.4,0.6c0.1,0.2,0.2,0.3,0.4,0.4
			c0.3,0.2,0.6,0.3,0.9,0.6c0.5,0.3,1,0.3,1.5,0.6c0.9,0.2,1.7-0.1,2.5-0.3c0.1,0,0.1-0.1,0.2-0.1c0.7-0.6,1.4-1.2,2-1.8
			c0.2-0.2,0.4-0.6,0.6-0.9c0.1-0.1,0.1-0.3,0-0.3c-0.2-0.5-0.4-1-0.7-1.5c-0.2-0.3-0.6-0.5-0.8-0.7c-0.1-0.1-0.2-0.2-0.2-0.3
			c-0.1-0.1-0.1-0.2-0.1-0.3c0-0.5,0.1-1,0.1-1.4c0-0.3,0-0.6-0.1-0.9c0-0.1-0.1-0.2-0.2-0.3c-0.3-0.2-0.7-0.2-1,0
			c-0.3,0.1-0.5,0.4-0.8,0.5c-0.1,0-0.3,0-0.3,0c-0.2-0.2-0.4-0.3-0.5-0.5c-0.2-0.4-0.6-0.6-0.9-0.8c-0.1,0-0.3,0-0.3,0.1
			c-0.3,0.3-0.6,0.6-0.6,1.1c0,0.2,0,0.5-0.1,0.7c0,0.2-0.1,0.5-0.4,0.5c-0.3,0.1-0.4,0.4-0.4,0.7c0,0.4,0.3,0.8,0.3,1.2
			c0,0.2,0,0.4-0.2,0.5c-0.4,0-0.7,0-0.9-0.1c-0.1,0-0.3-0.3-0.3-0.4c0.1-1-0.1-1.1-1.1-1.1c-0.3,0-0.6,0-0.9,0
			C74.6,51,74.5,50.9,74.4,50.9z M69,49.7c0.3,0.1,0.5,0.2,0.7,0.3c0.1,0,0.5-0.3,0.5-0.5c-0.1-0.2-0.1-0.5-0.3-0.7
			c-0.8-1-1.6-1.8-2.6-2.5c-0.5-0.4-1.1-0.5-1.7-0.5s-1.3,0.7-1.3,1.3c0,0.5,0.2,0.9,0.2,1.4s0,1.1,0.2,1.6c0.1,0.2,0,0.5,0,0.7
			c0,0.1-0.1,0.3-0.2,0.3c-0.3,0.1-0.7,0.3-1,0.4c-0.3,0.1-0.6-0.3-0.5-0.5c0-0.2,0.1-0.3,0.2-0.5c0.2-0.3,0.2-0.7,0.1-1
			c-0.1-0.2-0.1-0.5-0.2-0.7c-0.1-0.5-0.4-0.9-0.9-1.1c-0.1-0.1-0.2-0.1-0.3-0.1c-0.5,0.2-1,0.4-1.5,0.6c-0.2,0.1-0.3,0.2-0.4,0.4
			c-0.4,0.6-0.8,1.1-0.5,1.8c0.1,0.3,0.1,0.6,0.1,0.9c0.1,0.9,0.4,1.8,0.7,2.6c0.1,0.3,0.4,0.6,0.7,0.8c0.1,0,0.2,0,0.3,0
			c0.4-0.1,0.5-0.5,0.5-0.9c0-0.1-0.1-0.2-0.1-0.3c-0.1-0.3,0.2-0.6,0.5-0.5c0.2,0.1,0.4,0.2,0.6,0.3c0.4,0.2,0.8,0.2,1.2,0.1
			c0.4-0.2,0.8-0.3,1.2-0.5c0.6,0,0.8-0.4,1.1-0.8c0.2-0.3,0.3-0.7,0.5-1c0.2-0.4,0.5-0.8,0.9-1.1c0.1-0.1,0.3-0.2,0.5-0.2
			C68.6,49.6,68.8,49.7,69,49.7z M72.3,36.6c-0.1,0-0.1-0.1-0.1-0.1c-0.1-0.2-0.1-0.5,0.1-0.7c0.3-0.2,0.7-0.3,0.8-0.7
			c0-0.1,0.1-0.2,0-0.3c0-0.1-0.2-0.2-0.3-0.2c-0.1,0-0.2,0-0.4,0c-0.2,0.1-0.4,0.2-0.7,0.3c-0.1,0-0.3,0-0.3-0.1
			c0-0.1-0.1-0.3,0-0.3c0.4-0.4,0.8-0.8,1.2-1.1c0.1-0.1,0.3-0.2,0.5-0.2c0.3,0,0.6,0.1,0.9,0.1c0.4,0,0.7,0.2,1,0.4
			c0.1,0,0.1,0.1,0.2,0.1c0.1,0.1,0.1,0.2,0.1,0.3s0,0.2-0.2,0.3c-0.3,0.1-0.7,0.1-1,0.4C74,34.9,74,35,74,35.1
			c0.1,0.3,0.3,0.5,0.6,0.7c0.1,0.1,0.2,0.1,0.3,0.1c0.2,0,0.3-0.1,0.5-0.2c0.5-0.2,0.8-0.5,1-1c0.1-0.2,0.2-0.5,0.3-0.7
			c0-0.1-0.1-0.2-0.1-0.3c-0.1-0.5-0.4-0.8-0.9-1.1c-0.4-0.2-0.8-0.2-1.2-0.5c-0.1-0.1-0.1-0.2-0.1-0.3c0.1-0.3,0.4-0.3,0.5-0.4
			s0.2-0.4,0.1-0.5s-0.2-0.3-0.4-0.4c-1-0.4-1.7,0.1-2.1,0.9c-0.1,0.2-0.1,0.4-0.1,0.5c0,0.2-0.1,0.5-0.4,0.5
			c-0.8,0.1-1.5,0.5-2,1.1c-0.1,0.1-0.3,0.3-0.4,0.4c-0.3,0.3-0.5,0.5-0.9,0.6c-0.3,0.1-0.6,0.2-0.8,0.3c-1.6,0.5-1.2,0.3-2.3,1.3
			c-0.1,0.1-0.3,0.2-0.4,0.4l-0.1,0.1c-0.1,0.1-0.1,0.4,0,0.5c0.3,0.4,0.5,0.4,0.9,0.3c0.1,0,0.1-0.1,0.2-0.1c0.3-0.1,0.5,0,0.6,0.2
			c0.2,0.4,0.3,0.8,0.3,1.2c-0.1,0.6,0.2,1.1,0.4,1.6c0,0.1,0.2,0.2,0.3,0.2c0.4,0.2,1-0.1,1-0.5c0.1-0.6,0.1-1.2,0.1-1.8
			c-0.3-0.5-0.1-1.1-0.4-1.6c-0.1-0.4,0.1-0.6,0.3-0.7c0.1-0.1,0.2-0.1,0.3-0.2c0.1,0,0.1-0.1,0.2-0.1c0.1-0.1,0.4,0.1,0.5,0.2
			c0.3,0.7,0.6,1.3,0.9,2c0.1,0.2,0.2,0.3,0.4,0.4c0.4,0.2,0.8,0.2,1.3,0.1c0.5-0.1,0.9-0.4,1.2-0.7c0.3-0.3,0.3-0.8-0.1-1.1
			c-0.1-0.1-0.2-0.2-0.3-0.1C73,36.3,72.7,36.4,72.3,36.6z M72.4,41.6c0.1,0.8,0.4,1.6,0.7,2.3c0.2,0.4,0.4,0.9,0.5,1.4
			c0.1,0.3,0.4,0.6,0.8,0.7c0.4,0.1,0.7,0.1,1.1,0.1c0.2,0,0.4-0.1,0.5-0.2c0.4-0.2,0.7-0.5,1-0.8c0.1-0.2,0.1-0.3,0-0.5
			c0-0.1-0.1-0.2-0.1-0.3c-0.1-0.2-0.4-0.3-0.6-0.2c-0.1,0-0.1,0.1-0.2,0.1c-0.1,0.1-0.2,0.1-0.3,0.2c-0.1,0.1-0.2,0.1-0.3,0
			c-0.1-0.1-0.1-0.3-0.1-0.3c0.3-0.5,0.6-0.9,0.8-1.4c0.1-0.2-0.1-0.5-0.3-0.6c-0.2,0-0.4,0-0.5,0c-0.2,0.1-0.4,0.2-0.7,0.3
			c-0.2,0.1-0.4,0-0.5-0.2c-0.1-0.1-0.1-0.4,0.1-0.5l0.1-0.1c0.3-0.2,0.6-0.4,0.9-0.6c0.2-0.1,0.4-0.1,0.5,0c0.3,0.2,0.6,0.3,1,0.3
			c0.3,0,0.6,0,0.9,0c0.2,0,0.4,0.4,0.3,0.5c-0.1,0.2-0.3,0.4-0.4,0.6c-0.1,0.2-0.1,0.5,0.1,0.7c0.4,0.5,1,0.5,1.4,0.1
			c0.4-0.3,0.7-0.7,0.7-1.2c0-0.1,0-0.1,0-0.2c0-0.9-0.4-1.5-1.2-1.8c-0.3-0.1-0.7-0.2-1-0.3c-0.1,0-0.1-0.1-0.1-0.1
			c0-0.1,0-0.3,0.1-0.3c0.1-0.1,0.3-0.2,0.4-0.3c0.2-0.1,0.2-0.4,0.1-0.7c-0.1-0.2-0.4-0.4-0.6-0.3c-0.7,0.1-1.4,0.4-1.8,1.1
			c-0.1,0.2-0.1,0.3-0.2,0.5c-0.2,0.3-0.4,0.4-0.8,0.4c-0.2,0-0.4,0-0.5,0s-0.3,0-0.3,0.1C73.3,40.6,72.7,41,72.4,41.6z M35.8,40
			c0,0.2,0,0.4,0,0.6c0,0.3,0.1,0.5,0.4,0.8c0.6,0.5,1.2,0.8,1.9,0.9c0.3,0.2,0.7,0.3,1,0.3c0.5,0,0.8,0.3,0.9,0.7
			c0.1,0.3,0.2,0.5,0.4,0.8s0.4,0.4,0.8,0.4c0.2,0,0.5,0,0.7-0.1c0.4-0.1,0.7-0.2,1.1-0.1c0.2,0,0.4,0,0.5,0c0.3,0,0.5-0.2,0.6-0.4
			c0.3-0.3,0.5-0.7,0.6-1.1c0.1-0.5,0.4-0.8,0.9-1c0.1,0,0.2-0.1,0.3-0.2c0.2-0.2,0.3-0.5,0.2-0.8c-0.1-0.4-0.3-0.8-0.8-0.9
			c-0.3-0.1-0.5-0.2-0.8-0.3c-0.8-0.1-1.7,0-2.5-0.4c-0.1-0.1-0.2,0-0.4,0c-1-0.1-1.9-0.2-2.9-0.3c-0.5,0-1.1,0-1.6,0
			c-0.4,0-0.8,0.2-1.2,0.4c-0.1,0-0.2,0.2-0.2,0.3C35.8,39.7,35.8,39.9,35.8,40z M43.4,50.5c-0.2,0-0.3,0-0.4,0
			c-0.4,0-0.7,0.1-1,0.3c-0.2,0.2-0.4,0.4-0.6,0.6c-0.2,0.2-0.3,0.4-0.3,0.6c0,0.5,0,1-0.1,1.4c-0.1,0.6,0.3,1.2,0.3,1.8
			c0,0.1,0.1,0.2,0.2,0.3c0.4,0.4,0.7,0.8,1.1,1.2c0.3,0.3,0.7,0.4,1.1,0.6c0.1,0.1,0.4,0.1,0.5,0c0.3-0.1,0.7-0.3,1-0.5
			c0.7-0.5,1.1-1.2,1.1-2c0.1-1-0.3-1.8-1-2.4c-0.2-0.2-0.5-0.2-0.7-0.1c-0.5,0.2-0.8,0.5-1.1,0.9c-0.1,0.2-0.1,0.6,0.1,0.8
			c0.2,0.2,0.4,0.3,0.6,0.2c0.1,0,0.2-0.1,0.3-0.1c0.2,0,0.3,0.1,0.3,0.3c0,0.3-0.1,0.6-0.4,0.8c-0.4,0.3-0.8,0.3-1.2,0
			c-0.9-0.7-1.1-1.7-0.9-2.8c0.1-0.2,0.2-0.4,0.4-0.6c0.2-0.1,0.4-0.2,0.7-0.3c0.3-0.2,0.4-0.4,0.4-0.8c0-0.2-0.2-0.4-0.3-0.4
			C43.6,50.5,43.5,50.5,43.4,50.5z M49.8,57.6c-0.1,1.3,0.3,2.3,0.7,3.3c0.1,0.3,0.3,0.5,0.6,0.7c0.4,0.4,0.9,0.3,1.2-0.2
			c0.2-0.3,0.2-0.5,0.1-0.8c-0.1-0.2-0.1-0.5-0.1-0.7s0.1-0.4,0.2-0.5c0.1-0.2,0.3-0.3,0.5-0.5c0.2-0.1,0.3-0.1,0.5,0
			c0.3,0.3,0.3,0.8,0.7,1.1c0.2,0.1,0.5,0.2,0.7,0.1c0.4-0.2,0.5-0.5,0.4-0.9c-0.2-0.5-0.3-1-0.3-1.6c0-0.1,0-0.1,0-0.2
			c-0.2-0.7-0.4-1.4-0.8-2c-0.1-0.2-0.3-0.4-0.6-0.4c-0.2,0-0.4,0-0.5,0c-0.3,0-0.4,0.2-0.5,0.5c-0.1,0.4,0,0.7,0.2,1
			c0.1,0.2,0.1,0.5,0,0.7c-0.1,0.3-0.3,0.5-0.6,0.6c-0.1,0-0.3,0-0.3,0c-0.2-0.2-0.4-0.4-0.6-0.7c-0.1-0.1-0.3-0.2-0.4-0.4
			c-0.3-0.2-0.8,0-0.9,0.3C49.9,57.3,49.8,57.6,49.8,57.6z M60.2,43.8c0.1,0.1,0.2,0.1,0.2,0.1c0.2,0.2,0.3,0.4,0.5,0.6
			c0.1,0.1,0.3,0.3,0.4,0.4c0.3,0.3,1.1,0,1.2-0.5c0-0.1,0-0.1,0-0.2c-0.2-0.5-0.4-0.9-0.5-1.4c-0.1-0.4-0.2-0.8-0.4-1.2
			s-0.2-0.9-0.4-1.4c-0.1-0.2-0.2-0.3-0.4-0.4c-0.1-0.1-0.4-0.1-0.5,0c-0.2,0.2-0.5,0.4-0.5,0.7c0,0.4-0.1,0.7-0.1,1.1
			c0,0.3-0.2,0.5-0.5,0.7c-0.2,0.2-0.5,0.2-0.6,0c-0.3-0.3-0.5-0.7-0.9-0.9c-0.1-0.1-0.4,0-0.5,0.1c-0.2,0.4-0.5,0.7-0.2,1.2
			c0,1.1,0.5,2.1,0.8,3.1c0.1,0.2,0.3,0.4,0.4,0.5c0.2,0.2,0.6,0.1,0.9,0c0.3-0.2,0.4-0.5,0.3-0.8c-0.1-0.2-0.2-0.3-0.2-0.5
			c-0.1-0.2,0-0.5,0.2-0.7C59.7,44.2,60,44,60.2,43.8z M58.8,56.1c0.2,0.1,0.3,0.1,0.4,0.2c0.2,0.1,0.5,0.1,0.7-0.1
			c0.3-0.3,0.4-0.8,0.2-1.1c-0.5-0.6-0.9-1.3-1.4-1.9c-0.1-0.2-0.3-0.4-0.5-0.5c-0.2-0.2-0.4-0.3-0.6-0.3c-0.2,0-0.5-0.1-0.7-0.1
			c-0.5,0-0.8,0.2-1.1,0.5c-0.2,0.3-0.5,0.6-0.5,1s-0.1,0.9,0,1.3c0.2,0.5,0.1,1,0.2,1.4c0.2,0.5,0.2,1.1,0.2,1.6
			c0,0.1,0.1,0.2,0.1,0.3s0.3,0.4,0.4,0.3c0.1-0.1,0.2-0.1,0.3-0.2c0.2-0.3,0.4-0.6,0.6-0.9c0.1-0.4,0.4-0.6,0.7-0.8
			C58.1,56.5,58.5,56.3,58.8,56.1z M45.9,50.3c-0.1,1,0.2,1.9,0.7,2.7c0.1,0.2,0.2,0.3,0.4,0.4c0.4,0.2,0.7,0.5,1.1,0.5
			c0.2,0,0.5,0.1,0.7,0c0.3-0.1,0.7-0.3,1-0.5c0.4-0.3,0.7-0.7,0.9-1.1c0.1-0.3,0-0.6,0-0.9c0-0.7-0.3-1.3-0.6-1.9
			c-0.1-0.3-0.3-0.5-0.5-0.8c-0.1-0.2-0.3-0.3-0.5-0.4c-0.8-0.5-1.6-0.2-2.4,0.2c-0.1,0-0.1,0.1-0.1,0.1
			C46.2,49.3,45.9,49.7,45.9,50.3z M73.1,46.2c0.2-0.5-0.2-1.1-0.2-1.7c-0.1-0.4-0.3-0.7-0.6-0.9c-0.3-0.2-0.6-0.4-0.9-0.6
			c-0.8-0.5-1.6-0.3-2.3,0.4c-0.2,0.2-0.3,0.4-0.3,0.6c0,0.3,0,0.6,0,0.9c0.1,0.5,0.3,1,0.5,1.5c0.1,0.2,0.2,0.5,0.3,0.7
			c0.3,0.5,0.6,0.9,1,1.3c0.1,0.1,0.2,0.1,0.3,0.2c0.4,0.1,0.8,0,1.2-0.3C72.6,47.8,73.1,47.2,73.1,46.2z M54.8,48.5
			c0-0.3,0-0.5,0-0.7c0-0.6-0.3-1-0.7-1.4c-0.2-0.2-0.4-0.3-0.6-0.5c-0.5-0.5-1.1-0.4-1.7-0.4c-0.4,0.2-0.8,0.3-1.1,0.6
			c-0.1,0.1-0.3,0.3-0.2,0.5c0.2,0.6,0.2,1.3,0.2,2c0,0.2,0,0.5,0.1,0.7c0.2,0.6,0.4,1.1,0.7,1.6c0.1,0.1,0.2,0.3,0.4,0.4
			c0.4,0.2,0.8,0.2,1.2,0.1c0.4-0.1,0.8-0.4,1-0.8c0.2-0.4,0.4-0.7,0.5-1.2C54.7,49.1,54.7,48.7,54.8,48.5z M48.1,64.3
			c0.5,0.1,1.2-0.2,1.7-0.7c0.1-0.1,0.2-0.2,0.3-0.3c0.3-0.3,0.4-0.7,0.2-1.2c0-0.1-0.3-0.3-0.4-0.3c-0.3,0.2-0.7,0.3-1,0.5
			s-0.7,0.2-1.1,0.1c-0.1,0-0.2-0.1-0.3-0.2c-0.2-0.4-0.4-0.7-0.4-1.2c0-0.4,0.3-0.7,0.7-0.8c0.3,0,0.6,0,0.9,0
			c0.1,0,0.2-0.1,0.2-0.2c0.1-0.2,0.1-0.4,0.1-0.5c0-0.2-0.1-0.5-0.3-0.6c-0.4-0.2-0.8-0.3-1.2-0.4c-0.2,0-0.4,0-0.5,0.1
			c-0.4,0.2-0.9,0.5-1.1,1c-0.3,0.5-0.6,1.1-0.6,1.7c0,0.3,0,0.6,0.1,0.9c0.2,0.8,0.7,1.4,1.3,1.9c0.1,0.1,0.3,0.2,0.5,0.2
			C47.4,64.2,47.6,64.2,48.1,64.3z M62.5,39.6c0,0.7,0,1.2,0,1.7c0.3,0.7,0.3,1.4,0.7,2.1c0.1,0.2,0.3,0.4,0.5,0.5
			c0.1,0.1,0.4,0,0.5,0c0.2-0.1,0.3-0.3,0.3-0.4c0-0.3-0.1-0.6-0.2-0.9c0-0.1,0.1-0.2,0.1-0.3s0.1-0.1,0.1-0.1
			c0.5-0.4,1.1-0.8,1.8-0.6c0.1,0,0.1,0,0.2,0s0.3-0.2,0.3-0.4c0.1-0.4,0-0.7-0.2-1c-0.6-0.7-1.2-1.4-1.8-2
			c-0.2-0.2-0.4-0.3-0.6-0.3s-0.5,0-0.7,0c-0.1,0-0.3,0-0.3,0.1c-0.3,0.3-0.5,0.7-0.6,1.1C62.5,39.3,62.5,39.6,62.5,39.6z
			 M49.5,40.6c-0.4,0-1.1,0.3-1.9,0.3c-0.1,0-0.1,0-0.2,0.1c-0.1,0.1-0.3,0.2-0.4,0.4c-0.1,0.1,0,0.4,0.1,0.5
			c0.2,0.1,0.5,0.1,0.7,0.2c0.3,0.1,0.5,0.3,0.6,0.6s0.2,0.6,0.2,0.9c0,0.4-0.4,0.5-0.7,0.8c-0.1,0.1-0.3,0.3-0.3,0.4
			c0,0.1,0,0.2,0.1,0.3s0.2,0.2,0.3,0.1c0.6-0.3,1.2-0.6,1.8-0.9c0.2-0.1,0.3-0.2,0.5-0.3c0.7-0.6,1.4-1.1,2.2-1.6
			c0.3-0.2,0.5-0.4,0.7-0.6c0.1-0.1,0.2-0.2,0.3-0.3s0.1-0.2,0.1-0.3c-0.1-0.1-0.3-0.2-0.4-0.3c0,0-0.1,0.1-0.2,0.1
			c-0.5,0.1-0.9,0.4-1.2,0.7c-0.4,0.3-0.7,0.1-1-0.4c0-0.1,0-0.1-0.1-0.2C50.5,40.8,50.2,40.7,49.5,40.6z M77.3,30.6
			c0.1,0,0.1,0,0.2,0c0.3-0.1,0.6-0.2,0.8-0.4c0.2-0.2,0.4-0.4,0.4-0.7c0-0.2-0.2-0.5-0.4-0.5c-0.3-0.1-0.6,0-0.8,0.2
			c-0.1,0.1-0.3,0.2-0.4,0.4c-0.3,0.3-0.3,0.6,0,0.9C77.2,30.6,77.3,30.6,77.3,30.6z"/>
		<path fill="#FADFD7" d="M79.6,53.7c0-0.3-0.1-0.5-0.2-0.7c0-0.1,0-0.3,0-0.3c0.4-0.3,0.9-0.6,1.4-0.9c0.2-0.1,0.5-0.1,0.7,0
			c0.5,0.2,1,0.4,1.4,0.8c0.5,0.5,0.6,0.8,0,1.3c-0.5,0.4-2.4,1.5-3.1,1.8c-0.2,0.1-0.3,0.2-0.5,0.2c-0.1,0-0.2,0-0.4,0
			c-0.6-0.2-1.2-0.5-1.6-1.1c-0.1-0.2,0-0.5,0.2-0.6s0.3-0.1,0.5-0.1c0.4,0,0.7,0.1,1.1,0C79.3,54,79.4,53.9,79.6,53.7z"/>
		<path fill="#FADFD7" d="M82.4,55.5c0,0.1,0,0.1,0,0.2c-0.2,0.4-0.6,0.6-0.9,0.8c-0.2,0.1-0.5,0.1-0.7,0c-0.1,0-0.1-0.1-0.1-0.1
			v-0.1C81.1,55.9,81.7,55.6,82.4,55.5C82.3,55.4,82.4,55.4,82.4,55.5L82.4,55.5z"/>
		<path fill="#FADFD7" d="M82.4,55.5c0-0.1,0-0.1,0-0.2c0.4-0.4,0.7-0.8,1.2-1c0.1-0.1,0.2,0,0.2,0.2c0,0.1,0,0.1,0,0.2
			c-0.3,0.4-0.6,0.7-1.1,0.9C82.7,55.5,82.6,55.5,82.4,55.5L82.4,55.5z"/>
		<path fill="#FADFD7" d="M61.3,51c-0.1-0.1-0.2-0.3-0.3-0.4c-0.1-0.2-0.1-0.3,0-0.5c0.2-0.3,0.3-0.5,0.6-0.6c0,0,0.1-0.1,0.2,0
			c0.1,0.1,0.2,0.1,0.2,0.2C62,50.2,61.9,50.7,61.3,51z"/>
		<path fill="#FADFD7" d="M66.6,49.4c-0.4-0.3-0.6-0.6-0.5-1.1c0-0.2,0.4-0.4,0.5-0.3c0.2,0.1,0.4,0.3,0.5,0.5
			c0,0.2,0.1,0.4-0.1,0.5C66.8,49.2,66.7,49.3,66.6,49.4z"/>
		<path fill="#FADFD7" d="M39.3,39.8c0.5,0,1,0,1.4,0.1c0.2,0,0.4,0,0.5,0.1c0.9,0.4,1.9,0.3,2.8,0.5c0.3,0,0.5,0.1,0.6,0.3
			c0,0,0.1,0.1,0.1,0.2c0,0.1,0,0.2-0.2,0.2c-0.6,0-1.2,0-1.8,0c-0.5,0-1.1-0.1-1.6-0.1c-0.1,0-0.2,0.1-0.2,0.2
			c-0.1,0.1,0,0.3,0.1,0.3c0.2,0.1,0.5,0.1,0.7,0.3c0.2,0.1,0.3,0.2,0.4,0.3c0,0,0.1,0.1,0,0.2c0,0-0.1,0.1-0.2,0.1
			c-0.5,0.1-1.1,0-1.6-0.2c-0.7-0.3-1.4-0.7-2.2-0.7c-0.2,0-0.4-0.1-0.5-0.2c-0.4-0.2-0.7-0.5-0.9-0.9c-0.1-0.2-0.1-0.4,0-0.5
			c0.2-0.2,0.4-0.3,0.6-0.3C38.1,39.7,38.7,39.7,39.3,39.8L39.3,39.8z"/>
		<path fill="#FADFD7" d="M44.1,42.6c0,0.1,0,0.2-0.1,0.3c0,0.1-0.3,0.3-0.4,0.2c-0.1-0.1-0.2-0.1-0.2-0.2c0-0.2,0-0.4,0-0.5
			s0.1-0.2,0.2-0.2c0.1,0,0.4,0.1,0.4,0.2C44.1,42.5,44.1,42.5,44.1,42.6z"/>
		<path fill="#FADFD7" d="M41.8,43.5c-0.1,0.2-0.3,0.3-0.4,0.2c-0.1,0-0.2-0.3-0.2-0.5c0-0.1,0.3-0.2,0.5-0.1
			C41.8,43.3,41.8,43.4,41.8,43.5z"/>
		<path fill="#FADFD7" d="M57.2,54.2c0.2,0.2,0.4,0.4,0.6,0.7c0.2,0.2,0.1,0.4-0.1,0.6c-0.3,0.2-0.6,0.2-0.8-0.1
			c-0.1-0.1-0.1-0.2-0.2-0.3c-0.1-0.2-0.1-0.5,0.1-0.6C56.9,54.3,57,54.3,57.2,54.2z"/>
		<path fill="#FADFD7" d="M48.1,50c0.1,0.1,0.3,0.1,0.4,0.3c0.4,0.4,0.5,0.9,0.6,1.5c0,0.2,0,0.4,0,0.5c0,0.2-0.2,0.3-0.3,0.4
			c-0.4,0.1-0.8-0.1-0.9-0.4c-0.2-0.4-0.3-0.8-0.5-1.1c-0.1-0.3,0.1-0.8,0.5-1.1C47.9,50,48,50,48.1,50z"/>
		<path fill="#FADFD7" d="M71.7,45.5c0,0.1-0.1,0.3-0.1,0.4c0,0.1-0.3,0.2-0.5,0.1c-0.5-0.4-0.6-0.9-0.4-1.6
			c0.1-0.1,0.2-0.2,0.3-0.1c0.1,0,0.1,0,0.2,0c0.3,0.2,0.5,0.4,0.5,0.7C71.7,45.2,71.7,45.3,71.7,45.5z"/>
		<path fill="#FADFD7" d="M52.4,47.1c0.2,0.1,0.3,0.1,0.5,0.2c0.5,0.3,0.6,0.7,0.6,1.2c0,0.3-0.2,0.7-0.5,0.9
			c-0.1,0.1-0.4,0.1-0.5,0s-0.3-0.3-0.3-0.4c-0.1-0.6-0.2-1.2,0-1.7C52.3,47.2,52.4,47.1,52.4,47.1z"/>
		<path fill="#FADFD7" d="M64.6,40.3c0,0.2-0.4,0.6-0.5,0.6L64,40.8c-0.1-0.2-0.1-0.4,0.1-0.7c0.1-0.1,0.2-0.2,0.3-0.1
			C64.5,40,64.6,40.1,64.6,40.3z"/>
		<path fill="#EB594F" d="M74.4,50.9c0.1,0.1,0.2,0.2,0.3,0.2c0.3,0,0.6,0,0.9,0c1,0,1.2,0.1,1.1,1.1c0,0.2,0.1,0.4,0.3,0.4
			c0.2,0.1,0.5,0.1,0.7-0.1c0.2-0.1,0.2-0.3,0.2-0.5c0-0.4-0.3-0.8-0.3-1.2c0-0.3,0.1-0.6,0.4-0.7c0.3-0.1,0.4-0.3,0.4-0.5
			s0-0.5,0.1-0.7c0-0.4,0.3-0.8,0.6-1.1c0.1-0.1,0.3-0.1,0.3-0.1c0.4,0.2,0.7,0.4,0.9,0.8c0.1,0.2,0.3,0.4,0.5,0.5
			c0.1,0.1,0.3,0.1,0.3,0c0.3-0.1,0.5-0.3,0.8-0.5s0.7-0.2,1,0c0.1,0,0.2,0.2,0.2,0.3c0,0.3,0.1,0.6,0.1,0.9c0,0.5-0.1,1-0.1,1.4
			c0,0.1,0.1,0.2,0.1,0.3c0.1,0.1,0.2,0.2,0.2,0.3c0.3,0.2,0.6,0.4,0.8,0.7c0.3,0.4,0.5,1,0.7,1.5c0,0.1,0,0.2,0,0.3
			c-0.2,0.3-0.3,0.7-0.6,0.9c-0.6,0.6-1.4,1.2-2,1.8c0,0-0.1,0.1-0.2,0.1c-0.8,0.3-1.6,0.5-2.5,0.3c-0.5-0.3-1-0.3-1.5-0.6
			c-0.3-0.2-0.6-0.4-0.9-0.6c-0.2-0.1-0.3-0.2-0.4-0.4s-0.3-0.4-0.4-0.6c-0.5-0.9-0.3-0.9-1.5-0.9c-0.1,0-0.1,0-0.2,0
			c-0.5,0-0.8-0.3-1-0.7c-0.1-0.1-0.1-0.2-0.1-0.3c-0.1-0.1-0.2-0.2-0.3-0.2c-0.7,0-1.3,0-2-0.1c-0.3,0-0.5,0.1-0.7,0.2
			c-0.5,0.4-1,0.9-1.7,1c-0.1,0-0.3,0-0.3-0.1s-0.1-0.2-0.1-0.3l0.1-0.1c0.2-0.2,0.4-0.4,0.7-0.6c0.4-0.3,0.7-0.7,1.1-0.9
			c0.3-0.3,0.7-0.5,1.1-0.7c0.6-0.3,1.1-0.7,1.6-1.1c0.3-0.3,0.7-0.5,1-0.8c0.1-0.1,0.2,0,0.3-0.1c0.2,0,0.4,0.1,0.4,0.3
			c0,0.1,0,0.2,0,0.3s-0.1,0.2-0.2,0.3C74.7,50.6,74.5,50.7,74.4,50.9z M82.4,55.5c-0.1,0-0.1,0-0.2,0c-0.6,0.1-1.1,0.4-1.6,0.8v0.1
			c0,0.1,0.1,0.1,0.1,0.1c0.2,0.1,0.5,0.1,0.7,0c0.4-0.2,0.7-0.4,0.9-0.8C82.4,55.6,82.4,55.5,82.4,55.5c0.1,0,0.3,0,0.4,0
			c0.5-0.2,0.8-0.5,1.1-0.9c0,0,0-0.1,0-0.2c0-0.2-0.1-0.2-0.2-0.2c-0.5,0.3-0.9,0.6-1.2,1C82.4,55.3,82.4,55.4,82.4,55.5z
			 M79.6,53.7c-0.1,0.2-0.3,0.4-0.5,0.4c-0.4,0.1-0.7,0-1.1,0c-0.2,0-0.4,0.1-0.5,0.1c-0.2,0.1-0.3,0.4-0.2,0.6
			c0.4,0.6,0.9,0.9,1.6,1.1c0.1,0,0.2,0,0.4,0c0.2,0,0.3-0.1,0.5-0.2c0.7-0.3,2.6-1.5,3.1-1.8c0.7-0.5,0.5-0.8,0-1.3
			c-0.4-0.4-0.9-0.6-1.4-0.8c-0.2-0.1-0.5-0.1-0.7,0c-0.5,0.2-0.9,0.6-1.4,0.9c-0.1,0-0.1,0.2,0,0.3C79.4,53.2,79.6,53.4,79.6,53.7z
			"/>
		<path fill="#78433F" d="M69,49.7c-0.2,0-0.5-0.1-0.7,0c-0.2,0-0.4,0.1-0.5,0.2c-0.4,0.3-0.6,0.7-0.9,1.1c-0.2,0.3-0.3,0.7-0.5,1
			c-0.2,0.4-0.5,0.9-1.1,0.8c-0.4,0.2-0.8,0.3-1.2,0.5c-0.4,0.2-0.8,0.1-1.2-0.1c-0.2-0.1-0.4-0.2-0.6-0.3c-0.3-0.1-0.6,0.2-0.5,0.5
			c0,0.1,0.1,0.2,0.1,0.3c0.1,0.4-0.1,0.7-0.5,0.9c-0.1,0-0.2,0-0.3,0c-0.3-0.2-0.6-0.4-0.7-0.8c-0.3-0.8-0.6-1.7-0.7-2.6
			c0-0.3,0-0.6-0.1-0.9c-0.3-0.7,0.1-1.3,0.5-1.8c0.1-0.1,0.2-0.3,0.4-0.4c0.5-0.2,1-0.4,1.5-0.6c0.1,0,0.2,0,0.3,0.1
			c0.4,0.3,0.8,0.6,0.9,1.1c0,0.2,0.1,0.5,0.2,0.7c0.1,0.4,0.1,0.7-0.1,1c-0.1,0.2-0.1,0.3-0.2,0.5c-0.1,0.3,0.3,0.6,0.5,0.5
			c0.3-0.1,0.7-0.2,1-0.4c0.1,0,0.2-0.2,0.2-0.3c0-0.2,0.1-0.5,0-0.7c-0.2-0.5-0.2-1.1-0.2-1.6s-0.2-0.9-0.2-1.4
			c0-0.6,0.7-1.3,1.3-1.3c0.6,0,1.2,0.1,1.7,0.5c1,0.7,1.9,1.5,2.6,2.5c0.1,0.2,0.2,0.4,0.3,0.7c0,0.1-0.3,0.5-0.5,0.5
			C69.5,49.9,69.3,49.8,69,49.7z M61.3,51c0.6-0.3,0.7-0.8,0.6-1.3c0-0.1-0.1-0.2-0.2-0.2c0,0-0.1,0-0.2,0c-0.3,0.2-0.4,0.4-0.6,0.6
			c-0.1,0.2-0.1,0.3,0,0.5C61.1,50.7,61.2,50.8,61.3,51z M66.6,49.4c0.1-0.1,0.3-0.2,0.4-0.3s0.1-0.3,0.1-0.5
			c-0.1-0.2-0.2-0.4-0.5-0.5c-0.2-0.1-0.5,0.1-0.5,0.3C66,48.8,66.2,49.2,66.6,49.4z"/>
		<path fill="#78433F" d="M72.3,36.6c0.3-0.1,0.7-0.3,1-0.4c0.1,0,0.2,0.1,0.3,0.1c0.3,0.3,0.3,0.8,0.1,1.1
			c-0.3,0.4-0.8,0.6-1.2,0.7c-0.4,0.1-0.9,0.1-1.3-0.1c-0.2-0.1-0.3-0.2-0.4-0.4c-0.3-0.6-0.6-1.3-0.9-2c-0.1-0.1-0.3-0.2-0.5-0.2
			c-0.1,0-0.1,0-0.2,0.1c-0.1,0.1-0.2,0.1-0.3,0.2c-0.2,0.2-0.5,0.4-0.3,0.7c0.2,0.5,0,1.1,0.4,1.6c0.1,0.6,0.1,1.2-0.1,1.8
			c-0.1,0.4-0.6,0.7-1,0.5c-0.1,0-0.2-0.1-0.3-0.2c-0.2-0.5-0.5-1-0.4-1.6c0-0.4-0.1-0.8-0.3-1.2c-0.1-0.3-0.3-0.3-0.6-0.2
			c-0.1,0-0.1,0.1-0.2,0.1c-0.5,0.1-0.6,0.1-0.9-0.3c-0.1-0.1-0.1-0.4,0-0.5l0.1-0.1c0.1-0.1,0.3-0.2,0.4-0.4
			c1.1-1.1,0.7-0.8,2.3-1.3c0.3-0.1,0.6-0.2,0.8-0.3c0.4-0.1,0.7-0.3,0.9-0.6c0.1-0.1,0.3-0.3,0.4-0.4c0.6-0.6,1.2-1,2-1.1
			c0.3,0,0.4-0.3,0.4-0.5s0-0.4,0.1-0.5c0.3-0.8,1.1-1.3,2.1-0.9c0.2,0.1,0.3,0.2,0.4,0.4c0.1,0.1,0.1,0.4-0.1,0.5
			c-0.2,0.2-0.4,0.2-0.5,0.4c-0.1,0.1,0,0.3,0.1,0.3c0.4,0.2,0.8,0.3,1.2,0.5c0.5,0.2,0.8,0.6,0.9,1.1c0,0.1,0.1,0.2,0.1,0.3
			c-0.1,0.2-0.2,0.4-0.3,0.7c-0.1,0.5-0.5,0.8-1,1c-0.2,0.1-0.3,0.1-0.5,0.2c-0.1,0-0.2,0-0.3-0.1c-0.3-0.2-0.5-0.4-0.6-0.7
			c0-0.1,0-0.2,0.1-0.3c0.3-0.3,0.7-0.2,1-0.4c0.1,0,0.2-0.2,0.2-0.3c0-0.1,0-0.2-0.1-0.3c0,0-0.1-0.1-0.2-0.1
			c-0.3-0.2-0.6-0.4-1-0.4c-0.3,0-0.6-0.1-0.9-0.1c-0.2,0-0.4,0.1-0.5,0.2c-0.4,0.4-0.8,0.7-1.2,1.1c-0.1,0.1,0,0.2,0,0.3
			s0.2,0.2,0.3,0.1c0.2-0.1,0.4-0.2,0.7-0.3c0.1,0,0.2,0,0.4,0c0.1,0,0.2,0.1,0.3,0.2c0,0.1,0,0.2,0,0.3c-0.2,0.3-0.6,0.4-0.8,0.7
			c-0.2,0.2-0.2,0.4-0.1,0.7C72.2,36.5,72.3,36.5,72.3,36.6z"/>
		<path fill="#78433F" d="M72.4,41.6c0.3-0.6,0.9-1,1.5-1.4c0.1-0.1,0.2-0.1,0.3-0.1c0.2,0,0.4,0,0.5,0c0.3,0,0.6-0.1,0.8-0.4
			c0.1-0.1,0.2-0.3,0.2-0.5c0.4-0.7,1.1-0.9,1.8-1.1c0.2,0,0.5,0.1,0.6,0.3s0,0.5-0.1,0.7c-0.1,0.1-0.3,0.2-0.4,0.3
			s-0.1,0.2-0.1,0.3l0.1,0.1c0.3,0.1,0.7,0.1,1,0.3c0.8,0.3,1.2,1,1.2,1.8c0,0.1,0,0.1,0,0.2c0,0.5-0.3,0.9-0.7,1.2
			c-0.5,0.4-1,0.3-1.4-0.1c-0.2-0.2-0.2-0.5-0.1-0.7s0.3-0.4,0.4-0.6c0.1-0.2-0.1-0.5-0.3-0.5c-0.3,0-0.6,0-0.9,0
			c-0.4,0-0.7-0.1-1-0.3c-0.2-0.1-0.3-0.1-0.5,0c-0.3,0.2-0.6,0.4-0.9,0.6l-0.1,0.1c-0.1,0.1-0.2,0.3-0.1,0.5
			c0.1,0.1,0.3,0.2,0.5,0.2c0.2-0.1,0.4-0.2,0.7-0.3c0.2,0,0.4,0,0.5,0c0.2,0,0.4,0.4,0.3,0.6c-0.2,0.5-0.5,0.9-0.8,1.4
			c0,0.1,0,0.2,0.1,0.3s0.2,0.1,0.3,0c0.1-0.1,0.2-0.1,0.3-0.2c0,0,0.1-0.1,0.2-0.1c0.2-0.1,0.5-0.1,0.6,0.2
			c0.1,0.1,0.1,0.2,0.1,0.3c0.1,0.2,0.1,0.3,0,0.5c-0.3,0.3-0.6,0.6-1,0.8c-0.2,0.1-0.3,0.2-0.5,0.2c-0.4,0-0.7,0-1.1-0.1
			s-0.7-0.3-0.8-0.7c-0.1-0.5-0.3-0.9-0.5-1.4C72.7,43.2,72.5,42.4,72.4,41.6z"/>
		<path fill="#EB594F" d="M35.8,40c0-0.1,0-0.3,0.1-0.5c0-0.1,0.1-0.2,0.2-0.3c0.4-0.2,0.7-0.4,1.2-0.4s1.1,0,1.6,0
			c1,0.1,1.9,0.2,2.9,0.3c0.1,0,0.3,0,0.4,0c0.8,0.4,1.6,0.3,2.5,0.4c0.3,0,0.6,0.2,0.8,0.3c0.4,0.2,0.6,0.5,0.8,0.9
			c0.1,0.3,0,0.6-0.2,0.8c-0.1,0.1-0.2,0.2-0.3,0.2c-0.5,0.1-0.8,0.4-0.9,1c-0.1,0.4-0.3,0.8-0.6,1.1c-0.2,0.2-0.4,0.3-0.6,0.4
			c-0.2,0-0.4,0.1-0.5,0c-0.4,0-0.7,0-1.1,0.1c-0.2,0.1-0.5,0.1-0.7,0.1c-0.3,0-0.6-0.1-0.8-0.4c-0.2-0.2-0.3-0.5-0.4-0.8
			c-0.2-0.4-0.5-0.7-0.9-0.7s-0.7-0.1-1-0.3c-0.8,0-1.4-0.4-1.9-0.9c-0.3-0.2-0.4-0.4-0.4-0.8C35.8,40.5,35.8,40.3,35.8,40z
			 M39.3,39.8L39.3,39.8c-0.6-0.1-1.2-0.1-1.8-0.1c-0.3,0-0.5,0.1-0.6,0.3c-0.1,0.1-0.1,0.3,0,0.5c0.2,0.4,0.6,0.6,0.9,0.9
			c0.1,0.1,0.3,0.2,0.5,0.2c0.8,0,1.5,0.4,2.2,0.7c0.5,0.2,1,0.3,1.6,0.2c0.1,0,0.1,0,0.2-0.1c0,0,0-0.1,0-0.2
			c-0.1-0.1-0.2-0.3-0.4-0.3c-0.2-0.1-0.4-0.2-0.7-0.3c-0.1-0.1-0.2-0.2-0.1-0.3c0.1-0.1,0.1-0.2,0.2-0.2c0.5,0,1.1,0,1.6,0.1
			c0.6,0,1.2,0,1.8,0c0.2,0,0.2-0.1,0.2-0.2c0-0.1,0-0.1-0.1-0.2c-0.2-0.2-0.4-0.3-0.6-0.3c-1-0.1-1.9-0.1-2.8-0.5
			c-0.2-0.1-0.4,0-0.5-0.1C40.2,39.8,39.8,39.8,39.3,39.8z M44.1,42.6c0-0.1,0-0.1,0-0.2c0-0.1-0.3-0.3-0.4-0.2
			c-0.1,0-0.2,0.1-0.2,0.2c0,0.2,0,0.3,0,0.5c0,0.1,0.1,0.2,0.2,0.2c0.1,0.1,0.4,0,0.4-0.2C44,42.8,44,42.7,44.1,42.6z M41.8,43.5
			c0.1-0.1,0-0.3-0.1-0.3c-0.2-0.1-0.4-0.1-0.5,0.1c-0.1,0.2,0,0.4,0.2,0.5C41.5,43.8,41.7,43.7,41.8,43.5z"/>
		<path fill="#78433F" d="M43.4,50.5c0.1,0,0.2,0,0.3,0.1c0.1,0,0.3,0.3,0.3,0.4c0,0.3-0.1,0.6-0.4,0.8c-0.2,0.1-0.4,0.2-0.7,0.3
			c-0.2,0.1-0.4,0.3-0.4,0.6c-0.2,1.1,0,2,0.9,2.8c0.3,0.3,0.8,0.3,1.2,0c0.3-0.2,0.4-0.4,0.4-0.8c0-0.2-0.2-0.4-0.3-0.3
			c-0.1,0-0.2,0-0.3,0.1c-0.3,0.1-0.5,0-0.6-0.2c-0.2-0.2-0.2-0.7-0.1-0.8c0.3-0.4,0.6-0.7,1.1-0.9c0.2-0.1,0.5-0.1,0.7,0.1
			c0.7,0.7,1.1,1.4,1,2.4c-0.1,0.8-0.5,1.5-1.1,2c-0.3,0.2-0.6,0.3-1,0.5c-0.2,0.1-0.4,0.1-0.5,0c-0.4-0.2-0.8-0.3-1.1-0.6
			c-0.4-0.3-0.8-0.8-1.1-1.2c-0.1-0.1-0.2-0.2-0.2-0.3c0-0.6-0.4-1.1-0.3-1.8c0.1-0.5,0.1-1,0.1-1.4c0-0.2,0.1-0.5,0.3-0.6
			c0.2-0.2,0.4-0.4,0.6-0.6c0.3-0.3,0.6-0.4,1-0.3C43.1,50.5,43.2,50.5,43.4,50.5z"/>
		<path fill="#78433F" d="M49.8,57.6c0,0,0-0.3,0.1-0.5c0.1-0.3,0.6-0.6,0.9-0.3c0.1,0.1,0.3,0.2,0.4,0.4c0.2,0.2,0.4,0.5,0.6,0.7
			c0.1,0.1,0.2,0.1,0.3,0c0.3-0.1,0.5-0.3,0.6-0.6c0.1-0.2,0.1-0.5,0-0.7c-0.2-0.3-0.2-0.7-0.2-1c0-0.2,0.2-0.4,0.5-0.5
			c0.2,0,0.4,0,0.5,0c0.3,0,0.5,0.2,0.6,0.4c0.4,0.6,0.6,1.3,0.8,2c0,0.1,0,0.1,0,0.2c0,0.6,0.1,1.1,0.3,1.6
			c0.1,0.4-0.1,0.7-0.4,0.9c-0.2,0.1-0.5,0.1-0.7-0.1c-0.4-0.3-0.4-0.8-0.7-1.1c-0.1-0.1-0.3-0.2-0.5,0s-0.4,0.3-0.5,0.5
			c-0.1,0.1-0.2,0.3-0.2,0.5s0,0.5,0.1,0.7c0.1,0.3,0,0.6-0.1,0.8c-0.3,0.5-0.8,0.6-1.2,0.2c-0.2-0.2-0.4-0.4-0.6-0.7
			C50.1,59.9,49.8,58.9,49.8,57.6z"/>
		<path fill="#78433F" d="M60.2,43.8c-0.3,0.2-0.5,0.5-0.8,0.7c-0.2,0.2-0.2,0.4-0.2,0.7c0,0.2,0.1,0.3,0.2,0.5
			c0.1,0.3,0,0.6-0.3,0.8c-0.2,0.2-0.7,0.2-0.9,0s-0.4-0.3-0.4-0.5c-0.3-1-0.8-2-0.8-3.1c-0.3-0.4,0-0.8,0.2-1.2
			c0.1-0.1,0.4-0.2,0.5-0.1c0.4,0.2,0.6,0.6,0.9,0.9c0.2,0.2,0.4,0.2,0.6,0c0.2-0.2,0.4-0.4,0.5-0.7c0-0.4,0-0.7,0.1-1.1
			c0-0.3,0.3-0.5,0.5-0.7c0.1-0.1,0.4-0.1,0.5,0s0.3,0.2,0.4,0.4c0.2,0.4,0.2,0.9,0.4,1.4c0.2,0.4,0.3,0.8,0.4,1.2
			c0.1,0.5,0.3,0.9,0.5,1.4c0,0.1,0,0.1,0,0.2c-0.1,0.4-0.8,0.7-1.2,0.5c-0.1-0.1-0.3-0.2-0.4-0.4c-0.2-0.2-0.3-0.4-0.5-0.6
			C60.4,43.9,60.3,43.8,60.2,43.8z"/>
		<path fill="#78433F" d="M58.8,56.1c-0.3,0.2-0.7,0.4-1.1,0.6c-0.3,0.2-0.5,0.5-0.7,0.8c-0.1,0.3-0.4,0.6-0.6,0.9
			c-0.1,0.1-0.2,0.1-0.3,0.2c-0.1,0-0.3-0.2-0.4-0.3c0-0.1-0.1-0.2-0.1-0.3c-0.1-0.5,0-1.1-0.2-1.6c-0.2-0.4,0-1-0.2-1.4
			s-0.1-0.8,0-1.3c0-0.4,0.3-0.7,0.5-1c0.3-0.4,0.6-0.6,1.1-0.5c0.2,0,0.5,0,0.7,0.1c0.2,0,0.5,0.1,0.6,0.3c0.2,0.2,0.4,0.3,0.5,0.5
			c0.5,0.6,0.9,1.3,1.4,1.9c0.2,0.3,0.1,0.8-0.2,1.1c-0.2,0.2-0.4,0.2-0.7,0.1C59.1,56.2,59,56.2,58.8,56.1z M57.2,54.2
			c-0.1,0.1-0.3,0.1-0.4,0.2c-0.2,0.2-0.3,0.4-0.1,0.6c0.1,0.1,0.1,0.2,0.2,0.3c0.2,0.3,0.5,0.3,0.8,0.1c0.2-0.2,0.3-0.4,0.1-0.6
			S57.4,54.4,57.2,54.2z"/>
		<path fill="#78433F" d="M45.9,50.3c0-0.6,0.3-1,0.6-1.5l0.1-0.1c0.7-0.4,1.5-0.7,2.4-0.2c0.2,0.1,0.4,0.2,0.5,0.4
			c0.1,0.3,0.3,0.5,0.5,0.8c0.3,0.6,0.6,1.2,0.6,1.9c0,0.3,0.2,0.5,0,0.9c-0.2,0.5-0.5,0.8-0.9,1.1c-0.3,0.2-0.6,0.3-1,0.5
			c-0.2,0.1-0.5,0-0.7,0c-0.4-0.1-0.8-0.3-1.1-0.5c-0.1-0.1-0.3-0.2-0.4-0.4C46.1,52.2,45.8,51.3,45.9,50.3z M48.1,50
			c-0.1,0-0.2,0-0.2,0.1c-0.4,0.2-0.6,0.7-0.5,1.1c0.1,0.4,0.3,0.8,0.5,1.1c0.1,0.3,0.6,0.4,0.9,0.4c0.2,0,0.3-0.2,0.3-0.4
			s0-0.4,0-0.5c-0.1-0.5-0.2-1-0.6-1.5C48.4,50.1,48.2,50.1,48.1,50z"/>
		<path fill="#78433F" d="M73.1,46.2c0,1-0.4,1.6-1,2.2c-0.3,0.3-0.7,0.4-1.2,0.3c-0.1,0-0.2-0.1-0.3-0.2c-0.3-0.4-0.7-0.9-1-1.3
			c-0.1-0.2-0.2-0.4-0.3-0.7c-0.2-0.5-0.4-1-0.5-1.5c-0.1-0.3,0-0.6,0-0.9c0-0.2,0.1-0.5,0.3-0.6c0.6-0.7,1.5-0.9,2.3-0.4
			c0.3,0.2,0.6,0.4,0.9,0.6c0.3,0.2,0.5,0.5,0.6,0.9C72.9,45.1,73.2,45.7,73.1,46.2z M71.7,45.5c0-0.2,0-0.3,0-0.4
			c0-0.3-0.2-0.5-0.5-0.7c0,0-0.1,0-0.2,0s-0.3,0-0.3,0.1c-0.3,0.6-0.1,1.2,0.4,1.6c0.1,0.1,0.4,0,0.5-0.1
			C71.6,45.8,71.6,45.6,71.7,45.5z"/>
		<path fill="#78433F" d="M54.8,48.5c0,0.2-0.1,0.6-0.1,0.9c-0.1,0.4-0.3,0.8-0.5,1.2s-0.5,0.7-1,0.8c-0.4,0.1-0.9,0.1-1.2-0.1
			c-0.2-0.1-0.3-0.2-0.4-0.4c-0.4-0.5-0.5-1.1-0.7-1.6c-0.1-0.2-0.1-0.5-0.1-0.7c0-0.7,0-1.3-0.2-2c-0.1-0.2,0.1-0.3,0.2-0.5
			c0.3-0.3,0.7-0.4,1.1-0.6c0.6,0,1.2-0.1,1.7,0.4c0.2,0.2,0.4,0.3,0.6,0.5c0.4,0.4,0.7,0.8,0.7,1.4C54.8,48,54.8,48.2,54.8,48.5z
			 M52.4,47.1C52.4,47.2,52.3,47.2,52.4,47.1c-0.3,0.7-0.3,1.3-0.1,1.8c0,0.2,0.2,0.3,0.3,0.4c0.1,0.1,0.4,0.1,0.5,0
			c0.2-0.3,0.5-0.6,0.5-0.9c0-0.5-0.2-0.9-0.6-1.2C52.7,47.2,52.6,47.2,52.4,47.1z"/>
		<path fill="#78433F" d="M48.1,64.3c-0.5-0.1-0.7-0.1-1-0.1c-0.2,0-0.4-0.1-0.5-0.2c-0.6-0.5-1.1-1.1-1.3-1.9
			c-0.1-0.3-0.1-0.6-0.1-0.9c0.1-0.6,0.4-1.1,0.6-1.7c0.2-0.4,0.6-0.7,1.1-1c0.2-0.1,0.4-0.1,0.5-0.1c0.4,0.1,0.8,0.3,1.2,0.4
			c0.3,0.1,0.3,0.3,0.3,0.6c0,0.2,0,0.4-0.1,0.5c0,0.1-0.2,0.2-0.2,0.2c-0.3,0-0.6,0-0.9,0c-0.3,0-0.6,0.4-0.7,0.8
			c0,0.4,0.2,0.8,0.4,1.2c0,0.1,0.2,0.2,0.3,0.2c0.4,0.1,0.7,0.1,1.1-0.1c0.3-0.2,0.7-0.3,1-0.5c0.1,0,0.4,0.1,0.4,0.3
			c0.1,0.4,0.1,0.8-0.2,1.2c-0.1,0.1-0.2,0.2-0.3,0.3C49.3,64.1,48.7,64.4,48.1,64.3z"/>
		<path fill="#78433F" d="M62.5,39.6c0-0.1,0-0.4,0-0.7c0-0.4,0.3-0.8,0.6-1.1c0.1-0.1,0.2-0.1,0.3-0.1c0.2,0,0.5,0,0.7,0
			c0.2,0,0.5,0.1,0.6,0.3c0.7,0.6,1.3,1.3,1.8,2c0.2,0.3,0.3,0.7,0.2,1c0,0.1-0.2,0.4-0.3,0.4c-0.1,0-0.1,0-0.2,0
			c-0.7-0.2-1.3,0.2-1.8,0.6l-0.1,0.1c0,0.1-0.1,0.2-0.1,0.3c0,0.3,0.1,0.6,0.2,0.9c0,0.2-0.1,0.4-0.3,0.4c-0.2,0.1-0.4,0.1-0.5,0
			c-0.2-0.1-0.4-0.3-0.5-0.5c-0.4-0.6-0.4-1.4-0.7-2.1C62.5,40.8,62.5,40.3,62.5,39.6z M64.6,40.3c0-0.2-0.1-0.3-0.3-0.3
			c-0.1,0-0.2,0-0.3,0.1c-0.1,0.2-0.2,0.4-0.1,0.7c0,0.1,0.1,0.1,0.1,0.1C64.3,40.9,64.6,40.5,64.6,40.3z"/>
		<path fill="#EB594F" d="M49.5,40.6c0.7,0,1,0.2,1.2,0.5c0,0.1,0,0.1,0.1,0.2c0.3,0.5,0.6,0.6,1,0.4c0.4-0.3,0.8-0.6,1.2-0.7
			c0.1,0,0.1-0.1,0.2-0.1c0.1,0.1,0.3,0.2,0.4,0.3c0.1,0.1,0,0.2-0.1,0.3s-0.2,0.2-0.3,0.3c-0.2,0.2-0.5,0.4-0.7,0.6
			c-0.8,0.5-1.5,1-2.2,1.6c-0.1,0.1-0.3,0.2-0.5,0.3c-0.6,0.3-1.2,0.6-1.8,0.9c-0.1,0.1-0.3,0-0.3-0.1s-0.1-0.3-0.1-0.3
			c0.1-0.2,0.2-0.3,0.3-0.4c0.2-0.3,0.7-0.4,0.7-0.8c0-0.3-0.2-0.6-0.2-0.9c-0.1-0.3-0.3-0.5-0.6-0.6c-0.2-0.1-0.5-0.1-0.7-0.2
			c-0.1,0-0.2-0.4-0.1-0.5c0.1-0.1,0.3-0.3,0.4-0.4c0,0,0.1-0.1,0.2-0.1C48.4,40.9,49,40.7,49.5,40.6z"/>
		<path fill="#78433F" d="M77.3,30.6l-0.1-0.1c-0.3-0.3-0.3-0.6,0-0.9c0.1-0.1,0.2-0.3,0.4-0.4c0.2-0.2,0.5-0.3,0.8-0.2
			c0.2,0,0.4,0.3,0.4,0.5c0,0.3-0.2,0.6-0.4,0.7c-0.2,0.2-0.5,0.2-0.8,0.4C77.4,30.6,77.4,30.6,77.3,30.6z"/>
	</g>
	<g>
		<g>
			<g>
				<g>
					<path fill="#FADFD7" d="M31,97.5c-0.1,0.1-0.1,0.2-0.1,0.3c0.1,0.4,0.1,0.7,0.3,1.1c0.1,0.2,0.1,0.4,0.2,0.6c0,0.1,0,0.1,0,0.2
						c0,0.3-0.1,0.5-0.2,0.7c-0.2,0.2-0.3,0.4-0.5,0.5s-0.3,0.3-0.5,0.5c-0.1,0.1-0.2,0.2-0.3,0.4c-0.1,0.1-0.2,0.2-0.3,0.2
						c-0.1,0-0.2,0-0.3,0.1c-0.2,0-0.4,0-0.6-0.1c-0.7-0.3-1.3-0.8-1.9-1.2c-0.2-0.1-0.3-0.3-0.5-0.5s-0.3-0.3-0.4-0.6
						c-0.1-0.2-0.1-0.3-0.2-0.5c-0.3-0.7-0.6-1.4-0.9-2.1c-0.1-0.2-0.1-0.4-0.1-0.6s0-0.5-0.1-0.7c0-0.2,0-0.4,0-0.7
						c0-0.2-0.1-0.5-0.2-0.7c0-0.2-0.1-0.4-0.2-0.6c-0.1-0.1-0.2-0.3-0.2-0.4c-0.1-0.3-0.4-0.6-0.5-0.9c-0.2-0.3-0.2-0.6-0.4-0.8
						c-0.3-0.5-0.6-1-0.8-1.5c-0.1-0.3-0.3-0.5-0.5-0.7c-0.7-0.6-1.3-1.3-2.1-1.7c-0.2-0.1-0.4-0.2-0.5-0.4
						c-0.3-0.3-0.5-0.5-0.8-0.7s-0.5-0.5-0.8-0.8c-0.3-0.4-0.7-0.6-1-1c-0.3-0.3-0.6-0.6-1-0.9c-0.3-0.3-0.6-0.6-0.8-1
						c-0.1-0.2-0.3-0.4-0.4-0.7c-0.1-0.3-0.2-0.5-0.4-0.8c0.1-0.4,0-0.8,0-1.2c0-0.2,0-0.4,0-0.6c0-0.3,0.1-0.5,0.2-0.7
						c0.2-0.4,0.3-0.5,0.7-0.8c0.2,0,0.3-0.3,0.5-0.3s0.3-0.2,0.4-0.3c0.2-0.1,0.3-0.3,0.3-0.6c0-0.4,0.1-0.6,0.2-0.9
						c0.1-0.2,0.2-0.4,0.4-0.5c0.3-0.3,0.7-0.4,1.2-0.4c0.2,0,0.5,0.1,0.8,0.3c0.4,0.4,0.9,0.8,1.3,1.1c0.2,0.1,0.3,0.3,0.4,0.5
						c0.2,0.2,0.4,0.4,0.6,0.5c0.2,0.2,0.4,0.1,0.7,0.2c0,0,0,0,0-0.1c0.1-0.2,0.1-0.5-0.1-0.8c-0.1-0.2-0.3-0.4-0.4-0.6
						c-0.2-0.4-0.4-0.8-0.5-1.2c-0.1-0.3-0.1-0.7,0-0.9c0-0.1,0.1-0.2,0.2-0.3c0.1-0.2,0.1-0.5,0-0.7s-0.1-0.4-0.2-0.6
						s-0.1-0.3,0-0.5c0.1-0.4,0.3-0.6,0.7-0.6c0.4-0.1,0.9,0.1,1.4,0.5c0.3,0.2,0.6,0.5,0.9,0.9c0.1,0.2,0.3,0.4,0.3,0.6
						c0,0.3,0.2,0.7,0.1,1c0,0.2,0,0.5,0.1,0.8c0,0.4,0.2,0.9,0.5,1.3c0.1,0.2,0.2,0.4,0.3,0.6c0.3,0.6,0.5,1.2,0.7,1.7
						c0.1,0.1,0.1,0.3,0.1,0.4c0,0.2,0,0.3,0.1,0.5c0.2,0.4,0.4,0.9,0.6,1.3c0.1,0.1,0.1,0.3,0.2,0.4c0.2,0.3,0.4,0.7,0.4,1
						c0,0.1,0.1,0.3,0.1,0.4c0.1,0.5,0.4,0.9,0.8,1.1c0.3,0.2,0.5,0.4,0.8,0.5c0.5,0.3,0.9,0.7,1.3,1.1c0.1,0.1,0.2,0.2,0.2,0.3
						c0.2,0.4,0.4,0.6,0.7,0.8c0.1,0.1,0.3,0.3,0.4,0.4c0.2,0.2,0.5,0.5,0.7,0.7c0.1,0.1,0.2,0.2,0.3,0.3c0.5,0.6,1.1,1.1,1.7,1.7
						c0.4,0.4,0.8,0.8,1.2,1.2c0.2,0.2,0.4,0.4,0.5,0.7c0.1,0.3,0.3,0.6,0.4,0.9c0,0.1,0.1,0.2,0.2,0.3c0.3,0.2,0.6,0.6,0.9,0.8
						c0.2,0.1,0.3,0.3,0.5,0.5s0.3,0.4,0.3,0.6c0,0.1,0,0.2,0,0.3c0.1,0.4,0,0.7-0.1,0.9c-0.1,0.1-0.2,0.2-0.4,0.2
						c-0.3,0-0.5-0.1-0.8-0.3c-0.1,0-0.2-0.1-0.3-0.2c-0.2-0.2-0.4-0.3-0.6-0.5c-0.1-0.1-0.2,0-0.3,0.1c0,0.2,0,0.4-0.1,0.6
						c0,0.2-0.1,0.3-0.2,0.4c-0.1,0.1-0.2,0.2-0.3,0.2c-0.1,0.1-0.2,0.2-0.3,0.3c-0.1,0.3-0.4,0.5-0.7,0.5c-0.2,0-0.3,0.1-0.3,0.3
						c0,0.1,0,0.2-0.1,0.2c0,0.1-0.1,0.1-0.1,0.2c-0.3,0.1-0.6,0.1-1,0.1c-0.1,0-0.2-0.1-0.3-0.1C31.7,97.9,31.4,97.7,31,97.5z
						 M27.3,94.6c0.1,0.1,0.2,0.1,0.3,0.2c0.1,0,0.1,0.1,0.2,0.1s0.1,0,0.2,0c0,0,0-0.2,0-0.3c0-0.1-0.1-0.1-0.1-0.2
						c-0.2-0.2-0.4-0.3-0.6-0.5c-0.3-0.2-0.6-0.5-0.9-0.8c-0.2-0.2-0.4-0.4-0.5-0.5c-0.2-0.2-0.4-0.3-0.7-0.5
						c-0.1-0.1-0.3-0.2-0.4-0.3h-0.1c0,0-0.1,0-0.1,0.1c0,0,0,0.1,0,0.2c0.2,0.3,0.6,0.6,0.9,0.8c0.1,0.1,0.2,0.2,0.3,0.4
						c0.2,0.4,0.3,0.7,0.5,1.1c0,0.1,0,0.1,0,0.2l-0.1,0.1c-0.1,0.2-0.1,0.3,0,0.6v0.1c0.3,0.6,0.2,0.6,0,0.9
						c-0.1,0.1-0.1,0.2-0.2,0.3c0,0.1-0.1,0.1-0.1,0.2c0,0.2,0,0.4,0,0.6c0,0.3,0.1,0.6,0.1,0.9c0.1,0.5,0.5,0.9,0.8,1.3
						c0,0,0,0.1,0.1,0.1c0.4,0.3,0.8,0.6,1.3,0.9c0.2,0.1,0.3,0.2,0.5,0.2c0.1,0,0.1,0,0.2,0c0.2-0.2,0.3-0.3,0.4-0.5
						c0.1-0.1,0-0.3,0.1-0.5c0-0.1,0-0.1,0-0.2l0.1-0.1c0.2,0,0.4-0.1,0.6-0.1c0.1,0,0.2-0.1,0.4-0.1l0.1-0.1c0-0.2-0.1-0.4-0.3-0.6
						c-0.1-0.1-0.3-0.2-0.4-0.4c0,0-0.1-0.1-0.1-0.2s0-0.2,0.1-0.3c0.1-0.1,0.1-0.4,0.1-0.6c0,0-0.1-0.1-0.1-0.2
						c-0.2-0.1-0.4-0.2-0.6-0.2c-0.1,0-0.2,0-0.3,0c-0.1,0-0.2,0-0.3-0.2c-0.1-0.2-0.3-0.2-0.4-0.2c-0.2,0-0.2,0.2-0.4,0.3
						c-0.1,0-0.1,0-0.2,0c-0.1-0.1-0.2-0.2-0.2-0.4c0-0.1,0-0.2,0.1-0.2c0.4-0.1,0.4-0.2,0.2-0.7c-0.1-0.2-0.2-0.3-0.2-0.5
						C27.3,94.7,27.3,94.7,27.3,94.6z M26.4,91.5c0,0.2,0,0.3,0.1,0.4c0,0.1,0.3,0.2,0.3,0.2C26.9,92,27,92,27,91.9
						c0.2-0.5,0.3-1,0.4-1.7c0-0.3-0.1-0.6-0.2-1c-0.2-0.2-0.7-0.5-0.9-0.5S26,88.9,25.8,89c-0.2,0.1-0.4,0.1-0.6,0.3
						c-0.1,0.1-0.2,0.1-0.3,0.1c0,0-0.1,0-0.2-0.1c-0.1-0.2-0.3-0.3-0.4-0.5s-0.1-0.4,0.1-0.3c0.1,0,0.2,0,0.3,0.1
						c0.2,0.1,0.3,0.1,0.5,0c0.1-0.1,0.2-0.1,0.2-0.2c0.2-0.1,0.2-0.3,0.2-0.6c0-0.1,0-0.1-0.1-0.2c-0.2-0.3-0.4-0.5-0.6-0.8
						c-0.1-0.1-0.2-0.2-0.3-0.2c-0.3-0.2-0.6-0.3-0.9-0.1c-0.1,0.1-0.2,0.1-0.3,0.1c-0.4,0.1-0.6,0.4-0.9,0.6
						c-0.1,0.1-0.1,0.3-0.1,0.5c0,0.1,0,0.1,0.1,0.2c0.1,0.2,0.3,0.3,0.5,0.2l0.1-0.1c0.1-0.1,0.3,0.1,0.3,0.2s0,0.3,0,0.4
						c0,0.2,0.1,0.5,0.3,0.7c0.2,0.2,0.3,0.4,0.5,0.6c0.1,0.3,0.4,0.4,0.6,0.5s0.3,0.1,0.5,0.2s0.5,0.2,0.7,0.4
						c0.1,0.1,0.2,0.2,0.2,0.3C26.4,91.3,26.4,91.4,26.4,91.5z M32.7,92.2C32.7,92.2,32.7,92.1,32.7,92.2c0.1-0.2,0.2-0.2,0.3-0.1
						c0.2,0.1,0.3,0.3,0.5,0.4c0.1,0,0.1,0,0.2,0c0,0,0-0.1,0-0.2s0-0.1-0.1-0.2s-0.2-0.2-0.3-0.3c-0.1-0.1-0.1-0.1,0-0.2
						c0,0,0.1-0.1,0.1,0c0.3,0.2,0.5,0.4,0.8,0.6c0.1,0.1,0.2,0.2,0.2,0.3c0.1,0.2,0.1,0.3,0.2,0.5c0.1,0.2,0.1,0.4,0.1,0.6v0.1
						c0,0.1,0,0.1-0.1,0.1s-0.1,0-0.2-0.1c-0.1-0.2-0.2-0.4-0.4-0.5c-0.1,0-0.1-0.1-0.2,0c-0.1,0.1-0.1,0.2-0.1,0.4
						c0,0.1,0,0.1,0,0.2c0.1,0.1,0.1,0.2,0.2,0.3c0.2,0.3,0.4,0.4,0.7,0.4c0.1,0,0.2,0,0.3,0.1l0.1-0.1c0.2-0.1,0.2-0.3,0.2-0.6
						c0-0.2-0.1-0.5-0.1-0.7c0-0.1,0-0.1,0.1-0.1s0.2,0.2,0.3,0.3c0.1,0.1,0.2,0.1,0.2,0s0.1-0.1,0.1-0.2c-0.1-0.6-0.5-0.9-0.9-1
						c-0.1,0-0.2,0-0.2,0c-0.1,0-0.2,0-0.3-0.2c-0.3-0.4-0.6-0.8-1-1c-0.1-0.1-0.2-0.1-0.3-0.2c-0.2-0.1-0.3-0.3-0.5-0.4
						c-0.1-0.2-0.2-0.3-0.3-0.4c-0.6-0.8-0.4-0.7-1.1-1.1c-0.1-0.1-0.2-0.1-0.3-0.2h-0.1c-0.1,0-0.2,0-0.2,0.1
						c-0.1,0.2-0.1,0.3,0.1,0.5l0.1,0.1c0.1,0.2,0.1,0.3,0,0.3c-0.1,0.1-0.2,0.2-0.4,0.2c-0.2,0-0.4,0.2-0.5,0.4c0,0,0,0.1,0,0.2
						c0,0.2,0.3,0.5,0.5,0.5c0.3,0,0.5,0,0.8-0.1c0.1-0.2,0.4-0.2,0.6-0.3c0.1-0.1,0.2,0,0.4,0.1c0.1,0,0.1,0.1,0.2,0.1l0.1,0.1
						c0.1,0.1,0.1,0.2,0,0.3c-0.2,0.2-0.4,0.4-0.6,0.7c0,0.1-0.1,0.2,0,0.2c0,0.2,0.1,0.5,0.3,0.7s0.4,0.5,0.6,0.6
						c0.2,0.1,0.4,0.1,0.5-0.1c0,0,0-0.1,0-0.2C33,92.5,32.8,92.4,32.7,92.2z M30.6,92.7c-0.3,0.2-0.5,0.3-0.7,0.6
						c-0.1,0.2-0.3,0.3-0.4,0.4s-0.2,0.3-0.1,0.5s0.2,0.4,0.3,0.6c0,0.1,0.1,0.2,0.2,0.3c0.2,0.2,0.4,0.3,0.6,0.5
						c0.1,0.1,0.2,0,0.2,0l0.1-0.1c0.1-0.1,0-0.2-0.1-0.3l-0.1-0.1c-0.1,0-0.1-0.1-0.2-0.1c-0.1-0.1-0.1-0.1-0.1-0.2l0.1-0.1
						c0.3,0.1,0.5,0.3,0.8,0.3c0.1,0,0.2-0.1,0.1-0.2c0-0.1-0.1-0.2-0.1-0.3c-0.1-0.1-0.2-0.2-0.3-0.3c-0.1-0.1-0.1-0.2-0.1-0.3
						c0-0.1,0.1-0.1,0.2,0c0,0,0.1,0,0.1,0.1c0.2,0.2,0.3,0.3,0.5,0.5c0.1,0.1,0.1,0.2,0.1,0.3c0,0.2,0,0.4,0.1,0.6s0.1,0.3,0.2,0.5
						c0.1,0.1,0,0.3-0.1,0.2c-0.1,0-0.2-0.1-0.4-0.2c-0.1,0-0.2,0-0.3,0.1c-0.1,0.3,0,0.6,0.3,0.8c0.2,0.2,0.5,0.3,0.7,0.3h0.1
						c0.4-0.1,0.5-0.3,0.4-0.8c0-0.2-0.1-0.4-0.2-0.6v-0.1c0,0,0.1,0,0.2,0c0.1,0.1,0.2,0.1,0.2,0.2c0.1,0.1,0.2,0.1,0.3,0
						s0.1-0.2,0-0.3c-0.2-0.4-0.5-0.7-0.9-0.9c-0.1,0-0.2-0.1-0.3-0.1c-0.2-0.1-0.3-0.2-0.4-0.4c0-0.1-0.1-0.2-0.1-0.3
						c0-0.1-0.1-0.1-0.1-0.2C31.3,93.1,31,92.8,30.6,92.7z M21.9,72.3c-0.1,0-0.2,0-0.2,0c-0.1,0-0.2,0.1-0.2,0.3
						c0,0.4,0,0.7,0.1,1.2c0,0.2,0.1,0.4,0.1,0.6c0.1,0.3,0.1,0.5-0.1,0.6c-0.1,0.1-0.2,0.2-0.2,0.3c-0.1,0.1-0.1,0.3,0,0.5
						c0.1,0.1,0.1,0.3,0.2,0.4c0.1,0.2,0.2,0.4,0.3,0.6c0,0.1,0.1,0.2,0.2,0.3c0.1,0.1,0.2,0.2,0.3,0.3c0.2,0.1,0.4,0.2,0.6,0.2
						s0.5,0.2,0.6,0.4c0,0.1,0.1,0.1,0.2,0.1c0.1,0.1,0.3,0.1,0.4,0s0.2-0.2,0.2-0.5c0-0.2,0-0.3-0.1-0.5c-0.2-0.5-0.4-0.9-0.5-1.4
						c0-0.1,0-0.1-0.1-0.2c-0.2-0.5-0.4-1.1-0.6-1.6c-0.1-0.3-0.3-0.6-0.4-0.9s-0.3-0.4-0.5-0.6C22.2,72.4,22.1,72.3,21.9,72.3
						C22,72.3,21.9,72.3,21.9,72.3z M19.5,77.4c0-0.1-0.1-0.2-0.1-0.2c-0.1-0.2-0.2-0.4-0.4-0.5c-0.1-0.1-0.3-0.2-0.4-0.3
						c-0.1-0.1-0.2-0.1-0.3-0.1c-0.2,0-0.4,0.1-0.6,0.1c-0.3,0-0.4,0.3-0.6,0.3L17,76.8c-0.1,0.2-0.2,0.5-0.2,0.7s0,0.4,0,0.7
						c0,0.1,0.1,0.2,0.1,0.3c0.1,0.2,0.3,0.4,0.4,0.5c0.4,0.3,0.7,0.5,1.1,0.5s0.6-0.3,0.7-0.8c0-0.1,0-0.3-0.1-0.4
						c-0.2-0.2-0.4-0.4-0.7-0.5c-0.1-0.1-0.3,0-0.3,0.1s0,0.2,0.1,0.4c0,0.1,0.1,0.1,0.1,0.2c0.1,0.1,0,0.2,0,0.2
						c-0.1,0.1-0.3,0-0.4-0.1c-0.2-0.2-0.3-0.4-0.3-0.6c0.1-0.6,0.4-0.8,0.9-0.7c0.1,0,0.2,0.1,0.3,0.2c0.1,0.1,0.2,0.2,0.3,0.3
						c0.1,0.1,0.3,0.2,0.4,0.2s0.1-0.1,0.1-0.2C19.6,77.5,19.6,77.4,19.5,77.4z M18.3,81.6c-0.6,0.1-0.9,0.3-1.2,0.7
						c-0.1,0.1-0.1,0.2-0.2,0.4s0.1,0.6,0.4,0.7c0.2,0.1,0.3,0.1,0.4,0s0.2-0.1,0.3-0.1c0.1,0,0.2,0,0.2,0.1
						c0.1,0.1,0.2,0.2,0.3,0.2c0.1,0.1,0.1,0.2,0.1,0.3c0,0.2-0.2,0.2-0.3,0.5c0,0.1,0,0.3,0.1,0.4c0.2,0.2,0.4,0.3,0.5,0.2
						c0.2-0.1,0.3-0.3,0.6-0.3h0.1c0.2-0.2,0.5-0.4,0.6-0.6c0.1-0.1,0.1-0.2,0-0.4c0-0.1-0.1-0.2-0.1-0.3c-0.1-0.1-0.2-0.2-0.3-0.2
						c-0.2,0-0.3,0.1-0.4,0.2s-0.2,0.1-0.3,0.1c-0.1,0-0.3-0.2-0.4-0.3c0-0.1-0.1-0.1-0.1-0.2s0.1-0.3,0.1-0.4s0-0.2,0-0.3
						c0-0.2-0.2-0.5-0.4-0.5C18.4,81.6,18.3,81.6,18.3,81.6z M26.6,86.2C26.6,86.3,26.6,86.3,26.6,86.2c0,0.2-0.1,0.3-0.1,0.4
						c0,0.1,0,0.2,0,0.3c0,0.2,0.3,0.6,0.5,0.6h0.1c0.1-0.1,0.3-0.3,0.4-0.4c0.2-0.1,0.3-0.2,0.4-0.3c0.1-0.2,0.3-0.2,0.5-0.3
						l0.1-0.2c0-0.1-0.1-0.2-0.1-0.3c-0.3-0.2-0.4-0.3-0.6-0.3s-0.3,0-0.5,0c-0.1,0-0.3-0.1-0.4-0.2s-0.2-0.3-0.2-0.4
						c0.1-0.2,0.2-0.3,0.1-0.6c0-0.1-0.1-0.2-0.2-0.3c-0.2-0.1-0.4-0.2-0.5,0c-0.5,0.1-0.7,0.4-1.1,0.7c-0.1,0-0.1,0.2-0.1,0.3
						c0,0.1,0.1,0.4,0.2,0.5s0.3,0.2,0.4,0.1c0.1,0,0.1-0.1,0.2-0.2s0.2-0.1,0.3,0C26.3,85.9,26.5,86.1,26.6,86.2z M21.2,86.5
						c0,0.1,0,0.2,0,0.2c0,0.1,0.1,0.3,0.2,0.4c0.2,0.2,0.5,0.2,0.5,0c0.1-0.3,0.3-0.6,0.4-0.9c0-0.1,0.1-0.2,0.1-0.3
						c0-0.1,0-0.2,0-0.4c-0.1-0.1-0.1-0.3-0.2-0.4c-0.1-0.3-0.3-0.4-0.5-0.6c-0.2-0.1-0.4-0.2-0.5-0.2c-0.2,0-0.4,0-0.5,0.1
						c-0.1,0.2-0.4,0.1-0.5,0.3c-0.2,0.2-0.4,0.2-0.6,0.3l-0.1,0.1c0,0-0.1,0.2,0,0.2c0.1,0.1,0.1,0.1,0.2,0.1
						c0.2,0.1,0.4,0.2,0.5,0.2c0.2,0,0.4,0.1,0.5,0.3C20.8,86.1,21,86.3,21.2,86.5z M20.3,78.8c-0.4,0-0.7,0.3-1,0.6
						c0,0.1-0.1,0.1-0.1,0.2c0,0.2,0,0.4,0.1,0.7c0,0.1,0.1,0.3,0.2,0.4c0.1,0.2,0.3,0.4,0.4,0.5c0.2,0.2,0.4,0.3,0.7,0.4
						c0.2,0.1,0.2-0.1,0.3-0.1c0.3,0,0.5-0.3,0.6-0.5c0.1-0.1,0.1-0.2,0.2-0.3c0.1-0.1,0-0.2,0-0.3c0-0.5-0.3-0.9-0.7-1.3L20.9,79
						C20.8,78.9,20.5,78.7,20.3,78.8z M28.9,93.4c0.3,0.1,0.4-0.2,0.6-0.3c0.1-0.1,0.2-0.2,0.2-0.4c0-0.2,0-0.4,0-0.5
						c0-0.5-0.3-0.9-0.7-1.2c-0.1-0.1-0.2-0.1-0.3-0.1c-0.1,0-0.3,0-0.4,0.1c-0.2,0.1-0.3,0.3-0.5,0.4c-0.1,0.1-0.1,0.1-0.2,0.2
						c-0.1,0.2-0.2,0.4-0.3,0.6c0,0,0,0.1,0,0.2c0.1,0.3,0.2,0.5,0.4,0.6C28.1,93.4,28.5,93.5,28.9,93.4z M23.3,83.6
						c0.1,0,0.2,0,0.3,0c0.2,0,0.4-0.2,0.4-0.5c0-0.1,0-0.2,0-0.3c0.1-0.3-0.1-0.6-0.3-1c-0.2-0.2-0.3-0.4-0.5-0.6
						c-0.1-0.1-0.2-0.1-0.2-0.1c-0.2,0.2-0.5,0.2-0.8,0.3c-0.1,0-0.2,0-0.3,0.1c-0.2,0.2-0.4,0.3-0.5,0.6c0,0.1-0.1,0.2,0,0.3
						c0,0.2,0.1,0.5,0.3,0.7c0.1,0.2,0.4,0.4,0.6,0.5s0.4,0.2,0.6,0.2C23,83.6,23.2,83.6,23.3,83.6z M15.1,81.2
						c0.1,0.3,0.4,0.6,0.7,0.9c0.1,0,0.1,0.1,0.2,0.1c0.2,0.2,0.4,0.1,0.5,0c0,0,0-0.2,0-0.3c-0.1-0.2-0.3-0.3-0.4-0.5
						c-0.2-0.2-0.3-0.4-0.3-0.6c0-0.1,0-0.1,0-0.2c0.1-0.1,0.2-0.3,0.4-0.3s0.4,0.1,0.5,0.3c0.1,0.2,0.2,0.3,0.3,0.5
						c0,0.1,0.1,0.1,0.2,0.1s0.2,0,0.2,0c0.1,0,0.2-0.1,0.2-0.2c0-0.2-0.1-0.5-0.1-0.7c0-0.1-0.1-0.2-0.2-0.3
						c-0.2-0.2-0.4-0.4-0.7-0.5c-0.3-0.1-0.6-0.2-0.9-0.2c-0.1,0-0.2,0.1-0.4,0.1c-0.3,0.2-0.4,0.5-0.5,0.9c0,0.1,0,0.2,0,0.3
						C14.9,80.8,15,81,15.1,81.2z M28.9,87.1c-0.3,0.1-0.5,0.1-0.7,0.1c-0.2,0.2-0.5,0.3-0.7,0.5c-0.1,0.1-0.1,0.2-0.1,0.3
						c0,0.1,0.1,0.2,0.1,0.3c0.1,0.1,0.2,0.1,0.2,0.1c0.1,0,0.2-0.1,0.3-0.2c0,0,0.1,0,0.2,0c0,0,0.1,0,0.1,0.1
						c0.3,0.3,0.6,0.5,0.7,0.9v0.1c0,0.1,0.2,0.2,0.2,0.2c0.2,0,0.3,0,0.4-0.2c0.2-0.4,0.3-0.8,0.4-1.2c0-0.1,0-0.2,0-0.4
						c0,0,0-0.2-0.1-0.3c0-0.1-0.1-0.1-0.1-0.2c-0.2-0.1-0.4-0.2-0.6-0.2C29.1,87,28.9,87.1,28.9,87.1z M25.2,80
						c-0.1-0.2-0.4-0.6-0.6-1c0,0,0-0.1-0.1-0.1c-0.1-0.1-0.2-0.1-0.3-0.2c-0.1,0-0.2,0.1-0.2,0.1c0,0.1,0.1,0.3,0.1,0.4
						c0,0.2,0,0.3-0.1,0.4s-0.2,0.2-0.3,0.2c-0.2,0-0.3-0.2-0.5-0.3c-0.1-0.1-0.2-0.1-0.3-0.2c0,0-0.1,0-0.1,0.1c0,0,0,0.1,0,0.2
						c0.3,0.3,0.5,0.6,0.8,0.9c0.1,0.1,0.2,0.2,0.2,0.2c0.4,0.3,0.8,0.7,1.2,1.1c0.1,0.1,0.3,0.2,0.4,0.3c0.1,0,0.1,0.1,0.2,0.1
						s0.1,0.1,0.1,0s0-0.2,0-0.2s0-0.1-0.1-0.1c-0.2-0.3-0.4-0.4-0.6-0.6s-0.2-0.4-0.1-0.6c0,0,0,0,0.1-0.1
						C25.3,80.5,25.3,80.3,25.2,80z M36.4,94.4L36.4,94.4c0.2,0.2,0.3,0.4,0.4,0.5c0.1,0.1,0.3,0.2,0.4,0.2c0.1,0,0.1-0.1,0.1-0.3
						c-0.1-0.2-0.1-0.3-0.3-0.4c-0.1-0.1-0.2-0.1-0.3-0.2C36.6,94.1,36.5,94.1,36.4,94.4C36.4,94.3,36.4,94.4,36.4,94.4z"/>
				</g>
			</g>
			<g>
				<path fill="#FADFD7" d="M27.5,97.7c0.1,0,0.2-0.1,0.2-0.2h0.1c0.2,0.2,0.5,0.4,0.7,0.7c0.1,0.1,0.2,0.3,0.2,0.4
					c0,0.3,0.1,0.6,0,0.8c-0.1,0.3-0.2,0.4-0.6,0.1c-0.3-0.2-1.2-1.2-1.6-1.5c-0.1-0.1-0.1-0.2-0.2-0.3c0-0.1-0.1-0.1-0.1-0.2
					c-0.1-0.4-0.1-0.7,0.1-1c0-0.1,0.2,0,0.3,0.1c0.1,0.1,0.1,0.2,0.2,0.3c0.1,0.2,0.2,0.4,0.3,0.6C27.3,97.6,27.4,97.6,27.5,97.7z"
					/>
			</g>
			<g>
				<path fill="#FADFD7" d="M27.5,99.4C27.5,99.4,27.4,99.5,27.5,99.4c-0.3-0.1-0.5-0.2-0.6-0.4c-0.1-0.1-0.2-0.2-0.2-0.4v-0.1
					c0,0,0,0,0.1,0C27.1,98.7,27.3,99,27.5,99.4C27.5,99.4,27.5,99.4,27.5,99.4L27.5,99.4z"/>
			</g>
			<g>
				<path fill="#FADFD7" d="M27.5,99.4C27.5,99.4,27.6,99.4,27.5,99.4c0.3,0.2,0.6,0.3,0.8,0.6c0.1,0.1,0,0.1,0,0.1h-0.1
					c-0.2-0.1-0.5-0.3-0.6-0.5C27.5,99.6,27.5,99.5,27.5,99.4L27.5,99.4z"/>
			</g>
			<g>
				<path fill="#FADFD7" d="M23.9,87.4c0-0.1,0-0.2,0.1-0.2c0-0.1,0.1-0.1,0.2,0s0.3,0.1,0.4,0.3l0.1,0.1v0.1
					C24.4,87.7,24.2,87.7,23.9,87.4z"/>
			</g>
			<g>
				<path fill="#FADFD7" d="M25.9,90.2c0-0.2,0.1-0.4,0.3-0.4c0.1,0,0.2,0.2,0.2,0.3c0,0.1,0,0.2-0.1,0.3c-0.1,0-0.1,0.1-0.2,0
					C26.1,90.3,26,90.2,25.9,90.2z"/>
			</g>
			<g>
				<path fill="#FADFD7" d="M22.9,74.2c0.1,0.3,0.2,0.5,0.3,0.8c0,0.1,0.1,0.2,0.1,0.3c0.1,0.5,0.3,1.1,0.5,1.6
					c0.1,0.1,0.1,0.3,0,0.4c0,0,0,0,0,0.1c0,0-0.1,0-0.1-0.1c-0.2-0.3-0.3-0.7-0.4-1s-0.3-0.6-0.4-0.9c0,0-0.1-0.1-0.2-0.1
					s-0.1,0-0.1,0.1s0.1,0.3,0.1,0.4s0,0.2,0,0.3c0,0,0,0-0.1,0c0,0-0.1,0-0.1-0.1c-0.2-0.3-0.3-0.6-0.3-0.9
					c-0.1-0.4-0.1-0.8-0.3-1.3c0-0.1-0.1-0.2-0.1-0.3c0-0.2,0-0.4,0.1-0.6c0-0.1,0.1-0.1,0.2,0s0.2,0.2,0.3,0.3
					C22.6,73.5,22.8,73.9,22.9,74.2L22.9,74.2z"/>
			</g>
			<g>
				<path fill="#FADFD7" d="M23,77.1c-0.1,0-0.1,0-0.2,0s-0.2-0.1-0.2-0.2s0-0.1,0-0.1c0.1,0,0.1,0,0.2,0l0.1,0.1
					C23.1,76.9,23.1,77.1,23,77.1L23,77.1z"/>
			</g>
			<g>
				<path fill="#FADFD7" d="M22,75.9c-0.1,0-0.2-0.1-0.2-0.2s0.1-0.1,0.1-0.1c0.1,0,0.1,0.1,0.2,0.3C22.1,75.9,22.1,75.9,22,75.9z"
					/>
			</g>
			<g>
				<path fill="#FADFD7" d="M21.5,85.4c0,0.1-0.1,0.3-0.1,0.4s-0.1,0.1-0.3,0c-0.2-0.1-0.2-0.3-0.2-0.4l0.1-0.1
					c0.1-0.1,0.2-0.1,0.3,0C21.4,85.3,21.5,85.3,21.5,85.4z"/>
			</g>
			<g>
				<path fill="#FADFD7" d="M20.9,80c0,0.1,0,0.2,0,0.2c-0.1,0.2-0.2,0.4-0.4,0.5c-0.1,0-0.1,0-0.2,0s-0.2-0.1-0.2-0.1
					C20,80.4,19.9,80.2,20,80c0.1-0.1,0.2-0.3,0.4-0.4c0.1-0.1,0.4,0,0.6,0.2C20.9,79.9,20.9,79.9,20.9,80z"/>
			</g>
			<g>
				<path fill="#FADFD7" d="M28.8,92.6c0,0-0.1,0-0.2,0s-0.2-0.2-0.2-0.2c0-0.3,0.2-0.4,0.6-0.3c0.1,0,0.1,0.1,0.1,0.2v0.1
					C29.1,92.6,29.1,92.7,28.8,92.6C29,92.6,28.9,92.6,28.8,92.6z"/>
			</g>
			<g>
				<path fill="#FADFD7" d="M23.3,82.1c0,0.1,0,0.2,0,0.3c0,0.3-0.1,0.4-0.3,0.4c-0.1,0-0.3-0.1-0.5-0.2c-0.1,0-0.1-0.2-0.1-0.3
					c0-0.1,0-0.2,0.1-0.2C22.6,82.1,22.9,82,23.3,82.1C23.2,82.1,23.2,82.1,23.3,82.1z"/>
			</g>
			<g>
				<path fill="#FADFD7" d="M29.2,88.3c-0.1,0-0.3-0.1-0.4-0.3c0,0,0,0,0-0.1c0.1-0.1,0.2-0.1,0.3,0c0.1,0,0.1,0.1,0.1,0.1
					C29.3,88.2,29.3,88.3,29.2,88.3z"/>
			</g>
			<path fill="#EB594F" d="M27.3,94.6c0,0.1,0,0.1,0,0.2c0.1,0.2,0.1,0.3,0.2,0.5c0.2,0.6,0.2,0.7-0.2,0.7c-0.1,0-0.1,0.1-0.1,0.2
				s0.1,0.3,0.2,0.4s0.2,0.1,0.2,0c0.2-0.1,0.2-0.3,0.4-0.3c0.1,0,0.3,0,0.4,0.2c0.1,0.1,0.2,0.2,0.3,0.2c0.1,0,0.2,0,0.3,0
				c0.2,0,0.4,0.1,0.6,0.2c0,0,0.1,0.1,0.1,0.2c0,0.2,0,0.4-0.1,0.6c-0.1,0.1-0.1,0.2-0.1,0.3c0,0,0,0.1,0.1,0.2s0.3,0.2,0.4,0.4
				c0.2,0.2,0.2,0.4,0.3,0.6c0,0.1,0,0.1-0.1,0.1c-0.1,0.1-0.2,0.1-0.4,0.1c-0.2,0-0.4,0.1-0.6,0.1l-0.1,0.1c0,0,0,0.1,0,0.2
				c0,0.2,0,0.4-0.1,0.5c-0.1,0.2-0.3,0.4-0.4,0.5c0,0-0.1,0-0.2,0c-0.2-0.1-0.4-0.1-0.5-0.2c-0.4-0.3-0.8-0.6-1.3-0.9
				c0,0-0.1,0-0.1-0.1c-0.3-0.4-0.6-0.8-0.8-1.3c0-0.3-0.1-0.6-0.1-0.9c0-0.2,0-0.4,0-0.6c0-0.1,0-0.2,0.1-0.2
				c0.1-0.1,0.1-0.2,0.2-0.3c0.2-0.4,0.3-0.3,0-0.9v-0.1c-0.1-0.3-0.1-0.5,0-0.6l0.1-0.1c0,0,0-0.1,0-0.2c-0.2-0.4-0.3-0.7-0.5-1.1
				c-0.1-0.1-0.2-0.3-0.3-0.4c-0.3-0.3-0.6-0.5-0.9-0.8c0-0.1-0.1-0.1,0-0.2l0.1-0.1h0.1c0.1,0.1,0.3,0.2,0.4,0.3
				c0.2,0.2,0.5,0.3,0.7,0.5s0.4,0.3,0.5,0.5c0.3,0.3,0.6,0.6,0.9,0.8c0.2,0.1,0.4,0.3,0.6,0.5c0,0,0.1,0.1,0.1,0.2s0.1,0.2,0,0.3
				c0,0-0.1,0-0.2,0s-0.1-0.1-0.2-0.1C27.5,94.7,27.4,94.7,27.3,94.6z M27.5,99.4L27.5,99.4c-0.2-0.4-0.5-0.7-0.8-0.9h-0.1v0.1
				c0,0.1,0.1,0.3,0.2,0.4C27,99.2,27.2,99.3,27.5,99.4C27.4,99.5,27.5,99.4,27.5,99.4c0,0.1,0,0.1,0.1,0.2c0.2,0.2,0.4,0.4,0.6,0.5
				h0.1c0.1,0,0.1-0.1,0-0.1C28.1,99.8,27.8,99.6,27.5,99.4C27.6,99.4,27.5,99.4,27.5,99.4z M27.5,97.7c-0.1-0.1-0.2-0.1-0.3-0.3
				c-0.1-0.2-0.2-0.4-0.3-0.6c0-0.1-0.1-0.2-0.2-0.3c-0.1-0.1-0.3-0.1-0.3-0.1c-0.2,0.3-0.1,0.6-0.1,1c0,0.1,0,0.1,0.1,0.2
				s0.1,0.2,0.2,0.3c0.3,0.4,1.3,1.3,1.6,1.5c0.4,0.3,0.5,0.2,0.6-0.1c0.1-0.2,0-0.5,0-0.8c0-0.1-0.1-0.3-0.2-0.4
				c-0.2-0.2-0.5-0.4-0.7-0.7h-0.1C27.7,97.6,27.6,97.7,27.5,97.7z"/>
			<g>
				<g>
					<path fill="#78433F" d="M26.4,91.5c-0.1-0.1-0.1-0.3-0.2-0.4s-0.1-0.2-0.2-0.3c-0.2-0.2-0.5-0.3-0.7-0.4s-0.3-0.1-0.5-0.2
						s-0.5-0.2-0.6-0.5c-0.2-0.2-0.3-0.4-0.5-0.6s-0.3-0.4-0.3-0.7c0-0.1,0-0.3,0-0.4c0-0.2-0.2-0.3-0.3-0.2L23,87.9
						c-0.1,0.1-0.3,0-0.5-0.2c0-0.1-0.1-0.1-0.1-0.2c0-0.2,0-0.4,0.1-0.5c0.3-0.3,0.5-0.5,0.9-0.6c0.1,0,0.3-0.1,0.3-0.1
						c0.2-0.2,0.6-0.1,0.9,0.1c0.1,0,0.2,0.1,0.3,0.2c0.2,0.3,0.4,0.5,0.6,0.8c0,0,0.1,0.1,0.1,0.2c0,0.3,0,0.5-0.2,0.6
						c-0.1,0-0.2,0.1-0.2,0.2c-0.1,0.1-0.3,0.1-0.5,0c-0.1,0-0.2,0-0.3-0.1c-0.1,0-0.2,0.2-0.1,0.3c0.1,0.2,0.3,0.4,0.4,0.5
						c0,0,0.1,0.1,0.2,0.1s0.2,0,0.3-0.1c0.2-0.2,0.4-0.2,0.6-0.3c0.2,0,0.3-0.2,0.5-0.3c0.3,0,0.7,0.3,0.9,0.6
						c0.2,0.3,0.3,0.7,0.2,1c0,0.6-0.2,1.2-0.4,1.7c0,0.1-0.1,0.1-0.2,0.2c0,0-0.3-0.1-0.3-0.2C26.5,91.8,26.5,91.7,26.4,91.5z
						 M23.9,87.4c0.3,0.3,0.5,0.3,0.7,0.2v-0.1c0,0,0-0.1-0.1-0.1c-0.1-0.1-0.3-0.2-0.4-0.3c-0.1,0-0.2,0-0.2,0
						C24,87.3,24,87.3,23.9,87.4z M25.9,90.2c0.1,0.1,0.2,0.1,0.2,0.2c0.1,0.1,0.2,0,0.2,0c0.1-0.1,0.1-0.2,0.1-0.3
						c0-0.1-0.2-0.3-0.2-0.3C26,89.8,25.9,89.9,25.9,90.2z"/>
				</g>
			</g>
			<g>
				<path fill="#78433F" d="M32.7,92.2c0.1,0.2,0.3,0.3,0.4,0.5c0,0,0,0.1,0,0.2c-0.1,0.2-0.3,0.3-0.5,0.1c-0.2-0.2-0.4-0.4-0.6-0.6
					c-0.2-0.2-0.2-0.5-0.3-0.7c0-0.1,0-0.2,0-0.2c0.2-0.2,0.4-0.4,0.6-0.7c0,0,0-0.2,0-0.3c0,0,0-0.1-0.1-0.1
					c-0.1-0.1-0.1-0.1-0.2-0.1c-0.1-0.1-0.3-0.2-0.4-0.1c-0.2,0.2-0.5,0.1-0.6,0.3c0,0.1-0.3,0.2-0.6,0.2c-0.2,0-0.4-0.3-0.5-0.5
					c0-0.1,0-0.1,0-0.2c0.1-0.2,0.3-0.3,0.5-0.4c0.2,0,0.3-0.1,0.4-0.2s0.1-0.2,0-0.3L30.7,89c-0.2-0.2-0.2-0.3-0.1-0.5
					c0-0.1,0.1-0.1,0.2-0.1h0.1c0.1,0.1,0.2,0.1,0.3,0.2c0.7,0.5,0.5,0.3,1.1,1.1c0.1,0.1,0.2,0.3,0.3,0.4c0.1,0.2,0.3,0.3,0.5,0.4
					c0.1,0.1,0.2,0.1,0.3,0.2c0.4,0.3,0.7,0.6,1,1c0.1,0.2,0.2,0.2,0.3,0.2s0.2,0,0.2,0c0.4,0.1,0.8,0.5,0.9,1c0,0.1,0,0.2-0.1,0.2
					c0,0.1-0.1,0.1-0.2,0c-0.1-0.1-0.2-0.2-0.3-0.3c-0.1,0-0.1,0-0.1,0.1c0,0.2,0.1,0.5,0.1,0.7c0,0.3,0,0.5-0.2,0.6l-0.1,0.1
					c-0.1,0-0.2-0.1-0.3-0.1c-0.2,0-0.5-0.2-0.7-0.4c-0.1-0.1-0.1-0.2-0.2-0.3c0-0.1,0-0.1,0-0.2c0-0.2,0-0.3,0.1-0.4
					c0,0,0.1,0,0.2,0c0.2,0.1,0.3,0.3,0.4,0.5c0.1,0.1,0.1,0.1,0.2,0.1c0.1,0,0.1,0,0.1-0.1v-0.1c0-0.2,0-0.4-0.1-0.6
					s-0.1-0.3-0.2-0.5c0-0.1-0.1-0.2-0.2-0.3c-0.3-0.2-0.5-0.4-0.8-0.6h-0.1c0,0,0,0.1,0,0.2c0.1,0.1,0.2,0.2,0.3,0.3
					c0,0.1,0.1,0.1,0.1,0.2s0,0.1,0,0.2c0,0-0.1,0-0.2,0c-0.2-0.1-0.3-0.3-0.5-0.4C32.9,92,32.8,92,32.7,92.2
					C32.7,92.1,32.7,92.2,32.7,92.2z"/>
			</g>
			<g>
				<path fill="#78433F" d="M30.6,92.7c0.3,0.1,0.7,0.4,1,0.7c0.1,0,0.1,0.1,0.1,0.2c0.1,0.1,0.1,0.2,0.1,0.3
					c0.1,0.2,0.2,0.3,0.4,0.4c0.1,0,0.2,0.1,0.3,0.1c0.4,0.2,0.7,0.5,0.9,0.9c0.1,0.1,0.1,0.3,0,0.3c-0.1,0.1-0.2,0.1-0.3,0
					s-0.2-0.2-0.2-0.2s-0.1,0-0.2,0v0.1c0.1,0.2,0.1,0.4,0.2,0.6c0.1,0.5-0.1,0.7-0.4,0.8h-0.1c-0.2,0.1-0.4-0.1-0.7-0.3
					c-0.3-0.2-0.4-0.5-0.3-0.8c0-0.1,0.1-0.2,0.3-0.1c0.1,0,0.2,0.1,0.4,0.2c0.1,0,0.2-0.1,0.1-0.2c-0.1-0.2-0.1-0.3-0.2-0.5
					c-0.1-0.2-0.1-0.4-0.1-0.6c0-0.1,0-0.2-0.1-0.3c-0.2-0.2-0.3-0.3-0.5-0.5c0,0-0.1,0-0.1-0.1c-0.1-0.1-0.2-0.1-0.2,0
					s0,0.2,0.1,0.3c0.1,0.1,0.2,0.2,0.3,0.3c0.1,0.1,0.1,0.2,0.1,0.3c0,0.1,0,0.2-0.1,0.2c-0.3-0.1-0.5-0.2-0.8-0.3
					c0,0-0.1,0-0.1,0.1c0,0,0,0.1,0.1,0.2c0.1,0,0.1,0.1,0.2,0.1c0,0,0.1,0,0.1,0.1c0.1,0.1,0.1,0.3,0.1,0.3l-0.1,0.1
					c-0.1,0.1-0.1,0.1-0.2,0c-0.2-0.1-0.4-0.3-0.6-0.5c-0.1-0.1-0.2-0.2-0.2-0.3c-0.1-0.2-0.2-0.4-0.3-0.6c-0.1-0.2,0-0.4,0.1-0.5
					c0.2-0.1,0.3-0.2,0.4-0.4C30.1,93,30.3,92.8,30.6,92.7z"/>
			</g>
			<path fill="#EB594F" d="M21.9,72.3c0.1,0,0.1,0,0.2,0s0.1,0,0.2,0.1c0.2,0.2,0.4,0.4,0.5,0.6c0.1,0.3,0.3,0.6,0.4,0.9
				c0.2,0.5,0.4,1.1,0.6,1.6c0,0.1,0.1,0.1,0.1,0.2c0,0.5,0.3,0.9,0.5,1.4c0.1,0.2,0.1,0.3,0.1,0.5c0,0.3-0.1,0.4-0.2,0.5
				s-0.2,0.1-0.4,0c-0.1,0-0.1-0.1-0.2-0.1c-0.2-0.3-0.4-0.4-0.6-0.4s-0.4-0.1-0.6-0.2c-0.1-0.1-0.2-0.2-0.3-0.3
				c-0.1-0.2-0.2-0.3-0.2-0.4c-0.1-0.2-0.2-0.4-0.3-0.6c-0.1-0.1-0.1-0.3-0.2-0.4c-0.1-0.2-0.1-0.3,0-0.5c0.1-0.1,0.1-0.2,0.2-0.3
				c0.1-0.1,0.2-0.3,0.1-0.6c-0.1-0.2-0.1-0.4-0.1-0.6c-0.2-0.4-0.2-0.8-0.1-1.2C21.6,72.3,21.7,72.2,21.9,72.3
				C21.7,72.3,21.8,72.3,21.9,72.3z M22.9,74.2L22.9,74.2c-0.1-0.3-0.3-0.7-0.4-1c-0.1-0.1-0.2-0.2-0.3-0.3c-0.1-0.1-0.2-0.1-0.2,0
				c-0.1,0.2-0.1,0.4-0.1,0.6c0,0.1,0,0.2,0.1,0.3c0.2,0.5,0.2,0.9,0.3,1.3c0,0.3,0.2,0.6,0.3,0.9l0.1,0.1c0,0,0,0,0.1,0
				c0-0.1,0-0.2,0-0.3c0-0.1,0-0.3-0.1-0.4c0-0.1,0-0.1,0.1-0.1s0.1,0.1,0.2,0.1c0.1,0.3,0.3,0.6,0.4,0.9s0.3,0.7,0.4,1
				c0,0.1,0.1,0.1,0.1,0.1s0,0,0-0.1s0-0.2,0-0.4c-0.2-0.5-0.5-1.1-0.5-1.6c0-0.1-0.1-0.2-0.1-0.3C23.1,74.7,23,74.5,22.9,74.2z
				 M23,77.1L23,77.1c0.1,0,0.1-0.2,0.1-0.3c0-0.1-0.1-0.1-0.1-0.1c-0.1,0-0.2,0-0.2,0v0.1c0,0.1,0.1,0.2,0.2,0.2
				C22.9,77.1,22.9,77.1,23,77.1z M22,75.9c0.1,0,0.1,0,0.1-0.1s-0.1-0.2-0.2-0.3c-0.1,0-0.2,0.1-0.1,0.1
				C21.8,75.8,21.9,75.9,22,75.9z"/>
			<g>
				<path fill="#78433F" d="M19.5,77.4c0,0,0,0.1,0.1,0.2c0,0.1,0,0.2-0.1,0.2s-0.3,0-0.4-0.2c-0.1-0.1-0.2-0.2-0.3-0.3
					c-0.1-0.1-0.2-0.2-0.3-0.2c-0.5,0-0.8,0.2-0.9,0.7c0,0.2,0.1,0.4,0.3,0.6c0.1,0.1,0.3,0.2,0.4,0.1c0.1,0,0.1-0.1,0-0.2
					c0-0.1-0.1-0.1-0.1-0.2c-0.1-0.1-0.1-0.3-0.1-0.4s0.2-0.2,0.3-0.1c0.2,0.1,0.5,0.3,0.7,0.5c0.1,0.1,0.2,0.3,0.1,0.4
					c-0.1,0.4-0.3,0.8-0.7,0.8c-0.4,0-0.7-0.1-1.1-0.5c-0.2-0.1-0.3-0.3-0.4-0.5c-0.1-0.1-0.1-0.2-0.1-0.3c0-0.2-0.1-0.5,0-0.7
					c0-0.3,0.1-0.5,0.2-0.7c0-0.1,0-0.1,0.1-0.1c0.2-0.1,0.4-0.3,0.6-0.3s0.4-0.1,0.6-0.1c0.1,0,0.2,0,0.3,0.1
					c0.1,0.1,0.3,0.2,0.4,0.3c0.2,0.1,0.3,0.3,0.4,0.5C19.5,77.2,19.5,77.3,19.5,77.4z"/>
			</g>
			<g>
				<path fill="#78433F" d="M18.3,81.6c0,0,0.1,0,0.2,0s0.4,0.3,0.4,0.5c0,0.1,0,0.2,0,0.3c0,0.1-0.1,0.3-0.1,0.4c0,0,0,0.1,0.1,0.2
					c0.1,0.2,0.3,0.3,0.4,0.3s0.2,0,0.3-0.1c0.1-0.1,0.2-0.2,0.4-0.2c0.1,0,0.2,0.1,0.3,0.2c0.1,0.1,0.1,0.2,0.1,0.3
					c0.1,0.1,0.1,0.3,0,0.4c-0.2,0.3-0.4,0.4-0.6,0.6c0,0,0,0-0.1,0c-0.2,0-0.4,0.2-0.6,0.3c-0.1,0.1-0.3,0-0.5-0.2
					c-0.1-0.1-0.1-0.3-0.1-0.4c0-0.2,0.2-0.3,0.3-0.5c0-0.1,0-0.2-0.1-0.3c-0.1-0.1-0.2-0.2-0.3-0.2c-0.1,0-0.2-0.1-0.2-0.1
					c-0.1,0-0.2,0-0.3,0.1c-0.1,0.1-0.2,0.1-0.4,0c-0.3-0.1-0.4-0.4-0.4-0.7c0-0.1,0.1-0.3,0.1-0.4C17.4,81.9,17.7,81.7,18.3,81.6z"
					/>
			</g>
			<g>
				<path fill="#78433F" d="M26.6,86.2c-0.2-0.1-0.3-0.3-0.5-0.4c-0.1-0.1-0.2-0.1-0.3,0c-0.1,0-0.1,0.1-0.2,0.2s-0.3,0-0.4-0.1
					c-0.1-0.2-0.2-0.4-0.2-0.5c0-0.1,0-0.2,0.1-0.3c0.4-0.2,0.6-0.6,1.1-0.7c0.1-0.2,0.3-0.1,0.5,0c0.1,0,0.2,0.2,0.2,0.3
					c0,0.2-0.1,0.4-0.1,0.6c0,0.1,0,0.3,0.2,0.4c0.1,0.1,0.3,0.2,0.4,0.2c0.2,0,0.3,0,0.5,0c0.1,0,0.3,0.1,0.4,0.2s0.2,0.2,0.1,0.3
					c0,0.1,0,0.2-0.1,0.2c-0.1,0.1-0.3,0.2-0.5,0.3c-0.1,0.1-0.2,0.2-0.4,0.3c-0.2,0.1-0.3,0.3-0.4,0.4h-0.1c-0.2,0-0.5-0.4-0.5-0.6
					c0-0.1,0-0.2,0-0.3c0-0.1,0.1-0.2,0.1-0.3C26.6,86.3,26.6,86.2,26.6,86.2z"/>
			</g>
			<g>
				<g>
					<path fill="#78433F" d="M21.2,86.5c-0.2-0.2-0.3-0.4-0.5-0.5c-0.2-0.2-0.3-0.3-0.5-0.3s-0.3-0.1-0.5-0.2
						c-0.1,0-0.1-0.1-0.2-0.1v-0.2l0.1-0.1c0.2-0.1,0.4-0.1,0.6-0.3c0.1-0.1,0.4-0.1,0.5-0.3c0.1-0.1,0.3-0.1,0.5-0.1
						s0.3,0.1,0.5,0.2s0.4,0.3,0.5,0.6c0.1,0.1,0.1,0.3,0.2,0.4s0.1,0.3,0,0.4c0,0.1,0,0.2-0.1,0.3c-0.1,0.3-0.3,0.6-0.4,0.9
						c-0.1,0.2-0.3,0.1-0.5,0c-0.1-0.1-0.2-0.2-0.2-0.4S21.2,86.6,21.2,86.5z M21.5,85.4c-0.1-0.1-0.1-0.1-0.2-0.2s-0.2-0.1-0.3,0
						l-0.1,0.1c-0.1,0.1,0,0.3,0.2,0.4c0.1,0.1,0.3,0.1,0.3,0C21.5,85.7,21.5,85.5,21.5,85.4z"/>
				</g>
			</g>
			<g>
				<g>
					<path fill="#78433F" d="M20.3,78.8c0.2-0.1,0.5,0.1,0.8,0.2c0,0,0.1,0,0.1,0.1c0.4,0.4,0.7,0.8,0.7,1.3c0,0.1,0,0.3,0,0.3
						c-0.1,0.1-0.1,0.2-0.2,0.3c-0.2,0.2-0.3,0.4-0.6,0.5c-0.1,0-0.2,0.2-0.3,0.1c-0.2-0.1-0.5-0.2-0.7-0.4
						c-0.2-0.2-0.3-0.3-0.4-0.5c-0.1-0.1-0.1-0.3-0.2-0.4c-0.1-0.2-0.1-0.5-0.1-0.7c0-0.1,0-0.2,0.1-0.2
						C19.5,79.1,19.8,78.8,20.3,78.8z M20.9,80c0-0.1-0.1-0.1-0.1-0.1c-0.2-0.2-0.5-0.3-0.6-0.2c-0.1,0.1-0.2,0.2-0.4,0.4
						c-0.1,0.1,0,0.4,0.1,0.6c0.1,0.1,0.2,0.2,0.2,0.1c0.1,0,0.2,0,0.2,0c0.2-0.1,0.4-0.2,0.4-0.5C21,80.1,20.9,80,20.9,80z"/>
				</g>
			</g>
			<g>
				<g>
					<path fill="#78433F" d="M28.9,93.4c-0.4,0.1-0.8-0.1-1.1-0.4c-0.2-0.2-0.4-0.4-0.4-0.6c0-0.1,0-0.1,0-0.2
						c0.1-0.2,0.2-0.4,0.3-0.6c0-0.1,0.1-0.2,0.2-0.2c0.2-0.1,0.3-0.3,0.5-0.4c0.1-0.1,0.2-0.1,0.4-0.1c0.1,0,0.2,0,0.3,0.1
						c0.5,0.3,0.7,0.7,0.7,1.2c0,0.2,0,0.4,0,0.5c0,0.2-0.1,0.3-0.2,0.4C29.3,93.3,29.2,93.5,28.9,93.4z M28.8,92.6
						c0.1,0,0.1,0,0.2,0s0.2-0.2,0.2-0.3v-0.1c0-0.1-0.1-0.1-0.1-0.2c-0.3-0.1-0.5,0-0.6,0.3C28.5,92.4,28.6,92.5,28.8,92.6
						C28.7,92.6,28.8,92.6,28.8,92.6z"/>
				</g>
			</g>
			<g>
				<g>
					<path fill="#78433F" d="M23.3,83.6c-0.1,0-0.3,0-0.4,0c-0.2,0-0.4-0.1-0.6-0.2s-0.4-0.2-0.6-0.5c-0.1-0.2-0.3-0.5-0.3-0.7
						c0-0.1,0-0.2,0-0.3c0.1-0.2,0.3-0.4,0.5-0.6c0.1-0.1,0.2-0.1,0.3-0.1c0.3-0.1,0.6-0.1,0.8-0.3c0.1-0.1,0.2,0,0.2,0.1
						c0.2,0.1,0.4,0.4,0.5,0.6c0.2,0.3,0.4,0.7,0.3,1c0,0.1,0,0.2,0,0.3c-0.1,0.2-0.2,0.4-0.4,0.5C23.5,83.5,23.4,83.5,23.3,83.6z
						 M23.3,82.1C23.2,82.1,23.2,82.1,23.3,82.1c-0.4-0.1-0.6,0-0.8,0.1c-0.1,0-0.1,0.1-0.1,0.2s0.1,0.2,0.1,0.3
						c0.2,0.1,0.4,0.2,0.5,0.2c0.2,0,0.3-0.2,0.3-0.4C23.3,82.3,23.3,82.2,23.3,82.1z"/>
				</g>
			</g>
			<g>
				<path fill="#78433F" d="M15.1,81.2c-0.1-0.3-0.2-0.4-0.2-0.6c0-0.1-0.1-0.2,0-0.3c0.1-0.4,0.2-0.7,0.5-0.9
					c0.1-0.1,0.2-0.1,0.4-0.1c0.3,0,0.6,0.1,0.9,0.2c0.2,0.1,0.5,0.3,0.7,0.5c0.1,0.1,0.1,0.2,0.2,0.3c0.1,0.2,0.1,0.5,0.1,0.7
					s-0.1,0.2-0.2,0.2s-0.2,0-0.2,0c-0.1,0-0.1-0.1-0.2-0.1c-0.1-0.2-0.2-0.3-0.3-0.5c-0.1-0.2-0.3-0.3-0.5-0.3s-0.3,0.2-0.4,0.3
					c0,0,0,0.1,0,0.2c0,0.2,0.1,0.4,0.3,0.6c0.1,0.2,0.3,0.3,0.4,0.5c0,0.1,0,0.2,0,0.3c-0.1,0.1-0.3,0.1-0.5,0
					c-0.1,0-0.1-0.1-0.2-0.1C15.5,81.9,15.2,81.6,15.1,81.2z"/>
			</g>
			<g>
				<g>
					<path fill="#78433F" d="M28.9,87.1c0,0,0.2,0,0.3,0c0.2,0,0.4,0.1,0.6,0.2c0,0,0.1,0.1,0.1,0.2c0.1,0.1,0.1,0.3,0.2,0.4
						s0.1,0.3,0,0.4c-0.1,0.4-0.2,0.8-0.4,1.2c-0.1,0.2-0.2,0.2-0.4,0.2c-0.1,0-0.2-0.1-0.2-0.2v-0.1c-0.1-0.4-0.4-0.7-0.7-0.9
						c0,0-0.1,0-0.1-0.1c-0.1,0-0.1,0-0.2,0s-0.2,0.1-0.3,0.2c-0.1,0-0.2,0-0.2-0.1c-0.1-0.1-0.1-0.2-0.1-0.3c0-0.1,0-0.2,0.1-0.3
						c0.2-0.3,0.5-0.3,0.7-0.5C28.4,87.2,28.6,87.1,28.9,87.1z M29.2,88.3c0.1,0,0.1-0.1,0.1-0.2S29.2,88,29.2,88
						c-0.1-0.1-0.2,0-0.3,0c0,0,0,0,0,0.1C28.8,88.1,29.1,88.3,29.2,88.3z"/>
				</g>
			</g>
			<path fill="#EB594F" d="M25.2,80c0.2,0.4,0.2,0.6,0.1,0.7c0,0,0,0-0.1,0.1c-0.1,0.2-0.1,0.4,0.1,0.6s0.4,0.4,0.6,0.6l0.1,0.1
				c0,0.1,0,0.2,0,0.2c0,0.1-0.1,0-0.1,0c-0.1,0-0.1-0.1-0.2-0.1c-0.1-0.1-0.3-0.2-0.4-0.3c-0.4-0.4-0.8-0.7-1.2-1.1
				c-0.1-0.1-0.2-0.1-0.2-0.2c-0.3-0.3-0.6-0.6-0.8-0.9c-0.1-0.1-0.1-0.1,0-0.2l0.1-0.1c0.1,0,0.2,0.1,0.3,0.2
				c0.2,0.1,0.3,0.3,0.5,0.3c0.1,0,0.2-0.1,0.3-0.2c0.1-0.1,0.1-0.2,0.1-0.4c0-0.1-0.1-0.3-0.1-0.4s0.1-0.1,0.2-0.1
				c0.1,0.1,0.2,0.1,0.3,0.2l0.1,0.1C24.7,79.4,25,79.7,25.2,80z"/>
			<g>
				<path fill="#78433F" d="M36.4,94.4C36.4,94.4,36.4,94.3,36.4,94.4c0.1-0.3,0.2-0.3,0.4-0.2c0.1,0.1,0.2,0.1,0.3,0.2
					s0.2,0.3,0.3,0.4c0,0.1,0,0.2-0.1,0.3c-0.1,0-0.3,0-0.4-0.2C36.7,94.8,36.6,94.6,36.4,94.4L36.4,94.4z"/>
			</g>
		</g>
	</g>
	<g>
		<path fill="#FADFD7" d="M86.2,89.8c-0.3,0-0.7,0-1.1-0.1c-0.5-0.2-1-0.3-1.5-0.6c-0.6-0.3-1.1-0.6-1.6-1c-0.4-0.3-0.9-0.3-1.4-0.3
			c-0.1,0-0.2,0-0.2,0.1c-0.3,0.2-0.6,0.4-0.9,0.6c-0.1,0.1-0.2,0.2-0.3,0.2c-1.4,0.7-2.6,1.7-3.9,2.5c-0.4,0.2-0.7,0.6-1.1,0.8
			c-0.4,0.2-0.8,0.4-1.2,0.6c-0.7,0.5-1.6,0.8-2.3,1.3c-0.5,0.3-1,0.4-1.5,0.5c-0.6,0.1-1.2,0.1-1.7,0s-1-0.2-1.3-0.6
			c-0.3-0.3-0.6-0.6-0.9-0.8c-0.3-0.3-0.5-0.7-0.5-1.2c0-0.4-0.1-0.7-0.2-1c-0.1-0.2,0-0.5,0-0.8c0.2-0.6,0.3-1.1,0.6-1.6
			c0.2-0.3,0.1-0.6,0-0.9c0,0,0-0.1-0.1-0.1c-0.4-0.6-0.5-1.2-0.2-1.9c0.1-0.1,0-0.3,0.1-0.4c0-0.1,0.1-0.2,0.2-0.3
			c0.3-0.3,0.6-0.7,1.1-0.7c0.1,0,0.2-0.1,0.4-0.2c0.6-0.4,1.2-0.8,1.8-1.1c0.3-0.1,0.5-0.4,0.7-0.6s0.1-0.6-0.2-0.7
			c-0.1,0-0.2-0.1-0.3-0.1c-0.5,0-1-0.3-1.6-0.3c-0.4,0-0.8-0.3-1-0.6c-0.4-0.4-0.8-0.7-1.4-0.7c-0.3,0-0.5-0.2-0.7-0.4
			c-0.1-0.1-0.1-0.1-0.1-0.2c-0.1-0.4-0.1-0.8,0-1.2c0-0.1,0.1-0.2,0.1-0.2c0.1-0.2,0.3-0.4,0.4-0.6s0.2-0.2,0.4-0.3
			c0.3-0.2,0.7-0.2,1-0.4c0.1,0,0.2,0,0.2,0c0.5,0.2,1,0.1,1.6,0c0.2-0.1,0.3-0.1,0.5-0.1c0.5,0,1.1-0.1,1.6,0.2
			c0.1,0.1,0.3,0,0.4,0c0.3,0,0.6,0.1,0.9,0.3c0.2,0.1,0.5,0.2,0.7,0.3c0.3,0.1,0.6,0.2,0.9,0.2c0.4,0,0.7,0,1.1,0.2
			c0.2,0.1,0.4,0.1,0.7,0.1c0.2,0,0.3,0,0.5-0.1c0.5-0.2,0.9-0.6,1.4-0.9c0.4-0.5,0.9-0.8,1.4-1.3c0.3-0.3,0.7-0.5,1.1-0.8
			c0.1-0.1,0.2-0.1,0.4-0.2c0.9-0.4,1.8-0.8,2.7-1.2c0.5-0.2,0.9-0.5,1.4-0.9c0.8-0.6,1.6-1.1,2.5-1.5c0.6-0.2,1.1-0.5,1.6-1
			c0.2-0.2,0.5-0.3,0.7-0.4c0.2-0.1,0.3-0.1,0.5-0.2c0.5-0.1,1.1-0.1,1.6,0c0.1,0,0.2,0.1,0.2,0.1c0.1,0.3,0.4,0.5,0.3,0.9
			c0,0.1,0,0.3,0,0.4c0,0.6-0.3,1.1-0.7,1.5c-0.3,0.3-0.7,0.5-1,0.7c-0.2,0.2-0.2,0.4-0.2,0.6v0.1c0.2,0.4,0.2,0.9,0.2,1.3
			c0,0.1-0.1,0.3-0.1,0.4c-0.1,0.2-0.1,0.3-0.2,0.5c-0.3,0.4-0.3,0.9-0.1,1.3c0.1,0.3,0.2,0.7,0.2,1s0,0.5,0.1,0.8
			c0.2,0.3,0.1,0.7,0,1c-0.1,0.6-0.4,1.1-0.8,1.5c-0.2,0.2-0.3,0.4-0.4,0.7c0,0.1-0.1,0.2-0.1,0.3c0.1,0.4,0.3,0.8,0.6,1
			c0.3,0.2,0.6,0.3,0.8,0.4c0.5,0.3,0.7,0.8,0.8,1.3c0,0.1,0,0.2,0,0.3c-0.1,0.3-0.1,0.6,0,0.9c0.1,0.2,0.1,0.4,0.1,0.7
			c0,0.1,0.1,0.3,0.1,0.4c0,0.2-0.1,0.3-0.2,0.5c-0.2,0.4-0.5,0.7-0.8,0.9c-0.2,0.2-0.4,0.4-0.6,0.5c-0.3,0.2-0.6,0.2-0.9,0.3
			c-0.1,0.1-0.3,0.1-0.5,0.1C86.6,89.8,86.4,89.8,86.2,89.8z M81.1,76.1c0.3,0,0.5,0,0.8,0c0.1,0,0.3,0.1,0.3,0.3c0,0.2,0,0.4,0,0.7
			c0,0.3,0.2,0.6,0.4,0.8c0,0,0.2,0.1,0.2,0c0.2-0.2,0.4-0.4,0.3-0.7C83,76.8,83,76.3,83,75.9c0-0.2,0-0.4,0.1-0.7
			c0-0.1,0.1-0.1,0.2-0.1s0.2,0,0.2,0.1c0,0.4,0.1,0.7,0.1,1.1c0,0.2,0.1,0.3,0.3,0.4c0.1,0,0.2,0.1,0.2,0.1c0.2,0.1,0.4,0.1,0.6,0
			c0.3-0.1,0.6-0.2,0.8-0.5c0.1-0.1,0.2-0.3,0.1-0.5c0-0.1-0.2-0.2-0.3-0.2c-0.3,0.1-0.5,0.3-0.8,0.2c0,0-0.1,0-0.1-0.1
			c-0.1,0-0.1-0.1,0-0.2c0.2-0.2,0.3-0.3,0.5-0.5c0.1-0.1,0.1-0.1,0.1-0.2s0-0.3-0.1-0.3s-0.3,0-0.4-0.1c-0.1,0-0.1-0.1-0.1-0.2
			c0.1-0.2,0.3-0.3,0.5-0.4c0.1-0.1,0.1-0.2,0-0.4c-0.1-0.1-0.2-0.3-0.4-0.3c-0.3,0-0.6,0.1-0.8,0.4c-0.2,0.4-0.5,0.6-0.9,0.7
			c-0.7,0.2-1.2,0.6-1.6,1.1C81.1,75.7,81.1,75.9,81.1,76.1c-0.1,0-0.3-0.1-0.4-0.2c-0.3-0.1-0.5,0-0.7,0.2
			c-0.1,0.1-0.2,0.2-0.2,0.4c-0.1,0.9,0,1.8-0.2,2.6c-0.1,0.2,0.2,0.5,0.4,0.5c0.1,0,0.2,0,0.2-0.1c0.1-0.2,0.2-0.4,0.3-0.6
			c0.2-0.5,0.2-0.5,0.7-0.2l0.1,0.1c0.1,0,0.3,0,0.4-0.1s0.2-0.2,0.2-0.3c-0.1-0.2-0.2-0.4-0.3-0.6c-0.1-0.4-0.3-0.7-0.4-1.1
			C81.1,76.4,81.1,76.3,81.1,76.1z M72.8,84.2c-0.1-0.1-0.2-0.1-0.2-0.2c-0.1-0.4-0.2-0.7-0.4-1c-0.2-0.4-0.7-0.6-1.2-0.4
			c-0.2,0.1-0.4,0.2-0.6,0.3c-0.3,0.2-0.6,0.5-0.7,1c0,0.2-0.1,0.4-0.2,0.6c-0.1,0.3-0.1,0.5,0,0.8c0,0.1,0.1,0.2,0.1,0.3
			c0,0.1-0.1,0.2-0.1,0.1c-0.2-0.1-0.5-0.2-0.8-0.2c-0.2,0-0.4,0.1-0.5,0.3c-0.1,0.2-0.1,0.3,0,0.5l0.1,0.1c0,0.1-0.1,0.2-0.2,0.3
			c-0.1,0-0.2,0-0.2-0.1c-0.1-0.1-0.2-0.2-0.2-0.3c-0.1-0.6,0.2-1.2,0.8-1.4c0.1,0,0.3,0,0.4-0.1c0.2-0.1,0.2-0.4,0.1-0.6l-0.1-0.1
			c-0.3-0.1-0.7-0.1-1-0.1c-0.2,0-0.3,0.1-0.5,0.3c-0.3,0.4-0.5,0.9-0.7,1.3c-0.1,0.7-0.1,1.3,0.4,1.9c0.1,0.1,0.3,0.3,0.4,0.3
			c0.4,0.1,0.8,0.1,1.2,0c0.1,0,0.2-0.1,0.3-0.2c0.1-0.2,0.3-0.4,0.4-0.5s0.2-0.3,0.2-0.5v-0.1c0-0.1,0-0.2,0-0.3
			c0-0.2,0.2-0.3,0.4-0.2c1.1,0.7,1.3,0.6,2.1-0.4c0.1-0.1,0.3-0.3,0.3-0.4C72.5,84.9,72.8,84.5,72.8,84.2c0.2,0,0.3,0.1,0.4,0.3
			c0.2,0.2,0.4,0.3,0.7,0.3c0.1,0,0.3,0,0.4,0s0.3-0.1,0.4-0.1c0.4-0.3,0.6-0.7,0.7-1.1c0.1-0.3,0.1-0.6-0.1-0.9
			c-0.1-0.2-0.1-0.4-0.1-0.5c-0.1-0.3-0.3-0.6-0.4-0.8c-0.1-0.1-0.2-0.3-0.4-0.3c-0.3,0-0.5,0-0.8,0c-0.1,0-0.3,0.1-0.3,0.2
			c-0.2,0.3-0.3,0.6-0.4,1C72.8,82.8,72.8,83.5,72.8,84.2z M81,83.3c-0.1-0.1-0.1-0.2-0.2-0.2c-0.2-0.4-0.6-0.6-0.9-0.7
			c-0.1,0-0.2,0-0.2,0.1c-0.2,0.1-0.3,0.3-0.4,0.5c-0.1,0.4,0,0.8-0.3,1.2c0,0.2-0.1,0.4,0,0.5c0,0.3,0.1,0.6,0,0.9
			c0,0.1-0.1,0.2-0.2,0.2s-0.2,0-0.2,0c-0.1,0-0.1-0.1-0.1-0.2c0.1-0.2,0.2-0.4,0.2-0.6c0.1-0.5,0.1-1-0.6-1.3
			c-0.2-0.1-0.3-0.1-0.5-0.2c-0.1,0-0.2,0-0.3,0c-0.6,0.3-0.8,0.8-1,1.4c0,0.1,0,0.2,0,0.3c0.1,0.3,0.2,0.6,0.2,0.9s0.2,0.6,0.2,0.9
			c0,0.1,0.1,0.2,0.1,0.2c0.1,0.2,0.4,0.2,0.5,0.1s0.1-0.2,0.2-0.3c0.1-0.1,0.2-0.2,0.3-0.2c0.1,0,0.3,0,0.4,0
			c0.5,0.1,1-0.1,1.4-0.4c0.1-0.1,0.3-0.2,0.3-0.4c0-0.1,0-0.3,0-0.4c0-0.2,0.1-0.3,0.3-0.4c0.1-0.1,0.3-0.2,0.5-0.1
			c0.4,0.2,0.5,0.2,0.8-0.2c0-0.1,0.1-0.2,0.1-0.2c0-0.1,0.1-0.1,0.2-0.1c0.1,0.1,0.3,0,0.4-0.1c0.4-0.3,0.7-0.7,1.1-1
			c0.3-0.3,0.5-0.6,0.6-1c0-0.1,0.1-0.1,0.2-0.1s0.2,0,0.3,0c0.4,0.1,0.7,0,1-0.2s0.6-0.3,0.9-0.6c0.3-0.3,0.7-0.4,1-0.6l0.1-0.1
			c0.3-0.2,0.4-1-0.1-1.3c-0.2-0.1-0.3-0.2-0.5-0.3c-0.1-0.1-0.3-0.2-0.4-0.4c-0.1-0.1-0.1-0.3-0.1-0.4c0.1-0.1,0.1-0.1,0.2-0.2
			c0.2-0.1,0.4-0.1,0.6-0.1l0.1-0.1c0-0.1,0-0.2,0-0.2c-0.2-0.1-0.4-0.2-0.5-0.3c-0.2,0.1-0.4,0.1-0.6,0.1s-0.4,0.1-0.6,0.3
			c-0.1,0.1-0.2,0.3-0.4,0.4c-0.2,0.2-0.3,0.3-0.6,0.3c-0.5,0-0.7,0.3-0.8,0.8c-0.1,0.3-0.1,0.6-0.1,0.9c0,0.2-0.2,0.3-0.4,0.3
			c-0.2-0.1-0.3-0.1-0.5-0.2s-0.4-0.1-0.6,0s-0.5,0.2-0.7,0.4c-0.2,0.2-0.4,0.4-0.4,0.8C81,82.2,81,82.7,81,83.3
			C81.1,83,81,83.1,81,83.3z M84.5,84.4c0-0.1-0.1-0.2-0.1-0.2c-0.1,0-0.3-0.1-0.4,0c-0.7,0.3-1.4,0.7-2.1,1.2
			c-0.2,0.2-0.4,0.4-0.5,0.6c0,0.1,0,0.2-0.1,0.3c0,0.1,0.1,0.3,0.2,0.3s0.2,0,0.3,0c0.1-0.1,0.3-0.2,0.4-0.3c0.2-0.2,0.5-0.2,0.7,0
			c0.2,0.1,0.3,0.3,0.5,0.5c0.1,0.1,0.2,0.3,0.4,0.3c0.4,0.1,0.6,0.4,0.8,0.6c0.2,0.3,0.5,0.5,0.8,0.7c0.3,0.4,0.8,0.3,1.2,0.5
			c0.1,0,0.2,0,0.3,0c0.2-0.1,0.5-0.2,0.7-0.4c0.4-0.4,0.8-0.7,1.2-1.1c0.1-0.1,0.2-0.3,0.2-0.5c0-0.1,0-0.3-0.1-0.4
			c-0.2-0.4-0.3-0.8-0.3-1.3c0-0.1,0-0.3-0.1-0.4c-0.1-0.1-0.3-0.1-0.5-0.1c-0.1,0-0.3,0-0.4-0.1c-0.2-0.2-0.5-0.4-0.7-0.6
			c-0.1-0.1-0.2-0.1-0.2-0.1c-0.1-0.1-0.4,0-0.5,0.2C86,84.5,85.8,85,86,85.5c0.1,0.2,0,0.3-0.1,0.5c-0.1,0.1-0.3,0.2-0.4,0.3
			c-0.1,0-0.2,0-0.3,0.1c-0.2,0-0.3-0.1-0.3-0.3c0.1-0.5,0.1-0.5-0.3-0.7c-0.3-0.2-0.3-0.2-0.1-0.6C84.5,84.5,84.5,84.5,84.5,84.4z
			 M67.6,77.2L67.6,77.2c-0.4,0-0.7,0-1.1,0s-0.8,0.1-1.1,0.3c-0.2,0.1-0.3,0.3-0.3,0.5c0,0.1,0,0.2,0,0.3c0,0.3,0.3,0.7,0.7,0.7
			c0.3,0,0.6,0,0.9,0c0.2,0,0.3,0.1,0.3,0.3c0,0.1,0,0.3,0.1,0.4c0.2,0.3,0.5,0.5,0.8,0.3s0.6-0.3,1-0.3c0.2,0,0.4-0.1,0.6-0.2
			c0.3-0.3,0.6-0.3,1-0.3c0.3,0,0.5,0,0.8,0.1c0.2,0,0.4,0.3,0.3,0.5c0,0.1-0.1,0.2-0.1,0.2l-0.1,0.1c0,0.1,0,0.2,0,0.2
			c0.1,0.1,0.2,0.2,0.3,0.1c0.7-0.3,1.2-0.7,1.8-1.2c0.1-0.1,0.1-0.1,0.2-0.2c0-0.1,0-0.2,0-0.3c0-0.1-0.1-0.2-0.2-0.1
			c-0.5,0.1-1,0-1.4-0.3c-0.4,0-0.7-0.2-0.9-0.5c-0.3-0.3-0.6-0.5-1-0.6c-0.2,0-0.4,0-0.5-0.1c-0.4-0.2-0.8-0.2-1.2-0.2
			C68.1,77.2,67.8,77.2,67.6,77.2z M76.3,79.8c0,0.3,0,0.4,0,0.6c0,0.5,0.1,1,0.3,1.4c0.1,0.2,0.4,0.2,0.5,0
			c0.1-0.1,0.1-0.2,0.2-0.3c0.1-0.2,0.1-0.4,0.1-0.7c0-0.2,0.2-0.3,0.4-0.4c0.1,0,0.3,0,0.4,0.1s0.2,0.1,0.4,0.2
			c0.1,0,0.3-0.1,0.4-0.1c0.1-0.3,0.2-0.6,0.3-0.9c0.1-0.6,0.1-1.2,0-1.7c0-0.2-0.1-0.3-0.3-0.4c-0.2-0.2-0.6,0-0.7,0.2
			c0,0.2-0.1,0.4-0.1,0.5c0,0.4-0.1,0.7-0.3,1c-0.1,0.1-0.1,0.1-0.2,0.1c0,0-0.1,0-0.1-0.1s-0.1-0.2-0.1-0.4c0-0.2-0.1-0.3-0.3-0.4
			c-0.1-0.1-0.2-0.1-0.2,0c-0.4,0.3-0.6,0.6-0.6,1.1C76.3,79.6,76.3,79.7,76.3,79.8z M70.4,89.1L70.4,89.1c0,0.3,0,0.5,0,0.8
			c0,0.5,0.2,1,0.3,1.5c0,0.1,0.2,0.2,0.3,0.2c0.1,0,0.3-0.1,0.3-0.2c0-0.2,0.1-0.3,0.1-0.5c0-0.4,0.2-0.6,0.5-0.7
			c0.1,0,0.2-0.1,0.2-0.1c0.2,0.1,0.5,0.2,0.7,0.4c0.1,0.1,0.4-0.1,0.4-0.3c0-0.1,0.1-0.3,0-0.4c0-0.4-0.1-0.7,0-1.1
			c0-0.4-0.1-0.7-0.3-1c-0.1-0.1-0.3-0.2-0.5-0.2c-0.1,0-0.2,0.1-0.3,0.2c0,0.1-0.1,0.3-0.1,0.4c0,0.3-0.1,0.5-0.3,0.7
			c-0.1,0.1-0.1,0.1-0.2,0.2s-0.3,0-0.3-0.1c-0.1-0.1-0.1-0.2-0.2-0.4c0-0.1-0.1-0.3-0.1-0.4s-0.3-0.2-0.5-0.1
			c-0.1,0.1-0.2,0.2-0.2,0.3C70.4,88.7,70.4,88.9,70.4,89.1z M69.7,91.5c-0.2,0-0.3,0.2-0.5,0.3c-0.2,0.1-0.4,0.3-0.7,0.4
			c-0.1,0-0.2,0-0.2,0c-0.2-0.1-0.2-0.4-0.3-0.6c0.1-0.3,0.2-0.6,0.3-0.9c0.1-0.2,0.2-0.3,0.4-0.3c0.1,0,0.3,0,0.4,0
			c0.2,0,0.2-0.3,0.1-0.4s-0.1-0.1-0.2-0.2c-0.3-0.2-0.6-0.2-0.9-0.2c-0.1,0-0.2,0-0.2,0.1c-0.2,0.1-0.3,0.3-0.5,0.5
			c-0.4,0.4-0.6,1-0.6,1.6c0.1,0.9,0.7,1.4,1.4,1.6c0.1,0,0.3,0,0.4,0c0.5-0.1,1-0.4,1.3-0.9c0.1-0.2,0.1-0.4,0-0.6
			C69.9,91.6,69.8,91.6,69.7,91.5z M73.9,88.9c0,0.1,0,0.2,0,0.3c0,0.2,0.2,0.3,0.4,0.3c0.1,0,0.3-0.1,0.3-0.2s0.1-0.2,0.1-0.2
			c0.1-0.4,0.3-0.6,0.6-0.8c0.1-0.1,0.2-0.1,0.4,0c0.1,0.1,0.3,0.2,0.5,0.1c0.3-0.1,0.4-0.4,0.3-0.6c-0.3-0.5-0.5-1-0.8-1.5
			c-0.2-0.3-0.5-0.5-0.9-0.5c-0.3,0-0.6,0.2-0.6,0.5c0,0.2-0.1,0.4-0.1,0.7c0,0.3,0,0.6-0.1,0.9C73.9,88.1,73.9,88.5,73.9,88.9z
			 M86.4,71.9C86.2,72,86.1,72,86,72.1c-0.4,0.1-0.6,0.4-0.6,0.8c0,0.1,0,0.2,0,0.3c0,0.2,0.1,0.4,0.3,0.6c0.2,0.1,0.4,0.2,0.6,0.4
			c0.1,0.1,0.2,0.2,0.3,0.3c0,0.1,0,0.2,0,0.2c-0.1,0.2-0.3,0.3-0.4,0.5v0.1c0.1,0.2,0.4,0.4,0.5,0.3c0.2-0.1,0.5-0.2,0.7-0.4
			c0.4-0.3,0.4-0.9,0.1-1.2c-0.2-0.2-0.4-0.4-0.6-0.5s-0.3-0.2-0.4-0.3l-0.1-0.1l0.1-0.1c0.1,0,0.2,0,0.3-0.1c0.1,0,0.2,0,0.2-0.1
			c0.2-0.1,0.2-0.5,0-0.6C86.7,72.1,86.5,72,86.4,71.9z M87.9,71.1c0.1,0.1,0.1,0.2,0.2,0.3c0.1,0.1,0.3,0.2,0.5,0.1
			c0.4-0.1,0.7-0.3,1-0.6c0.1-0.2,0.1-0.3,0.1-0.5c-0.1-0.1-0.2-0.2-0.3-0.2c-0.2,0-0.3,0-0.5,0c-0.4,0-0.7,0.2-0.8,0.6
			C88,70.9,87.9,71,87.9,71.1z"/>
		<path fill="#FADFD7" d="M85.4,79c0.1,0,0.3,0.1,0.4,0.1c0.3,0.2,0.6,0.4,0.8,0.7c0.1,0.1,0.1,0.2,0,0.2c-0.2,0.2-0.4,0.3-0.6,0.5
			s-0.4,0.3-0.6,0.5c-0.1,0.1-0.4,0.1-0.6-0.1c-0.1-0.1-0.1-0.2,0-0.2c0.1-0.2,0.3-0.3,0.5-0.4c0.1,0,0.1-0.1,0.1-0.2s0-0.2-0.2-0.3
			c-0.1,0-0.2,0-0.3,0h-0.1c-0.1,0-0.2-0.2-0.2-0.3c0-0.1,0.1-0.3,0.2-0.3C85,79.1,85.2,79,85.4,79z"/>
		<path fill="#FADFD7" d="M82.1,82.1c0-0.2,0-0.5,0.1-0.7c0-0.1,0.1-0.1,0.2-0.1s0.2,0,0.2,0.1c0.1,0.4,0.1,0.9,0,1.3
			c0,0.1-0.1,0.1-0.2,0.2L82.3,83c-0.1,0-0.1-0.1-0.1-0.2C82.2,82.6,82.2,82.3,82.1,82.1z"/>
		<path fill="#FADFD7" d="M80.3,83.8c0,0.1,0,0.2-0.2,0.3c-0.1,0-0.2,0-0.3-0.2c0-0.2,0-0.2,0.2-0.3C80.1,83.6,80.2,83.7,80.3,83.8z
			"/>
		<path fill="#FADFD7" d="M77.4,84.7c0-0.2,0-0.2,0.2-0.3c0.1,0,0.2,0,0.3,0.2c0,0.2-0.1,0.4-0.3,0.3C77.4,84.9,77.4,84.9,77.4,84.7
			z"/>
		<path fill="#FADFD7" d="M85.9,87.6c-0.1,0-0.2,0-0.3,0c-0.1,0-0.1-0.1-0.2-0.2s-0.1-0.2,0-0.2c0.2-0.2,0.3-0.3,0.5-0.4
			c0.3-0.2,0.6-0.4,0.9-0.6c0.2-0.2,0.5-0.1,0.6,0.2c0,0.1,0.1,0.2,0,0.3c-0.3,0.5-0.7,0.8-1.2,1C86.1,87.6,86,87.6,85.9,87.6z"/>
		<path fill="#FADFD7" d="M71.5,84.3c0,0.2,0,0.4-0.1,0.6c0,0.1-0.1,0.1-0.1,0.2c-0.1,0.1-0.3,0-0.4-0.1c-0.2-0.2-0.3-0.4-0.2-0.6
			c0.1-0.2,0.1-0.5,0.3-0.7c0.1-0.1,0.2-0.1,0.2-0.1c0.1,0,0.1,0.1,0.1,0.2C71.5,84,71.5,84.2,71.5,84.3z"/>
		<path fill="#FADFD7" d="M69.2,79c-0.4,0-0.7-0.3-1-0.3c-0.3-0.2-0.6-0.2-0.9-0.2s-0.6,0-0.9,0c-0.2,0-0.3-0.1-0.4-0.3v-0.1
			c0.2-0.2,0.5-0.3,0.7-0.3c0.7,0,1.3,0,2,0c0.6,0.2,1.2,0.2,1.7,0.6C69.9,78.6,69.5,78.8,69.2,79z"/>
		<path fill="#FADFD7" d="M73.8,82.6c0-0.2,0.1-0.3,0.1-0.4c0,0,0-0.1,0.1-0.1c0,0,0.1,0,0.1,0.1c0.4,0.3,0.3,0.7,0.2,1.1
			c0,0.1-0.1,0.1-0.2,0.1s-0.2,0-0.2-0.1C73.9,83,73.9,82.8,73.8,82.6z"/>
		<path fill="#FADFD7" d="M74.9,87.1c0.2,0,0.2,0,0.3,0.2c0,0.2,0,0.2-0.2,0.3c-0.1,0-0.2,0-0.3-0.2C74.7,87.2,74.7,87.1,74.9,87.1z
			"/>
		<path fill="#78433F" d="M81,83.3c0-0.1,0.1-0.2,0.1-0.3c0-0.5,0-1,0-1.5c0-0.4,0.2-0.6,0.4-0.8c0.2-0.2,0.5-0.3,0.7-0.4
			s0.4-0.1,0.6,0s0.3,0.1,0.5,0.2s0.4-0.1,0.4-0.3c-0.1-0.3,0-0.6,0.1-0.9c0.1-0.4,0.3-0.7,0.8-0.8c0.2,0,0.4-0.2,0.6-0.3
			c0.1-0.1,0.2-0.3,0.4-0.4c0.2-0.2,0.3-0.3,0.6-0.3c0.2,0,0.3-0.1,0.6-0.1c0.2,0.1,0.4,0.2,0.5,0.3v0.2L87.2,78
			c-0.2,0-0.4,0.1-0.6,0.1c-0.1,0-0.1,0.1-0.2,0.2s0,0.3,0.1,0.4s0.3,0.3,0.4,0.4s0.3,0.2,0.5,0.3c0.5,0.3,0.4,1.1,0.1,1.3l-0.1,0.1
			c-0.3,0.3-0.7,0.3-1,0.6c-0.2,0.3-0.6,0.4-0.9,0.6s-0.6,0.3-1,0.2c-0.1,0-0.2,0-0.3,0c-0.1,0-0.2,0.1-0.2,0.1c0,0.4-0.3,0.7-0.6,1
			c-0.3,0.4-0.7,0.7-1.1,1c-0.1,0.1-0.2,0.1-0.4,0.1c-0.1,0-0.2,0-0.2,0.1s-0.1,0.2-0.1,0.2c-0.2,0.4-0.3,0.4-0.8,0.2
			c-0.2-0.1-0.3-0.1-0.5,0.1c-0.1,0.1-0.3,0.3-0.3,0.4s0,0.3,0,0.4c0,0.2-0.1,0.3-0.3,0.4c-0.4,0.3-0.8,0.5-1.4,0.4
			c-0.1,0-0.3,0-0.4,0s-0.2,0.1-0.3,0.2c-0.1,0.1-0.1,0.2-0.2,0.3c-0.1,0.2-0.4,0.1-0.5-0.1c0-0.1-0.1-0.2-0.1-0.2
			c-0.1-0.3-0.2-0.6-0.2-0.9s-0.1-0.6-0.2-0.9c0-0.1,0-0.2,0-0.3c0.1-0.6,0.4-1.1,1-1.4c0.1,0,0.2,0,0.3,0c0.2,0,0.3,0.1,0.5,0.2
			c0.7,0.3,0.7,0.7,0.6,1.3c0,0.2-0.2,0.4-0.2,0.6c0,0.1,0,0.2,0.1,0.2s0.2,0.1,0.2,0c0.1,0,0.1-0.1,0.2-0.2c0.1-0.3,0-0.6,0-0.9
			c0-0.2,0-0.4,0-0.5c0.3-0.3,0.2-0.8,0.3-1.2c0-0.2,0.2-0.4,0.4-0.5c0.1,0,0.2-0.1,0.2-0.1c0.4,0.1,0.7,0.3,0.9,0.7
			C80.8,83.1,80.9,83.2,81,83.3z M85.4,79c-0.2,0-0.4,0-0.6,0.1c-0.1,0-0.2,0.2-0.2,0.3c0,0.1,0.1,0.3,0.2,0.3h0.1
			c0.1,0,0.2,0,0.3,0c0.2,0,0.2,0.1,0.2,0.3c0,0.1,0,0.2-0.1,0.2c-0.2,0.1-0.4,0.2-0.5,0.4c0,0.1,0,0.1,0,0.2
			c0.1,0.2,0.4,0.2,0.6,0.1c0.2-0.2,0.4-0.3,0.6-0.5s0.4-0.3,0.6-0.5c0.1-0.1,0.1-0.1,0-0.2c-0.2-0.3-0.5-0.5-0.8-0.7
			C85.7,79.1,85.6,79.1,85.4,79z M82.1,82.1c0,0.3,0,0.5,0.1,0.7c0,0.1,0.1,0.2,0.1,0.2s0.1,0,0.1-0.1c0.1-0.1,0.1-0.1,0.2-0.2
			c0.1-0.4,0.1-0.9,0-1.3c0-0.1-0.1-0.1-0.2-0.1s-0.2,0-0.2,0.1C82.2,81.6,82.2,81.9,82.1,82.1z M80.3,83.8c0-0.2-0.1-0.2-0.3-0.2
			c-0.2,0-0.2,0.1-0.2,0.3c0,0.2,0.1,0.2,0.3,0.2C80.2,84.1,80.3,84,80.3,83.8z M77.4,84.7c0,0.2,0,0.2,0.2,0.2s0.3-0.1,0.3-0.3
			c0-0.1-0.1-0.2-0.3-0.2C77.4,84.5,77.4,84.5,77.4,84.7z"/>
		<path fill="#EB594F" d="M84.5,84.4c0,0.1,0,0.2-0.1,0.2c-0.2,0.4-0.2,0.4,0.1,0.6c0.4,0.2,0.4,0.2,0.3,0.7c0,0.2,0.1,0.4,0.3,0.3
			c0.1,0,0.2,0,0.3-0.1c0.2-0.1,0.3-0.2,0.4-0.3c0.1-0.1,0.2-0.2,0.1-0.5c-0.3-0.5,0-0.9,0.2-1.4c0.1-0.1,0.3-0.2,0.5-0.2
			c0.1,0,0.2,0.1,0.2,0.1c0.2,0.2,0.5,0.4,0.7,0.6c0.3,0.3,0.4,0.3,0.5,0.3c0.2,0,0.4-0.1,0.5,0.1c0.1,0.1,0.1,0.2,0.1,0.4
			c0,0.5,0,0.9,0.3,1.3c0.1,0.1,0,0.3,0.1,0.4c0,0.2,0,0.4-0.2,0.5c-0.4,0.4-0.8,0.7-1.2,1.1c-0.2,0.2-0.5,0.2-0.7,0.4
			c-0.1,0-0.2,0.1-0.3,0c-0.4-0.2-0.9-0.2-1.2-0.5c-0.2-0.3-0.5-0.5-0.8-0.7c-0.2-0.3-0.5-0.5-0.8-0.6c-0.2-0.1-0.3-0.2-0.4-0.3
			c-0.2-0.2-0.3-0.3-0.5-0.5s-0.5-0.2-0.7,0c-0.1,0.1-0.3,0.2-0.4,0.3c-0.1,0-0.2,0-0.3,0c-0.1,0-0.2-0.2-0.2-0.3
			c0-0.1,0-0.2,0.1-0.3c0.2-0.2,0.3-0.4,0.5-0.6c0.6-0.5,1.3-0.9,2.1-1.2c0.1,0,0.3,0,0.4,0C84.5,84.2,84.5,84.3,84.5,84.4z
			 M85.9,87.6c0.1,0,0.3,0,0.4,0c0.5-0.2,1-0.5,1.2-1c0-0.1,0-0.2,0-0.3c-0.1-0.3-0.4-0.4-0.6-0.2c-0.3,0.2-0.6,0.4-0.9,0.6
			c-0.2,0.1-0.3,0.3-0.5,0.4c-0.1,0.1-0.1,0.2,0,0.2c0,0.1,0.1,0.1,0.2,0.2C85.7,87.6,85.8,87.6,85.9,87.6z"/>
		<path fill="#78433F" d="M72.8,84.1c0,0.4-0.2,0.8-0.3,1.2c0,0.2-0.2,0.3-0.3,0.4c-0.8,0.9-1,1.1-2.1,0.4c-0.2-0.1-0.3,0-0.4,0.2
			c0,0.1,0,0.2,0,0.3v0.1c0,0.2-0.1,0.3-0.2,0.5s-0.3,0.4-0.4,0.5s-0.2,0.2-0.3,0.2c-0.4,0.1-0.8,0.1-1.2,0c-0.2,0-0.3-0.1-0.4-0.3
			c-0.4-0.6-0.5-1.2-0.4-1.9c0.2-0.4,0.4-0.9,0.7-1.3c0.1-0.1,0.3-0.2,0.5-0.3c0.4-0.1,0.7,0,1,0.1l0.1,0.1c0.1,0.1,0.1,0.5-0.1,0.6
			c-0.1,0-0.3,0-0.4,0.1c-0.6,0.2-0.9,0.7-0.8,1.4c0,0.1,0.1,0.2,0.2,0.3c0,0,0.1,0,0.2,0c0.1-0.1,0.2-0.2,0.2-0.3
			c0,0,0-0.1-0.1-0.1c-0.1-0.2-0.1-0.3,0-0.5s0.3-0.3,0.5-0.3c0.3,0,0.5,0,0.8,0.2c0.1,0,0.1,0,0.1-0.1s0-0.2-0.1-0.3
			c-0.1-0.3-0.2-0.5,0-0.8c0.1-0.2,0.1-0.4,0.2-0.6c0-0.4,0.3-0.7,0.7-1c0.2-0.1,0.4-0.2,0.6-0.3c0.4-0.2,0.9,0,1.2,0.4
			c0.2,0.3,0.3,0.6,0.4,1C72.6,84.1,72.7,84.1,72.8,84.1L72.8,84.1z M71.5,84.3c0-0.2,0-0.3,0-0.4s-0.1-0.2-0.1-0.2
			c-0.1,0-0.2,0.1-0.2,0.1C71,84,71,84.3,70.9,84.5c-0.1,0.2-0.1,0.4,0.2,0.6c0.1,0.1,0.3,0.1,0.4,0.1c0.1-0.1,0.1-0.1,0.1-0.2
			C71.5,84.7,71.5,84.5,71.5,84.3z"/>
		<path fill="#EB594F" d="M67.6,77.2c0.3,0,0.5,0,0.8,0c0.4,0,0.8,0,1.2,0.2c0.1,0.1,0.4,0,0.5,0.1c0.4,0.1,0.8,0.3,1,0.6
			c0.2,0.3,0.5,0.5,0.9,0.5c0.4,0.3,0.9,0.4,1.4,0.3c0.1,0,0.2,0.1,0.2,0.1c0,0.1,0,0.2,0,0.3c0,0.1-0.1,0.2-0.2,0.2
			c-0.6,0.4-1.1,0.9-1.8,1.2c-0.1,0-0.3,0-0.3-0.1s0-0.2,0-0.2s0-0.1,0.1-0.1c0-0.1,0.1-0.2,0.1-0.2c0.1-0.2-0.1-0.5-0.3-0.5
			c-0.3,0-0.5,0-0.8-0.1c-0.4,0-0.7,0.1-1,0.3C69.2,80,69,80.1,68.8,80c-0.4,0-0.7,0.1-1,0.3c-0.3,0.2-0.6,0-0.8-0.3
			c-0.1-0.1-0.1-0.2-0.1-0.4c-0.1-0.3-0.1-0.3-0.3-0.3c-0.3,0-0.6,0-0.9,0s-0.6-0.4-0.7-0.7c0-0.1,0-0.2,0-0.3
			c0-0.2,0.1-0.4,0.3-0.5c0.4-0.2,0.7-0.3,1.1-0.3C66.8,77.2,67.2,77.2,67.6,77.2L67.6,77.2z M69.2,79c0.4-0.2,0.8-0.4,1.2-0.6
			c-0.6-0.4-1.2-0.5-1.7-0.6c-0.7,0-1.3,0-2,0c-0.3,0-0.5,0.1-0.7,0.3v0.1c0.1,0.2,0.3,0.3,0.4,0.3c0.3,0,0.6,0,0.9,0s0.6,0,0.9,0.2
			C68.5,78.7,68.8,79,69.2,79z"/>
		<path fill="#78433F" d="M81.1,76.1c0-0.2,0-0.4,0.2-0.6c0.5-0.5,1-0.9,1.6-1.1c0.4-0.1,0.7-0.4,0.9-0.7c0.2-0.3,0.5-0.4,0.8-0.4
			c0.2,0,0.3,0.2,0.4,0.3c0.1,0.1,0.1,0.3,0,0.4c-0.2,0.1-0.4,0.2-0.5,0.4c0,0.1,0,0.2,0.1,0.2s0.3,0,0.4,0.1c0.1,0,0.2,0.3,0.1,0.3
			c0,0.1-0.1,0.2-0.1,0.2c-0.2,0.2-0.3,0.3-0.5,0.5c-0.1,0.1-0.1,0.2,0,0.2c0,0,0.1,0,0.1,0.1c0.3,0.1,0.5-0.1,0.8-0.2
			c0.1,0,0.2,0.1,0.3,0.2c0.1,0.2,0,0.4-0.1,0.5c-0.2,0.2-0.5,0.3-0.8,0.5c-0.2,0.1-0.4,0.1-0.6,0c-0.2-0.3-0.3-0.3-0.4-0.3
			c-0.2-0.1-0.3-0.2-0.3-0.4c0-0.4-0.1-0.7-0.1-1.1c0-0.1-0.1-0.1-0.2-0.1s-0.2,0-0.2,0.1c0,0.2-0.1,0.4-0.1,0.7
			c0,0.4,0,0.9,0.1,1.3c0.1,0.3-0.1,0.5-0.3,0.7h-0.2c-0.2-0.2-0.4-0.5-0.4-0.8c0-0.2,0-0.4,0-0.7c0-0.1-0.1-0.3-0.3-0.3
			C81.6,76.1,81.3,76.1,81.1,76.1L81.1,76.1z"/>
		<path fill="#78433F" d="M76.3,79.8c0-0.1,0-0.2,0-0.3c-0.1-0.5,0.2-0.8,0.6-1.1c0.1-0.1,0.2,0,0.2,0c0.1,0.1,0.2,0.3,0.3,0.4
			c0,0.1,0.1,0.3,0.1,0.4l0.1,0.1c0.1,0,0.2,0,0.2-0.1c0.2-0.3,0.3-0.6,0.3-1c0-0.2,0-0.4,0.1-0.5c0-0.2,0.5-0.3,0.7-0.2
			c0.2,0.1,0.3,0.3,0.3,0.4c0.1,0.6,0.1,1.2,0,1.7c-0.1,0.3-0.2,0.6-0.3,0.9c0,0.1-0.3,0.2-0.4,0.1c-0.1,0-0.2-0.1-0.4-0.2
			c-0.1-0.1-0.3-0.1-0.4-0.1c-0.2,0.1-0.3,0.2-0.4,0.4c-0.1,0.2-0.1,0.4-0.1,0.7c0,0.1-0.1,0.2-0.2,0.3c-0.1,0.2-0.4,0.2-0.5,0
			c-0.2-0.4-0.4-0.9-0.3-1.4C76.3,80.2,76.3,80,76.3,79.8z"/>
		<path fill="#78433F" d="M72.8,84.2c0-0.7,0-1.3,0-2c0-0.4,0.2-0.7,0.4-1c0.1-0.1,0.2-0.2,0.3-0.2c0.3,0,0.5,0,0.8,0
			c0.2,0,0.3,0.1,0.4,0.3c0.2,0.3,0.3,0.5,0.4,0.8c0.1,0.2,0.1,0.3,0.1,0.5c0.1,0.3,0.2,0.6,0.1,0.9c-0.1,0.4-0.4,0.8-0.7,1.1
			c-0.1,0.1-0.2,0.1-0.4,0.1c-0.1,0-0.3,0-0.4,0c-0.3,0-0.5-0.1-0.7-0.3C73.1,84.3,73,84.1,72.8,84.2L72.8,84.2z M73.8,82.6
			c0,0.2,0,0.4,0.1,0.6c0,0.1,0.1,0.1,0.2,0.1s0.2,0,0.2-0.1c0.1-0.4,0.2-0.8-0.2-1.1L74,82c0,0-0.1,0-0.1,0.1
			C73.9,82.3,73.9,82.4,73.8,82.6z"/>
		<path fill="#78433F" d="M70.4,89.1c0-0.2,0-0.4,0-0.7c0-0.1,0.1-0.2,0.2-0.3c0.1-0.1,0.4,0,0.5,0.1c0,0.1,0.1,0.3,0.1,0.4
			s0.1,0.2,0.2,0.4c0.1,0.1,0.2,0.2,0.3,0.1c0.1-0.1,0.1-0.1,0.2-0.2c0.2-0.2,0.3-0.4,0.3-0.7c0-0.1,0-0.3,0.1-0.4
			c0-0.1,0.1-0.2,0.3-0.2c0.2,0,0.4,0,0.5,0.2c0.1,0.3,0.3,0.6,0.3,1s0,0.7,0,1.1c0,0.1,0,0.3,0,0.4c0,0.2-0.3,0.3-0.4,0.3
			c-0.2-0.1-0.5-0.2-0.7-0.4c-0.1,0-0.2,0-0.2,0.1c-0.3,0.2-0.5,0.4-0.5,0.7c0,0.2,0,0.3-0.1,0.5c0,0.1-0.2,0.2-0.3,0.2
			c-0.1,0-0.3-0.1-0.3-0.2c-0.1-0.5-0.3-1-0.3-1.5C70.4,89.7,70.4,89.4,70.4,89.1L70.4,89.1z"/>
		<path fill="#78433F" d="M69.7,91.5c0.1,0.1,0.2,0.2,0.3,0.3c0.1,0.2,0.1,0.4,0,0.6c-0.3,0.5-0.8,0.7-1.3,0.9c-0.1,0-0.3,0-0.4,0
			c-0.7-0.2-1.3-0.7-1.4-1.6c0-0.5,0.2-1.2,0.6-1.6c0.2-0.2,0.3-0.3,0.5-0.5c0.1-0.1,0.2-0.1,0.2-0.1c0.3,0,0.6-0.1,0.9,0.2
			c0.1,0.1,0.1,0.1,0.2,0.2s0,0.4-0.1,0.4s-0.3,0-0.4,0c-0.2,0-0.3,0.1-0.4,0.3c-0.1,0.3-0.2,0.6-0.3,0.9c0.1,0.2,0.1,0.4,0.3,0.6
			c0.1,0,0.2,0.1,0.2,0c0.2-0.1,0.5-0.3,0.7-0.4C69.4,91.6,69.5,91.5,69.7,91.5z"/>
		<path fill="#78433F" d="M73.9,88.9c0-0.4,0-0.8,0.2-1.1c0.1-0.3,0.1-0.6,0.1-0.9c0-0.2,0-0.4,0.1-0.7c0-0.2,0.3-0.4,0.6-0.5
			c0.4,0,0.7,0.1,0.9,0.5c0.3,0.5,0.5,1,0.8,1.5c0.1,0.2,0,0.5-0.3,0.6c-0.2,0.1-0.3,0-0.5-0.1c-0.1-0.1-0.3-0.1-0.4,0
			c-0.3,0.2-0.6,0.4-0.6,0.8c0,0.1,0,0.2-0.1,0.2c-0.1,0.1-0.2,0.2-0.3,0.2c-0.2,0-0.4-0.1-0.4-0.3C73.9,89.1,73.9,88.9,73.9,88.9z
			 M74.9,87.1c-0.2,0-0.2,0.1-0.2,0.3c0,0.2,0.1,0.2,0.3,0.2c0.2,0,0.2-0.1,0.2-0.3C75.2,87.2,75.1,87.1,74.9,87.1z"/>
		<path fill="#78433F" d="M81.1,76.1c0,0.2,0,0.4,0.1,0.5c0.1,0.4,0.2,0.8,0.4,1.1c0.1,0.2,0.2,0.4,0.3,0.6c0,0.1-0.1,0.2-0.2,0.3
			c-0.1,0.1-0.2,0.1-0.4,0.1c0,0-0.1,0-0.1-0.1c-0.4-0.2-0.4-0.2-0.7,0.2c-0.1,0.2-0.2,0.4-0.3,0.6c0,0.1-0.2,0.1-0.2,0.1
			c-0.2,0-0.4-0.3-0.4-0.5c0.3-0.9,0.2-1.8,0.2-2.6c0-0.1,0.1-0.2,0.2-0.4c0.2-0.2,0.4-0.3,0.7-0.2C80.8,75.9,81,76,81.1,76.1
			L81.1,76.1z"/>
		<path fill="#78433F" d="M86.4,71.9c0.2,0.1,0.4,0.2,0.6,0.3c0.2,0.1,0.1,0.5,0,0.6c-0.1,0-0.2,0.1-0.2,0.1c-0.1,0-0.2,0-0.3,0.1
			c0,0-0.1,0-0.1,0.1c0,0,0,0.1,0.1,0.1c0.1,0.1,0.3,0.2,0.4,0.3c0.3,0.1,0.4,0.3,0.6,0.5c0.2,0.3,0.3,0.9-0.1,1.2
			c-0.2,0.2-0.5,0.3-0.7,0.4c-0.1,0.1-0.5-0.1-0.5-0.3v-0.1c0.1-0.2,0.3-0.3,0.4-0.5c0-0.1,0-0.2,0-0.2c-0.1-0.1-0.2-0.2-0.3-0.3
			c-0.2-0.1-0.4-0.2-0.6-0.4c-0.2-0.1-0.3-0.3-0.3-0.6c0-0.1,0-0.2,0-0.3c0-0.4,0.2-0.7,0.6-0.8C86.1,72,86.2,72,86.4,71.9z"/>
		<path fill="#78433F" d="M87.9,71.1c0.1-0.1,0.1-0.2,0.2-0.4c0.1-0.4,0.4-0.6,0.8-0.6c0.2,0,0.3,0,0.5,0c0.1,0,0.3,0.1,0.3,0.2
			c0.1,0.2,0.1,0.3-0.1,0.5c-0.2,0.3-0.6,0.5-1,0.6c-0.2,0.1-0.4,0-0.5-0.1C88,71.4,88,71.2,87.9,71.1z"/>
	</g>
	<path fill="#78433F" d="M78.7,23.2c0,0,0.1,1.8,0.7,1.8c0.6,0.1,1.2-1.1,1.6-1.3s1.1,1.3,1.5,1.5s1.5,0.2,1.4-0.2
		c-0.1-0.4,0.7-1.2,1.2-1s1.3,0.3,1.6,0c0.3-0.3-0.3-1.3-0.3-1.3s1.5-0.1,2-0.6s0.5-0.8,0.3-1.1c-0.5-0.9,0.7-0.6,1.1-1.2
		c0.4-0.6,0.8-0.8,0.6-1.1c-0.2-0.3-0.8-0.6-0.9-0.9c-0.1-0.4,0.6-0.9,0.3-1.7c-0.3-0.7-0.6-1.1-0.6-1.1s-1-0.4-1.1-0.6
		c-0.1-0.3-0.9-1.5-1.3-1.5s-1.3-0.1-1.3-0.1s-0.5-1-1.1-1s-0.9,0.5-0.9,0.5s-0.5,0.2-0.7,0.2c-0.1,0-0.3-0.8-0.6-0.8
		c-0.3,0-0.5,0.2-0.6,0.3c-0.1,0.1-0.9,0.1-1.1-0.1c-0.3-0.3-0.6-0.4-0.7-0.3c-0.1,0.1-0.1,0.1-0.1,0.2c0,0.1-0.3,0.6-0.3,0.8
		c0,0.2-0.1,0.4-0.2,0.4s-1.2-0.2-1.4-0.1c-0.2,0.1-0.3,0.1-0.4,0.2c0,0.1,0,0.3,0.1,0.4c0,0.1,0.1,0.3,0.2,0.5s-0.2,0.1-0.5,0.3
		c-0.2,0-1.2,0.2-1.3,0.4s-0.2,0.3-0.1,0.4c0.2,0,0.2,0,0.4,0.1s0.5,0.3,0.5,0.4s-0.4,0.3-0.5,0.3s-1,0.4-1.1,0.4s-0.2,0.3-0.2,0.3
		c0,0.1,0,0.2,0.2,0.2s0.3,0.2,0.5,0.2s0.3,0.5,0.3,0.6s-0.2,0.3-0.3,0.4c-0.1,0.1-0.3,0.4-0.3,0.5s-0.1,0.2-0.1,0.3s0,0.3,0.2,0.3
		s0.3,0.1,0.4,0.1s0.3,0.1,0.4,0.1s0.2,0.2,0.1,0.5c-0.1,0.3-0.3,0.7-0.3,0.7s-0.2,0.3-0.2,0.4c0,0.1-0.2,0.4,0,0.4
		c0.1,0,0.5,0.3,0.7,0.2c0.3,0,0.8,0,0.8,0s-0.2,0.9-0.2,1s0,0.4,0,0.5s-0.1,0.3,0.2,0.3s0.9-0.1,0.9-0.1S78.7,23.1,78.7,23.2z"/>
</g>
</svg>
